<svg width="20" height="22" viewBox="0 0 20 22" fill="none" xmlns="http://www.w3.org/2000/svg">
<path id="Vector" fill-rule="evenodd" clip-rule="evenodd" d="M2.59069 18.1249C2.55842 18.1248 2.52621 18.1239 2.49408 18.1221C2.19876 18.106 1.91094 18.0202 1.6544 17.8712C1.37029 17.7061 1.13453 17.4693 0.970744 17.1845C0.80696 16.8997 0.720903 16.5768 0.721192 16.2482C0.721485 15.9196 0.808112 15.5969 0.972402 15.3124L0.973072 15.3112C1.47496 14.4443 2.14355 12.6968 2.14355 9.49986V8.75062L2.14511 8.7483C2.17963 5.49445 4.17107 2.65756 7.02224 1.46902L7.02692 1.46204C7.44364 1.29129 7.87323 1.15706 8.31085 1.06029C8.83707 0.94304 9.38378 0.879207 9.9455 0.874952L9.94776 0.874996C9.98281 0.874722 10.0179 0.874683 10.0529 0.874878L10.0552 0.87489C14.4059 0.907852 17.8561 4.5148 17.8561 8.83424V9.49986C17.8561 12.6968 18.5246 14.4443 19.0265 15.3112L19.0272 15.3124C19.1915 15.5969 19.2781 15.9196 19.2784 16.2482C19.2787 16.5768 19.1926 16.8997 19.0289 17.1845C18.8651 17.4693 18.6293 17.7061 18.3452 17.8712C18.0611 18.0362 17.7386 18.1237 17.41 18.1249L17.4061 18.1249L14.1078 18.1249C14.0205 19.0814 13.6014 19.982 12.9167 20.6668C12.1431 21.4403 11.0939 21.8749 9.99988 21.8749C8.90586 21.8749 7.85665 21.4403 7.08306 20.6668C6.39836 19.982 5.97922 19.0814 5.89195 18.1249L2.59465 18.1249L2.59069 18.1249ZM8.16275 18.1249C8.23573 18.4825 8.41215 18.8139 8.67405 19.0758C9.02568 19.4274 9.5026 19.6249 9.99988 19.6249C10.4972 19.6249 10.9741 19.4274 11.3257 19.0758C11.5876 18.8139 11.764 18.4824 11.837 18.1249L8.16275 18.1249ZM10.0393 3.12484C9.79174 3.12351 9.54493 3.13855 9.30043 3.16966C6.53806 3.52454 4.39465 5.93767 4.39465 8.8343V9.49992C4.39465 12.5411 3.84264 14.5623 3.21747 15.8749H16.7833C16.1581 14.5623 15.6061 12.5411 15.6061 9.49986V8.83424C15.6061 5.7103 13.1131 3.14874 10.0393 3.12484Z" fill="#F7F7F7"/>
</svg>
