<svg width="24" height="24" viewBox="0 0 24 24" fill="none" xmlns="http://www.w3.org/2000/svg">
<path opacity="0.4" d="M16 10L14 8" stroke="#53A828" stroke-width="1.5"/>
<path opacity="0.4" d="M10 16L8 14" stroke="#53A828" stroke-width="1.5"/>
<path opacity="0.4" d="M8 10L10 8" stroke="#53A828" stroke-width="1.5"/>
<path opacity="0.4" d="M14 16L16 14" stroke="#53A828" stroke-width="1.5"/>
<path d="M11.9116 3.32582C11.9604 3.27701 12.0396 3.27701 12.0884 3.32582L14.6742 5.91161C14.723 5.96043 14.723 6.03957 14.6742 6.08839L12.0884 8.67418C12.0396 8.72299 11.9604 8.72299 11.9116 8.67417L9.32582 6.08839C9.27701 6.03957 9.27701 5.96043 9.32583 5.91161L11.9116 3.32582Z" stroke="#53A828" stroke-width="1.75"/>
<path d="M11.9116 15.3258C11.9604 15.277 12.0396 15.277 12.0884 15.3258L14.6742 17.9116C14.723 17.9604 14.723 18.0396 14.6742 18.0884L12.0884 20.6742C12.0396 20.723 11.9604 20.723 11.9116 20.6742L9.32582 18.0884C9.27701 18.0396 9.27701 17.9604 9.32583 17.9116L11.9116 15.3258Z" stroke="#53A828" stroke-width="1.75"/>
<path d="M5.29289 8.70711C5.68342 8.31658 6.31658 8.31658 6.70711 8.70711L9.29289 11.2929C9.68342 11.6834 9.68342 12.3166 9.29289 12.7071L6.70711 15.2929C6.31658 15.6834 5.68342 15.6834 5.29289 15.2929L2.70711 12.7071C2.31658 12.3166 2.31658 11.6834 2.70711 11.2929L5.29289 8.70711Z" fill="#53A828"/>
<path d="M17.2929 8.70711C17.6834 8.31658 18.3166 8.31658 18.7071 8.70711L21.2929 11.2929C21.6834 11.6834 21.6834 12.3166 21.2929 12.7071L18.7071 15.2929C18.3166 15.6834 17.6834 15.6834 17.2929 15.2929L14.7071 12.7071C14.3166 12.3166 14.3166 11.6834 14.7071 11.2929L17.2929 8.70711Z" fill="#53A828"/>
</svg>
