<svg width="24" height="24" viewBox="0 0 24 24" fill="none" xmlns="http://www.w3.org/2000/svg">
<g opacity="0.4">
<path d="M12.75 10.7007V3H11.25V10.7007C11.4706 10.573 11.7268 10.5 12 10.5C12.2732 10.5 12.5294 10.573 12.75 10.7007Z" fill="#53A828"/>
<path d="M12.75 10.7007C13.1981 10.9601 13.5 11.4449 13.5 12C13.5 12.555 13.1985 13.0397 12.7504 13.2991L19.4195 17.1495L20.1695 15.8505L13.5 12L20.1695 8.14952L19.4195 6.85048L12.75 10.7007Z" fill="#53A828"/>
<path d="M12.7504 13.2991C12.5298 13.4267 12.2732 13.5 12 13.5C11.7268 13.5 11.4706 13.427 11.25 13.2993V21H12.75L12.7504 13.2991Z" fill="#53A828"/>
<path d="M11.25 13.2993C10.8018 13.04 10.5001 12.5553 10.5 12.0002L3.83105 15.8505L4.58105 17.1495L11.25 13.2993Z" fill="#53A828"/>
<path d="M10.5 12.0002C10.5001 11.4451 10.8018 10.96 11.25 10.7007L4.58105 6.85048L3.83105 8.14952L10.5 12.0002Z" fill="#53A828"/>
</g>
<circle cx="12" cy="4" r="1.5" fill="#53A828"/>
<circle cx="19.5" cy="7.75" r="1.5" fill="#53A828"/>
<circle cx="4.5" cy="7.75" r="1.5" fill="#53A828"/>
<circle cx="19.5" cy="16.25" r="1.5" fill="#53A828"/>
<circle cx="4.5" cy="16.25" r="1.5" fill="#53A828"/>
<circle cx="12" cy="20" r="1.5" fill="#53A828"/>
<path fill-rule="evenodd" clip-rule="evenodd" d="M12 15.5C13.933 15.5 15.5 13.933 15.5 12C15.5 10.067 13.933 8.5 12 8.5C10.067 8.5 8.5 10.067 8.5 12C8.5 13.933 10.067 15.5 12 15.5ZM12 13.5C12.8284 13.5 13.5 12.8284 13.5 12C13.5 11.1716 12.8284 10.5 12 10.5C11.1716 10.5 10.5 11.1716 10.5 12C10.5 12.8284 11.1716 13.5 12 13.5Z" fill="#53A828"/>
</svg>
