<svg width="24" height="24" viewBox="0 0 24 24" fill="none" xmlns="http://www.w3.org/2000/svg">
<path opacity="0.4" d="M11 19C11 19.5523 11.4477 20 12 20C12.5523 20 13 19.5523 13 19V18H18V19C18 19.5523 18.4477 20 19 20C19.5523 20 20 19.5523 20 19V17C20 16.4477 19.5523 16 19 16H13V14.5H11V16H5C4.44772 16 4 16.4477 4 17V19C4 19.5523 4.44772 20 5 20C5.55228 20 6 19.5523 6 19V18H11V19Z" fill="#53A828"/>
<path d="M10.9391 5.06068C11.5249 4.47489 12.4746 4.47489 13.0604 5.06068L15.9391 7.93936C16.5249 8.52515 16.5249 9.47489 15.9391 10.0607L13.0604 12.9394C12.4746 13.5251 11.5249 13.5251 10.9391 12.9394L8.06043 10.0607C7.47465 9.47489 7.47465 8.52514 8.06043 7.93936L10.9391 5.06068Z" fill="#53A828"/>
</svg>
