<svg width="32" height="32" viewBox="0 0 32 32" fill="none" xmlns="http://www.w3.org/2000/svg">
<path fill-rule="evenodd" clip-rule="evenodd" d="M3.86617 19.9874C2.76373 18.885 3.54453 17 5.10361 17H27.5001C28.3285 17 29.0001 17.6716 29.0001 18.5C29.0001 19.3284 28.3285 20 27.5001 20H8.12137L14.0607 25.9393C14.6465 26.5251 14.6465 27.4749 14.0607 28.0607C13.4749 28.6464 12.5252 28.6464 11.9394 28.0607L3.86617 19.9874Z" fill="#8F8F8F"/>
<path fill-rule="evenodd" clip-rule="evenodd" d="M17.9393 3.93934C18.5251 3.35355 19.4749 3.35355 20.0607 3.93934L28.1339 12.0126C29.2363 13.115 28.4555 15 26.8964 15H4.5C3.67157 15 3 14.3284 3 13.5C3 12.6716 3.67157 12 4.5 12H23.8787L17.9393 6.06066C17.3536 5.47487 17.3536 4.52513 17.9393 3.93934Z" fill="#8F8F8F"/>
</svg>
