<svg width="22" height="22" viewBox="0 0 22 22" fill="none" xmlns="http://www.w3.org/2000/svg">
<path d="M11 17C11.8284 17 12.5 16.3284 12.5 15.5C12.5 14.6716 11.8284 14 11 14C10.1716 14 9.5 14.6716 9.5 15.5C9.5 16.3284 10.1716 17 11 17Z" fill="#F7F7F7"/>
<path d="M11.7316 5.44706C11.0042 5.30236 10.2502 5.37662 9.56494 5.66045C8.87971 5.94428 8.29404 6.42493 7.88199 7.04161C7.46993 7.6583 7.25 8.38332 7.25 9.125C7.25 9.74632 7.75368 10.25 8.375 10.25C8.99632 10.25 9.5 9.74632 9.5 9.125C9.5 8.82833 9.58797 8.53832 9.7528 8.29165C9.91762 8.04497 10.1519 7.85271 10.426 7.73918C10.7001 7.62565 11.0017 7.59595 11.2926 7.65382C11.5836 7.7117 11.8509 7.85456 12.0607 8.06434C12.2704 8.27412 12.4133 8.54139 12.4712 8.83237C12.5291 9.12334 12.4994 9.42494 12.3858 9.69903C12.2723 9.97312 12.08 10.2074 11.8334 10.3722C11.5867 10.537 11.2967 10.625 11 10.625C10.3787 10.625 9.875 11.1287 9.875 11.75C9.875 12.3713 10.3787 12.875 11 12.875C11.7417 12.875 12.4667 12.6551 13.0834 12.243C13.7001 11.831 14.1807 11.2453 14.4645 10.5601C14.7484 9.87484 14.8226 9.12084 14.6779 8.39341C14.5333 7.66598 14.1761 6.9978 13.6517 6.47335C13.1272 5.9489 12.459 5.59175 11.7316 5.44706Z" fill="#F7F7F7"/>
<path fill-rule="evenodd" clip-rule="evenodd" d="M0.875 11C0.875 5.40812 5.40812 0.875 11 0.875C16.5919 0.875 21.125 5.40812 21.125 11C21.125 16.5919 16.5919 21.125 11 21.125C5.40812 21.125 0.875 16.5919 0.875 11ZM11 3.125C6.65076 3.125 3.125 6.65076 3.125 11C3.125 15.3492 6.65076 18.875 11 18.875C15.3492 18.875 18.875 15.3492 18.875 11C18.875 6.65076 15.3492 3.125 11 3.125Z" fill="#F7F7F7"/>
</svg>
