<svg width="24" height="24" viewBox="0 0 24 24" fill="none" xmlns="http://www.w3.org/2000/svg">
<path fill-rule="evenodd" clip-rule="evenodd" d="M5 3C4.44772 3 4 3.44772 4 4V7C4 7.55228 4.44772 8 5 8H19C19.5523 8 20 7.55228 20 7V4C20 3.44772 19.5523 3 19 3H5ZM17 6.5C17.5523 6.5 18 6.05228 18 5.5C18 4.94772 17.5523 4.5 17 4.5C16.4477 4.5 16 4.94772 16 5.5C16 6.05228 16.4477 6.5 17 6.5Z" fill="#8F8F8F"/>
<path opacity="0.7" fill-rule="evenodd" clip-rule="evenodd" d="M5 9.5C4.44772 9.5 4 9.94772 4 10.5V13.5C4 14.0523 4.44772 14.5 5 14.5H19C19.5523 14.5 20 14.0523 20 13.5V10.5C20 9.94772 19.5523 9.5 19 9.5H5ZM17 13C17.5523 13 18 12.5523 18 12C18 11.4477 17.5523 11 17 11C16.4477 11 16 11.4477 16 12C16 12.5523 16.4477 13 17 13Z" fill="#8F8F8F"/>
<path opacity="0.4" fill-rule="evenodd" clip-rule="evenodd" d="M5 16C4.44772 16 4 16.4477 4 17V20C4 20.5523 4.44772 21 5 21H19C19.5523 21 20 20.5523 20 20V17C20 16.4477 19.5523 16 19 16H5ZM17 19.5C17.5523 19.5 18 19.0523 18 18.5C18 17.9477 17.5523 17.5 17 17.5C16.4477 17.5 16 17.9477 16 18.5C16 19.0523 16.4477 19.5 17 19.5Z" fill="#8F8F8F"/>
</svg>
