<svg width="22" height="21" viewBox="0 0 22 21" fill="none" xmlns="http://www.w3.org/2000/svg">
<path fill-rule="evenodd" clip-rule="evenodd" d="M6.7145 13.6927C4.98982 12.3923 3.87488 10.3264 3.87488 8C3.87488 4.06497 7.06485 0.875 10.9999 0.875C14.9349 0.875 18.1249 4.06497 18.1249 8C18.1249 10.3264 17.0099 12.3924 15.2851 13.6928C15.8098 13.9009 16.3205 14.1476 16.8127 14.4318C18.58 15.4523 20.0475 16.92 21.0678 18.6875C21.3784 19.2256 21.194 19.9136 20.6559 20.2243C20.1178 20.5349 19.4297 20.3504 19.1191 19.8123C18.2963 18.3869 17.1128 17.2033 15.6876 16.3803C14.2873 15.5718 12.7022 15.1394 11.0864 15.1245C11.0576 15.1248 11.0288 15.125 10.9999 15.125C10.9709 15.125 10.942 15.1248 10.9132 15.1245C9.29728 15.1394 7.71211 15.5718 6.31183 16.3803C4.88656 17.2033 3.70305 18.3869 2.88028 19.8123C2.56967 20.3504 1.88165 20.5349 1.34354 20.2243C0.805432 19.9136 0.621009 19.2256 0.931619 18.6875C1.95185 16.92 3.4194 15.4523 5.18674 14.4318C5.67902 14.1476 6.18972 13.9008 6.7145 13.6927ZM6.12488 8C6.12488 5.30761 8.30749 3.125 10.9999 3.125C13.6923 3.125 15.8749 5.30761 15.8749 8C15.8749 10.6657 13.7353 12.8317 11.0797 12.8744C11.053 12.8742 11.0264 12.8741 10.9997 12.8741C10.9731 12.8741 10.9465 12.8742 10.9199 12.8744C8.26442 12.8317 6.12488 10.6657 6.12488 8Z" fill="#F7F7F7"/>
</svg>