<svg width="24" height="24" viewBox="0 0 24 24" fill="none" xmlns="http://www.w3.org/2000/svg">
<path d="M9.41639 16.5116C10.9826 15.4948 13.0165 15.4948 14.5827 16.5116C15.0459 16.8124 15.0417 17.4568 14.6512 17.8474L12.7066 19.7919C12.3161 20.1825 11.6829 20.1825 11.2924 19.7919L9.34787 17.8474C8.95735 17.4568 8.95317 16.8124 9.41639 16.5116Z" fill="#53A828"/>
<path opacity="0.7" fill-rule="evenodd" clip-rule="evenodd" d="M17.4796 15.0189C17.0891 15.4095 16.4596 15.4021 16.0161 15.073C13.6376 13.3077 10.3615 13.3077 7.98298 15.073C7.53949 15.4021 6.90999 15.4095 6.51946 15.0189L5.4588 13.9583C5.06828 13.5678 5.06562 12.93 5.49192 12.5789C9.26355 9.4724 14.7355 9.4724 18.5072 12.5789C18.9335 12.93 18.9308 13.5678 18.5403 13.9583L17.4796 15.0189Z" fill="#53A828"/>
<path opacity="0.4" fill-rule="evenodd" clip-rule="evenodd" d="M21.369 11.1299C20.9785 11.5204 20.3472 11.5163 19.9265 11.1584C15.3655 7.27922 8.63413 7.27922 4.07315 11.1584C3.65245 11.5163 3.02118 11.5204 2.63066 11.1299L1.57 10.0692C1.17947 9.67867 1.17804 9.04228 1.59223 8.67694C7.52974 3.43972 16.4699 3.43972 22.4074 8.67694C22.8216 9.04228 22.8202 9.67867 22.4296 10.0692L21.369 11.1299Z" fill="#53A828"/>
</svg>
