<?xml version="1.0" encoding="UTF-8"?>
<svg width="24px" height="24px" viewBox="0 0 24 24" version="1.1" xmlns="http://www.w3.org/2000/svg" xmlns:xlink="http://www.w3.org/1999/xlink">
    <!-- Generator: Sketch 60.1 (88133) - https://sketch.com -->
    <title>Topology / port / 10g-port-topology_24</title>
    <desc>Created with Sketch.</desc>
    <g id="Topology-/-port-/-10g-port-topology_24" stroke="none" stroke-width="1" fill="none" fill-rule="evenodd">
        <path d="M17,22 L17,20 L16,18 L8,18 L7,20 L7,22 L2,22 C0.8954305,22 0,21.1045695 0,20 L0,4 C0,2.8954305 0.8954305,2 2,2 L22,2 C23.1045695,2 24,2.8954305 24,4 L24,20 C24,21.1045695 23.1045695,22 22,22 L17,22 Z" id="secondary-color" fill="#FFA000"></path>
        <path d="M22,2 C23.1045695,2 24,2.8954305 24,4 L24,20 C24,21.1045695 23.1045695,22 22,22 L17,22 L17,20 L16,18 L8,18 L7,20 L7,22 L2,22 C0.8954305,22 0,21.1045695 0,20 L0,4 C0,2.8954305 0.8954305,2 2,2 L22,2 Z M21.5045474,3.00174728 L2.50228417,3.00174728 C1.67385705,3.00174728 1.00228417,3.67332016 1.00228417,4.50174728 L1.00228417,19.5019055 C1.00228417,20.3303326 1.67385705,21.0019055 2.50228417,21.0019055 L6.00438117,21.0019055 L6.00438117,19.4310851 C6.00438117,19.4000361 6.01161019,19.3694135 6.02549573,19.3416424 L7.14008554,17.1124628 C7.17396394,17.044706 7.24321657,17.0019055 7.31897098,17.0019055 L16.6867985,17.0019055 C16.762553,17.0019055 16.8318056,17.044706 16.865684,17.1124628 L17.9802738,19.3416424 C17.9941593,19.3694135 18.0013883,19.4000361 18.0013883,19.4310851 L18.0013883,21.0019055 L21.5045474,21.0019055 C22.3329745,21.0019055 23.0045474,20.3303326 23.0045474,19.5019055 L23.0045474,4.50174728 C23.0045474,3.67332016 22.3329745,3.00174728 21.5045474,3.00174728 Z" id="10g-port-topology_24" fill="#00090D"></path>
    </g>
</svg>