<?xml version="1.0" encoding="UTF-8"?>
<svg width="24px" height="24px" viewBox="0 0 24 24" version="1.1" xmlns="http://www.w3.org/2000/svg" xmlns:xlink="http://www.w3.org/1999/xlink">
    <!-- Generator: Sketch 60.1 (88133) - https://sketch.com -->
    <title>Topology / port / 1g-port-topology_24</title>
    <desc>Created with Sketch.</desc>
    <g id="Topology-/-port-/-1g-port-topology_24" stroke="none" stroke-width="1" fill="none" fill-rule="evenodd">
        <path d="M17,4 L18,4 C18.5522847,4 19,4.44771525 19,5 L19,5 L19,5 L22,5 C23.1045695,5 24,5.8954305 24,7 L24,20 C24,21.1045695 23.1045695,22 22,22 L2,22 C0.8954305,22 0,21.1045695 0,20 L0,7 C0,5.8954305 0.8954305,5 2,5 L5,5 C5,4.44771525 5.44771525,4 6,4 L7,4 L7,4 L7,3 C7,2.44771525 7.44771525,2 8,2 L16,2 C16.5522847,2 17,2.44771525 17,3 L17,4 L17,4 Z" id="secondary-color" fill="#FFA000"></path>
        <path d="M16,2 C16.5522847,2 17,2.44771525 17,3 L17,4 L18,4 C18.5128358,4 18.9355072,4.38604019 18.9932723,4.88337887 L19,5 L22,5 C23.1045695,5 24,5.8954305 24,7 L24,20 C24,21.1045695 23.1045695,22 22,22 L2,22 C0.8954305,22 0,21.1045695 0,20 L0,7 C0,5.8954305 0.8954305,5 2,5 L5,5 C5,4.44771525 5.44771525,4 6,4 L7,4 L7,3 C7,2.44771525 7.44771525,2 8,2 L16,2 Z M15.8,2.9962477 L8.2,2.9962477 C8.08954305,2.9962477 8,3.08579075 8,3.1962477 L8,4.7962477 C8,4.90670465 7.91045695,4.9962477 7.8,4.9962477 L6.2,4.9962477 C6.08954305,4.9962477 6,5.08579075 6,5.1962477 L6,5.7962477 C6,5.90670465 5.91045695,5.9962477 5.8,5.9962477 L2.5,5.9962477 C1.67157288,5.9962477 1,6.66782058 1,7.4962477 L1.00231934,19.5009918 C1.00231934,20.3294189 1.16246671,21.0009918 1.99089383,21.0009918 L21.5026703,21.0009918 C22.3310974,21.0009918 23.0026703,20.3294189 23.0026703,19.5009918 L23,7.4962477 C23,6.66782058 22.3284271,5.9962477 21.5,5.9962477 L18.2,5.9962477 C18.0895431,5.9962477 18,5.90670465 18,5.7962477 L18,5.1962477 C18,5.08579075 17.9104569,4.9962477 17.8,4.9962477 L16.2,4.9962477 C16.0895431,4.9962477 16,4.90670465 16,4.7962477 L16,3.1962477 C16,3.08579075 15.9104569,2.9962477 15.8,2.9962477 Z" id="1g-port-topology_24" fill="#00090D"></path>
    </g>
</svg>