<?xml version="1.0" encoding="UTF-8"?>
<svg width="36px" height="36px" viewBox="0 0 36 36" version="1.1" xmlns="http://www.w3.org/2000/svg" xmlns:xlink="http://www.w3.org/1999/xlink">
    <!-- Generator: Sketch 60.1 (88133) - https://sketch.com -->
    <title>Topology / ENFV / AAA-topology_36</title>
    <desc>Created with Sketch.</desc>
    <g id="Topology-/-ENFV-/-AAA-topology_36" stroke="none" stroke-width="1" fill="none" fill-rule="evenodd">
        <rect id="secondary-color" fill="#FFA000" x="0" y="11" width="36" height="15" rx="2.5"></rect>
        <path d="M14.06,22.2 L12.93,22.2 L12.22,20.38 L8.79,20.38 L8.07,22.2 L7,22.2 L9.96,15 L11.11,15 L14.06,22.2 Z M10.52,16.02 L9.12,19.55 L11.89,19.55 L10.52,16.02 Z M21.7033333,22.2 L20.5733333,22.2 L19.8633333,20.38 L16.4333333,20.38 L15.7133333,22.2 L14.6433333,22.2 L17.6033333,15 L18.7533333,15 L21.7033333,22.2 Z M18.1633333,16.02 L16.7633333,19.55 L19.5333333,19.55 L18.1633333,16.02 Z M29.3466666,22.2 L28.2166666,22.2 L27.5066666,20.38 L24.0766666,20.38 L23.3566666,22.2 L22.2866666,22.2 L25.2466666,15 L26.3966666,15 L29.3466666,22.2 Z M25.8066666,16.02 L24.4066666,19.55 L27.1766666,19.55 L25.8066666,16.02 Z" id="AAA-topology_36" fill="#00090D"></path>
    </g>
</svg>