<?xml version="1.0" encoding="UTF-8"?>
<svg width="24px" height="24px" viewBox="0 0 24 24" version="1.1" xmlns="http://www.w3.org/2000/svg" xmlns:xlink="http://www.w3.org/1999/xlink">
    <!-- Generator: Sketch 60.1 (88133) - https://sketch.com -->
    <title>Tools / access-control-polivy / access-control-policy_24</title>
    <desc>Created with Sketch.</desc>
    <g id="Tools-/-access-control-polivy-/-access-control-policy_24" stroke="none" stroke-width="1" fill="none" fill-rule="evenodd">
        <path d="M18.541,9 C19.897,9 21,10.103 21,11.459 L21,21.541 C21,22.897 19.897,24 18.541,24 L5.459,24 C4.103,24 3,22.897 3,21.541 L3,11.459 C3,10.103 4.103,9 5.459,9 L6,9 L6,6.01 C6,2.696 8.696,0 12.01,0 C15.325,0 18.021,2.696 18.021,6.01 L18.021,9 L18.541,9 Z M20,21.541 L20,11.459 C20,10.654 19.346,10 18.541,10 L5.459,10 C4.654,10 4,10.654 4,11.459 L4,21.541 C4,22.346 4.654,23 5.459,23 L18.541,23 C19.346,23 20,22.346 20,21.541 Z M7,6.01 L7,9 L17.021,9 L17.021,6.01 C17.021,3.248 14.773,1 12.01,1 C9.248,1 7,3.248 7,6.01 Z M9.75,14.25 C9.75,13.0073593 10.7573593,12 12,12 C13.2426407,12 14.25,13.0073593 14.25,14.25 C14.25,14.9417905 13.9348086,15.5773594 13.4187317,15.9966582 L14.7747859,18.8575184 C14.8699695,19.0583267 14.919346,19.2777752 14.919346,19.5 C14.919346,20.3284271 14.2477731,21 13.419346,21 L10.5854296,21 C10.3618258,21 10.1410506,20.950009 9.93925789,20.8536846 C9.19163851,20.4968139 8.87487418,19.6014477 9.23174497,18.8538283 L10.5916048,16.0050169 C10.0696017,15.5859803 9.75,14.9466112 9.75,14.25 Z M10.1342014,19.2846094 C10.0152445,19.5338159 10.1208326,19.8322713 10.370039,19.9512282 C10.4373033,19.9833363 10.510895,20 10.5854296,20 L13.419346,20 C13.6954884,20 13.919346,19.7761424 13.919346,19.5 C13.919346,19.4259251 13.9028872,19.3527756 13.8711593,19.2858395 L12.1184887,15.5882398 L12.5569855,15.3694778 C12.9783211,15.1592773 13.25,14.7291111 13.25,14.25 C13.25,13.5596441 12.6903559,13 12,13 C11.3096441,13 10.75,13.5596441 10.75,14.25 C10.75,14.7327176 11.0258233,15.165594 11.4520431,15.3739365 L11.8970896,15.5914817 L10.1342014,19.2846094 Z" id="access-control-policy_24" fill="#00090D"></path>
    </g>
</svg>