<?xml version="1.0" encoding="UTF-8"?>
<svg width="24px" height="24px" viewBox="0 0 24 24" version="1.1" xmlns="http://www.w3.org/2000/svg" xmlns:xlink="http://www.w3.org/1999/xlink">
    <!-- Generator: Sketch 60.1 (88133) - https://sketch.com -->
    <title>Tools / activity / activity_24</title>
    <desc>Created with Sketch.</desc>
    <g id="Tools-/-activity-/-activity_24" stroke="none" stroke-width="1" fill="none" fill-rule="evenodd">
        <path d="M14,5 C18.9705627,5 23,9.02943725 23,14 C23,18.9705627 18.9705627,23 14,23 C9.02943725,23 5,18.9705627 5,14 C5,9.02943725 9.02943725,5 14,5 Z M14,6 C9.581722,6 6,9.581722 6,14 C6,18.418278 9.581722,22 14,22 C18.418278,22 22,18.418278 22,14 C22,9.581722 18.418278,6 14,6 Z M5.33839245,19.0009861 C5.53916369,19.3479684 5.76018632,19.6817676 5.99984401,20.0007673 L1.5,20 C1.22385763,20 1,19.7761424 1,19.5 C1,19.2545401 1.17687516,19.0503916 1.41012437,19.0080557 L1.5,19 L5.33839245,19.0009861 Z M13.5,10 C13.7454599,10 13.9496084,10.1768752 13.9919443,10.4101244 L14,10.5 L14,14.293 L15.8535534,16.1464466 C16.0488155,16.3417088 16.0488155,16.6582912 15.8535534,16.8535534 C15.679987,17.0271197 15.4105626,17.0464049 15.2156945,16.9114088 L15.1464466,16.8535534 L13.1464466,14.8535534 L13.1345887,14.8412864 C13.1229392,14.8288187 13.1119203,14.8157542 13.1015827,14.8021439 L13.1464466,14.8535534 C13.1196123,14.8267191 13.0964658,14.7975936 13.077007,14.7668065 C13.0700193,14.7556825 13.0632933,14.7440467 13.0570343,14.7321272 C13.0497496,14.7182757 13.0433515,14.7045389 13.0376106,14.6905951 C13.0324085,14.6780251 13.0275581,14.6647369 13.0232684,14.6511992 C13.018448,14.6358347 13.0143961,14.6204743 13.0110857,14.6049871 C13.0100022,14.6001386 13.0089896,14.5950208 13.0080557,14.5898756 L13.0054619,14.5739178 C13.0023875,14.5532373 13.000611,14.5324012 13.0001324,14.5115408 L13,14.5 L13,10.5 C13,10.2238576 13.2238576,10 13.5,10 Z M4.83182926,10.0005908 C4.69004864,10.3251494 4.5649972,10.6586888 4.45776484,11.0001192 L1.5,11 C1.22385763,11 1,10.7761424 1,10.5 C1,10.2545401 1.17687516,10.0503916 1.41012437,10.0080557 L1.5,10 L4.83182926,10.0005908 Z M16.5,1 C16.7761424,1 17,1.22385763 17,1.5 C17,1.74545989 16.8231248,1.94960837 16.5898756,1.99194433 L16.5,2 L1.5,2 C1.22385763,2 1,1.77614237 1,1.5 C1,1.25454011 1.17687516,1.05039163 1.41012437,1.00805567 L1.5,1 L16.5,1 Z" id="activity_16" fill="#00090D"></path>
    </g>
</svg>