<?xml version="1.0" encoding="UTF-8"?>
<svg width="16px" height="16px" viewBox="0 0 16 16" version="1.1" xmlns="http://www.w3.org/2000/svg" xmlns:xlink="http://www.w3.org/1999/xlink">
    <!-- Generator: Sketch 60.1 (88133) - https://sketch.com -->
    <title>Tools / activity / activity_16</title>
    <desc>Created with Sketch.</desc>
    <g id="Tools-/-activity-/-activity_16" stroke="none" stroke-width="1" fill="none" fill-rule="evenodd">
        <path d="M9.5,3 C13.0898509,3 16,5.91014913 16,9.5 C16,13.0898509 13.0898509,16 9.5,16 C5.91014913,16 3,13.0898509 3,9.5 C3,5.91014913 5.91014913,3 9.5,3 Z M9.5,4 C6.46243388,4 4,6.46243388 4,9.5 C4,12.5375661 6.46243388,15 9.5,15 C12.5375661,15 15,12.5375661 15,9.5 C15,6.46243388 12.5375661,4 9.5,4 Z M1.5,12 L2.42716214,12.0011254 C2.5493914,12.3467673 2.69623952,12.6807764 2.86559935,13.0010455 L1.5,13 C1.22385763,13 1,12.7761424 1,12.5 C1,12.2545401 1.17687516,12.0503916 1.41012437,12.0080557 L1.5,12 Z M9.5,6 C9.74545989,6 9.94960837,6.17687516 9.99194433,6.41012437 L10,6.5 L10,9.75 L11.8,11.1 C12.0209139,11.2656854 12.0656854,11.5790861 11.9,11.8 C11.7527241,11.9963679 11.4887348,12.0535616 11.2767339,11.9474808 L11.2,11.9 L9.2,10.4 L9.19013852,10.3924363 C9.17631259,10.3815047 9.16307803,10.369858 9.1504907,10.357552 L9.2,10.4 C9.17225236,10.3791893 9.1472836,10.3560481 9.12516172,10.3310526 C9.11471866,10.3190813 9.10494652,10.3069178 9.0957501,10.2943075 C9.08788094,10.283668 9.08060895,10.2727967 9.07379793,10.2616971 C9.06490775,10.2471406 9.05660738,10.231963 9.04909558,10.2163346 C9.04451751,10.2067453 9.04022403,10.1969851 9.03625182,10.1871132 C9.03101252,10.1742803 9.02641584,10.1613833 9.02234552,10.1482548 C9.01710405,10.1309953 9.01269886,10.1134587 9.00924872,10.0957453 C9.00881537,10.0939874 9.00842922,10.0919337 9.00805567,10.0898756 L9.0059235,10.0767375 C9.00241642,10.0541458 9.00044974,10.0313184 9.00004791,10.0084268 L9,10 L9,6.5 C9,6.22385763 9.22385763,6 9.5,6 Z M2.86507224,5.99995148 C2.69577203,6.32022467 2.54898227,6.65423359 2.42680966,6.99987158 L1.5,7 C1.22385763,7 1,6.77614237 1,6.5 C1,6.25454011 1.17687516,6.05039163 1.41012437,6.00805567 L1.5,6 L2.86507224,5.99995148 Z M11.5,-1.0125234e-13 C11.7761424,-1.0125234e-13 12,0.223857625 12,0.5 C12,0.745459889 11.8231248,0.94960837 11.5898756,0.991944331 L11.5,1 L1.5,1 C1.22385763,1 1,0.776142375 1,0.5 C1,0.254540111 1.17687516,0.0503916296 1.41012437,0.00805566941 L1.5,-1.0125234e-13 L11.5,-1.0125234e-13 Z" id="activity_16" fill="#00090D"></path>
    </g>
</svg>