<?xml version="1.0" encoding="UTF-8"?>
<svg width="18px" height="18px" viewBox="0 0 18 18" version="1.1" xmlns="http://www.w3.org/2000/svg" xmlns:xlink="http://www.w3.org/1999/xlink">
    <!-- Generator: Sketch 60.1 (88133) - https://sketch.com -->
    <title>Action/add/add-circle/add-circle_18</title>
    <desc>Created with Sketch.</desc>
    <g id="Action/add/add-circle/add-circle_18" stroke="none" stroke-width="1" fill="none" fill-rule="evenodd">
        <path d="M9.5,8.5 L12.5,8.5 C12.7761424,8.5 13,8.72385763 13,9 C13,9.27614237 12.7761424,9.5 12.5,9.5 L9.5,9.5 L9.5,12.5 C9.5,12.7761424 9.27614237,13 9,13 C8.72385763,13 8.5,12.7761424 8.5,12.5 L8.5,9.5 L5.5,9.5 C5.22385763,9.5 5,9.27614237 5,9 C5,8.72385763 5.22385763,8.5 5.5,8.5 L8.5,8.5 L8.5,5.5 C8.5,5.22385763 8.72385763,5 9,5 C9.27614237,5 9.5,5.22385763 9.5,5.5 L9.5,8.5 Z M9,18 C4.02943725,18 0,13.9705627 0,9 C0,4.02943725 4.02943725,0 9,0 C13.9705627,0 18,4.02943725 18,9 C18,13.9705627 13.9705627,18 9,18 Z M9,17 C13.418278,17 17,13.418278 17,9 C17,4.581722 13.418278,1 9,1 C4.581722,1 1,4.581722 1,9 C1,13.418278 4.581722,17 9,17 Z" id="add-circle_18" fill="#00090D"></path>
    </g>
</svg>