<?xml version="1.0" encoding="UTF-8"?>
<svg width="24px" height="24px" viewBox="0 0 24 24" version="1.1" xmlns="http://www.w3.org/2000/svg" xmlns:xlink="http://www.w3.org/1999/xlink">
    <!-- Generator: Sketch 60.1 (88133) - https://sketch.com -->
    <title>Action/add/add-circle/add-circle-filled_24</title>
    <desc>Created with Sketch.</desc>
    <g id="Action/add/add-circle/add-circle-filled_24" stroke="none" stroke-width="1" fill="none" fill-rule="evenodd">
        <path d="M12,0 C18.617,0 24,5.383 24,12 C24,18.617 18.617,24 12,24 C5.383,24 0,18.617 0,12 C0,5.383 5.383,0 12,0 Z M12,6 C11.725,6 11.5,6.225 11.5,6.5 L11.5,6.5 L11.5,11.5 L6.5,11.5 C6.225,11.5 6,11.725 6,12 C6,12.275 6.225,12.5 6.5,12.5 L6.5,12.5 L11.5,12.5 L11.5,17.5 C11.5,17.775 11.725,18 12,18 C12.275,18 12.5,17.775 12.5,17.5 L12.5,17.5 L12.5,12.5 L17.5,12.5 C17.775,12.5 18,12.275 18,12 C18,11.725 17.775,11.5 17.5,11.5 L17.5,11.5 L12.5,11.5 L12.5,6.5 C12.5,6.225 12.275,6 12,6 Z" id="add-circle-filled_24" fill="#00090D"></path>
    </g>
</svg>