<?xml version="1.0" encoding="UTF-8"?>
<svg width="16px" height="16px" viewBox="0 0 16 16" version="1.1" xmlns="http://www.w3.org/2000/svg" xmlns:xlink="http://www.w3.org/1999/xlink">
    <!-- Generator: Sketch 60.1 (88133) - https://sketch.com -->
    <title>Action/add/add-circle/add-circle_16</title>
    <desc>Created with Sketch.</desc>
    <g id="Action/add/add-circle/add-circle_16" stroke="none" stroke-width="1" fill="none" fill-rule="evenodd">
        <path d="M7.5,7.5 L7.5,4.50043583 C7.5,4.22405275 7.73193359,4 8,4 C8.27614237,4 8.5,4.23079681 8.5,4.50043583 L8.5,7.5 L11.4995642,7.5 C11.7759472,7.5 12,7.73193359 12,8 C12,8.27614237 11.7692032,8.5 11.4995642,8.5 L8.5,8.5 L8.5,11.4995642 C8.5,11.7759472 8.26806641,12 8,12 C7.72385763,12 7.5,11.7692032 7.5,11.4995642 L7.5,8.5 L4.50043583,8.5 C4.22405275,8.5 4,8.26806641 4,8 C4,7.72385763 4.23079681,7.5 4.50043583,7.5 L7.5,7.5 Z M8,0 C12.411,0 16,3.589 16,8 C16,12.411 12.411,16 8,16 C3.589,16 0,12.411 0,8 C0,3.589 3.589,0 8,0 Z M8,15 C11.86,15 15,11.86 15,8 C15,4.14 11.86,1 8,1 C4.14,1 1,4.14 1,8 C1,11.86 4.14,15 8,15 Z" id="add-circle_16" fill="#00090D"></path>
    </g>
</svg>