<?xml version="1.0" encoding="UTF-8"?>
<svg width="24px" height="24px" viewBox="0 0 24 24" version="1.1" xmlns="http://www.w3.org/2000/svg" xmlns:xlink="http://www.w3.org/1999/xlink">
    <!-- Generator: Sketch 60.1 (88133) - https://sketch.com -->
    <title>Action/add/add_24</title>
    <desc>Created with Sketch.</desc>
    <g id="Action/add/add_24" stroke="none" stroke-width="1" fill="none" fill-rule="evenodd">
        <path d="M11.5,11.5 L11.5,1.5 C11.5,1.22385763 11.7238576,1 12,1 C12.2761424,1 12.5,1.22385763 12.5,1.5 L12.5,11.5 L22.5,11.5 C22.7761424,11.5 23,11.7238576 23,12 C23,12.2761424 22.7761424,12.5 22.5,12.5 L12.5,12.5 L12.5,22.5 C12.5,22.7761424 12.2761424,23 12,23 C11.7238576,23 11.5,22.7761424 11.5,22.5 L11.5,12.5 L1.5,12.5 C1.22385763,12.5 1,12.2761424 1,12 C1,11.7238576 1.22385763,11.5 1.5,11.5 L11.5,11.5 Z" id="add_24" fill="#00090D"></path>
    </g>
</svg>