<?xml version="1.0" encoding="UTF-8"?>
<svg width="16px" height="16px" viewBox="0 0 16 16" version="1.1" xmlns="http://www.w3.org/2000/svg" xmlns:xlink="http://www.w3.org/1999/xlink">
    <!-- Generator: Sketch 60.1 (88133) - https://sketch.com -->
    <title>Action/add/add_16</title>
    <desc>Created with Sketch.</desc>
    <g id="Action/add/add_16" stroke="none" stroke-width="1" fill="none" fill-rule="evenodd">
        <path d="M7.5,7.5 L7.5,0.5 C7.5,0.223857625 7.72385763,-1.77635684e-15 8,-1.77635684e-15 C8.27614237,-1.77635684e-15 8.5,0.223857625 8.5,0.5 L8.5,7.5 L15.5,7.5 C15.7761424,7.5 16,7.72385763 16,8 C16,8.27614237 15.7761424,8.5 15.5,8.5 L8.5,8.5 L8.5,15.5 C8.5,15.7761424 8.27614237,16 8,16 C7.72385763,16 7.5,15.7761424 7.5,15.5 L7.5,8.5 L0.5,8.5 C0.223857625,8.5 0,8.27614237 0,8 C0,7.72385763 0.223857625,7.5 0.5,7.5 L7.5,7.5 Z" id="add_16" fill="#00090D"></path>
    </g>
</svg>