<?xml version="1.0" encoding="UTF-8"?>
<svg width="12px" height="12px" viewBox="0 0 12 12" version="1.1" xmlns="http://www.w3.org/2000/svg" xmlns:xlink="http://www.w3.org/1999/xlink">
    <!-- Generator: Sketch 60.1 (88133) - https://sketch.com -->
    <title>Action/add/add_12</title>
    <desc>Created with Sketch.</desc>
    <g id="Action/add/add_12" stroke="none" stroke-width="1" fill="none" fill-rule="evenodd">
        <path d="M5.5,5.5 L5.5,0.5 C5.5,0.223857625 5.72385763,0 6,0 C6.27614237,0 6.5,0.223857625 6.5,0.5 L6.5,5.5 L11.5,5.5 C11.7761424,5.5 12,5.72385763 12,6 C12,6.27614237 11.7761424,6.5 11.5,6.5 L6.5,6.5 L6.5,11.5 C6.5,11.7761424 6.27614237,12 6,12 C5.72385763,12 5.5,11.7761424 5.5,11.5 L5.5,6.5 L0.5,6.5 C0.223857625,6.5 0,6.27614237 0,6 C0,5.72385763 0.223857625,5.5 0.5,5.5 L5.5,5.5 Z" id="add_12" fill="#00090D"></path>
    </g>
</svg>