<?xml version="1.0" encoding="UTF-8"?>
<svg width="24px" height="24px" viewBox="0 0 24 24" version="1.1" xmlns="http://www.w3.org/2000/svg" xmlns:xlink="http://www.w3.org/1999/xlink">
    <title>Action / admin-settings_24</title>
    <g id="Action-/-admin-settings_24" stroke="none" stroke-width="1" fill="none" fill-rule="evenodd">
        <path d="M11.0007609,1 C14.8597609,1 18.0007609,4.14 18.0007609,8 C18.0007609,10.124 17.0467609,12.025 15.5477609,13.31 C15.6177609,13.322 15.6877609,13.3393333 15.7556868,13.3640741 L15.8557609,13.407 L16.7717609,13.866 L17.1547609,13.707 L17.4777609,12.736 C17.6247609,12.296 18.0347609,12 18.4997609,12 C18.9233972,12 19.3015791,12.2446281 19.4765302,12.6204358 L19.5227609,12.737 L19.8457609,13.708 L20.2287609,13.867 L21.1497609,13.408 C21.5627609,13.198 22.0627609,13.282 22.3907609,13.61 C22.6877609,13.907 22.7830709,14.34251 22.6468019,14.729906 L22.5927609,14.857 L22.1327609,15.771 L22.2907609,16.155 L23.2647609,16.48 C23.66567,16.6154545 23.9459179,16.9666116 23.9935588,17.3771976 L24.0007609,17.502 C24.0007609,17.9274545 23.7553063,18.3058017 23.3785971,18.4800165 L23.2617609,18.526 L22.2897609,18.848 L22.1317609,19.231 L22.5897609,20.145 C22.7977609,20.558 22.7167609,21.058 22.3887609,21.388 C22.0899609,21.6841 21.6558909,21.78013 21.2709879,21.64693 L21.1447609,21.594 L20.2267609,21.136 L19.8437609,21.294 L19.5227609,22.263 C19.3767609,22.704 18.9667609,23 18.5017609,23 C18.0772154,23 17.6997774,22.7553719 17.5242177,22.3803156 L17.4777609,22.264 L17.1547609,21.296 L16.7707609,21.138 L15.8587609,21.596 C15.4437609,21.803 14.9437609,21.724 14.6137609,21.393 C14.3176609,21.0987 14.2224409,20.66589 14.3572609,20.279007 L14.4107609,20.152 L14.8687609,19.231 L14.7097609,18.848 L13.7377609,18.526 C13.2967609,18.38 13.0007609,17.97 13.0007609,17.505 C13.0007609,17.0813636 13.2445625,16.7040083 13.6187173,16.5277047 L13.7347609,16.481 L14.7107609,16.154 L14.8697609,15.77 L14.4117609,14.854 C14.3017609,14.633 14.2777609,14.389 14.3257609,14.158 C13.42667,14.6452727 12.4085708,14.9424628 11.3270606,14.9924703 L11.0007609,15 L6.38476087,15 C4.27452754,15 2.43341421,16.4063389 1.83427099,18.445795 L1.77676087,18.659 L1.00576087,21.791 C0.987760874,21.863 1.01676087,21.916 1.03676087,21.94 C1.05076087,21.9586667 1.07231643,21.9791111 1.10320532,21.9906667 L1.15676087,22 L12.5007609,22 C12.7767609,22 13.0007609,22.223 13.0007609,22.5 C13.0007609,22.7453333 12.8237732,22.9495802 12.590599,22.9919396 L12.5007609,23 L1.15676087,23 C0.801760874,23 0.469760874,22.839 0.249760874,22.556 C0.0537608744,22.306625 -0.0304578756,21.9952344 0.00983314006,21.6854707 L0.0347608744,21.553 L0.805760874,18.421 C1.42636694,15.8959091 3.6022494,14.1108439 6.14530953,14.0049768 L6.38476087,14 L7.41476087,14 C5.37376087,12.775 4.00076087,10.548 4.00076087,8 C4.00076087,4.14 7.14076087,1 11.0007609,1 Z M18.5737609,13.053 L18.4267609,13.053 L18.0317609,14.24 C17.9949609,14.3504 17.9216809,14.44352 17.8252329,14.504512 L17.7487609,14.544 L16.9437609,14.877 C16.8365609,14.9202 16.7184809,14.92628 16.6089769,14.893704 L16.5287609,14.862 L15.4107609,14.303 L15.3057609,14.407 L15.8657609,15.527 C15.9169609,15.631 15.9310409,15.74844 15.9064649,15.859864 L15.8807609,15.942 L15.5477609,16.746 C15.5037609,16.8532 15.4239209,16.94056 15.3236009,16.994768 L15.2447609,17.029 L14.0527609,17.429 L14.0517609,17.577 L15.2417609,17.972 C15.3521609,18.008 15.4452809,18.08176 15.5062729,18.178432 L15.5457609,18.255 L15.8797609,19.058 C15.9229609,19.1644 15.9284009,19.28296 15.8960809,19.392688 L15.8647609,19.473 L15.3047609,20.598 L15.4097609,20.701 L16.5257609,20.141 C16.6297609,20.089 16.7472009,20.07476 16.8586249,20.099816 L16.9407609,20.126 L17.7467609,20.459 C17.8539609,20.503 17.9413209,20.58284 17.9955289,20.68316 L18.0297609,20.762 L18.4267609,21.948 L18.5737609,21.948 L18.9677609,20.763 C19.0037609,20.6526 19.0775209,20.55948 19.1741929,20.497976 L19.2507609,20.458 L20.0547609,20.124 C20.1619609,20.0792 20.2806809,20.07344 20.3899289,20.10672 L20.4697609,20.139 L21.5907609,20.698 L21.6947609,20.593 L21.1347609,19.474 C21.0819609,19.3708 21.0682009,19.25288 21.0934809,19.141232 L21.1197609,19.059 L21.4537609,18.254 C21.4985609,18.1468 21.5785609,18.0588 21.6794249,18.004848 L21.7587609,17.971 L22.9477609,17.577 L23.0007609,17.502 L21.7447609,17.034 C21.6407609,16.9948 21.5534009,16.92296 21.4954809,16.829744 L21.4577609,16.756 L21.1217609,15.941 C21.0777609,15.8338 21.0721609,15.71572 21.1049609,15.606216 L21.1367609,15.526 L21.6997609,14.407 L21.5947609,14.303 L20.4707609,14.863 C20.3683609,14.915 20.2512409,14.9286 20.1393689,14.9038 L20.0567609,14.878 L19.2527609,14.545 C19.1455609,14.501 19.0575609,14.42116 19.0030969,14.320328 L18.9687609,14.241 L18.5737609,13.053 Z M18.5004609,15.9999 C19.3274609,15.9999 20.0004609,16.6729 20.0004609,17.4999 C20.0004609,18.3269 19.3274609,18.9999 18.5004609,18.9999 C17.6734609,18.9999 17.0004609,18.3269 17.0004609,17.4999 C17.0004609,16.6729 17.6734609,15.9999 18.5004609,15.9999 Z M18.5004609,16.9999 C18.2254609,16.9999 18.0004609,17.2249 18.0004609,17.4999 C18.0004609,17.7749 18.2254609,17.9999 18.5004609,17.9999 C18.7754609,17.9999 19.0004609,17.7749 19.0004609,17.4999 C19.0004609,17.2249 18.7754609,16.9999 18.5004609,16.9999 Z M11.0007609,2 C7.69176087,2 5.00076087,4.691 5.00076087,8 C5.00076087,11.308 7.69176087,14 11.0007609,14 C14.3087609,14 17.0007609,11.308 17.0007609,8 C17.0007609,4.691 14.3087609,2 11.0007609,2 Z" id="admin-settings_24" fill="#171B1F" fill-rule="nonzero"></path>
    </g>
</svg>