<?xml version="1.0" encoding="UTF-8"?>
<svg width="18px" height="18px" viewBox="0 0 18 18" version="1.1" xmlns="http://www.w3.org/2000/svg" xmlns:xlink="http://www.w3.org/1999/xlink">
    <!-- Generator: Sketch 60.1 (88133) - https://sketch.com -->
    <title>Tools / AI / AI_18</title>
    <desc>Created with Sketch.</desc>
    <g id="Tools-/-AI-/-AI_18" stroke="none" stroke-width="1" fill="none" fill-rule="evenodd">
        <path d="M14,12.5 C14,12.7761424 13.7761424,13 13.5,13 C13.2238576,13 13,12.7761424 13,12.5 L13,5.5 C13,5.22385763 13.2238576,5 13.5,5 C13.7761424,5 14,5.22385763 14,5.5 L14,12.5 Z M7.44743265,5.27650273 L10.9474327,12.2765027 C11.0709273,12.523492 10.9708151,12.8238285 10.7238259,12.9473231 C10.4768366,13.0708177 10.1765001,12.9707056 10.0530055,12.7237163 L9.19120206,11.0001095 L4.80912652,11.0001095 L3.94732312,12.7237163 C3.8238285,12.9707056 3.52349198,13.0708177 3.27650273,12.9473231 C3.02951348,12.8238285 2.92940131,12.523492 3.05289593,12.2765027 L6.55289593,5.27650273 C6.67639056,5.02951348 6.97672708,4.92940131 7.22371633,5.05289593 C7.32441634,5.10324594 7.40070135,5.18299195 7.44737115,5.27653341 L7.44743265,5.27650273 Z M7.00016429,6.61803399 L5.30912652,10.0001095 L8.69120206,10.0001095 L7.00016429,6.61803399 Z M2,0 L16,0 C17.1045695,0 18,0.8954305 18,2 L18,16 C18,17.1045695 17.1045695,18 16,18 L2,18 C0.8954305,18 0,17.1045695 0,16 L0,2 C0,0.8954305 0.8954305,0 2,0 Z M2,1 C1.44771525,1 1,1.44771525 1,2 L1,16 C1,16.5522847 1.44771525,17 2,17 L16,17 C16.5522847,17 17,16.5522847 17,16 L17,2 C17,1.44771525 16.5522847,1 16,1 L2,1 Z" id="AI_18" fill="#00090D"></path>
    </g>
</svg>