<?xml version="1.0" encoding="UTF-8"?>
<svg width="36px" height="36px" viewBox="0 0 36 36" version="1.1" xmlns="http://www.w3.org/2000/svg" xmlns:xlink="http://www.w3.org/1999/xlink">
    <!-- Generator: Sketch 60.1 (88133) - https://sketch.com -->
    <title>Tools / AI / AI_36</title>
    <desc>Created with Sketch.</desc>
    <g id="Tools-/-AI-/-AI_36" stroke="none" stroke-width="1" fill="none" fill-rule="evenodd">
        <path d="M4.5,1 L31.5,1 C33.4329966,1 35,2.56700338 35,4.5 L35,31.5 C35,33.4329966 33.4329966,35 31.5,35 L4.5,35 C2.56700338,35 1,33.4329966 1,31.5 L1,4.5 C1,2.56700338 2.56700338,1 4.5,1 Z M4.5,2 C3.11928813,2 2,3.11928813 2,4.5 L2,31.5 C2,32.8807119 3.11928813,34 4.5,34 L31.5,34 C32.8807119,34 34,32.8807119 34,31.5 L34,4.5 C34,3.11928813 32.8807119,2 31.5,2 L4.5,2 Z M9.0063448,20.000101 L14.0477088,9.28720245 C14.1322853,9.10747743 14.310143,9.00154741 14.4963164,9 C14.6900933,9.00154741 14.867951,9.10747743 14.9525275,9.28720245 L19.9938915,20.000101 L20.0001182,20.000101 L20.0001182,20.0133326 L22.9525275,26.2872024 C23.0701081,26.5370612 22.9628755,26.8349297 22.7130167,26.9525103 C22.4631579,27.0700909 22.1652894,26.9628583 22.0477088,26.7129995 L19.359286,21.000101 L9.64095034,21.000101 L6.95252751,26.7129995 C6.83494691,26.9628583 6.53707843,27.0700909 6.28721964,26.9525103 C6.03736086,26.8349297 5.9301282,26.5370612 6.04770881,26.2872024 L9.00011816,20.0133326 L9.00011816,20.000101 L9.0063448,20.000101 Z M10.1115386,20.000101 L18.8886977,20.000101 L14.5001182,10.6743694 L10.1115386,20.000101 Z M27.0001182,9.50010097 C27.0001182,9.22395859 27.2239758,9.00010097 27.5001182,9.00010097 C27.7762605,9.00010097 28.0001182,9.22395859 28.0001182,9.50010097 L28.0001182,26.500101 C28.0001182,26.7762433 27.7762605,27.000101 27.5001182,27.000101 C27.2239758,27.000101 27.0001182,26.7762433 27.0001182,26.500101 L27.0001182,9.50010097 Z" id="AI_36" fill="#00090D"></path>
    </g>
</svg>