<?xml version="1.0" encoding="UTF-8"?>
<svg width="18px" height="18px" viewBox="0 0 18 18" version="1.1" xmlns="http://www.w3.org/2000/svg" xmlns:xlink="http://www.w3.org/1999/xlink">
    <!-- Generator: Sketch 60.1 (88133) - https://sketch.com -->
    <title>Action / anchor_18</title>
    <desc>Created with Sketch.</desc>
    <g id="Action-/-anchor_18" stroke="none" stroke-width="1" fill="none" fill-rule="evenodd">
        <path d="M7.50022,2.5 C7.50022,1.673 8.17321,1 9.00021,1 C9.82721,1 10.5002,1.673 10.5002,2.5 C10.5002,3.327 9.82721,4 9.00021,4 C8.17321,4 7.50022,3.327 7.50022,2.5 Z M17.0002,11 L16.7502,11 L16.0002,11 L14.5002,11 C14.2242,11 14.0002,11.224 14.0002,11.5 C14.0002,11.776 14.2242,12 14.5002,12 L16.1125,12 C16.2546,12 16.3511,12.144 16.2926,12.2735 C15.0989,14.9125 12.5286,16.7905 9.50021,16.979 L9.50021,9 L12.5002,9 C12.7762,9 13.0002,8.776 13.0002,8.5 C13.0002,8.224 12.7762,8 12.5002,8 L9.50021,8 L9.50021,4.949 C10.6412,4.718 11.5002,3.709 11.5002,2.5 C11.5002,1.119 10.3812,0 9.00021,0 C7.61921,0 6.50022,1.119 6.50022,2.5 C6.50022,3.709 7.35921,4.718 8.50021,4.949 L8.50021,8 L5.50022,8 C5.22422,8 5.00022,8.224 5.00022,8.5 C5.00022,8.776 5.22422,9 5.50022,9 L8.50021,9 L8.50021,16.979 C5.47182,16.7905 2.90155,14.9125 1.70786,12.2735 C1.64929,12.144 1.74581,12 1.88791,12 L3.50021,12 C3.77621,12 4.00021,11.776 4.00021,11.5 C4.00021,11.224 3.77621,11 3.50021,11 L2.00021,11 L1.25021,11 L1.00021,11 L1.00021,11 C0.600618,11 0.303738,11.3718 0.425857,11.7522 C1.58966,15.3782 4.99243,18 9.00021,18 C13.008,18 16.4108,15.3782 17.5746,11.7522 C17.6967,11.3718 17.3998,11 17.0002,11 L17.0002,11 Z" id="anchor_18" fill="#00090D"></path>
    </g>
</svg>