<?xml version="1.0" encoding="UTF-8"?>
<svg width="16px" height="16px" viewBox="0 0 16 16" version="1.1" xmlns="http://www.w3.org/2000/svg" xmlns:xlink="http://www.w3.org/1999/xlink">
    <title>Action/annotation_16</title>
    <g id="Action/annotation_16" stroke="none" stroke-width="1" fill="none" fill-rule="evenodd">
        <path d="M11.4468,15.0002105 C11.4228,15.0002105 11.3988,15.0002105 11.3758,14.99921 C10.9068,14.9771975 10.5158,14.7540714 10.2438,14.3558464 C9.5438,13.3322681 10.5318,11.8454279 11.5788,10.2715386 C12.4538,8.9557952 13.4458,7.46595338 12.8128,7.04071311 C12.3308,6.7145288 10.7478,8.22538249 9.7018,9.22294615 C7.8128,11.0259649 5.8588,12.8890176 4.4668,11.5582657 C3.3058,10.4476381 4.6608,8.46751931 6.0958,6.37033432 C7.0438,4.98555187 8.2238,3.26157776 8.0388,2.45512208 C8.0158,2.35206385 7.9618,2.21798809 7.7518,2.09691968 C6.6958,1.49758103 3.9398,3.58175867 0.8858,7.29385614 C0.7098,7.50697656 0.3958,7.53799409 0.1818,7.36189459 C-0.0312,7.18579508 -0.0612,6.870617 0.1138,6.65749658 C2.2208,4.09604926 6.0818,-0.01527379 8.2488,1.22942952 C8.6528,1.46056011 8.9168,1.80675573 9.0138,2.231996 C9.2958,3.46569309 8.1418,5.15164571 6.9208,6.93565374 C5.9458,8.36045881 4.6108,10.3115613 5.1578,10.8348569 C5.8568,11.5072369 7.6078,9.84029497 9.0118,8.49853683 C10.7328,6.85660908 12.2198,5.43580628 13.3708,6.21024386 C14.8298,7.19079791 13.5458,9.12188905 12.4118,10.8258518 C11.7108,11.8804477 10.7498,13.3242635 11.0688,13.7915276 C11.1638,13.9296056 11.2688,13.9916406 11.4218,13.9996452 C12.3488,14.0256599 14.1848,12.2856767 15.1138,11.1680452 C15.2888,10.9559253 15.6038,10.9269089 15.8178,11.104009 C16.0298,11.2801085 16.0588,11.5962872 15.8828,11.808407 C15.6078,12.1385936 13.1808,15.0002105 11.4468,15.0002105" id="annotation_16" fill="#545454"></path>
    </g>
</svg>