<?xml version="1.0" encoding="UTF-8"?>
<svg width="24px" height="24px" viewBox="0 0 24 24" version="1.1" xmlns="http://www.w3.org/2000/svg" xmlns:xlink="http://www.w3.org/1999/xlink">
    <!-- Generator: Sketch 60.1 (88133) - https://sketch.com -->
    <title>Topology / as-sensor &amp; farallon / ap-as-sensor-topology_24</title>
    <desc>Created with Sketch.</desc>
    <g id="Topology-/-as-sensor-&amp;-farallon-/-ap-as-sensor-topology_24" stroke="none" stroke-width="1" fill="none" fill-rule="evenodd">
        <rect id="secondary-color" fill="#FFA000" x="1" y="1" width="22" height="22" rx="2.5"></rect>
        <path d="M12.0356727,12.4984718 L10.4508524,12.4984718 C10.2614663,12.4984718 10.0883348,12.3914707 10.0036388,12.2220786 L8.62763518,9.54510944 L6.98076197,15.3091657 C6.86367424,15.7189727 6.32039129,15.8037798 6.08397485,15.4491552 L4.24986065,12.0095117 L3.51745253,12.0095117 C3.24131016,12.0095117 3.01745253,11.7856541 3.01745253,11.5095117 C3.01745253,11.2333693 3.24131016,11.0095117 3.51745253,11.0095117 L4.51745253,11.0095117 C4.68462912,11.0095117 4.84074479,11.0930623 4.93347768,11.2321616 L6.31627207,13.9948254 L8.01923803,8.03444453 C8.14451208,7.59598534 8.74328221,7.54033552 8.9472136,7.9481983 L10.7598693,11.4984718 L12.1592537,11.4984718 C12.4059648,11.0081805 12.9137,10.6718051 13.5,10.6718051 C14.3284271,10.6718051 15,11.343378 15,12.1718051 C15,13.0002322 14.3284271,13.6718051 13.5,13.6718051 C12.7837648,13.6718051 12.1847758,13.1698141 12.0356727,12.4984718 Z M19.4,7.0218051 C19.402568,7.0210347 19.405142,7.02028441 19.4077217,7.0195543 C19.6808187,6.94226268 19.9648649,7.10099435 20.0421565,7.3740914 L20.65,9.5218051 C21.1403695,11.2544441 21.1403695,13.0891661 20.65,14.8218051 L20.0421565,16.9695188 C20.0414264,16.9720985 20.0406761,16.9746725 20.0399057,16.9772405 C19.9583495,17.2490945 19.671854,17.4033613 19.4,17.3218051 C19.1238576,17.2389624 18.9671573,16.9479475 19.05,16.6718051 L19.65,14.6718051 C20.1392295,13.0410402 20.1392295,11.3025699 19.65,9.6718051 L19.05,7.6718051 C18.9671573,7.39566272 19.1238576,7.10464781 19.4,7.0218051 Z M16.8,14.9718051 C16.786199,14.9690449 16.7725302,14.9656604 16.7590358,14.9616621 C16.5124603,14.8886027 16.3717978,14.6294875 16.4448572,14.3829121 L16.7,13.5218048 C16.9610575,12.6407357 16.9610575,11.7028741 16.7,10.821805 L16.4482985,9.9723124 C16.366314,9.6956149 16.5235829,9.40473021 16.8,9.3218051 C17.0761424,9.23896238 17.3671573,9.39566272 17.45,9.6718051 L17.7637419,10.7176115 C18.0481076,11.665497 18.043323,12.6766532 17.75,13.6218051 L17.4511345,14.584816 C17.3652513,14.8615508 17.0841284,15.0286308 16.8,14.9718051 Z" id="ap-as-sensor-topology_24" fill="#00090D"></path>
    </g>
</svg>