<?xml version="1.0" encoding="UTF-8"?>
<svg width="30px" height="30px" viewBox="0 0 30 30" version="1.1" xmlns="http://www.w3.org/2000/svg" xmlns:xlink="http://www.w3.org/1999/xlink">
    <!-- Generator: Sketch 60.1 (88133) - https://sketch.com -->
    <title>Networking / AP / AP-EWC_30</title>
    <desc>Created with Sketch.</desc>
    <g id="Networking-/-AP-/-AP-EWC_30" stroke="none" stroke-width="1" fill="none" fill-rule="evenodd">
        <path d="M26,1 C27.6568542,1 29,2.34314575 29,4 L29,26 C29,27.6568542 27.6568542,29 26,29 L4,29 C2.34314575,29 1,27.6568542 1,26 L1,4 C1,2.34314575 2.34314575,1 4,1 L26,1 Z M19.8215,22.59 C18.5615,22.59 17.7635,23.364 17.7635,24.828 C17.7635,26.334 18.6215,27.09 19.7735,27.09 C20.8762368,27.09 21.5535554,26.573036 21.734033,25.579921 L21.7595,25.41 L20.7335,25.41 C20.6855,26.088 20.3555,26.382 19.7915,26.382 C19.2575,26.382 18.8135,25.968 18.8135,24.828 C18.8135,23.742 19.2215,23.292 19.8215,23.292 C20.245,23.292 20.5525417,23.5087917 20.6886667,23.9608611 L20.7215,24.09 L21.7295,24.09 C21.5735,23.118 20.8235,22.59 19.8215,22.59 Z M11.276,22.68 L8.36,22.68 L8.36,27 L11.276,27 L11.276,26.274 L9.368,26.274 L9.368,25.17 L11.102,25.17 L11.102,24.474 L9.368,24.474 L9.368,23.418 L11.276,23.418 L11.276,22.68 Z M12.62375,22.68 L11.57975,22.68 L12.61775,27 L13.76375,27 L14.53175,23.664 L15.33575,27 L16.52375,27 L17.48975,22.68 L16.53575,22.68 L15.911,25.888 L15.12575,22.68 L14.00375,22.68 L13.27775,25.872 L12.62375,22.68 Z M18.8896,17.6104 C19.0846,17.8064 19.0846,18.1224 18.8896,18.3184 C18.7916,18.4154 18.6636,18.4644 18.5356,18.4644 C18.4076,18.4644 18.2796,18.4154 18.1816,18.3184 C16.4276,16.5634 13.5726,16.5634 11.8176,18.3184 C11.6226,18.5134 11.3066,18.5134 11.1106,18.3184 C10.9156,18.1224 10.9156,17.8064 11.1106,17.6104 C13.2556,15.4664 16.7446,15.4664 18.8896,17.6104 Z M14.9998,11.0002 C17.5378,11.0002 19.9228,11.9882 21.7178,13.7822 C21.9128,13.9782 21.9128,14.2942 21.7178,14.4902 C21.6198,14.5872 21.4918,14.6362 21.3638,14.6362 C21.2358,14.6362 21.1078,14.5872 21.0098,14.4902 C19.4048,12.8842 17.2708,12.0002 14.9998,12.0002 C12.7298,12.0002 10.5948,12.8842 8.9898,14.4902 C8.7948,14.6852 8.4778,14.6852 8.2828,14.4902 C8.0878,14.2942 8.0878,13.9782 8.2828,13.7822 C10.0768,11.9882 12.4628,11.0002 14.9998,11.0002 Z M15.0004,5.9996 C18.6064,5.9996 21.9964,7.4046 24.5464,9.9536 C24.7414,10.1496 24.7414,10.4656 24.5464,10.6616 C24.4484,10.7586 24.3204,10.8076 24.1924,10.8076 C24.0644,10.8076 23.9364,10.7586 23.8384,10.6616 C21.4784,8.3006 18.3384,6.9996 15.0004,6.9996 C11.6614,6.9996 8.5224,8.3006 6.1614,10.6616 C5.9654,10.8566 5.6494,10.8566 5.4544,10.6616 C5.2584,10.4656 5.2584,10.1496 5.4544,9.9536 C8.0044,7.4046 11.3944,5.9996 15.0004,5.9996 Z M2,21 L28,21 L28,4 C28,2.8954305 27.1045695,2 26,2 L4,2 C2.8954305,2 2,2.8954305 2,4 L2,21 Z" id="AP-EWC_30" fill="#00090D"></path>
    </g>
</svg>