<?xml version="1.0" encoding="UTF-8"?>
<svg width="16px" height="16px" viewBox="0 0 16 16" version="1.1" xmlns="http://www.w3.org/2000/svg" xmlns:xlink="http://www.w3.org/1999/xlink">
    <!-- Generator: Sketch 60.1 (88133) - https://sketch.com -->
    <title>Networking / AP / AP-EWC_16</title>
    <desc>Created with Sketch.</desc>
    <g id="Networking-/-AP-/-AP-EWC_16" stroke="none" stroke-width="1" fill="none" fill-rule="evenodd">
        <path d="M14,0 C15.1045695,0 16,0.8954305 16,2 L16,14 C16,15.1045695 15.1045695,16 14,16 L2,16 C0.8954305,16 0,15.1045695 0,14 L0,2 C0,0.8954305 0.8954305,0 2,0 L14,0 Z M5.684,12.12 L3.74,12.12 L3.74,15 L5.684,15 L5.684,14.516 L4.412,14.516 L4.412,13.78 L5.568,13.78 L5.568,13.316 L4.412,13.316 L4.412,12.612 L5.684,12.612 L5.684,12.12 Z M6.5825,12.12 L5.8865,12.12 L6.5785,15 L7.3425,15 L7.8545,12.776 L8.3905,15 L9.1825,15 L9.8265,12.12 L9.1905,12.12 L8.7745,14.26 L8.2505,12.12 L7.5025,12.12 L7.0185,14.248 L6.5825,12.12 Z M11.381,12.06 C10.541,12.06 10.009,12.576 10.009,13.552 C10.009,14.3577866 10.3774416,14.8415088 10.919947,15.0010989 L11.829,15 L11.954425,14.9595694 C12.3240019,14.8171789 12.5602396,14.5246477 12.6489232,14.0900985 L12.673,13.94 L11.989,13.94 C11.957,14.392 11.737,14.588 11.361,14.588 C11.005,14.588 10.709,14.312 10.709,13.552 C10.709,12.828 10.981,12.528 11.381,12.528 C11.6547778,12.528 11.8558642,12.6639012 11.9505473,12.946941 L11.981,13.06 L12.653,13.06 C12.549,12.412 12.049,12.06 11.381,12.06 Z M14,1 L2,1 C1.44771525,1 1,1.44771525 1,2 L1,11 L15,11 L15,2 C15,1.44771525 14.5522847,1 14,1 Z M10.4165,9.0005 C10.6115,9.1965 10.6115,9.5125 10.4165,9.7085 C10.3185,9.8055 10.1905,9.8545 10.0625,9.8545 C9.9345,9.8545 9.8065,9.8055 9.7085,9.7085 C8.7965,8.7935 7.2035,8.7935 6.2915,9.7085 C6.0955,9.9035 5.7795,9.9035 5.5835,9.7085 C5.3885,9.5125 5.3885,9.1965 5.5835,9.0005 C6.8735,7.7095 9.1265,7.7095 10.4165,9.0005 Z M8.0002,5.5004 C9.5622,5.5004 11.0302,6.1084 12.1352,7.2124 C12.3302,7.4084 12.3302,7.7244 12.1352,7.9204 C12.0372,8.0174 11.9092,8.0664 11.7812,8.0664 C11.6532,8.0664 11.5252,8.0174 11.4272,7.9204 C10.5122,7.0044 9.2952,6.5004 8.0002,6.5004 C6.7052,6.5004 5.4872,7.0044 4.5722,7.9204 C4.3772,8.1154 4.0602,8.1154 3.8652,7.9204 C3.6702,7.7244 3.6702,7.4084 3.8652,7.2124 C4.9692,6.1084 6.4372,5.5004 8.0002,5.5004 Z M8,3.0003 C10.211,3.0003 12.29,3.8613 13.854,5.4243 C14.049,5.6203 14.049,5.9363 13.854,6.1323 C13.756,6.2293 13.628,6.2783 13.5,6.2783 C13.372,6.2783 13.244,6.2293 13.146,6.1323 C11.772,4.7573 9.944,4.0003 8,4.0003 C6.056,4.0003 4.228,4.7573 2.854,6.1323 C2.658,6.3273 2.342,6.3273 2.146,6.1323 C1.951,5.9363 1.951,5.6203 2.146,5.4243 C3.71,3.8613 5.789,3.0003 8,3.0003 Z" id="AP-EWC_16" fill="#00090D"></path>
    </g>
</svg>