<?xml version="1.0" encoding="UTF-8"?>
<svg width="24px" height="24px" viewBox="0 0 24 24" version="1.1" xmlns="http://www.w3.org/2000/svg" xmlns:xlink="http://www.w3.org/1999/xlink">
    <!-- Generator: Sketch 60.1 (88133) - https://sketch.com -->
    <title>Networking / AP / AP-EWC_24</title>
    <desc>Created with Sketch.</desc>
    <g id="Networking-/-AP-/-AP-EWC_24" stroke="none" stroke-width="1" fill="none" fill-rule="evenodd">
        <path d="M20.5,1 C21.8807119,1 23,2.11928813 23,3.5 L23,20.5 C23,21.8807119 21.8807119,23 20.5,23 L3.5,23 C2.11928813,23 1,21.8807119 1,20.5 L1,3.5 C1,2.11928813 2.11928813,1 3.5,1 L20.5,1 Z M17.3215,17.09 C16.0615,17.09 15.2635,17.864 15.2635,19.328 C15.2635,20.834 16.1215,21.59 17.2735,21.59 C18.3762368,21.59 19.0535554,21.073036 19.234033,20.079921 L19.2595,19.91 L18.2335,19.91 C18.1855,20.588 17.8555,20.882 17.2915,20.882 C16.7575,20.882 16.3135,20.468 16.3135,19.328 C16.3135,18.242 16.7215,17.792 17.3215,17.792 C17.745,17.792 18.0525417,18.0087917 18.1886667,18.4608611 L18.2215,18.59 L19.2295,18.59 C19.0735,17.618 18.3235,17.09 17.3215,17.09 Z M8.776,17.18 L5.86,17.18 L5.86,21.5 L8.776,21.5 L8.776,20.774 L6.868,20.774 L6.868,19.67 L8.602,19.67 L8.602,18.974 L6.868,18.974 L6.868,17.918 L8.776,17.918 L8.776,17.18 Z M10.12375,17.18 L9.07975,17.18 L10.11775,21.5 L11.26375,21.5 L12.03175,18.164 L12.83575,21.5 L14.02375,21.5 L14.98975,17.18 L14.03575,17.18 L13.411,20.388 L12.62575,17.18 L11.50375,17.18 L10.77775,20.372 L10.12375,17.18 Z M20.5,2 L3.5,2 C2.67157288,2 2,2.67157288 2,3.5 L2,16 L22,16 L22,3.5 C22,2.67157288 21.3284271,2 20.5,2 Z M14.8020354,14.0008 C15.0170354,14.1738 15.0520354,14.4878 14.8800354,14.7038 C14.7800354,14.8268 14.6350354,14.8918 14.4890354,14.8918 C14.3790354,14.8918 14.2680354,14.8548 14.1770354,14.7818 C12.8990354,13.7588 11.1000354,13.7588 9.82303538,14.7818 C9.61003538,14.9528 9.29503538,14.9198 9.12003538,14.7038 C8.94803538,14.4878 8.98203538,14.1738 9.19803538,14.0008 C10.8330354,12.6908 13.1670354,12.6908 14.8020354,14.0008 Z M11.9998354,8.9998 C13.9498354,8.9998 15.7858354,9.6458 17.3098354,10.8678 C17.5248354,11.0408 17.5598354,11.3558 17.3868354,11.5708 C17.2878354,11.6938 17.1438354,11.7578 16.9968354,11.7578 C16.8868354,11.7578 16.7758354,11.7218 16.6848354,11.6478 C15.3398354,10.5698 13.7198354,9.9998 11.9998354,9.9998 C10.2798354,9.9998 8.65983538,10.5698 7.31483538,11.6478 C7.10283538,11.8208 6.78583538,11.7878 6.61283538,11.5708 C6.43983538,11.3558 6.47483538,11.0408 6.68983538,10.8678 C8.21383538,9.6458 10.0498354,8.9998 11.9998354,8.9998 Z M12.0003354,5 C14.8333354,5 17.6073354,5.974 19.8123354,7.742 C20.0283354,7.915 20.0623354,8.229 19.8893354,8.445 C19.7913354,8.568 19.6463354,8.632 19.5003354,8.632 C19.3893354,8.632 19.2793354,8.596 19.1873354,8.522 C17.1293354,6.872 14.6443354,6 12.0003354,6 C9.35533538,6 6.87033538,6.872 4.81233538,8.522 C4.59933538,8.694 4.28333538,8.661 4.11033538,8.445 C3.93733538,8.229 3.97133538,7.915 4.18733538,7.742 C6.39233538,5.974 9.16633538,5 12.0003354,5 Z" id="AP-EWC_24" fill="#00090D"></path>
    </g>
</svg>