<?xml version="1.0" encoding="UTF-8"?>
<svg width="16px" height="16px" viewBox="0 0 16 16" version="1.1" xmlns="http://www.w3.org/2000/svg" xmlns:xlink="http://www.w3.org/1999/xlink">
    <!-- Generator: Sketch 60.1 (88133) - https://sketch.com -->
    <title>Networking / AP / AP_16</title>
    <desc>Created with Sketch.</desc>
    <g id="Networking-/-AP-/-AP_16" stroke="none" stroke-width="1" fill="none" fill-rule="evenodd">
        <path d="M14,0 C15.1045695,0 16,0.8954305 16,2 L16,14 C16,15.1045695 15.1045695,16 14,16 L2,16 C0.8954305,16 0,15.1045695 0,14 L0,2 C0,0.8954305 0.8954305,0 2,0 L14,0 Z M14,1 L2,1 C1.44771525,1 1,1.44771525 1,2 L1,14 C1,14.5522847 1.44771525,15 2,15 L14,15 C14.5522847,15 15,14.5522847 15,14 L15,2 C15,1.44771525 14.5522847,1 14,1 Z M8,11 C8.27614237,11 8.5,11.2238576 8.5,11.5 L8.5,11.5 L8.5,12.5 C8.5,12.7761424 8.27614237,13 8,13 C7.72385763,13 7.5,12.7761424 7.5,12.5 L7.5,12.5 L7.5,11.5 C7.5,11.2238576 7.72385763,11 8,11 Z M10.4165,9.0005 C10.6115,9.1965 10.6115,9.5125 10.4165,9.7085 C10.3185,9.8055 10.1905,9.8545 10.0625,9.8545 C9.9345,9.8545 9.8065,9.8055 9.7085,9.7085 C8.7965,8.7935 7.2035,8.7935 6.2915,9.7085 C6.0955,9.9035 5.7795,9.9035 5.5835,9.7085 C5.3885,9.5125 5.3885,9.1965 5.5835,9.0005 C6.8735,7.7095 9.1265,7.7095 10.4165,9.0005 Z M8.0002,5.5004 C9.5622,5.5004 11.0302,6.1084 12.1352,7.2124 C12.3302,7.4084 12.3302,7.7244 12.1352,7.9204 C12.0372,8.0174 11.9092,8.0664 11.7812,8.0664 C11.6532,8.0664 11.5252,8.0174 11.4272,7.9204 C10.5122,7.0044 9.2952,6.5004 8.0002,6.5004 C6.7052,6.5004 5.4872,7.0044 4.5722,7.9204 C4.3772,8.1154 4.0602,8.1154 3.8652,7.9204 C3.6702,7.7244 3.6702,7.4084 3.8652,7.2124 C4.9692,6.1084 6.4372,5.5004 8.0002,5.5004 Z M8,3.0003 C10.211,3.0003 12.29,3.8613 13.854,5.4243 C14.049,5.6203 14.049,5.9363 13.854,6.1323 C13.756,6.2293 13.628,6.2783 13.5,6.2783 C13.372,6.2783 13.244,6.2293 13.146,6.1323 C11.772,4.7573 9.944,4.0003 8,4.0003 C6.056,4.0003 4.228,4.7573 2.854,6.1323 C2.658,6.3273 2.342,6.3273 2.146,6.1323 C1.951,5.9363 1.951,5.6203 2.146,5.4243 C3.71,3.8613 5.789,3.0003 8,3.0003 Z" id="AP_16" fill="#00090D"></path>
    </g>
</svg>