<?xml version="1.0" encoding="UTF-8"?>
<svg width="16px" height="16px" viewBox="0 0 16 16" version="1.1" xmlns="http://www.w3.org/2000/svg" xmlns:xlink="http://www.w3.org/1999/xlink">
    <!-- Generator: Sketch 60.1 (88133) - https://sketch.com -->
    <title>Tools / app-tools / app-tools_16</title>
    <desc>Created with Sketch.</desc>
    <g id="Tools-/-app-tools-/-app-tools_16" stroke="none" stroke-width="1" fill="none" fill-rule="evenodd">
        <path d="M3,12 C3.552,12 4,12.448 4,13 C4,13.552 3.552,14 3,14 C2.448,14 2,13.552 2,13 C2,12.448 2.448,12 3,12 Z M8,12 C8.552,12 9,12.448 9,13 C9,13.552 8.552,14 8,14 C7.448,14 7,13.552 7,13 C7,12.448 7.448,12 8,12 Z M13,12 C13.552,12 14,12.448 14,13 C14,13.552 13.552,14 13,14 C12.448,14 12,13.552 12,13 C12,12.448 12.448,12 13,12 Z M3,7 C3.552,7 4,7.448 4,8 C4,8.552 3.552,9 3,9 C2.448,9 2,8.552 2,8 C2,7.448 2.448,7 3,7 Z M8,7 C8.552,7 9,7.448 9,8 C9,8.552 8.552,9 8,9 C7.448,9 7,8.552 7,8 C7,7.448 7.448,7 8,7 Z M13,7 C13.552,7 14,7.448 14,8 C14,8.552 13.552,9 13,9 C12.448,9 12,8.552 12,8 C12,7.448 12.448,7 13,7 Z M3,2 C3.552,2 4,2.448 4,3 C4,3.552 3.552,4 3,4 C2.448,4 2,3.552 2,3 C2,2.448 2.448,2 3,2 Z M8,2 C8.552,2 9,2.448 9,3 C9,3.552 8.552,4 8,4 C7.448,4 7,3.552 7,3 C7,2.448 7.448,2 8,2 Z M13,4 C12.448,4 12,3.552 12,3 C12,2.448 12.448,2 13,2 C13.552,2 14,2.448 14,3 C14,3.552 13.552,4 13,4 Z" id="app-tools_16" fill="#00090D"></path>
    </g>
</svg>