<?xml version="1.0" encoding="UTF-8"?>
<svg width="24px" height="24px" viewBox="0 0 24 24" version="1.1" xmlns="http://www.w3.org/2000/svg" xmlns:xlink="http://www.w3.org/1999/xlink">
    <!-- Generator: Sketch 60.1 (88133) - https://sketch.com -->
    <title>Tools / app-tools / app-tools_24</title>
    <desc>Created with Sketch.</desc>
    <g id="Tools-/-app-tools-/-app-tools_24" stroke="none" stroke-width="1" fill="none" fill-rule="evenodd">
        <path d="M5,6 C4.44771525,6 4,5.55228475 4,5 C4,4.44771525 4.44771525,4 5,4 C5.55228475,4 6,4.44771525 6,5 C6,5.55228475 5.55228475,6 5,6 Z M19,6 C18.4477153,6 18,5.55228475 18,5 C18,4.44771525 18.4477153,4 19,4 C19.5522847,4 20,4.44771525 20,5 C20,5.55228475 19.5522847,6 19,6 Z M12,6 C11.4477152,6 11,5.55228475 11,5 C11,4.44771525 11.4477152,4 12,4 C12.5522848,4 13,4.44771525 13,5 C13,5.55228475 12.5522848,6 12,6 Z M12,20 C11.4477152,20 11,19.5522847 11,19 C11,18.4477153 11.4477152,18 12,18 C12.5522848,18 13,18.4477153 13,19 C13,19.5522847 12.5522848,20 12,20 Z M19,20 C18.4477153,20 18,19.5522847 18,19 C18,18.4477153 18.4477153,18 19,18 C19.5522847,18 20,18.4477153 20,19 C20,19.5522847 19.5522847,20 19,20 Z M5,20 C4.44771525,20 4,19.5522847 4,19 C4,18.4477153 4.44771525,18 5,18 C5.55228475,18 6,18.4477153 6,19 C6,19.5522847 5.55228475,20 5,20 Z M12,13 C11.4477152,13 11,12.5522848 11,12 C11,11.4477152 11.4477152,11 12,11 C12.5522848,11 13,11.4477152 13,12 C13,12.5522848 12.5522848,13 12,13 Z M19,13 C18.4477153,13 18,12.5522848 18,12 C18,11.4477152 18.4477153,11 19,11 C19.5522847,11 20,11.4477152 20,12 C20,12.5522848 19.5522847,13 19,13 Z M5,13 C4.44771525,13 4,12.5522848 4,12 C4,11.4477152 4.44771525,11 5,11 C5.55228475,11 6,11.4477152 6,12 C6,12.5522848 5.55228475,13 5,13 Z" id="app-tools_24" fill="#00090D"></path>
    </g>
</svg>