<?xml version="1.0" encoding="UTF-8"?>
<svg width="48px" height="48px" viewBox="0 0 48 48" version="1.1" xmlns="http://www.w3.org/2000/svg" xmlns:xlink="http://www.w3.org/1999/xlink">
    <!-- Generator: Sketch 60.1 (88133) - https://sketch.com -->
    <title>Tools/app-hosting_48</title>
    <desc>Created with Sketch.</desc>
    <g id="Tools/app-hosting_48" stroke="none" stroke-width="1" fill="none" fill-rule="evenodd">
        <path d="M17.4971,1 C19.9841,1 22.0001,3.016 22.0001,5.503 L22.0001,17.497 C22.0001,19.984 19.9841,22 17.4971,22 L5.5031,22 C3.0161,22 1.0001,19.984 1.0001,17.497 L1.0001,5.503 C1.0001,3.016 3.0161,1 5.5031,1 L17.4971,1 Z M17.4971,2 L5.5031,2 C3.5711,2 2.0001,3.571 2.0001,5.503 L2.0001,17.497 C2.0001,19.429 3.5711,21 5.5031,21 L17.4971,21 C19.4291,21 21.0001,19.429 21.0001,17.497 L21.0001,5.503 C21.0001,3.571 19.4291,2 17.4971,2 Z M42.4971,1 C44.9841,1 47.0001,3.016 47.0001,5.503 L47.0001,17.497 C47.0001,19.984 44.9841,22 42.4971,22 L30.5031,22 C28.0161,22 26.0001,19.984 26.0001,17.497 L26.0001,5.503 C26.0001,3.016 28.0161,1 30.5031,1 L42.4971,1 Z M42.4971,2 L30.5031,2 C28.5711,2 27.0001,3.571 27.0001,5.503 L27.0001,17.497 C27.0001,19.429 28.5711,21 30.5031,21 L42.4971,21 C44.4291,21 46.0001,19.429 46.0001,17.497 L46.0001,5.503 C46.0001,3.571 44.4291,2 42.4971,2 Z M17.4971,26 C19.9841,26 22.0001,28.016 22.0001,30.503 L22.0001,42.497 C22.0001,44.984 19.9841,47 17.4971,47 L5.5031,47 C3.0161,47 1.0001,44.984 1.0001,42.497 L1.0001,30.503 C1.0001,28.016 3.0161,26 5.5031,26 L17.4971,26 Z M17.4971,27 L5.5031,27 C3.5711,27 2.0001,28.571 2.0001,30.503 L2.0001,42.497 C2.0001,44.429 3.5711,46 5.5031,46 L17.4971,46 C19.4291,46 21.0001,44.429 21.0001,42.497 L21.0001,30.503 C21.0001,28.571 19.4291,27 17.4971,27 Z M36.5,26 C42.299,26 47,30.701 47,36.5 C47,42.299 42.299,47 36.5,47 C30.701,47 26,42.299 26,36.5 C26,30.701 30.701,26 36.5,26 Z M36.5,27 C31.262,27 27,31.262 27,36.5 C27,41.738 31.262,46 36.5,46 C41.738,46 46,41.738 46,36.5 C46,31.262 41.738,27 36.5,27 Z" id="app-hosting_48" fill="#00090D"></path>
    </g>
</svg>