<svg width="48" height="48" viewBox="0 0 48 48" fill="none" xmlns="http://www.w3.org/2000/svg">
<g id="application_48">
<path id="application_48_2" fill-rule="evenodd" clip-rule="evenodd" d="M48 10.5C48 8.015 45.985 6 43.5 6H4.5C2.015 6 0 8.015 0 10.5V37.5C0 39.985 2.015 42 4.5 42H43.5C45.985 42 48 39.985 48 37.5V10.5ZM47 10.5V13H1V10.5C1 8.567 2.567 7 4.5 7H43.5C45.433 7 47 8.567 47 10.5ZM47 14V37.5C47 39.433 45.433 41 43.5 41H4.5C2.567 41 1 39.433 1 37.5V14H47ZM33 11C33.5523 11 34 10.5523 34 10C34 9.44772 33.5523 9 33 9C32.4477 9 32 9.44772 32 10C32 10.5523 32.4477 11 33 11ZM38 11C38.5523 11 39 10.5523 39 10C39 9.44772 38.5523 9 38 9C37.4477 9 37 9.44772 37 10C37 10.5523 37.4477 11 38 11ZM44 10C44 10.5523 43.5523 11 43 11C42.4477 11 42 10.5523 42 10C42 9.44772 42.4477 9 43 9C43.5523 9 44 9.44772 44 10Z" fill="#545454"/>
</g>
</svg>
