<?xml version="1.0" encoding="UTF-8"?>
<svg width="24px" height="24px" viewBox="0 0 24 24" version="1.1" xmlns="http://www.w3.org/2000/svg" xmlns:xlink="http://www.w3.org/1999/xlink">
    <!-- Generator: Sketch 60.1 (88133) - https://sketch.com -->
    <title>Networking / application-priority / application-priority_24</title>
    <desc>Created with Sketch.</desc>
    <g id="Networking-/-application-priority-/-application-priority_24" stroke="none" stroke-width="1" fill="none" fill-rule="evenodd">
        <path d="M10,3 L23,3 C23.5522847,3 24,3.44771525 24,4 L24,6 C24,6.55228475 23.5522847,7 23,7 L10,7 C9.44771525,7 9,6.55228475 9,6 L9,4 C9,3.44771525 9.44771525,3 10,3 Z M10,4 L10,6 L23,6 L23,4 L10,4 Z M10,10 L23,10 C23.5522847,10 24,10.4477153 24,11 L24,13 C24,13.5522847 23.5522847,14 23,14 L10,14 C9.44771525,14 9,13.5522847 9,13 L9,11 C9,10.4477153 9.44771525,10 10,10 Z M10,11 L10,13 L23,13 L23,11 L10,11 Z M10,17 L23,17 C23.5522847,17 24,17.4477153 24,18 L24,20 C24,20.5522847 23.5522847,21 23,21 L10,21 C9.44771525,21 9,20.5522847 9,20 L9,18 C9,17.4477153 9.44771525,17 10,17 Z M10,18 L10,20 L23,20 L23,18 L10,18 Z M5.86845458,5.70646674 C3.0682821,6.43031018 1,8.97361851 1,12 C1,15.4216149 3.64377614,18.2257427 7,18.4810552 L7,19.4835977 C3.09098409,19.2263047 0,15.9741213 0,12 C0,8.42844626 2.49648465,5.43997775 5.83962656,4.68442188 L3.3639715,3.9826795 C3.0979715,3.9066795 2.9439715,3.6296795 3.0189715,3.3646795 C3.0939715,3.0986795 3.3659715,2.9426795 3.6369715,3.0196795 L7.6339715,4.1536795 C7.8009715,4.2016795 7.9299715,4.3306795 7.9779715,4.4956795 C8.0259715,4.6616795 7.9849715,4.8396795 7.8709715,4.9676795 L5.3609715,7.7736795 C5.2609715,7.8836795 5.1249715,7.9406795 4.9879715,7.9406795 C4.8689715,7.9406795 4.7499715,7.8986795 4.6549715,7.8136795 C4.4489715,7.6286795 4.4309715,7.3126795 4.6149715,7.1076795 L5.86845458,5.70646674 Z" id="application-priority_24" fill="#00090D"></path>
    </g>
</svg>