<?xml version="1.0" encoding="UTF-8"?>
<svg width="16px" height="16px" viewBox="0 0 16 16" version="1.1" xmlns="http://www.w3.org/2000/svg" xmlns:xlink="http://www.w3.org/1999/xlink">
    <!-- Generator: Sketch 60.1 (88133) - https://sketch.com -->
    <title>Navigation / arrow-tail / arrow-right-tail / arrow-right-tail_16</title>
    <desc>Created with Sketch.</desc>
    <g id="Navigation-/-arrow-tail-/-arrow-right-tail-/-arrow-right-tail_16" stroke="none" stroke-width="1" fill="none" fill-rule="evenodd">
        <path d="M10.8030396,2.10256494 L10.8694602,2.16364543 L15.8699535,7.66364543 C15.8897729,7.68580476 15.9050785,7.70575827 15.9188393,7.72681289 L15.8699535,7.66364543 C15.8924113,7.68834661 15.9119605,7.71473468 15.9286009,7.74237269 C15.9739284,7.81761122 16,7.90576094 16,8 C16,8.09423906 15.9739284,8.18238878 15.9286045,8.25762981 C15.9280204,8.25859142 15.9274364,8.25955402 15.9268489,8.26051507 L15.9188393,8.27318711 C15.9050785,8.29424173 15.8897729,8.31419524 15.8730836,8.33288676 L15.8699535,8.33635457 L10.8694602,13.8363546 C10.6836967,14.0406743 10.3674718,14.055717 10.1631521,13.8699535 C9.98153459,13.7048304 9.94946923,13.4366267 10.0750534,13.2355642 L10.1295531,13.1636454 L14.369,8.49999648 L0.5,8.5 C0.223857625,8.5 0,8.27614237 0,8 C0,7.75454011 0.176875161,7.55039163 0.410124368,7.50805567 L0.5,7.5 L14.369,7.49999648 L10.1295531,2.83635457 C9.96443003,2.65473707 9.95796866,2.38470063 10.1020716,2.19646709 L10.1631521,2.13004648 C10.3447696,1.96492337 10.614806,1.958462 10.8030396,2.10256494 Z" id="arrow-right-tail_16" fill="#00090D"></path>
    </g>
</svg>