<?xml version="1.0" encoding="UTF-8"?>
<svg width="16px" height="16px" viewBox="0 0 16 16" version="1.1" xmlns="http://www.w3.org/2000/svg" xmlns:xlink="http://www.w3.org/1999/xlink">
    <!-- Generator: Sketch 60.1 (88133) - https://sketch.com -->
    <title>Navigation / arrow-circle / arrow-down-circle_16</title>
    <desc>Created with Sketch.</desc>
    <g id="Navigation-/-arrow-circle-/-arrow-down-circle_16" stroke="none" stroke-width="1" fill="none" fill-rule="evenodd">
        <path d="M8,0 C12.418,0 16,3.582 16,8 C16,12.418 12.418,16 8,16 C3.582,16 0,12.418 0,8 C0,3.582 3.582,0 8,0 Z M8,1 C4.14,1 1,4.14 1,8 C1,11.86 4.14,15 8,15 C11.859,15 15,11.86 15,8 C15,4.14 11.859,1 8,1 Z M11.1436,6.1494 C11.3376,5.9514 11.6546,5.9514 11.8506,6.1434 C12.0476,6.3364 12.0496,6.6534 11.8566,6.8504 L11.8566,6.8504 L8.3566,10.4114 C8.2626,10.5064 8.1346,10.5614 8.0006,10.5614 L8.0006,10.5614 C7.8666,10.5614 7.7376,10.5074 7.6436,10.4124 L7.6436,10.4124 L4.1436,6.8614 C3.9506,6.6644 3.9526,6.3484 4.1486,6.1544 C4.3476,5.9604 4.6636,5.9634 4.8556,6.1594 L4.8556,6.1594 L7.9996,9.3484 Z" id="arrow-down-circle_16" fill="#00090D"></path>
    </g>
</svg>