<?xml version="1.0" encoding="UTF-8"?>
<svg width="24px" height="24px" viewBox="0 0 24 24" version="1.1" xmlns="http://www.w3.org/2000/svg" xmlns:xlink="http://www.w3.org/1999/xlink">
    <!-- Generator: Sketch 60.1 (88133) - https://sketch.com -->
    <title>Navigation / arrow-circle / arrow-left-circle / arrow-left-circle_24</title>
    <desc>Created with Sketch.</desc>
    <g id="Navigation-/-arrow-circle-/-arrow-left-circle-/-arrow-left-circle_24" stroke="none" stroke-width="1" fill="none" fill-rule="evenodd">
        <path d="M24,12 C24,18.627417 18.627417,24 12,24 C5.372583,24 0,18.627417 0,12 C0,5.372583 5.372583,0 12,0 C18.627417,0 24,5.372583 24,12 Z M23,12 C23,5.9248678 18.0751322,1 12,1 C5.92486775,1 1,5.9248678 1,12 C1,18.0751322 5.92486775,23 12,23 C18.0751322,23 23,18.0751322 23,12 Z M8.5,12 C8.5,11.872 8.549,11.744 8.646,11.646 L13.146,7.146 C13.342,6.951 13.658,6.951 13.854,7.146 C14.049,7.342 14.049,7.658 13.854,7.854 L9.707,12 L13.854,16.146 C14.049,16.342 14.049,16.658 13.854,16.854 C13.658,17.049 13.342,17.049 13.146,16.854 L8.646,12.354 C8.549,12.256 8.5,12.128 8.5,12 Z" id="arrow-left-circle_24" fill="#00090D"></path>
    </g>
</svg>