<?xml version="1.0" encoding="UTF-8"?>
<svg width="24px" height="24px" viewBox="0 0 24 24" version="1.1" xmlns="http://www.w3.org/2000/svg" xmlns:xlink="http://www.w3.org/1999/xlink">
    <!-- Generator: Sketch 60.1 (88133) - https://sketch.com -->
    <title>Navigation / arrow-tail / arrow-left-tail / arrow-left-tail_24</title>
    <desc>Created with Sketch.</desc>
    <g id="Navigation-/-arrow-tail-/-arrow-left-tail-/-arrow-left-tail_24" stroke="none" stroke-width="1" fill="none" fill-rule="evenodd">
        <path d="M8.84268235,3.1359 C9.02142624,3.30412955 9.04886317,3.5728462 8.91983144,3.77171384 L8.8641,3.84268235 L1.65699625,11.4999986 L23.5,11.5 C23.7761424,11.5 24,11.7238576 24,12 C24,12.2454599 23.8231248,12.4496084 23.5898756,12.4919443 L23.5,12.5 L1.65699625,12.4999986 L8.8641,20.1573177 C9.03232954,20.3360615 9.04344521,20.6059465 8.90260871,20.7966363 L8.84268235,20.8641 C8.66393846,21.0323295 8.39405355,21.0434452 8.20336373,20.9026087 L8.1359,20.8426823 L0.135900004,12.3426823 L0.12786508,12.3339463 C0.113521595,12.3179732 0.100191608,12.3010714 0.0879763127,12.2833423 L0.135900004,12.3426823 C0.111632146,12.3168978 0.0906144476,12.2891797 0.0728469088,12.2600462 C0.0643135299,12.2460142 0.056603147,12.2318685 0.0495758341,12.217331 C-0.0165352869,12.0803821 -0.0165352869,11.9196179 0.0496058607,11.7826248 C0.056603147,11.7681315 0.0643135299,11.7539858 0.0726653093,11.7402738 C0.0740314114,11.7380116 0.0752303592,11.7360756 0.0764437521,11.7341461 L0.0879763127,11.7166577 C0.100191608,11.6989286 0.113521595,11.6820268 0.12786508,11.6660537 L0.135900004,11.6573177 L8.1359,3.15731765 C8.32515824,2.95623078 8.64159547,2.94664177 8.84268235,3.1359 Z" id="arrow-left-tail_24" fill="#00090D"></path>
    </g>
</svg>