<?xml version="1.0" encoding="UTF-8"?>
<svg width="24px" height="24px" viewBox="0 0 24 24" version="1.1" xmlns="http://www.w3.org/2000/svg" xmlns:xlink="http://www.w3.org/1999/xlink">
    <!-- Generator: Sketch 60.1 (88133) - https://sketch.com -->
    <title>Navigation / arrow-tail / arrow-multi-tail / arrow-multi-direction-tail_24</title>
    <desc>Created with Sketch.</desc>
    <g id="Navigation-/-arrow-tail-/-arrow-multi-tail-/-arrow-multi-direction-tail_24" stroke="none" stroke-width="1" fill="none" fill-rule="evenodd">
        <path d="M19.7843055,3.08859116 L19.8535534,3.14644661 L23.8654113,7.15871357 L23.8824063,7.17785636 L23.8824063,7.17785636 L23.891,7.188 L23.864,7.158 L23.894,7.193 L23.922993,7.23319348 L23.922993,7.23319348 C23.9299807,7.24431753 23.9367067,7.25595333 23.9429657,7.26787276 C23.9502504,7.28172431 23.9566485,7.29546114 23.9623894,7.3094049 L23.9687187,7.3255338 L23.9687187,7.3255338 L23.9751507,7.34398909 L23.9837282,7.37316218 C23.9856222,7.38041351 23.987351,7.3876991 23.9889143,7.39501295 C23.9912332,7.40562898 23.9932062,7.41661634 23.9948142,7.42772188 C23.9973429,7.44546098 23.9989382,7.46293275 23.9996194,7.48043349 L23.9999012,7.48989552 L24,7.5 L23.996,7.553 L23.997,7.546 C23.9953144,7.57098151 23.9925413,7.58826416 23.9889078,7.60522765 L23.9837282,7.62683782 L23.9751507,7.65601091 L23.9751507,7.65601091 C23.9712636,7.66793975 23.9669419,7.67959514 23.9622078,7.69103656 C23.9566485,7.70453886 23.9502504,7.71827569 23.943195,7.73175819 C23.9367067,7.74404667 23.9299807,7.75568247 23.922812,7.76701032 C23.9153907,7.77883464 23.9072255,7.79060915 23.8984974,7.80209251 L23.8824163,7.82213721 L23.8824163,7.82213721 L23.8655595,7.84113328 L19.8535534,11.8535534 C19.6582912,12.0488155 19.3417088,12.0488155 19.1464466,11.8535534 C18.9728803,11.679987 18.9535951,11.4105626 19.0885912,11.2156945 L19.1464466,11.1464466 L22.292,8 L6.5,8 C6.22385763,8 6,7.77614237 6,7.5 C6,7.25454011 6.17687516,7.05039163 6.41012437,7.00805567 L6.5,7 L22.293,7 L19.1464466,3.85355339 C18.9511845,3.65829124 18.9511845,3.34170876 19.1464466,3.14644661 C19.320013,2.97288026 19.5894374,2.95359511 19.7843055,3.08859116 Z M0.00546187104,16.4260822 L0.0110922303,16.3947723 L0.0110922303,16.3947723 C0.0143961337,16.3795257 0.0184480215,16.3641653 0.023241345,16.3489884 L0.0377922373,16.3089634 L0.0377922373,16.3089634 C0.0433514722,16.2954611 0.049749608,16.2817243 0.0568049675,16.2682418 C0.0632933417,16.2559533 0.0700193356,16.2443175 0.0771880058,16.2329897 C0.0807331946,16.2272981 0.0845945651,16.2214636 0.0885911588,16.2156945 L0.101582734,16.1978561 C0.111920253,16.1842458 0.122939203,16.1711813 0.134588748,16.1587136 L4.14644661,12.1464466 C4.34170876,11.9511845 4.65829124,11.9511845 4.85355339,12.1464466 C5.02711974,12.320013 5.04640489,12.5894374 4.91140884,12.7843055 L4.85355339,12.8535534 L1.707,15.999 L17.5,16 C17.7761424,16 18,16.2238576 18,16.5 C18,16.7454599 17.8231248,16.9496084 17.5898756,16.9919443 L17.5,17 L1.707,16.999 L4.85355339,20.1464466 C5.02711974,20.320013 5.04640489,20.5894374 4.91140884,20.7843055 L4.85355339,20.8535534 C4.67998704,21.0271197 4.41056264,21.0464049 4.2156945,20.9114088 L4.14644661,20.8535534 L0.134588748,16.8412864 L0.117593731,16.8221436 L0.117593731,16.8221436 L0.108961015,16.8116622 L0.108961015,16.8116622 L0.135,16.841 L0.105,16.806 L0.0770070472,16.7668065 L0.0770070472,16.7668065 C0.0700193356,16.7556825 0.0632933417,16.7440467 0.0570343394,16.7321272 C0.049749608,16.7182757 0.0433514722,16.7045389 0.0376105602,16.6905951 C0.0324084547,16.6780251 0.0275580952,16.6647369 0.0232684231,16.6511992 C0.0184480215,16.6358347 0.0143961337,16.6204743 0.0110856816,16.6049871 L0.00547431669,16.5742435 L0.00547431669,16.5742435 C0.00233820308,16.5529058 0.000554364655,16.531733 0.000110355769,16.5105374 L2.1198863e-14,16.5 L0.00546187104,16.4260822 L0.00546187104,16.4260822 Z" id="arrow-multi-direction-tail_24" fill="#00090D"></path>
    </g>
</svg>