<?xml version="1.0" encoding="UTF-8"?>
<svg width="24px" height="24px" viewBox="0 0 24 24" version="1.1" xmlns="http://www.w3.org/2000/svg" xmlns:xlink="http://www.w3.org/1999/xlink">
    <!-- Generator: Sketch 60.1 (88133) - https://sketch.com -->
    <title>Navigation / arrow-tail / arrow-right-tail / arrow-right-tail_24</title>
    <desc>Created with Sketch.</desc>
    <g id="Navigation-/-arrow-tail-/-arrow-right-tail-/-arrow-right-tail_24" stroke="none" stroke-width="1" fill="none" fill-rule="evenodd">
        <path d="M15.7966363,3.09739129 L15.8641,3.15731765 L23.8641,11.6573177 L23.8721349,11.6660537 C23.8802342,11.6750733 23.8880104,11.6843889 23.8954452,11.6939823 L23.8426823,11.6359 C23.869196,11.6608541 23.8923805,11.6880191 23.912219,11.7168392 L23.8641,11.6573177 C23.8873135,11.681982 23.9075355,11.7083817 23.9247795,11.7360692 C23.9271387,11.7399137 23.9294624,11.7437604 23.9317353,11.7476404 L23.9391869,11.76073 C23.9453029,11.7719512 23.9509595,11.7833615 23.9561558,11.7949326 C23.95938,11.8021109 23.9622176,11.8088365 23.964901,11.8156077 C23.9660879,11.8185883 23.9674222,11.8220519 23.9687187,11.8255338 L23.9752092,11.844209 C23.9778277,11.8522203 23.9802393,11.8602861 23.9824437,11.8683978 C23.9857595,11.8805044 23.9885511,11.8925469 23.9908911,11.9046565 C23.9911846,11.9060126 23.9915708,11.9080663 23.9919443,11.9101244 L23.9945435,11.9261937 C23.9958819,11.9352028 23.9969744,11.9442429 23.9978208,11.953303 C23.9988425,11.9641363 23.9994904,11.9748346 23.9997962,11.985539 C23.9999232,11.9897904 24,11.9948863 24,12 L23.9997962,12.014461 C23.9994999,12.0248308 23.9988827,12.035195 23.997944,12.0455374 C23.9970236,12.0554294 23.9958501,12.0651388 23.9943931,12.074812 L23.9919443,12.0898756 L23.9919443,12.0898756 C23.9886833,12.1067689 23.9860734,12.1181346 23.983061,12.1294183 C23.9802593,12.139788 23.9772192,12.1498742 23.9738555,12.1598729 C23.9722167,12.1648459 23.9705034,12.1696734 23.9687187,12.1744662 L23.964901,12.1843923 C23.9620793,12.1915127 23.9590869,12.1985826 23.9559237,12.2055961 C23.9506371,12.2172879 23.9451288,12.2283682 23.9391869,12.23927 C23.9368612,12.2434525 23.9343314,12.2479278 23.9317353,12.2523596 L23.9241696,12.2649075 C23.9227438,12.2671851 23.9212977,12.269454 23.9198314,12.2717138 L23.9128865,12.2821887 C23.9071064,12.2906284 23.9010401,12.2989271 23.894688,12.3070709 C23.8906968,12.3121165 23.8865991,12.3171715 23.8824063,12.3221436 L23.871,12.3329986 L23.8641,12.3426823 L15.8641,20.8426823 C15.6748418,21.0437692 15.3584045,21.0533582 15.1573177,20.8641 C14.9785738,20.6958705 14.9511368,20.4271538 15.0801686,20.2282862 L15.1359,20.1573177 L22.342,12.4999986 L0.5,12.5 C0.223857625,12.5 0,12.2761424 0,12 C0,11.7545401 0.176875161,11.5503916 0.410124368,11.5080557 L0.5,11.5 L22.343,11.4999986 L15.1359,3.84268235 C14.9466418,3.64159547 14.9562308,3.32515824 15.1573177,3.1359 C15.3360615,2.96767046 15.6059465,2.95655479 15.7966363,3.09739129 Z" id="arrow-right-tail_24" fill="#00090D"></path>
    </g>
</svg>