<?xml version="1.0" encoding="UTF-8"?>
<svg width="36px" height="36px" viewBox="0 0 36 36" version="1.1" xmlns="http://www.w3.org/2000/svg" xmlns:xlink="http://www.w3.org/1999/xlink">
    <!-- Generator: Sketch 60.1 (88133) - https://sketch.com -->
    <title>Navigation / arrow-tail / arrow-right-tail / arrow-right-tail_36</title>
    <desc>Created with Sketch.</desc>
    <g id="Navigation-/-arrow-tail-/-arrow-right-tail-/-arrow-right-tail_36" stroke="none" stroke-width="1" fill="none" fill-rule="evenodd">
        <path d="M22.792016,4.09402767 L22.8601601,4.15317916 L35.8601601,17.6531792 L35.869271,17.6628915 C35.879227,17.6737913 35.8887069,17.6851334 35.8976777,17.6968848 L35.8468208,17.6398399 C35.8712485,17.6633628 35.8927663,17.6887707 35.9113659,17.7156141 L35.8601601,17.6531792 C35.8847595,17.6787247 35.9061012,17.7062102 35.9241949,17.7351216 C35.9267158,17.7392145 35.9292558,17.7434076 35.9317353,17.7476404 L35.9430847,17.7680267 C35.9469139,17.7753383 35.9505504,17.7827258 35.953994,17.7901816 C35.9576829,17.7981604 35.9611262,17.8061618 35.9643503,17.814229 C35.9658207,17.8178957 35.9672925,17.8217037 35.9687187,17.8255338 L35.9753973,17.8447697 C35.9782289,17.8534668 35.9808164,17.8622272 35.9831597,17.8710402 C35.9859433,17.8814478 35.9883467,17.8918245 35.9904151,17.902253 C35.9909258,17.904644 35.9914463,17.9073803 35.9919443,17.9101244 L35.9938234,17.9214728 C35.9958913,17.9345399 35.9974403,17.9476752 35.99847,17.9608453 C35.9989626,17.9670272 35.9993372,17.9733502 35.9995923,17.9796767 C35.9998495,17.9857166 36,17.9928408 36,18 L35.9996313,18.0193318 C35.999363,18.0263275 35.9989487,18.0333192 35.9983881,18.0403019 C35.9973898,18.0526409 35.9959202,18.0651058 35.9939833,18.0775101 L35.9919443,18.0898756 L35.9919443,18.0898756 C35.9884145,18.1078339 35.9861004,18.1178723 35.9834726,18.1278466 C35.9807416,18.1381347 35.9777337,18.1482393 35.9744009,18.1582579 C35.9726723,18.1635579 35.9707414,18.1690344 35.9687187,18.1744662 L35.9643503,18.185771 C35.9612655,18.1934897 35.95798,18.2011481 35.9544938,18.2087382 C35.9507075,18.2169773 35.9467437,18.2250289 35.9425508,18.2329898 C35.9390174,18.2396085 35.935444,18.2460285 35.9317353,18.2523596 L35.9248035,18.2639033 C35.9221713,18.268131 35.9194698,18.2723284 35.9166989,18.2764939 C35.9066248,18.2912283 35.9016942,18.2979775 35.896574,18.3046259 C35.8917197,18.3108515 35.8871232,18.31655 35.8824063,18.3221436 L35.868,18.3359994 L35.8601601,18.3468208 L22.8601601,31.8468208 C22.6686162,32.0457318 22.3520901,32.051704 22.1531792,31.8601601 C21.9763694,31.6898989 21.9520051,31.4208862 22.0833011,31.2235061 L22.1398399,31.1531792 L34.323,18.4999994 L0.5,18.5 C0.223857625,18.5 0,18.2761424 0,18 C0,17.7545401 0.176875161,17.5503916 0.410124368,17.5080557 L0.5,17.5 L34.324,17.4999994 L22.1398399,4.84682084 C21.948296,4.64790991 21.9542682,4.33138376 22.1531792,4.13983989 C22.3299889,3.96957868 22.5997291,3.95537954 22.792016,4.09402767 Z" id="arrow-right-tail_36" fill="#00090D"></path>
    </g>
</svg>