<?xml version="1.0" encoding="UTF-8"?>
<svg width="16px" height="16px" viewBox="0 0 16 16" version="1.1" xmlns="http://www.w3.org/2000/svg" xmlns:xlink="http://www.w3.org/1999/xlink">
    <!-- Generator: Sketch 60.1 (88133) - https://sketch.com -->
    <title>Navigation / arrow-circle / arrow-left-circle / arrow-left-circle_16</title>
    <desc>Created with Sketch.</desc>
    <g id="Navigation-/-arrow-circle-/-arrow-left-circle-/-arrow-left-circle_16" stroke="none" stroke-width="1" fill="none" fill-rule="evenodd">
        <path d="M8,16 C3.582,16 0,12.418 0,8 C0,3.582 3.582,0 8,0 C12.418,0 16,3.582 16,8 C16,12.418 12.418,16 8,16 Z M8,1 C4.141,1 1,4.14 1,8 C1,11.86 4.141,15 8,15 C11.86,15 15,11.86 15,8 C15,4.14 11.86,1 8,1 Z M9.912,4.85626538 C10.11,4.66226538 10.11,4.34526538 9.918,4.14926538 C9.725,3.95226538 9.408,3.95026538 9.211,4.14326538 L5.65,7.64326538 C5.555,7.73726538 5.5,7.86526538 5.5,7.99926538 L5.5,8.00026538 C5.5,8.13326538 5.554,8.26226538 5.649,8.35626538 L9.2,11.8562654 C9.397,12.0492654 9.713,12.0472654 9.907,11.8512654 C10.101,11.6522654 10.098,11.3362654 9.902,11.1442654 L6.713,8.00026538 L9.912,4.85626538 L9.912,4.85626538 Z" id="arrow-left-circle_16" fill="#00090D"></path>
    </g>
</svg>