<?xml version="1.0" encoding="UTF-8"?>
<svg width="16px" height="16px" viewBox="0 0 16 16" version="1.1" xmlns="http://www.w3.org/2000/svg" xmlns:xlink="http://www.w3.org/1999/xlink">
    <!-- Generator: Sketch 60.1 (88133) - https://sketch.com -->
    <title>Navigation / arrow-tail / arrow-left-tail / arrow-left-tail_16</title>
    <desc>Created with Sketch.</desc>
    <g id="Navigation-/-arrow-tail-/-arrow-left-tail-/-arrow-left-tail_16" stroke="none" stroke-width="1" fill="none" fill-rule="evenodd">
        <path d="M5.8363364,2.13002996 C6.01796201,2.29514415 6.05004054,2.5633463 5.92446622,2.76441499 L5.86997004,2.8363364 L1.629,7.49999647 L15.5,7.5 C15.7761424,7.5 16,7.72385763 16,8 C16,8.24545989 15.8231248,8.44960837 15.5898756,8.49194433 L15.5,8.5 L1.63,8.49999647 L5.86997004,13.1636636 C6.03508423,13.3452892 6.04153234,13.615326 5.89742015,13.8035524 L5.8363364,13.86997 C5.65471079,14.0350842 5.38467404,14.0415323 5.19644757,13.8974201 L5.13002996,13.8363364 L0.130029963,8.3363364 C0.110227058,8.31419524 0.0949215241,8.29424173 0.08116067,8.27318711 L0.130029963,8.3363364 C0.10757499,8.31163593 0.088028341,8.28524889 0.0713900172,8.25761216 C0.0260716017,8.18238878 0,8.09423906 0,8 C0,7.90576094 0.0260716017,7.81761122 0.0713954649,7.74237019 C0.0719704239,7.74142376 0.0725543696,7.74046121 0.0731418544,7.7395002 L0.08116067,7.72681289 C0.0949215241,7.70575827 0.110227058,7.68580476 0.126916364,7.66711324 L0.130029963,7.6636636 L5.13002996,2.1636636 C5.31578343,1.95933479 5.63200759,1.9442765 5.8363364,2.13002996 Z" id="arrow-left-tail_16" fill="#00090D"></path>
    </g>
</svg>