<?xml version="1.0" encoding="UTF-8"?>
<svg width="16px" height="16px" viewBox="0 0 16 16" version="1.1" xmlns="http://www.w3.org/2000/svg" xmlns:xlink="http://www.w3.org/1999/xlink">
    <!-- Generator: Sketch 60.1 (88133) - https://sketch.com -->
    <title>Navigation / arrow-circle / arrow-up-circle_16</title>
    <desc>Created with Sketch.</desc>
    <g id="Navigation-/-arrow-circle-/-arrow-up-circle_16" stroke="none" stroke-width="1" fill="none" fill-rule="evenodd">
        <path d="M8,0 C12.418278,0 16,3.581722 16,8 C16,12.418278 12.418278,16 8,16 C3.581722,16 0,12.418278 0,8 C0,3.581722 3.581722,0 8,0 Z M8,1 C4.13400675,1 1,4.13400675 1,8 C1,11.8659932 4.13400675,15 8,15 C11.8659932,15 15,11.8659932 15,8 C15,4.13400675 11.8659932,1 8,1 Z M8.28426391,5.58858956 L8.35351212,5.64644463 L11.8535514,9.14644463 C12.0488146,9.34170568 12.0488164,9.65828816 11.8535554,9.85355141 C11.67999,10.0271187 11.4105657,10.0464054 11.2156968,9.91141044 L11.1464486,9.85355537 L8,6.707 L4.85355537,9.85355141 C4.67999,10.0271187 4.4105657,10.0464054 4.21569681,9.91141044 L4.14644859,9.85355537 C3.97288127,9.67999 3.95359461,9.4105657 4.08858956,9.21569681 L4.14644463,9.14644859 L7.64640534,5.64644859 C7.81997072,5.47288127 8.08939501,5.45359461 8.28426391,5.58858956 Z" id="arrow-up-circle_16" fill="#00090D"></path>
    </g>
</svg>