<?xml version="1.0" encoding="UTF-8"?>
<svg width="36px" height="36px" viewBox="0 0 36 36" version="1.1" xmlns="http://www.w3.org/2000/svg" xmlns:xlink="http://www.w3.org/1999/xlink">
    <!-- Generator: Sketch 60.1 (88133) - https://sketch.com -->
    <title>Navigation / arrow-tail / arrow-left-tail / arrow-left-tail_36</title>
    <desc>Created with Sketch.</desc>
    <g id="Navigation-/-arrow-tail-/-arrow-left-tail-/-arrow-left-tail_36" stroke="none" stroke-width="1" fill="none" fill-rule="evenodd">
        <path d="M13.8468208,4.13983989 C14.0236306,4.3101011 14.0479949,4.57911376 13.9166989,4.77649386 L13.8601601,4.84682084 L1.67498884,17.4999994 L35.5,17.5 C35.7761424,17.5 36,17.7238576 36,18 C36,18.2454599 35.8231248,18.4496084 35.5898756,18.4919443 L35.5,18.5 L1.67598884,18.4999994 L13.8601601,31.1531792 C14.0304213,31.3299889 14.0446205,31.5997291 13.9059723,31.792016 L13.8468208,31.8601601 C13.6700111,32.0304213 13.4002709,32.0446205 13.207984,31.9059723 L13.1398399,31.8468208 L0.139839893,18.3468208 L0.130728992,18.3371085 C0.117484754,18.3226088 0.105083111,18.3073264 0.0936015378,18.2913387 L0.139839893,18.3468208 C0.113823169,18.3198035 0.0914366852,18.2905905 0.0726804421,18.2597947 C0.0645042098,18.2463272 0.0569555536,18.2325142 0.0500582245,18.2183261 C-0.0167158084,18.0809114 -0.0167158084,17.9190886 0.0501474252,17.7814825 C0.0569555536,17.7674858 0.0645042098,17.7536728 0.0726653093,17.7402738 C0.0746342174,17.7369974 0.0766273834,17.7338067 0.07865994,17.7306338 L0.0936015378,17.7086613 C0.105083111,17.6926736 0.117484754,17.6773912 0.130728992,17.6628915 L0.139839893,17.6531792 L13.1398399,4.15317916 C13.3313838,3.95426822 13.6479099,3.94829603 13.8468208,4.13983989 Z" id="arrow-left-tail_36" fill="#00090D"></path>
    </g>
</svg>