<?xml version="1.0" encoding="UTF-8"?>
<svg width="36px" height="36px" viewBox="0 0 36 36" version="1.1" xmlns="http://www.w3.org/2000/svg" xmlns:xlink="http://www.w3.org/1999/xlink">
    <!-- Generator: Sketch 60.1 (88133) - https://sketch.com -->
    <title>Navigation / arrow-tail / arrow-multi-tail / arrow-multi-direction-tail_36</title>
    <desc>Created with Sketch.</desc>
    <g id="Navigation-/-arrow-tail-/-arrow-multi-tail-/-arrow-multi-direction-tail_36" stroke="none" stroke-width="1" fill="none" fill-rule="evenodd">
        <path d="M29.7843055,4.08859116 L29.8535534,4.14644661 L35.8654113,10.1587136 L35.8824063,10.1778564 L35.8824063,10.1778564 L35.891,10.188 L35.864,10.158 L35.894,10.193 L35.922993,10.2331935 L35.922993,10.2331935 C35.9299807,10.2443175 35.9367067,10.2559533 35.9429657,10.2678728 C35.9502504,10.2817243 35.9566485,10.2954611 35.9623894,10.3094049 L35.9687187,10.3255338 L35.9687187,10.3255338 L35.9751507,10.3439891 L35.9837282,10.3731622 C35.9856222,10.3804135 35.987351,10.3876991 35.9889143,10.3950129 C35.9912332,10.405629 35.9932062,10.4166163 35.9948142,10.4277219 C35.9973429,10.445461 35.9989382,10.4629328 35.9996194,10.4804335 L35.9999012,10.4898955 L36,10.5 L35.996,10.553 L35.997,10.546 C35.9953144,10.5709815 35.9925413,10.5882642 35.9889078,10.6052277 L35.9837282,10.6268378 L35.9751507,10.6560109 L35.9751507,10.6560109 C35.9712636,10.6679398 35.9669419,10.6795951 35.9622078,10.6910366 C35.9566485,10.7045389 35.9502504,10.7182757 35.943195,10.7317582 C35.9367067,10.7440467 35.9299807,10.7556825 35.922812,10.7670103 C35.9153907,10.7788346 35.9072255,10.7906092 35.8984974,10.8020925 L35.8824163,10.8221372 L35.8824163,10.8221372 L35.8655595,10.8411333 L29.8535534,16.8535534 C29.6582912,17.0488155 29.3417088,17.0488155 29.1464466,16.8535534 C28.9728803,16.679987 28.9535951,16.4105626 29.0885912,16.2156945 L29.1464466,16.1464466 L34.292,11 L9.5,11 C9.22385763,11 9,10.7761424 9,10.5 C9,10.2545401 9.17687516,10.0503916 9.41012437,10.0080557 L9.5,10 L34.293,10 L29.1464466,4.85355339 C28.9511845,4.65829124 28.9511845,4.34170876 29.1464466,4.14644661 C29.320013,3.97288026 29.5894374,3.95359511 29.7843055,4.08859116 Z M0.00546187104,25.4260822 L0.0110922303,25.3947723 L0.0110922303,25.3947723 C0.0143961337,25.3795257 0.0184480215,25.3641653 0.023241345,25.3489884 L0.0377922373,25.3089634 L0.0377922373,25.3089634 C0.0433514722,25.2954611 0.049749608,25.2817243 0.0568049675,25.2682418 C0.0632933417,25.2559533 0.0700193356,25.2443175 0.0771880058,25.2329897 C0.0807331946,25.2272981 0.0845945651,25.2214636 0.0885911588,25.2156945 L0.101582734,25.1978561 C0.111920253,25.1842458 0.122939203,25.1711813 0.134588748,25.1587136 L6.14644661,19.1464466 C6.34170876,18.9511845 6.65829124,18.9511845 6.85355339,19.1464466 C7.02711974,19.320013 7.04640489,19.5894374 6.91140884,19.7843055 L6.85355339,19.8535534 L1.706,25 L26.5,25 C26.7761424,25 27,25.2238576 27,25.5 C27,25.7454599 26.8231248,25.9496084 26.5898756,25.9919443 L26.5,26 L1.706,26 L6.85355339,31.1464466 C7.02711974,31.320013 7.04640489,31.5894374 6.91140884,31.7843055 L6.85355339,31.8535534 C6.67998704,32.0271197 6.41056264,32.0464049 6.2156945,31.9114088 L6.14644661,31.8535534 L0.134588748,25.8412864 L0.117593731,25.8221436 L0.117593731,25.8221436 L0.108961015,25.8116622 L0.108961015,25.8116622 L0.135,25.841 L0.105,25.806 L0.0770070472,25.7668065 L0.0770070472,25.7668065 C0.0700193356,25.7556825 0.0632933417,25.7440467 0.0570343394,25.7321272 C0.049749608,25.7182757 0.0433514722,25.7045389 0.0376105602,25.6905951 C0.0324084547,25.6780251 0.0275580952,25.6647369 0.0232684231,25.6511992 C0.0184480215,25.6358347 0.0143961337,25.6204743 0.0110856816,25.6049871 L0.00544806672,25.5740669 L0.00544806672,25.5740669 C0.00238749635,25.5532373 0.0006109983,25.5324012 0.000132376875,25.5115408 L3.99687878e-14,25.5 L0.00546187104,25.4260822 L0.00546187104,25.4260822 Z" id="arrow-multi-direction-tail_36" fill="#00090D"></path>
    </g>
</svg>