<?xml version="1.0" encoding="UTF-8"?>
<svg width="16px" height="16px" viewBox="0 0 16 16" version="1.1" xmlns="http://www.w3.org/2000/svg" xmlns:xlink="http://www.w3.org/1999/xlink">
    <!-- Generator: Sketch 60.1 (88133) - https://sketch.com -->
    <title>Navigation / arrow-circle / arrow-right-circle_16</title>
    <desc>Created with Sketch.</desc>
    <g id="Navigation-/-arrow-circle-/-arrow-right-circle_16" stroke="none" stroke-width="1" fill="none" fill-rule="evenodd">
        <path d="M8,16 C3.582,16 0,12.418 0,8 C0,3.582 3.582,0 8,0 C12.418,0 16,3.582 16,8 C16,12.418 12.418,16 8,16 Z M8,1 C4.141,1 1,4.14 1,8 C1,11.86 4.141,15 8,15 C11.86,15 15,11.86 15,8 C15,4.14 11.86,1 8,1 Z M6.14925865,4.85626538 C5.95125865,4.66226538 5.95125865,4.34526538 6.14325865,4.14926538 C6.33625865,3.95226538 6.65325865,3.95026538 6.85025865,4.14326538 L10.4112587,7.64326538 C10.5062587,7.73726538 10.5612587,7.86526538 10.5612587,7.99926538 L10.5612587,8.00026538 C10.5612587,8.13326538 10.5072587,8.26226538 10.4122587,8.35626538 L6.86125865,11.8562654 C6.66425865,12.0492654 6.34825865,12.0472654 6.15425865,11.8512654 C5.96025865,11.6522654 5.96325865,11.3362654 6.15925865,11.1442654 L9.34825865,8.00026538 L6.14925865,4.85626538 L6.14925865,4.85626538 Z" id="arrow-right-circle_16" fill="#00090D"></path>
    </g>
</svg>