<?xml version="1.0" encoding="UTF-8"?>
<svg width="16px" height="16px" viewBox="0 0 16 16" version="1.1" xmlns="http://www.w3.org/2000/svg" xmlns:xlink="http://www.w3.org/1999/xlink">
    <!-- Generator: Sketch 60.1 (88133) - https://sketch.com -->
    <title>Navigation / arrow-tail / arrow-multi-tail / arrow-multi-direction-tail_16</title>
    <desc>Created with Sketch.</desc>
    <g id="Navigation-/-arrow-tail-/-arrow-multi-tail-/-arrow-multi-direction-tail_16" stroke="none" stroke-width="1" fill="none" fill-rule="evenodd">
        <path d="M13.7843055,2.08859116 L13.8535534,2.14644661 L15.8654113,4.15871357 L15.8824063,4.17785636 L15.8824063,4.17785636 L15.891,4.188 L15.864,4.158 L15.894,4.193 L15.922993,4.23319348 L15.922993,4.23319348 C15.9299807,4.24431753 15.9367067,4.25595333 15.9429657,4.26787276 C15.9502504,4.28172431 15.9566485,4.29546114 15.9623894,4.3094049 L15.9687187,4.3255338 L15.9687187,4.3255338 L15.9751507,4.34398909 L15.9837282,4.37316218 C15.9856222,4.38041351 15.987351,4.3876991 15.9889143,4.39501295 C15.9912332,4.40562898 15.9932062,4.41661634 15.9948142,4.42772188 C15.9973429,4.44546098 15.9989382,4.46293275 15.9996194,4.48043349 L15.9999012,4.48989552 L16,4.5 L15.996,4.553 L15.997,4.546 C15.9953144,4.57098151 15.9925413,4.58826416 15.9889078,4.60522765 L15.9837282,4.62683782 L15.9751507,4.65601091 L15.9751507,4.65601091 C15.9712636,4.66793975 15.9669419,4.67959514 15.9622078,4.69103656 C15.9566485,4.70453886 15.9502504,4.71827569 15.943195,4.73175819 C15.9367067,4.74404667 15.9299807,4.75568247 15.922812,4.76701032 C15.9153907,4.77883464 15.9072255,4.79060915 15.8984974,4.80209251 L15.8824163,4.82213721 L15.8824163,4.82213721 L15.8655595,4.84113328 L13.8535534,6.85355339 C13.6582912,7.04881554 13.3417088,7.04881554 13.1464466,6.85355339 C12.9728803,6.67998704 12.9535951,6.41056264 13.0885912,6.2156945 L13.1464466,6.14644661 L14.292,5 L4.5,5 C4.22385763,5 4,4.77614237 4,4.5 C4,4.25454011 4.17687516,4.05039163 4.41012437,4.00805567 L4.5,4 L14.293,4 L13.1464466,2.85355339 C12.9511845,2.65829124 12.9511845,2.34170876 13.1464466,2.14644661 C13.320013,1.97288026 13.5894374,1.95359511 13.7843055,2.08859116 Z M0.104,11.806 L0.0769572044,11.7667284 L0.0769572044,11.7667284 C0.0700193356,11.7556825 0.0632933417,11.7440467 0.0570343394,11.7321272 C0.0496891308,11.7181532 0.0432899451,11.7044039 0.0375490888,11.6904475 C0.0324084547,11.6780251 0.0275580952,11.6647369 0.0232684231,11.6511992 C0.0183918041,11.6356382 0.0143433592,11.6202644 0.0110375314,11.6047639 L0.00544806672,11.5740669 L0.00544806672,11.5740669 C0.00235831508,11.5529708 0.000592022317,11.5321179 0.000125552208,11.5112415 L8.16729497e-16,11.5 L0.00560990318,11.4250942 L0.00560990318,11.4250942 L0.010875251,11.3957905 L0.010875251,11.3957905 C0.0143599105,11.3794794 0.0187963002,11.3627591 0.0241113814,11.3462604 C0.028263233,11.3333404 0.0327982458,11.3210329 0.0377922373,11.3089634 C0.0434756066,11.2951761 0.0499215993,11.281362 0.0570324851,11.2678059 C0.0632933417,11.2559533 0.0700193356,11.2443175 0.0771880058,11.2329897 C0.0810215566,11.2268542 0.0848922692,11.2210192 0.0888983657,11.2152497 L0.101582734,11.1978561 C0.111920253,11.1842458 0.122939203,11.1711813 0.134588748,11.1587136 L0.146882582,11.1460112 L2.14688258,9.15093454 C2.34238521,8.95591318 2.65896746,8.95630332 2.85398883,9.15180595 C3.02734115,9.32558607 3.04629426,9.59503403 2.91105816,9.78973566 L2.85311742,9.8589122 L1.708,10.9999234 L11.5,11 C11.7761424,11 12,11.2238576 12,11.5 C12,11.7454599 11.8231248,11.9496084 11.5898756,11.9919443 L11.5,12 L1.707,11.9999234 L2.85355339,13.1464466 C3.02711974,13.320013 3.04640489,13.5894374 2.91140884,13.7843055 L2.85355339,13.8535534 C2.67998704,14.0271197 2.41056264,14.0464049 2.2156945,13.9114088 L2.14644661,13.8535534 L0.134588748,11.8412864 L0.117593731,11.8221436 L0.117593731,11.8221436 L0.108931063,11.811625 L0.108931063,11.811625 L0.104,11.806 Z" id="arrow-multi-direction-tail_16" fill="#00090D"></path>
    </g>
</svg>