<?xml version="1.0" encoding="UTF-8"?>
<svg width="36px" height="36px" viewBox="0 0 36 36" version="1.1" xmlns="http://www.w3.org/2000/svg" xmlns:xlink="http://www.w3.org/1999/xlink">
    <!-- Generator: Sketch 60.1 (88133) - https://sketch.com -->
    <title>Tools / assurance / assurance_36</title>
    <desc>Created with Sketch.</desc>
    <g id="Tools-/-assurance-/-assurance_36" stroke="none" stroke-width="1" fill="none" fill-rule="evenodd">
        <path d="M2,28.2867647 L2,31.5 C2,32.8807119 3.11928813,34 4.5,34 L9,34 L34.5735294,34 C34.8090626,34 35,34.2238576 35,34.5 C35,34.7761424 34.8090626,35 34.5735294,35 L31.5,35 L9,35 L18.9632353,35 L4.5,35 C2.56700338,35 1,33.4329966 1,31.5 L1,17.0367647 L1,27 L1,4.5 L1,1.42647059 C1,1.19093739 1.22385763,1 1.5,1 C1.77614237,1 2,1.19093739 2,1.42647059 L2,28.2867647 Z M4.5,1 L31.5,1 L4.5,1 Z M35,4.5 L35,31.5 L35,4.5 Z M23.1110913,22.8181981 L15.5,15.2071068 L7.85355339,22.8535534 C7.65829124,23.0488155 7.34170876,23.0488155 7.14644661,22.8535534 C6.95118446,22.6582912 6.95118446,22.3417088 7.14644661,22.1464466 L15.1110913,14.1818019 C15.3258796,13.9670136 15.6741204,13.9670136 15.8889087,14.1818019 L23.5,21.7928932 L31.1464466,14.1464466 C31.3417088,13.9511845 31.6582912,13.9511845 31.8535534,14.1464466 C32.0488155,14.3417088 32.0488155,14.6582912 31.8535534,14.8535534 L23.8889087,22.8181981 C23.6741204,23.0329864 23.3258796,23.0329864 23.1110913,22.8181981 Z" id="assurance_36" fill="#00090D"></path>
    </g>
</svg>