<?xml version="1.0" encoding="UTF-8"?>
<svg width="16px" height="16px" viewBox="0 0 16 16" version="1.1" xmlns="http://www.w3.org/2000/svg" xmlns:xlink="http://www.w3.org/1999/xlink">
    <!-- Generator: Sketch 60.1 (88133) - https://sketch.com -->
    <title>Tools / assurance/ assurance_16</title>
    <desc>Created with Sketch.</desc>
    <g id="Tools-/-assurance/-assurance_16" stroke="none" stroke-width="1" fill="none" fill-rule="evenodd">
        <path d="M0.5,0 C0.745459889,0 0.94960837,0.176875161 0.991944331,0.410124368 L1,0.5 L1,13.5 C1,14.2796961 1.59488808,14.9204487 2.35553999,14.9931334 L2.5,15 L15.5,15 C15.7761424,15 16,15.2238576 16,15.5 C16,15.7454599 15.8231248,15.9496084 15.5898756,15.9919443 L15.5,16 L2.5,16 C1.1745166,16 0.089961328,14.9684641 0.00531767968,13.6643757 L0,13.5 L0,0.5 C0,0.223857625 0.223857625,0 0.5,0 Z M7.2513522,6.06770908 L7.32539569,6.1203717 L10.473,8.819 L13.1464466,6.14644661 C13.320013,5.97288026 13.5894374,5.95359511 13.7843055,6.08859116 L13.8535534,6.14644661 C14.0271197,6.32001296 14.0464049,6.58943736 13.9114088,6.7843055 L13.8535534,6.85355339 L10.8535534,9.85355339 C10.691902,10.0152048 10.4451969,10.0441099 10.2531543,9.93490282 L10.1746043,9.8796283 L6.99999094,7.158 L3.82539569,9.8796283 C3.63902865,10.0393715 3.36891873,10.0379359 3.18497831,9.88839179 L3.1203717,9.82539569 C2.96062852,9.63902865 2.96206408,9.36891873 3.11160821,9.18497831 L3.17460431,9.1203717 L6.67460431,6.1203717 C6.83844357,5.97993805 7.07046692,5.96238384 7.2513522,6.06770908 Z" id="assurance_16" fill="#00090D"></path>
    </g>
</svg>