<?xml version="1.0" encoding="UTF-8"?>
<svg width="24px" height="24px" viewBox="0 0 24 24" version="1.1" xmlns="http://www.w3.org/2000/svg" xmlns:xlink="http://www.w3.org/1999/xlink">
    <!-- Generator: Sketch 60.1 (88133) - https://sketch.com -->
    <title>Tools / assurance / assurance_24</title>
    <desc>Created with Sketch.</desc>
    <g id="Tools-/-assurance-/-assurance_24" stroke="none" stroke-width="1" fill="none" fill-rule="evenodd">
        <path d="M5.8584,14.854 C5.6634,15.049 5.3464,15.049 5.1514,14.854 C4.9564,14.659 4.9564,14.342 5.1514,14.147 L10.1464,9.147 C10.3344,8.96 10.6664,8.959 10.8534,9.147 L15.5004,13.793 L20.1464,9.147 C20.3414,8.952 20.6584,8.952 20.8534,9.147 C21.0484,9.342 21.0484,9.659 20.8534,9.854 L15.8534,14.854 C15.7554,14.952 15.6284,15 15.5004,15 C15.3724,15 15.2444,14.952 15.1464,14.854 L10.5004,10.208 L5.8584,14.854 Z M22.5004,22 C22.7754,22 23.0004,22.225 23.0004,22.5 C23.0004,22.776 22.7754,23 22.5004,23 L3.4694,23 C2.1074,23 1.0004,21.894 1.0004,20.531 L1.0004,1.5 C1.0004,1.225 1.2244,1 1.5004,1 C1.7754,1 2.0004,1.225 2.0004,1.5 L2.0004,20.531 C2.0004,21.341 2.6594,22 3.4694,22 L22.5004,22 Z" id="assurance_24" fill="#00090D"></path>
    </g>
</svg>