<?xml version="1.0" encoding="UTF-8"?>
<svg width="16px" height="16px" viewBox="0 0 16 16" version="1.1" xmlns="http://www.w3.org/2000/svg" xmlns:xlink="http://www.w3.org/1999/xlink">
    <!-- Generator: Sketch 60.1 (88133) - https://sketch.com -->
    <title>Action / attach_16</title>
    <desc>Created with Sketch.</desc>
    <g id="Action-/-attach_16" stroke="none" stroke-width="1" fill="none" fill-rule="evenodd">
        <path d="M13.838,2.125 C12.34,0.625 9.727,0.625 8.229,2.125 C8.033,2.32 8.033,2.637 8.229,2.832 C8.424,3.027 8.74,3.027 8.936,2.832 C10.057,1.711 12.01,1.711 13.131,2.832 C13.692,3.393 14,4.138 14,4.93 C14,5.722 13.692,6.467 13.131,7.027 L7.065,13.094 C5.943,14.215 3.99,14.215 2.869,13.094 C2.309,12.533 2,11.788 2,10.996 C2,10.204 2.309,9.459 2.869,8.898 L6.895,4.873 C7.375,4.393 8.158,4.393 8.639,4.873 C9.119,5.354 9.119,6.137 8.639,6.617 L6.147,9.109 C5.951,9.305 5.951,9.621 6.147,9.816 C6.342,10.012 6.658,10.012 6.854,9.816 L9.346,7.324 C10.217,6.453 10.217,5.037 9.346,4.166 C8.475,3.295 7.059,3.295 6.188,4.166 L2.162,8.191 C1.412,8.94 1,9.937 1,10.996 C1,12.056 1.412,13.052 2.162,13.801 C2.911,14.551 3.907,14.963 4.967,14.963 C6.026,14.963 7.023,14.551 7.772,13.801 L13.838,7.734 C14.588,6.985 15,5.989 15,4.93 C15,3.87 14.588,2.874 13.838,2.125" id="attach_16" fill="#00090D"></path>
    </g>
</svg>