<svg width="16" height="16" viewBox="0 0 16 16" fill="none" xmlns="http://www.w3.org/2000/svg">
<g clip-path="url(#clip0_2211_47)">
<path fill-rule="evenodd" clip-rule="evenodd" d="M8.4258 0.0951812C8.15612 -0.0317275 7.84388 -0.0317267 7.5742 0.0951814L0.574203 3.3893C0.223711 3.55424 0 3.90676 0 4.29412V11.6007C0 11.9881 0.223711 12.3406 0.574203 12.5055L7.5742 15.7996C7.84388 15.9265 8.15612 15.9265 8.4258 15.7996L15.4258 12.5055C15.7763 12.3406 16 11.9881 16 11.6007V4.29412C16 3.90675 15.7763 3.55424 15.4258 3.3893L8.4258 0.0951812ZM14.2631 3.94732L8 1L1.73695 3.94732L4.60294 5.29602L4.14355 5.5122C4.05593 5.55344 4 5.64157 4 5.73841V6.11747L1 4.70571V11.6007L7.50001 14.6595V11.4621L7.89355 11.6473C7.96097 11.679 8.03903 11.679 8.10645 11.6473L8.50001 11.4621V14.6595L15 11.6007V4.70572L12 6.11748V5.73841C12 5.64157 11.9441 5.55344 11.8564 5.5122L11.3971 5.29602L14.2631 3.94732ZM12 6.11748L8.50001 7.76454V11.4621L11.8564 9.8826C11.9441 9.84137 12 9.75324 12 9.6564V6.11748ZM7.50001 11.4621L4.14355 9.8826C4.05593 9.84137 4 9.75324 4 9.6564V6.11747L7.50001 7.76454V11.4621ZM11.3971 5.29602L8.10645 3.7475C8.03903 3.71577 7.96097 3.71577 7.89355 3.7475L4.60294 5.29602L8.00001 6.89464L11.3971 5.29602Z" fill="#545454"/>
</g>
<defs>
<clipPath id="clip0_2211_47">
<rect width="16" height="16" fill="white"/>
</clipPath>
</defs>
</svg>
