<?xml version="1.0" encoding="UTF-8"?>
<svg width="24px" height="24px" viewBox="0 0 24 24" version="1.1" xmlns="http://www.w3.org/2000/svg" xmlns:xlink="http://www.w3.org/1999/xlink">
    <!-- Generator: Sketch 60.1 (88133) - https://sketch.com -->
    <title>Action/play &amp; pause/backward_24</title>
    <desc>Created with Sketch.</desc>
    <g id="Action/play-&amp;-pause/backward_24" stroke="none" stroke-width="1" fill="none" fill-rule="evenodd">
        <path d="M12.2366356,11.9999 L18.8409212,18.1379 C19.0434512,18.3259 19.0544801,18.6419 18.8659868,18.8439 C18.7677296,18.9499 18.6333779,19.0029 18.4990263,19.0029 C18.3767062,19.0029 18.254386,18.9589 18.1571315,18.8689 L11.1598172,12.3659 C11.0575496,12.2709 11.0004,12.1389 11.0004,11.9999 C11.0004,11.8609 11.0575496,11.7289 11.1598172,11.6339 L18.1571315,5.1339 C18.3596615,4.9459 18.6774934,4.9579 18.8659868,5.1589 C19.0544801,5.3609 19.0434512,5.6779 18.8409212,5.8659 L12.2366356,11.9999 Z M6,5.5 C6,5.22385763 6.22385763,5 6.5,5 C6.77614237,5 7,5.22385763 7,5.5 L7,18.5 C7,18.7761424 6.77614237,19 6.5,19 C6.22385763,19 6,18.7761424 6,18.5 L6,5.5 Z M3.5,1 L20.5,1 C21.8807119,1 23,2.11928813 23,3.5 L23,20.5 C23,21.8807119 21.8807119,23 20.5,23 L3.5,23 C2.11928813,23 1,21.8807119 1,20.5 L1,3.5 C1,2.11928813 2.11928813,1 3.5,1 Z M3.5,2 C2.67157288,2 2,2.67157288 2,3.5 L2,20.5 C2,21.3284271 2.67157288,22 3.5,22 L20.5,22 C21.3284271,22 22,21.3284271 22,20.5 L22,3.5 C22,2.67157288 21.3284271,2 20.5,2 L3.5,2 Z" id="backward_24" fill="#00090D"></path>
    </g>
</svg>