<?xml version="1.0" encoding="UTF-8"?>
<svg width="16px" height="16px" viewBox="0 0 16 16" version="1.1" xmlns="http://www.w3.org/2000/svg" xmlns:xlink="http://www.w3.org/1999/xlink">
    <!-- Generator: Sketch 60.1 (88133) - https://sketch.com -->
    <title>Action / backspace_16</title>
    <desc>Created with Sketch.</desc>
    <g id="Action-/-backspace_16" stroke="none" stroke-width="1" fill="none" fill-rule="evenodd">
        <path d="M14.0002526,2 C15.1031133,2 16,2.897 16,4 L16,12 C16,13.104 15.1031133,14 14.0002526,14 L5.53432209,14 C4.99039081,14 4.47945535,13.76 4.13149931,13.341 L0.232991794,8.629 C-0.0799686706,8.275 -0.0789687969,7.725 0.243990405,7.359 L4.14049817,2.649 C4.4814551,2.237 4.98439157,2 5.52032386,2 L14.0002526,2 Z M15.0001263,12 L15.0001263,4 C15.0001263,3.449 14.551183,3 14.0002526,3 L5.52032386,3 C5.2833538,3 5.06138184,3.104 4.91140079,3.287 L1.00289453,8.01 L4.90240192,12.703 C5.05838222,12.892 5.28935304,13 5.53432209,13 L14.0002526,13 C14.551183,13 15.0001263,12.552 15.0001263,12 Z M12.8456985,5.1464 C13.0406738,5.3414 13.0406738,5.6584 12.8456985,5.8534 L10.6999695,8.0004 L12.8456985,10.1464 C13.0406738,10.3414 13.0406738,10.6584 12.8456985,10.8534 C12.7477109,10.9514 12.619727,11.0004 12.4917432,11.0004 C12.3647592,11.0004 12.2367754,10.9514 12.1387878,10.8534 L9.99205896,8.7074 L7.84633003,10.8534 C7.7483424,10.9514 7.62035857,11.0004 7.49237474,11.0004 C7.36539078,11.0004 7.23740695,10.9514 7.13941933,10.8534 C6.94444396,10.6584 6.94444396,10.3414 7.13941933,10.1464 L9.28514827,8.0004 L7.13941933,5.8534 C6.94444396,5.6584 6.94444396,5.3414 7.13941933,5.1464 C7.3343947,4.9514 7.65135466,4.9514 7.84633003,5.1464 L9.99205896,7.2924 L12.1387878,5.1464 C12.3337631,4.9514 12.6507231,4.9514 12.8456985,5.1464 L12.8456985,5.1464 Z" id="backspace_16" fill="#00090D"></path>
    </g>
</svg>