<?xml version="1.0" encoding="UTF-8"?>
<svg width="45px" height="24px" viewBox="0 0 45 24" version="1.1" xmlns="http://www.w3.org/2000/svg" xmlns:xlink="http://www.w3.org/1999/xlink">
    <!-- Generator: Sketch 60.1 (88133) - https://sketch.com -->
    <title>Action/play &amp; pause/back-forward-button_24</title>
    <desc>Created with Sketch.</desc>
    <g id="Action/play-&amp;-pause/back-forward-button_24" stroke="none" stroke-width="1" fill="none" fill-rule="evenodd">
        <path d="M23,1 L41.5,1 C42.8807119,1 44,2.11928813 44,3.5 L44,20.5 C44,21.8807119 42.8807119,23 41.5,23 L23,23 L3.5,23 C2.11928813,23 1,21.8807119 1,20.5 L1,3.5 C1,2.11928813 2.11928813,1 3.5,1 L23,1 Z M23,2 L23,22 L41.5,22 C42.3284271,22 43,21.3284271 43,20.5 L43,3.5 C43,2.67157288 42.3284271,2 41.5,2 L23,2 Z M22,2 L3.5,2 C2.67157288,2 2,2.67157288 2,3.5 L2,20.5 C2,21.3284271 2.67157288,22 3.5,22 L22,22 L22,2 Z M9.23663562,11.9999 L15.8409212,18.1379 C16.0434512,18.3259 16.0544801,18.6419 15.8659868,18.8439 C15.7677296,18.9499 15.6333779,19.0029 15.4990263,19.0029 C15.3767062,19.0029 15.254386,18.9589 15.1571315,18.8689 L8.15981725,12.3659 C8.05754958,12.2709 8.0004,12.1389 8.0004,11.9999 C8.0004,11.8609 8.05754958,11.7289 8.15981725,11.6339 L15.1571315,5.1339 C15.3596615,4.9459 15.6774934,4.9579 15.8659868,5.1589 C16.0544801,5.3609 16.0434512,5.6779 15.8409212,5.8659 L9.23663562,11.9999 Z M35.7641644,11.9999 L29.1598788,5.8659 C28.9573488,5.6779 28.9463199,5.3609 29.1348132,5.1589 C29.3233066,4.9579 29.6411385,4.9459 29.8436685,5.1339 L36.8409828,11.6339 C36.9432504,11.7289 37.0004,11.8609 37.0004,11.9999 C37.0004,12.1389 36.9432504,12.2709 36.8409828,12.3659 L29.8436685,18.8689 C29.746414,18.9589 29.6240938,19.0029 29.5017737,19.0029 C29.3674221,19.0029 29.2330704,18.9499 29.1348132,18.8439 C28.9463199,18.6419 28.9573488,18.3259 29.1598788,18.1379 L35.7641644,11.9999 Z" id="back-forward-button_24" fill="#00090D"></path>
    </g>
</svg>