<?xml version="1.0" encoding="UTF-8"?>
<svg width="18px" height="18px" viewBox="0 0 18 18" version="1.1" xmlns="http://www.w3.org/2000/svg" xmlns:xlink="http://www.w3.org/1999/xlink">
    <!-- Generator: Sketch 60.1 (88133) - https://sketch.com -->
    <title>Action/bookmark/bookmark_18</title>
    <desc>Created with Sketch.</desc>
    <g id="Action/bookmark/bookmark_18" stroke="none" stroke-width="1" fill="none" fill-rule="evenodd">
        <path d="M14,0 L4,0 C2.896,0 2,0.904 2,2.02 L2,16.988 C2,17.611 2.5,18 3.01,18 C3.31,18 3.612,17.866 3.819,17.567 L9,12 L14.181,17.567 C14.388,17.866 14.69,18 14.99,18 C15.5,18 16,17.61 16,16.988 L16,2.02 C16,0.904 15.104,0 14,0 M14,1 C14.551,1 15,1.457 15,2.02 L15.002,16.998 L14.962,16.938 L14.913,16.887 L9.915,11.516 C9.68,11.263 9.346,11 9,11 C8.654,11 8.32,11.263 8.085,11.516 L3.087,16.887 L3.041,16.93 L3,16.988 L3,2.02 C3,1.457 3.449,1 4,1 L14,1" id="bookmark_18" fill="#00090D"></path>
    </g>
</svg>