<?xml version="1.0" encoding="UTF-8"?>
<svg width="16px" height="16px" viewBox="0 0 16 16" version="1.1" xmlns="http://www.w3.org/2000/svg" xmlns:xlink="http://www.w3.org/1999/xlink">
    <!-- Generator: Sketch 60.1 (88133) - https://sketch.com -->
    <title>Action/bookmark/bookmark-filled_16</title>
    <desc>Created with Sketch.</desc>
    <g id="Action/bookmark/bookmark-filled_16" stroke="none" stroke-width="1" fill="none" fill-rule="evenodd">
        <path d="M12.997,15.9995174 C12.723,15.9995174 12.456,15.8865208 12.262,15.6745272 C12.262,15.6745272 12.262,15.6735272 12.261,15.6735272 L7.996,10.9956683 L3.738,15.6735272 C3.456,15.980518 3.025,16.0815149 2.637,15.9315195 C2.25,15.780524 2,15.4145351 2,14.9995476 L2,1.99993968 C2,0.896972945 2.896,0 4,0 L12,0 C13.103,0 14,0.896972945 14,1.99993968 L14,14.9995476 C14,15.4145351 13.749,15.780524 13.362,15.9315195 C13.242,15.9775181 13.119,15.9995174 12.997,15.9995174 Z" id="bookmark-filled_16" fill="#00090D"></path>
    </g>
</svg>