<?xml version="1.0" encoding="UTF-8"?>
<svg width="16px" height="16px" viewBox="0 0 16 16" version="1.1" xmlns="http://www.w3.org/2000/svg" xmlns:xlink="http://www.w3.org/1999/xlink">
    <!-- Generator: Sketch 60.1 (88133) - https://sketch.com -->
    <title>Networking / building / building-filled_16</title>
    <desc>Created with Sketch.</desc>
    <g id="Networking-/-building-/-building-filled_16" stroke="none" stroke-width="1" fill="none" fill-rule="evenodd">
        <path d="M14,1.46674975 C15.1045695,1.46674975 16,2.36218025 16,3.46674975 L16,13 C16,14.1045695 15.1045695,15 14,15 L7.5,15 C7.22385763,15 7,14.7761424 7,14.5 L7,8.50469023 C7,8.22854785 6.77614237,8.00469023 6.5,8.00469023 L4.5,8.00469023 C4.22385763,8.00469023 4,8.22854785 4,8.50469023 L4,14.5 C4,14.7761424 3.77614237,15 3.5,15 L2,15 C0.8954305,15 0,14.1045695 0,13 L0,5.57970661 C0,4.63448499 0.66173481,3.81831789 1.58653754,3.62291107 L13.5865375,1.50995421 C13.7224834,1.48122943 13.8610526,1.46674975 14,1.46674975 Z M11,7 L10,7 L10,8 L11,8 L11,7 Z M13,7 L12,7 L12,8 L13,8 L13,7 Z M11,5 L10,5 L10,6 L11,6 L11,5 Z M13,5 L12,5 L12,6 L13,6 L13,5 Z" id="building-filled_16" fill="#00090D"></path>
    </g>
</svg>