<?xml version="1.0" encoding="UTF-8"?>
<svg width="24px" height="24px" viewBox="0 0 24 24" version="1.1" xmlns="http://www.w3.org/2000/svg" xmlns:xlink="http://www.w3.org/1999/xlink">
    <!-- Generator: Sketch 60.1 (88133) - https://sketch.com -->
    <title>Networking / building / building_24</title>
    <desc>Created with Sketch.</desc>
    <g id="Networking-/-building-/-building_24" stroke="none" stroke-width="1" fill="none" fill-rule="evenodd">
        <path d="M5.50021305,21.9935502 L2,21.9976534 L2,21.9976534 C0.8954305,21.9976534 0,21.1022229 0,19.9976534 L0,8.07410063 C0,7.12196078 0.67123475,6.30182717 1.60457988,6.11357955 L21.6045799,2.48313549 C21.7347491,2.45688147 21.8672095,2.44365657 22,2.44365657 C23.1045695,2.44365657 24,3.33908707 24,4.44365657 L24,20 C24,21.1045695 23.1045695,22 22,22 L11.5,22 C11.2238576,22 11,21.7761424 11,21.5 L11,12.5063324 L11,12.5063324 C11,12.2304647 10.7765709,12.006721 10.5007035,12.0063328 L6.49962691,12.000704 C6.22348454,12.000704 5.99962691,12.2245616 5.99962691,12.500704 L5.99962691,21.4935505 C5.99962691,21.769464 5.77612636,21.9932267 5.50021305,21.9935502 Z M12,21 L22,21 C22.5522847,21 23,20.5522847 23,20 L23,4.44365657 C23,3.89137182 22.5522847,3.44365657 22,3.44365657 C21.9336048,3.44365657 21.8673746,3.45026902 21.8022899,3.46339603 L1.80228994,7.09384009 C1.33561738,7.1879639 1,7.59803071 1,8.07410063 L1,19.9976534 C1,20.5499381 1.44771525,20.9976534 2.00117263,20.9976527 L4.99962691,20.9941366 L4.99962691,12.500704 C4.99962691,11.6722769 5.67119979,11.000704 6.50173736,11.0007055 L10.5021104,11.0063338 C11.3297127,11.0074982 12,11.6787293 12,12.5063324 L12,21 Z M15,7 L17,7 L17,9 L15,9 L15,7 Z M18,7 L20,7 L20,9 L18,9 L18,7 Z M15,10 L17,10 L17,12 L15,12 L15,10 Z M18,10 L20,10 L20,12 L18,12 L18,10 Z" id="building_24" fill="#00090D"></path>
    </g>
</svg>