<?xml version="1.0" encoding="UTF-8"?>
<svg width="24px" height="24px" viewBox="0 0 24 24" version="1.1" xmlns="http://www.w3.org/2000/svg" xmlns:xlink="http://www.w3.org/1999/xlink">
    <!-- Generator: Sketch 60.1 (88133) - https://sketch.com -->
    <title>Tools / CAA-cloud / CAA-cloud_24</title>
    <desc>Created with Sketch.</desc>
    <g id="Tools-/-CAA-cloud-/-CAA-cloud_24" stroke="none" stroke-width="1" fill="none" fill-rule="evenodd">
        <path d="M15.6423662,14 L14.9149336,13 L15.9375,13 C18.1680393,13 20,11.1001889 20,8.75 C20,6.48163932 18.2871068,4.61885197 16.1445921,4.50560601 L15.4676737,4.46982643 L15.2502237,3.82778732 C14.6755221,2.13093289 13.1478849,1 11.4375,1 C9.33722083,1 7.58175826,2.68726001 7.39628566,4.90966663 L7.33742695,5.61493507 L6.6527273,5.79397222 C5.11557399,6.19591129 4,7.66579655 4,9.33333333 C4,11.3626889 5.57883575,13 7.5,13 L9.08506636,13 L8.35763376,14 L7.5,14 C5.01825,14 3,11.907 3,9.33333333 C3,7.20066667 4.432125,5.341 6.39975,4.8265 C6.627,2.1035 8.799375,0 11.4375,0 C13.594125,0 15.490875,1.421 16.197375,3.507 C18.868125,3.64816667 21,5.9465 21,8.75 C21,11.6445 18.728625,14 15.9375,14 L15.6423662,14 Z M10,18 L8,18 C7.60065231,18 7.36245661,17.5549273 7.58397485,17.2226499 L11.5839749,11.2226499 C11.7818859,10.9257834 12.2181141,10.9257834 12.4160251,11.2226499 L16.4160251,17.2226499 C16.6375434,17.5549273 16.3993477,18 16,18 L14,18 L14,23.5 C14,23.7761424 13.7761424,24 13.5,24 L10.5,24 C10.2238576,24 10,23.7761424 10,23.5 L10,18 Z M15.0657415,17 L12,12.4013878 L8.93425855,17 L10.5,17 C10.7761424,17 11,17.2238576 11,17.5 L11,23 L13,23 L13,17.5 C13,17.2238576 13.2238576,17 13.5,17 L15.0657415,17 Z" id="CAA-cloud_24" fill="#00090D"></path>
    </g>
</svg>