<?xml version="1.0" encoding="UTF-8"?>
<svg width="24px" height="24px" viewBox="0 0 24 24" version="1.1" xmlns="http://www.w3.org/2000/svg" xmlns:xlink="http://www.w3.org/1999/xlink">
    <!-- Generator: Sketch 60.1 (88133) - https://sketch.com -->
    <title>Tools / CAA-cloud / CAA-cloud-filled_24</title>
    <desc>Created with Sketch.</desc>
    <g id="Tools-/-CAA-cloud-/-CAA-cloud-filled_24" stroke="none" stroke-width="1" fill="none" fill-rule="evenodd">
        <path d="M15.6423662,14 L12.8086746,10.1045303 C12.4837896,9.65791165 11.8583624,9.55922701 11.4117437,9.88411196 C11.3272009,9.94561122 11.2528247,10.0199874 11.1913254,10.1045303 L8.35763376,14 L7.5,14 C5.01825,14 3,11.907 3,9.33333333 C3,7.20066667 4.432125,5.341 6.39975,4.8265 C6.627,2.1035 8.799375,0 11.4375,0 C13.594125,0 15.490875,1.421 16.197375,3.507 C18.868125,3.64816667 21,5.9465 21,8.75 C21,11.6445 18.728625,14 15.9375,14 L15.6423662,14 Z M10,18 L8,18 C7.60065231,18 7.36245661,17.5549273 7.58397485,17.2226499 L11.5839749,11.2226499 C11.7818859,10.9257834 12.2181141,10.9257834 12.4160251,11.2226499 L16.4160251,17.2226499 C16.6375434,17.5549273 16.3993477,18 16,18 L14,18 L14,23.5 C14,23.7761424 13.7761424,24 13.5,24 L10.5,24 C10.2238576,24 10,23.7761424 10,23.5 L10,18 Z" id="CAA-cloud-filled_24" fill="#00090D"></path>
    </g>
</svg>