<?xml version="1.0" encoding="UTF-8"?>
<svg width="18px" height="18px" viewBox="0 0 18 18" version="1.1" xmlns="http://www.w3.org/2000/svg" xmlns:xlink="http://www.w3.org/1999/xlink">
    <!-- Generator: Sketch 60.1 (88133) - https://sketch.com -->
    <title>Action/calendar/calendar_18</title>
    <desc>Created with Sketch.</desc>
    <g id="Action/calendar/calendar_18" stroke="none" stroke-width="1" fill="none" fill-rule="evenodd">
        <path d="M13.5,0 C13.775,0 14,0.226 14,0.5 L14,0.5 L14,2 L15.5,2 C16.881,2 18,3.119 18,4.5 L18,4.5 L18,15.5 C18,16.882 16.881,18 15.5,18 L15.5,18 L2.5,18 C1.119,18 0,16.882 0,15.5 L0,15.5 L0,4.5 C0,3.119 1.119,2 2.5,2 L2.5,2 L4,2 L4,0.5 C4,0.226 4.225,0 4.5,0 C4.775,0 5,0.226 5,0.5 L5,0.5 L5,2 L13,2 L13,0.5 C13,0.226 13.225,0 13.5,0 Z M15.5,3 L2.5,3 C1.673,3 1,3.673 1,4.5 L1,4.5 L1,15.5 C1,16.327 1.673,17 2.5,17 L2.5,17 L15.5,17 C16.327,17 17,16.327 17,15.5 L17,15.5 L17,4.5 C17,3.673 16.327,3 15.5,3 L15.5,3 Z M4.5,13 C4.77614237,13 5,13.2238576 5,13.5 C5,13.7761424 4.77614237,14 4.5,14 C4.22385763,14 4,13.7761424 4,13.5 C4,13.2238576 4.22385763,13 4.5,13 Z M13.5,13 C13.7761424,13 14,13.2238576 14,13.5 C14,13.7761424 13.7761424,14 13.5,14 C13.2238576,14 13,13.7761424 13,13.5 C13,13.2238576 13.2238576,13 13.5,13 Z M9,13 C9.27614237,13 9.5,13.2238576 9.5,13.5 C9.5,13.7761424 9.27614237,14 9,14 C8.72385763,14 8.5,13.7761424 8.5,13.5 C8.5,13.2238576 8.72385763,13 9,13 Z M4.5,9.5 C4.77614237,9.5 5,9.72385763 5,10 C5,10.2761424 4.77614237,10.5 4.5,10.5 C4.22385763,10.5 4,10.2761424 4,10 C4,9.72385763 4.22385763,9.5 4.5,9.5 Z M13.5,9.5 C13.7761424,9.5 14,9.72385763 14,10 C14,10.2761424 13.7761424,10.5 13.5,10.5 C13.2238576,10.5 13,10.2761424 13,10 C13,9.72385763 13.2238576,9.5 13.5,9.5 Z M9,9.5 C9.27614237,9.5 9.5,9.72385763 9.5,10 C9.5,10.2761424 9.27614237,10.5 9,10.5 C8.72385763,10.5 8.5,10.2761424 8.5,10 C8.5,9.72385763 8.72385763,9.5 9,9.5 Z M4.5,6 C4.77614237,6 5,6.22385763 5,6.5 C5,6.77614237 4.77614237,7 4.5,7 C4.22385763,7 4,6.77614237 4,6.5 C4,6.22385763 4.22385763,6 4.5,6 Z M13.5,6 C13.7761424,6 14,6.22385763 14,6.5 C14,6.77614237 13.7761424,7 13.5,7 C13.2238576,7 13,6.77614237 13,6.5 C13,6.22385763 13.2238576,6 13.5,6 Z M9,6 C9.27614237,6 9.5,6.22385763 9.5,6.5 C9.5,6.77614237 9.27614237,7 9,7 C8.72385763,7 8.5,6.77614237 8.5,6.5 C8.5,6.22385763 8.72385763,6 9,6 Z" id="calendar_18" fill="#00090D"></path>
    </g>
</svg>