<?xml version="1.0" encoding="UTF-8"?>
<svg width="16px" height="16px" viewBox="0 0 16 16" version="1.1" xmlns="http://www.w3.org/2000/svg" xmlns:xlink="http://www.w3.org/1999/xlink">
    <!-- Generator: Sketch 60.1 (88133) - https://sketch.com -->
    <title>Action/calendar/calendar_16</title>
    <desc>Created with Sketch.</desc>
    <g id="Action/calendar/calendar_16" stroke="none" stroke-width="1" fill="none" fill-rule="evenodd">
        <path d="M14,2 C15.104,2 16,2.895 16,4 L16,14 C16,15.105 15.104,16 14,16 L2,16 C0.896,16 0,15.105 0,14 L0,4 C0,2.895 0.896,2 2,2 L4,2 L4,0.5 C4,0.225 4.225,0 4.5,0 C4.775,0 5,0.225 5,0.5 L5,2 L11,2 L11,0.5 C11,0.225 11.225,0 11.5,0 C11.775,0 12,0.225 12,0.5 L12,2 L14,2 Z M15,14 L15,4 C15,3.449 14.552,3 14,3 L2,3 C1.448,3 1,3.449 1,4 L1,14 C1,14.551 1.448,15 2,15 L14,15 C14.552,15 15,14.551 15,14 Z M8,9.5 C7.72385763,9.5 7.5,9.27614237 7.5,9 C7.5,8.72385763 7.72385763,8.5 8,8.5 C8.27614237,8.5 8.5,8.72385763 8.5,9 C8.5,9.27614237 8.27614237,9.5 8,9.5 Z M4.5,9.5 C4.22385763,9.5 4,9.27614237 4,9 C4,8.72385763 4.22385763,8.5 4.5,8.5 C4.77614237,8.5 5,8.72385763 5,9 C5,9.27614237 4.77614237,9.5 4.5,9.5 Z M11.5,9.5 C11.2238576,9.5 11,9.27614237 11,9 C11,8.72385763 11.2238576,8.5 11.5,8.5 C11.7761424,8.5 12,8.72385763 12,9 C12,9.27614237 11.7761424,9.5 11.5,9.5 Z M8,7 C7.72385763,7 7.5,6.77614237 7.5,6.5 C7.5,6.22385763 7.72385763,6 8,6 C8.27614237,6 8.5,6.22385763 8.5,6.5 C8.5,6.77614237 8.27614237,7 8,7 Z M4.5,7 C4.22385763,7 4,6.77614237 4,6.5 C4,6.22385763 4.22385763,6 4.5,6 C4.77614237,6 5,6.22385763 5,6.5 C5,6.77614237 4.77614237,7 4.5,7 Z M11.5,7 C11.2238576,7 11,6.77614237 11,6.5 C11,6.22385763 11.2238576,6 11.5,6 C11.7761424,6 12,6.22385763 12,6.5 C12,6.77614237 11.7761424,7 11.5,7 Z M8,12 C7.72385763,12 7.5,11.7761424 7.5,11.5 C7.5,11.2238576 7.72385763,11 8,11 C8.27614237,11 8.5,11.2238576 8.5,11.5 C8.5,11.7761424 8.27614237,12 8,12 Z M4.5,12 C4.22385763,12 4,11.7761424 4,11.5 C4,11.2238576 4.22385763,11 4.5,11 C4.77614237,11 5,11.2238576 5,11.5 C5,11.7761424 4.77614237,12 4.5,12 Z M11.5,12 C11.2238576,12 11,11.7761424 11,11.5 C11,11.2238576 11.2238576,11 11.5,11 C11.7761424,11 12,11.2238576 12,11.5 C12,11.7761424 11.7761424,12 11.5,12 Z" id="calendar_16" fill="#00090D"></path>
    </g>
</svg>