<?xml version="1.0" encoding="UTF-8"?>
<svg width="24px" height="24px" viewBox="0 0 24 24" version="1.1" xmlns="http://www.w3.org/2000/svg" xmlns:xlink="http://www.w3.org/1999/xlink">
    <!-- Generator: Sketch 60.1 (88133) - https://sketch.com -->
    <title>Action/calendar/calendar_24</title>
    <desc>Created with Sketch.</desc>
    <g id="Action/calendar/calendar_24" stroke="none" stroke-width="1" fill="none" fill-rule="evenodd">
        <path d="M17.5,1 C17.776,1 18,1.224 18,1.5 L18,1.5 L18,3 L20.5,3 C21.881,3 23,4.119 23,5.5 L23,5.5 L23,20.5 C23,21.881 21.881,23 20.5,23 L20.5,23 L3.5,23 C2.119,23 1,21.881 1,20.5 L1,20.5 L1,5.5 C1,4.119 2.119,3 3.5,3 L3.5,3 L6,3 L6,1.5 C6,1.224 6.224,1 6.5,1 C6.776,1 7,1.224 7,1.5 L7,1.5 L7,3 L17,3 L17,1.5 C17,1.224 17.224,1 17.5,1 Z M20.5,4 L3.5,4 C2.673,4 2,4.673 2,5.5 L2,5.5 L2,20.5 C2,21.327 2.673,22 3.5,22 L3.5,22 L20.5,22 C21.327,22 22,21.327 22,20.5 L22,20.5 L22,5.5 C22,4.673 21.327,4 20.5,4 L20.5,4 Z M12,17 C12.2761424,17 12.5,17.2238576 12.5,17.5 C12.5,17.7761424 12.2761424,18 12,18 C11.7238576,18 11.5,17.7761424 11.5,17.5 C11.5,17.2238576 11.7238576,17 12,17 Z M6.5,17 C6.77614237,17 7,17.2238576 7,17.5 C7,17.7761424 6.77614237,18 6.5,18 C6.22385763,18 6,17.7761424 6,17.5 C6,17.2238576 6.22385763,17 6.5,17 Z M17.5,17 C17.7761424,17 18,17.2238576 18,17.5 C18,17.7761424 17.7761424,18 17.5,18 C17.2238576,18 17,17.7761424 17,17.5 C17,17.2238576 17.2238576,17 17.5,17 Z M12,12.5 C12.2761424,12.5 12.5,12.7238576 12.5,13 C12.5,13.2761424 12.2761424,13.5 12,13.5 C11.7238576,13.5 11.5,13.2761424 11.5,13 C11.5,12.7238576 11.7238576,12.5 12,12.5 Z M6.5,12.5 C6.77614237,12.5 7,12.7238576 7,13 C7,13.2761424 6.77614237,13.5 6.5,13.5 C6.22385763,13.5 6,13.2761424 6,13 C6,12.7238576 6.22385763,12.5 6.5,12.5 Z M17.5,12.5 C17.7761424,12.5 18,12.7238576 18,13 C18,13.2761424 17.7761424,13.5 17.5,13.5 C17.2238576,13.5 17,13.2761424 17,13 C17,12.7238576 17.2238576,12.5 17.5,12.5 Z M12,8 C12.2761424,8 12.5,8.22385763 12.5,8.5 C12.5,8.77614237 12.2761424,9 12,9 C11.7238576,9 11.5,8.77614237 11.5,8.5 C11.5,8.22385763 11.7238576,8 12,8 Z M6.5,8 C6.77614237,8 7,8.22385763 7,8.5 C7,8.77614237 6.77614237,9 6.5,9 C6.22385763,9 6,8.77614237 6,8.5 C6,8.22385763 6.22385763,8 6.5,8 Z M17.5,8 C17.7761424,8 18,8.22385763 18,8.5 C18,8.77614237 17.7761424,9 17.5,9 C17.2238576,9 17,8.77614237 17,8.5 C17,8.22385763 17.2238576,8 17.5,8 Z" id="calendar_24" fill="#00090D"></path>
    </g>
</svg>