<?xml version="1.0" encoding="UTF-8"?>
<svg width="16px" height="16px" viewBox="0 0 16 16" version="1.1" xmlns="http://www.w3.org/2000/svg" xmlns:xlink="http://www.w3.org/1999/xlink">
    <!-- Generator: Sketch 60.1 (88133) - https://sketch.com -->
    <title>Action / caps-lock_16</title>
    <desc>Created with Sketch.</desc>
    <g id="Action-/-caps-lock_16" stroke="none" stroke-width="1" fill="none" fill-rule="evenodd">
        <path d="M14,0 C14.5522847,-1.01453063e-16 15,0.44771525 15,1 L15,15 C15,15.5522847 14.5522847,16 14,16 L2,16 C1.44771525,16 1,15.5522847 1,15 L1,1 C1,0.44771525 1.44771525,1.01453063e-16 2,0 L14,0 Z M9.75,12 L6.25,12 C6.11192881,12 6,12.1119288 6,12.25 L6,12.25 L6,13.75 C6,13.8880712 6.11192881,14 6.25,14 L6.25,14 L9.75,14 C9.88807119,14 10,13.8880712 10,13.75 L10,13.75 L10,12.25 C10,12.1119288 9.88807119,12 9.75,12 L9.75,12 Z M8.35355339,2.69669914 C8.15829124,2.501437 7.84170876,2.501437 7.64644661,2.69669914 L7.64644661,2.69669914 L3.19669914,7.14644661 C3.10293095,7.2402148 3.05025253,7.36739176 3.05025253,7.5 C3.05025253,7.77614237 3.27411016,8 3.55025253,8 L3.55025253,8 L5.99925253,7.99925253 L6,10.75 C6,10.8880712 6.11192881,11 6.25,11 L6.25,11 L9.75,11 C9.88807119,11 10,10.8880712 10,10.75 L10,10.75 L9.99925253,7.99925253 L12.4497475,8 C12.5823557,8 12.7095327,7.94732158 12.8033009,7.85355339 C12.998563,7.65829124 12.998563,7.34170876 12.8033009,7.14644661 L12.8033009,7.14644661 Z" id="caps-lock_16" fill="#00090D"></path>
    </g>
</svg>