<?xml version="1.0" encoding="UTF-8"?>
<svg width="16px" height="16px" viewBox="0 0 16 16" version="1.1" xmlns="http://www.w3.org/2000/svg" xmlns:xlink="http://www.w3.org/1999/xlink">
    <!-- Generator: Sketch 60.1 (88133) - https://sketch.com -->
    <title>Navigation / card-view_16</title>
    <desc>Created with Sketch.</desc>
    <g id="Navigation-/-card-view_16" stroke="none" stroke-width="1" fill="none" fill-rule="evenodd">
        <path d="M2,1 L6,1 C6.55228475,1 7,1.44771525 7,2 L7,5 C7,5.55228475 6.55228475,6 6,6 L2,6 C1.44771525,6 1,5.55228475 1,5 L1,2 C1,1.44771525 1.44771525,1 2,1 Z M2,7 L6,7 C6.55228475,7 7,7.44771525 7,8 L7,11 C7,11.5522847 6.55228475,12 6,12 L2,12 C1.44771525,12 1,11.5522847 1,11 L1,8 C1,7.44771525 1.44771525,7 2,7 Z M2,8 L2,11 L6,11 L6,8 L2,8 Z M10,7 L14,7 C14.5522847,7 15,7.44771525 15,8 L15,11 C15,11.5522847 14.5522847,12 14,12 L10,12 C9.44771525,12 9,11.5522847 9,11 L9,8 C9,7.44771525 9.44771525,7 10,7 Z M10,1 L14,1 C14.5522847,1 15,1.44771525 15,2 L15,5 C15,5.55228475 14.5522847,6 14,6 L10,6 C9.44771525,6 9,5.55228475 9,5 L9,2 C9,1.44771525 9.44771525,1 10,1 Z M10,2 L10,5 L14,5 L14,2 L10,2 Z M1.5,15 C1.22385763,15 1,14.7761424 1,14.5 C1,14.2238576 1.22385763,14 1.5,14 L14.5,14 C14.7761424,14 15,14.2238576 15,14.5 C15,14.7761424 14.7761424,15 14.5,15 L1.5,15 Z" id="card-view_16" fill="#00090D"></path>
    </g>
</svg>