<?xml version="1.0" encoding="UTF-8"?>
<svg width="16px" height="16px" viewBox="0 0 16 16" version="1.1" xmlns="http://www.w3.org/2000/svg" xmlns:xlink="http://www.w3.org/1999/xlink">
    <!-- Generator: Sketch 60.1 (88133) - https://sketch.com -->
    <title>Networking/Endpoints/card-reader/card-reader-filled_16</title>
    <desc>Created with Sketch.</desc>
    <g id="Networking/Endpoints/card-reader/card-reader-filled_16" stroke="none" stroke-width="1" fill="none" fill-rule="evenodd">
        <path d="M15.5,0 C15.7761424,0 16,0.223857625 16,0.5 L16,2.5 C16,2.77614237 15.7761424,3 15.5,3 L14,3 L14,14.8 C14,15.4627417 13.4963203,16 12.875,16 L3.125,16 C2.50367966,16 2,15.4627417 2,14.8 L2,3 L0.5,3 C0.223857625,3 0,2.77614237 0,2.5 L0,0.5 C0,0.223857625 0.223857625,0 0.5,0 L15.5,0 Z M9.5,11 C9.22385763,11 9,11.1678932 9,11.375 L9,11.375 L9,13.625 C9,13.8321068 9.22385763,14 9.5,14 C9.77614237,14 10,13.8321068 10,13.625 L10,13.625 L10,11.375 C10,11.1678932 9.77614237,11 9.5,11 Z M7,10 L4,10 L4,14 L7,14 L7,10 Z M11.5,7 C11.2238576,7 11,7.16789322 11,7.375 L11,7.375 L11,12.625 C11,12.8321068 11.2238576,13 11.5,13 C11.7761424,13 12,12.8321068 12,12.625 L12,12.625 L12,7.375 C12,7.16789322 11.7761424,7 11.5,7 Z M6,11 L6,13 L5,13 L5,11 L6,11 Z M9.5,7 C9.22385763,7 9,7.16789322 9,7.375 L9,7.375 L9,9.625 C9,9.83210678 9.22385763,10 9.5,10 C9.77614237,10 10,9.83210678 10,9.625 L10,9.625 L10,7.375 C10,7.16789322 9.77614237,7 9.5,7 Z M9.5,2 C9.22385763,2 9,2.16789322 9,2.375 L9,2.375 L9,4.625 C9,4.83210678 9.22385763,5 9.5,5 C9.77614237,5 10,4.83210678 10,4.625 L10,4.625 L10,2.375 C10,2.16789322 9.77614237,2 9.5,2 Z M14,1 L14,2 L15,2 L15,1 L14,1 Z M2,2 L2,1 L1,1 L1,2 L2,2 Z" id="card-reader-filled_16" fill="#00090D"></path>
    </g>
</svg>