<?xml version="1.0" encoding="UTF-8"?>
<svg width="24px" height="24px" viewBox="0 0 24 24" version="1.1" xmlns="http://www.w3.org/2000/svg" xmlns:xlink="http://www.w3.org/1999/xlink">
    <!-- Generator: Sketch 60.1 (88133) - https://sketch.com -->
    <title>Networking/Endpoints/card-reader/card-reader-filled_24</title>
    <desc>Created with Sketch.</desc>
    <g id="Networking/Endpoints/card-reader/card-reader-filled_24" stroke="none" stroke-width="1" fill="none" fill-rule="evenodd">
        <path d="M22.5,1 C22.7761424,1 23,1.22385763 23,1.5 L23,5.5 C23,5.77614237 22.7761424,6 22.5,6 L20,6 L20,21.5 C20,22.3284271 19.3284271,23 18.5,23 L5.5,23 C4.67157288,23 4,22.3284271 4,21.5 L4,6 L1.5,6 C1.22385763,6 1,5.77614237 1,5.5 L1,1.5 C1,1.22385763 1.22385763,1 1.5,1 L22.5,1 Z M14.5,16 C14.2238576,16 14,16.2238576 14,16.5 L14,16.5 L14,19.5 C14,19.7761424 14.2238576,20 14.5,20 C14.7761424,20 15,19.7761424 15,19.5 L15,19.5 L15,16.5 C15,16.2238576 14.7761424,16 14.5,16 Z M11,15 L7,15 L7,20 L11,20 L11,15 Z M16.5,11 C16.2238576,11 16,11.2238576 16,11.5 L16,11.5 L16,18.5 C16,18.7761424 16.2238576,19 16.5,19 C16.7761424,19 17,18.7761424 17,18.5 L17,18.5 L17,11.5 C17,11.2238576 16.7761424,11 16.5,11 Z M10,16 L10,19 L8,19 L8,16 L10,16 Z M14.5,11 C14.2238576,11 14,11.2238576 14,11.5 L14,11.5 L14,14.5 C14,14.7761424 14.2238576,15 14.5,15 C14.7761424,15 15,14.7761424 15,14.5 L15,14.5 L15,11.5 C15,11.2238576 14.7761424,11 14.5,11 Z M14.5,5 C14.2238576,5 14,5.22385763 14,5.5 L14,5.5 L14,8.5 C14,8.77614237 14.2238576,9 14.5,9 C14.7761424,9 15,8.77614237 15,8.5 L15,8.5 L15,5.5 C15,5.22385763 14.7761424,5 14.5,5 Z M4,2 L2,2 L2,5 L4,5 L4,2 Z M22,2 L20,2 L20,5 L22,5 L22,2 Z" id="card-reader-filled_24" fill="#00090D"></path>
    </g>
</svg>