<?xml version="1.0" encoding="UTF-8"?>
<svg width="24px" height="24px" viewBox="0 0 24 24" version="1.1" xmlns="http://www.w3.org/2000/svg" xmlns:xlink="http://www.w3.org/1999/xlink">
    <!-- Generator: Sketch 60.1 (88133) - https://sketch.com -->
    <title>Topology/Endpoints/card-reader/card-reader-topology_24</title>
    <desc>Created with Sketch.</desc>
    <g id="Topology/Endpoints/card-reader/card-reader-topology_24" stroke="none" stroke-width="1" fill="none" fill-rule="evenodd">
        <path d="M22.5,1 C22.7761424,1 23,1.22385763 23,1.5 L23,5.5 C23,5.77614237 22.7761424,6 22.5,6 L20,6 L20,21.5 C20,22.3284271 19.3284271,23 18.5,23 L5.5,23 C4.67157288,23 4,22.3284271 4,21.5 L4,6 L1.5,6 C1.22385763,6 1,5.77614237 1,5.5 L1,1.5 C1,1.22385763 1.22385763,1 1.5,1 L22.5,1 Z" id="secondary-color" fill="#FFA000"></path>
        <path d="M20,2 L20,5 L22,5 L22,2 L20,2 Z M20,6 L20,21.5 C20,22.3284271 19.3284271,23 18.5,23 L5.5,23 C4.67157288,23 4,22.3284271 4,21.5 L4,6 L1.5,6 C1.22385763,6 1,5.77614237 1,5.5 L1,1.5 C1,1.22385763 1.22385763,1 1.5,1 L22.5,1 C22.7761424,1 23,1.22385763 23,1.5 L23,5.5 C23,5.77614237 22.7761424,6 22.5,6 L20,6 Z M4,5 L4,2 L2,2 L2,5 L4,5 Z M5,2 L5,21.5 C5,21.7761424 5.22385763,22 5.5,22 L18.5,22 C18.7761424,22 19,21.7761424 19,21.5 L19,2 L5,2 Z M15,19.5 C15,19.7761424 14.7761424,20 14.5,20 C14.2238576,20 14,19.7761424 14,19.5 L14,16.5 C14,16.2238576 14.2238576,16 14.5,16 C14.7761424,16 15,16.2238576 15,16.5 L15,19.5 Z M17,18.5 C17,18.7761424 16.7761424,19 16.5,19 C16.2238576,19 16,18.7761424 16,18.5 L16,11.5 C16,11.2238576 16.2238576,11 16.5,11 C16.7761424,11 17,11.2238576 17,11.5 L17,18.5 Z M15,14.5 C15,14.7761424 14.7761424,15 14.5,15 C14.2238576,15 14,14.7761424 14,14.5 L14,11.5 C14,11.2238576 14.2238576,11 14.5,11 C14.7761424,11 15,11.2238576 15,11.5 L15,14.5 Z M15,8.5 C15,8.77614237 14.7761424,9 14.5,9 C14.2238576,9 14,8.77614237 14,8.5 L14,5.5 C14,5.22385763 14.2238576,5 14.5,5 C14.7761424,5 15,5.22385763 15,5.5 L15,8.5 Z M8,19 L10,19 L10,16 L8,16 L8,19 Z M11,15 L11,20 L7,20 L7,15 L11,15 Z" id="card-reader-topology_24" fill="#00090D"></path>
    </g>
</svg>