<?xml version="1.0" encoding="UTF-8"?>
<svg width="16px" height="16px" viewBox="0 0 16 16" version="1.1" xmlns="http://www.w3.org/2000/svg" xmlns:xlink="http://www.w3.org/1999/xlink">
    <!-- Generator: Sketch 60.1 (88133) - https://sketch.com -->
    <title>Action / cart_16</title>
    <desc>Created with Sketch.</desc>
    <g id="Action-/-cart_16" stroke="none" stroke-width="1" fill="none" fill-rule="evenodd">
        <path d="M14.3800428,2 L13.0796146,6.68154169 L12.1893661,10.2425356 C12.150334,10.398664 12.0757918,10.538449 11.9756533,10.65415 C11.8955541,10.9019207 11.6376486,11.0469851 11.3840914,10.9863863 C11.3302896,10.9953536 11.2751946,11 11.2192236,11 L2.78077641,11 C2.32190876,11 1.92192566,10.6877026 1.81063391,10.2425356 L0.310633906,4.24253563 C0.176685179,3.70674072 0.502445873,3.16380623 1.03824078,3.0298575 C1.11756139,3.01002735 1.1990146,3 1.28077641,3 L12.7192236,3 C12.8347546,3 12.9457096,3.01959172 13.0489477,3.05563405 L13.5153131,1.37671852 C13.5249201,1.33883258 13.5388523,1.30267124 13.5565534,1.26879088 C13.5896716,1.20511654 13.6355322,1.15062841 13.6899632,1.1076846 C13.746613,1.06207325 13.8179048,1.02736738 13.8959116,1.0108496 C13.9332936,1.00286211 13.9718645,0.99911652 14.0109396,1 L15.5,1 C15.7761424,1 16,1.22385763 16,1.5 C16,1.77614237 15.7761424,2 15.5,2 L14.3800428,2 Z M12.1126214,6.42640894 L12.7192236,4 L1.28077641,4 L2.78077641,10 L11.1199572,10 L12.1126214,6.42640894 Z M3.5,15 C2.67157288,15 2,14.3284271 2,13.5 C2,12.6715729 2.67157288,12 3.5,12 C4.32842712,12 5,12.6715729 5,13.5 C5,14.3284271 4.32842712,15 3.5,15 Z M10.5,15 C9.67157288,15 9,14.3284271 9,13.5 C9,12.6715729 9.67157288,12 10.5,12 C11.3284271,12 12,12.6715729 12,13.5 C12,14.3284271 11.3284271,15 10.5,15 Z" id="cart_16" fill="#00090D"></path>
    </g>
</svg>