<?xml version="1.0" encoding="UTF-8"?>
<svg width="24px" height="24px" viewBox="0 0 24 24" version="1.1" xmlns="http://www.w3.org/2000/svg" xmlns:xlink="http://www.w3.org/1999/xlink">
    <!-- Generator: Sketch 60.1 (88133) - https://sketch.com -->
    <title>Action / center_24</title>
    <desc>Created with Sketch.</desc>
    <g id="Action-/-center_24" stroke="none" stroke-width="1" fill="none" fill-rule="evenodd">
        <path d="M11.5,18.5 C11.5,18.2238576 11.7238576,18 12,18 C12.2761424,18 12.5,18.2238576 12.5,18.5 L12.5,22.5 C12.5,22.7761424 12.2761424,23 12,23 C11.7238576,23 11.5,22.7761424 11.5,22.5 L11.5,18.5 Z M11.5,1.5 C11.5,1.22385763 11.7238576,1 12,1 C12.2761424,1 12.5,1.22385763 12.5,1.5 L12.5,5.5 C12.5,5.77614237 12.2761424,6 12,6 C11.7238576,6 11.5,5.77614237 11.5,5.5 L11.5,1.5 Z M5.5,12 C5.77614237,12 6,12.2238576 6,12.5 C6,12.7761424 5.77614237,13 5.5,13 L1.5,13 C1.22385763,13 1,12.7761424 1,12.5 C1,12.2238576 1.22385763,12 1.5,12 L5.5,12 Z M22,11.5 C22.2761424,11.5 22.5,11.7238576 22.5,12 C22.5,12.2761424 22.2761424,12.5 22,12.5 L18,12.5 C17.7238576,12.5 17.5,12.2761424 17.5,12 C17.5,11.7238576 17.7238576,11.5 18,11.5 L22,11.5 Z M12,16 C9.790861,16 8,14.209139 8,12 C8,9.790861 9.790861,8 12,8 C14.209139,8 16,9.790861 16,12 C16,14.209139 14.209139,16 12,16 Z" id="center_24" fill="#00090D"></path>
    </g>
</svg>