<?xml version="1.0" encoding="UTF-8"?>
<svg width="24px" height="24px" viewBox="0 0 24 24" version="1.1" xmlns="http://www.w3.org/2000/svg" xmlns:xlink="http://www.w3.org/1999/xlink">
    <!-- Generator: Sketch 60.1 (88133) - https://sketch.com -->
    <title>Action/align/center-align_24</title>
    <desc>Created with Sketch.</desc>
    <g id="Action/align/center-align_24" stroke="none" stroke-width="1" fill="none" fill-rule="evenodd">
        <path d="M4.5,5 C4.22385763,5 4,4.77614237 4,4.5 C4,4.22385763 4.22385763,4 4.5,4 L19.5,4 C19.7761424,4 20,4.22385763 20,4.5 C20,4.77614237 19.7761424,5 19.5,5 L4.5,5 Z M1.5,10 C1.22385763,10 1,9.77614237 1,9.5 C1,9.22385763 1.22385763,9 1.5,9 L22.5,9 C22.7761424,9 23,9.22385763 23,9.5 C23,9.77614237 22.7761424,10 22.5,10 L1.5,10 Z M4.5,15 C4.22385763,15 4,14.7761424 4,14.5 C4,14.2238576 4.22385763,14 4.5,14 L19.5,14 C19.7761424,14 20,14.2238576 20,14.5 C20,14.7761424 19.7761424,15 19.5,15 L4.5,15 Z M1.5,20 C1.22385763,20 1,19.7761424 1,19.5 C1,19.2238576 1.22385763,19 1.5,19 L22.5,19 C22.7761424,19 23,19.2238576 23,19.5 C23,19.7761424 22.7761424,20 22.5,20 L1.5,20 Z" id="center-align_24" fill="#00090D"></path>
    </g>
</svg>