<svg width="24" height="24" viewBox="0 0 24 24" fill="none" xmlns="http://www.w3.org/2000/svg">
<path fill-rule="evenodd" clip-rule="evenodd" d="M23.6224 12.8555L21.7794 14.5324C21.7344 14.5734 21.7164 14.6384 21.7354 14.6964L22.4924 17.0703C22.5904 17.3793 22.5534 17.7183 22.3914 17.9983C22.2294 18.2802 21.9544 18.4812 21.6374 18.5512L19.2024 19.0822C19.1434 19.0962 19.0964 19.1432 19.0834 19.2022L18.5514 21.6361C18.4824 21.9531 18.2814 22.2281 18.0014 22.3911C17.7194 22.5541 17.3814 22.5901 17.0714 22.4911L14.6964 21.7361C14.6384 21.7201 14.5744 21.7351 14.5324 21.7791L12.8534 23.622C12.6354 23.861 12.3234 24 11.9994 24H11.9984C11.6734 24 11.3624 23.862 11.1434 23.622L9.4654 21.7801C9.4244 21.7341 9.3624 21.7191 9.3034 21.7361L6.9294 22.4911C6.6194 22.5901 6.2814 22.5541 5.9994 22.3911C5.7184 22.2281 5.5174 21.9531 5.4484 21.6361L4.9164 19.2022C4.9034 19.1442 4.8564 19.0972 4.7964 19.0832L2.3614 18.5512C2.0444 18.4812 1.7694 18.2802 1.6074 17.9993C1.4454 17.7183 1.4084 17.3793 1.5064 17.0703L2.2624 14.6954C2.2804 14.6374 2.2634 14.5734 2.2184 14.5314L0.377397 12.8555C0.137397 12.6365 0.000396729 12.3245 0.000396729 12.0005C0.000396729 11.6765 0.137397 11.3645 0.377397 11.1465L2.2184 9.46761C2.2634 9.42561 2.2804 9.36161 2.2624 9.30361L1.5064 6.92971C1.4084 6.62072 1.4454 6.28174 1.6074 6.00075C1.7694 5.71976 2.0444 5.51877 2.3614 5.44877L4.7964 4.9168C4.8564 4.9038 4.9024 4.8568 4.9164 4.7978L5.4484 2.3629C5.5174 2.04591 5.7184 1.77193 5.9994 1.60793C6.2814 1.44594 6.6194 1.41094 6.9294 1.50794L9.3024 2.26391C9.3604 2.28191 9.4244 2.26591 9.4664 2.21991L11.1434 0.377984C11.3624 0.137994 11.6734 0 11.9984 0H11.9994C12.3234 0 12.6344 0.137994 12.8534 0.376984L14.5334 2.21991C14.5744 2.26491 14.6394 2.28191 14.6974 2.26391L17.0704 1.50794C17.3814 1.41094 17.7194 1.44594 18.0014 1.60793C18.2814 1.77193 18.4824 2.04591 18.5514 2.3629L19.0834 4.7978C19.0964 4.8568 19.1434 4.9038 19.2024 4.9168L21.6374 5.44877C21.9554 5.51877 22.2304 5.72076 22.3924 6.00175C22.5534 6.28274 22.5904 6.62172 22.4914 6.93071L21.7354 9.30361C21.7164 9.36161 21.7344 9.42661 21.7794 9.46761L23.6224 11.1455V11.1465C23.8624 11.3635 24.0004 11.6755 24.0004 12.0005C24.0004 12.3245 23.8624 12.6365 23.6224 12.8555V12.8555ZM21.1064 13.7924L22.9484 12.1155C22.9934 12.0755 23.0004 12.0255 23.0004 12.0005C23.0004 11.9745 22.9934 11.9255 22.9484 11.8845L21.1064 10.2066C20.7724 9.90159 20.6464 9.42861 20.7834 8.99963L21.5384 6.62672C21.5574 6.56873 21.5384 6.52273 21.5254 6.50073C21.5124 6.47873 21.4814 6.43873 21.4224 6.42573L18.9884 5.89375C18.5484 5.79776 18.2024 5.45077 18.1064 5.01079L17.5754 2.57589C17.5624 2.5179 17.5234 2.4869 17.5004 2.4749C17.4784 2.4619 17.4304 2.4409 17.3744 2.4609L15.0004 3.21687C14.5694 3.35386 14.0974 3.22587 13.7944 2.89388L12.1144 1.05096C12.0344 0.96296 11.9634 0.96196 11.8824 1.05196L10.2054 2.89388C9.9014 3.22587 9.4294 3.35186 9.0004 3.21687L6.6264 2.4609C6.5674 2.4399 6.5224 2.4619 6.5004 2.4749C6.4774 2.4869 6.4384 2.5179 6.4254 2.57589L5.8924 5.01079C5.7964 5.45077 5.4504 5.79776 5.0094 5.89375L2.5754 6.42573C2.5174 6.43873 2.4864 6.47873 2.4734 6.50073C2.4604 6.52273 2.4414 6.56873 2.4604 6.62672L3.2154 9.00062C3.3514 9.42961 3.2244 9.90159 2.8924 10.2056L1.0514 11.8845C1.0064 11.9255 1.0004 11.9755 1.0004 12.0005C1.0004 12.0255 1.0064 12.0755 1.0514 12.1165L2.8924 13.7924C3.2244 14.0974 3.3514 14.5694 3.2154 14.9984L2.4604 17.3733C2.4414 17.4313 2.4604 17.4773 2.4734 17.4993C2.4864 17.5213 2.5174 17.5623 2.5764 17.5743L5.0104 18.1062C5.4494 18.2022 5.7964 18.5492 5.8934 18.9882L6.4254 21.4231C6.4384 21.4811 6.4774 21.5121 6.5004 21.5241C6.5224 21.5371 6.5694 21.5571 6.6264 21.5381L8.9994 20.7831C9.1144 20.7461 9.2314 20.7291 9.3494 20.7291C9.6694 20.7291 9.9834 20.8621 10.2054 21.1071L11.8824 22.948C11.9624 23.036 12.0324 23.038 12.1134 22.948L13.7944 21.1051C14.0974 20.7721 14.5694 20.6481 15.0004 20.7831L17.3744 21.5381C17.4304 21.5571 17.4784 21.5371 17.5004 21.5241C17.5234 21.5121 17.5624 21.4811 17.5754 21.4231L18.1064 18.9892C18.2014 18.5502 18.5474 18.2032 18.9874 18.1052L21.4234 17.5743C21.4814 17.5623 21.5124 17.5213 21.5254 17.4993C21.5384 17.4773 21.5574 17.4313 21.5394 17.3733L20.7824 14.9994C20.6464 14.5694 20.7734 14.0964 21.1064 13.7924V13.7924ZM16.146 8.14616C16.341 7.95117 16.658 7.95117 16.853 8.14616C17.049 8.34015 17.049 8.65714 16.854 8.85313L10.354 15.3689C10.26 15.4619 10.133 15.5149 10 15.5149C9.867 15.5149 9.739 15.4619 9.646 15.3679L6.146 11.852C5.951 11.657 5.952 11.34 6.147 11.145C6.342 10.95 6.66 10.95 6.854 11.147L10 14.3069L16.146 8.14616Z" fill="#545454"/>
</svg>
