<?xml version="1.0" encoding="UTF-8"?>
<svg width="16px" height="16px" viewBox="0 0 16 16" version="1.1" xmlns="http://www.w3.org/2000/svg" xmlns:xlink="http://www.w3.org/1999/xlink">
    <!-- Generator: Sketch 60.1 (88133) - https://sketch.com -->
    <title>Action / chat_16</title>
    <desc>Created with Sketch.</desc>
    <g id="Action-/-chat_16" stroke="none" stroke-width="1" fill="none" fill-rule="evenodd">
        <path d="M0.0005309287,7.99973454 C0.0005309287,3.58173877 3.5822697,0 8.00026546,0 C12.4182612,0 16,3.58173877 16,7.99973454 C16,12.4177303 12.4182612,15.9994691 8.00026546,15.9994691 C6.6540043,15.9994691 5.35530263,15.6615387 4.19129733,15.0281198 L0.629925193,15.982431 C0.258148665,16.0820529 -0.0820529056,15.7418513 0.0175689582,15.3700748 L0.971881561,11.8086977 C0.338627481,10.6449048 0.0005309287,9.34536678 0.0005309287,7.99973454 Z M4.12897878,14.0095737 C4.25715235,13.9752281 4.39372189,13.9932429 4.5086052,14.0596501 C5.56838711,14.6722463 6.76072044,14.9995023 8.00026546,14.9995023 C11.8659948,14.9995023 15.0000332,11.8654639 15.0000332,7.99973454 C15.0000332,4.13400519 11.8659948,0.999966817 8.00026546,0.999966817 C4.13453612,0.999966817 1.00049775,4.13400519 1.00049775,7.99973454 C1.00049775,9.23865437 1.32795613,10.4319631 1.94034993,11.4913948 C2.00675707,11.6062781 2.02477191,11.7428477 1.9904263,11.8710212 L1.20761193,14.7923881 L4.12897878,14.0095737 Z" id="chat_16" fill="#00090D"></path>
    </g>
</svg>