<svg width="16" height="16" viewBox="0 0 16 16" fill="none" xmlns="http://www.w3.org/2000/svg">
<g id="Type=selected">
<rect id="secondary-color" width="16" height="16" rx="4" fill="#FFFFFF"/>
<path id="checkbox-selected_16" fill-rule="evenodd" clip-rule="evenodd" d="M4 0C1.79086 0 0 1.79086 0 4V12C0 14.2091 1.79086 16 4 16H12C14.2091 16 16 14.2091 16 12V4C16 1.79086 14.2091 0 12 0H4ZM3.10453 8.45927L6.32669 11.6813C6.39388 11.7478 6.48537 11.7857 6.57972 11.7857C6.67478 11.7857 6.76555 11.7478 6.83274 11.6813L12.8955 5.61053C13.0348 5.47041 13.0348 5.24378 12.8955 5.10509C12.7554 4.96497 12.5295 4.96497 12.3901 5.10509L6.57972 10.9228L3.60987 7.95384C3.47049 7.81443 3.24391 7.81443 3.10453 7.95384C2.96516 8.09324 2.96516 8.31987 3.10453 8.45927Z" fill="#00A0D1"/>
</g>
</svg>
