<?xml version="1.0" encoding="UTF-8"?>
<svg width="16px" height="16px" viewBox="0 0 16 16" version="1.1" xmlns="http://www.w3.org/2000/svg" xmlns:xlink="http://www.w3.org/1999/xlink">
    <!-- Generator: Sketch 60.1 (88133) - https://sketch.com -->
    <title>Tools / cisco-cert / cisco-cert-filled_16</title>
    <desc>Created with Sketch.</desc>
    <g id="Tools-/-cisco-cert-/-cisco-cert-filled_16" stroke="none" stroke-width="1" fill="none" fill-rule="evenodd">
        <path d="M10,2 L10,10.7001 C10,10.79619 10.1223,10.83697 10.18,10.76011 L11.5023,8.99768 L12.8199,10.75924 C12.8775,10.83625 13,10.79485 13,10.69868 C13,6.84769 13,4.38154 13,3.30022 L13,2 L10,2 Z M9,2 C9,1.447715 9.44772,1 10,1 L13,1 C13.5523,1 14,1.447715 14,2 C15.1046,2 16,2.89543 16,4 L16,13 C16,14.1046 15.1046,15 14,15 L2,15 C0.89543,15 0,14.1046 0,13 L0,4 C0,2.89543 0.89543,2 2,2 L9,2 Z M3,5 C2.44772,5 2,5.44772 2,6 C2,6.55228 2.44772,7 3,7 L7,7 C7.55228,7 8,6.55228 8,6 C8,5.44772 7.55228,5 7,5 L3,5 Z" id="cisco-cert-filled_16" fill="#00090D"></path>
    </g>
</svg>