<?xml version="1.0" encoding="UTF-8"?>
<svg width="16px" height="16px" viewBox="0 0 16 16" version="1.1" xmlns="http://www.w3.org/2000/svg" xmlns:xlink="http://www.w3.org/1999/xlink">
    <!-- Generator: Sketch 60.1 (88133) - https://sketch.com -->
    <title>Tools / cisco-cert / cisco-cert_16</title>
    <desc>Created with Sketch.</desc>
    <g id="Tools-/-cisco-cert-/-cisco-cert_16" stroke="none" stroke-width="1" fill="none" fill-rule="evenodd">
        <path d="M9,3 L2,3 C1.44772,3 1,3.44772 1,4 L1,13 C1,13.5523 1.44772,14 2,14 L14,14 C14.5523,14 15,13.5523 15,13 L15,4 C15,3.44772 14.5523,3 14,3 L14,11.6748 C14,11.8481 13.7946,11.9394 13.666,11.8233 L11.5026,9.87094 L9.33376,11.8221 C9.20505,11.9379 9,11.8466 9,11.6734 L9,3 Z M10,2 L10,9.65314 C10,9.73971 10.1025,9.78538 10.1669,9.72749 L11.5036,8.52488 L12.833,9.72456 C12.8973,9.78261 13,9.73696 13,9.65032 L13,2 L10,2 Z M9,2 C9,1.447715 9.44772,1 10,1 L13,1 C13.5523,1 14,1.447715 14,2 C15.1046,2 16,2.89543 16,4 L16,13 C16,14.1046 15.1046,15 14,15 L2,15 C0.89543,15 0,14.1046 0,13 L0,4 C0,2.89543 0.89543,2 2,2 L9,2 Z M3,5 L7,5 C7.55228,5 8,5.44772 8,6 C8,6.55228 7.55228,7 7,7 L3,7 C2.44772,7 2,6.55228 2,6 C2,5.44772 2.44772,5 3,5 Z" id="cisco-cert_16" fill="#00090D"></path>
    </g>
</svg>