<?xml version="1.0" encoding="UTF-8"?>
<svg width="16px" height="16px" viewBox="0 0 16 16" version="1.1" xmlns="http://www.w3.org/2000/svg" xmlns:xlink="http://www.w3.org/1999/xlink">
    <!-- Generator: Sketch 60.1 (88133) - https://sketch.com -->
    <title>Action / claim_16</title>
    <desc>Created with Sketch.</desc>
    <g id="Action-/-claim_16" stroke="none" stroke-width="1" fill="none" fill-rule="evenodd">
        <path d="M5.99999455,11.229529 L5.99999455,0.499209585 C5.99999455,0.223645894 6.224,0 6.49999455,0 L14.332,0 C14.589,0 14.818,0.14377236 14.93,0.373408769 C15.044,0.603045178 15.015,0.871619935 14.858,1.07330061 L13.059,3.49446709 L14.865,5.92362093 C15.016,6.11631583 15.044,6.38588901 14.93,6.61552542 C14.818,6.84516183 14.589,6.98893419 14.332,6.98893419 L6.99999455,6.98893419 L6.99999455,11.1978984 C7.24770172,11.24037 7.49154135,11.3207094 7.72289752,11.4400004 L14.7268938,15.051374 C14.9723309,15.1779254 15.0687068,15.4794816 14.9421555,15.7249187 C14.8156042,15.9703558 14.514048,16.0667317 14.2686109,15.9401804 L7.26461459,12.3288067 C6.71366324,12.0447273 6.04472102,12.1288088 5.58121067,12.5403993 L1.83199318,15.8696496 C1.62550918,16.0530043 1.30948242,16.0342544 1.12612765,15.8277704 C0.942772886,15.6212864 0.961522829,15.3052596 1.16800682,15.1219049 L4.91722432,11.7926546 C5.2331712,11.5120983 5.60638823,11.3228448 5.99999455,11.229529 Z M7,5.99051502 L13.67,5.99051502 L12.111,3.89283634 C11.93,3.66519677 11.929,3.32872951 12.117,3.08711207 L13.67,0.99841917 L7,0.99841917 L7,5.99051502 Z" id="claim_16" fill="#00090D"></path>
    </g>
</svg>