<?xml version="1.0" encoding="UTF-8"?>
<svg width="16px" height="16px" viewBox="0 0 16 16" version="1.1" xmlns="http://www.w3.org/2000/svg" xmlns:xlink="http://www.w3.org/1999/xlink">
    <!-- Generator: Sketch 60.1 (88133) - https://sketch.com -->
    <title>Tools/CLI_16</title>
    <desc>Created with Sketch.</desc>
    <g id="Tools/CLI_16" stroke="none" stroke-width="1" fill="none" fill-rule="evenodd">
        <path d="M2,1 L14,1 C15.1045695,1 16,1.8954305 16,3 L16,13 C16,14.1045695 15.1045695,15 14,15 L2,15 C0.8954305,15 0,14.1045695 0,13 L0,3 C0,1.8954305 0.8954305,1 2,1 Z M2,2 C1.44771525,2 1,2.44771525 1,3 L1,13 C1,13.5522847 1.44771525,14 2,14 L14,14 C14.5522847,14 15,13.5522847 15,13 L15,3 C15,2.44771525 14.5522847,2 14,2 L2,2 Z M3.14644661,10.1464466 L5.79289322,7.5 L3.14644661,4.85355339 C2.95118446,4.65829124 2.95118446,4.34170876 3.14644661,4.14644661 C3.34170876,3.95118446 3.65829124,3.95118446 3.85355339,4.14644661 L7.20710678,7.5 L3.85355339,10.8535534 C3.65829124,11.0488155 3.34170876,11.0488155 3.14644661,10.8535534 C2.95118446,10.6582912 2.95118446,10.3417088 3.14644661,10.1464466 Z M8.5,11 C8.22385763,11 8,10.7761424 8,10.5 C8,10.2238576 8.22385763,10 8.5,10 L12.5,10 C12.7761424,10 13,10.2238576 13,10.5 C13,10.7761424 12.7761424,11 12.5,11 L8.5,11 Z" id="CLI_16" fill="#00090D"></path>
    </g>
</svg>