<?xml version="1.0" encoding="UTF-8"?>
<svg width="24px" height="24px" viewBox="0 0 24 24" version="1.1" xmlns="http://www.w3.org/2000/svg" xmlns:xlink="http://www.w3.org/1999/xlink">
    <!-- Generator: Sketch 60.1 (88133) - https://sketch.com -->
    <title>Tools/clock/clock_24</title>
    <desc>Created with Sketch.</desc>
    <g id="Tools/clock/clock_24" stroke="none" stroke-width="1" fill="none" fill-rule="evenodd">
        <path d="M12,24 C5.383,24 0,18.617 0,12 C0,5.383 5.383,0 12,0 C18.617,0 24,5.383 24,12 C24,18.617 18.617,24 12,24 Z M12,1 C5.935,1 1,5.935 1,12 C1,18.065 5.935,23 12,23 C18.065,23 23,18.065 23,12 C23,5.935 18.065,1 12,1 Z M15,17.5 C14.858,17.5 14.717,17.439 14.618,17.322 L11.816,14.003 C11.623,13.812 11.5,13.517 11.5,13.203 L11.5,6.041 C11.5,5.765 11.724,5.541 12,5.541 C12.276,5.541 12.5,5.765 12.5,6.041 L12.5,13.203 C12.5,13.249 12.519,13.294 12.552,13.327 L15.382,16.678 C15.561,16.889 15.533,17.204 15.322,17.382 C15.229,17.461 15.114,17.5 15,17.5 Z" id="clock_24" fill="#000000"></path>
    </g>
</svg>