<?xml version="1.0" encoding="UTF-8"?>
<svg width="24px" height="24px" viewBox="0 0 24 24" version="1.1" xmlns="http://www.w3.org/2000/svg" xmlns:xlink="http://www.w3.org/1999/xlink">
    <!-- Generator: Sketch 60.1 (88133) - https://sketch.com -->
    <title>Tools / cloud / cloud-error_24</title>
    <desc>Created with Sketch.</desc>
    <g id="Tools-/-cloud-/-cloud-error_24" stroke="none" stroke-width="1" fill="none" fill-rule="evenodd">
        <path d="M8.4375,5 C8.80683,5 8.94999,5.43497 8.68883,5.69612 L8.54642,5.83853 C8.44265,5.9423 8.3022,5.99957 8.15584,6.01017 C6.18223,6.15312 4.5734,7.78738 4.39629,9.90967 L4.33743,10.61493 L3.65273,10.79397 C2.11557,11.19591 1,12.6658 1,14.3333 C1,16.3627 2.57884,18 4.5,18 L8.17784,18 C8.31045,18 8.43763,18.0527 8.5314,18.1464 L8.5314,18.1464 C8.84638,18.4614 8.6233,19 8.17784,19 L4.5,19 C2.01825,19 0,16.907 0,14.3333 C0,12.20067 1.43212,10.341 3.39975,9.8265 C3.627,7.1035 5.79938,5 8.4375,5 L8.4375,5 Z" id="cloud-error_24" fill="#00090D"></path>
        <path d="M12.82843,20 C12.29799,20 11.78929,19.7893 11.41421,19.4142 L8.585786,16.5858 C8.210713,16.2107 8,15.702 8,15.1716 L8,8.82843 C8,8.29799 8.210714,7.78929 8.585786,7.41421 L11.41421,4.585786 C11.78929,4.210713 12.29799,4 12.82843,4 L19.1716,4 C19.702,4 20.2107,4.210714 20.5858,4.585786 L23.4142,7.41421 C23.7893,7.78929 24,8.29799 24,8.82843 L24,15.1716 C24,15.702 23.7893,16.2107 23.4142,16.5858 L20.5858,19.4142 C20.2107,19.7893 19.702,20 19.1716,20 L12.82843,20 Z M15.9999975,11.29289 L13.85355,9.14645 C13.65829,8.95118 13.34171,8.95118 13.14645,9.14645 C12.95118,9.34171 12.95118,9.65829 13.14645,9.85355 L15.29289,11.9999975 L13.14645,14.1464 C12.95118,14.3417 12.95118,14.6583 13.14645,14.8536 C13.34171,15.0488 13.65829,15.0488 13.85355,14.8536 L15.9999975,12.70711 L18.1464,14.8536 C18.3417,15.0488 18.6583,15.0488 18.8536,14.8536 C19.0488,14.6583 19.0488,14.3417 18.8536,14.1464 L16.70711,11.9999975 L18.8536,9.85355 C19.0488,9.65829 19.0488,9.34171 18.8536,9.14645 C18.6583,8.95118 18.3417,8.95118 18.1464,9.14645 L15.9999975,11.29289 Z" id="secondary-color" fill="#FFA000"></path>
    </g>
</svg>