<?xml version="1.0" encoding="UTF-8"?>
<svg width="24px" height="24px" viewBox="0 0 24 24" version="1.1" xmlns="http://www.w3.org/2000/svg" xmlns:xlink="http://www.w3.org/1999/xlink">
    <!-- Generator: Sketch 60.1 (88133) - https://sketch.com -->
    <title>Tools / cloud / cloud-warning_24</title>
    <desc>Created with Sketch.</desc>
    <g id="Tools-/-cloud-/-cloud-warning_24" stroke="none" stroke-width="1" fill="none" fill-rule="evenodd">
        <path d="M12.499,7.13481 C12.6012,7.27897 12.6011,7.47002 12.5091,7.62088 L12.5091,7.62088 C12.3163,7.93707 11.8377,7.91601 11.6154,7.61981 C10.8618,6.61557 9.69936,6 8.4375,6 C6.33722,6 4.58176,7.68726 4.39629,9.90967 L4.33743,10.61493 L3.65273,10.79397 C2.11557,11.19591 1,12.6658 1,14.33333 C1,16.3627 2.57884,18 4.5,18 L6.19442,18 C6.39994,18 6.56469,18.1641 6.60889,18.3648 L6.60889,18.3648 C6.67336,18.6574 6.47921,19 6.1795,19 L4.5,19 C2.01825,19 0,16.907 0,14.33333 C0,12.20067 1.43212,10.341 3.39975,9.8265 C3.627,7.1035 5.79938,5 8.4375,5 C10.0784,5 11.5688,5.822596 12.499,7.13481 Z" id="cloud-warning_24" fill="#00090D"></path>
        <path d="M23.74082,17.238 C24.07682,17.801 24.08782,18.482 23.76582,19.056 C23.43582,19.647 22.82982,20 22.14782,20 L9.85282,20 C9.17082,20 8.56382,19.647 8.23382,19.055 C7.91282,18.481 7.92282,17.801 8.26082,17.237 L14.40682,6.901 C14.74382,6.336 15.33982,6 15.99982,6 C16.66082,6 17.25582,6.336 17.59182,6.9 C17.59382,6.9 17.59382,6.9 17.59382,6.901 L23.74082,17.238 Z M16.5002201,17.4999803 L16.5000002,16.9999803 C16.4998788,16.7238379 16.2759229,16.5000787 15.9997805,16.5002 C15.7236382,16.5003214 15.4998789,16.7242774 15.5000002,17.0004197 L15.5002201,17.5004197 C15.5003414,17.7765621 15.7242974,18.0003213 16.0004397,18.0002 C16.2765821,18.0000786 16.5003413,17.7761226 16.5002201,17.4999803 Z M15.5000003,10.5000275 L15.50022,14.5000275 C15.5002352,14.7761698 15.7241051,15 16.0002475,15 C16.2763898,15 16.5002352,14.7761149 16.50022,14.4999725 L16.5000003,10.4999725 C16.4999851,10.2238302 16.2761152,10 15.9999728,10 C15.7238304,10 15.4999851,10.2238851 15.5000003,10.5000275 Z" id="secondary-color" fill="#FFA000"></path>
    </g>
</svg>