<?xml version="1.0" encoding="UTF-8"?>
<svg width="16px" height="16px" viewBox="0 0 16 16" version="1.1" xmlns="http://www.w3.org/2000/svg" xmlns:xlink="http://www.w3.org/1999/xlink">
    <!-- Generator: Sketch 60.1 (88133) - https://sketch.com -->
    <title>Tools / cloud / cloud_16</title>
    <desc>Created with Sketch.</desc>
    <g id="Tools-/-cloud-/-cloud_16" stroke="none" stroke-width="1" fill="none" fill-rule="evenodd">
        <path d="M7.4998,2.9998 C5.5698,2.9998 3.9998,4.5698 3.9998,6.4998 C3.9998,6.7488 3.8218,7.0098 3.5758,7.0448 C2.1068,7.2548 0.9998,8.5248 0.9998,9.9998 C0.9998,11.6538 2.3458,12.9998 3.9998,12.9998 L11.4998,12.9998 C13.4298,12.9998 14.9998,11.4298 14.9998,9.4998 C14.9998,7.5728 13.4348,6.0058 11.5098,5.9998 C11.4698,6.0048 11.3778,6.0138 11.3628,6.0138 C11.1348,6.0138 10.9348,5.8588 10.8778,5.6378 C10.4818,4.0848 9.0928,2.9998 7.4998,2.9998 M11.4998,13.9998 L3.9998,13.9998 C1.7938,13.9998 -0.0002,12.2058 -0.0002,9.9998 C-0.0002,8.1718 1.2728,6.5778 3.0218,6.1368 C3.2238,3.8028 5.1548,1.9998 7.4998,1.9998 C9.4168,1.9998 11.1028,3.2178 11.7308,5.0058 C14.1048,5.1268 15.9998,7.0968 15.9998,9.4998 C15.9998,11.9808 13.9808,13.9998 11.4998,13.9998" id="cloud_16" fill="#00090D"></path>
    </g>
</svg>