<?xml version="1.0" encoding="UTF-8"?>
<svg width="24px" height="24px" viewBox="0 0 24 24" version="1.1" xmlns="http://www.w3.org/2000/svg" xmlns:xlink="http://www.w3.org/1999/xlink">
    <!-- Generator: Sketch 60.1 (88133) - https://sketch.com -->
    <title>Tools / cloud / cloud-in-progress_24</title>
    <desc>Created with Sketch.</desc>
    <g id="Tools-/-cloud-/-cloud-in-progress_24" stroke="none" stroke-width="1" fill="none" fill-rule="evenodd">
        <path d="M9.19975,6.05987 C9.57738,6.11969 9.67711,6.5839 9.41635,6.86353 L9.41635,6.86353 C9.29335,6.99544 9.1118,7.055 8.93293,7.03187 C8.77001,7.0108 8.60463,7 8.4375,7 C6.33722,7 4.58176,8.68726 4.39629,10.90967 L4.33743,11.61493 L3.65273,11.79397 C2.11557,12.19591 1,13.6658 1,15.3333 C1,17.3627 2.57884,19 4.5,19 L9.09331,19 C9.21954,19 9.33935,19.0542 9.42558,19.1463 L9.42558,19.1463 C9.71128,19.4518 9.50703,20 9.08877,20 L4.5,20 C2.01825,20 0,17.907 0,15.3333 C0,13.20067 1.43212,11.341 3.39975,10.8265 C3.627,8.1035 5.79938,6 8.4375,6 C8.69584,6 8.95046,6.02039 9.19975,6.05987 Z" id="cloud-in-progress_24" fill="#00090D"></path>
        <path d="M16,21 C11.581722,21 8,17.418278 8,13 C8,8.581722 11.581722,5 16,5 C20.418278,5 24,8.581722 24,13 C24,17.418278 20.418278,21 16,21 Z M12.5334867,15 L14.5,15 C14.7761424,15 15,14.7761424 15,14.5 C15,14.2238576 14.7761424,14 14.5,14 L11.7666266,14 C11.7588942,13.9998188 11.7511404,13.9998179 11.743367,14 L11.5,14 C11.2238576,14 11,14.2238576 11,14.5 L11,17.5 C11,17.7761424 11.2238576,18 11.5,18 C11.7761424,18 12,17.7761424 12,17.5 L12,16.0030068 C12.9232252,17.2311222 14.3879818,18 15.9989414,18 C18.1349291,18 20.0138862,16.648284 20.7143028,14.666623 C20.8063262,14.406265 20.669864,14.1206034 20.4095059,14.0285801 C20.1491479,13.9365567 19.8634863,14.0730189 19.7714629,14.333377 C19.2112131,15.9184697 17.7078284,17 15.9989414,17 C14.5420918,17 13.234597,16.2139657 12.5334867,15 Z M19.4643962,11 L17.5,11 C17.2238576,11 17,11.2238576 17,11.5 C17,11.7761424 17.2238576,12 17.5,12 L20.2312563,12 C20.2389887,12.0001812 20.2467425,12.0001821 20.2545159,12 L20.5,12 C20.7761424,12 21,11.7761424 21,11.5 L21,8.5 C21,8.22385763 20.7761424,8 20.5,8 C20.2238576,8 20,8.22385763 20,8.5 L20,9.99981156 C19.0768978,8.7700542 17.611133,8 15.9989414,8 C13.8629538,8 11.9839967,9.35171599 11.2835801,11.333377 C11.1915567,11.593735 11.3280189,11.8793966 11.588377,11.9714199 C11.848735,12.0634433 12.1343966,11.9269811 12.2264199,11.666623 C12.7866698,10.0815303 14.2900545,9 15.9989414,9 C17.4557911,9 18.7632859,9.78603434 19.4643962,11 Z" id="secondary-color" fill="#FFA000"></path>
    </g>
</svg>