<?xml version="1.0" encoding="UTF-8"?>
<svg width="18px" height="18px" viewBox="0 0 18 18" version="1.1" xmlns="http://www.w3.org/2000/svg" xmlns:xlink="http://www.w3.org/1999/xlink">
    <!-- Generator: Sketch 60.1 (88133) - https://sketch.com -->
    <title>Tools / cloud / cloud_18</title>
    <desc>Created with Sketch.</desc>
    <g id="Tools-/-cloud-/-cloud_18" stroke="none" stroke-width="1" fill="none" fill-rule="evenodd">
        <path d="M4.5,16 C2.01825,16 0,13.907 0,11.3333333 C0,9.20066667 1.432125,7.341 3.39975,6.8265 C3.627,4.1035 5.799375,2 8.4375,2 C10.594125,2 12.490875,3.421 13.197375,5.507 C15.868125,5.64816667 18,7.9465 18,10.75 C18,13.6445 15.728625,16 12.9375,16 L4.5,16 Z M4.5,15 L12.9375,15 C15.1680393,15 17,13.1001889 17,10.75 C17,8.48163932 15.2871068,6.61885197 13.1445921,6.50560601 L12.4676737,6.46982643 L12.2502237,5.82778732 C11.6755221,4.13093289 10.1478849,3 8.4375,3 C6.33722083,3 4.58175826,4.68726001 4.39628566,6.90966663 L4.33742695,7.61493507 L3.6527273,7.79397222 C2.11557399,8.19591129 1,9.66579655 1,11.3333333 C1,13.3626889 2.57883575,15 4.5,15 Z" id="cloud_18" fill="#00090D"></path>
    </g>
</svg>