<?xml version="1.0" encoding="UTF-8"?>
<svg width="24px" height="24px" viewBox="0 0 24 24" version="1.1" xmlns="http://www.w3.org/2000/svg" xmlns:xlink="http://www.w3.org/1999/xlink">
    <!-- Generator: Sketch 60.1 (88133) - https://sketch.com -->
    <title>Tools / cloud / cloud_24</title>
    <desc>Created with Sketch.</desc>
    <g id="Tools-/-cloud-/-cloud_24" stroke="none" stroke-width="1" fill="none" fill-rule="evenodd">
        <path d="M11,4 C7.967,4 5.5,6.468 5.5,9.5 C5.5,9.741 5.333,10.043 5.095,10.087 C2.722,10.521 1,12.587 1,15 C1,17.757 3.243,20 6,20 L17,20 C20.309,20 23,17.309 23,14 C23,10.691 20.309,8 17,8 C16.934,8 16.87,8.005 16.805,8.009 L16.684,8.017 C16.457,8.038 16.259,7.892 16.186,7.683 C15.414,5.48 13.329,4 11,4 M17,21 L6,21 C2.691,21 0,18.309 0,15 C0,12.244 1.872,9.865 4.507,9.192 C4.668,5.75 7.519,3 11,3 C13.627,3 15.991,4.593 16.995,7 L17,7 C20.86,7 24,10.141 24,14 C24,17.859 20.86,21 17,21" id="cloud_24" fill="#00090D"></path>
    </g>
</svg>