<?xml version="1.0" encoding="UTF-8"?>
<svg width="24px" height="24px" viewBox="0 0 24 24" version="1.1" xmlns="http://www.w3.org/2000/svg" xmlns:xlink="http://www.w3.org/1999/xlink">
    <!-- Generator: Sketch 60.1 (88133) - https://sketch.com -->
    <title>Tools / cloud / cloud-success_24</title>
    <desc>Created with Sketch.</desc>
    <g id="Tools-/-cloud-/-cloud-success_24" stroke="none" stroke-width="1" fill="none" fill-rule="evenodd">
        <path d="M9.19975,5.05987 C9.57738,5.11969 9.67711,5.5839 9.41635,5.86353 L9.41635,5.86353 C9.29335,5.99544 9.1118,6.055 8.93293,6.03187 C8.77001,6.0108 8.60463,6 8.4375,6 C6.33722,6 4.58176,7.68726 4.39629,9.90967 L4.33743,10.61493 L3.65273,10.79397 C2.11557,11.19591 1,12.6658 1,14.3333 C1,16.3627 2.57884,18 4.5,18 L9.09331,18 C9.21954,18 9.33935,18.0542 9.42558,18.1463 L9.42558,18.1463 C9.71128,18.4518 9.50703,19 9.08877,19 L4.5,19 C2.01825,19 0,16.907 0,14.3333 C0,12.20067 1.43212,10.341 3.39975,9.8265 C3.627,7.1035 5.79938,5 8.4375,5 C8.69584,5 8.95046,5.02039 9.19975,5.05987 Z" id="cloud-success_24" fill="#00090D"></path>
        <path d="M16,4 C20.418,4 24,7.582 24,12 C24,16.418 20.418,20 16,20 C11.582,20 8,16.418 8,12 C8,7.582 11.582,4 16,4 Z M14.5,13.7928932 L12.8535534,12.1464466 C12.6582912,11.9511845 12.3417088,11.9511845 12.1464466,12.1464466 C11.9511845,12.3417088 11.9511845,12.6582912 12.1464466,12.8535534 L14.1464466,14.8535534 C14.3417088,15.0488155 14.6582912,15.0488155 14.8535534,14.8535534 L19.3535534,10.3535534 C19.5488155,10.1582912 19.5488155,9.84170876 19.3535534,9.64644661 C19.1582912,9.45118446 18.8417088,9.45118446 18.6464466,9.64644661 L14.5,13.7928932 Z" id="secondary-color" fill="#FFA000"></path>
    </g>
</svg>