<?xml version="1.0" encoding="UTF-8"?>
<svg width="16px" height="16px" viewBox="0 0 16 16" version="1.1" xmlns="http://www.w3.org/2000/svg" xmlns:xlink="http://www.w3.org/1999/xlink">
    <!-- Generator: Sketch 60.1 (88133) - https://sketch.com -->
    <title>Action/collapse &amp; expand/collapse_16</title>
    <desc>Created with Sketch.</desc>
    <g id="Action/collapse-&amp;-expand/collapse_16" stroke="none" stroke-width="1" fill="none" fill-rule="evenodd">
        <path d="M9.00038061,6.51956651 L9,1.5 C9,1.22385763 9.22385763,1 9.5,1 C9.74545989,1 9.94960837,1.17687516 9.99194433,1.41012437 L10,1.5 L10,5.294 L15.1464466,0.146446609 C15.320013,-0.0271197425 15.5894374,-0.0464048927 15.7843055,0.0885911588 L15.8535534,0.146446609 C16.0271197,0.320012961 16.0464049,0.589437362 15.9114088,0.784305503 L15.8535534,0.853553391 L10.708,6 L14.5,6 C14.7454599,6 14.9496084,6.17687516 14.9919443,6.41012437 L15,6.5 C15,6.74545989 14.8231248,6.94960837 14.5898756,6.99194433 L14.5,7 L9.5,7 C9.49620778,7 9.49242543,6.99995778 9.48865337,6.99987379 C9.46759882,6.999389 9.44676266,6.9976125 9.42608223,6.99453813 L9.39477235,6.98890777 L9.39477235,6.98890777 C9.37952575,6.98560387 9.36416529,6.98155198 9.34898836,6.97675865 L9.30896344,6.96220776 L9.30896344,6.96220776 C9.29546114,6.95664853 9.28172431,6.95025039 9.26824181,6.94319503 C9.25595333,6.93670666 9.24431753,6.92998066 9.23298968,6.92281199 L9.19785608,6.89841727 L9.193,6.895 L9.192,6.894 L9.14644661,6.85355339 C9.15986375,6.86697053 9.1738537,6.87946572 9.18831228,6.89101636 L9.19785608,6.89841727 C9.18424576,6.88807975 9.17118132,6.8770608 9.15871357,6.86541125 L9.13444048,6.84113328 L9.13444048,6.84113328 C9.1229392,6.82881868 9.11192025,6.81575424 9.10158273,6.80214392 C9.09277454,6.79060915 9.08460935,6.77883464 9.07700705,6.76680652 C9.07001934,6.75568247 9.06329334,6.74404667 9.05703434,6.73212724 C9.04974961,6.71827569 9.04335147,6.70453886 9.03761056,6.6905951 C9.03240845,6.67802507 9.0275581,6.66473685 9.02326842,6.65119917 C9.01844802,6.63583471 9.01439613,6.62047425 9.01108568,6.60498705 L9.00282014,6.55339752 L9.00282014,6.55339752 L9.00208799,6.54578618 L9.00516669,6.57190411 L9.001,6.519 L9.001,6.537 L9.00038061,6.51956651 L9.00038061,6.51956651 Z M7,14.5 C7,14.7761424 6.77614237,15 6.5,15 C6.25454011,15 6.05039163,14.8231248 6.00805567,14.5898756 L6,14.5 L6,10.706 L0.853553391,15.8535534 C0.679987039,16.0271197 0.410562638,16.0464049 0.215694497,15.9114088 L0.146446609,15.8535534 C-0.0271197425,15.679987 -0.0464048927,15.4105626 0.0885911588,15.2156945 L0.146446609,15.1464466 L5.292,10 L1.5,10 C1.25454011,10 1.05039163,9.82312484 1.00805567,9.58987563 L1,9.5 C1,9.22385763 1.22385763,9 1.5,9 L6.51134663,9.00012621 L6.51134663,9.00012621 C6.53240118,9.000611 6.55323734,9.0023875 6.57391777,9.00546187 L6.60522765,9.01109223 L6.60522765,9.01109223 C6.62047425,9.01439613 6.63583471,9.01844802 6.65101164,9.02324135 L6.69103656,9.03779224 L6.69103656,9.03779224 C6.70453886,9.04335147 6.71827569,9.04974961 6.73175819,9.05680497 C6.74404667,9.06329334 6.75568247,9.07001934 6.76701032,9.07718801 L6.806,9.104 L6.85355339,9.14644661 L6.85355339,9.14644661 L6.811,9.108 L6.82214364,9.11759373 C6.82866951,9.12309685 6.83505256,9.12876398 6.84128643,9.13458875 L6.86555952,9.15886672 L6.86555952,9.15886672 C6.8770608,9.17118132 6.88807975,9.18424576 6.89841727,9.19785608 C6.90722546,9.20939085 6.91539065,9.22116536 6.92299295,9.23319348 C6.92998066,9.24431753 6.93670666,9.25595333 6.94296566,9.26787276 C6.95025039,9.28172431 6.95664853,9.29546114 6.96238944,9.3094049 C6.96759155,9.32197493 6.9724419,9.33526315 6.97673158,9.34880083 C6.98155198,9.36416529 6.98560387,9.37952575 6.98891432,9.39501295 L6.99717986,9.44660248 L6.99717986,9.44660248 L6.997,9.454 L6.99483331,9.42809589 L7,9.5 L7,9.5 L7,14.5 Z" id="collapse_16" fill="#00090D"></path>
    </g>
</svg>