<?xml version="1.0" encoding="UTF-8"?>
<svg width="16px" height="16px" viewBox="0 0 16 16" version="1.1" xmlns="http://www.w3.org/2000/svg" xmlns:xlink="http://www.w3.org/1999/xlink">
    <!-- Generator: Sketch 60.1 (88133) - https://sketch.com -->
    <title>Action/collapse-all &amp; expand-all/collapse-all_16</title>
    <desc>Created with Sketch.</desc>
    <g id="Action/collapse-all-&amp;-expand-all/collapse-all_16" stroke="none" stroke-width="1" fill="none" fill-rule="evenodd">
        <path d="M7.6996202,10.100128 C7.90205866,9.94755203 8.19509923,9.96934859 8.37165137,10.1655176 L8.37165137,10.1655176 L12.8716514,15.1655176 L12.9257873,15.2377106 C13.0503547,15.4394047 13.0169356,15.7074431 12.8344867,15.8716471 C12.6292317,16.0563766 12.3130867,16.0397374 12.1283572,15.8344824 L12.1283572,15.8344824 L8,11.248 L3.87165137,15.8344824 L3.80554001,15.8958974 C3.61803645,16.0409489 3.34797083,16.0358511 3.16552193,15.8716471 C2.96026692,15.6869176 2.94362772,15.3707726 3.12835723,15.1655176 L3.12835723,15.1655176 L7.62835723,10.1655176 Z M12.8344867,0.128357227 C13.0169356,0.292561235 13.0503547,0.560599641 12.9257873,0.762293676 L12.8716514,0.834486666 L8.37165137,5.83448667 C8.19509923,6.03065571 7.90205866,6.05245227 7.6996202,5.89987635 L7.62835723,5.83448667 L3.12835723,0.834486666 C2.94362772,0.629231655 2.96026692,0.313086737 3.16552193,0.128357227 C3.34797083,-0.0358467818 3.61803645,-0.0409446445 3.80554001,0.104106861 L3.87165137,0.165521934 L8,4.7520043 L12.1283572,0.165521934 C12.3130867,-0.0397330766 12.6292317,-0.0563722829 12.8344867,0.128357227 Z" id="collapse-all_16" fill="#00090D"></path>
    </g>
</svg>