<?xml version="1.0" encoding="UTF-8"?>
<svg width="24px" height="24px" viewBox="0 0 24 24" version="1.1" xmlns="http://www.w3.org/2000/svg" xmlns:xlink="http://www.w3.org/1999/xlink">
    <!-- Generator: Sketch 60.1 (88133) - https://sketch.com -->
    <title>Action/collapse &amp; expand/collapse_24</title>
    <desc>Created with Sketch.</desc>
    <g id="Action/collapse-&amp;-expand/collapse_24" stroke="none" stroke-width="1" fill="none" fill-rule="evenodd">
        <path d="M9.19504263,14 L2.49999992,14 C2.22385763,14 1.99999992,13.7761424 1.99999992,13.5 C1.99999992,13.2238576 2.22385763,13 2.49999992,13 L10.4999999,13 C10.7761424,13 10.9999999,13.2238576 10.9999999,13.5 L10.9999999,21.5 C10.9999999,21.7761424 10.7761424,22 10.4999999,22 C10.2238576,22 9.99999992,21.7761424 9.99999992,21.5 L9.99999992,14.6079319 L2.85598166,21.8511083 C2.66206989,22.0477116 2.34549492,22.0498934 2.14889168,21.8559817 C1.95228843,21.6620699 1.95010656,21.3454949 2.14401834,21.1488917 L9.19504263,14 Z M14.7071068,10 L21.5,10 C21.7761424,10 22,10.2238576 22,10.5 C22,10.7761424 21.7761424,11 21.5,11 L13.5,11 C13.2238576,11 13,10.7761424 13,10.5 L13,2.5 C13,2.22385763 13.2238576,2 13.5,2 C13.7761424,2 14,2.22385763 14,2.5 L14,9.29289322 L21.1464466,2.14644661 C21.3417088,1.95118446 21.6582912,1.95118446 21.8535534,2.14644661 C22.0488155,2.34170876 22.0488155,2.65829124 21.8535534,2.85355339 L14.7071068,10 Z" id="collapse_24" fill="#00090D"></path>
    </g>
</svg>