<?xml version="1.0" encoding="UTF-8"?>
<svg width="24px" height="24px" viewBox="0 0 24 24" version="1.1" xmlns="http://www.w3.org/2000/svg" xmlns:xlink="http://www.w3.org/1999/xlink">
    <!-- Generator: Sketch 60.1 (88133) - https://sketch.com -->
    <title>Tools / command-runner / command-runner_24</title>
    <desc>Created with Sketch.</desc>
    <g id="Tools-/-command-runner-/-command-runner_24" stroke="none" stroke-width="1" fill="none" fill-rule="evenodd">
        <path d="M13.0120466,15 L3,15 C1.8954305,15 1,14.1045695 1,13 L1,3 C1,1.8954305 1.8954305,1 3,1 L17,1 C18.1045695,1 19,1.8954305 19,3 L19,13 C19,13.0035537 19,13.0071053 18.9999722,13.0106547 L19.936,12.544 C20.375,12.325 20.897,12.409 21.245,12.757 C21.593,13.105 21.678,13.632 21.457,14.069 L20.94,15.097 L21.132,15.561 L22.226,15.926 C22.689,16.082 23,16.514 23,17.002 L23,17.005 C23,17.495 22.687,17.928 22.223,18.082 L21.131,18.442 L20.939,18.906 L21.453,19.933 C21.672,20.37 21.586,20.897 21.24,21.242 C20.895,21.588 20.37,21.673 19.931,21.458 L18.9,20.943 L18.437,21.136 L18.077,22.223 C17.923,22.688 17.491,23 17.001,23 C16.51,23 16.078,22.69 15.923,22.227 L15.559,21.138 L15.095,20.946 L14.072,21.46 C13.636,21.681 13.107,21.597 12.761,21.249 C12.737,21.226 12.714,21.197 12.696,21.17 C12.414,20.902 12.328,20.377 12.545,19.94 L13.06,18.906 L12.867,18.442 L11.777,18.081 C11.312,17.927 11,17.495 11,17.005 C11,16.513 11.311,16.081 11.774,15.926 L12.869,15.559 L13.06,15.096 L13.0120466,15 Z M12.5153674,14 C12.3382699,13.5772206 12.4314609,13.0865391 12.759,12.759 C13.105,12.411 13.633,12.324 14.07,12.544 L15.096,13.057 L15.56,12.865 L15.923,11.776 C16.077,11.312 16.509,11 16.999,11 C17.4239922,11 17.8047814,11.233751 18,11.5974958 L18,3 C18,2.44771525 17.5522847,2 17,2 L3,2 C2.44771525,2 2,2.44771525 2,3 L2,13 C2,13.5522847 2.44771525,14 3,14 L12.5153675,14 L12.5153674,14 Z M22,17.005 L22,17.002 C22,16.944 21.963,16.893 21.908,16.875 L20.599,16.437 C20.461,16.391 20.35,16.287 20.295,16.153 L19.93,15.267 C19.874,15.133 19.88,14.982 19.945,14.852 L20.564,13.62 C20.59,13.568 20.58,13.506 20.539,13.465 C20.495,13.422 20.432,13.413 20.383,13.438 L19.146,14.055 C19.016,14.121 18.865,14.125 18.731,14.07 L17.846,13.703 C17.712,13.647 17.609,13.536 17.563,13.399 L17.128,12.091 C17.091,11.981 16.908,11.985 16.872,12.091 L16.437,13.398 C16.391,13.535 16.288,13.646 16.154,13.702 L15.268,14.068 C15.134,14.124 14.983,14.118 14.853,14.054 L13.624,13.439 C13.572,13.412 13.509,13.422 13.469,13.463 C13.425,13.507 13.416,13.569 13.441,13.621 L14.057,14.853 C14.121,14.982 14.127,15.133 14.071,15.267 L13.706,16.152 C13.65,16.285 13.54,16.389 13.403,16.435 L12.092,16.875 C12.037,16.893 12,16.944 12,17.002 C12,17.063 12.037,17.114 12.092,17.132 L13.398,17.566 C13.536,17.611 13.646,17.714 13.702,17.848 L14.07,18.733 C14.126,18.866 14.121,19.018 14.057,19.148 L13.441,20.385 C13.415,20.437 13.425,20.498 13.465,20.539 C13.489,20.562 13.512,20.591 13.53,20.618 C13.509,20.583 13.571,20.593 13.622,20.568 L14.85,19.95 C14.92,19.914 14.998,19.897 15.075,19.897 C15.14,19.897 15.205,19.909 15.266,19.935 L16.152,20.301 C16.286,20.356 16.389,20.467 16.435,20.605 L16.871,21.909 C16.908,22.019 17.092,22.015 17.128,21.908 L17.561,20.605 C17.606,20.467 17.709,20.356 17.843,20.3 L18.729,19.933 C18.862,19.877 19.014,19.881 19.144,19.947 L20.377,20.563 C20.427,20.586 20.491,20.578 20.531,20.537 C20.574,20.494 20.585,20.432 20.559,20.38 L19.942,19.15 C19.878,19.021 19.872,18.869 19.928,18.735 L20.295,17.848 C20.351,17.714 20.462,17.611 20.6,17.566 L21.908,17.132 C21.963,17.114 22,17.063 22,17.005 Z M17,15.0001 C18.103,15.0001 19,15.8971 19,17.0001 C19,18.1031 18.103,19.0001 17,19.0001 C15.897,19.0001 15,18.1031 15,17.0001 C15,15.8971 15.897,15.0001 17,15.0001 Z M17,18.0001 C17.551,18.0001 18,17.5511 18,17.0001 C18,16.4491 17.551,16.0001 17,16.0001 C16.449,16.0001 16,16.4491 16,17.0001 C16,17.5511 16.449,18.0001 17,18.0001 Z M5.79289322,8.5 L4.14644661,6.85355339 C3.95118446,6.65829124 3.95118446,6.34170876 4.14644661,6.14644661 C4.34170876,5.95118446 4.65829124,5.95118446 4.85355339,6.14644661 L7.20710678,8.5 L4.85355339,10.8535534 C4.65829124,11.0488155 4.34170876,11.0488155 4.14644661,10.8535534 C3.95118446,10.6582912 3.95118446,10.3417088 4.14644661,10.1464466 L5.79289322,8.5 Z M8.5,11 C8.22385763,11 8,10.7761424 8,10.5 C8,10.2238576 8.22385763,10 8.5,10 L12.5,10 C12.7761424,10 13,10.2238576 13,10.5 C13,10.7761424 12.7761424,11 12.5,11 L8.5,11 Z" id="command-runner_24" fill="#00090D"></path>
    </g>
</svg>