<?xml version="1.0" encoding="UTF-8"?>
<svg width="24px" height="24px" viewBox="0 0 24 24" version="1.1" xmlns="http://www.w3.org/2000/svg" xmlns:xlink="http://www.w3.org/1999/xlink">
    <!-- Generator: Sketch 60.1 (88133) - https://sketch.com -->
    <title>Topology/compliance-topology_24</title>
    <desc>Created with Sketch.</desc>
    <g id="Topology/compliance-topology_24" stroke="none" stroke-width="1" fill="none" fill-rule="evenodd">
        <path d="M16.3175642,7.27805846 L21.1363801,2.17240822 C21.3259197,1.97158652 21.6423701,1.96244055 21.8431918,2.15198014 C22.0440135,2.34151972 22.0531594,2.65797007 21.8636199,2.85879178 L16.6136199,8.42129178 C16.3929902,8.65505414 16.0122765,8.62290255 15.8339749,8.3554501 L14.0839749,5.7304501 C13.9307986,5.50068575 13.9928856,5.19025108 14.2226499,5.03707485 C14.4524142,4.88389862 14.7628489,4.94598556 14.9160251,5.1757499 L16.3175642,7.27805846 Z M19.5,13.0156 C19.7761424,13.0156 20,13.2394576 20,13.5156 L20,21.5156 C20,21.7917424 19.7761424,22.0156 19.5,22.0156 L12.5,22.0156 C12.2238576,22.0156 12,21.7917424 12,21.5156 L12,13.5156 C12,13.2394576 12.2238576,13.0156 12.5,13.0156 L19.5,13.0156 Z M9.5,13.0156 C9.77614237,13.0156 10,13.2394576 10,13.5156 L10,21.5156 C10,21.7917424 9.77614237,22.0156 9.5,22.0156 L2.5,22.0156 C2.22385763,22.0156 2,21.7917424 2,21.5156 L2,13.5156 C2,13.2394576 2.22385763,13.0156 2.5,13.0156 L9.5,13.0156 Z M18,2 C18.2761424,2 18.5,2.22385763 18.5,2.5 C18.5,2.77614237 18.2761424,3 18,3 L13,3 L13,10.0156 L19,10.0156 L19,8.0156 C19,7.73945763 19.2238576,7.5156 19.5,7.5156 C19.7761424,7.5156 20,7.73945763 20,8.0156 L20,10.5156 C20,10.7917424 19.7761424,11.0156 19.5,11.0156 L12.5,11.0156 C12.2238576,11.0156 12,10.7917424 12,10.5156 L12,2.5 C12,2.22385763 12.2238576,2 12.5,2 L18,2 Z M9.5,2.0156 C9.77614237,2.0156 10,2.23945763 10,2.5156 L10,10.5156 C10,10.7917424 9.77614237,11.0156 9.5,11.0156 L2.5,11.0156 C2.22385763,11.0156 2,10.7917424 2,10.5156 L2,2.5156 C2,2.23945763 2.22385763,2.0156 2.5,2.0156 L9.5,2.0156 Z" id="secondary-color" fill="#FFA000"></path>
        <path d="M16.3175642,7.27805846 L21.1363801,2.17240822 C21.3259197,1.97158652 21.6423701,1.96244055 21.8431918,2.15198014 C22.0440135,2.34151972 22.0531594,2.65797007 21.8636199,2.85879178 L16.6136199,8.42129178 C16.3929902,8.65505414 16.0122765,8.62290255 15.8339749,8.3554501 L14.0839749,5.7304501 C13.9307986,5.50068575 13.9928856,5.19025108 14.2226499,5.03707485 C14.4524142,4.88389862 14.7628489,4.94598556 14.9160251,5.1757499 L16.3175642,7.27805846 Z M13,10.0156 L19,10.0156 L19,8.0156 C19,7.73945763 19.2238576,7.5156 19.5,7.5156 C19.7761424,7.5156 20,7.73945763 20,8.0156 L20,10.5156 C20,10.7917424 19.7761424,11.0156 19.5,11.0156 L12.5,11.0156 C12.2238576,11.0156 12,10.7917424 12,10.5156 L12,2.5 C12,2.22385763 12.2238576,2 12.5,2 L18,2 C18.2761424,2 18.5,2.22385763 18.5,2.5 C18.5,2.77614237 18.2761424,3 18,3 L13,3 L13,10.0156 Z M12.5,22.0156 C12.2238576,22.0156 12,21.7917424 12,21.5156 L12,13.5156 C12,13.2394576 12.2238576,13.0156 12.5,13.0156 L19.5,13.0156 C19.7761424,13.0156 20,13.2394576 20,13.5156 L20,21.5156 C20,21.7917424 19.7761424,22.0156 19.5,22.0156 L12.5,22.0156 Z M19,21.0156 L19,14.0156 L13,14.0156 L13,21.0156 L19,21.0156 Z M2.5,22.0156 C2.22385763,22.0156 2,21.7917424 2,21.5156 L2,13.5156 C2,13.2394576 2.22385763,13.0156 2.5,13.0156 L9.5,13.0156 C9.77614237,13.0156 10,13.2394576 10,13.5156 L10,21.5156 C10,21.7917424 9.77614237,22.0156 9.5,22.0156 L2.5,22.0156 Z M9,21.0156 L9,14.0156 L3,14.0156 L3,21.0156 L9,21.0156 Z M2.5,11.0156 C2.22385763,11.0156 2,10.7917424 2,10.5156 L2,2.5156 C2,2.23945763 2.22385763,2.0156 2.5,2.0156 L9.5,2.0156 C9.77614237,2.0156 10,2.23945763 10,2.5156 L10,10.5156 C10,10.7917424 9.77614237,11.0156 9.5,11.0156 L2.5,11.0156 Z M9,10.0156 L9,3.0156 L3,3.0156 L3,10.0156 L9,10.0156 Z" id="compliance-topology_24" fill="#00090D"></path>
    </g>
</svg>