<?xml version="1.0" encoding="UTF-8"?>
<svg width="24px" height="24px" viewBox="0 0 24 24" version="1.1" xmlns="http://www.w3.org/2000/svg" xmlns:xlink="http://www.w3.org/1999/xlink">
    <!-- Generator: Sketch 60.1 (88133) - https://sketch.com -->
    <title>Action/configuration/configuration-filled_24</title>
    <desc>Created with Sketch.</desc>
    <g id="Action/configuration/configuration-filled_24" stroke="none" stroke-width="1" fill="none" fill-rule="evenodd">
        <path d="M3.6074707,0.468039003 C6.07786854,-0.582048504 8.95516719,0.180015001 10.6047651,2.31219268 C11.7114953,3.74131178 12.0644093,5.95316663 11.6105199,7.71131314 L11.6105199,7.71131314 L16.295378,12.7150596 L23.2606802,19.6836403 C24.2464399,20.6697225 24.2464399,22.2748562 23.2606802,23.2609384 C22.7678003,23.7539795 22.1199583,24 21.4721162,24 C20.8252738,24 20.1774318,23.7539795 19.6835521,23.2609384 L19.6835521,23.2609384 L10.5657746,14.1401783 L9.8589469,13.4331194 L7.89842478,11.471956 C5.74594944,12.2430203 3.35953114,11.7179765 1.73392738,10.0898408 C0.0233443345,8.37969831 -0.471535038,5.83348612 0.473234673,3.60330028 C0.538218833,3.45028752 0.674185691,3.33927827 0.837145969,3.30727561 C1.00010625,3.27727311 1.16906506,3.32627719 1.28703631,3.44528711 L1.28703631,3.44528711 L4.55224041,6.71055921 C4.64121872,6.80056671 4.71020191,6.80056671 4.80117973,6.71055921 L4.80117973,6.71055921 L6.71471331,4.79739978 C6.78269674,4.72939412 6.78269674,4.61538462 6.71371355,4.54737895 L6.71371355,4.54737895 L3.4495092,1.28110676 C3.33153796,1.16409701 3.28055039,0.995082924 3.31154283,0.832069339 C3.34353503,0.669055755 3.45450798,0.532044337 3.6074707,0.468039003 Z" id="configuration-filled_24" fill="#00090D"></path>
    </g>
</svg>