<?xml version="1.0" encoding="UTF-8"?>
<svg width="16px" height="16px" viewBox="0 0 16 16" version="1.1" xmlns="http://www.w3.org/2000/svg" xmlns:xlink="http://www.w3.org/1999/xlink">
    <!-- Generator: Sketch 60.1 (88133) - https://sketch.com -->
    <title>Action/configuration/configuration-filled_16</title>
    <desc>Created with Sketch.</desc>
    <g id="Action/configuration/configuration-filled_16" stroke="none" stroke-width="1" fill="none" fill-rule="evenodd">
        <path d="M2.47081146,0.325578128 C4.1564274,-0.38888503 6.16690249,0.0911855204 7.23906747,1.58239287 C7.79708186,2.35850025 8.29205122,3.57655131 7.83114991,5.18143079 L7.83114991,5.18143079 L11.0482742,8.46211349 L15.4680232,12.8849807 C15.8115373,13.2292038 16.0002704,13.6875009 16.0002704,14.1758175 C16.0002704,14.664134 15.8115373,15.1224311 15.4680232,15.4666543 C15.112526,15.8218845 14.6461855,16 14.1798451,16 C13.7125061,16 13.2451671,15.8218845 12.8896699,15.4656536 L12.8896699,15.4656536 L7.06590671,9.63687504 L6.35890665,8.92941642 L5.27943341,7.84971649 C3.8414672,8.32202267 2.2646973,7.9547846 1.18122971,6.87208273 C0.0158779254,5.70532637 -0.320646111,3.96920091 0.322444333,2.44721426 C0.386353942,2.29411502 0.52316045,2.18404366 0.685930236,2.1520229 C0.84969861,2.1190015 1.01746133,2.17103523 1.13429609,2.28911177 L1.13429609,2.28911177 L3.26428354,4.41949281 L4.43063391,3.17068326 L2.31203602,1.1411068 C2.19420268,1.02303026 2.14327471,0.853920631 2.17522951,0.690814896 C2.20718432,0.527709161 2.31702896,0.390620292 2.47081146,0.325578128 Z" id="configuration-filled_16" fill="#00090D"></path>
    </g>
</svg>