<?xml version="1.0" encoding="UTF-8"?>
<svg width="16px" height="16px" viewBox="0 0 16 16" version="1.1" xmlns="http://www.w3.org/2000/svg" xmlns:xlink="http://www.w3.org/1999/xlink">
    <!-- Generator: Sketch 60.1 (88133) - https://sketch.com -->
    <title>Action/configuration/configuration_16</title>
    <desc>Created with Sketch.</desc>
    <g id="Action/configuration/configuration_16" stroke="none" stroke-width="1" fill="none" fill-rule="evenodd">
        <path d="M14.7620217,14.7589 C14.4414751,15.0799 13.9182151,15.0809 13.5966699,14.7589 L5.75875548,6.9209 C5.66289107,6.8249 5.53507185,6.7749 5.40525545,6.7749 C5.34034726,6.7749 5.27444047,6.7869 5.21152945,6.8139 C4.06515083,7.2969 2.76199395,7.0449 1.88723117,6.1699 C1.20120146,5.4839 0.896632229,4.5339 1.03044297,3.6059 L2.55928066,5.1349 C2.92676091,5.5019 3.52291774,5.5009 3.88840082,5.1349 L5.13563679,3.8869 C5.31438398,3.7099 5.41224557,3.4729 5.41224557,3.2209 C5.41224557,2.9699 5.31438398,2.7329 5.13663538,2.5549 L3.61079345,1.0299 C4.67029494,0.8809 5.75775689,1.3079 6.43879367,2.1869 C7.09286857,3.0329 7.23566661,4.1889 6.81126686,5.2039 C6.73237843,5.3909 6.7753177,5.6079 6.91911432,5.7509 L14.7620217,13.5949 L14.7620217,13.5949 C14.9168028,13.7489 15.0016827,13.9559 15.0016827,14.1769 C15.0016827,14.3979 14.9168028,14.6039 14.7620217,14.7589 L14.7620217,14.7589 Z M11.0482742,8.4626315 L7.83114991,5.18217425 C8.29205122,3.57740506 7.7902815,2.35833817 7.23226711,1.58228413 C6.16010213,0.0911792541 4.14962705,-0.388858306 2.4640111,0.325555754 C2.31022861,0.390593448 2.20038397,0.527672897 2.16842916,0.690767423 C2.13647436,0.853861949 2.18740233,1.02295995 2.30523567,1.14102839 L4.43063391,3.1715649 L3.26428354,4.42028864 L1.13429609,2.290054 C1.01746133,2.17198557 0.84969861,2.11995541 0.685930236,2.15297455 C0.52316045,2.1849931 0.386353942,2.2950569 0.322444333,2.44814562 C-0.320646111,3.97002767 0.0158779254,5.70603383 1.18122971,6.87271001 C2.2646973,7.95533748 3.8414672,8.32255031 5.27943341,7.85027659 L6.35890665,8.92990232 L7.06590671,9.63731232 L12.8896699,15.4656903 C13.2451671,15.8218968 13.7125061,16 14.1798451,16 C14.6461855,16 15.112526,15.8218968 15.4680232,15.4666909 C15.8115373,15.1224914 16.0002704,14.6642258 16.0002704,14.1759428 C16.0002704,13.6876598 15.8115373,13.2293942 15.4680232,12.8851947 L11.0482742,8.4626315 Z" id="configuration_16" fill="#00090D"></path>
    </g>
</svg>