<?xml version="1.0" encoding="UTF-8"?>
<svg width="24px" height="24px" viewBox="0 0 24 24" version="1.1" xmlns="http://www.w3.org/2000/svg" xmlns:xlink="http://www.w3.org/1999/xlink">
    <!-- Generator: Sketch 60.1 (88133) - https://sketch.com -->
    <title>Topology/console-port-topology_24</title>
    <desc>Created with Sketch.</desc>
    <g id="Topology/console-port-topology_24" stroke="none" stroke-width="1" fill="none" fill-rule="evenodd">
        <path d="M1.55051183,14.600843 L1.38991627,14.2234074 C0.921377616,13.1222366 0.921380003,10.8777623 1.38992288,9.77659329 L1.55050817,9.3991859 C1.92576886,8.51724857 2.79153983,7.94473741 3.74999381,7.94472494 L4.71133769,7.94471244 C4.80563149,7.94471121 4.89800301,7.9180463 4.97779119,7.86779525 L5.98928346,7.23075156 C6.2286536,7.07999486 6.50577542,7 6.78866347,7 L17.2113287,7 C17.4942247,7 17.771354,7.07999934 18.0107285,7.23076397 L19.0221993,7.86781613 C19.1019927,7.91807218 19.1943716,7.94473868 19.2886724,7.94473745 L20.2499938,7.94472494 C21.2084491,7.94471247 22.074231,8.51721701 22.4494888,9.39915701 L22.6100844,9.77659256 C23.0786229,10.8777632 23.0786229,13.1222368 22.6100844,14.2234074 L22.4378762,14.6281352 C22.0696602,15.4935254 21.22013,16.0552913 20.2796604,16.0552913 L19.3386142,16.0552913 C19.2472643,16.0552913 19.15766,16.0803172 19.0795303,16.1276518 L17.9979583,16.7829185 C17.7635693,16.9249222 17.4947563,17 17.2207066,17 L6.78866347,17 C6.50577542,17 6.2286536,16.9200051 5.98928346,16.7692484 L4.97779715,16.1322085 C4.8980071,16.0819563 4.80563316,16.0552913 4.71133715,16.0552913 L3.75000031,16.0552913 C2.79154557,16.0552913 1.92576943,15.4827825 1.55051183,14.600843 Z" id="secondary-color" fill="#FFA000"></path>
        <path d="M1.55051183,14.600843 L1.38991627,14.2234074 C0.921377616,13.1222366 0.921380003,10.8777623 1.38992288,9.77659329 L1.55050817,9.3991859 C1.92576886,8.51724857 2.79153983,7.94473741 3.74999381,7.94472494 L4.71133769,7.94471244 C4.80563149,7.94471121 4.89800301,7.9180463 4.97779119,7.86779525 L5.98928346,7.23075156 C6.2286536,7.07999486 6.50577542,7 6.78866347,7 L17.2113287,7 C17.4942247,7 17.771354,7.07999934 18.0107285,7.23076397 L19.0221993,7.86781613 C19.1019927,7.91807218 19.1943716,7.94473868 19.2886724,7.94473745 L20.2499938,7.94472494 C21.2084491,7.94471247 22.074231,8.51721701 22.4494888,9.39915701 L22.6100844,9.77659256 C23.0786229,10.8777632 23.0786229,13.1222368 22.6100844,14.2234074 L22.4378762,14.6281352 C22.0696602,15.4935254 21.22013,16.0552913 20.2796604,16.0552913 L19.3386142,16.0552913 C19.2472643,16.0552913 19.15766,16.0803172 19.0795303,16.1276518 L17.9979583,16.7829185 C17.7635693,16.9249222 17.4947563,17 17.2207066,17 L6.78866347,17 C6.50577542,17 6.2286536,16.9200051 5.98928346,16.7692484 L4.97779715,16.1322085 C4.8980071,16.0819563 4.80563316,16.0552913 4.71133715,16.0552913 L3.75000031,16.0552913 C2.79154557,16.0552913 1.92576943,15.4827825 1.55051183,14.600843 Z M2.47067991,14.2093194 C2.68894644,14.7222947 3.19252038,15.0552913 3.75000031,15.0552913 L4.71133715,15.0552913 C4.9942252,15.0552913 5.27134702,15.1352862 5.51071716,15.2860429 L6.52220347,15.9230828 C6.60199352,15.973335 6.69436746,16 6.78866347,16 L17.2207066,16 C17.3120565,16 17.4016608,15.9749741 17.4797905,15.9276395 L18.5613625,15.2723728 C18.7957515,15.1303691 19.0645644,15.0552913 19.3386142,15.0552913 L20.2796604,15.0552913 C20.8191552,15.0552913 21.3064832,14.7330376 21.5177081,14.2366117 L21.6899163,13.8318839 C22.0520123,12.9808771 22.0520123,11.0191229 21.6899163,10.1681161 L21.5293207,9.79068056 C21.3110558,9.27770913 20.8074826,8.94471769 20.2500068,8.94472494 L19.2886854,8.94473745 C19.0057828,8.94474113 18.7286463,8.86474165 18.4892662,8.71397348 L17.4777953,8.07692132 C17.3980038,8.02666645 17.3056274,8 17.2113287,8 L6.78866347,8 C6.69436746,8 6.60199352,8.02666495 6.52220347,8.07691719 L5.5107112,8.71396087 C5.27134667,8.86471404 4.99423211,8.94470876 4.7113507,8.94471244 L3.75000682,8.94472494 C3.19252152,8.9447322 2.68894534,9.27773363 2.47067475,9.79071298 L2.31008946,10.1681204 C1.94799062,11.0191247 1.94798878,12.9808781 2.31008435,13.8318839 L2.47067991,14.2093194 Z M6.55742346,9.55175708 C6.55563399,9.53456275 6.55473745,9.51728719 6.55473745,9.5 C6.55473745,9.22385763 6.77859507,9 7.05473745,9 L16.9771477,9 C16.9956715,9 17.0141811,9.0010294 17.0325907,9.00308344 C17.3070302,9.03370381 17.5046846,9.28100364 17.4740642,9.55544308 L16.9161931,14.5554431 C16.8879518,14.8085597 16.6739638,15 16.4192765,15 L7.57510365,15 C7.31899926,15 7.10430009,14.8064857 7.07778966,14.5517571 L6.55742346,9.55175708 Z M20.0000003,13 C19.4477156,13 19.0000003,12.5522848 19.0000003,12 C19.0000003,11.4477152 19.4477156,11 20.0000003,11 C20.5522851,11 21.0000003,11.4477152 21.0000003,12 C21.0000003,12.5522848 20.5522851,13 20.0000003,13 Z M4.00000031,13 C3.44771556,13 3.00000031,12.5522848 3.00000031,12 C3.00000031,11.4477152 3.44771556,11 4.00000031,11 C4.55228506,11 5.00000031,11.4477152 5.00000031,12 C5.00000031,12.5522848 4.55228506,13 4.00000031,13 Z" id="console-port-topology_24" fill="#00090D"></path>
    </g>
</svg>