<?xml version="1.0" encoding="UTF-8"?>
<svg width="16px" height="16px" viewBox="0 0 16 16" version="1.1" xmlns="http://www.w3.org/2000/svg" xmlns:xlink="http://www.w3.org/1999/xlink">
    <!-- Generator: Sketch 60.1 (88133) - https://sketch.com -->
    <title>Networking/Endpoints/controller/controller-filled_16</title>
    <desc>Created with Sketch.</desc>
    <g id="Networking/Endpoints/controller/controller-filled_16" stroke="none" stroke-width="1" fill="none" fill-rule="evenodd">
        <path d="M11.6363636,3 C13.0909091,3 16,7.72727273 16,11.7272727 C16,12.8181785 15.7745806,13 14.5538251,13 C13.7966637,13 13.4509206,12.8992358 11.6363636,11 C10.9090909,9.90909091 9.09090909,9.54545455 8,9.54545455 C6.90909091,9.54545455 5.09090909,9.90909091 4.36363636,11 C2.54907937,12.8992358 2.21170694,13 1.45454545,13 C0.233789977,13 0,12.8181731 0,11.7272727 C0,7.72727273 2.90909091,3 4.36363636,3 C5.62376577,3 6.75274364,3.94519649 8,3.72727273 C9.24725636,3.94519649 10.3762342,3 11.6363636,3 Z M9.66666667,6.53333333 C9.48257175,6.53333333 9.33333333,6.68257175 9.33333333,6.86666667 C9.33333333,7.05076158 9.48257175,7.2 9.66666667,7.2 C9.85076158,7.2 10,7.05076158 10,6.86666667 C10,6.68257175 9.85076158,6.53333333 9.66666667,6.53333333 Z M8.33333333,5.86666667 C8.14923842,5.86666667 8,6.01590508 8,6.2 C8,6.38409492 8.14923842,6.53333333 8.33333333,6.53333333 C8.51742825,6.53333333 8.66666667,6.38409492 8.66666667,6.2 C8.66666667,6.01590508 8.51742825,5.86666667 8.33333333,5.86666667 Z M11,5.86666667 C10.8159051,5.86666667 10.6666667,6.01590508 10.6666667,6.2 C10.6666667,6.38409492 10.8159051,6.53333333 11,6.53333333 C11.1840949,6.53333333 11.3333333,6.38409492 11.3333333,6.2 C11.3333333,6.01590508 11.1840949,5.86666667 11,5.86666667 Z M9.66666667,5.2 C9.48257175,5.2 9.33333333,5.34923842 9.33333333,5.53333334 C9.33333333,5.71742825 9.48257175,5.86666667 9.66666667,5.86666667 C9.85076158,5.86666667 10,5.71742825 10,5.53333334 C10,5.34923842 9.85076158,5.2 9.66666667,5.2 Z" id="controller-filled_16" fill="#00090D"></path>
    </g>
</svg>