<?xml version="1.0" encoding="UTF-8"?>
<svg width="24px" height="24px" viewBox="0 0 24 24" version="1.1" xmlns="http://www.w3.org/2000/svg" xmlns:xlink="http://www.w3.org/1999/xlink">
    <!-- Generator: Sketch 60.1 (88133) - https://sketch.com -->
    <title>Networking/Endpoints/controller/controller_24</title>
    <desc>Created with Sketch.</desc>
    <g id="Networking/Endpoints/controller/controller_24" stroke="none" stroke-width="1" fill="none" fill-rule="evenodd">
        <path d="M21,18 C22.0376033,18 22.0003412,18.0404953 22.0003412,17 C22.0003412,14.6327175 21.1764027,11.8293191 19.8702935,9.41301703 C18.7668378,7.37162403 17.4722713,6 17,6 C16.5043732,6 16.0705569,6.11358083 15.0822507,6.46472115 C14.8765073,6.53782075 14.8012722,6.5643768 14.6927952,6.6018138 C13.6055902,6.97702409 12.8404479,7.12509024 12,7.01174741 C11.1595521,7.12509024 10.3944098,6.97702409 9.30720482,6.6018138 C9.19872779,6.5643768 9.12349266,6.53782075 8.91774929,6.46472115 C7.92944309,6.11358083 7.49562682,6 7,6 C6.52772869,6 5.23316219,7.37162403 4.12970651,9.41301703 C2.82359727,11.8293191 1.99965883,14.6327175 1.99965883,17 C1.99965883,18.0404917 1.96240023,18 3,18 C3.61605159,18 3.92592114,17.7684949 6.22138827,15.3673418 C7.3333902,13.7889529 9.73661655,13 12,13 C14.2633834,13 16.6666098,13.7889529 17.7786117,15.3673418 C20.0740789,17.7684949 20.3839484,18 21,18 Z M17,16 C16,14.5 13.5,14 12,14 C10.5,14 8,14.5 7,16 C4.50498414,18.6114493 4.04109704,19 3,19 C1.32146122,19 1,18.4999879 1,17 C1,11.5 5,5 7,5 C8.73267794,5 10.2850225,6.29964517 12,6 C13.7149775,6.29964517 15.2673221,5 17,5 C19,5 23,11.5 23,17 C23,18.5 22.6785388,19 21,19 C19.958903,19 19.4950159,18.6114493 17,16 Z M12.5,9 C12.2238576,9 12,9.22385763 12,9.5 C12,9.77614237 12.2238576,10 12.5,10 C12.7761424,10 13,9.77614237 13,9.5 C13,9.22385763 12.7761424,9 12.5,9 Z M16.5,9 C16.2238576,9 16,9.22385763 16,9.5 C16,9.77614237 16.2238576,10 16.5,10 C16.7761424,10 17,9.77614237 17,9.5 C17,9.22385763 16.7761424,9 16.5,9 Z M14.5,8 C14.2238576,8 14,8.22385763 14,8.5 C14,8.77614237 14.2238576,9 14.5,9 C14.7761424,9 15,8.77614237 15,8.5 C15,8.22385763 14.7761424,8 14.5,8 Z M14.5,10 C14.2238576,10 14,10.2238576 14,10.5 C14,10.7761424 14.2238576,11 14.5,11 C14.7761424,11 15,10.7761424 15,10.5 C15,10.2238576 14.7761424,10 14.5,10 Z" id="controller_24" fill="#00090D"></path>
    </g>
</svg>