<?xml version="1.0" encoding="UTF-8"?>
<svg width="16px" height="16px" viewBox="0 0 16 16" version="1.1" xmlns="http://www.w3.org/2000/svg" xmlns:xlink="http://www.w3.org/1999/xlink">
    <!-- Generator: Sketch 60.1 (88133) - https://sketch.com -->
    <title>Topology/Endpoints/controller/controller-topology_16</title>
    <desc>Created with Sketch.</desc>
    <g id="Topology/Endpoints/controller/controller-topology_16" stroke="none" stroke-width="1" fill="none" fill-rule="evenodd">
        <path d="M11.6363636,3 C13.0909091,3 16,7.72727273 16,11.7272727 C16,12.8181785 15.76621,13 14.5454545,13 C13.7882931,13 13.4509206,12.8992358 11.6363636,11 C10.9090909,9.90909091 9.09090909,9.54545455 8,9.54545455 C6.90909091,9.54545455 5.09090909,9.90909091 4.36363636,11 C2.54907937,12.8992358 2.21170694,13 1.45454545,13 C0.233789977,13 0,12.8181731 0,11.7272727 C0,7.72727273 2.90909091,3 4.36363636,3 C5.62376577,3 6.75274364,3.94519649 8,3.72727273 C9.24725636,3.94519649 10.3762342,3 11.6363636,3 Z" id="secondary-color" fill="#FFA000"></path>
        <path d="M14.2998918,12 C15.0262016,12 15.0001187,12.178202 15.0001187,11.4498678 C15.0001187,9.7927985 14.4233716,7.83045332 13.5091108,6.1390709 C12.7367051,4.71012033 11.7936169,4 11.4630327,4 C11.1160999,4 10.8124337,4.07950522 10.1206312,4.32529922 C9.97661335,4.37646806 9.92394966,4.39505697 9.84801704,4.42126243 C9.08698662,4.68390512 8.55139619,4.78754964 7.96309279,4.70821103 C7.37478939,4.78754964 6.83919896,4.68390512 6.07816854,4.42126243 C6.00223591,4.39505697 5.94957223,4.37646806 5.80555434,4.32529922 C5.11375188,4.07950522 4.81008571,4 4.46315289,4 C4.13256865,4 3.26329486,4.71012033 2.49088915,6.1390709 C1.57662838,7.83045332 0.999881375,9.7927985 0.999881375,11.4498678 C0.999881375,12.1781994 0.973800808,12 1.70010817,12 C2.13133688,12 2.34824184,11.987805 3.95504123,10.3070266 C4.73342922,9.20217338 6.41565878,8.64991586 8,8.64991586 C9.58434119,8.64991586 11.2665707,9.20217338 12.0449587,10.3070266 C13.6517581,11.987805 13.8686631,12 14.2998918,12 Z M11.6363636,11 C10.9090909,9.90909091 9.09090909,9.54545455 8,9.54545455 C6.90909091,9.54545455 5.09090909,9.90909091 4.36363636,11 C2.54907937,12.8992358 2.21170694,13 1.45454545,13 C0.233789977,13 0,12.8181731 0,11.7272727 C0,7.72727273 2.90909091,3 4.36363636,3 C5.62376577,3 6.75274364,3.94519649 8,3.72727273 C9.24725636,3.94519649 10.3762342,3 11.6363636,3 C13.0909091,3 16,7.72727273 16,11.7272727 C16,12.8181785 15.76621,13 14.5454545,13 C13.7882931,13 13.4509206,12.8992358 11.6363636,11 Z M8.33333333,5.86666667 C8.51742825,5.86666667 8.66666667,6.01590508 8.66666667,6.2 C8.66666667,6.38409492 8.51742825,6.53333333 8.33333333,6.53333333 C8.14923842,6.53333333 8,6.38409492 8,6.2 C8,6.01590508 8.14923842,5.86666667 8.33333333,5.86666667 Z M11,5.86666667 C11.1840949,5.86666667 11.3333333,6.01590508 11.3333333,6.2 C11.3333333,6.38409492 11.1840949,6.53333333 11,6.53333333 C10.8159051,6.53333333 10.6666667,6.38409492 10.6666667,6.2 C10.6666667,6.01590508 10.8159051,5.86666667 11,5.86666667 Z M9.66666667,5.2 C9.85076158,5.2 10,5.34923842 10,5.53333334 C10,5.71742825 9.85076158,5.86666667 9.66666667,5.86666667 C9.48257175,5.86666667 9.33333333,5.71742825 9.33333333,5.53333334 C9.33333333,5.34923842 9.48257175,5.2 9.66666667,5.2 Z M9.66666667,6.53333333 C9.85076158,6.53333333 10,6.68257175 10,6.86666667 C10,7.05076158 9.85076158,7.2 9.66666667,7.2 C9.48257175,7.2 9.33333333,7.05076158 9.33333333,6.86666667 C9.33333333,6.68257175 9.48257175,6.53333333 9.66666667,6.53333333 Z" id="controller-topology_16" fill="#00090D"></path>
    </g>
</svg>