<?xml version="1.0" encoding="UTF-8"?>
<svg width="24px" height="24px" viewBox="0 0 24 24" version="1.1" xmlns="http://www.w3.org/2000/svg" xmlns:xlink="http://www.w3.org/1999/xlink">
    <!-- Generator: Sketch 60.1 (88133) - https://sketch.com -->
    <title>Networking/Endpoints/controller/controller-filled_24</title>
    <desc>Created with Sketch.</desc>
    <g id="Networking/Endpoints/controller/controller-filled_24" stroke="none" stroke-width="1" fill="none" fill-rule="evenodd">
        <path d="M17,5 C19,5 23,11.5 23,17 C23,18.5 22.6785388,19 21,19 C19.958903,19 19.4950159,18.6114493 17,16 C16,14.5 13.5,14 12,14 C10.5,14 8,14.5 7,16 C4.50498414,18.6114493 4.04109704,19 3,19 C1.32146122,19 1,18.4999879 1,17 C1,11.5 5,5 7,5 C8.73267794,5 10.2850225,6.29964517 12,6 C13.7149775,6.29964517 15.2673221,5 17,5 Z M12.5,9 C12.2238576,9 12,9.22385763 12,9.5 C12,9.77614237 12.2238576,10 12.5,10 C12.7761424,10 13,9.77614237 13,9.5 C13,9.22385763 12.7761424,9 12.5,9 Z M16.5,9 C16.2238576,9 16,9.22385763 16,9.5 C16,9.77614237 16.2238576,10 16.5,10 C16.7761424,10 17,9.77614237 17,9.5 C17,9.22385763 16.7761424,9 16.5,9 Z M14.5,8 C14.2238576,8 14,8.22385763 14,8.5 C14,8.77614237 14.2238576,9 14.5,9 C14.7761424,9 15,8.77614237 15,8.5 C15,8.22385763 14.7761424,8 14.5,8 Z M14.5,10 C14.2238576,10 14,10.2238576 14,10.5 C14,10.7761424 14.2238576,11 14.5,11 C14.7761424,11 15,10.7761424 15,10.5 C15,10.2238576 14.7761424,10 14.5,10 Z" id="controller-filled_24" fill="#00090D"></path>
    </g>
</svg>