<?xml version="1.0" encoding="UTF-8"?>
<svg width="16px" height="16px" viewBox="0 0 16 16" version="1.1" xmlns="http://www.w3.org/2000/svg" xmlns:xlink="http://www.w3.org/1999/xlink">
    <!-- Generator: Sketch 60.1 (88133) - https://sketch.com -->
    <title>Action/copy &amp; duplicate/copy_16</title>
    <desc>Created with Sketch.</desc>
    <g id="Action/copy-&amp;-duplicate/copy_16" stroke="none" stroke-width="1" fill="none" fill-rule="evenodd">
        <path d="M9.5,1 L4,1 C3.448,1 3,1.448 3,2 L3,10.5 C3,10.776 2.776,11 2.5,11 C2.224,11 2,10.776 2,10.5 L2,2 C2,0.897 2.897,0 4,0 L9.5,0 C9.776,0 10,0.224 10,0.5 C10,0.776 9.776,1 9.5,1 Z M12,2 C13.103,2 14,2.897 14,4 L14,14 C14,15.103 13.103,16 12,16 L6,16 C4.897,16 4,15.103 4,14 L4,4 C4,2.897 4.897,2 6,2 L12,2 Z M13,14 L13,4 C13,3.448 12.552,3 12,3 L6,3 C5.448,3 5,3.448 5,4 L5,14 C5,14.552 5.448,15 6,15 L12,15 C12.552,15 13,14.552 13,14 Z" id="copy_16" fill="#00090D"></path>
    </g>
</svg>