<?xml version="1.0" encoding="UTF-8"?>
<svg width="24px" height="24px" viewBox="0 0 24 24" version="1.1" xmlns="http://www.w3.org/2000/svg" xmlns:xlink="http://www.w3.org/1999/xlink">
    <!-- Generator: Sketch 60.1 (88133) - https://sketch.com -->
    <title>Action/play &amp; pause/current_24</title>
    <desc>Created with Sketch.</desc>
    <g id="Action/play-&amp;-pause/current_24" stroke="none" stroke-width="1" fill="none" fill-rule="evenodd">
        <path d="M11.7641644,11.9999 L5.15987885,5.8659 C4.95734876,5.6779 4.9463199,5.3609 5.13481324,5.1589 C5.32330659,4.9579 5.64113846,4.9459 5.84366854,5.1339 L12.8409828,11.6339 C12.9432504,11.7289 13.0004,11.8609 13.0004,11.9999 C13.0004,12.1389 12.9432504,12.2709 12.8409828,12.3659 L5.84366854,18.8689 C5.746414,18.9589 5.62409385,19.0029 5.5017737,19.0029 C5.36742205,19.0029 5.23307041,18.9499 5.13481324,18.8439 C4.9463199,18.6419 4.95734876,18.3259 5.15987885,18.1379 L11.7641644,11.9999 Z M17,5.5 C17,5.22385763 17.2238576,5 17.5,5 C17.7761424,5 18,5.22385763 18,5.5 L18,18.5 C18,18.7761424 17.7761424,19 17.5,19 C17.2238576,19 17,18.7761424 17,18.5 L17,5.5 Z M3.5,1 L20.5,1 C21.8807119,1 23,2.11928813 23,3.5 L23,20.5 C23,21.8807119 21.8807119,23 20.5,23 L3.5,23 C2.11928813,23 1,21.8807119 1,20.5 L1,3.5 C1,2.11928813 2.11928813,1 3.5,1 Z M3.5,2 C2.67157288,2 2,2.67157288 2,3.5 L2,20.5 C2,21.3284271 2.67157288,22 3.5,22 L20.5,22 C21.3284271,22 22,21.3284271 22,20.5 L22,3.5 C22,2.67157288 21.3284271,2 20.5,2 L3.5,2 Z" id="current_24" fill="#00090D"></path>
    </g>
</svg>