<?xml version="1.0" encoding="UTF-8"?>
<svg width="16px" height="16px" viewBox="0 0 16 16" version="1.1" xmlns="http://www.w3.org/2000/svg" xmlns:xlink="http://www.w3.org/1999/xlink">
    <!-- Generator: Sketch 60.1 (88133) - https://sketch.com -->
    <title>Tools / application / custom-application_16</title>
    <desc>Created with Sketch.</desc>
    <g id="Tools-/-application-/-custom-application_16" stroke="none" stroke-width="1" fill="none" fill-rule="evenodd">
        <path d="M15,5 L15,3 C15,2.44771525 14.5522847,2 14,2 L2,2 C1.44771525,2 1,2.44771525 1,3 L1,5 L15,5 Z M15,6 L1,6 L1,13 C1,13.5522847 1.44771525,14 2,14 L14,14 C14.5522847,14 15,13.5522847 15,13 L15,6 Z M2,1 L14,1 C15.1045695,1 16,1.8954305 16,3 L16,13 C16,14.1045695 15.1045695,15 14,15 L2,15 C0.8954305,15 2.27373675e-13,14.1045695 2.27373675e-13,13 L2.27373675e-13,3 C2.27373675e-13,1.8954305 0.8954305,1 2,1 Z M13.5,4 C13.2238576,4 13,3.77614237 13,3.5 C13,3.22385763 13.2238576,3 13.5,3 C13.7761424,3 14,3.22385763 14,3.5 C14,3.77614237 13.7761424,4 13.5,4 Z M11.5,4 C11.2238576,4 11,3.77614237 11,3.5 C11,3.22385763 11.2238576,3 11.5,3 C11.7761424,3 12,3.22385763 12,3.5 C12,3.77614237 11.7761424,4 11.5,4 Z M9.5,4 C9.22385763,4 9,3.77614237 9,3.5 C9,3.22385763 9.22385763,3 9.5,3 C9.77614237,3 10,3.22385763 10,3.5 C10,3.77614237 9.77614237,4 9.5,4 Z" id="custom-application_16" fill="#00090D"></path>
    </g>
</svg>