<?xml version="1.0" encoding="UTF-8"?>
<svg width="30px" height="30px" viewBox="0 0 30 30" version="1.1" xmlns="http://www.w3.org/2000/svg" xmlns:xlink="http://www.w3.org/1999/xlink">
    <title>Tools / application / custom-application_30</title>
    <g id="Tools-/-application-/-custom-application_30" stroke="none" stroke-width="1" fill="none" fill-rule="evenodd">
        <path d="M30,23 C30,24.6568542 28.6568542,26 27,26 L3,26 C1.34314575,26 0,24.6568542 0,23 L0,7 C0,5.34314575 1.34314575,4 3,4 L27,4 C28.6568542,4 30,5.34314575 30,7 L30,23 Z M1,11 L1,23 C1,24.0543618 1.81587779,24.9181651 2.85073766,24.9945143 L3,25 L27,25 C28.0543618,25 28.9181651,24.1841222 28.9945143,23.1492623 L29,23 L29,11 L1,11 Z M26.5,7 C26.7761424,7 27,7.22385763 27,7.5 C27,7.77614237 26.7761424,8 26.5,8 C26.2238576,8 26,7.77614237 26,7.5 C26,7.22385763 26.2238576,7 26.5,7 Z M23.5,7 C23.7761424,7 24,7.22385763 24,7.5 C24,7.77614237 23.7761424,8 23.5,8 C23.2238576,8 23,7.77614237 23,7.5 C23,7.22385763 23.2238576,7 23.5,7 Z M20.5,7 C20.7761424,7 21,7.22385763 21,7.5 C21,7.77614237 20.7761424,8 20.5,8 C20.2238576,8 20,7.77614237 20,7.5 C20,7.22385763 20.2238576,7 20.5,7 Z M1,10 L29,10 L29,7 C29,5.9456382 28.1841222,5.08183488 27.1492623,5.00548574 L27,5 L3,5 C1.9456382,5 1.08183488,5.81587779 1.00548574,6.85073766 L1,7 L1,10 Z" id="Combined-Shape" fill="#545454"></path>
    </g>
</svg>