<?xml version="1.0" encoding="UTF-8"?>
<svg width="24px" height="24px" viewBox="0 0 24 24" version="1.1" xmlns="http://www.w3.org/2000/svg" xmlns:xlink="http://www.w3.org/1999/xlink">
    <!-- Generator: Sketch 60.1 (88133) - https://sketch.com -->
    <title>Navigation / view-dashboard / dashboard-view_24</title>
    <desc>Created with Sketch.</desc>
    <g id="Navigation-/-view-dashboard-/-dashboard-view_24" stroke="none" stroke-width="1" fill="none" fill-rule="evenodd">
        <path d="M21,16 C21.5522847,16 22,16.4477153 22,17 L22,21 C22,21.5522847 21.5522847,22 21,22 L14,22 C13.4477153,22 13,21.5522847 13,21 L13,17 C13,16.4477153 13.4477153,16 14,16 L21,16 Z M10,10 C10.5522847,10 11,10.4477153 11,11 L11,21 C11,21.5522847 10.5522847,22 10,22 L3,22 C2.44771525,22 2,21.5522847 2,21 L2,11 C2,10.4477153 2.44771525,10 3,10 L10,10 Z M21,17 L14,17 L14,21 L21,21 L21,17 Z M10,11 L3,11 L3,21 L10,21 L10,11 Z M21,2 C21.5522847,2 22,2.44771525 22,3 L22,13 C22,13.5522847 21.5522847,14 21,14 L14,14 C13.4477153,14 13,13.5522847 13,13 L13,3 C13,2.44771525 13.4477153,2 14,2 L21,2 Z M21,3 L14,3 L14,13 L21,13 L21,3 Z M10,2 C10.5522847,2 11,2.44771525 11,3 L11,7 C11,7.55228475 10.5522847,8 10,8 L3,8 C2.44771525,8 2,7.55228475 2,7 L2,3 C2,2.44771525 2.44771525,2 3,2 L10,2 Z M10,3 L3,3 L3,7 L10,7 L10,3 Z" id="dashboard-view_24" fill="#00090D"></path>
    </g>
</svg>