<?xml version="1.0" encoding="UTF-8"?>
<svg width="24px" height="24px" viewBox="0 0 24 24" version="1.1" xmlns="http://www.w3.org/2000/svg" xmlns:xlink="http://www.w3.org/1999/xlink">
    <!-- Generator: Sketch 60.1 (88133) - https://sketch.com -->
    <title>Tools / dashboard / dashboard_24</title>
    <desc>Created with Sketch.</desc>
    <g id="Tools-/-dashboard-/-dashboard_24" stroke="none" stroke-width="1" fill="none" fill-rule="evenodd">
        <path d="M4,2 L20,2 C21.1045695,2 22,2.8954305 22,4 L22,20 C22,21.1045695 21.1045695,22 20,22 L4,22 C2.8954305,22 2,21.1045695 2,20 L2,4 C2,2.8954305 2.8954305,2 4,2 Z M4,3 C3.44771525,3 3,3.44771525 3,4 L3,20 C3,20.5522847 3.44771525,21 4,21 L20,21 C20.5522847,21 21,20.5522847 21,20 L21,4 C21,3.44771525 20.5522847,3 20,3 L4,3 Z M7.5,12 C7.77614237,12 8,12.2238576 8,12.5 L8,18.5 C8,18.7761424 7.77614237,19 7.5,19 C7.22385763,19 7,18.7761424 7,18.5 L7,12.5 C7,12.2238576 7.22385763,12 7.5,12 Z M13.5,12 C13.7761424,12 14,12.2238576 14,12.5 L14,18.5 C14,18.7761424 13.7761424,19 13.5,19 C13.2238576,19 13,18.7761424 13,18.5 L13,12.5 C13,12.2238576 13.2238576,12 13.5,12 Z M10.5,9 C10.7761424,9 11,9.22385763 11,9.5 L11,18.5 C11,18.7761424 10.7761424,19 10.5,19 C10.2238576,19 10,18.7761424 10,18.5 L10,9.5 C10,9.22385763 10.2238576,9 10.5,9 Z M16.5,13 C16.7761424,13 17,13.2238576 17,13.5 L17,18.5 C17,18.7761424 16.7761424,19 16.5,19 C16.2238576,19 16,18.7761424 16,18.5 L16,13.5 C16,13.2238576 16.2238576,13 16.5,13 Z" id="dashboard_24" fill="#00090D"></path>
    </g>
</svg>