<?xml version="1.0" encoding="UTF-8"?>
<svg width="16px" height="16px" viewBox="0 0 16 16" version="1.1" xmlns="http://www.w3.org/2000/svg" xmlns:xlink="http://www.w3.org/1999/xlink">
    <!-- Generator: Sketch 60.1 (88133) - https://sketch.com -->
    <title>Tools / dashboard / dashboard_16</title>
    <desc>Created with Sketch.</desc>
    <g id="Tools-/-dashboard-/-dashboard_16" stroke="none" stroke-width="1" fill="none" fill-rule="evenodd">
        <path d="M3,1 L13,1 C14.1045695,1 15,1.8954305 15,3 L15,13 C15,14.1045695 14.1045695,15 13,15 L3,15 C1.8954305,15 1,14.1045695 1,13 L1,3 C1,1.8954305 1.8954305,1 3,1 Z M13,2 C13.5522847,2 14,2.44771525 14,3 L14,3 L14,13 C14,13.5522847 13.5522847,14 13,14 L13,14 L3,14 C2.44771525,14 2,13.5522847 2,13 L2,13 L2,3 C2,2.44771525 2.44771525,2 3,2 L3,2 Z M5,8 C4.72385763,8 4.5,8.22385763 4.5,8.5 L4.5,8.5 L4.5,12.5 C4.5,12.7761424 4.72385763,13 5,13 C5.27614237,13 5.5,12.7761424 5.5,12.5 L5.5,12.5 L5.5,8.5 C5.5,8.22385763 5.27614237,8 5,8 Z M8,6 C7.72385763,6 7.5,6.22385763 7.5,6.5 L7.5,6.5 L7.5,12.5 C7.5,12.7761424 7.72385763,13 8,13 C8.27614237,13 8.5,12.7761424 8.5,12.5 L8.5,12.5 L8.5,6.5 C8.5,6.22385763 8.27614237,6 8,6 Z M11,9 C10.7238576,9 10.5,9.22385763 10.5,9.5 L10.5,9.5 L10.5,12.5 C10.5,12.7761424 10.7238576,13 11,13 C11.2761424,13 11.5,12.7761424 11.5,12.5 L11.5,12.5 L11.5,9.5 C11.5,9.22385763 11.2761424,9 11,9 Z" id="dashboard_16" fill="#00090D"></path>
    </g>
</svg>