<?xml version="1.0" encoding="UTF-8"?>
<svg width="16px" height="16px" viewBox="0 0 16 16" version="1.1" xmlns="http://www.w3.org/2000/svg" xmlns:xlink="http://www.w3.org/1999/xlink">
    <!-- Generator: Sketch 60.1 (88133) - https://sketch.com -->
    <title>Navigation / view-dashboard / dashboard-view_16</title>
    <desc>Created with Sketch.</desc>
    <g id="Navigation-/-view-dashboard-/-dashboard-view_16" stroke="none" stroke-width="1" fill="none" fill-rule="evenodd">
        <path d="M6,7 C6.55228475,7 7,7.44771525 7,8 L7,14 C7,14.5522847 6.55228475,15 6,15 L2,15 C1.44771525,15 1,14.5522847 1,14 L1,8 C1,7.44771525 1.44771525,7 2,7 L6,7 Z M14,11 C14.5522847,11 15,11.4477153 15,12 L15,14 C15,14.5522847 14.5522847,15 14,15 L10,15 C9.44771525,15 9,14.5522847 9,14 L9,12 C9,11.4477153 9.44771525,11 10,11 L14,11 Z M6,8 L2,8 L2,14 L6,14 L6,8 Z M14,12 L10,12 L10,14 L14,14 L14,12 Z M14,1 C14.5522847,1 15,1.44771525 15,2 L15,8 C15,8.55228475 14.5522847,9 14,9 L10,9 C9.44771525,9 9,8.55228475 9,8 L9,2 C9,1.44771525 9.44771525,1 10,1 L14,1 Z M14,2 L10,2 L10,8 L14,8 L14,2 Z M6,1 C6.55228475,1 7,1.44771525 7,2 L7,4 C7,4.55228475 6.55228475,5 6,5 L2,5 C1.44771525,5 1,4.55228475 1,4 L1,2 C1,1.44771525 1.44771525,1 2,1 L6,1 Z M6,2 L2,2 L2,4 L6,4 L6,2 Z" id="dashboard-view_16" fill="#00090D"></path>
    </g>
</svg>