<?xml version="1.0" encoding="UTF-8"?>
<svg width="24px" height="24px" viewBox="0 0 24 24" version="1.1" xmlns="http://www.w3.org/2000/svg" xmlns:xlink="http://www.w3.org/1999/xlink">
    <!-- Generator: Sketch 60.1 (88133) - https://sketch.com -->
    <title>Action / deploy_24</title>
    <desc>Created with Sketch.</desc>
    <g id="Action-/-deploy_24" stroke="none" stroke-width="1" fill="none" fill-rule="evenodd">
        <path d="M11.5,22.9888 L11.5,18.5 C11.5,18.2239 11.7239,18 12,18 C12.2761,18 12.5,18.2239 12.5,18.5 L12.5,23.5 C12.5,23.7761 12.2761,24 12,24 C5.37258,24 2.25597319e-13,18.6274 2.25597319e-13,12 C2.25597319e-13,5.37258 5.37258,0 12,0 C18.4598,0 23.7274,5.10422 23.9898,11.4996 C24.0011,11.7755 23.7761,12 23.5,12 C23.2239,12 23.0012,11.7757 22.9888,11.4998 C22.7273,5.65682 17.9075,1 12,1 C5.92487,1 1,5.92487 1,12 C1,17.9076 5.65693,22.7274 11.5,22.9888 Z M12.0001,9.23663562 L5.8621,15.8409212 C5.6741,16.0434512 5.3581,16.0544801 5.1561,15.8659868 C5.0501,15.7677296 4.9971,15.6333779 4.9971,15.4990263 C4.9971,15.3767062 5.0411,15.254386 5.1311,15.1571315 L11.6341,8.15981725 C11.7291,8.05754958 11.8611,8.0004 12.0001,8.0004 C12.1391,8.0004 12.2711,8.05754958 12.3661,8.15981725 L18.8661,15.1571315 C19.0541,15.3596615 19.0421,15.6774934 18.8411,15.8659868 C18.6391,16.0544801 18.3221,16.0434512 18.1341,15.8409212 L12.0001,9.23663562 Z" id="deploy_24" fill="#00090D"></path>
    </g>
</svg>