<?xml version="1.0" encoding="UTF-8"?>
<svg width="24px" height="24px" viewBox="0 0 24 24" version="1.1" xmlns="http://www.w3.org/2000/svg" xmlns:xlink="http://www.w3.org/1999/xlink">
    <!-- Generator: Sketch 60.1 (88133) - https://sketch.com -->
    <title>Tools / design / design_24</title>
    <desc>Created with Sketch.</desc>
    <g id="Tools-/-design-/-design_24" stroke="none" stroke-width="1" fill="none" fill-rule="evenodd">
        <path d="M6.5,0 C8.43299662,0 10,1.56912755 10,3.50474446 L10,17.913325 C10,17.9864857 9.98398826,18.0587575 9.95309157,18.1250545 L7.39864624,23.4218644 C7.16509305,23.9230139 6.57004876,24.139687 6.06957763,23.9058172 C5.85671524,23.8063467 5.68561574,23.6350153 5.58627996,23.4218644 L3.04690843,18.1250545 C3.01601174,18.0587575 3,17.9864857 3,17.913325 L3,3.50474446 C3,1.56912755 4.56700338,0 6.5,0 Z M9,17.8574686 L9,3.51181863 C9,2.12457951 7.88071187,1 6.5,1 C5.11928813,1 4,2.12457951 4,3.51181863 L4,17.8574686 L6.5,23 L9,17.8574686 Z M4,6 L9,6 L9,7 L4,7 L4,6 Z M15,18 L15,21.5 C15,22.3284271 15.6715729,23 16.5,23 L18.5,23 C19.3284271,23 20,22.3284271 20,21.5 L20,2.5 C20,1.67157288 19.3284271,1 18.5,1 L16.5,1 C15.6715729,1 15,1.67157288 15,2.5 L15,6 L17.5,6 C17.7761424,6 18,6.22385763 18,6.5 C18,6.77614237 17.7761424,7 17.5,7 L15,7 L15,11.5 L17.5,11.5 C17.7761424,11.5 18,11.7238576 18,12 C18,12.2761424 17.7761424,12.5 17.5,12.5 L15,12.5 L15,17 L17.5,17 C17.7761424,17 18,17.2238576 18,17.5 C18,17.7761424 17.7761424,18 17.5,18 L15,18 Z M16.5,1.0658141e-14 L18.5,1.0658141e-14 C19.8807119,1.0658141e-14 21,1.11928813 21,2.5 L21,21.5 C21,22.8807119 19.8807119,24 18.5,24 L16.5,24 C15.1192881,24 14,22.8807119 14,21.5 L14,2.5 C14,1.11928813 15.1192881,1.0658141e-14 16.5,1.0658141e-14 Z" id="design_24" fill="#00090D"></path>
    </g>
</svg>