<?xml version="1.0" encoding="UTF-8"?>
<svg width="36px" height="36px" viewBox="0 0 36 36" version="1.1" xmlns="http://www.w3.org/2000/svg" xmlns:xlink="http://www.w3.org/1999/xlink">
    <!-- Generator: Sketch 60.1 (88133) - https://sketch.com -->
    <title>Tools / design / design_36</title>
    <desc>Created with Sketch.</desc>
    <g id="Tools-/-design-/-design_36" stroke="none" stroke-width="1" fill="none" fill-rule="evenodd">
        <path d="M22,18.5 L22,26 L26.5,26 C26.7761424,26 27,26.2238576 27,26.5 C27,26.7761424 26.7761424,27 26.5,27 L22,27 L22,31.5 C22,32.8807119 23.1192881,34 24.5,34 L27.5,34 C28.8807119,34 30,32.8807119 30,31.5 L30,4.5 C30,3.11928813 28.8807119,2 27.5,2 L24.5,2 C23.1192881,2 22,3.11928813 22,4.5 L22,9 L26.5,9 C26.7761424,9 27,9.22385763 27,9.5 C27,9.77614237 26.7761424,10 26.5,10 L22,10 L22,17.5 L26.5,17.5 C26.7761424,17.5 27,17.7238576 27,18 C27,18.2761424 26.7761424,18.5 26.5,18.5 L22,18.5 Z M6,10 L6,26.0930589 C6,26.5179195 6.10827625,26.9357712 6.31460681,27.3071662 L10,33.940874 L13.6853932,27.3071662 C13.8917237,26.9357712 14,26.5179195 14,26.0930589 L14,10 L6,10 Z M6,9 L14,9 L14,6 C14,3.790861 12.209139,2 10,2 C7.790861,2 6,3.790861 6,6 L6,9 Z M10,1 C12.7614237,1 15,3.23857625 15,6 L15,26.0930589 C15,26.6878638 14.8484132,27.2728562 14.5595505,27.7928092 L10.8304494,34.5051911 C10.5756469,34.9638356 9.99728376,35.1290822 9.53863922,34.8742797 C9.38356115,34.7881252 9.25570507,34.6602691 9.16955059,34.5051911 L5.44044953,27.7928092 C5.15158675,27.2728562 5,26.6878638 5,26.0930589 L5,6 C5,3.23857625 7.23857625,1 10,1 Z M24.5,1 L27.5,1 C29.4329966,1 31,2.56700338 31,4.5 L31,31.5 C31,33.4329966 29.4329966,35 27.5,35 L24.5,35 C22.5670034,35 21,33.4329966 21,31.5 L21,4.5 C21,2.56700338 22.5670034,1 24.5,1 Z" id="design_36" fill="#00090D"></path>
    </g>
</svg>