<?xml version="1.0" encoding="UTF-8"?>
<svg width="24px" height="24px" viewBox="0 0 24 24" version="1.1" xmlns="http://www.w3.org/2000/svg" xmlns:xlink="http://www.w3.org/1999/xlink">
    <!-- Generator: Sketch 60.1 (88133) - https://sketch.com -->
    <title>Topology/Endpoints/desktop/desktop-topology_24</title>
    <desc>Created with Sketch.</desc>
    <g id="Topology/Endpoints/desktop/desktop-topology_24" stroke="none" stroke-width="1" fill="none" fill-rule="evenodd">
        <path d="M22,3 C23.1045695,3 24,3.8954305 24,5 L24,16 C24,17.1045695 23.1045695,18 22,18 L13.3516378,18 L15.6849711,20 L17.5,20 C17.7761424,20 18,20.2238576 18,20.5 C18,20.7761424 17.7761424,21 17.5,21 L6.5,21 C6.22385763,21 6,20.7761424 6,20.5 C6,20.2238576 6.22385763,20 6.5,20 L8.31503796,20 L10.6483713,18 L2,18 C0.8954305,18 0,17.1045695 0,16 L0,5 C0,3.8954305 0.8954305,3 2,3 L22,3 Z M12.0000045,18.158535 L9.8516287,20 L14.1483804,20 L12.0000045,18.158535 Z" id="secondary-color" fill="#FFA000"></path>
        <path d="M13.3516378,18 L15.6849711,20 L17.5,20 C17.7761424,20 18,20.2238576 18,20.5 C18,20.7761424 17.7761424,21 17.5,21 L15.502797,21 C15.5007845,21 15.4987717,21 15.4967588,21 L8.50325115,21 C8.50123737,21 8.49922459,21 8.49721205,21 L6.5,21 C6.22385763,21 6,20.7761424 6,20.5 C6,20.2238576 6.22385763,20 6.5,20 L8.31503796,20 L10.6483713,18 L2,18 C0.8954305,18 0,17.1045695 0,16 L0,5 C0,3.8954305 0.8954305,3 2,3 L22,3 C23.1045695,3 24,3.8954305 24,5 L24,16 C24,17.1045695 23.1045695,18 22,18 L13.3516378,18 Z M14.1483804,20 L12.0000045,18.158535 L9.8516287,20 L14.1483804,20 Z M11.9967498,17 C11.9987623,17 12.0007751,17 12.002788,17 L22,17 C22.5522847,17 23,16.5522847 23,16 L23,5 C23,4.44771525 22.5522847,4 22,4 L2,4 C1.44771525,4 1,4.44771525 1,5 L1,16 C1,16.5522847 1.44771525,17 2,17 L11.9967488,17 L11.9967498,17 Z" id="desktop-topology_24" fill="#00090D"></path>
    </g>
</svg>