<?xml version="1.0" encoding="UTF-8"?>
<svg width="16px" height="16px" viewBox="0 0 16 16" version="1.1" xmlns="http://www.w3.org/2000/svg" xmlns:xlink="http://www.w3.org/1999/xlink">
    <!-- Generator: Sketch 60.1 (88133) - https://sketch.com -->
    <title>Topology/Endpoints/desktop/desktop-topology_16</title>
    <desc>Created with Sketch.</desc>
    <g id="Topology/Endpoints/desktop/desktop-topology_16" stroke="none" stroke-width="1" fill="none" fill-rule="evenodd">
        <path d="M14,2 C15.1045695,2 16,2.8954305 16,4 L16,10 C16,11.1045695 15.1045695,12 14,12 L9.42539053,12 L10.6753905,13 L11.5,13 C11.7761424,13 12,13.2238576 12,13.5 C12,13.7761424 11.7761424,14.0000184 11.5,14.0000184 L4.5,14.0000184 C4.22385763,14.0000184 4,13.7761424 4,13.5 C4,13.2238576 4.22385763,13 4.5,13 L5.32462788,13 L6.57462788,12 L2,12 C0.8954305,12 0,11.1045695 0,10 L0,4 C0,2.8954305 0.8954305,2 2,2 L14,2 Z M8.00000921,12.1403198 L6.92540894,13 L9.07460947,13 L8.00000921,12.1403198 Z" id="secondary-color" fill="#FFA000"></path>
        <path d="M6.57462788,12 L2,12 C0.8954305,12 0,11.1045695 0,10 L0,4 C0,2.8954305 0.8954305,2 2,2 L14,2 C15.1045695,2 16,2.8954305 16,4 L16,10 C16,11.1045695 15.1045695,12 14,12 L9.42539053,12 L10.6753905,13 L11.5,13 C11.7761424,13 12,13.2238576 12,13.5 C12,13.7761424 11.7761424,14.0000184 11.5,14.0000184 L10.5039833,14.0000184 C10.5011162,14.0000184 10.4982488,14.0000184 10.495381,14.0000184 L5.5046374,14.0000184 C5.50176962,14.0000184 5.49890218,14.0000184 5.49603544,14.0000184 L4.5,14.0000184 C4.22385763,14.0000184 4,13.7761424 4,13.5 C4,13.2238576 4.22385763,13 4.5,13 L5.32462788,13 L6.57462788,12 Z M8.00000921,12.1403198 L6.92540894,13 L9.07460947,13 L8.00000921,12.1403198 Z M7.99601699,11 C7.99888478,11 8.0017522,11 8.00461892,11 L14,11 C14.5522847,11 15,10.5522847 15,10 L15,4 C15,3.44771525 14.5522847,3 14,3 L2,3 C1.44771525,3 1,3.44771525 1,4 L1,10 C1,10.5522847 1.44771525,11 2,11 L7.99601673,11 L7.99601699,11 Z" id="desktop-topology_16" fill="#00090D"></path>
    </g>
</svg>