<?xml version="1.0" encoding="UTF-8"?>
<svg width="16px" height="16px" viewBox="0 0 16 16" version="1.1" xmlns="http://www.w3.org/2000/svg" xmlns:xlink="http://www.w3.org/1999/xlink">
    <!-- Generator: Sketch 60.1 (88133) - https://sketch.com -->
    <title>Networking/Endpoints/desktop/desktop-wireless-filled_16</title>
    <desc>Created with Sketch.</desc>
    <g id="Networking/Endpoints/desktop/desktop-wireless-filled_16" stroke="none" stroke-width="1" fill="none" fill-rule="evenodd">
        <path d="M14,2 C15.1045695,2 16,2.8954305 16,4 L16,10 C16,11.1045695 15.1045695,12 14,12 L9.42539053,12 L10.6753905,13 L11.5,13 C11.7761424,13 12,13.2238576 12,13.5 C12,13.7761424 11.7761424,14.0000184 11.5,14.0000184 L4.5,14.0000184 C4.22385763,14.0000184 4,13.7761424 4,13.5 C4,13.2238576 4.22385763,13 4.5,13 L5.32462788,13 L6.57462788,12 L2,12 C0.8954305,12 0,11.1045695 0,10 L0,4 C0,2.8954305 0.8954305,2 2,2 L14,2 Z M8.00000921,12.1403198 L6.92540894,13 L9.07460947,13 L8.00000921,12.1403198 Z M8.02310839,8.16517194 C7.17715694,8.14684049 6.22482913,8.58006182 5.58857769,9.26463068 C5.46662457,9.39584501 5.46822281,9.60689322 5.59214746,9.73602005 C5.7160721,9.86514688 5.91539541,9.86345463 6.03734853,9.7322403 C6.55504703,9.17522737 7.34203671,8.81721964 8.01022524,8.83169904 C8.64603177,8.84547673 9.52300583,9.23946615 9.99955486,9.73602005 C10.1234795,9.86514688 10.3228028,9.86345463 10.4447559,9.7322403 C10.5667091,9.60102597 10.5651108,9.38997776 10.4411862,9.26085093 C9.85041478,8.64527978 8.82019812,8.18244458 8.02310839,8.16517194 Z M8.01474094,6.16510839 C6.40856959,6.1755123 4.86181507,6.79198692 3.71023949,7.92046334 C3.58263532,8.04550792 3.57492878,8.25640511 3.69302644,8.3915154 C3.81112411,8.52662569 4.01030479,8.53478556 4.13790895,8.40974098 C5.17127024,7.39710762 6.56613342,6.84117083 8.01859269,6.83176259 C9.42181404,6.82267328 10.822471,7.39210628 11.8992037,8.41338434 C12.0287082,8.53621906 12.2277376,8.52463656 12.3437481,8.38751409 C12.4597587,8.25039163 12.4488197,8.03965469 12.3193151,7.91681997 C11.1268417,6.78576208 9.57533048,6.15499974 8.01474094,6.16510839 Z M13.5847115,6.50110435 C10.4819094,3.39738967 5.49738077,3.43854174 2.44491872,6.59323008 C2.32049642,6.72181926 2.31808311,6.93285878 2.43952845,7.06460005 C2.56097379,7.19634131 2.76028889,7.19889658 2.8847112,7.0703074 C5.69535859,4.16553203 10.2950111,4.12755749 13.1523258,6.98571259 C13.2787122,7.11213613 13.4779614,7.10613942 13.5973614,6.97231855 C13.7167615,6.83849768 13.7110979,6.6275279 13.5847115,6.50110435 Z" id="desktop-wireless-filled_16" fill="#00090D"></path>
    </g>
</svg>