<?xml version="1.0" encoding="UTF-8"?>
<svg width="16px" height="16px" viewBox="0 0 16 16" version="1.1" xmlns="http://www.w3.org/2000/svg" xmlns:xlink="http://www.w3.org/1999/xlink">
    <!-- Generator: Sketch 60.1 (88133) - https://sketch.com -->
    <title>Networking/Endpoints/desktop/desktop-filled_16</title>
    <desc>Created with Sketch.</desc>
    <g id="Networking/Endpoints/desktop/desktop-filled_16" stroke="none" stroke-width="1" fill="none" fill-rule="evenodd">
        <path d="M14,2 C15.1045695,2 16,2.8954305 16,4 L16,10 C16,11.1045695 15.1045695,12 14,12 L9.42539053,12 L10.6753905,13 L11.5,13 C11.7761424,13 12,13.2238576 12,13.5 C12,13.7761424 11.7761424,14.0000184 11.5,14.0000184 L4.5,14.0000184 C4.22385763,14.0000184 4,13.7761424 4,13.5 C4,13.2238576 4.22385763,13 4.5,13 L5.32462788,13 L6.57462788,12 L2,12 C0.8954305,12 0,11.1045695 0,10 L0,4 C0,2.8954305 0.8954305,2 2,2 L14,2 Z M8.00000921,12.1403198 L6.92540894,13 L9.07460947,13 L8.00000921,12.1403198 Z" id="desktop-filled_16" fill="#00090D"></path>
    </g>
</svg>