<?xml version="1.0" encoding="UTF-8"?>
<svg width="24px" height="24px" viewBox="0 0 24 24" version="1.1" xmlns="http://www.w3.org/2000/svg" xmlns:xlink="http://www.w3.org/1999/xlink">
    <!-- Generator: Sketch 60.1 (88133) - https://sketch.com -->
    <title>Networking/Endpoints/desktop/desktop-wireless-filled_24</title>
    <desc>Created with Sketch.</desc>
    <g id="Networking/Endpoints/desktop/desktop-wireless-filled_24" stroke="none" stroke-width="1" fill="none" fill-rule="evenodd">
        <path d="M22,3 C23.1045695,3 24,3.8954305 24,5 L24,16 C24,17.1045695 23.1045695,18 22,18 L13.3516378,18 L15.6849711,20 L17.5,20 C17.7761424,20 18,20.2238576 18,20.5 C18,20.7761424 17.7761424,21 17.5,21 L6.5,21 C6.22385763,21 6,20.7761424 6,20.5 C6,20.2238576 6.22385763,20 6.5,20 L8.31503796,20 L10.6483713,18 L2,18 C0.8954305,18 0,17.1045695 0,16 L0,5 C0,3.8954305 0.8954305,3 2,3 L22,3 Z M12.0000045,18.158535 L9.8516287,20 L14.1483804,20 L12.0000045,18.158535 Z M11.9903388,11.9477579 C10.7947042,11.9736669 9.24937925,12.6679197 8.36322216,13.5912764 C8.1773352,13.7849666 8.17493784,14.101539 8.35786751,14.2983604 C8.54079719,14.4951819 8.83978215,14.4977203 9.02566911,14.3040301 C9.74049267,13.5591992 11.0559538,12.9682151 12.0096636,12.9475486 C13.0119463,12.9258295 14.1924309,13.4628411 14.9689786,14.2983604 C15.1519083,14.4951819 15.4508933,14.4977203 15.6367802,14.3040301 C15.8226672,14.1103398 15.8250646,13.7937675 15.6421349,13.596946 C14.6877577,12.5700927 13.259266,11.9202607 11.9903388,11.9477579 Z M12.00289,8.94766259 C9.6620057,8.93249961 7.3347389,9.87864312 5.54602873,11.57523 C5.35177191,11.759482 5.33536336,12.0755874 5.50937921,12.2812711 C5.68339507,12.4869548 5.98193906,12.5043286 6.17619588,12.3200765 C7.79129485,10.7881594 9.89228035,9.93400992 11.9971124,9.94764388 C14.1758013,9.96175625 16.268096,10.7956614 17.818138,12.3146115 C18.0095442,12.5021783 18.3083153,12.4899385 18.4854617,12.2872731 C18.6626082,12.0846077 18.6510484,11.7682619 18.4596422,11.580695 C16.7322788,9.88798038 14.412147,8.96326845 12.00289,8.94766259 Z M20.3576233,9.58984512 C15.7789303,4.85781261 8.30213733,4.7960845 3.64793413,9.45165653 C3.45835457,9.64129185 3.44985922,9.95774652 3.62895925,10.1584778 C3.80805928,10.3592091 4.10693313,10.3682042 4.2965127,10.1785689 C8.58248482,5.89133623 15.4819635,5.94829805 19.6979346,10.3054611 C19.8845681,10.4983449 20.1835407,10.494512 20.3657087,10.2969001 C20.5478767,10.0992882 20.5442568,9.78272889 20.3576233,9.58984512 Z" id="desktop-wireless-filled_24" fill="#00090D"></path>
    </g>
</svg>