<?xml version="1.0" encoding="UTF-8"?>
<svg width="24px" height="24px" viewBox="0 0 24 24" version="1.1" xmlns="http://www.w3.org/2000/svg" xmlns:xlink="http://www.w3.org/1999/xlink">
    <!-- Generator: Sketch 60.1 (88133) - https://sketch.com -->
    <title>Networking/Endpoints/desktop/desktop-wireless_24</title>
    <desc>Created with Sketch.</desc>
    <g id="Networking/Endpoints/desktop/desktop-wireless_24" stroke="none" stroke-width="1" fill="none" fill-rule="evenodd">
        <path d="M13.3516378,18 L15.6849711,20 L17.5,20 C17.7761424,20 18,20.2238576 18,20.5 C18,20.7761424 17.7761424,21 17.5,21 L15.502797,21 C15.5007845,21 15.4987717,21 15.4967588,21 L8.50325115,21 C8.50123737,21 8.49922459,21 8.49721205,21 L6.5,21 C6.22385763,21 6,20.7761424 6,20.5 C6,20.2238576 6.22385763,20 6.5,20 L8.31503796,20 L10.6483713,18 L2,18 C0.8954305,18 0,17.1045695 0,16 L0,5 C0,3.8954305 0.8954305,3 2,3 L22,3 C23.1045695,3 24,3.8954305 24,5 L24,16 C24,17.1045695 23.1045695,18 22,18 L13.3516378,18 Z M14.1483804,20 L12.0000045,18.158535 L9.8516287,20 L14.1483804,20 Z M11.9967498,17 C11.9987623,17 12.0007751,17 12.002788,17 L22,17 C22.5522847,17 23,16.5522847 23,16 L23,5 C23,4.44771525 22.5522847,4 22,4 L2,4 C1.44771525,4 1,4.44771525 1,5 L1,16 C1,16.5522847 1.44771525,17 2,17 L11.9967488,17 L11.9967498,17 Z M4.2965127,10.1785689 C4.10693313,10.3682042 3.80805928,10.3592091 3.62895925,10.1584778 C3.44985922,9.95774652 3.45835457,9.64129185 3.64793413,9.45165653 C8.30213733,4.7960845 15.7789303,4.85781261 20.3576233,9.58984512 C20.5442568,9.78272889 20.5478767,10.0992882 20.3657087,10.2969001 C20.1835407,10.494512 19.8845681,10.4983449 19.6979346,10.3054611 C15.4819635,5.94829805 8.58248482,5.89133623 4.2965127,10.1785689 Z M6.17619588,12.3200765 C5.98193906,12.5043286 5.68339507,12.4869548 5.50937921,12.2812711 C5.33536336,12.0755874 5.35177191,11.759482 5.54602873,11.57523 C7.3347389,9.87864312 9.6620057,8.93249961 12.00289,8.94766259 C14.412147,8.96326845 16.7322788,9.88798038 18.4596422,11.580695 C18.6510484,11.7682619 18.6626082,12.0846077 18.4854617,12.2872731 C18.3083153,12.4899385 18.0095442,12.5021783 17.818138,12.3146115 C16.268096,10.7956614 14.1758013,9.96175625 11.9971124,9.94764388 C9.89228035,9.93400992 7.79129485,10.7881594 6.17619588,12.3200765 Z M9.02566911,14.3040301 C8.83978215,14.4977203 8.54079719,14.4951819 8.35786751,14.2983604 C8.17493784,14.101539 8.1773352,13.7849666 8.36322216,13.5912764 C9.24937925,12.6679197 10.7947042,11.9736669 11.9903388,11.9477579 C13.259266,11.9202607 14.6877577,12.5700927 15.6421349,13.596946 C15.8250646,13.7937675 15.8226672,14.1103398 15.6367802,14.3040301 C15.4508933,14.4977203 15.1519083,14.4951819 14.9689786,14.2983604 C14.1924309,13.4628411 13.0119463,12.9258295 12.0096636,12.9475486 C11.0559538,12.9682151 9.74049267,13.5591992 9.02566911,14.3040301 Z" id="desktop-wireless_24" fill="#00090D"></path>
    </g>
</svg>