<?xml version="1.0" encoding="UTF-8"?>
<svg width="24px" height="24px" viewBox="0 0 24 24" version="1.1" xmlns="http://www.w3.org/2000/svg" xmlns:xlink="http://www.w3.org/1999/xlink">
    <!-- Generator: Sketch 60.1 (88133) - https://sketch.com -->
    <title>Networking/Endpoints/desktop/desktop-filled_24</title>
    <desc>Created with Sketch.</desc>
    <g id="Networking/Endpoints/desktop/desktop-filled_24" stroke="none" stroke-width="1" fill="none" fill-rule="evenodd">
        <path d="M22,3 C23.1045695,3 24,3.8954305 24,5 L24,16 C24,17.1045695 23.1045695,18 22,18 L13.3516378,18 L15.6849711,20 L17.5,20 C17.7761424,20 18,20.2238576 18,20.5 C18,20.7761424 17.7761424,21 17.5,21 L6.5,21 C6.22385763,21 6,20.7761424 6,20.5 C6,20.2238576 6.22385763,20 6.5,20 L8.31503796,20 L10.6483713,18 L2,18 C0.8954305,18 0,17.1045695 0,16 L0,5 C0,3.8954305 0.8954305,3 2,3 L22,3 Z M12.0000045,18.158535 L9.8516287,20 L14.1483804,20 L12.0000045,18.158535 Z" id="desktop-filled_24" fill="#00090D"></path>
    </g>
</svg>