<?xml version="1.0" encoding="UTF-8"?>
<svg width="24px" height="24px" viewBox="0 0 24 24" version="1.1" xmlns="http://www.w3.org/2000/svg" xmlns:xlink="http://www.w3.org/1999/xlink">
    <!-- Generator: Sketch 60.1 (88133) - https://sketch.com -->
    <title>Networking / device-inventory / device-inventory_24</title>
    <desc>Created with Sketch.</desc>
    <g id="Networking-/-device-inventory-/-device-inventory_24" stroke="none" stroke-width="1" fill="none" fill-rule="evenodd">
        <path d="M20.3986069,8.08410031 C18.4853062,8.67511683 15.5849069,9 11.9819799,9 C11.1972393,9 10.4482566,8.98663012 9.73712789,8.9601652 C3.77448066,8.83115479 1,8.08894596 1,6.5 L1,6.14454358 C1,6.13710924 1,6.12966137 1,6.1222 L1,3.8022 C1,3.35811302 1.25570139,2.97354458 1.69803844,2.64330538 C1.76784914,2.59118623 1.84787468,2.5596218 1.93005894,2.54861736 C3.48202749,1.55947261 6.91566993,1 11.7689539,1 C18.6379791,1 23,2.10011631 23,3.90755967 L23,6.07324271 C23,6.90681784 22.0722139,7.58994706 20.3986069,8.08410032 L20.3986069,8.08410031 Z M20.6127116,3.00488159 C18.9113442,2.45290741 15.7572534,2 11.7689539,2 C8.65853856,2 6.8460056,2.25176002 4.80967205,2.69374367 C4.18636898,2.82903083 3.65850895,2.98026208 3.23443923,3.13247763 C4.74560353,3.70098296 7.42311395,4 11.769133,4 C16.4293354,4 19.1705139,3.65617666 20.6127116,3.00488159 Z M21.920436,6.28472761 C21.959644,6.17936293 21.9654165,6.082477 21.9654165,6 L21.9654165,4.5 C21.9654165,4.19506508 21.8067298,3.93032524 21.5056855,3.65882276 C19.8508543,4.58062069 17.0835163,5 11.769133,5 C6.54491186,5 3.79030706,4.59474942 2.1174346,3.70543847 C2.03871516,3.78007565 1.99854333,3.84841968 1.99854333,3.90755967 L1.99854333,6.14790577 C2.00385451,6.46934004 2.12925038,6.98089542 4.00484108,7.35431868 C5.52029696,7.65604042 7.4470573,7.86141794 9.56608551,7.95026351 C10.2549228,7.97022464 10.9894026,7.98080239 11.7689539,7.98080239 C17.3616393,7.98080239 21.3139617,7.09021883 21.920436,6.28472761 Z M21.2431382,9.64291324 C21.4198914,9.51131451 21.6618588,9.51129372 21.8386346,9.64286207 C22.5430581,10.1671412 22.9637601,10.702605 22.9637601,11.5 L22.9637601,13 C22.9637601,14.8735698 18.6907669,16 11.9819799,16 C5.12653328,16 1,14.9796557 1,13.1222 L1,10.8022 C1,10.358113 1.25570139,9.97354458 1.69803844,9.64330538 C1.87483881,9.51131008 2.11715624,9.51115067 2.29412954,9.64291324 C3.48307741,10.5281249 6.30957879,11 11.769133,11 C17.2284163,11 20.0541466,10.5281575 21.2431382,9.64291324 Z M11.769133,12 C6.4787931,12 3.72097701,11.5844267 2.05443501,10.6714398 C2.01546198,10.7245639 1.99834366,10.7685826 1.99834366,10.8022 L1.99834366,13.1222 C1.99834366,13.4415139 2.07842474,13.9707762 4.00484108,14.3543187 C6.0800882,14.7674928 8.92662312,15 11.9819799,15 C15.0007169,15 17.852975,14.7431286 19.9518119,14.2946288 C21.874128,13.8838497 21.9654165,13.3279899 21.9654165,13 L21.9654165,11.5 C21.9654165,11.1950651 21.8067298,10.9303252 21.5056855,10.6588228 C19.8508543,11.5806207 17.0835163,12 11.769133,12 Z M21.1714427,16.4492753 C21.2782198,16.3695188 21.4123911,16.3358156 21.5441058,16.355664 C22.20139,16.4547115 22.6353641,16.7829941 22.8368759,17.2660993 C22.9402034,17.513817 22.9637601,17.71466 22.9637601,18 L22.9637601,19.9281 C22.9637601,21.8087494 18.5727412,23 11.9449521,23 C5.33333397,23 1,21.8109962 1,19.9281 L1,17.6081 C1,17.1644705 1.25484119,16.7799557 1.6958156,16.4496686 C1.87286963,16.3170562 2.1159177,16.3168962 2.29314563,16.4492753 C3.54905904,17.3873705 6.64485787,18 11.7327917,18 C16.8205002,18 19.9154724,17.3874129 21.1714427,16.4492753 Z M21.5754278,17.3828234 C19.9333463,18.4164326 16.8279468,19 11.7327917,19 C6.79860708,19 3.7919561,18.452742 2.05235879,17.4795619 C2.01485567,17.5315839 1.99834366,17.5748318 1.99834366,17.6081 L1.99834366,19.9281 C1.99834366,20.2616856 2.09160712,20.8329197 4.00501788,21.2596245 C6.10945892,21.7289305 8.95416832,22 11.9449521,22 C14.9371263,22 17.7997849,21.7285889 19.9223548,21.2594216 C21.8555974,20.8321028 21.9654165,20.2590265 21.9654165,19.9281 L21.9654165,18 C21.9654165,17.8381195 21.9544316,17.7444633 21.9157022,17.6516133 C21.8648407,17.5296778 21.7687653,17.439192 21.5754278,17.3828234 Z" id="device-inventory_24" fill="#00090D"></path>
    </g>
</svg>