<?xml version="1.0" encoding="UTF-8"?>
<svg width="16px" height="16px" viewBox="0 0 16 16" version="1.1" xmlns="http://www.w3.org/2000/svg" xmlns:xlink="http://www.w3.org/1999/xlink">
    <!-- Generator: Sketch 60.1 (88133) - https://sketch.com -->
    <title>Tools/device360_16</title>
    <desc>Created with Sketch.</desc>
    <g id="Tools/device360_16" stroke="none" stroke-width="1" fill="none" fill-rule="evenodd">
        <path d="M8,16 C3.581722,16 0,12.418278 0,8 C0,3.581722 3.581722,0 8,0 C12.418278,0 16,3.581722 16,8 C16,12.418278 12.418278,16 8,16 Z M8,15 C11.8659932,15 15,11.8659932 15,8 C15,4.13400675 11.8659932,1 8,1 C4.13400675,1 1,4.13400675 1,8 C1,11.8659932 4.13400675,15 8,15 Z M3.928,9.412 C4.276,9.412 4.528,9.202 4.528,8.8 C4.528,8.326 4.258,8.11 3.802,8.11 L3.436,8.11 L3.436,7.468 L3.85,7.468 C4.162,7.468 4.45,7.258 4.45,6.892 C4.45,6.568 4.228,6.382 3.952,6.382 C3.658,6.382 3.478,6.52 3.418,6.796 L2.506,6.796 C2.608,6.136 3.178,5.71 4.006,5.71 C4.75,5.71 5.398,6.052 5.398,6.814 C5.398,7.276 5.014,7.666 4.528,7.744 C5.056,7.804 5.494,8.248 5.494,8.782 C5.494,9.568 4.876,10.09 3.94,10.09 C3.058,10.09 2.47,9.586 2.41,8.926 L3.34,8.926 C3.382,9.214 3.58,9.412 3.928,9.412 Z M8.13799999,7.132 C8.92399999,7.132 9.43999999,7.642 9.43999999,8.536 C9.43999999,9.424 8.83999999,10.09 7.88599999,10.09 C6.88399999,10.09 6.26599999,9.388 6.26599999,8.038 C6.26599999,6.154 7.12999999,5.71 7.94599999,5.71 C8.68999999,5.71 9.19999999,6.046 9.38599999,6.628 L8.37199999,6.628 C8.30599999,6.436 8.16199999,6.34 7.93999999,6.34 C7.60399999,6.34 7.29799999,6.604 7.21399999,7.6 C7.39999999,7.342 7.72999999,7.132 8.13799999,7.132 Z M7.25599999,8.614 C7.25599999,8.914 7.38199999,9.43 7.86199999,9.43 C8.23999999,9.43 8.49799999,9.082 8.49799999,8.596 C8.49799999,8.056 8.28799999,7.792 7.90399999,7.792 C7.48399999,7.792 7.25599999,8.164 7.25599999,8.614 Z M11.7,9.454 C12.096,9.454 12.33,9.124 12.33,7.912 C12.33,6.7 12.096,6.34 11.7,6.34 C11.304,6.34 11.07,6.7 11.07,7.912 C11.07,9.124 11.304,9.454 11.7,9.454 Z M11.7,10.09 C10.728,10.09 10.104,9.43 10.104,7.912 C10.104,6.352 10.716,5.71 11.7,5.71 C12.684,5.71 13.296,6.352 13.296,7.912 C13.296,9.43 12.672,10.09 11.7,10.09 Z" id="device360_16" fill="#00090D"></path>
    </g>
</svg>