<?xml version="1.0" encoding="UTF-8"?>
<svg width="24px" height="24px" viewBox="0 0 24 24" version="1.1" xmlns="http://www.w3.org/2000/svg" xmlns:xlink="http://www.w3.org/1999/xlink">
    <!-- Generator: Sketch 60.1 (88133) - https://sketch.com -->
    <title>Networking / device-inventory / device-inventory-filled_24</title>
    <desc>Created with Sketch.</desc>
    <g id="Networking-/-device-inventory-/-device-inventory-filled_24" stroke="none" stroke-width="1" fill="none" fill-rule="evenodd">
        <path d="M20.3986069,8.08410031 C18.4853062,8.67511683 15.5849069,9 11.9819799,9 C11.1972393,9 10.4482566,8.98663012 9.73712789,8.9601652 C3.77448066,8.83115479 1,8.08894596 1,6.5 L1,6.14454358 C1,6.13710924 1,6.12966137 1,6.1222 L1,3.8022 C1,3.35811302 1.25570139,2.97354458 1.69803844,2.64330538 C1.76784914,2.59118623 1.84787468,2.5596218 1.93005894,2.54861736 C3.48202749,1.55947261 6.91566993,1 11.7689539,1 C18.6379791,1 23,2.10011631 23,3.90755967 L23,6.07324271 C23,6.90681784 22.0722139,7.58994706 20.3986069,8.08410032 L20.3986069,8.08410031 Z M20.6127116,3.00488159 C18.9113442,2.45290741 15.7572534,2 11.7689539,2 C8.65853856,2 6.8460056,2.25176002 4.80967205,2.69374367 C4.18636898,2.82903083 3.65850895,2.98026208 3.23443923,3.13247763 C4.74560353,3.70098296 7.42311395,4 11.769133,4 C16.4293354,4 19.1705139,3.65617666 20.6127116,3.00488159 Z M21.2431382,9.64291324 C21.4198914,9.51131451 21.6618588,9.51129372 21.8386346,9.64286207 C22.5430581,10.1671412 22.9637601,10.702605 22.9637601,11.5 L22.9637601,13 C22.9637601,14.8735698 18.6907669,16 11.9819799,16 C5.12653328,16 1,14.9796557 1,13.1222 L1,10.8022 C1,10.358113 1.25570139,9.97354458 1.69803844,9.64330538 C1.87483881,9.51131008 2.11715624,9.51115067 2.29412954,9.64291324 C3.48307741,10.5281249 6.30957879,11 11.769133,11 C17.2284163,11 20.0541466,10.5281575 21.2431382,9.64291324 Z M21.1714427,16.4492753 C21.2782198,16.3695188 21.4123911,16.3358156 21.5441058,16.355664 C22.20139,16.4547115 22.6353641,16.7829941 22.8368759,17.2660993 C22.9402034,17.513817 22.9637601,17.71466 22.9637601,18 L22.9637601,19.9281 C22.9637601,21.8087494 18.5727412,23 11.9449521,23 C5.33333397,23 1,21.8109962 1,19.9281 L1,17.6081 C1,17.1644705 1.25484119,16.7799557 1.6958156,16.4496686 C1.87286963,16.3170562 2.1159177,16.3168962 2.29314563,16.4492753 C3.54905904,17.3873705 6.64485787,18 11.7327917,18 C16.8205002,18 19.9154724,17.3874129 21.1714427,16.4492753 Z" id="device-inventory-filled_24" fill="#00090D"></path>
    </g>
</svg>