<?xml version="1.0" encoding="UTF-8"?>
<svg width="36px" height="36px" viewBox="0 0 36 36" version="1.1" xmlns="http://www.w3.org/2000/svg" xmlns:xlink="http://www.w3.org/1999/xlink">
    <!-- Generator: Sketch 60.1 (88133) - https://sketch.com -->
    <title>Topology / ENFV / DHCP-topology_36</title>
    <desc>Created with Sketch.</desc>
    <g id="Topology-/-ENFV-/-DHCP-topology_36" stroke="none" stroke-width="1" fill="none" fill-rule="evenodd">
        <rect id="secondary-color" fill="#FFA000" x="0" y="11" width="36" height="15" rx="2.5"></rect>
        <path d="M4,15.15 L6.34,15.15 C8.46,15.15 9.88,16.28 9.88,18.75 C9.88,21.08 8.38,22.35 6.27,22.35 L4,22.35 L4,15.15 Z M6.35,15.96 L5.02,15.96 L5.02,21.51 L6.37,21.51 C7.95,21.51 8.85,20.56 8.85,18.75 C8.85,16.86 7.89,15.96 6.35,15.96 Z M16.2033333,15.15 L16.2033333,18.28 L12.6833333,18.28 L12.6833333,15.15 L11.6633333,15.15 L11.6633333,22.35 L12.6833333,22.35 L12.6833333,19.14 L16.2033333,19.14 L16.2033333,22.35 L17.2333333,22.35 L17.2333333,15.15 L16.2033333,15.15 Z M22.3366666,21.64 C20.9866666,21.64 20.0566666,20.61 20.0566666,18.75 C20.0566666,16.8 21.0166666,15.85 22.3966666,15.85 C23.5066666,15.85 24.2866666,16.48 24.4166666,17.46 L25.4466666,17.46 C25.3466666,16.14 24.1266666,15 22.3966666,15 C20.4166666,15 19.0166666,16.32 19.0166666,18.75 C19.0166666,21.15 20.3066666,22.5 22.3166666,22.5 C24.1466666,22.5 25.3766666,21.21 25.4566666,19.81 L24.4266666,19.81 C24.3666666,20.85 23.5066666,21.64 22.3366666,21.64 Z M27.1899999,15.15 L29.5299999,15.15 C31.3399999,15.15 32.3499999,15.97 32.3499999,17.49 C32.3499999,18.95 31.3799999,19.78 29.4899999,19.78 L28.2099999,19.78 L28.2099999,22.35 L27.1899999,22.35 L27.1899999,15.15 Z M29.5499999,15.98 L28.2099999,15.98 L28.2099999,18.95 L29.5099999,18.95 C30.7799999,18.95 31.2899999,18.43 31.2899999,17.49 C31.2899999,16.54 30.6799999,15.98 29.5499999,15.98 Z" id="DHCP-topology_36" fill="#00090D"></path>
    </g>
</svg>