<?xml version="1.0" encoding="UTF-8"?>
<svg width="16px" height="16px" viewBox="0 0 16 16" version="1.1" xmlns="http://www.w3.org/2000/svg" xmlns:xlink="http://www.w3.org/1999/xlink">
    <!-- Generator: Sketch 60.1 (88133) - https://sketch.com -->
    <title>Tools / cloud-account / disable-cloud-account_16</title>
    <desc>Created with Sketch.</desc>
    <g id="Tools-/-cloud-account-/-disable-cloud-account_16" stroke="none" stroke-width="1" fill="none" fill-rule="evenodd">
        <path d="M10.2305,2.930109 C10.4523,3.10099 10.4534,3.42532 10.2554,3.62331 L10.2554,3.62331 C10.0624,3.81631 9.75229,3.81599 9.53092,3.65633 C8.9539,3.2402 8.24953,3 7.5,3 C5.57,3 4,4.57 4,6.5 C4,6.749 3.822,7.01 3.576,7.045 C2.107,7.255 1,8.525 1,10 C1,10.62144 1.19001,11.1994 1.51498,11.67881 C1.66734,11.90359 1.66714,12.2115 1.47514,12.4036 L1.47514,12.4036 C1.27625,12.6025 0.949845,12.6006 0.782554,12.3744 C0.290937,11.70993 0,10.88837 0,10 C0,8.172 1.273,6.578 3.022,6.137 C3.224,3.803 5.155,2 7.5,2 C8.5161,2 9.46732,2.342202 10.2305,2.930109 Z M4.97489,13.1464 C5.06866,13.0527 5.19584,13 5.32845,13 L11.5,13 C13.43,13 15,11.43 15,9.5 C15,8.0752 14.1445,6.84721 12.9203,6.30149 C12.5818,6.15058 12.4384,5.68285 12.7005,5.42077 L12.7005,5.42077 C12.822,5.29934 13.0022,5.25472 13.1617,5.31835 C14.8228,5.98107 16,7.60604 16,9.5 C16,11.981 13.981,14 11.5,14 L5.32845,14 C4.88299,14 4.65991,13.4614 4.97489,13.1464 L4.97489,13.1464 Z M13.1464,2.146447 C13.3417,1.9511846 13.6583,1.9511846 13.8536,2.146447 C14.0488,2.341709 14.0488,2.658291 13.8536,2.853553 L2.85355,13.8536 C2.65829,14.0488 2.34171,14.0488 2.14645,13.8536 C1.95118,13.6583 1.95118,13.3417 2.14645,13.1464 L13.1464,2.146447 Z" id="disable-cloud-account_16" fill="#9E9EA2"></path>
    </g>
</svg>