<?xml version="1.0" encoding="UTF-8"?>
<svg width="24px" height="24px" viewBox="0 0 24 24" version="1.1" xmlns="http://www.w3.org/2000/svg" xmlns:xlink="http://www.w3.org/1999/xlink">
    <!-- Generator: Sketch 60.1 (88133) - https://sketch.com -->
    <title>Tools / discovery / discovery_24</title>
    <desc>Created with Sketch.</desc>
    <g id="Tools-/-discovery-/-discovery_24" stroke="none" stroke-width="1" fill="none" fill-rule="evenodd">
        <path d="M11.6605769,8.99234927 C11.6909742,8.97192903 11.7241052,8.95452779 11.7597125,8.94072653 L19.1607125,6.07572653 C19.3717125,5.99272653 19.6127125,6.06272653 19.7447125,6.24672653 C19.8787125,6.42872653 19.8727125,6.67872653 19.7307125,6.85472653 L14.686945,13.1093174 C14.4844292,13.5088653 14.1886985,13.8575638 13.8166125,14.1288265 C13.4452487,14.3996595 13.0232289,14.5748089 12.5775779,14.6454071 L5.0867125,17.5394265 C5.0267125,17.5614265 4.9667125,17.5724265 4.9057125,17.5724265 C4.7497125,17.5724265 4.5967125,17.4994265 4.5017125,17.3664265 C4.3677125,17.1824265 4.3747125,16.9324265 4.5177125,16.7574265 L9.50006053,10.6312825 C9.70181788,10.1789618 10.0192677,9.78522728 10.4306125,9.48582653 C10.7979466,9.21745869 11.2221621,9.05534627 11.6605769,8.99234927 Z M13.5340239,9.3254368 C13.8878384,9.5167322 14.2020497,9.78131564 14.4446125,10.1138265 C14.6867344,10.4459406 14.8519563,10.8179394 14.9350524,11.2083042 L17.7787125,7.68172653 L13.5340239,9.3254368 Z M10.6952015,14.2989055 C10.3488518,14.1005689 10.0429315,13.8303177 9.8026125,13.5008265 C9.56706082,13.1777247 9.40402063,12.8168734 9.31872846,12.4380866 L6.4807125,15.9274265 L10.6952015,14.2989055 Z M12.5274777,13.6258006 C12.776741,13.5758676 13.0161369,13.47528 13.2266125,13.3208265 C13.6316125,13.0258265 13.8966125,12.5908265 13.9746125,12.0968265 C14.0516125,11.6028265 13.9316125,11.1078265 13.6366125,10.7038265 C13.2856125,10.2208265 12.7196125,9.93382653 12.1216125,9.93382653 C11.7246125,9.93382653 11.3436125,10.0578265 11.0196125,10.2938265 C10.7824799,10.4665527 10.5936857,10.6872744 10.4620618,10.9397325 C10.4480062,11.0119675 10.4177093,11.0820572 10.3705449,11.144388 C10.3254777,11.2638842 10.2922392,11.3888443 10.2716125,11.5178265 C10.1946125,12.0118265 10.3146125,12.5068265 10.6106125,12.9118265 C11.0129586,13.4631643 11.7170111,13.7283525 12.379029,13.6494537 C12.4283508,13.6340611 12.4782997,13.6263781 12.5274777,13.6258006 Z M12,23 C18.0751322,23 23,18.0751322 23,12 C23,5.92486775 18.0751322,1 12,1 C5.92486775,1 1,5.92486775 1,12 C1,18.0751322 5.92486775,23 12,23 Z M12,24 C5.372583,24 0,18.627417 0,12 C0,5.372583 5.372583,0 12,0 C18.627417,0 24,5.372583 24,12 C24,18.627417 18.627417,24 12,24 Z M12.1245125,21.8483265 C11.6695125,21.8483265 11.2375125,21.6293265 10.9705125,21.2623265 C10.7455125,20.9543265 10.6545125,20.5773265 10.7135125,20.2013265 C10.7725125,19.8243265 10.9755125,19.4923265 11.2825125,19.2673265 C11.8965125,18.8213265 12.8305125,18.9683265 13.2765125,19.5803265 C13.5015125,19.8883265 13.5925125,20.2653265 13.5335125,20.6403265 C13.4745125,21.0173265 13.2715125,21.3493265 12.9645125,21.5743265 C12.7185125,21.7533265 12.4285125,21.8483265 12.1245125,21.8483265 Z M12.1225125,19.9943265 C12.0325125,19.9943265 11.9455125,20.0223265 11.8725125,20.0753265 C11.7795125,20.1433265 11.7195125,20.2423265 11.7015125,20.3553265 C11.6845125,20.4683265 11.7115125,20.5803265 11.7775125,20.6723265 C11.9115125,20.8563265 12.1865125,20.9003265 12.3745125,20.7663265 C12.4675125,20.6983265 12.5275125,20.5993265 12.5455125,20.4863265 C12.5625125,20.3743265 12.5355125,20.2623265 12.4695125,20.1703265 C12.3875125,20.0573265 12.2615125,19.9943265 12.1225125,19.9943265 Z M13.5610125,6.10962653 C13.4240125,6.10962653 13.2900125,6.05362653 13.1940125,5.94962653 L11.1860125,3.77762653 L11.1860125,5.60962653 C11.1860125,5.88562653 10.9620125,6.10962653 10.6860125,6.10962653 C10.4100125,6.10962653 10.1860125,5.88562653 10.1860125,5.60962653 L10.1860125,2.50062653 C10.1860125,2.29462653 10.3120125,2.10962653 10.5030125,2.03462653 C10.6950125,1.95962653 10.9130125,2.00862653 11.0530125,2.16062653 L13.0610125,4.33262653 L13.0610125,2.50062653 C13.0610125,2.22362653 13.2850125,2.00062653 13.5610125,2.00062653 C13.8370125,2.00062653 14.0610125,2.22362653 14.0610125,2.50062653 L14.0610125,5.60962653 C14.0610125,5.81562653 13.9350125,6.00062653 13.7440125,6.07562653 C13.6840125,6.09862653 13.6230125,6.10962653 13.5610125,6.10962653 Z" id="discovery_24" fill="#00090D"></path>
    </g>
</svg>