<?xml version="1.0" encoding="UTF-8"?>
<svg width="24px" height="24px" viewBox="0 0 24 24" version="1.1" xmlns="http://www.w3.org/2000/svg" xmlns:xlink="http://www.w3.org/1999/xlink">
    <!-- Generator: Sketch 60.1 (88133) - https://sketch.com -->
    <title>Networking/DNAaaP_24</title>
    <desc>Created with Sketch.</desc>
    <g id="Networking/DNAaaP_24" stroke="none" stroke-width="1" fill="none" fill-rule="evenodd">
        <path d="M3,11.5354444 L3,11.5 C3,9.56700338 4.56700338,8 6.5,8 L9,8 C9.55228475,8 10,8.44771525 10,9 L10,10 L11.5,10 C11.7761424,10 12,10.2238576 12,10.5 C12,10.7761424 11.7761424,11 11.5,11 L10,11 L10,13 L11.5,13 C11.7761424,13 12,13.2238576 12,13.5 C12,13.7761424 11.7761424,14 11.5,14 L10,14 L10,15 C10,15.5522847 9.55228475,16 9,16 L6.5,16 C4.58367694,16 3.02706043,14.4599132 3.000349,12.5499382 C1.85905496,12.7814385 1,13.7903977 1,15 L1,15.75 C1,17.5449254 2.45507456,19 4.25,19 L23.5,19 C23.7761424,19 24,19.2238576 24,19.5 C24,19.7761424 23.7761424,20 23.5,20 L4.25,20 C1.90278981,20 0,18.0972102 0,15.75 L0,15 C0,13.236764 1.30385293,11.7780593 3,11.5354444 Z M21,12.4645556 L21,12.5 C21,14.4329966 19.4329966,16 17.5,16 L15,16 C14.4477153,16 14,15.5522847 14,15 L14,9 C14,8.44771525 14.4477153,8 15,8 L17.5,8 C19.4163231,8 20.9729396,9.54008677 20.999651,11.4500618 C22.140945,11.2185615 23,10.2096023 23,9 L23,8.25 C23,6.45507456 21.5449254,5 19.75,5 L0.5,5 C0.223857625,5 0,4.77614237 0,4.5 C0,4.22385763 0.223857625,4 0.5,4 L19.75,4 C22.0972102,4 24,5.90278981 24,8.25 L24,9 C24,10.763236 22.6961471,12.2219407 21,12.4645556 Z" id="DNAaaP_24" fill="#00090D"></path>
    </g>
</svg>