<?xml version="1.0" encoding="UTF-8"?>
<svg width="36px" height="36px" viewBox="0 0 36 36" version="1.1" xmlns="http://www.w3.org/2000/svg" xmlns:xlink="http://www.w3.org/1999/xlink">
    <!-- Generator: Sketch 60.1 (88133) - https://sketch.com -->
    <title>Topology / ENFV / DNS-topology_36</title>
    <desc>Created with Sketch.</desc>
    <g id="Topology-/-ENFV-/-DNS-topology_36" stroke="none" stroke-width="1" fill="none" fill-rule="evenodd">
        <rect id="secondary-color" fill="#FFA000" x="0" y="11" width="36" height="15" rx="2.5"></rect>
        <path d="M8,15.15 L10.34,15.15 C12.46,15.15 13.88,16.28 13.88,18.75 C13.88,21.08 12.38,22.35 10.27,22.35 L8,22.35 L8,15.15 Z M10.35,15.96 L9.02,15.96 L9.02,21.51 L10.37,21.51 C11.95,21.51 12.85,20.56 12.85,18.75 C12.85,16.86 11.89,15.96 10.35,15.96 Z M20.4433333,15.15 L20.4433333,21.13 L17.0133333,15.15 L15.6633333,15.15 L15.6633333,22.35 L16.5933333,22.35 L16.5933333,16.32 L20.0633333,22.35 L21.3533333,22.35 L21.3533333,15.15 L20.4433333,15.15 Z M27.7466666,20.4 C27.7466666,21.08 27.1366666,21.66 25.9366666,21.66 C24.8666666,21.66 24.2066666,21.14 24.0866666,20.33 L23.0366666,20.33 C23.2366666,21.65 24.4066666,22.5 25.9566666,22.5 C27.7466666,22.5 28.7666666,21.48 28.7666666,20.36 C28.7666666,19.25 28.1966666,18.66 26.1966666,18.1 C24.5466666,17.64 24.3066666,17.37 24.3066666,16.81 C24.3066666,16.27 24.7666666,15.84 25.8666666,15.84 C26.9466666,15.84 27.5566666,16.25 27.6666666,16.95 L28.7166666,16.95 C28.5366666,15.73 27.4066666,15 25.8666666,15 C24.2166666,15 23.2866666,15.8 23.2866666,16.85 C23.2866666,17.84 23.8066666,18.43 25.4766666,18.89 C27.4166666,19.42 27.7466666,19.73 27.7466666,20.4 Z" id="DNS-topology_36" fill="#00090D"></path>
    </g>
</svg>