<?xml version="1.0" encoding="UTF-8"?>
<svg width="16px" height="16px" viewBox="0 0 16 16" version="1.1" xmlns="http://www.w3.org/2000/svg" xmlns:xlink="http://www.w3.org/1999/xlink">
    <!-- Generator: Sketch 60.1 (88133) - https://sketch.com -->
    <title>Action/document/document-filled_16</title>
    <desc>Created with Sketch.</desc>
    <g id="Action/document/document-filled_16" stroke="none" stroke-width="1" fill="none" fill-rule="evenodd">
        <path d="M9.05417,0.0002767445 C9.08883532,9.96457742e-05 9.12213207,0.0137920681 9.14664447,0.0383044742 L13.9615016,4.85316157 C13.9861517,4.8778117 14,4.91124445 14,4.946105 C14,4.97617414 13.9756241,5.00055 13.945555,5.00055 L10,5.00055 L10,5.00055 C9.44772,5.00055 9,4.55284 9,4.00055 L9,0.0547241959 C9,0.0247618785 9.02420807,0.000429814434 9.05417,0.0002767445 Z M8,0 L8,4 C8,5.10457 8.89543,6 10,6 L14,6 L14,14 C14,15.1046 13.1046,16 12,16 L4,16 C2.895431,16 2,15.1046 2,14 L2,2 C2,0.895431 2.895431,0 4,0 L8,0 Z M4.5,13 L11.5,13 C11.7761424,13 12,12.7761424 12,12.5 C12,12.2238576 11.7761424,12 11.5,12 L4.5,12 C4.22385763,12 4,12.2238576 4,12.5 C4,12.7761424 4.22385763,13 4.5,13 Z M4.5,11 L11.5,11 C11.7761424,11 12,10.7761424 12,10.5 C12,10.2238576 11.7761424,10 11.5,10 L4.5,10 C4.22385763,10 4,10.2238576 4,10.5 C4,10.7761424 4.22385763,11 4.5,11 Z M4.5,9 L11.5,9 C11.7761424,9 12,8.77614237 12,8.5 C12,8.22385763 11.7761424,8 11.5,8 L4.5,8 C4.22385763,8 4,8.22385763 4,8.5 C4,8.77614237 4.22385763,9 4.5,9 Z" id="document-filled_16" fill="#00090D"></path>
    </g>
</svg>