<?xml version="1.0" encoding="UTF-8"?>
<svg width="16px" height="16px" viewBox="0 0 16 16" version="1.1" xmlns="http://www.w3.org/2000/svg" xmlns:xlink="http://www.w3.org/1999/xlink">
    <!-- Generator: Sketch 60.1 (88133) - https://sketch.com -->
    <title>Action/document/document_16</title>
    <desc>Created with Sketch.</desc>
    <g id="Action/document/document_16" stroke="none" stroke-width="1" fill="none" fill-rule="evenodd">
        <path d="M4.5,9 C4.22385763,9 4,8.77614237 4,8.5 C4,8.22385763 4.22385763,8 4.5,8 L11.5,8 C11.7761424,8 12,8.22385763 12,8.5 C12,8.77614237 11.7761424,9 11.5,9 L4.5,9 Z M4.5,11 C4.22385763,11 4,10.7761424 4,10.5 C4,10.2238576 4.22385763,10 4.5,10 L11.5,10 C11.7761424,10 12,10.2238576 12,10.5 C12,10.7761424 11.7761424,11 11.5,11 L4.5,11 Z M4.5,13 C4.22385763,13 4,12.7761424 4,12.5 C4,12.2238576 4.22385763,12 4.5,12 L11.5,12 C11.7761424,12 12,12.2238576 12,12.5 C12,12.7761424 11.7761424,13 11.5,13 L4.5,13 Z M10,5 L13,5 L13,4.914 L9.086,1 L9,1 L9,4 C9,4.551 9.449,5 10,5 Z M13,14 L13,6 L10,6 C8.895,6 8,5.105 8,4 L8,1 L4,1 C3.449,1 3,1.449 3,2 L3,14 C3,14.551 3.449,15 4,15 L12,15 C12.551,15 13,14.551 13,14 Z M13.707,4.207 C13.895,4.395 14,4.649 14,4.914 L14,5 L14,6 L14,14 C14,15.105 13.105,16 12,16 L4,16 C2.895,16 2,15.105 2,14 L2,2 C2,0.895 2.895,0 4,0 L8,0 L9,0 L9.086,0 C9.351,0 9.605,0.105 9.793,0.293 L13.707,4.207 Z" id="document_16" fill="#00090D"></path>
    </g>
</svg>