<?xml version="1.0" encoding="UTF-8"?>
<svg width="16px" height="16px" viewBox="0 0 16 16" version="1.1" xmlns="http://www.w3.org/2000/svg" xmlns:xlink="http://www.w3.org/1999/xlink">
    <!-- Generator: Sketch 60.1 (88133) - https://sketch.com -->
    <title>Navigation / double-arrow / double-arrow-left_16</title>
    <desc>Created with Sketch.</desc>
    <g id="Navigation-/-double-arrow-/-double-arrow-left_16" stroke="none" stroke-width="1" fill="none" fill-rule="evenodd">
        <path d="M0.843668544,1.1339778 L7.84098275,7.63776004 C7.94325042,7.73281532 8.0004,7.86489213 8.0004,8.00397301 C8.0004,8.14305389 7.94325042,8.2751307 7.84098275,8.37018598 L0.843668544,14.8661172 C0.746413998,14.9561696 0.624093847,15.0001952 0.501773696,15.0001952 C0.367422054,15.0001952 0.233070413,14.9471644 0.134813243,14.8411027 C-0.0536801047,14.6389852 -0.0426512387,14.3228013 0.159878847,14.1346919 L6.76416438,8.00397301 L0.159878847,1.86640374 C-0.0426512387,1.67829434 -0.0536801047,1.36110989 0.134813243,1.15899235 C0.32330659,0.957875389 0.641138458,0.945868407 0.843668544,1.1339778 Z M8.84326854,1.1339778 L15.8405828,7.63776004 C15.9428504,7.73281532 16,7.86489213 16,8.00397301 C16,8.14305389 15.9428504,8.2751307 15.8405828,8.37018598 L8.84326854,14.8661172 C8.746014,14.9561696 8.62369385,15.0001952 8.5013737,15.0001952 C8.36702205,15.0001952 8.23267041,14.9471644 8.13441324,14.8411027 C7.9459199,14.6389852 7.95694876,14.3228013 8.15947885,14.1346919 L14.7637644,8.00397301 L8.15947885,1.86640374 C7.95694876,1.67829434 7.9459199,1.36110989 8.13441324,1.15899235 C8.32290659,0.957875389 8.64073846,0.945868407 8.84326854,1.1339778 Z" id="double-arrow-right_16" fill="#00090D" transform="translate(8.000200, 8.000195) rotate(-180.000000) translate(-8.000200, -8.000195) "></path>
    </g>
</svg>