<?xml version="1.0" encoding="UTF-8"?>
<svg width="16px" height="16px" viewBox="0 0 16 16" version="1.1" xmlns="http://www.w3.org/2000/svg" xmlns:xlink="http://www.w3.org/1999/xlink">
    <!-- Generator: Sketch 60.1 (88133) - https://sketch.com -->
    <title>Action/download/download_16</title>
    <desc>Created with Sketch.</desc>
    <g id="Action/download/download_16" stroke="none" stroke-width="1" fill="none" fill-rule="evenodd">
        <path d="M7.646,11.8529 L3.647,7.8539 C3.451,7.6579 3.451,7.3419 3.647,7.1469 C3.842,6.9509 4.158,6.9509 4.354,7.1469 L7.5,10.2929 L7.5,1.4999 C7.5,1.2239 7.724,0.9999 8,0.9999 C8.276,0.9999 8.5,1.2239 8.5,1.4999 L8.5,10.2929 L11.647,7.1469 C11.842,6.9509 12.158,6.9509 12.354,7.1469 C12.549,7.3419 12.549,7.6579 12.354,7.8539 L8.354,11.8529 C8.308,11.8989 8.253,11.9359 8.191,11.9619 C8.13,11.9869 8.065,11.9999 8,11.9999 C7.935,11.9999 7.87,11.9869 7.809,11.9619 C7.748,11.9359 7.692,11.8989 7.646,11.8529 Z M1.53846154,14 L14.4615385,14 C14.7587692,14 15,14.224 15,14.5 C15,14.776 14.7587692,15 14.4615385,15 L1.53846154,15 C1.24123077,15 1,14.776 1,14.5 C1,14.224 1.24123077,14 1.53846154,14 Z" id="download_16" fill="#00090D"></path>
    </g>
</svg>