<?xml version="1.0" encoding="UTF-8"?>
<svg width="16px" height="16px" viewBox="0 0 16 16" version="1.1" xmlns="http://www.w3.org/2000/svg" xmlns:xlink="http://www.w3.org/1999/xlink">
    <!-- Generator: Sketch 60.1 (88133) - https://sketch.com -->
    <title>Action/copy &amp; duplicate/duplicate_16</title>
    <desc>Created with Sketch.</desc>
    <g id="Action/copy-&amp;-duplicate/duplicate_16" stroke="none" stroke-width="1" fill="none" fill-rule="evenodd">
        <path d="M6,2 L12,2 C13.1046,2 14,2.89543 14,4 L14,14 C14,15.1046 13.1046,16 12,16 L6,16 C4.89543,16 4,15.1046 4,14 L4,4 C4,2.89543 4.89543,2 6,2 Z M6,3 C5.44772,3 5,3.44772 5,4 L5,14 C5,14.5523 5.44772,15 6,15 L12,15 C12.5523,15 13,14.5523 13,14 L13,4 C13,3.44772 12.5523,3 12,3 L6,3 Z M2,10.1 C2,10.0448 2.0447715,10 2.1,10 L2.9,10 C2.955228,10 3,10.0448 3,10.1 L3,10.9 C3,10.9552 2.955228,11 2.9,11 L2.1,11 C2.0447715,11 2,10.9552 2,10.9 L2,10.1 Z M2,8.1 C2,8.04477 2.0447715,8 2.1,8 L2.9,8 C2.955228,8 3,8.04477 3,8.1 L3,8.9 C3,8.95523 2.955228,9 2.9,9 L2.1,9 C2.0447715,9 2,8.95523 2,8.9 L2,8.1 Z M2,6.1 C2,6.04477 2.0447715,6 2.1,6 L2.9,6 C2.955228,6 3,6.04477 3,6.1 L3,6.9 C3,6.95523 2.955228,7 2.9,7 L2.1,7 C2.0447715,7 2,6.95523 2,6.9 L2,6.1 Z M2,4.1 C2,4.04477 2.0447715,4 2.1,4 L2.9,4 C2.955228,4 3,4.04477 3,4.1 L3,4.9 C3,4.95523 2.955228,5 2.9,5 L2.1,5 C2.0447715,5 2,4.95523 2,4.9 L2,4.1 Z M2,2.1 C2,2.04477 2.0447715,2 2.1,2 L2.9,2 C2.955228,2 3,2.04477 3,2.1 L3,2.9 C3,2.95523 2.955228,3 2.9,3 L2.1,3 C2.0447715,3 2,2.95523 2,2.9 L2,2.1 Z M2.90014,0.00492363 C2.955099,-0.000525255 3,0.0447715 3,0.1 L3,0.9 C3,0.955228 2.955228,1 2.9,1 L2.1,1 C2.0447715,1 1.99947475,0.955099 2.00492363,0.90014 C2.0517748,0.427586 2.427586,0.0517748 2.90014,0.00492363 Z M4,0.1 C4,0.0447715 4.04477,0 4.1,0 L4.9,0 C4.95523,0 5,0.0447715 5,0.1 L5,0.9 C5,0.955228 4.95523,1 4.9,1 L4.1,1 C4.04477,1 4,0.955228 4,0.9 L4,0.1 Z M6,0.1 C6,0.0447715 6.04477,0 6.1,0 L6.9,0 C6.95523,0 7,0.0447715 7,0.1 L7,0.9 C7,0.955228 6.95523,1 6.9,1 L6.1,1 C6.04477,1 6,0.955228 6,0.9 L6,0.1 Z M8,0.1 C8,0.0447715 8.04477,0 8.1,0 L8.9,0 C8.95523,0 9,0.0447715 9,0.1 L9,0.9 C9,0.955228 8.95523,1 8.9,1 L8.1,1 C8.04477,1 8,0.955228 8,0.9 L8,0.1 Z" id="duplicate_16" fill="#00090D"></path>
    </g>
</svg>