<?xml version="1.0" encoding="UTF-8"?>
<svg width="16px" height="16px" viewBox="0 0 16 16" version="1.1" xmlns="http://www.w3.org/2000/svg" xmlns:xlink="http://www.w3.org/1999/xlink">
    <!-- Generator: Sketch 60.1 (88133) - https://sketch.com -->
    <title>Action/edit/edit-filled_16</title>
    <desc>Created with Sketch.</desc>
    <g id="Action/edit/edit-filled_16" stroke="none" stroke-width="1" fill="none" fill-rule="evenodd">
        <path d="M0.4998,16.0001 C0.3688,16.0001 0.2408,15.9480203 0.1458,15.8528746 C0.0258,15.7326905 -0.0252,15.5584237 0.0118,15.3921691 L0.8408,11.5753246 C0.8608,11.4811804 0.9078,11.3950485 0.9748,11.3269442 L11.5458,0.740734096 C12.5298,-0.246778032 14.2508,-0.246778032 15.2348,0.740734096 C15.7278,1.23348863 15.9998,1.89049467 15.9998,2.58856358 C15.9998,3.2866325 15.7278,3.94263701 15.2348,4.43639307 L4.6648,15.0226032 C4.5978,15.089706 4.5118,15.136778 4.4178,15.1578102 L0.6058,15.9880816 C0.5708,15.9960939 0.5348,16.0001 0.4998,16.0001 Z" id="edit-filled_16" fill="#00090D"></path>
    </g>
</svg>