<?xml version="1.0" encoding="UTF-8"?>
<svg width="16px" height="16px" viewBox="0 0 16 16" version="1.1" xmlns="http://www.w3.org/2000/svg" xmlns:xlink="http://www.w3.org/1999/xlink">
    <!-- Generator: Sketch 60.1 (88133) - https://sketch.com -->
    <title>Action/edit/edit_12</title>
    <desc>Created with Sketch.</desc>
    <g id="Action/edit/edit_12" stroke="none" stroke-width="1" fill="none" fill-rule="evenodd">
        <path d="M3.5649,10.9529 L3.1539,12.8449 L5.0449,12.4329 L12.6929,4.7859 C12.8909,4.5879 12.9999,4.3259 12.9999,4.0459 C12.9999,3.7659 12.8909,3.5029 12.6929,3.3059 C12.2979,2.9099 11.6079,2.9099 11.2129,3.3059 L3.5649,10.9529 L3.5649,10.9529 Z M2.4999,13.9989 C2.3689,13.9989 2.2409,13.9469 2.1469,13.8519 C2.0259,13.7319 1.9749,13.5589 2.0119,13.3919 L2.6189,10.5969 C2.6389,10.5039 2.6859,10.4179 2.7539,10.3499 L10.5059,2.5989 C11.3039,1.8009 12.6029,1.8009 13.3999,2.5989 C13.7869,2.9849 13.9999,3.4989 13.9999,4.0459 C13.9999,4.5929 13.7869,5.1059 13.3999,5.4929 L5.6489,13.2449 C5.5809,13.3119 5.4949,13.3589 5.4009,13.3799 L2.6059,13.9879 C2.5709,13.9949 2.5349,13.9989 2.4999,13.9989 Z" id="edit_12" fill="#000000"></path>
    </g>
</svg>