<?xml version="1.0" encoding="UTF-8"?>
<svg width="16px" height="16px" viewBox="0 0 16 16" version="1.1" xmlns="http://www.w3.org/2000/svg" xmlns:xlink="http://www.w3.org/1999/xlink">
    <!-- Generator: Sketch 60.1 (88133) - https://sketch.com -->
    <title>Action/edit/edit-filled_12</title>
    <desc>Created with Sketch.</desc>
    <g id="Action/edit/edit-filled_12" stroke="none" stroke-width="1" fill="none" fill-rule="evenodd">
        <path d="M13.3998405,2.5989 C13.7868405,2.9849 13.9998405,3.4989 13.9998405,4.0459 C13.9998405,4.5929 13.7868405,5.1059 13.3998405,5.4929 L5.64884049,13.2449 C5.58084049,13.3119 5.49484049,13.3589 5.40084049,13.3799 L2.60584049,13.9879 C2.57084049,13.9949 2.53484049,13.9989 2.49984049,13.9989 C2.36884049,13.9989 2.24084049,13.9469 2.14684049,13.8519 C2.02584049,13.7319 1.97484049,13.5589 2.01184049,13.3919 L2.61884049,10.5969 C2.63884049,10.5039 2.68584049,10.4179 2.75384049,10.3499 L10.5058405,2.5989 C11.3038405,1.8009 12.6028405,1.8009 13.3998405,2.5989 Z" id="edit-filled_12" fill="#000000"></path>
    </g>
</svg>