<?xml version="1.0" encoding="UTF-8"?>
<svg width="16px" height="16px" viewBox="0 0 16 16" version="1.1" xmlns="http://www.w3.org/2000/svg" xmlns:xlink="http://www.w3.org/1999/xlink">
    <!-- Generator: Sketch 60.1 (88133) - https://sketch.com -->
    <title>Action / email_16</title>
    <desc>Created with Sketch.</desc>
    <g id="Action-/-email_16" stroke="none" stroke-width="1" fill="none" fill-rule="evenodd">
        <path d="M14,13 L2,13 C1.449,13 1,12.551 1,12 L1,4.238 L6.616,8.532 C7.023,8.844 7.512,9 8,9 C8.488,9 8.977,8.844 9.384,8.532 L15,4.238 L15,12 C15,12.551 14.551,13 14,13 Z M14,3 C14.249,3 14.469,3.101 14.645,3.251 L8.776,7.738 C8.319,8.088 7.681,8.088 7.224,7.738 L1.355,3.251 C1.531,3.101 1.751,3 2,3 L14,3 Z M14,2 L2,2 C0.897,2 0,2.897 0,4 L0,12 C0,13.103 0.897,14 2,14 L14,14 C15.103,14 16,13.103 16,12 L16,4 C16,2.897 15.103,2 14,2 Z" id="email_16" fill="#00090D"></path>
    </g>
</svg>