<?xml version="1.0" encoding="UTF-8"?>
<svg width="16px" height="16px" viewBox="0 0 16 16" version="1.1" xmlns="http://www.w3.org/2000/svg" xmlns:xlink="http://www.w3.org/1999/xlink">
    <!-- Generator: Sketch 60.1 (88133) - https://sketch.com -->
    <title>Tools / cloud-account / enable-cloud-account_16</title>
    <desc>Created with Sketch.</desc>
    <g id="Tools-/-cloud-account-/-enable-cloud-account_16" stroke="none" stroke-width="1" fill="none" fill-rule="evenodd">
        <path d="M4,6.5 C4,6.749 3.822,7.01 3.576,7.045 C2.107,7.255 1,8.525 1,10 C1,11.654 2.346,13 4,13 L11.5,13 C13.43,13 15,11.43 15,9.5 C15,9.08369 14.9269,8.68419 14.793,8.3136 C14.7177,8.1051 14.754,7.86734 14.9108,7.71056 L14.9108,7.71056 C15.1515,7.46983 15.5559,7.52253 15.682,7.83873 C15.8872,8.35298 16,8.9136 16,9.5 C16,11.981 13.981,14 11.5,14 L4,14 C1.794,14 0,12.206 0,10 C0,8.172 1.273,6.578 3.022,6.137 C3.224,3.803 5.155,2 7.5,2 C9.417,2 11.103,3.218 11.731,5.006 C11.9196,5.01561 12.1052,5.0369 12.2871,5.06915 C12.6717,5.13735 12.7761,5.60254 12.5,5.87875 L12.5,5.87875 C12.3687,6.01003 12.1794,6.06128 11.9956,6.03508 C11.8369,6.01246 11.6748,6.00051 11.51,6 C11.47,6.005 11.378,6.014 11.363,6.014 C11.135,6.014 10.935,5.859 10.878,5.638 C10.482,4.085 9.093,3 7.5,3 C5.57,3 4,4.57 4,6.5 Z M9.5024,11.5 C9.3694,11.5 9.2424,11.447 9.1484,11.353 L6.1464,8.346 C5.9514,8.15 5.9514,7.834 6.1474,7.639 C6.3414,7.444 6.6584,7.443 6.8544,7.64 L9.5024,10.292 L15.1444,4.646 C15.3394,4.451 15.6554,4.451 15.8514,4.646 C16.0464,4.841 16.0464,5.158 15.8514,5.354 L9.8564,11.354 C9.7624,11.447 9.6354,11.5 9.5024,11.5 Z" id="enable-cloud-account_16" fill="#00090D"></path>
    </g>
</svg>