<?xml version="1.0" encoding="UTF-8"?>
<svg width="36px" height="36px" viewBox="0 0 36 36" version="1.1" xmlns="http://www.w3.org/2000/svg" xmlns:xlink="http://www.w3.org/1999/xlink">
    <!-- Generator: Sketch 60.1 (88133) - https://sketch.com -->
    <title>Topology / ENFV / ENFV-topology_36</title>
    <desc>Created with Sketch.</desc>
    <g id="Topology-/-ENFV-/-ENFV-topology_36" stroke="none" stroke-width="1" fill="none" fill-rule="evenodd">
        <rect id="secondary-color" fill="#FFA000" x="0" y="11" width="36" height="15" rx="2.5"></rect>
        <path d="M9.2,18.12 L6.02,18.12 L6.02,15.86 L9.49,15.86 L9.49,15 L5,15 L5,22.2 L9.49,22.2 L9.49,21.34 L6.02,21.34 L6.02,18.96 L9.2,18.96 L9.2,18.12 Z M16.1033333,15 L16.1033333,20.98 L12.6733333,15 L11.3233333,15 L11.3233333,22.2 L12.2533333,22.2 L12.2533333,16.17 L15.7233333,22.2 L17.0133333,22.2 L17.0133333,15 L16.1033333,15 Z M23.1566666,18.31 L20.1166666,18.31 L20.1166666,15.86 L23.5066666,15.86 L23.5066666,15 L19.0966666,15 L19.0966666,22.2 L20.1166666,22.2 L20.1166666,19.16 L23.1566666,19.16 L23.1566666,18.31 Z M30.0099999,15 L27.7999999,21.24 L25.6199999,15 L24.5399999,15 L27.1599999,22.2 L28.4299999,22.2 L31.0099999,15 L30.0099999,15 Z" id="ENFV-topology_36" fill="#00090D"></path>
    </g>
</svg>