<svg width="18" height="18" viewBox="0 0 18 18" fill="none" xmlns="http://www.w3.org/2000/svg">
<g id="Size=18px, Filled=True">
<path id="Subtract" fill-rule="evenodd" clip-rule="evenodd" d="M9 18C13.9706 18 18 13.9706 18 9C18 4.02942 13.9706 0 9 0C4.02944 0 0 4.02942 0 9C0 13.9706 4.02944 18 9 18ZM8.77414 4.00513C10.0147 3.94897 11.2317 4.35657 12.1882 5.14832C13.1448 5.94019 13.7725 7.05957 13.9492 8.2887C14.1258 9.51794 13.8387 10.7688 13.1438 11.798C12.449 12.8271 11.396 13.5608 10.1899 13.8563C8.98377 14.1519 7.71086 13.988 6.61893 13.3966C5.75879 12.9308 5.05944 12.226 4.60012 11.3751H5.62505C5.90119 11.3751 6.12505 11.1512 6.12505 10.8751C6.12505 10.599 5.90119 10.3751 5.62505 10.3751H3.37505C3.0989 10.3751 2.87505 10.599 2.87505 10.8751V13.1251C2.87505 13.4012 3.0989 13.6251 3.37505 13.6251C3.65119 13.6251 3.87505 13.4012 3.87505 13.1251V12.1201C4.42315 13.0204 5.20296 13.7671 6.14271 14.276C7.45303 14.9856 8.98052 15.1823 10.4278 14.8276C11.8752 14.473 13.1388 13.5925 13.9726 12.3575C14.8065 11.1226 15.151 9.62146 14.939 8.14648C14.727 6.67151 13.9738 5.32825 12.8259 4.37805C11.678 3.42786 10.2176 2.93884 8.72897 3.0061C7.24036 3.07349 5.83006 3.69226 4.7726 4.74219C3.7509 5.75659 3.12923 7.10327 3.01802 8.53528C3.01275 8.56445 3.01 8.59436 3.01 8.625L3.01 9C3.01 9.27612 3.23386 9.5 3.51 9.5C3.78614 9.5 4.01 9.27612 4.01 9L4.01 8.68396C4.08726 7.46399 4.60885 6.31396 5.47717 5.45178C6.35838 4.5769 7.53363 4.06116 8.77414 4.00513ZM11.0202 11.5203C10.825 11.7155 10.5084 11.7155 10.3131 11.5203L8.64644 9.85352C8.55268 9.75977 8.5 9.63257 8.5 9.5V6.5C8.5 6.22388 8.72385 6 9 6C9.27614 6 9.5 6.22388 9.5 6.5V9.29285L11.0202 10.8131C11.2155 11.0084 11.2155 11.325 11.0202 11.5203Z" fill="#545454"/>
</g>
</svg>
