<svg width="24" height="24" viewBox="0 0 24 24" fill="none" xmlns="http://www.w3.org/2000/svg">
<g id="Size=24px, Filled=False">
<g id="Union">
<path d="M18.81 3.36154C16.6363 1.6479 13.8964 0.816758 11.137 1.03393C8.3775 1.2511 5.80136 2.50062 3.92245 4.53321C2.04354 6.5658 1 9.23204 1 12C0.999989 12.2762 0.776135 12.5 0.5 12.5C0.223858 12.5 0 12.2761 0 12L2.65241e-06 11.5C0.14617 8.70712 1.28081 5.91774 3.18813 3.85441C5.23785 1.63704 8.04818 0.27393 11.0585 0.0370141C14.0688 -0.199902 17.0578 0.706793 19.4291 2.57622C21.8005 4.44565 23.3799 7.14037 23.8523 10.1228C24.3246 13.1052 23.6552 16.1561 21.9776 18.6669C20.3 21.1776 17.7375 22.9635 14.8013 23.6685C11.8652 24.3734 8.77115 23.9454 6.13654 22.47C4.01584 21.2823 2.3183 19.4863 1.25009 17.333L1.25009 20.2501C1.25009 20.5263 1.02623 20.7501 0.750091 20.7501C0.473949 20.7501 0.250091 20.5263 0.250091 20.2501L0.250092 15.7501C0.250092 15.474 0.473949 15.2501 0.750092 15.2501H5.25009C5.52623 15.2501 5.75009 15.474 5.75009 15.7501C5.75009 16.0263 5.52623 16.2501 5.25009 16.2501H1.85421C2.79959 18.5071 4.47513 20.3934 6.62517 21.5975C9.04022 22.95 11.8764 23.3423 14.5679 22.6961C17.2594 22.0499 19.6084 20.4128 21.1462 18.1113C22.684 15.8098 23.2976 13.0131 22.8646 10.2792C22.4316 7.54534 20.9838 5.07518 18.81 3.36154Z" fill="#545454"/>
<path d="M14.118 17.781C14.217 17.898 14.358 17.959 14.5 17.959C14.614 17.959 14.729 17.92 14.822 17.841C15.033 17.663 15.061 17.348 14.882 17.137L12.052 13.786C12.019 13.753 12 13.708 12 13.662V6.5C12 6.224 11.776 6 11.5 6C11.224 6 11 6.224 11 6.5V13.662C11 13.976 11.123 14.271 11.316 14.462L14.118 17.781Z" fill="#545454"/>
</g>
</g>
</svg>
