<svg width="18" height="18" viewBox="0 0 18 18" fill="none" xmlns="http://www.w3.org/2000/svg">
<g id="Size=18px, Filled=False">
<g id="Union">
<path d="M14.0888 2.83737C12.5583 1.57047 10.6111 0.918425 8.6263 1.00817C6.64148 1.09792 4.76108 1.92304 3.35114 3.3229C1.97596 4.68824 1.14432 6.50504 1.00766 8.43474L1.00767 8.4375L1.00767 9C1.00767 9.27614 0.783807 9.5 0.507666 9.5C0.231522 9.5 0.00766511 9.27614 0.00766566 9L0.00766662 8.52938L0 8.52898C0.116982 6.29684 1.06039 4.18811 2.64657 2.61326C4.23276 1.03842 6.34821 0.11016 8.58113 0.00919372C10.814 -0.0917729 13.0046 0.641774 14.7265 2.06704C16.4483 3.49231 17.5782 5.5073 17.8961 7.71977C18.2141 9.93223 17.6974 12.1839 16.4466 14.0363C15.1958 15.8888 13.3004 17.2095 11.1294 17.7414C8.95845 18.2734 6.66721 17.9784 4.70173 16.914C3.14244 16.0695 1.8767 14.7887 1.05023 13.2424L1.05023 15.1876C1.05023 15.4638 0.826376 15.6876 0.550234 15.6876C0.274091 15.6876 0.0502334 15.4638 0.0502334 15.1876L0.0502338 11.8126C0.0502339 11.5365 0.274091 11.3126 0.550234 11.3126H3.92523C4.20138 11.3126 4.42523 11.5365 4.42523 11.8126C4.42523 12.0888 4.20138 12.3126 3.92523 12.3126H1.70571C2.42428 13.8923 3.6406 15.2021 5.17795 16.0346C6.92504 16.9808 8.9617 17.243 10.8915 16.7702C12.8212 16.2974 14.506 15.1234 15.6178 13.4767C16.7296 11.8301 17.1889 9.82865 16.9063 7.86201C16.6237 5.89537 15.6194 4.10427 14.0888 2.83737Z" fill="#545454"/>
<path d="M11.1341 12.3536C11.3294 12.5488 11.646 12.5488 11.8412 12.3536C12.0365 12.1583 12.0365 11.8417 11.8412 11.6464L9.48767 9.29289V5C9.48767 4.72386 9.26381 4.5 8.98767 4.5C8.71152 4.5 8.48767 4.72386 8.48767 5V9.5C8.48767 9.63261 8.54034 9.75978 8.63411 9.85355L11.1341 12.3536Z" fill="#545454"/>
</g>
</g>
</svg>
