<svg width="24" height="24" viewBox="0 0 24 24" fill="none" xmlns="http://www.w3.org/2000/svg">
<g id="Size=24px, Filled=True">
<path id="Subtract" fill-rule="evenodd" clip-rule="evenodd" d="M12 24C18.6274 24 24 18.6274 24 12C24 5.37256 18.6274 0 12 0C5.37258 0 0 5.37256 0 12C0 18.6274 5.37258 24 12 24ZM11.6386 4.00818C13.6234 3.91846 15.5706 4.57043 17.1012 5.8374C18.6317 7.10425 19.636 8.89539 19.9186 10.8621C20.2013 12.8286 19.742 14.8301 18.6302 16.4767C17.5183 18.1234 15.8336 19.2974 13.9038 19.7701C11.974 20.243 9.93737 19.9808 8.19028 19.0347C6.65294 18.202 5.43661 16.8923 4.71804 15.3126H6.93757C7.21371 15.3126 7.43757 15.0887 7.43757 14.8126C7.43757 14.5365 7.21371 14.3126 6.93757 14.3126H3.56257C3.28643 14.3126 3.06257 14.5365 3.06257 14.8126V18.1876C3.06257 18.4637 3.28643 18.6876 3.56257 18.6876C3.83871 18.6876 4.06257 18.4637 4.06257 18.1876V16.2424C4.88904 17.7887 6.15477 19.0695 7.71407 19.9139C9.67954 20.9784 11.9708 21.2733 14.1418 20.7415C16.3128 20.2095 18.2081 18.8888 19.4589 17.0364C20.7097 15.1838 21.2264 12.9323 20.9085 10.7197C20.5905 8.50732 19.4607 6.49231 17.7388 5.06702C16.017 3.64172 13.8264 2.9082 11.5935 3.00916C9.36054 3.11011 7.24509 4.03845 5.65891 5.61328C4.07272 7.18811 3.13698 9.29736 3.02 11.5294V12C3.02 12.2761 3.24386 12.5 3.52 12.5C3.79614 12.5 4.02 12.2761 4.02 12V11.4375L4.01999 11.4347C4.15666 9.505 4.9883 7.68823 6.36347 6.32288C7.77341 4.9231 9.65381 4.0979 11.6386 4.00818ZM14.8536 15.3535C14.6583 15.5488 14.3417 15.5488 14.1464 15.3535L11.6464 12.8535C11.5527 12.7598 11.5 12.6326 11.5 12.5V8C11.5 7.72388 11.7239 7.5 12 7.5C12.2761 7.5 12.5 7.72388 12.5 8V12.2928L14.8536 14.6465C15.0488 14.8417 15.0488 15.1583 14.8536 15.3535Z" fill="#545454"/>
</g>
</svg>
