<?xml version="1.0" encoding="UTF-8"?>
<svg width="16px" height="16px" viewBox="0 0 16 16" version="1.1" xmlns="http://www.w3.org/2000/svg" xmlns:xlink="http://www.w3.org/1999/xlink">
    <title>Action/eraser_16</title>
    <g id="Action/eraser_16" stroke="none" stroke-width="1" fill="none" fill-rule="evenodd">
        <path d="M14.5020107,6.70776137 L8.97001068,12.2617614 L3.74301068,7.03476137 L9.25301068,1.50276137 C9.91801068,0.834761374 11.0040107,0.831761374 11.6730107,1.49576137 L14.4950107,4.29576137 C14.8190107,4.61676137 14.9980107,5.04376137 15.0000149,5.49975433 C15.0010107,5.95576137 14.8240107,6.38476137 14.5020107,6.70776137 Z M6.74601068,14.4947614 C6.08201068,15.1637614 4.99601068,15.1657614 4.32601068,14.5017614 L1.50401068,11.7017614 C1.18001068,11.3807614 1.00101068,10.9537614 0.999993914,10.4977614 C0.998010678,10.0417614 1.17501068,9.61276137 1.49701068,9.28976137 L3.03701068,7.74376137 L8.26401068,12.9707614 L6.74601068,14.4947614 L6.74601068,14.4947614 Z M15.1990107,3.58576137 L12.3770107,0.785761374 C11.3170107,-0.266238626 9.59901068,-0.261238626 8.54401068,0.796761374 L0.788010678,8.58376137 C0.277010678,9.09676137 -0.0019893216,9.77776137 3.39746009e-11,10.5007614 C0.0020106784,11.2237614 0.286010678,11.9027614 0.800010678,12.4117614 L3.62201068,15.2117614 C4.14901068,15.7357614 4.84101068,15.9977614 5.53201068,15.9977614 C6.22901068,15.9977614 6.92501068,15.7317614 7.45501068,15.2007614 L15.2110107,7.41376137 C15.7220107,6.90076137 16.0020107,6.21976137 16.0000213,5.49676137 C15.9970107,4.77376137 15.7130107,4.09476137 15.1990107,3.58576137 Z" id="eraser_16" fill="#545454"></path>
    </g>
</svg>