<?xml version="1.0" encoding="UTF-8"?>
<svg width="24px" height="24px" viewBox="0 0 24 24" version="1.1" xmlns="http://www.w3.org/2000/svg" xmlns:xlink="http://www.w3.org/1999/xlink">
    <!-- Generator: Sketch 60.1 (88133) - https://sketch.com -->
    <title>Alert and Notification/error/error_24</title>
    <desc>Created with Sketch.</desc>
    <g id="Alert-and-Notification/error/error_24" stroke="none" stroke-width="1" fill="none" fill-rule="evenodd">
        <path d="M23.259,5.782 C23.737,6.26 24,6.895 24,7.57 L24,16.431 C24,17.106 23.737,17.741 23.26,18.219 L18.219,23.259 C17.749,23.73 17.097,24 16.43,24 L7.57,24 C6.903,24 6.251,23.73 5.781,23.259 L0.741,18.219 C0.263,17.741 0,17.106 0,16.431 L0,7.57 C0,6.895 0.263,6.26 0.74,5.782 L5.781,0.742 C6.251,0.271 6.903,0 7.57,0 L16.43,0 C17.097,0 17.749,0.271 18.219,0.742 L23.259,5.782 Z M23,16.431 L23,7.57 C23,7.161 22.841,6.778 22.552,6.489 L17.512,1.449 C17.227,1.163 16.833,1 16.43,1 L7.57,1 C7.167,1 6.773,1.163 6.489,1.449 L1.448,6.489 C1.159,6.778 1,7.161 1,7.57 L1,16.431 C1,16.839 1.159,17.223 1.448,17.512 L6.488,22.552 C6.773,22.837 7.167,23 7.57,23 L16.43,23 C16.833,23 17.227,22.837 17.511,22.552 L22.552,17.512 C22.841,17.223 23,16.839 23,16.431 Z M15.8901,8.18 C16.0831,8.372 16.0831,8.688 15.8901,8.881 L12.7361,12.035 L15.8901,15.19 C16.0831,15.382 16.0831,15.698 15.8901,15.891 C15.6971,16.083 15.3821,16.083 15.1891,15.891 L12.0351,12.737 L8.8801,15.891 C8.6871,16.083 8.3721,16.083 8.1791,15.891 C7.9871,15.698 7.9871,15.382 8.1791,15.19 L11.3341,12.035 L8.1791,8.881 C7.9871,8.688 7.9871,8.372 8.1791,8.18 C8.3721,7.987 8.6871,7.987 8.8801,8.18 L12.0351,11.334 L15.1891,8.18 C15.3821,7.987 15.6971,7.987 15.8901,8.18 Z" id="error_24" fill="#00090D"></path>
    </g>
</svg>