<?xml version="1.0" encoding="UTF-8"?>
<svg width="16px" height="16px" viewBox="0 0 16 16" version="1.1" xmlns="http://www.w3.org/2000/svg" xmlns:xlink="http://www.w3.org/1999/xlink">
    <!-- Generator: Sketch 60.1 (88133) - https://sketch.com -->
    <title>Alert and Notification/error/error-filled_16</title>
    <desc>Created with Sketch.</desc>
    <g id="Alert-and-Notification/error/error-filled_16" stroke="none" stroke-width="1" fill="none" fill-rule="evenodd">
        <path d="M4.82843,16 C4.29799,16 3.78929,15.7893 3.41421,15.4142 L0.585786,12.5858 C0.210713,12.2107 0,11.702 0,11.1716 L0,4.82843 C0,4.29799 0.210714,3.78929 0.585786,3.41421 L3.41421,0.585786 C3.78929,0.210713 4.29799,0 4.82843,0 L11.1716,0 C11.702,0 12.2107,0.210714 12.5858,0.585786 L15.4142,3.41421 C15.7893,3.78929 16,4.29799 16,4.82843 L16,11.1716 C16,11.702 15.7893,12.2107 15.4142,12.5858 L12.5858,15.4142 C12.2107,15.7893 11.702,16 11.1716,16 L4.82843,16 Z M7.9999975,7.29289 L5.85355,5.14645 C5.65829,4.95118 5.34171,4.95118 5.14645,5.14645 C4.95118,5.34171 4.95118,5.65829 5.14645,5.85355 L7.29289,7.9999975 L5.14645,10.1464 C4.95118,10.3417 4.95118,10.6583 5.14645,10.8536 C5.34171,11.0488 5.65829,11.0488 5.85355,10.8536 L7.9999975,8.70711 L10.1464,10.8536 C10.3417,11.0488 10.6583,11.0488 10.8536,10.8536 C11.0488,10.6583 11.0488,10.3417 10.8536,10.1464 L8.70711,7.9999975 L10.8536,5.85355 C11.0488,5.65829 11.0488,5.34171 10.8536,5.14645 C10.6583,4.95118 10.3417,4.95118 10.1464,5.14645 L7.9999975,7.29289 Z" id="error-filled_16" fill="#00090D"></path>
    </g>
</svg>