<?xml version="1.0" encoding="UTF-8"?>
<svg width="36px" height="36px" viewBox="0 0 36 36" version="1.1" xmlns="http://www.w3.org/2000/svg" xmlns:xlink="http://www.w3.org/1999/xlink">
    <!-- Generator: Sketch 60.1 (88133) - https://sketch.com -->
    <title>Alert and Notification/error/error-filled_36</title>
    <desc>Created with Sketch.</desc>
    <g id="Alert-and-Notification/error/error-filled_36" stroke="none" stroke-width="1" fill="none" fill-rule="evenodd">
        <path d="M10.4497,35 C9.52149,35 8.63125,34.6313 7.97487,33.9749 L2.02512,28.0251 C1.368747,27.3687 1,26.4785 1,25.5503 L1,10.4497 C1,9.52149 1.368749,8.63125 2.02513,7.97487 L7.94559,2.05441 C8.62072,1.379284 9.53639,1 10.4912,1 L25.5088,1 C26.4636,1 27.3793,1.379285 28.0544,2.05442 L33.9749,7.97488 C34.6313,8.63125 35,9.52149 35,10.4497 L35,25.5503 C35,26.4785 34.6313,27.3687 33.9749,28.0251 L28.0251,33.9749 C27.3687,34.6313 26.4785,35 25.5503,35 L10.4497,35 Z M18,16.5858 L13.2071,11.7929 C12.8166,11.4024 12.1834,11.4024 11.7929,11.7929 C11.4024,12.1834 11.4024,12.8166 11.7929,13.2071 L16.5858,18 L11.7929,22.7929 C11.4024,23.1834 11.4024,23.8166 11.7929,24.2071 C12.1834,24.5976 12.8166,24.5976 13.2071,24.2071 L18,19.4142 L22.7929,24.2071 C23.1834,24.5976 23.8166,24.5976 24.2071,24.2071 C24.5976,23.8166 24.5976,23.1834 24.2071,22.7929 L19.4142,18 L24.2071,13.2071 C24.5976,12.8166 24.5976,12.1834 24.2071,11.7929 C23.8166,11.4024 23.1834,11.4024 22.7929,11.7929 L18,16.5858 Z" id="error-filled_36" fill="#00090D"></path>
    </g>
</svg>