<svg width="40" height="40" viewBox="0 0 40 40" fill="none" xmlns="http://www.w3.org/2000/svg">
<g id="Size=40">
<path id="secondary-color" fill-rule="evenodd" clip-rule="evenodd" d="M20 0C8.95431 0 0 8.95431 0 20C0 31.0457 8.95431 40 20 40C31.0457 40 40 31.0457 40 20C40 8.95431 31.0457 0 20 0ZM20 10C14.4772 10 10 14.4772 10 20C10 25.5228 14.4772 30 20 30C25.5228 30 30 25.5228 30 20C30 14.4772 25.5228 10 20 10Z" fill="#D4371C" fill-opacity="0.15"/>
<g id="Icon">
<path id="error-filled_24" fill-rule="evenodd" clip-rule="evenodd" d="M15.0355 31C14.3725 31 13.7366 30.7366 13.2678 30.2678L9.73223 26.7322C9.26339 26.2634 9 25.6275 9 24.9645V15.0355C9 14.3725 9.26339 13.7366 9.73223 13.2678L13.2678 9.73223C13.7366 9.26339 14.3725 9 15.0355 9H24.9645C25.6275 9 26.2634 9.26339 26.7322 9.73223L30.2678 13.2678C30.7366 13.7366 31 14.3725 31 15.0355V24.9645C31 25.6275 30.7366 26.2634 30.2678 26.7322L26.7322 30.2678C26.2634 30.7366 25.6275 31 24.9645 31H15.0355ZM20 19.2929L16.3535 15.6465C16.1583 15.4512 15.8417 15.4512 15.6465 15.6465C15.4512 15.8417 15.4512 16.1583 15.6465 16.3535L19.2929 20L15.6465 23.6464C15.4512 23.8417 15.4512 24.1583 15.6465 24.3536C15.8417 24.5488 16.1583 24.5488 16.3535 24.3536L20 20.7071L23.6464 24.3536C23.8417 24.5488 24.1583 24.5488 24.3536 24.3536C24.5488 24.1583 24.5488 23.8417 24.3536 23.6464L20.7071 20L24.3536 16.3535C24.5488 16.1583 24.5488 15.8417 24.3536 15.6465C24.1583 15.4512 23.8417 15.4512 23.6464 15.6465L20 19.2929Z" fill="#D4371C"/>
</g>
</g>
</svg>
