<?xml version="1.0" encoding="UTF-8"?>
<svg width="24px" height="24px" viewBox="0 0 24 24" version="1.1" xmlns="http://www.w3.org/2000/svg" xmlns:xlink="http://www.w3.org/1999/xlink">
    <!-- Generator: Sketch 60.1 (88133) - https://sketch.com -->
    <title>Alert and Notification/error/error-filled_24</title>
    <desc>Created with Sketch.</desc>
    <g id="Alert-and-Notification/error/error-filled_24" stroke="none" stroke-width="1" fill="none" fill-rule="evenodd">
        <path d="M7.03553,23 C6.37249,23 5.73661,22.7366 5.26777,22.2678 L1.732233,18.7322 C1.263392,18.2634 1,17.6275 1,16.9645 L1,7.03553 C1,6.37249 1.263392,5.73661 1.732233,5.26777 L5.26777,1.732233 C5.73661,1.263392 6.37249,1 7.03553,1 L16.9645,1 C17.6275,1 18.2634,1.263392 18.7322,1.732233 L22.2678,5.26777 C22.7366,5.73661 23,6.37249 23,7.03553 L23,16.9645 C23,17.6275 22.7366,18.2634 22.2678,18.7322 L18.7322,22.2678 C18.2634,22.7366 17.6275,23 16.9645,23 L7.03553,23 Z M11.9999975,11.2929 L8.35355,7.64645 C8.15829,7.45118 7.84171,7.45118 7.64645,7.64645 C7.45118,7.84171 7.45118,8.15829 7.64645,8.35355 L11.2929,11.9999975 L7.64645,15.6464 C7.45118,15.8417 7.45118,16.1583 7.64645,16.3536 C7.84171,16.5488 8.15829,16.5488 8.35355,16.3536 L11.9999975,12.7071 L15.6464,16.3536 C15.8417,16.5488 16.1583,16.5488 16.3536,16.3536 C16.5488,16.1583 16.5488,15.8417 16.3536,15.6464 L12.7071,11.9999975 L16.3536,8.35355 C16.5488,8.15829 16.5488,7.84171 16.3536,7.64645 C16.1583,7.45118 15.8417,7.45118 15.6464,7.64645 L11.9999975,11.2929 Z" id="error-filled_24" fill="#00090D"></path>
    </g>
</svg>