<?xml version="1.0" encoding="UTF-8"?>
<svg width="16px" height="16px" viewBox="0 0 16 16" version="1.1" xmlns="http://www.w3.org/2000/svg" xmlns:xlink="http://www.w3.org/1999/xlink">
    <!-- Generator: Sketch 60.1 (88133) - https://sketch.com -->
    <title>Alert and Notification/error/error_16</title>
    <desc>Created with Sketch.</desc>
    <g id="Alert-and-Notification/error/error_16" stroke="none" stroke-width="1" fill="none" fill-rule="evenodd">
        <path d="M15.466,3.822 C15.805,4.161 16,4.631 16,5.111 L16,10.89 C16,11.369 15.805,11.839 15.466,12.179 L12.179,15.466 C11.839,15.806 11.369,16 10.889,16 L5.111,16 C4.631,16 4.161,15.806 3.821,15.466 L0.534,12.179 C0.195,11.839 0,11.369 0,10.89 L0,5.111 C0,4.631 0.195,4.161 0.534,3.822 L3.821,0.535 C4.161,0.195 4.631,0 5.111,0 L10.889,0 C11.369,0 11.839,0.195 12.179,0.535 L15.466,3.822 Z M15,10.89 L15,5.111 C15,4.894 14.912,4.682 14.759,4.529 L11.472,1.242 C11.318,1.088 11.106,1 10.889,1 L5.111,1 C4.894,1 4.682,1.088 4.528,1.242 L1.241,4.529 C1.088,4.682 1,4.894 1,5.111 L1,10.89 C1,11.107 1.088,11.319 1.241,11.472 L4.528,14.759 C4.682,14.912 4.894,15 5.111,15 L10.889,15 C11.106,15 11.318,14.912 11.472,14.759 L14.759,11.472 C14.912,11.319 15,11.107 15,10.89 Z M10.8535,5.1469 C11.0485,5.3419 11.0485,5.6589 10.8535,5.8539 L8.7075,8.0009 L10.8535,10.1469 C11.0485,10.3419 11.0485,10.6589 10.8535,10.8539 C10.7555,10.9519 10.6275,11.0009 10.4995,11.0009 C10.3725,11.0009 10.2445,10.9519 10.1465,10.8539 L7.9995,8.7079 L5.8535,10.8539 C5.7555,10.9519 5.6275,11.0009 5.4995,11.0009 C5.3725,11.0009 5.2445,10.9519 5.1465,10.8539 C4.9515,10.6589 4.9515,10.3419 5.1465,10.1469 L7.2925,8.0009 L5.1465,5.8539 C4.9515,5.6589 4.9515,5.3419 5.1465,5.1469 C5.3415,4.9519 5.6585,4.9519 5.8535,5.1469 L7.9995,7.2929 L10.1465,5.1469 C10.3415,4.9519 10.6585,4.9519 10.8535,5.1469 L10.8535,5.1469 Z" id="error_16" fill="#00090D"></path>
    </g>
</svg>