<?xml version="1.0" encoding="UTF-8"?>
<svg width="18px" height="18px" viewBox="0 0 18 18" version="1.1" xmlns="http://www.w3.org/2000/svg" xmlns:xlink="http://www.w3.org/1999/xlink">
    <!-- Generator: Sketch 60.1 (88133) - https://sketch.com -->
    <title>Alert and Notification/error/error-filled_18</title>
    <desc>Created with Sketch.</desc>
    <g id="Alert-and-Notification/error/error-filled_18" stroke="none" stroke-width="1" fill="none" fill-rule="evenodd">
        <path d="M5.82843,18 C5.29799,18 4.78929,17.7893 4.41421,17.4142 L0.585786,13.5858 C0.210713,13.2107 0,12.702 0,12.1716 L0,5.82843 C0,5.29799 0.210714,4.78929 0.585786,4.41421 L4.41421,0.585786 C4.78929,0.210713 5.29799,0 5.82843,0 L12.1716,0 C12.702,0 13.2107,0.210714 13.5858,0.585786 L17.4142,4.41421 C17.7893,4.78929 18,5.29799 18,5.82843 L18,12.1716 C18,12.702 17.7893,13.2107 17.4142,13.5858 L13.5858,17.4142 C13.2107,17.7893 12.702,18 12.1716,18 L5.82843,18 Z M8.29289,8.9999975 L6.14645,11.1464 C5.95118,11.3417 5.95118,11.6583 6.14645,11.8536 C6.34171,12.0488 6.65829,12.0488 6.85355,11.8536 L8.9999975,9.70711 L11.1464,11.8536 C11.3417,12.0488 11.6583,12.0488 11.8536,11.8536 C12.0488,11.6583 12.0488,11.3417 11.8536,11.1464 L9.70711,8.9999975 L11.8536,6.85355 C12.0488,6.65829 12.0488,6.34171 11.8536,6.14645 C11.6583,5.95118 11.3417,5.95118 11.1464,6.14645 L8.9999975,8.29289 L6.85355,6.14645 C6.65829,5.95118 6.34171,5.95118 6.14645,6.14645 C5.95118,6.34171 5.95118,6.65829 6.14645,6.85355 L8.29289,8.9999975 Z" id="error-filled_18" fill="#00090D"></path>
    </g>
</svg>