<svg width="60" height="60" viewBox="0 0 60 60" fill="none" xmlns="http://www.w3.org/2000/svg">
<path fill-rule="evenodd" clip-rule="evenodd" d="M30 0C13.4315 0 0 13.4315 0 30C0 46.5685 13.4315 60 30 60C46.5685 60 60 46.5685 60 30C60 13.4315 46.5685 0 30 0ZM30 18C23.3726 18 18 23.3726 18 30C18 36.6274 23.3726 42 30 42C36.6274 42 42 36.6274 42 30C42 23.3726 36.6274 18 30 18Z" fill="#D4371C" fill-opacity="0.15"/>
<path fill-rule="evenodd" clip-rule="evenodd" d="M22.4497 47C21.5215 47 20.6313 46.6313 19.9749 45.9749L14.0251 40.0251C13.3687 39.3687 13 38.4785 13 37.5503V22.4497C13 21.5215 13.3687 20.6313 14.0251 19.9749L19.9456 14.0544C20.6207 13.3793 21.5364 13 22.4912 13H37.5088C38.4636 13 39.3793 13.3793 40.0544 14.0544L45.9749 19.9749C46.6313 20.6313 47 21.5215 47 22.4497V37.5503C47 38.4785 46.6313 39.3687 45.9749 40.0251L40.0251 45.9749C39.3687 46.6313 38.4785 47 37.5503 47H22.4497ZM30 28.5858L25.2071 23.7929C24.8166 23.4024 24.1834 23.4024 23.7929 23.7929C23.4024 24.1834 23.4024 24.8166 23.7929 25.2071L28.5858 30L23.7929 34.7929C23.4024 35.1834 23.4024 35.8166 23.7929 36.2071C24.1834 36.5976 24.8166 36.5976 25.2071 36.2071L30 31.4142L34.7929 36.2071C35.1834 36.5976 35.8166 36.5976 36.2071 36.2071C36.5976 35.8166 36.5976 35.1834 36.2071 34.7929L31.4142 30L36.2071 25.2071C36.5976 24.8166 36.5976 24.1834 36.2071 23.7929C35.8166 23.4024 35.1834 23.4024 34.7929 23.7929L30 28.5858Z" fill="#D4371C"/>
</svg>
