<svg width="24" height="24" viewBox="0 0 24 24" fill="none" xmlns="http://www.w3.org/2000/svg">
<g id="ETA_24">
<path id="ETA_24_2" fill-rule="evenodd" clip-rule="evenodd" d="M11.066 18.9815C15.4965 18.6902 19 15.0042 19 10.5C19 9.7436 18.9012 9.01028 18.7158 8.31223L18.35 8.80003C18.1843 9.02094 17.8709 9.06571 17.65 8.90003C17.429 8.73434 17.3843 8.42094 17.55 8.20003L18.3 7.20003C18.3075 7.19001 18.3153 7.18036 18.3234 7.17107C18.0163 6.4504 17.6126 5.78081 17.1285 5.17858L16.6536 5.65354C16.4583 5.8488 16.1417 5.84879 15.9465 5.65352C15.7512 5.45826 15.7512 5.14167 15.9465 4.94642L16.4566 4.43629C16.0528 4.03959 15.6096 3.68292 15.1334 3.37268C15.1235 3.38148 15.1132 3.38996 15.1025 3.39809L13.6025 4.53811C13.3827 4.7052 13.069 4.66243 12.9019 4.44257C12.7348 4.22272 12.7776 3.90904 12.9975 3.74195L14.186 2.83863C13.071 2.30119 11.8207 2 10.5 2C5.80558 2 2 5.80558 2 10.5C2 11.0894 2.05999 11.6648 2.17419 12.2203L2.68769 11.8095C2.90332 11.637 3.21796 11.672 3.39047 11.8876C3.56297 12.1033 3.52801 12.4179 3.31238 12.5904L2.46185 13.2708C2.9718 14.7505 3.87879 16.0452 5.05552 17.0277L6.13261 15.8609C6.31991 15.658 6.63624 15.6453 6.83915 15.8326C7.04206 16.0199 7.05471 16.3363 6.86741 16.5392L5.86434 17.6258C7.03518 18.3891 8.40576 18.8716 9.88056 18.9778L10.1839 18.5227C10.3371 18.2929 10.6475 18.2308 10.8773 18.384C11.0763 18.5167 11.1496 18.7674 11.066 18.9815ZM10.5 20C12.9434 20 15.1714 19.0775 16.8547 17.5618L22.1464 22.8536C22.3417 23.0488 22.6583 23.0488 22.8535 22.8536C23.0488 22.6583 23.0488 22.3417 22.8535 22.1464L17.5618 16.8547C19.0775 15.1715 20 12.9435 20 10.5C20 5.25329 15.7467 1 10.5 1C5.25329 1 1 5.25329 1 10.5C1 15.7467 5.25329 20 10.5 20ZM9.49898 7.75568C9.28185 7.92629 8.96752 7.88857 8.79691 7.67143C8.6263 7.4543 8.66402 7.13997 8.88116 6.96936L10.4538 5.73372C10.6709 5.56311 10.9853 5.60083 11.1559 5.81797C11.3265 6.03511 11.2888 6.34943 11.0716 6.52004L9.49898 7.75568ZM12.7386 9.96801C12.5536 10.173 12.2374 10.1892 12.0325 10.0041C11.8275 9.81912 11.8113 9.50295 11.9963 9.29797L14.0065 7.07101C14.1915 6.86603 14.5077 6.84985 14.7127 7.03488C14.9176 7.21991 14.9338 7.53608 14.7488 7.74106L12.7386 9.96801ZM8.71832 14.4219C8.53329 14.6269 8.21712 14.643 8.01213 14.458C7.80715 14.273 7.79097 13.9568 7.976 13.7518L9.98614 11.5249C10.1712 11.3199 10.4873 11.3037 10.6923 11.4887C10.8973 11.6738 10.9135 11.9899 10.7285 12.1949L8.71832 14.4219ZM4.86533 10.7605C5.03594 10.9777 5.35027 11.0154 5.5674 10.8448L7.14004 9.60915C7.35717 9.43854 7.39489 9.12422 7.22429 8.90708C7.05368 8.68994 6.73935 8.65223 6.52222 8.82283L4.94958 10.0585C4.73244 10.2291 4.69472 10.5434 4.86533 10.7605ZM11.9425 16.8789C12.1672 17.0394 12.4795 16.9873 12.64 16.7626L13.8025 15.1352C13.963 14.9105 13.9109 14.5982 13.6862 14.4377C13.4615 14.2772 13.1492 14.3292 12.9887 14.5539L11.8263 16.1814C11.6657 16.4061 11.7178 16.7184 11.9425 16.8789ZM15.5462 12.694C15.3857 12.9187 15.0734 12.9708 14.8487 12.8103C14.624 12.6498 14.5719 12.3375 14.7324 12.1128L15.8949 10.4853C16.0554 10.2606 16.3677 10.2086 16.5924 10.3691C16.8171 10.5296 16.8692 10.8419 16.7086 11.0666L15.5462 12.694Z" fill="#545454"/>
</g>
</svg>
