<svg width="48" height="48" viewBox="0 0 48 48" fill="none" xmlns="http://www.w3.org/2000/svg">
<g id="ETA_48">
<path id="ETA_48_2" fill-rule="evenodd" clip-rule="evenodd" d="M21 39C30.9411 39 39 30.9411 39 21C39 18.8685 38.6295 16.8235 37.9494 14.926L35.9413 17.7151C35.7799 17.9392 35.4674 17.99 35.2433 17.8287C35.0192 17.6673 34.9684 17.3549 35.1297 17.1308L37.5119 13.8222C36.7701 12.1182 35.7723 10.5513 34.5671 9.17019L32.6018 11.3359C32.4163 11.5404 32.1001 11.5558 31.8956 11.3702C31.6911 11.1847 31.6757 10.8684 31.8613 10.6639L33.8862 8.43237C32.9068 7.42828 31.811 6.53823 30.6206 5.78401C30.6184 5.7858 30.6162 5.78759 30.6139 5.78935L25.9785 9.39468C25.7605 9.56421 25.4464 9.52494 25.2768 9.30697C25.1073 9.089 25.1466 8.77486 25.3646 8.60532L29.6962 5.23626C27.1184 3.81117 24.1539 3 21 3C11.0589 3 3 11.0589 3 21C3 22.5715 3.20139 24.096 3.57977 25.549L6.19303 23.5165C6.411 23.3469 6.72514 23.3862 6.89467 23.6042C7.06421 23.8222 7.02494 24.1363 6.80697 24.3058L3.88191 26.5809C4.97838 29.9463 7.03967 32.876 9.73917 35.0434L12.8917 31.5692C13.0772 31.3647 13.3934 31.3494 13.5979 31.535C13.8024 31.7205 13.8178 32.0367 13.6322 32.2412L10.5391 35.6499C13.1066 37.4865 16.1769 38.6649 19.5037 38.9387C19.5136 38.858 19.5434 38.7785 19.5943 38.7079L21.0343 36.7079C21.1956 36.4838 21.5081 36.4329 21.7322 36.5942C21.9563 36.7556 22.0072 37.0681 21.8458 37.2922L20.619 38.996C20.7457 38.9987 20.8727 39 21 39ZM21 40C26.0703 40 30.6768 38.0139 34.0839 34.7773C34.1018 34.8042 34.1227 34.8298 34.1464 34.8535L45.1464 45.8535C45.3417 46.0488 45.6583 46.0488 45.8536 45.8535C46.0488 45.6582 46.0488 45.3417 45.8536 45.1464L34.8536 34.1464C34.8298 34.1227 34.8042 34.1018 34.7773 34.0838C38.0139 30.6768 40 26.0703 40 21C40 10.5066 31.4934 2 21 2C10.5066 2 2 10.5066 2 21C2 31.4934 10.5066 40 21 40ZM22.7642 11.8946C22.9822 11.7251 23.0214 11.411 22.8519 11.193C22.6824 10.975 22.3682 10.9358 22.1502 11.1053L17.193 14.9609C16.975 15.1305 16.9358 15.4446 17.1053 15.6626C17.2748 15.8805 17.589 15.9198 17.8069 15.7503L22.7642 11.8946ZM14.7257 17.5134C14.8953 17.7313 14.856 18.0455 14.638 18.215L10.0117 21.8133C9.79368 21.9828 9.47954 21.9436 9.31 21.7256C9.14047 21.5076 9.17974 21.1935 9.39771 21.0239L14.0241 17.4257C14.2421 17.2561 14.5562 17.2954 14.7257 17.5134ZM23.6946 19.664C23.509 19.8685 23.5244 20.1847 23.7289 20.3703C23.9334 20.5559 24.2496 20.5405 24.4351 20.336L29.7668 14.4603C29.9524 14.2558 29.937 13.9396 29.7325 13.754C29.528 13.5685 29.2118 13.5838 29.0263 13.7883L23.6946 19.664ZM15.664 29.258C15.4595 29.0724 15.4442 28.7562 15.6298 28.5517L20.9549 22.6831C21.1405 22.4786 21.4567 22.4633 21.6612 22.6489C21.8657 22.8344 21.881 23.1506 21.6955 23.3551L16.3703 29.2237C16.1848 29.4282 15.8685 29.4435 15.664 29.258ZM29.3635 25.9951C29.1394 25.8338 29.0885 25.5213 29.2499 25.2972L32.7532 20.4315C32.9145 20.2074 33.227 20.1565 33.4511 20.3179C33.6752 20.4792 33.726 20.7917 33.5647 21.0158L30.0614 25.8815C29.9 26.1056 29.5876 26.1565 29.3635 25.9951ZM23.4147 33.4016C23.2534 33.6257 23.3042 33.9382 23.5283 34.0996C23.7524 34.2609 24.0649 34.21 24.2262 33.9859L27.7082 29.1499C27.8696 28.9258 27.8187 28.6133 27.5946 28.4519C27.3705 28.2906 27.058 28.3415 26.8967 28.5656L23.4147 33.4016Z" fill="#545454"/>
</g>
</svg>
