<?xml version="1.0" encoding="UTF-8"?>
<svg width="18px" height="18px" viewBox="0 0 18 18" version="1.1" xmlns="http://www.w3.org/2000/svg" xmlns:xlink="http://www.w3.org/1999/xlink">
    <!-- Generator: Sketch 60.1 (88133) - https://sketch.com -->
    <title>Action / exit_18</title>
    <desc>Created with Sketch.</desc>
    <g id="Action-/-exit_18" stroke="none" stroke-width="1" fill="none" fill-rule="evenodd">
        <path d="M5,3.49987793 L5,2 C5,0.8954305 5.8954305,0 7,0 L15,0 C16.1045695,0 17,0.8954305 17,2 L17,16 C17,17.1045695 16.1045695,18 15,18 L7,18 C5.8954305,18 5,17.1045695 5,16 L5,14.4959717 C5,14.2198293 5.22385763,13.9959717 5.5,13.9959717 C5.77614237,13.9959717 6,14.2198293 6,14.4959717 L6,16 C6,16.5522847 6.44771525,17 7,17 L15,17 C15.5522847,17 16,16.5522847 16,16 L16,2 C16,1.44771525 15.5522847,1 15,1 L7,1 C6.44771525,1 6,1.44771525 6,2 L6,3.49987793 C6,3.7760203 5.77614237,3.99987793 5.5,3.99987793 C5.22385763,3.99987793 5,3.7760203 5,3.49987793 Z M2.82071469,9.48799395 L5.82777529,12.1201962 C6.03555853,12.3020773 6.05655636,12.6179626 5.87467525,12.8257459 C5.69279415,13.0335291 5.37690878,13.0545269 5.16912554,12.8726458 L1.21232202,9.40909509 C1.18040725,9.38661307 1.1506342,9.36000801 1.12378197,9.32933168 C1.04027785,9.23393554 0.999537663,9.11575304 1,8.9982139 C0.999537663,8.88067477 1.04027785,8.76249227 1.12378197,8.66709612 C1.1506342,8.6364198 1.18040725,8.60981474 1.21232202,8.58733272 L5.16912554,5.12378197 C5.37690878,4.94190087 5.69279415,4.9628987 5.87467525,5.17068194 C6.05655636,5.37846518 6.03555853,5.69435054 5.82777529,5.87623165 L2.8440655,8.48799395 L9.47100519,8.48799395 C9.74714757,8.48799395 9.97100519,8.71185157 9.97100519,8.98799395 C9.97100519,9.26413632 9.74714757,9.48799395 9.47100519,9.48799395 L2.82071469,9.48799395 Z" id="exit_18" fill="#00090D"></path>
    </g>
</svg>