<?xml version="1.0" encoding="UTF-8"?>
<svg width="24px" height="24px" viewBox="0 0 24 24" version="1.1" xmlns="http://www.w3.org/2000/svg" xmlns:xlink="http://www.w3.org/1999/xlink">
    <!-- Generator: Sketch 60.1 (88133) - https://sketch.com -->
    <title>Action/full-screen/exit-full-screen_24</title>
    <desc>Created with Sketch.</desc>
    <g id="Action/full-screen/exit-full-screen_24" stroke="none" stroke-width="1" fill="none" fill-rule="evenodd">
        <path d="M5.99976563,3.5 C5.99976563,3.22385763 6.22362326,3 6.49976563,3 C6.77590801,3 6.99976563,3.22385763 6.99976563,3.5 L6.99976563,7.5 C6.99976563,8.88071187 5.88047751,10 4.49976563,10 L0.5,10 C0.223857625,10 3.90798505e-14,9.77614237 3.90798505e-14,9.5 C3.90798505e-14,9.22385763 0.223857625,9 0.5,9 L4.49976563,9 C5.32819276,9 5.99976563,8.32842712 5.99976563,7.5 L5.99976563,3.5 Z M18,3.5 L18,7.5 C18,8.32842712 18.6715729,9 19.5,9 L23.4997656,9 C23.775908,9 23.9997656,9.22385763 23.9997656,9.5 C23.9997656,9.77614237 23.775908,10 23.4997656,10 L19.5,10 C18.1192881,10 17,8.88071187 17,7.5 L17,3.5 C17,3.22385763 17.2238576,3 17.5,3 C17.7761424,3 18,3.22385763 18,3.5 Z M5.99976563,20.5 L5.99976563,16.5 C5.99976563,15.6715729 5.32819276,15 4.49976563,15 L0.5,15 C0.223857625,15 3.90798505e-14,14.7761424 3.90798505e-14,14.5 C3.90798505e-14,14.2238576 0.223857625,14 0.5,14 L4.49976563,14 C5.88047751,14 6.99976563,15.1192881 6.99976563,16.5 L6.99976563,20.5 C6.99976563,20.7761424 6.77590801,21 6.49976563,21 C6.22362326,21 5.99976563,20.7761424 5.99976563,20.5 Z M18,20.5 C18,20.7761424 17.7761424,21 17.5,21 C17.2238576,21 17,20.7761424 17,20.5 L17,16.5 C17,15.1192881 18.1192881,14 19.5,14 L23.4997656,14 C23.775908,14 23.9997656,14.2238576 23.9997656,14.5 C23.9997656,14.7761424 23.775908,15 23.4997656,15 L19.5,15 C18.6715729,15 18,15.6715729 18,16.5 L18,20.5 Z" id="exit-full-screen_24" fill="#00090D"></path>
    </g>
</svg>