<?xml version="1.0" encoding="UTF-8"?>
<svg width="24px" height="24px" viewBox="0 0 24 24" version="1.1" xmlns="http://www.w3.org/2000/svg" xmlns:xlink="http://www.w3.org/1999/xlink">
    <!-- Generator: Sketch 60.1 (88133) - https://sketch.com -->
    <title>Action/collapse &amp; expand/expand_24</title>
    <desc>Created with Sketch.</desc>
    <g id="Action/collapse-&amp;-expand/expand_24" stroke="none" stroke-width="1" fill="none" fill-rule="evenodd">
        <path d="M3.70710678,21 L11,21 C11.2761424,21 11.5,21.2238576 11.5,21.5 C11.5,21.7761424 11.2761424,22 11,22 L2.5,22 C2.22385763,22 2,21.7761424 2,21.5 L2,13.5 C2,13.2238576 2.22385763,13 2.5,13 C2.77614237,13 3,13.2238576 3,13.5 L3,20.2928932 L10.1464466,13.1464466 C10.3417088,12.9511845 10.6582912,12.9511845 10.8535534,13.1464466 C11.0488155,13.3417088 11.0488155,13.6582912 10.8535534,13.8535534 L3.70710678,21 Z M20.2928932,3 L13.5,3 C13.2238576,3 13,2.77614237 13,2.5 C13,2.22385763 13.2238576,2 13.5,2 L21.5,2 C21.7761424,2 22,2.22385763 22,2.5 L22,10 C22,10.2761424 21.7761424,10.5 21.5,10.5 C21.2238576,10.5 21,10.2761424 21,10 L21,3.70710678 L13.8535534,10.8535534 C13.6582912,11.0488155 13.3417088,11.0488155 13.1464466,10.8535534 C12.9511845,10.6582912 12.9511845,10.3417088 13.1464466,10.1464466 L20.2928932,3 Z" id="expand_24" fill="#00090D"></path>
    </g>
</svg>