<?xml version="1.0" encoding="UTF-8"?>
<svg width="16px" height="16px" viewBox="0 0 16 16" version="1.1" xmlns="http://www.w3.org/2000/svg" xmlns:xlink="http://www.w3.org/1999/xlink">
    <!-- Generator: Sketch 60.1 (88133) - https://sketch.com -->
    <title>Action / expand-corner_16</title>
    <desc>Created with Sketch.</desc>
    <g id="Action-/-expand-corner_16" stroke="none" stroke-width="1" fill="none" fill-rule="evenodd">
        <path d="M14.8535534,12.8535534 L12.8535534,14.8535534 C12.6582912,15.0488155 12.3417088,15.0488155 12.1464466,14.8535534 C11.9511845,14.6582912 11.9511845,14.3417088 12.1464466,14.1464466 L14.1464466,12.1464466 C14.3417088,11.9511845 14.6582912,11.9511845 14.8535534,12.1464466 C15.0488155,12.3417088 15.0488155,12.6582912 14.8535534,12.8535534 Z M14.8535534,8.85355339 L8.85355339,14.8535534 C8.65829124,15.0488155 8.34170876,15.0488155 8.14644661,14.8535534 C7.95118446,14.6582912 7.95118446,14.3417088 8.14644661,14.1464466 L14.1464466,8.14644661 C14.3417088,7.95118446 14.6582912,7.95118446 14.8535534,8.14644661 C15.0488155,8.34170876 15.0488155,8.65829124 14.8535534,8.85355339 Z M14.8535534,4.85355339 L4.85355339,14.8535534 C4.65829124,15.0488155 4.34170876,15.0488155 4.14644661,14.8535534 C3.95118446,14.6582912 3.95118446,14.3417088 4.14644661,14.1464466 L14.1464466,4.14644661 C14.3417088,3.95118446 14.6582912,3.95118446 14.8535534,4.14644661 C15.0488155,4.34170876 15.0488155,4.65829124 14.8535534,4.85355339 Z" id="expand-corner_16" fill="#00090D"></path>
    </g>
</svg>