<?xml version="1.0" encoding="UTF-8"?>
<svg width="16px" height="16px" viewBox="0 0 16 16" version="1.1" xmlns="http://www.w3.org/2000/svg" xmlns:xlink="http://www.w3.org/1999/xlink">
    <!-- Generator: Sketch 60.1 (88133) - https://sketch.com -->
    <title>Action/collapse-all &amp; expand-all/expand-all_16</title>
    <desc>Created with Sketch.</desc>
    <g id="Action/collapse-all-&amp;-expand-all/expand-all_16" stroke="none" stroke-width="1" fill="none" fill-rule="evenodd">
        <path d="M12.8344867,10.1283572 C13.0169356,10.2925612 13.0503547,10.5605996 12.9257873,10.7622937 L12.8716514,10.8344867 L8.37165137,15.8344867 C8.19509923,16.0306557 7.90205866,16.0524523 7.6996202,15.8998763 L7.62835723,15.8344867 L3.12835723,10.8344867 C2.94362772,10.6292317 2.96026692,10.3130867 3.16552193,10.1283572 C3.34797083,9.96415322 3.61803645,9.95905536 3.80554001,10.1041069 L3.87165137,10.1655219 L8,14.7520043 L12.1283572,10.1655219 C12.3130867,9.96026692 12.6292317,9.94362772 12.8344867,10.1283572 Z M7.6996202,0.100127952 C7.90205866,-0.0524479746 8.19509923,-0.0306514137 8.37165137,0.165517634 L8.37165137,0.165517634 L12.8716514,5.16551763 L12.9257873,5.23771062 C13.0503547,5.43940466 13.0169356,5.70744306 12.8344867,5.87164707 C12.6292317,6.05637658 12.3130867,6.03973738 12.1283572,5.83448237 L12.1283572,5.83448237 L8,1.248 L3.87165137,5.83448237 L3.80554001,5.89589744 C3.61803645,6.04094894 3.34797083,6.03585108 3.16552193,5.87164707 C2.96026692,5.68691756 2.94362772,5.37077264 3.12835723,5.16551763 L3.12835723,5.16551763 L7.62835723,0.165517634 Z" id="expand-all_16" fill="#00090D"></path>
    </g>
</svg>