<?xml version="1.0" encoding="UTF-8"?>
<svg width="16px" height="16px" viewBox="0 0 16 16" version="1.1" xmlns="http://www.w3.org/2000/svg" xmlns:xlink="http://www.w3.org/1999/xlink">
    <!-- Generator: Sketch 60.1 (88133) - https://sketch.com -->
    <title>Action/collapse &amp; expand/expand_16</title>
    <desc>Created with Sketch.</desc>
    <g id="Action/collapse-&amp;-expand/expand_16" stroke="none" stroke-width="1" fill="none" fill-rule="evenodd">
        <path d="M0.000380614794,15.5195665 L0,10.5 C0,10.2238576 0.223857625,10 0.5,10 C0.745459889,10 0.94960837,10.1768752 0.991944331,10.4101244 L1,10.5 L1,14.294 L6.14644661,9.14644661 C6.32001296,8.97288026 6.58943736,8.95359511 6.7843055,9.08859116 L6.85355339,9.14644661 C7.02711974,9.32001296 7.04640489,9.58943736 6.91140884,9.7843055 L6.85355339,9.85355339 L1.708,15 L5.5,15 C5.74545989,15 5.94960837,15.1768752 5.99194433,15.4101244 L6,15.5 C6,15.7454599 5.82312484,15.9496084 5.58987563,15.9919443 L5.5,16 L0.5,16 C0.496207783,16 0.492425426,15.9999578 0.488653373,15.9998738 C0.467598823,15.999389 0.44676266,15.9976125 0.42608223,15.9945381 L0.394772345,15.9889078 L0.394772345,15.9889078 C0.379525749,15.9856039 0.364165295,15.981552 0.34898836,15.9767587 L0.308963437,15.9622078 L0.308963437,15.9622078 C0.295461137,15.9566485 0.281724313,15.9502504 0.268241811,15.943195 C0.255953329,15.9367067 0.244317532,15.9299807 0.23298968,15.922812 L0.197856082,15.8984173 L0.193,15.895 L0.192,15.894 L0.146446609,15.8535534 C0.159863745,15.8669705 0.1738537,15.8794657 0.188312277,15.8910164 L0.197856082,15.8984173 C0.184245765,15.8880797 0.171181315,15.8770608 0.15871357,15.8654113 L0.134440479,15.8411333 L0.134440479,15.8411333 C0.122939203,15.8288187 0.111920253,15.8157542 0.101582734,15.8021439 C0.0927745354,15.7906092 0.084609348,15.7788346 0.0770070472,15.7668065 C0.0700193356,15.7556825 0.0632933417,15.7440467 0.0570343394,15.7321272 C0.049749608,15.7182757 0.0433514722,15.7045389 0.0376105602,15.6905951 C0.0324084547,15.6780251 0.0275580952,15.6647369 0.0232684231,15.6511992 C0.0184480215,15.6358347 0.0143961337,15.6204743 0.0110856816,15.6049871 L0.00282014327,15.5533975 L0.00282014327,15.5533975 L0.00208798933,15.5457862 L0.00516669017,15.5719041 L0.001,15.519 L0.001,15.537 L0.000380614794,15.5195665 L0.000380614794,15.5195665 Z M16,5.5 C16,5.77614237 15.7761424,6 15.5,6 C15.2545401,6 15.0503916,5.82312484 15.0080557,5.58987563 L15,5.5 L15,1.706 L9.85355339,6.85355339 C9.67998704,7.02711974 9.41056264,7.04640489 9.2156945,6.91140884 L9.14644661,6.85355339 C8.97288026,6.67998704 8.95359511,6.41056264 9.08859116,6.2156945 L9.14644661,6.14644661 L14.292,1 L10.5,1 C10.2545401,1 10.0503916,0.823124839 10.0080557,0.589875632 L10,0.5 C10,0.223857625 10.2238576,0 10.5,0 L15.5113466,0.000126208064 L15.5113466,0.000126208064 C15.5324012,0.0006109983 15.5532373,0.00238749635 15.5739178,0.00546187104 L15.6052277,0.0110922303 L15.6052277,0.0110922303 C15.6204743,0.0143961337 15.6358347,0.0184480215 15.6510116,0.023241345 L15.6910366,0.0377922373 L15.6910366,0.0377922373 C15.7045389,0.0433514722 15.7182757,0.049749608 15.7317582,0.0568049675 C15.7440467,0.0632933417 15.7556825,0.0700193356 15.7670103,0.0771880058 L15.806,0.104 L15.8535534,0.146446609 L15.8535534,0.146446609 L15.811,0.108 L15.8221436,0.117593731 C15.8286695,0.123096852 15.8350526,0.128763976 15.8412864,0.134588748 L15.8655595,0.158866723 L15.8655595,0.158866723 C15.8770608,0.171181315 15.8880797,0.184245765 15.8984173,0.197856082 C15.9072255,0.209390846 15.9153907,0.22116536 15.922993,0.233193482 C15.9299807,0.244317532 15.9367067,0.255953329 15.9429657,0.267872755 C15.9502504,0.281724313 15.9566485,0.295461137 15.9623894,0.3094049 C15.9675915,0.321974932 15.9724419,0.33526315 15.9767316,0.348800827 C15.981552,0.364165295 15.9856039,0.379525749 15.9889143,0.395012947 L15.9971799,0.446602475 L15.9971799,0.446602475 L15.997,0.454 L15.9948333,0.428095892 L16,0.5 L16,0.5 L16,5.5 Z" id="expand_16" fill="#00090D"></path>
    </g>
</svg>