<?xml version="1.0" encoding="UTF-8"?>
<svg width="16px" height="16px" viewBox="0 0 16 16" version="1.1" xmlns="http://www.w3.org/2000/svg" xmlns:xlink="http://www.w3.org/1999/xlink">
    <!-- Generator: Sketch 60.1 (88133) - https://sketch.com -->
    <title>Action/import &amp; export/export_16</title>
    <desc>Created with Sketch.</desc>
    <g id="Action/import-&amp;-export/export_16" stroke="none" stroke-width="1" fill="none" fill-rule="evenodd">
        <path d="M15.501,7.0005 C15.776,7.0005 15.99,7.2265 15.99,7.5005 L15.99,7.5005 L15.99,13.0015 C15.99,14.1065 15.105,14.99 14.001,14.99 L14.001,14.99 L2.001,14.99 C0.897,14.99 0.001,14.1065 0.001,13.0015 L0.001,13.0015 L0,7.5005 C0,7.2265 0.225,7.0005 0.5,7.0005 C0.775,7.0005 1,7.2265 1,7.5005 L1,7.5005 L1.001,13.0015 C1.001,13.5525 1.449,14.0015 2.001,14.0015 L2.001,14.0015 L14.002,14.0015 C14.554,14.0015 15.002,13.5525 15.002,13.0015 L15.002,13.0015 L15.002,7.5005 C15.002,7.2265 15.226,7.0005 15.501,7.0005 Z M8.0005,1 C8.0655,1 8.1305,1.013 8.1915,1.039 C8.2535,1.064 8.3085,1.101 8.3545,1.147 L8.3545,1.147 L12.3545,5.146 C12.5495,5.342 12.5495,5.658 12.3545,5.853 C12.1585,6.049 11.8425,6.049 11.6475,5.853 L11.6475,5.853 L8.5005,2.707 L8.5005,11.5 C8.5005,11.777 8.2765,12 8.0005,12 C7.7245,12 7.5005,11.777 7.5005,11.5 L7.5005,11.5 L7.5005,2.707 L4.3545,5.853 C4.1585,6.049 3.8425,6.049 3.6475,5.853 C3.4515,5.658 3.4515,5.342 3.6475,5.146 L3.6475,5.146 L7.6465,1.147 C7.6925,1.101 7.7485,1.064 7.8095,1.039 C7.8705,1.013 7.9355,1 8.0005,1 Z" id="export_16" fill="#00090D"></path>
    </g>
</svg>