<?xml version="1.0" encoding="UTF-8"?>
<svg width="24px" height="24px" viewBox="0 0 24 24" version="1.1" xmlns="http://www.w3.org/2000/svg" xmlns:xlink="http://www.w3.org/1999/xlink">
    <!-- Generator: Sketch 60.1 (88133) - https://sketch.com -->
    <title>Action/import &amp; export/export_24</title>
    <desc>Created with Sketch.</desc>
    <g id="Action/import-&amp;-export/export_24" stroke="none" stroke-width="1" fill="none" fill-rule="evenodd">
        <path d="M22.5,10.9999 C22.775,10.9999 23,11.2249 23,11.4999 L23,11.4999 L23,19.3749 C23,20.8219 21.823,21.9999 20.375,21.9999 L20.375,21.9999 L3.625,21.9999 C2.177,21.9999 1,20.8219 1,19.3749 L1,19.3749 L1,11.4999 C1,11.2249 1.225,10.9999 1.5,10.9999 C1.775,10.9999 2,11.2249 2,11.4999 L2,11.4999 L2,19.4259 C2,20.2939 2.707,20.9999 3.575,20.9999 L3.575,20.9999 L20.425,20.9999 C21.293,20.9999 22,20.2939 22,19.4259 L22,19.4259 L22,11.4999 C22,11.2249 22.225,10.9999 22.5,10.9999 Z M11.99525,2.0004 C12.06025,2.0004 12.12525,2.0124 12.18625,2.0384 C12.24725,2.0644 12.30325,2.1004 12.34925,2.1464 L18.34425,8.1464 C18.54025,8.3414 18.54025,8.6584 18.34425,8.8534 C18.14925,9.0484 17.83325,9.0484 17.63725,8.8534 L12.49125,3.7074 L12.49125,17.5004 C12.49125,17.7764 12.27125,18.0004 11.99525,18.0004 C11.71925,18.0004 11.49925,17.7764 11.49925,17.5004 L11.49925,3.7074 L6.35225,8.8534 C6.15725,9.0484 5.84125,9.0484 5.64625,8.8534 C5.45125,8.6584 5.45125,8.3414 5.64625,8.1464 L11.64125,2.1464 C11.68725,2.1004 11.74225,2.0644 11.80425,2.0384 C11.86525,2.0124 11.93025,2.0004 11.99525,2.0004 Z" id="export_24" fill="#00090D"></path>
    </g>
</svg>