<?xml version="1.0" encoding="UTF-8"?>
<svg width="24px" height="24px" viewBox="0 0 24 24" version="1.1" xmlns="http://www.w3.org/2000/svg" xmlns:xlink="http://www.w3.org/1999/xlink">
    <!-- Generator: Sketch 60.1 (88133) - https://sketch.com -->
    <title>Topology/fabric-topology_24</title>
    <desc>Created with Sketch.</desc>
    <defs>
        <circle id="path-1" cx="12.0000003" cy="11.9999995" r="12"></circle>
    </defs>
    <g id="Topology/fabric-topology_24" stroke="none" stroke-width="1" fill="none" fill-rule="evenodd">
        <circle id="secondary-color" fill="#FFA000" cx="12" cy="12" r="12"></circle>
        <mask id="mask-2" fill="white">
            <use xlink:href="#path-1"></use>
        </mask>
        <g id="fabric-topology_24"></g>
        <path d="M18.2542948,22.2432939 C16.4330259,23.3576925 14.2915225,23.9999995 12.0000003,23.9999995 C8.00619674,23.9999995 4.46808485,22.0489516 2.28679385,19.047985 C2.09212219,19.1514411 1.97845225,19.208284 1.96398387,19.2145847 L1.61199796,18.408537 C1.61454156,18.4072652 1.67807962,18.3749818 1.79343446,18.3139283 C0.656432,16.4798439 2.78999895e-07,14.3165806 2.78999895e-07,11.9999995 C2.78999895e-07,11.7717146 0.006374824,11.5449184 0.018955622,11.3197795 C-0.356396033,10.9752599 -0.571975238,10.7458068 -0.592216,10.7271432 L2.78999895e-07,10.0768493 C0.00222753,10.0789528 0.047632507,10.1275184 0.132214562,10.2125843 C0.96537057,4.63355797 5.6388689,0.30939906 11.3769201,0.015897046 C11.2904451,-0.101006489 11.2415785,-0.164762299 11.2390995,-0.166849857 L11.8084367,-0.837383 C11.8324452,-0.817328847 12.0750311,-0.507899657 12.4473262,0.008182718 C14.8353038,0.095693177 17.0451388,0.88097006 18.878983,2.16616521 C18.9284851,2.08547705 18.9753272,2.00684742 19.0191211,1.93065625 L19.7820506,2.36887869 C19.7211342,2.47498541 19.6546408,2.58550776 19.5835265,2.6995136 C22.2789919,4.90001168 24.0000003,8.24902408 24.0000003,11.9999995 C24.0000003,13.1868887 23.8276885,14.3335324 23.5067165,15.416279 C23.5613985,15.4076154 23.6135663,15.3991061 23.6628647,15.3907914 L23.8089389,16.2584366 C23.6313683,16.2884697 23.418584,16.3208047 23.185814,16.3537251 C22.3593292,18.4756329 20.9464891,20.3043921 19.1463612,21.6409356 C19.1403749,21.9683925 19.1340115,22.2645311 19.1291938,22.4997606 L18.249229,22.4812814 C18.2507747,22.4078959 18.2524846,22.3282409 18.2542948,22.2432939 Z M3.1691033,18.5597476 C5.17402416,21.2544117 8.38316028,22.9999995 12.0000003,22.9999995 C14.3331711,22.9999995 16.4966819,22.273599 18.2767151,21.0346156 C18.2868344,20.3254382 18.2907052,19.5602443 18.2719435,18.9897371 C17.1486787,18.8881596 16.239804,18.0435968 16.0406412,16.9513705 C14.095366,16.904182 10.8098616,16.4367568 8.95461274,15.9766602 C8.73208014,17.1293883 7.71771128,17.9999995 6.50000028,17.9999995 C5.92024241,17.9999995 5.38657726,17.8026532 4.96251587,17.4714716 C4.27587451,17.911785 3.66085681,18.2782597 3.1691033,18.5597476 Z M2.6704564,17.8302576 C3.1310114,17.5675148 3.71503727,17.2216638 4.36786715,16.8060557 C4.13453929,16.4259604 4.00000028,15.9786916 4.00000028,15.4999995 C4.00000028,15.0283098 4.13063196,14.5871308 4.35769118,14.2106666 C3.01721992,13.6261495 1.85936433,12.8366048 1.00109579,12.1568514 C1.03019729,14.2390143 1.63781282,16.1813117 2.6704564,17.8302576 Z M1.04049374,11.0495106 C1.93219804,11.810714 3.33137183,12.8487958 4.97806952,13.5164783 C5.39959234,13.1925648 5.92730829,12.9999995 6.50000028,12.9999995 C7.22557877,12.9999995 7.87896216,13.3091035 8.33565237,13.8028133 C9.8775754,12.5802742 12.2335569,10.4243098 13.5181823,9.0241443 C13.1932407,8.602256 13.0000003,8.07369462 13.0000003,7.49999951 C13.0000003,6.41827254 13.687023,5.49700832 14.6485319,5.1487434 C13.7726249,3.52073073 12.7697512,1.99567698 12.0795683,1.00028127 C12.0530678,0.99999951 12.026545,0.99999951 12.0000003,0.99999951 C6.24507754,0.99999951 1.52235809,5.41938713 1.04049374,11.0495106 Z M13.1845979,1.06304082 C13.9014224,2.11976712 14.7884364,3.51856493 15.5678995,5.00090373 C15.9536908,5.01119055 16.3176928,5.10887602 16.640828,5.27488246 C17.1410989,4.61836603 17.7868901,3.77890921 18.3280028,3.00129855 C16.8423769,1.95466602 15.0859524,1.26662401 13.1845979,1.06304082 Z M19.0267022,3.53644628 C18.4809999,4.3178603 17.8415021,5.15088705 17.3409811,5.8085921 C17.7501733,6.25373656 18.0000003,6.84769293 18.0000003,7.49999951 C18.0000003,8.17331454 17.7338221,8.78446032 17.3009524,9.2339503 C17.8674175,10.7339875 18.2930827,12.3377825 18.5653543,14.0008371 C19.6538076,14.0287683 20.5692379,14.7523842 20.8835162,15.7435558 C21.3253276,15.7002961 21.8804286,15.6371321 22.4077171,15.5700577 C22.791622,14.4506088 23.0000003,13.2496388 23.0000003,11.9999995 C23.0000003,8.59658722 21.4543465,5.55418172 19.0267022,3.53644628 Z M22.039589,16.5018406 C21.6710144,16.5456895 21.3088631,16.5854202 20.9973545,16.616048 C20.9468833,17.7206482 20.179584,18.6383104 19.1497622,18.9147289 C19.1637055,19.3234771 19.166258,19.8306966 19.1631451,20.3482725 C20.3838136,19.2999221 21.3719491,17.9884573 22.039589,16.5018406 Z M8.95460907,15.0233199 C10.7525051,15.5350419 14.114196,16.0189989 16.0367114,16.0707443 C16.1938678,15.1625453 16.8410557,14.4222548 17.6960839,14.1320641 C17.4451589,12.612558 17.0635932,11.1439875 16.5599393,9.7648392 C16.2381353,9.9157025 15.8789121,9.9999995 15.5000003,9.9999995 C15.0107294,9.9999995 14.5542861,9.8594483 14.1688433,9.6165191 C12.8323715,11.0727307 10.3919451,13.3041104 8.81220506,14.5476395 C8.87473006,14.6992771 8.92277241,14.8584115 8.95460907,15.0233199 Z M18.5000003,17.9999995 C19.3284274,17.9999995 20.0000003,17.3284266 20.0000003,16.4999995 C20.0000003,15.6715724 19.3284274,14.9999995 18.5000003,14.9999995 C17.6715732,14.9999995 17.0000003,15.6715724 17.0000003,16.4999995 C17.0000003,17.3284266 17.6715732,17.9999995 18.5000003,17.9999995 Z M15.5000003,8.99999951 C16.3284274,8.99999951 17.0000003,8.32842664 17.0000003,7.49999951 C17.0000003,6.67157239 16.3284274,5.99999951 15.5000003,5.99999951 C14.6715732,5.99999951 14.0000003,6.67157239 14.0000003,7.49999951 C14.0000003,8.32842664 14.6715732,8.99999951 15.5000003,8.99999951 Z M6.50000028,16.9999995 C7.3284274,16.9999995 8.00000028,16.3284266 8.00000028,15.4999995 C8.00000028,14.6715724 7.3284274,13.9999995 6.50000028,13.9999995 C5.67157315,13.9999995 5.00000028,14.6715724 5.00000028,15.4999995 C5.00000028,16.3284266 5.67157315,16.9999995 6.50000028,16.9999995 Z" id="fabric-topology_24" fill="#00090D" mask="url(#mask-2)"></path>
    </g>
</svg>