<?xml version="1.0" encoding="UTF-8"?>
<svg width="24px" height="24px" viewBox="0 0 24 24" version="1.1" xmlns="http://www.w3.org/2000/svg" xmlns:xlink="http://www.w3.org/1999/xlink">
    <!-- Generator: Sketch 60.1 (88133) - https://sketch.com -->
    <title>Networking / fabric / fabric-filled_24</title>
    <desc>Created with Sketch.</desc>
    <g id="Networking-/-fabric-/-fabric-filled_24" stroke="none" stroke-width="1" fill="none" fill-rule="evenodd">
        <path d="M2.28679357,19.0479855 C2.7709698,18.7906754 3.75621294,18.2450218 4.96251559,17.471472 C5.38657698,17.8026537 5.92024214,18 6.5,18 C7.717711,18 8.73207986,17.1293888 8.95461246,15.9766606 C10.8098613,16.4367573 14.0953658,16.9041825 16.0406409,16.951371 C16.2398037,18.0435973 17.1486784,18.8881601 18.2719432,18.9897376 C18.3024984,19.9188602 18.2730251,21.3643523 18.2542946,22.2432944 C16.4330256,23.357693 14.2915222,24 12,24 C8.00619646,24 4.46808457,22.0489521 2.28679357,19.0479855 Z M1.79343418,18.3139288 C0.656431723,16.4798444 0,14.3165811 0,12 C0,11.771715 0.00637454421,11.5449189 0.0189553424,11.31978 C0.83368544,12.0675867 2.40116897,13.357519 4.35769091,14.2106671 C4.13063168,14.5871313 4,15.0283103 4,15.5 C4,15.9786921 4.13453901,16.4259609 4.36786687,16.8060562 C3.15619425,17.5774377 2.18154128,18.1085166 1.79343418,18.3139288 Z M0.132214283,10.2125848 C0.965370286,4.63355846 5.63886862,0.309399543 11.3769198,0.0158975325 C11.8394067,0.641122731 13.3776207,2.78655354 14.6485316,5.14874388 C13.6870227,5.4970088 13,6.41827303 13,7.5 C13,8.07369511 13.1932405,8.60225649 13.518182,9.02414479 C12.2335566,10.4243103 9.8775751,12.5802747 8.33565209,13.8028138 C7.87896188,13.309104 7.22557849,13 6.5,13 C5.92730801,13 5.39959206,13.1925653 4.97806924,13.5164787 C2.53496678,12.52588 0.636709059,10.7199656 0.132214283,10.2125848 Z M12.4473259,0.0081832046 C14.8353036,0.0956936634 17.0451386,0.880970543 18.8789827,2.1661657 C18.2912424,3.12418062 17.3285378,4.37238598 16.6408277,5.27488295 C16.3176925,5.10887651 15.9536905,5.01119104 15.5678992,5.00090422 C14.4879285,2.94707721 13.2014929,1.05362361 12.4473259,0.0081832046 Z M19.5835262,2.69951408 C22.2789916,4.90001217 24,8.24902457 24,12 C24,13.1868892 23.8276882,14.3335328 23.5067162,15.4162795 C22.7969614,15.5287297 21.6636328,15.6671716 20.8835159,15.7435563 C20.5692376,14.7523847 19.6538073,14.0287688 18.565354,14.0008376 C18.2930825,12.337783 17.8674172,10.733988 17.3009521,9.23395081 C17.7338219,8.78446081 18,8.17331502 18,7.5 C18,6.84769342 17.750173,6.25373704 17.3409808,5.80859258 C18.0272231,4.90684221 18.974713,3.67552313 19.5835262,2.69951408 Z M23.1858138,16.3537256 C22.3593289,18.4756333 20.9464888,20.3043926 19.1463609,21.6409361 C19.1623214,20.7678875 19.1756015,19.6722177 19.1497619,18.9147294 C20.1795837,18.6383108 20.946883,17.7206487 20.9973543,16.6160485 C21.6406782,16.5527962 22.4999935,16.4507202 23.1858138,16.3537256 Z M8.9546088,15.0233204 C8.92277213,14.858412 8.87472978,14.6992776 8.81220478,14.54764 C10.3919449,13.3041108 12.8323712,11.0727311 14.168843,9.6165196 C14.5542858,9.85944883 15.0107292,10 15.5,10 C15.8789118,10 16.238135,9.91570301 16.559939,9.76483964 C17.0635929,11.143988 17.4451586,12.6125584 17.6960836,14.1320646 C16.8410554,14.4222553 16.1938675,15.1625458 16.0367112,16.0707448 C14.1141957,16.0189993 10.7525048,15.5350424 8.9546088,15.0233204 Z M18.5,18 C17.6715729,18 17,17.3284271 17,16.5 C17,15.6715729 17.6715729,15 18.5,15 C19.3284271,15 20,15.6715729 20,16.5 C20,17.3284271 19.3284271,18 18.5,18 Z M15.5,9 C14.6715729,9 14,8.32842712 14,7.5 C14,6.67157288 14.6715729,6 15.5,6 C16.3284271,6 17,6.67157288 17,7.5 C17,8.32842712 16.3284271,9 15.5,9 Z M6.5,17 C5.67157288,17 5,16.3284271 5,15.5 C5,14.6715729 5.67157288,14 6.5,14 C7.32842712,14 8,14.6715729 8,15.5 C8,16.3284271 7.32842712,17 6.5,17 Z" id="fabric-filled_24" fill="#00090D"></path>
    </g>
</svg>