<?xml version="1.0" encoding="UTF-8"?>
<svg width="24px" height="24px" viewBox="0 0 24 24" version="1.1" xmlns="http://www.w3.org/2000/svg" xmlns:xlink="http://www.w3.org/1999/xlink">
    <title>Artboard</title>
    <g id="Artboard" stroke="none" stroke-width="1" fill="none" fill-rule="evenodd">
        <path d="M11.9500715,2.43360887e-13 C13.8675643,2.43360887e-13 15.6454904,0.292615606 16.9500715,2 C18.2546526,3.70738439 17.9195635,6.61148229 16.2500715,8.5 C15.6460103,9.18330983 14.9475897,9.79032479 14.1548097,10.3210449 L14.2056468,10.4205207 C14.3623193,10.747297 14.4500715,11.1134007 14.4500715,11.5 C14.4500715,11.7644383 14.4090147,12.0192873 14.332928,12.2585203 L14.3394691,12.2376349 L14.3394691,12.2376349 L14.687039,12.2318524 C15.5673622,12.2048981 16.1849916,12.1086995 16.5399272,11.9432566 C16.5956609,11.9172779 16.6573947,11.8850224 16.7247235,11.8476938 L16.9430902,11.7216929 L17.4708171,11.4072693 L17.775318,11.233293 C18.9898405,10.558807 20.730106,9.85025785 22.3802675,10.9385754 C23.978413,11.9925872 23.8233239,14.0528995 23.2588524,15.7914841 L23.1272217,16.1720005 C23.1043422,16.2343573 23.0810376,16.2961379 23.0573763,16.3572747 L22.9116739,16.715831 L22.7606869,17.0556989 C22.7352641,17.1106063 22.7097576,17.1646 22.6842358,17.2176127 L22.5314665,17.5233756 L22.3816056,17.8023538 L22.3087898,17.9307865 C21.3500434,19.591384 20.2076678,20.9848053 18.076739,21.2609135 C15.9458102,21.5370216 13.5983322,19.794777 12.7975739,17.4046957 C12.4378367,16.330962 12.2526914,15.1900601 12.2421381,13.9819899 L12.1144472,13.9946823 C12.0601102,13.9982091 12.0053,14 11.9500715,14 C11.4663033,14 11.0146283,13.8625925 10.6319461,13.6246771 L10.6626409,13.6434553 L10.6626409,13.6434553 L10.6421236,13.6784664 L10.3957948,14.1207907 C9.97897631,14.89665 9.75347205,15.4796321 9.71928198,15.8697369 C9.71391329,15.930993 9.71098054,16.0005837 9.70964363,16.0775565 L9.70958025,16.3296681 L9.71801568,16.9439048 L9.71643312,17.2945985 C9.69329386,18.6836488 9.43678268,20.5450375 7.66919132,21.4299605 C5.9573175,22.2869892 4.25057926,21.1225219 3.02715662,19.764383 L2.76343508,19.4601292 C2.72087225,19.4091366 2.67902098,19.358064 2.63790559,19.3070043 L2.40023795,19.0015442 L2.18139723,18.7008516 C2.14655747,18.6513811 2.11255075,18.602295 2.07940137,18.5536861 L1.89098749,18.2685025 L1.7243158,17.9992301 L1.64949769,17.8719535 C0.69075127,16.211356 0.0552007739,14.525319 0.881548497,12.5418265 C1.70789622,10.5583339 4.39046331,9.39648062 6.86071362,9.89804424 C7.77399257,10.0834779 8.66754519,10.3940596 9.54137148,10.8297895 L9.57752316,10.7098066 C9.78259403,10.0937875 10.2208729,9.58431761 10.7876429,9.28611384 L10.7379408,9.31298767 L10.7379408,9.31298767 C10.3126163,8.64055806 9.94957268,8.20017358 9.64914979,7.9897465 L9.56743093,7.93525558 L9.36976651,7.81626024 L8.71952625,7.4515659 L8.4166079,7.27484852 C7.22522463,6.56028416 5.74147036,5.40744464 5.85890023,3.4342041 C5.98526499,1.3108257 8.26977672,0.440775093 10.2130771,0.13846094 L10.5964471,0.0853647911 L10.9662749,0.0461894514 L11.3181171,0.0197160924 L11.6475304,0.00472588491 L11.9500715,2.43360887e-13 Z M9.48758187,11.9338483 C8.67592036,11.484137 7.84872285,11.1593421 7.00589628,10.9547419 L6.66173217,10.8780475 C4.61946251,10.4633818 2.42999966,11.4253484 1.80464318,12.9263992 C1.2219779,14.3249778 1.46883742,15.5590407 2.51552309,17.3719535 C3.85736577,19.6960932 5.81736372,21.238736 7.22152154,20.5357615 C8.14867563,20.0715932 8.57700986,19.2058734 8.68780979,17.883004 L8.70117461,17.641485 L8.70937295,17.3298053 L8.71892291,15.9115985 L8.72310067,15.7824283 C8.78176853,15.1130346 9.17133282,14.1986319 9.89964949,12.9646321 L9.91044137,12.945999 L9.91677813,12.95488 C9.65290178,12.5867501 9.4865196,12.1439961 9.45538918,11.6643757 L9.4500715,11.5 C9.4500715,11.6479706 9.46292693,11.7929387 9.48758187,11.9338483 Z M18.7992038,11.8299041 L18.5833598,11.9390894 L18.3093381,12.0878292 L17.07636,12.7886621 L16.9624064,12.8496292 C16.3533605,13.1335182 15.3666825,13.253347 13.933849,13.2396061 L13.7489386,13.2361133 L13.7596671,13.2249307 C13.6080804,13.3839103 13.4357574,13.5229421 13.2470372,13.6376869 L13.2460375,13.6382944 L13.245,13.639 C13.2333739,13.6459859 13.2206364,13.6535682 13.2078266,13.6610399 L13.245,13.639 L13.2417361,13.9192959 C13.2457888,14.9177794 13.3789836,15.8608122 13.6401096,16.750615 L13.7457723,17.0870171 C14.4077961,19.0630073 16.3356151,20.4781545 17.9482415,20.2692037 C19.4507787,20.0745173 20.3960788,19.2436992 21.4427644,17.4307865 C22.7846071,15.1066468 23.140576,12.6379174 21.8297033,11.7733682 C20.9641447,11.2025134 20.0002423,11.264425 18.7992038,11.8299041 Z M11.9500715,10 C11.1216444,10 10.4500715,10.6715729 10.4500715,11.5 C10.4500715,12.3284271 11.1216444,13 11.9500715,13 C12.7784986,13 13.4500715,12.3284271 13.4500715,11.5 C13.4500715,10.6715729 12.7784986,10 11.9500715,10 Z M11.9500715,1 C9.26638614,1 6.95041931,1.92608662 6.85713413,3.49361018 C6.79553868,4.52863335 7.3311069,5.33244158 8.42134539,6.08983181 L8.51290321,6.15125313 L8.88964793,6.3851054 L10.1812113,7.14379304 C10.1997033,7.15526244 10.2137794,7.16432779 10.2228519,7.17068248 C10.6811066,7.49166066 11.171761,8.09622718 11.7298331,9.0098358 L11.6820046,9.01420366 C11.7700742,9.00481524 11.8595105,9 11.9500715,9 C12.5521075,9 13.1044404,9.21280446 13.5359526,9.56729582 L13.5093021,9.54570517 L13.5093021,9.54570517 C14.1657199,9.11895804 14.7493869,8.63520641 15.2623531,8.09738304 L15.5008545,7.83767538 C16.8811004,6.27635084 17.1427443,3.89923706 16.1554744,2.60713707 C15.2356024,1.40324483 14.0434428,1 11.9500715,1 Z" id="fan_24" fill="#545454" fill-rule="nonzero"></path>
    </g>
</svg>