<svg width="16" height="16" viewBox="0 0 16 16" fill="none" xmlns="http://www.w3.org/2000/svg">
<path fill-rule="evenodd" clip-rule="evenodd" d="M11.7517 2.25L11.7517 2.24998C11.5017 1.49998 11.0017 0 8.00176 0C5.00176 0 3.50176 1.5 4.00176 3C4.34378 4.02606 5.05557 4.48605 5.69838 4.90148C5.9953 5.09336 6.27751 5.27574 6.50176 5.5C6.6887 5.68695 6.88124 5.94887 7.06345 6.2333C6.66124 6.44734 6.34078 6.79472 6.16102 7.21646C6.02106 7.15713 5.86899 7.09242 5.70364 7.02179C3.40462 6.03976 1.67257 7.03976 1.14805 7.63127L1.14803 7.63128C0.62351 8.2228 -0.425511 9.40579 1.07448 12.0038C2.57448 14.6019 4.62352 15.151 5.67255 13.9679C6.39013 13.1587 6.43261 12.3123 6.47097 11.5479C6.48869 11.1948 6.50553 10.8592 6.58762 10.5529C6.65625 10.2968 6.78736 9.9981 6.94316 9.69722C7.25017 9.8891 7.61299 10 8.00171 10C8.08374 10 8.16461 9.99506 8.24405 9.98547C8.26297 10.1389 8.28335 10.306 8.3053 10.4882C8.60435 12.9702 10.3364 13.9702 11.1109 14.1287L11.1109 14.1287C11.8855 14.2872 13.4345 14.6042 14.9345 12.0061C16.4345 9.40804 15.8854 7.359 14.3364 7.04202C13.2768 6.82519 12.5225 7.21161 11.8413 7.5606C11.5267 7.7218 11.2277 7.875 10.9213 7.95708C10.6646 8.02585 10.3395 8.06165 10.0002 8.07711C10.0012 8.05152 10.0017 8.02582 10.0017 8C10.0017 7.54997 9.85307 7.13466 9.60221 6.80048C9.7242 6.70847 9.85703 6.60855 10.0018 6.5C12.0017 5 12.0017 3 11.7517 2.25ZM8.78956 6.16116C8.96599 6.02759 9.16858 5.87488 9.40175 5.7C11.0191 4.487 10.9327 2.95525 10.8031 2.56623L10.803 2.56621L10.803 2.56619C10.6808 2.19936 10.5597 1.87008 10.2464 1.59358C9.94742 1.3298 9.33355 1 8.00176 1C6.64831 1 5.77547 1.34084 5.3225 1.71146C4.90445 2.0535 4.85158 2.3872 4.95044 2.68377C5.11368 3.1735 5.39377 3.46703 5.76595 3.74102C5.91417 3.85013 6.05538 3.94139 6.21862 4.04689C6.28535 4.09001 6.35576 4.13552 6.43184 4.18559C6.66928 4.34188 6.95525 4.53927 7.20888 4.79291C7.53412 5.11816 7.842 5.5747 8.0954 6.00216C8.34095 6.01348 8.57493 6.06908 8.78956 6.16116ZM9.68131 9.08623C9.55327 9.2838 9.39132 9.45736 9.20369 9.59865C9.23144 9.82037 9.26277 10.0752 9.29812 10.3685C9.53995 12.3757 10.9097 13.0668 11.3114 13.149L11.3114 13.149L11.3114 13.149C11.6903 13.2265 12.0359 13.2864 12.4321 13.1532C12.81 13.0262 13.4025 12.6595 14.0684 11.5061C14.7452 10.334 14.8864 9.40768 14.7919 8.83008C14.7047 8.29702 14.4422 8.08439 14.1359 8.02171C13.6302 7.91822 13.2359 8.01402 12.8126 8.19934C12.6439 8.27315 12.4943 8.34981 12.3213 8.43843C12.2506 8.47466 12.176 8.51289 12.0946 8.55373C11.8405 8.68122 11.5266 8.83018 11.1801 8.92301C10.7333 9.04271 10.1804 9.08084 9.68131 9.08623ZM6.22599 8.92112C6.11786 8.71311 6.04522 8.4837 6.01607 8.24091C5.81224 8.15493 5.57876 8.05586 5.31083 7.94141C3.45168 7.14728 2.16831 7.98793 1.89625 8.29474L1.89624 8.29475L1.89622 8.29477C1.63968 8.58408 1.41503 8.85353 1.33225 9.26317C1.25329 9.65395 1.27461 10.3505 1.9405 11.5038C2.61723 12.676 3.34882 13.2614 3.89627 13.4684C4.40151 13.6594 4.71694 13.5384 4.92435 13.3045C5.26684 12.9182 5.38101 12.5289 5.4322 12.0696C5.45258 11.8867 5.46101 11.7188 5.47075 11.5246L5.47076 11.5245C5.47474 11.4452 5.47894 11.3615 5.48426 11.2706C5.5009 10.9869 5.52885 10.6405 5.6217 10.294C5.74081 9.84957 5.98239 9.35443 6.22599 8.92112ZM9.00171 8C9.00171 8.55228 8.55399 9 8.00171 9C7.44942 9 7.00171 8.55228 7.00171 8C7.00171 7.44772 7.44942 7 8.00171 7C8.55399 7 9.00171 7.44772 9.00171 8Z" fill="#545454"/>
</svg>
