<?xml version="1.0" encoding="UTF-8"?>
<svg width="24px" height="24px" viewBox="0 0 24 24" version="1.1" xmlns="http://www.w3.org/2000/svg" xmlns:xlink="http://www.w3.org/1999/xlink">
    <!-- Generator: Sketch 60.1 (88133) - https://sketch.com -->
    <title>Networking/Endpoints/fax/fax-filled_24</title>
    <desc>Created with Sketch.</desc>
    <g id="Networking/Endpoints/fax/fax-filled_24" stroke="none" stroke-width="1" fill="none" fill-rule="evenodd">
        <path d="M17,3 C17.5522847,3 18,3.44771525 18,4 L18,7 L22,7 C23.1045695,7 24,7.8954305 24,9 L24,16.5 C24,16.7761424 23.7761424,17 23.5,17 L18.3395212,17 L21.8351837,20.1464466 C22.1851252,20.461429 21.9372823,21 21.4423903,21 L2.55560494,21 C2.06071292,21 1.81287008,20.461429 2.16281159,20.1464466 L5.65847404,17 L0.5,17 C0.223857625,17 0,16.7761424 0,16.5 L0,9 C0,7.8954305 0.8954305,7 2,7 L6,7 L6,4 C6,3.44771525 6.44771525,3 7,3 L17,3 Z M12.2780078,9.80475262 C9.74022564,9.80537218 7.35873157,10.3554139 5.7444553,11.3163072 C5.64404916,11.3757002 5.55354275,11.446407 5.4736432,11.5263066 C5.26010635,11.7398434 5.12293852,12.0184361 5.08405875,12.3274375 C5.03033383,12.7545241 5.17459677,13.1745465 5.47936736,13.4793171 L5.47936736,13.4793171 L6.295389,14.2953388 C6.76916239,14.7691122 7.47838881,14.9155063 8.10204248,14.6666286 L8.10204248,14.6666286 L9.12590933,14.2593743 C9.66683339,14.0423132 10.0811789,13.6039255 10.265713,13.0516867 L10.265713,13.0516867 L10.5464085,12.3792442 C11.7357463,12.2491788 13.027618,12.2442737 14.0020061,12.3659285 C14.0408967,12.3708796 14.0713028,12.3942149 14.0819105,12.4288632 L14.0819105,12.4288632 L14.2898194,13.0511184 C14.4729774,13.6033699 14.8887674,14.0432005 15.4297064,14.2588847 L15.4297064,14.2588847 L16.4550156,14.6676239 C17.0779793,14.9158375 17.7864886,14.7701993 18.2609363,14.2957515 L18.2609363,14.2957515 L19.0769017,13.4797862 C19.3816513,13.1750366 19.5251781,12.754317 19.4714237,12.3272267 C19.4190837,11.9029649 19.1779499,11.5345574 18.8123716,11.3160509 C17.1987361,10.3557533 14.816497,9.80484019 12.2780078,9.80475262 Z M19.8019912,20 L16.5111162,17 L7.09286617,17 L3.80199117,20 L19.8019912,20 Z M17,7 L17,4.5 C17,4.22385763 16.7761424,4 16.5,4 L7.5,4 C7.22385763,4 7,4.22385763 7,4.5 L7,7 L17,7 Z" id="fax-filled_24" fill="#00090D"></path>
    </g>
</svg>