<?xml version="1.0" encoding="UTF-8"?>
<svg width="16px" height="16px" viewBox="0 0 16 16" version="1.1" xmlns="http://www.w3.org/2000/svg" xmlns:xlink="http://www.w3.org/1999/xlink">
    <!-- Generator: Sketch 60.1 (88133) - https://sketch.com -->
    <title>Topology/Endpoints/fax/fax-topology_16</title>
    <desc>Created with Sketch.</desc>
    <g id="Topology/Endpoints/fax/fax-topology_16" stroke="none" stroke-width="1" fill="none" fill-rule="evenodd">
        <path d="M11.3333333,2 C11.7015232,2 12,2.29847683 12,2.66666667 L12,4 L14,4 C15.1045695,4 16,4.8954305 16,6 L16,11.6666667 C16,11.8507616 15.8507616,12 15.6666667,12 L12.4852217,12 L14.2302418,13.487868 C14.4518948,13.6768574 14.2949111,14 13.9814464,14 L2.01855358,14 C1.70508889,14 1.5481052,13.6768574 1.76975821,13.487868 L3.51477831,12 L0.333333333,12 C0.149238417,12 0,11.8507616 0,11.6666667 L0,6 C0,4.8954305 0.8954305,4 2,4 L4,4 L4,2.66666667 C4,2.29847683 4.29847683,2 4.66666667,2 L11.3333333,2 Z" id="secondary-color" fill="#FFA000"></path>
        <path d="M4,4 L4,2.66666667 C4,2.29847683 4.29847683,2 4.66666667,2 L11.3333333,2 C11.7015232,2 12,2.29847683 12,2.66666667 L12,4 L14,4 C15.1045695,4 16,4.8954305 16,6 L16,11.6666667 C16,11.8507616 15.8507616,12 15.6666667,12 L12.4852217,12 L14.2302418,13.487868 C14.4518948,13.6768574 14.2949111,14 13.9814464,14 L2.01855358,14 C1.70508889,14 1.5481052,13.6768574 1.76975821,13.487868 L3.51477831,12 L0.333333333,12 C0.149238417,12 0,11.8507616 0,11.6666667 L0,6 C0,4.8954305 0.8954305,4 2,4 L4,4 Z M5,4 L11,4 L11,3.33333333 C11,3.14923842 10.8507616,3 10.6666667,3 L5.33333333,3 C5.14923842,3 5,3.14923842 5,3.33333333 L5,4 Z M4.56420801,12 L3.43370983,13 L12.6099686,13 L11.4434757,12 L4.56420801,12 Z M11.1666481,11 L14.6666667,11 C14.8507616,11 15,10.8507616 15,10.6666667 L15,6.33339882 C15,5.59701915 14.4030463,5.00006548 13.6666667,5.00006548 L2.33333333,5.00006548 C1.59695367,5.00006548 1,5.59701915 1,6.33339882 L1,10.6666667 C1,10.8507616 1.14923842,11 1.33333333,11 L4.83335189,11 L11.1666481,11 Z M10.2769827,11 L5.69470618,11 L10.2769827,11 Z M5.29220885,9.82842791 C4.89533833,9.98680463 4.44401243,9.89364471 4.14252028,9.59215255 L3.62323377,9.07286605 C3.42928885,8.87892113 3.33748517,8.61163413 3.37167375,8.33985174 C3.39641542,8.14321451 3.48370404,7.96592823 3.61959113,7.83004115 C3.6704363,7.77919598 3.72803128,7.73420071 3.7919261,7.69640519 C4.81919282,7.08492761 6.33468904,6.73490108 7.9496413,6.73450682 C9.56504354,6.73456255 11.0810139,7.08514363 12.1078728,7.69624207 C12.3405136,7.83529168 12.4939624,8.06973279 12.5272697,8.3397176 C12.561477,8.61150233 12.4701417,8.87923298 12.2762102,9.07316455 L11.7569595,9.59241522 C11.4550382,9.89433653 11.0041687,9.98701537 10.6077372,9.82906125 L9.95526771,9.56895448 C9.61103381,9.43170091 9.34644016,9.15180872 9.22988509,8.80037597 L9.09757944,8.40439537 C9.09082909,8.38234647 9.07147975,8.3674967 9.04673113,8.36434604 C8.42666599,8.28692933 7.60456584,8.29005078 6.8477145,8.37281966 L6.66909007,8.80073761 C6.5516593,9.15216229 6.28798488,9.43113631 5.94376048,9.56926607 L5.29220885,9.82842791 Z" id="fax-topology_16" fill="#00090D"></path>
    </g>
</svg>