<?xml version="1.0" encoding="UTF-8"?>
<svg width="24px" height="24px" viewBox="0 0 24 24" version="1.1" xmlns="http://www.w3.org/2000/svg" xmlns:xlink="http://www.w3.org/1999/xlink">
    <!-- Generator: Sketch 60.1 (88133) - https://sketch.com -->
    <title>Networking/Endpoints/fax/fax_24</title>
    <desc>Created with Sketch.</desc>
    <g id="Networking/Endpoints/fax/fax_24" stroke="none" stroke-width="1" fill="none" fill-rule="evenodd">
        <path d="M23,15.5 L23,9 C23,8.44771525 22.5522847,8 22,8 L2,8 C1.44771525,8 1,8.44771525 1,9 L1,15.5 C1,15.7761424 1.22385763,16 1.5,16 L22.5,16 C22.7761424,16 23,15.7761424 23,15.5 Z M18,7 L22,7 C23.1045695,7 24,7.8954305 24,9 L24,16.5 C24,16.7761424 23.7761424,17 23.5,17 L18.3395212,17 L21.8351837,20.1464466 C22.1851252,20.461429 21.9372823,21 21.4423903,21 L2.55560494,21 C2.06071292,21 1.81287008,20.461429 2.16281159,20.1464466 L5.65847404,17 L0.5,17 C0.223857625,17 0,16.7761424 0,16.5 L0,9 C0,7.8954305 0.8954305,7 2,7 L6,7 L6,4 C6,3.44771525 6.44771525,3 7,3 L17,3 C17.5522847,3 18,3.44771525 18,4 L18,7 Z M19.8019912,20 L16.5111162,17 L7.09286617,17 L3.80199117,20 L19.8019912,20 Z M17,7 L17,4.5 C17,4.22385763 16.7761424,4 16.5,4 L7.5,4 C7.22385763,4 7,4.22385763 7,4.5 L7,7 L17,7 Z M6.295389,14.2953388 L5.47936736,13.4793171 C5.17459677,13.1745465 5.03033383,12.7545241 5.08405875,12.3274375 C5.12293852,12.0184361 5.26010635,11.7398434 5.4736432,11.5263066 C5.55354275,11.446407 5.64404916,11.3757002 5.7444553,11.3163072 C7.35873157,10.3554139 9.74022564,9.80537218 12.2780078,9.80475262 C14.816497,9.80484019 17.1987361,10.3557533 18.8123716,11.3160509 C19.1779499,11.5345574 19.4190837,11.9029649 19.4714237,12.3272267 C19.5251781,12.754317 19.3816513,13.1750366 19.0769017,13.4797862 L18.2609363,14.2957515 C17.7864886,14.7701993 17.0779793,14.9158375 16.4550156,14.6676239 L15.4297064,14.2588847 C14.8887674,14.0432005 14.4729774,13.6033699 14.2898194,13.0511184 L14.0819105,12.4288632 C14.0713028,12.3942149 14.0408967,12.3708796 14.0020061,12.3659285 C13.027618,12.2442737 11.7357463,12.2491788 10.5464085,12.3792442 L10.265713,13.0516867 C10.0811789,13.6039255 9.66683339,14.0423132 9.12590933,14.2593743 L8.10204248,14.6666286 C7.47838881,14.9155063 6.76916239,14.7691122 6.295389,14.2953388 Z" id="fax_24" fill="#00090D"></path>
    </g>
</svg>