<?xml version="1.0" encoding="UTF-8"?>
<svg width="12px" height="12px" viewBox="0 0 12 12" version="1.1" xmlns="http://www.w3.org/2000/svg" xmlns:xlink="http://www.w3.org/1999/xlink">
    <!-- Generator: Sketch 60.1 (88133) - https://sketch.com -->
    <title>Action/filter/filter_12</title>
    <desc>Created with Sketch.</desc>
    <g id="Action/filter/filter_12" stroke="none" stroke-width="1" fill="none" fill-rule="evenodd">
        <path d="M5.6,11.8 L7.6,10.3 C7.85180584,10.1111456 8,9.8147573 8,9.5 L8,6 L11.6331797,1.6401844 C11.9867437,1.2159075 11.9294197,0.585342801 11.5051428,0.23177872 C11.3254278,0.0820162194 11.0988949,0 10.8649584,0 L1.13504161,0 C0.582756863,0 0.135041613,0.44771525 0.135041613,1 C0.135041613,1.23393651 0.217057832,1.4604694 0.366820333,1.6401844 L4,6 L4,11 C4,11.5522847 4.44771525,12 5,12 C5.21637021,12 5.42690383,11.9298221 5.6,11.8 Z M5,11 L5,5.69722436 L1,1 L11,1 L7,5.69722436 L7,9.5 L5,11 Z" id="filter_12" fill="#00090D"></path>
    </g>
</svg>