<?xml version="1.0" encoding="UTF-8"?>
<svg width="18px" height="18px" viewBox="0 0 18 18" version="1.1" xmlns="http://www.w3.org/2000/svg" xmlns:xlink="http://www.w3.org/1999/xlink">
    <!-- Generator: Sketch 60.1 (88133) - https://sketch.com -->
    <title>Action/filter/filter_18</title>
    <desc>Created with Sketch.</desc>
    <g id="Action/filter/filter_18" stroke="none" stroke-width="1" fill="none" fill-rule="evenodd">
        <path d="M7.00003682,17.0978762 L7.00003682,10 L0.219168013,1.62469505 C-0.125841535,1.19343311 -0.0559201598,0.564140739 0.375341775,0.219131191 C0.552654823,0.0772807521 0.772965328,-1.77635684e-15 1.00003682,-1.77635684e-15 L17.0000368,-1.77635684e-15 C17.5523216,-1.77635684e-15 18.0000368,0.44771525 18.0000368,1 C18.0000368,1.2270715 17.9227561,1.447382 17.7809056,1.62469505 L11.0000368,10 L11.0000368,15.2228762 C11.0000368,15.3952712 10.911227,15.5555062 10.7650363,15.6468753 L7.76503629,17.5218753 C7.53086803,17.6682305 7.22239284,17.5970439 7.07603767,17.3628756 C7.02637155,17.2834098 7.00003682,17.191586 7.00003682,17.0978762 Z M8.00003682,16.1957524 L10.0000368,14.9457524 L10.0000368,9.64921894 L17.0000368,1 L1.00003682,1 L8.00003682,9.64921894 L8.00003682,16.1957524 Z" id="filter_18" fill="#00090D"></path>
    </g>
</svg>