<?xml version="1.0" encoding="UTF-8"?>
<svg width="16px" height="16px" viewBox="0 0 16 16" version="1.1" xmlns="http://www.w3.org/2000/svg" xmlns:xlink="http://www.w3.org/1999/xlink">
    <!-- Generator: Sketch 60.1 (88133) - https://sketch.com -->
    <title>Action/filter/filter-filled_16</title>
    <desc>Created with Sketch.</desc>
    <g id="Action/filter/filter-filled_16" stroke="none" stroke-width="1" fill="none" fill-rule="evenodd">
        <path d="M6.26514328,15.709 C6.10314328,15.623 6.00114328,15.454 6.00114328,15.269 L6.00094328,8.813 L0.227943276,1.634 C-0.0180567239,1.338 -0.0700567239,0.93 0.0969432761,0.575 C0.262943276,0.221 0.609943276,-2.7533531e-14 1.00194328,-2.7533531e-14 L14.9989433,-2.7533531e-14 C15.3899433,-2.7533531e-14 15.7379433,0.221 15.9039433,0.575 C16.0709433,0.93 16.0179433,1.338 15.7669433,1.64 L9.99994328,8.813 L10.0001433,13.268 C10.0001433,13.435 9.91714328,13.592 9.77714328,13.685 L6.77814328,15.685 C6.69514328,15.741 6.59814328,15.769 6.50114328,15.769 C6.42014328,15.769 6.33914328,15.749 6.26514328,15.709 Z" id="filter-filled_16" fill="#00090D"></path>
    </g>
</svg>