<?xml version="1.0" encoding="UTF-8"?>
<svg width="24px" height="24px" viewBox="0 0 24 24" version="1.1" xmlns="http://www.w3.org/2000/svg" xmlns:xlink="http://www.w3.org/1999/xlink">
    <!-- Generator: Sketch 60.1 (88133) - https://sketch.com -->
    <title>Action/filter/filter_24</title>
    <desc>Created with Sketch.</desc>
    <g id="Action/filter/filter_24" stroke="none" stroke-width="1" fill="none" fill-rule="evenodd">
        <path d="M10.5547002,22.4635332 L14.5547002,19.7968665 C14.8328989,19.6114008 15,19.2991694 15,18.9648162 L15,12 L22.761761,2.60971076 C23.0984949,2.17195662 23.0166019,1.54410997 22.5788477,1.20737601 C22.4040391,1.07290785 22.1896811,1 21.969137,1 L2.03086304,1 C1.47857829,1 1.03086304,1.44771525 1.03086304,2 C1.03086304,2.22054417 1.10377089,2.43490216 1.23823905,2.60971076 L9,12 L9,21.6314829 C9,22.1837677 9.44771525,22.6314829 10,22.6314829 C10.197425,22.6314829 10.3904327,22.5730449 10.5547002,22.4635332 Z M10,21.6314829 L10,11.6598781 L2.03086304,2 L21.969137,2 L14,11.6598781 L14,18.9648162 L10,21.6314829 Z" id="filter_24" fill="#00090D"></path>
    </g>
</svg>