<?xml version="1.0" encoding="UTF-8"?>
<svg width="16px" height="16px" viewBox="0 0 16 16" version="1.1" xmlns="http://www.w3.org/2000/svg" xmlns:xlink="http://www.w3.org/1999/xlink">
    <!-- Generator: Sketch 60.1 (88133) - https://sketch.com -->
    <title>Action / find_16</title>
    <desc>Created with Sketch.</desc>
    <g id="Action-/-find_16" stroke="none" stroke-width="1" fill="none" fill-rule="evenodd">
        <path d="M0.461538462,12 C0.206637808,12 0,11.7761424 0,11.5 C0,11.2238576 0.206637808,11 0.461538462,11 L5.53846154,11 C5.79336219,11 6,11.2238576 6,11.5 C6,11.7761424 5.79336219,12 5.53846154,12 L0.461538462,12 Z M0.454545455,8 C0.203506932,8 0,7.77614237 0,7.5 C0,7.22385763 0.203506932,7 0.454545455,7 L4.54545455,7 C4.79649307,7 5,7.22385763 5,7.5 C5,7.77614237 4.79649307,8 4.54545455,8 L0.454545455,8 Z M0.5,4 C0.223857625,4 0,3.77614237 0,3.5 C0,3.22385763 0.223857625,3 0.5,3 L5.5,3 C5.77614237,3 6,3.22385763 6,3.5 C6,3.77614237 5.77614237,4 5.5,4 L0.5,4 Z M13.3088429,11.0159497 C12.5390075,11.6317636 11.5625069,12 10.5,12 C8.01471863,12 6,9.98528137 6,7.5 C6,5.01471863 8.01471863,3 10.5,3 C12.9852814,3 15,5.01471863 15,7.5 C15,8.56250686 14.6317636,9.53900749 14.0159497,10.3088429 L15.8535534,12.1464466 C16.0488155,12.3417088 16.0488155,12.6582912 15.8535534,12.8535534 C15.6582912,13.0488155 15.3417088,13.0488155 15.1464466,12.8535534 L13.3088429,11.0159497 Z M10.5,11 C12.4329966,11 14,9.43299662 14,7.5 C14,5.56700338 12.4329966,4 10.5,4 C8.56700338,4 7,5.56700338 7,7.5 C7,9.43299662 8.56700338,11 10.5,11 Z" id="find_16" fill="#00090D"></path>
    </g>
</svg>