<?xml version="1.0" encoding="UTF-8"?>
<svg width="24px" height="24px" viewBox="0 0 24 24" version="1.1" xmlns="http://www.w3.org/2000/svg" xmlns:xlink="http://www.w3.org/1999/xlink">
    <!-- Generator: Sketch 60.1 (88133) - https://sketch.com -->
    <title>Topology / firewall / firewall-topology_24</title>
    <desc>Created with Sketch.</desc>
    <g id="Topology-/-firewall-/-firewall-topology_24" stroke="none" stroke-width="1" fill="none" fill-rule="evenodd">
        <path d="M21,1 C22.1045695,1 23,1.8954305 23,3 L23,21 C23,22.1045695 22.1045695,23 21,23 L3,23 C1.8954305,23 1,22.1045695 1,21 L1,3 C1,1.8954305 1.8954305,1 3,1 L21,1 Z" id="secondary-color" fill="#FFA000"></path>
        <path d="M12.0315064,23 C12.0210875,23.0006478 12.0105821,23 12,23 C11.9894179,23 11.9789125,23.0006478 11.9684936,23 L3,23 C1.8954305,23 1,22.1045695 1,21 L1,3 C1,1.8954305 1.8954305,1 3,1 L21,1 C22.1045695,1 23,1.8954305 23,3 L23,21 C23,22.1045695 22.1045695,23 21,23 L12.0315064,23 Z M11.5,2 L3,2 C2.44771525,2 2,2.44771525 2,3 L2,8 L11.5,8 L11.5,2 Z M12.5,2 L12.5,8 L22,8 L22,3 C22,2.44771525 21.5522847,2 21,2 L12.5,2 Z M22,9 L18,9 L18,15 L22,15 L22,9 Z M22,16 L17.5315064,16 C17.5210875,16.0006478 17.5105821,16.0009766 17.5,16.0009766 C17.4894179,16.0009766 17.4789125,16.0006478 17.4684936,16 L12.5,16 L12.5,22 L21,22 C21.5522847,22 22,21.5522847 22,21 L22,16 Z M11.5,22 L11.5,16 L6.53150638,16 C6.52108747,16.0006478 6.51058213,16.0009766 6.5,16.0009766 C6.48941787,16.0009766 6.47891253,16.0006478 6.46849362,16 L2,16 L2,21 C2,21.5522847 2.44771525,22 3,22 L11.5,22 Z M2,15 L6,15 L6,9 L2,9 L2,15 Z M17,9 L12.0315064,9 C12.0210875,9.00064782 12.0105821,9.00097656 12,9.00097656 C11.9894179,9.00097656 11.9789125,9.00064782 11.9684936,9 L7,9 L7,15 L17,15 L17,9 Z" id="firewall-badge-topology_24" fill="#00090D"></path>
    </g>
</svg>