<svg width="48" height="48" viewBox="0 0 48 48" fill="none" xmlns="http://www.w3.org/2000/svg">
<g id="firewall_48">
<path id="firewall_48_2" fill-rule="evenodd" clip-rule="evenodd" d="M25 3H42C43.6569 3 45 4.34315 45 6V16H35H34H25V3ZM24 2H25H42C44.2091 2 46 3.79086 46 6V16V17V31V32V42C46 44.2091 44.2091 46 42 46H25H24H6C3.79086 46 2 44.2091 2 42V32V31V17V16V6C2 3.79086 3.79086 2 6 2H24ZM3 16V6C3 4.34315 4.34315 3 6 3H24V16H14H13H3ZM3 17V31H13L13 17H3ZM3 32V42C3 43.6569 4.34315 45 6 45H24V32H3ZM25 45H42C43.6569 45 45 43.6569 45 42V32H25V45ZM45 31V17H35V31H45ZM34 17V31H25H24H14L14 17H24H25H34Z" fill="#545454"/>
</g>
</svg>
