<?xml version="1.0" encoding="UTF-8"?>
<svg width="18px" height="18px" viewBox="0 0 18 18" version="1.1" xmlns="http://www.w3.org/2000/svg" xmlns:xlink="http://www.w3.org/1999/xlink">
    <title>Action/flash/flash-filled_18</title>
    <g id="Action/flash/flash-filled_18" stroke="none" stroke-width="1" fill="none" fill-rule="evenodd">
        <path d="M13,0 C13.371691,0 13.6134389,0.391156251 13.4472136,0.723606798 L13.4472136,0.723606798 L10.809,6 L13,6 C13.350335,6 13.5827665,6.34614425 13.4735099,6.66145807 L13.4735099,6.66145807 L13.4389478,6.73942607 L7.43894779,17.7394261 C7.17458494,18.2240913 6.43538444,17.9857956 6.50386106,17.4379826 L6.50386106,17.4379826 L7.433,10 L5,10 C4.68716104,10 4.45859709,9.71905453 4.5058029,9.42284837 L4.5058029,9.42284837 L4.52565835,9.34188612 L7.52565835,0.341886117 C7.59371537,0.137715047 7.7847848,0 8,0 L8,0 Z" id="flash-filled_18" fill="#545454"></path>
    </g>
</svg>