<?xml version="1.0" encoding="UTF-8"?>
<svg width="18px" height="18px" viewBox="0 0 18 18" version="1.1" xmlns="http://www.w3.org/2000/svg" xmlns:xlink="http://www.w3.org/1999/xlink">
    <title>Action/flash/flash_18</title>
    <g id="Action/flash/flash_18" stroke="none" stroke-width="1" fill="none" fill-rule="evenodd">
        <path d="M13,0 L8,0 C7.7847848,0 7.59371537,0.137715047 7.52565835,0.341886117 L4.52565835,9.34188612 L4.5058029,9.42284837 C4.45859709,9.71905453 4.68716104,10 5,10 L7.433,10 L6.50386106,17.4379826 C6.43538444,17.9857956 7.17458494,18.2240913 7.43894779,17.7394261 L13.4389478,6.73942607 L13.4735099,6.66145807 C13.5827665,6.34614425 13.350335,6 13,6 L10.809,6 L13.4472136,0.723606798 C13.6134389,0.391156251 13.371691,0 13,0 Z M12.19,1 L9.5527864,6.2763932 L9.5215423,6.35394991 C9.424522,6.6667071 9.65690061,7 10,7 L12.157,7 L7.823,14.946 L8.49613894,9.56201737 L8.49943198,9.47376322 C8.48622305,9.21350854 8.2706741,9 8,9 L5.693,9 L8.36,1 L12.19,1 Z" id="flash_18" fill="#545454"></path>
    </g>
</svg>