<?xml version="1.0" encoding="UTF-8"?>
<svg width="24px" height="24px" viewBox="0 0 24 24" version="1.1" xmlns="http://www.w3.org/2000/svg" xmlns:xlink="http://www.w3.org/1999/xlink">
    <title>Action/flash/flash_24</title>
    <g id="Action/flash/flash_24" stroke="none" stroke-width="1" fill="none" fill-rule="evenodd">
        <path d="M16.5003833,1 C16.8720743,1 17.1138222,1.39115625 16.9475969,1.7236068 L16.9475969,1.7236068 L13.3093833,9 L17.5003833,9 C17.8636036,9 18.0962064,9.36982869 17.9634429,9.68938786 L17.9634429,9.68938786 L17.9262125,9.76204871 L9.92621247,22.7620487 C9.63063089,23.2423688 8.88994488,22.9420868 9.01228979,22.3915348 L9.01228979,22.3915348 L10.8763833,14 L6.50038332,14 C6.18754436,14 5.95898041,13.7190545 6.00618622,13.4228484 L6.00618622,13.4228484 L6.02604167,13.3418861 L10.0260417,1.34188612 C10.0940987,1.13771505 10.2851681,1 10.5003833,1 L10.5003833,1 L16.5003833,1 Z M15.6903833,2 L10.8603833,2 L7.19338332,13 L11.5003833,13 C11.7911778,13 12.0139856,13.2448003 11.9999588,13.5239127 L11.9999588,13.5239127 L11.9884768,13.6084652 L10.6343833,19.703 L16.6043833,10 L12.5003833,10 C12.1572839,10 11.9249053,9.6667071 12.0219256,9.35394991 L12.0219256,9.35394991 L12.0531697,9.2763932 L15.6903833,2 Z" id="flash_24" fill="#545454"></path>
    </g>
</svg>