<?xml version="1.0" encoding="UTF-8"?>
<svg width="16px" height="16px" viewBox="0 0 16 16" version="1.1" xmlns="http://www.w3.org/2000/svg" xmlns:xlink="http://www.w3.org/1999/xlink">
    <!-- Generator: Sketch 60.1 (88133) - https://sketch.com -->
    <title>Topology / floor / floor-topology_16</title>
    <desc>Created with Sketch.</desc>
    <g id="Topology-/-floor-/-floor-topology_16" stroke="none" stroke-width="1" fill="none" fill-rule="evenodd">
        <path d="M3.10178453,6.49999965 L1.03541839,5.44534707 C0.789459803,5.31981227 0.691837036,5.01865738 0.817371835,4.77269879 C0.86526649,4.67885946 0.941579057,4.60254689 1.03541839,4.55465224 L7.77096521,1.11689659 C7.91470738,1.04353202 8.08502203,1.04405719 8.22830903,1.11830681 L14.862494,4.55606246 C15.1076738,4.68311168 15.2034375,4.98486288 15.0763883,5.23004262 C15.0288848,5.32171496 14.9541664,5.39643333 14.862494,5.44393685 L12.8245028,6.49999965 L14.862494,7.55606246 C15.1076738,7.68311168 15.2034375,7.98486288 15.0763883,8.23004262 C15.0288848,8.32171496 14.9541664,8.39643333 14.862494,8.44393685 L12.8245028,9.49999965 L14.862494,10.5560625 C15.1076738,10.6831117 15.2034375,10.9848629 15.0763883,11.2300426 C15.0288848,11.321715 14.9541664,11.3964333 14.862494,11.4439368 L8.22830903,14.8816925 C8.08502203,14.9559421 7.91470738,14.9564673 7.77096521,14.8831027 L1.03541839,11.4453471 C0.789459803,11.3198123 0.691837036,11.0186574 0.817371835,10.7726988 C0.86526649,10.6788595 0.941579057,10.6025469 1.03541839,10.5546522 L3.10178453,9.49999965 L1.03541839,8.44534707 C0.789459803,8.31981227 0.691837036,8.01865738 0.817371835,7.77269879 C0.86526649,7.67885946 0.941579057,7.60254689 1.03541839,7.55465224 L3.10178453,6.49999965 Z" id="secondary-color" fill="#FFA000"></path>
        <path d="M11.7603241,10.0748404 L8.29601941,11.9402352 C8.21120853,11.9859026 8.11908542,12.0045714 8.02951425,11.9992008 C7.94113623,12.0045103 7.85023158,11.9864113 7.76624449,11.9419934 L4.20603393,10.0591208 L2.3625831,10.9999997 L7.99653239,13.875511 L13.5456976,10.9999997 L11.7603241,10.0748404 Z M10.6854592,9.51785818 L10.6509958,9.49999965 L12.4472239,8.56921563 L13.5246217,7.98907837 L11.7603241,7.07484038 L8.29601941,8.9402352 C8.21120853,8.9859026 8.11908542,9.00457139 8.02951425,8.99920083 C7.94113623,9.00451032 7.85023158,8.98641129 7.76624449,8.94199341 L4.20603393,7.05912081 L2.40785986,7.97689085 L4.90941762,9.29987849 L5.30151223,9.49999965 L5.29454171,9.50355734 L8.02763325,10.9489952 L10.6854592,9.51785818 Z M12.8262266,9.5008929 L14.862494,10.5560625 C15.1076738,10.6831117 15.2034375,10.9848629 15.0763883,11.2300426 C15.0288848,11.321715 14.9541664,11.3964333 14.862494,11.4439368 L8.22830903,14.8816925 C8.08502203,14.9559421 7.91470738,14.9564673 7.77096521,14.8831027 L1.03541839,11.4453471 C0.789459803,11.3198123 0.691837036,11.0186574 0.817371835,10.7726988 C0.86526649,10.6788595 0.941579057,10.6025469 1.03541839,10.5546522 L3.10178453,9.49999965 L1.03541839,8.44534707 C0.789459803,8.31981227 0.691837036,8.01865738 0.817371835,7.77269879 C0.86526649,7.67885946 0.941579057,7.60254689 1.03541839,7.55465224 L3.10178453,6.49999965 L1.03541839,5.44534707 C0.789459803,5.31981227 0.691837036,5.01865738 0.817371835,4.77269879 C0.86526649,4.67885946 0.941579057,4.60254689 1.03541839,4.55465224 L7.77096521,1.11689659 C7.91470738,1.04353202 8.08502203,1.04405719 8.22830903,1.11830681 L14.862494,4.55606246 C15.1076738,4.68311168 15.2034375,4.98486288 15.0763883,5.23004262 C15.0288848,5.32171496 14.9541664,5.39643333 14.862494,5.44393685 L12.9143461,6.45344391 L12.8262266,6.5008929 L14.862494,7.55606246 C15.1076738,7.68311168 15.2034375,7.98486288 15.0763883,8.23004262 C15.0288848,8.32171496 14.9541664,8.39643333 14.862494,8.44393685 L12.9143461,9.45344391 L12.8262266,9.5008929 Z M13.5246217,4.98907837 L7.99653239,2.12448835 L2.40785986,4.97689085 L4.90941762,6.29987849 L5.30151223,6.49999965 L5.29454171,6.50355734 L8.02763325,7.94899521 L10.6854592,6.51785818 L10.6509958,6.49999965 L12.4472239,5.56921563 L13.5246217,4.98907837 Z" id="floor-topology_16" fill="#00090D"></path>
    </g>
</svg>