<?xml version="1.0" encoding="UTF-8"?>
<svg width="24px" height="24px" viewBox="0 0 24 24" version="1.1" xmlns="http://www.w3.org/2000/svg" xmlns:xlink="http://www.w3.org/1999/xlink">
    <!-- Generator: Sketch 60.1 (88133) - https://sketch.com -->
    <title>Topology / floor / floor-topology_24</title>
    <desc>Created with Sketch.</desc>
    <g id="Topology-/-floor-/-floor-topology_24" stroke="none" stroke-width="1" fill="none" fill-rule="evenodd">
        <path d="M12.0342,3.14503 L20.7087,7.93451 L17.1674191,9.95803 L20.7087,12 L17.2224191,13.90803 L20.9759742,16.0129788 L12.0342,21.0522762 L2.93041906,16.0129788 L6.77141906,13.89703 L3.13726481,11.888885 L6.76341906,9.89503 L3.38354,7.93451 L12.0342,3.14503 Z" id="secondary-color" fill="#FFA000"></path>
        <path d="M11.7885,2.138038 C11.9429,2.0525491 12.1306,2.0529611 12.2846,2.139192 L21.9611,7.55549 C22.3089,7.75021 22.3089,8.25083 21.9611,8.44555 L19.183,10.00052 L21.9611,11.55549 C22.3089,11.75021 22.3089,12.2508 21.9611,12.4455 L19.183,14.0005 L21.9611,15.5555 C22.3089,15.7502 22.3089,16.2508 21.9611,16.4455 L12.2846,21.8618 C12.1306,21.9481 11.943,21.9485 11.7885,21.863 L2.00565,16.4467 C1.654997,16.2526 1.65504,15.7485 2.00565,15.5543 L4.81214,14.0005 L2.00565,12.4467 C1.654997,12.2526 1.65504,11.74845 2.00565,11.55434 L4.81214,10.00052 L2.00565,8.4467 C1.655025,8.25258 1.655012,7.74847 2.00565,7.55434 L11.7885,2.138038 Z M12.0342,3.14503 L3.38354,7.93451 L11.9996,12.9228 L20.6035,7.94158 L12.0342,3.14503 Z M18.1054,10.54332 L12.2585,13.9284 C12.2415,13.9386 12.224,13.9478 12.206,13.956 C12.1395,13.9862 12.0692,14.0007 11.9996,14.0006 C11.93,14.0007 11.8597,13.9862 11.7932,13.956 C11.7752,13.9478 11.7577,13.9386 11.7408,13.9284 L5.89502,10.54402 L3.38354,11.9345 L11.9996,16.9228 L20.6035,11.94158 L18.1054,10.54332 Z M18.1054,14.5433 L12.2585,17.9284 C12.2415,17.9386 12.224,17.9478 12.206,17.956 C12.1395,17.9862 12.0692,18.0007 11.9996,18.0006 C11.93,18.0007 11.8597,17.9862 11.7932,17.956 C11.7752,17.9478 11.7577,17.9386 11.7408,17.9284 L5.89502,14.544 L3.2643,16.0005 L12.0342,20.856 L20.7087,16.0005 L18.1054,14.5433 Z" id="floor-topology_24" fill="#00090D"></path>
    </g>
</svg>