<?xml version="1.0" encoding="UTF-8"?>
<svg width="18px" height="18px" viewBox="0 0 18 18" version="1.1" xmlns="http://www.w3.org/2000/svg" xmlns:xlink="http://www.w3.org/1999/xlink">
    <title>Action / folder / folder_18</title>
    <g id="Action-/-folder-/-folder_18" stroke="none" stroke-width="1" fill="none" fill-rule="evenodd">
        <path d="M4.08578644,1 C4.48361117,1 4.86514204,1.15803526 5.14644661,1.43933983 L5.14644661,1.43933983 L5.56066017,1.85355339 C5.65442836,1.94732158 5.78160532,2 5.91421356,2 L5.91421356,2 L14.5,2 C15.3284271,2 16,2.67157288 16,3.5 L16,3.5 L15.999,5 L16.4892453,5 C17.2689414,5 17.909694,5.59488808 17.9823787,6.35553999 L17.9823787,6.35553999 L17.9892453,6.5 C17.9892453,6.61646628 17.9756811,6.73253629 17.9488267,6.84586431 L17.9488267,6.84586431 L16.3812594,15.4611524 C16.1675331,16.3630987 15.3620738,17 14.4351509,17 L14.4351509,17 L2,17 C0.8954305,17 0,16.1045695 0,15 L0,15 L0,3 C0,1.8954305 0.8954305,1 2,1 L2,1 Z M3.66150847,6 C3.24361999,6 2.87421824,6.25907656 2.72765815,6.64221986 L2.69334322,6.74968809 L1.00131226,13.0045929 L1,13.004 L1,15 C1,15.5128358 1.38604019,15.9355072 1.88337887,15.9932723 L2,16 L14.4351509,16 C14.8986123,16 15.301342,15.6815493 15.4082052,15.2305762 L15.4082052,15.2305762 L16.9757724,6.6152881 C16.9847239,6.5775121 16.9892453,6.53882209 16.9892453,6.5 C16.9892453,6.22385763 16.7653877,6 16.4892453,6 L16.4892453,6 L3.66150847,6 Z M4.08578644,2 L2,2 C1.44771525,2 1,2.44771525 1,3 L1,3 L1,9.179 L1.72517797,6.49937618 C1.93997662,5.6685704 2.65802935,5.07346719 3.50190037,5.00632981 L3.66150847,5 L15,5 L15,3.5 C15,3.25454011 14.8231248,3.05039163 14.5898756,3.00805567 L14.5,3 L5.91421356,3 C5.51638883,3 5.13485796,2.84196474 4.85355339,2.56066017 L4.85355339,2.56066017 L4.43933983,2.14644661 C4.34557164,2.05267842 4.21839468,2 4.08578644,2 L4.08578644,2 Z" id="folder_18" fill="#545454"></path>
    </g>
</svg>