<?xml version="1.0" encoding="UTF-8"?>
<svg width="16px" height="16px" viewBox="0 0 16 16" version="1.1" xmlns="http://www.w3.org/2000/svg" xmlns:xlink="http://www.w3.org/1999/xlink">
    <title>Action / folder / folder-filled_16</title>
    <g id="Action-/-folder-/-folder-filled_16" stroke="none" stroke-width="1" fill="none" fill-rule="evenodd">
        <path d="M14.9945738,6 C15.5468585,6 15.9945738,6.44771525 15.9945738,7 C15.9945738,7.08279032 15.9842926,7.16526022 15.9639662,7.24551653 L14.3821737,13.4910331 C14.1574171,14.3784575 13.3588329,15 12.4433889,15 L2.14909961,15 C1.32067248,15 0.649099607,14.3284271 0.649099607,13.5 C0.649099607,13.3573253 0.669455156,13.2153803 0.709550977,13.0784555 L2.5718054,6.71897035 C2.69659582,6.29281868 3.08745731,6 3.53150449,6 L14.9945738,6 Z M4.44098301,1 C4.78358555,1 5.09678348,1.19356697 5.25,1.5 C5.40321652,1.80643303 5.71641445,2 6.05901699,2 L12.5,2 C13.3284271,2 14,2.67157288 14,3.5 L14,5 L3.50138066,5 C2.61668006,5 1.83709581,5.58125016 1.5845792,6.42914787 L0,11.7498317 L0,3 C-1.3527075e-16,1.8954305 0.8954305,1 2,1 L4.44098301,1 Z" id="folder-filled_16" fill="#545454"></path>
    </g>
</svg>