<?xml version="1.0" encoding="UTF-8"?>
<svg width="16px" height="16px" viewBox="0 0 16 16" version="1.1" xmlns="http://www.w3.org/2000/svg" xmlns:xlink="http://www.w3.org/1999/xlink">
    <!-- Generator: Sketch 60.1 (88133) - https://sketch.com -->
    <title>Action / folder_16</title>
    <desc>Created with Sketch.</desc>
    <g id="Action-/-folder_16" stroke="none" stroke-width="1" fill="none" fill-rule="evenodd">
        <path d="M4.08578644,1 C4.48361117,1 4.86514204,1.15803526 5.14644661,1.43933983 L5.14644661,1.43933983 L5.56066017,1.85355339 C5.65442836,1.94732158 5.78160532,2 5.91421356,2 L5.91421356,2 L12.5,2 C13.3284271,2 14,2.67157288 14,3.5 L14,3.5 L13.999,5 L14.4892453,5 C15.2689414,5 15.909694,5.59488808 15.9823787,6.35553999 L15.9823787,6.35553999 L15.9892453,6.5 C15.9892453,6.61646628 15.9756811,6.73253629 15.9488267,6.84586431 L15.9488267,6.84586431 L14.3812594,13.4611524 C14.1675331,14.3630987 13.3620738,15 12.4351509,15 L12.4351509,15 L2,15 C0.8954305,15 0,14.1045695 0,13 L0,13 L0,3 C0,1.8954305 0.8954305,1 2,1 L2,1 Z M3.66150847,6 C3.24361999,6 2.87421824,6.25907656 2.72765815,6.64221986 L2.69334322,6.74968809 L1.00131226,13.0045929 C1.00220613,13.5544875 1.44907556,14 2,14 L2,14 L12.4351509,14 C12.8986123,14 13.301342,13.6815493 13.4082052,13.2305762 L13.4082052,13.2305762 L14.9757724,6.6152881 C14.9847239,6.5775121 14.9892453,6.53882209 14.9892453,6.5 C14.9892453,6.22385763 14.7653877,6 14.4892453,6 L14.4892453,6 L3.66150847,6 Z M4.08578644,2 L2,2 C1.44771525,2 1,2.44771525 1,3 L1,3 L1,9.179 L1.72517797,6.49937618 C1.93997662,5.6685704 2.65802935,5.07346719 3.50190037,5.00632981 L3.66150847,5 L13,5 L13,3.5 C13,3.25454011 12.8231248,3.05039163 12.5898756,3.00805567 L12.5,3 L5.91421356,3 C5.51638883,3 5.13485796,2.84196474 4.85355339,2.56066017 L4.85355339,2.56066017 L4.43933983,2.14644661 C4.34557164,2.05267842 4.21839468,2 4.08578644,2 L4.08578644,2 Z" id="folder_16" fill="#00090D"></path>
    </g>
</svg>