<?xml version="1.0" encoding="UTF-8"?>
<svg width="24px" height="24px" viewBox="0 0 24 24" version="1.1" xmlns="http://www.w3.org/2000/svg" xmlns:xlink="http://www.w3.org/1999/xlink">
    <!-- Generator: Sketch 60.1 (88133) - https://sketch.com -->
    <title>Action/full-screen/full-screen_24</title>
    <desc>Created with Sketch.</desc>
    <g id="Action/full-screen/full-screen_24" stroke="none" stroke-width="1" fill="none" fill-rule="evenodd">
        <path d="M1,10.5 C1,10.7761424 0.776142375,11 0.5,11 C0.223857625,11 4.26325641e-14,10.7761424 4.26325641e-14,10.5 L4.26325641e-14,5.5 C4.26325641e-14,4.11928813 1.11928813,3 2.5,3 L7.49976563,3 C7.77590801,3 7.99976563,3.22385763 7.99976563,3.5 C7.99976563,3.77614237 7.77590801,4 7.49976563,4 L2.5,4 C1.67157288,4 1,4.67157288 1,5.5 L1,10.5 Z M22.9997656,10.5 L22.9997656,5.5 C22.9997656,4.67157288 22.3281928,4 21.4997656,4 L16.5,4 C16.2238576,4 16,3.77614237 16,3.5 C16,3.22385763 16.2238576,3 16.5,3 L21.4997656,3 C22.8804775,3 23.9997656,4.11928813 23.9997656,5.5 L23.9997656,10.5 C23.9997656,10.7761424 23.775908,11 23.4997656,11 C23.2236233,11 22.9997656,10.7761424 22.9997656,10.5 Z M1,13.5 L1,18.5 C1,19.3284271 1.67157288,20 2.5,20 L7.49976563,20 C7.77590801,20 7.99976563,20.2238576 7.99976563,20.5 C7.99976563,20.7761424 7.77590801,21 7.49976563,21 L2.5,21 C1.11928813,21 4.26325641e-14,19.8807119 4.26325641e-14,18.5 L4.26325641e-14,13.5 C4.26325641e-14,13.2238576 0.223857625,13 0.5,13 C0.776142375,13 1,13.2238576 1,13.5 Z M22.9997656,13.5 C22.9997656,13.2238576 23.2236233,13 23.4997656,13 C23.775908,13 23.9997656,13.2238576 23.9997656,13.5 L23.9997656,18.5 C23.9997656,19.8807119 22.8804775,21 21.4997656,21 L16.5,21 C16.2238576,21 16,20.7761424 16,20.5 C16,20.2238576 16.2238576,20 16.5,20 L21.4997656,20 C22.3281928,20 22.9997656,19.3284271 22.9997656,18.5 L22.9997656,13.5 Z" id="full-screen_24" fill="#00090D"></path>
    </g>
</svg>