<svg width="24" height="24" viewBox="0 0 24 24" fill="none" xmlns="http://www.w3.org/2000/svg">
<g id="generic-network-device-manager_24">
<path id="generic-network-device-manager_24_2" fill-rule="evenodd" clip-rule="evenodd" d="M4.21562 3.6726L5.87302 11.4072C5.94712 11.753 6.25272 12 6.60637 12H17.3938C17.7474 12 18.053 11.753 18.1271 11.4072L19.7845 3.6726C19.9349 2.97065 19.1081 2.47882 18.5631 2.94601L15.7294 5.37487C15.3589 5.69241 14.7887 5.57726 14.5705 5.14084L12.6709 1.34165C12.3945 0.788866 11.6056 0.788867 11.3292 1.34165L9.42965 5.14084C9.21144 5.57726 8.6412 5.69241 8.27073 5.37487L5.43706 2.94601C4.892 2.47882 4.0652 2.97065 4.21562 3.6726ZM1 21.5V16.5C1 16.2239 1.22386 16 1.5 16H2V22H1.5C1.22386 22 1 21.7761 1 21.5ZM22.5 22H22V16H22.5C22.7761 16 23 16.2239 23 16.5V21.5C23 21.7761 22.7761 22 22.5 22ZM2.5 16H21.5V22H2.5V16ZM24 22V16C24 15.4477 23.5523 15 23 15H1C0.447715 15 0 15.4477 0 16V22C0 22.5523 0.447715 23 1 23H23C23.5523 23 24 22.5523 24 22ZM5 18V17H6V18H5ZM5 20V19H6V20H5ZM7 18V17H8V18H7ZM7 20V19H8V20H7ZM9 18V17H10V18H9ZM9 20V19H10V20H9ZM11 18V17H12V18H11ZM11 20V19H12V20H11Z" fill="#545454"/>
</g>
</svg>
