<?xml version="1.0" encoding="UTF-8"?>
<svg width="16px" height="16px" viewBox="0 0 16 16" version="1.1" xmlns="http://www.w3.org/2000/svg" xmlns:xlink="http://www.w3.org/1999/xlink">
    <!-- Generator: Sketch 60.1 (88133) - https://sketch.com -->
    <title>Topology/Endpoints/generic-device/generic-network-device-topology_16</title>
    <desc>Created with Sketch.</desc>
    <g id="Topology/Endpoints/generic-device/generic-network-device-topology_16" stroke="none" stroke-width="1" fill="none" fill-rule="evenodd">
        <path d="M15,5 C15.5522847,5 16,5.44771525 16,6 L16,10 C16,10.5522847 15.5522847,11 15,11 L1,11 C0.44771525,11 0,10.5522847 0,10 L0,6 C0,5.44771525 0.44771525,5 1,5 L15,5 Z" id="secondary-color" fill="#FFA000"></path>
        <path d="M13.75,6 L2.25,6 L2.25,10 L13.75,10 L13.75,6 Z M14.25,6 L14.25,10 L15,10 L15,6 L14.25,6 Z M1.75,6 L1,6 L1,10 L1.75,10 L1.75,6 Z M1,5 L15,5 C15.5522847,5 16,5.44771525 16,6 L16,10 C16,10.5522847 15.5522847,11 15,11 L1,11 C0.44771525,11 0,10.5522847 0,10 L0,6 C0,5.44771525 0.44771525,5 1,5 Z M3,7 L4,7 L4,8 L3,8 L3,7 Z M5,7 L6,7 L6,8 L5,8 L5,7 Z M7,7 L8,7 L8,8 L7,8 L7,7 Z M9,7 L10,7 L10,8 L9,8 L9,7 Z" id="generic-network-device-topology_16" fill="#00090D"></path>
    </g>
</svg>