<?xml version="1.0" encoding="UTF-8"?>
<svg width="24px" height="24px" viewBox="0 0 24 24" version="1.1" xmlns="http://www.w3.org/2000/svg" xmlns:xlink="http://www.w3.org/1999/xlink">
    <!-- Generator: Sketch 60.1 (88133) - https://sketch.com -->
    <title>Networking/Endpoints/generic-device/generic-network-device_24</title>
    <desc>Created with Sketch.</desc>
    <g id="Networking/Endpoints/generic-device/generic-network-device_24" stroke="none" stroke-width="1" fill="none" fill-rule="evenodd">
        <path d="M1,9.5 L1,14.5 C1,14.7761424 1.22385763,15 1.5,15 L22.5,15 C22.7761424,15 23,14.7761424 23,14.5 L23,9.5 C23,9.22385763 22.7761424,9 22.5,9 L1.5,9 C1.22385763,9 1,9.22385763 1,9.5 Z M24,9 L24,15 C24,15.5522847 23.5522847,16 23,16 L1,16 C0.44771525,16 0,15.5522847 0,15 L0,9 C0,8.44771525 0.44771525,8 1,8 L23,8 C23.5522847,8 24,8.44771525 24,9 Z M5,10 L5,11 L6,11 L6,10 L5,10 Z M5,12 L5,13 L6,13 L6,12 L5,12 Z M7,10 L7,11 L8,11 L8,10 L7,10 Z M7,12 L7,13 L8,13 L8,12 L7,12 Z M9,10 L9,11 L10,11 L10,10 L9,10 Z M9,12 L9,13 L10,13 L10,12 L9,12 Z M11,10 L11,11 L12,11 L12,10 L11,10 Z M11,12 L11,13 L12,13 L12,12 L11,12 Z M2,9 L2,15 L2.5,15 L2.5,9 L2,9 Z M21.5,9 L21.5,15 L22,15 L22,9 L21.5,9 Z" id="generic-network-device_24" fill="#00090D"></path>
    </g>
</svg>