<?xml version="1.0" encoding="UTF-8"?>
<svg width="16px" height="16px" viewBox="0 0 16 16" version="1.1" xmlns="http://www.w3.org/2000/svg" xmlns:xlink="http://www.w3.org/1999/xlink">
    <!-- Generator: Sketch 60.1 (88133) - https://sketch.com -->
    <title>Networking/Endpoints/generic-device/generic-network-device-filled_16</title>
    <desc>Created with Sketch.</desc>
    <g id="Networking/Endpoints/generic-device/generic-network-device-filled_16" stroke="none" stroke-width="1" fill="none" fill-rule="evenodd">
        <path d="M15,5 C15.5522847,5 16,5.44771525 16,6 L16,10 C16,10.5522847 15.5522847,11 15,11 L1,11 C0.44771525,11 0,10.5522847 0,10 L0,6 C0,5.44771525 0.44771525,5 1,5 L15,5 Z M15,6 L14.25,6 L14.25,10 L15,10 L15,6 Z M1.75,6 L1,6 L1,10 L1.75,10 L1.75,6 Z M4,7 L3,7 L3,8 L4,8 L4,7 Z M6,7 L5,7 L5,8 L6,8 L6,7 Z M8,7 L7,7 L7,8 L8,8 L8,7 Z M10,7 L9,7 L9,8 L10,8 L10,7 Z" id="generic-network-device-filled_16" fill="#00090D"></path>
    </g>
</svg>