<svg width="16" height="16" viewBox="0 0 16 16" fill="none" xmlns="http://www.w3.org/2000/svg">
<g id="generic-network-device-manager_16">
<path id="generic-network-device-manager_16_2" fill-rule="evenodd" clip-rule="evenodd" d="M2.81039 2.4484L3.91533 7.60477C3.96473 7.83531 4.16846 8.00001 4.40423 8.00001H11.5958C11.8316 8.00001 12.0353 7.83531 12.0847 7.60477L13.1897 2.4484C13.2899 1.98044 12.7387 1.65255 12.3754 1.96401L10.4862 3.58325C10.2393 3.79494 9.8591 3.71817 9.71363 3.42723L8.44724 0.894435C8.26297 0.525911 7.73707 0.525911 7.55281 0.894435L6.28641 3.42723C6.14094 3.71817 5.76078 3.79494 5.5138 3.58325L3.62469 1.96401C3.26132 1.65255 2.71011 1.98043 2.81039 2.4484ZM2.25 11H13.75V15H2.25V11ZM15 15H14.25V11H15V15ZM1 11H1.75V15H1V11ZM15 10H1C0.447715 10 0 10.4477 0 11V15C0 15.5523 0.447715 16 1 16H15C15.5523 16 16 15.5523 16 15V11C16 10.4477 15.5523 10 15 10ZM4 12H3V13H4V12ZM6 12H5V13H6V12ZM8 12H7V13H8V12ZM10 12H9V13H10V12Z" fill="#545454"/>
</g>
</svg>
