<?xml version="1.0" encoding="UTF-8"?>
<svg width="16px" height="16px" viewBox="0 0 16 16" version="1.1" xmlns="http://www.w3.org/2000/svg" xmlns:xlink="http://www.w3.org/1999/xlink">
    <!-- Generator: Sketch 60.1 (88133) - https://sketch.com -->
    <title>Navigation / globe / globe_16</title>
    <desc>Created with Sketch.</desc>
    <g id="Navigation-/-globe-/-globe_16" stroke="none" stroke-width="1" fill="none" fill-rule="evenodd">
        <path d="M11.1035,14.2646 C12.1805,12.8966 12.8935,10.8346 12.9845,8.4996 L14.9745,8.4996 C14.7945,11.0306 13.2665,13.1886 11.1035,14.2646 L11.1035,14.2646 Z M1.0255,8.4996 L3.0155,8.4996 C3.1065,10.8346 3.8195,12.8966 4.8965,14.2646 C2.7335,13.1886 1.2055,11.0306 1.0255,8.4996 Z M4.8965,1.7356 C3.8195,3.1036 3.1065,5.1646 3.0155,7.4996 L1.0255,7.4996 C1.2055,4.9696 2.7335,2.8116 4.8965,1.7356 Z M8.4995,7.4996 L8.4995,1.0636 C10.3485,1.4896 11.8445,4.2206 11.9855,7.4996 L8.4995,7.4996 Z M8.4995,14.9366 L8.4995,8.4996 L11.9855,8.4996 C11.8445,11.7796 10.3485,14.5106 8.4995,14.9366 Z M7.4995,8.4996 L7.4995,14.9366 C5.6515,14.5106 4.1555,11.7796 4.0145,8.4996 L7.4995,8.4996 Z M7.4995,1.0636 L7.4995,7.4996 L4.0145,7.4996 C4.1555,4.2206 5.6515,1.4896 7.4995,1.0636 Z M14.9745,7.4996 L12.9845,7.4996 C12.8935,5.1646 12.1805,3.1036 11.1035,1.7356 C13.2665,2.8116 14.7945,4.9696 14.9745,7.4996 Z M7.9995,-0.0004 C3.5825,-0.0004 -0.0005,3.5816 -0.0005,7.9996 C-0.0005,12.4176 3.5825,15.9996 7.9995,15.9996 C12.4175,15.9996 15.9995,12.4176 15.9995,7.9996 C15.9995,3.5816 12.4175,-0.0004 7.9995,-0.0004 Z" id="globe_16" fill="#00090D"></path>
    </g>
</svg>