<?xml version="1.0" encoding="UTF-8"?>
<svg width="18px" height="18px" viewBox="0 0 18 18" version="1.1" xmlns="http://www.w3.org/2000/svg" xmlns:xlink="http://www.w3.org/1999/xlink">
    <!-- Generator: Sketch 60.1 (88133) - https://sketch.com -->
    <title>Navigation / globe / globe_18</title>
    <desc>Created with Sketch.</desc>
    <g id="Navigation-/-globe-/-globe_18" stroke="none" stroke-width="1" fill="none" fill-rule="evenodd">
        <path d="M9.5,0 L9.50086364,0.013701522 C14.0729857,0.26449562 17.7360561,3.92788076 17.9863532,8.50013517 L18,8.5 L18,9.5 L17.9862985,9.50086364 C17.7355226,14.0726527 14.0726527,17.7355226 9.50086364,17.9862985 L9.5,18 L8.5,18 L8.50013517,17.9863532 C3.92788076,17.7360561 0.26449562,14.0729857 0.013701522,9.50086364 L0,9.5 L0,8.5 L0.0136467898,8.50013517 C0.263962109,3.92754782 3.92754782,0.263962109 8.50013517,0.0136467898 L8.5,0 L9.5,0 Z M8.5,9.5 L5.00813119,9.50122436 C5.13464937,13.3895928 6.71962317,16.4414303 8.50068493,16.9312148 L8.5,9.5 Z M12.9918688,9.50122436 L9.5,9.5 L9.50031357,16.93094 C11.2809692,16.4402896 12.8653743,13.3888662 12.9918688,9.50122436 Z M4.00761033,9.50081037 L1.01540073,9.50048204 C1.21491757,12.7327354 3.33373137,15.4456052 6.24614539,16.5133947 C4.96535394,14.9892326 4.0969195,12.4318091 4.00761033,9.50081037 Z M16.9845993,9.50048204 L13.9923897,9.50081037 C13.9030805,12.4318091 13.0346461,14.9892326 11.7535282,16.5134855 C14.6662686,15.4456052 16.7850824,12.7327354 16.9845993,9.50048204 Z M6.24647182,1.48651454 L6.15942347,1.51897513 C3.29144554,2.60856093 1.21249655,5.29999769 1.01533875,8.50052313 L4.00757987,8.50019034 C4.09672184,5.56877296 4.96520814,3.01094087 6.24647182,1.48651454 Z M5.00809876,8.49977326 L8.5,8.5 L8.50068493,1.06878515 C6.71947085,1.55861161 5.13437828,4.6109292 5.00809876,8.49977326 Z M9.50031357,1.06906001 L9.5,8.5 L12.9919012,8.49977326 C12.8656453,4.61165587 11.2811215,1.55975236 9.50031357,1.06906001 Z M11.7538546,1.48660531 L11.8273801,1.57609037 C13.0680839,3.1099889 13.9050017,5.62545021 13.9924201,8.50019034 L16.9846613,8.50052313 C16.7855217,5.26782708 14.6665705,2.55450552 11.7538546,1.48660531 Z" id="globe_18" fill="#00090D"></path>
    </g>
</svg>