<?xml version="1.0" encoding="UTF-8"?>
<svg width="16px" height="16px" viewBox="0 0 16 16" version="1.1" xmlns="http://www.w3.org/2000/svg" xmlns:xlink="http://www.w3.org/1999/xlink">
    <!-- Generator: Sketch 60.1 (88133) - https://sketch.com -->
    <title>Action/grab-handle/grab-handle_16</title>
    <desc>Created with Sketch.</desc>
    <g id="Action/grab-handle/grab-handle_16" stroke="none" stroke-width="1" fill="none" fill-rule="evenodd">
        <path d="M5.5,0 C6.32842712,0 7,0.671572875 7,1.5 C7,2.32842712 6.32842712,3 5.5,3 C4.67157288,3 4,2.32842712 4,1.5 C4,0.671572875 4.67157288,0 5.5,0 Z M10.5,0 C11.3284271,0 12,0.671572875 12,1.5 C12,2.32842712 11.3284271,3 10.5,3 C9.67157288,3 9,2.32842712 9,1.5 C9,0.671572875 9.67157288,0 10.5,0 Z M5.5,6.5 C6.32842712,6.5 7,7.17157288 7,8 C7,8.82842712 6.32842712,9.5 5.5,9.5 C4.67157288,9.5 4,8.82842712 4,8 C4,7.17157288 4.67157288,6.5 5.5,6.5 Z M10.5,6.5 C11.3284271,6.5 12,7.17157288 12,8 C12,8.82842712 11.3284271,9.5 10.5,9.5 C9.67157288,9.5 9,8.82842712 9,8 C9,7.17157288 9.67157288,6.5 10.5,6.5 Z M5.5,13 C6.32842712,13 7,13.6715729 7,14.5 C7,15.3284271 6.32842712,16 5.5,16 C4.67157288,16 4,15.3284271 4,14.5 C4,13.6715729 4.67157288,13 5.5,13 Z M10.5,13 C11.3284271,13 12,13.6715729 12,14.5 C12,15.3284271 11.3284271,16 10.5,16 C9.67157288,16 9,15.3284271 9,14.5 C9,13.6715729 9.67157288,13 10.5,13 Z" id="grab-handle_16" fill="#00090D"></path>
    </g>
</svg>