<?xml version="1.0" encoding="UTF-8"?>
<svg width="24px" height="24px" viewBox="0 0 24 24" version="1.1" xmlns="http://www.w3.org/2000/svg" xmlns:xlink="http://www.w3.org/1999/xlink">
    <!-- Generator: Sketch 60.1 (88133) - https://sketch.com -->
    <title>Action/grab-handle/grab-handle_24</title>
    <desc>Created with Sketch.</desc>
    <g id="Action/grab-handle/grab-handle_24" stroke="none" stroke-width="1" fill="none" fill-rule="evenodd">
        <path d="M9.5,3 C8.67157288,3 8,2.32842712 8,1.5 C8,0.671572875 8.67157288,0 9.5,0 C10.3284271,0 11,0.671572875 11,1.5 C11,2.32842712 10.3284271,3 9.5,3 Z M9.5,10 C8.67157288,10 8,9.32842712 8,8.5 C8,7.67157288 8.67157288,7 9.5,7 C10.3284271,7 11,7.67157288 11,8.5 C11,9.32842712 10.3284271,10 9.5,10 Z M9.5,17 C8.67157288,17 8,16.3284271 8,15.5 C8,14.6715729 8.67157288,14 9.5,14 C10.3284271,14 11,14.6715729 11,15.5 C11,16.3284271 10.3284271,17 9.5,17 Z M9.5,24 C8.67157288,24 8,23.3284271 8,22.5 C8,21.6715729 8.67157288,21 9.5,21 C10.3284271,21 11,21.6715729 11,22.5 C11,23.3284271 10.3284271,24 9.5,24 Z M14.5,3 C13.6715729,3 13,2.32842712 13,1.5 C13,0.671572875 13.6715729,0 14.5,0 C15.3284271,0 16,0.671572875 16,1.5 C16,2.32842712 15.3284271,3 14.5,3 Z M14.5,10 C13.6715729,10 13,9.32842712 13,8.5 C13,7.67157288 13.6715729,7 14.5,7 C15.3284271,7 16,7.67157288 16,8.5 C16,9.32842712 15.3284271,10 14.5,10 Z M14.5,17 C13.6715729,17 13,16.3284271 13,15.5 C13,14.6715729 13.6715729,14 14.5,14 C15.3284271,14 16,14.6715729 16,15.5 C16,16.3284271 15.3284271,17 14.5,17 Z M14.5,24 C13.6715729,24 13,23.3284271 13,22.5 C13,21.6715729 13.6715729,21 14.5,21 C15.3284271,21 16,21.6715729 16,22.5 C16,23.3284271 15.3284271,24 14.5,24 Z" id="grab-handle_24" fill="#00090D"></path>
    </g>
</svg>