<?xml version="1.0" encoding="UTF-8"?>
<svg width="24px" height="24px" viewBox="0 0 24 24" version="1.1" xmlns="http://www.w3.org/2000/svg" xmlns:xlink="http://www.w3.org/1999/xlink">
    <!-- Generator: Sketch 60.1 (88133) - https://sketch.com -->
    <title>Action/feedback/hate_24</title>
    <desc>Created with Sketch.</desc>
    <g id="Action/feedback/hate_24" stroke="none" stroke-width="1" fill="none" fill-rule="evenodd">
        <path d="M12,1 C5.935,1 1,5.935 1,12 C1,18.065 5.935,23 12,23 C18.065,23 23,18.065 23,12 C23,5.935 18.065,1 12,1 L12,1 Z M12,24 C5.383,24 0,18.617 0,12 C0,5.383 5.383,0 12,0 C18.617,0 24,5.383 24,12 C24,18.617 18.617,24 12,24 Z M15.0202584,9.79888781 L14.7236068,9.9472136 C14.4766175,10.0707082 14.176281,9.97059605 14.0527864,9.7236068 C13.9292918,9.47661755 14.029404,9.17628103 14.2763932,9.0527864 L18.2763932,7.0527864 C18.5233825,6.92929178 18.823719,7.02940395 18.9472136,7.2763932 C19.0707082,7.52338245 18.970596,7.82371897 18.7236068,7.9472136 L16.4269209,9.09555655 C16.7655681,9.2558049 17,9.6006916 17,10 C17,10.552 16.552,11 16,11 C15.448,11 15,10.552 15,10 C15,9.93112049 15.0069756,9.8638603 15.0202584,9.79888781 Z M7.57307911,9.09555655 L5.2763932,7.9472136 C5.02940395,7.82371897 4.92929178,7.52338245 5.0527864,7.2763932 C5.17628103,7.02940395 5.47661755,6.92929178 5.7236068,7.0527864 L9.7236068,9.0527864 C9.97059605,9.17628103 10.0707082,9.47661755 9.9472136,9.7236068 C9.82371897,9.97059605 9.52338245,10.0707082 9.2763932,9.9472136 L8.97974164,9.79888781 C8.99302443,9.8638603 9,9.93112049 9,10 C9,10.552 8.552,11 8,11 C7.448,11 7,10.552 7,10 C7,9.6006916 7.23443192,9.2558049 7.57307911,9.09555655 Z M11.9709775,14 C14.3639775,14 16.5659775,15.207 17.8629775,17.229 C18.0119775,17.461 17.9439775,17.771 17.7109775,17.92 C17.4819775,18.069 17.1709775,18.003 17.0209775,17.769 C15.9089775,16.035 14.0219775,15 11.9709775,15 C9.91997746,15 8.03297746,16.035 6.92097746,17.769 C6.77197746,18.002 6.45997746,18.068 6.23097746,17.92 C5.99797746,17.771 5.92997746,17.461 6.07897746,17.229 C7.37597746,15.207 9.57797746,14 11.9709775,14 Z" id="hate_24" fill="#00090D"></path>
    </g>
</svg>