<?xml version="1.0" encoding="UTF-8"?>
<svg width="24px" height="24px" viewBox="0 0 24 24" version="1.1" xmlns="http://www.w3.org/2000/svg" xmlns:xlink="http://www.w3.org/1999/xlink">
    <!-- Generator: Sketch 60.1 (88133) - https://sketch.com -->
    <title>Action/feedback/hate-filled_24</title>
    <desc>Created with Sketch.</desc>
    <g id="Action/feedback/hate-filled_24" stroke="none" stroke-width="1" fill="none" fill-rule="evenodd">
        <path d="M12,24 C5.383,24 0,18.617 0,12 C0,5.383 5.383,0 12,0 C18.617,0 24,5.383 24,12 C24,18.617 18.617,24 12,24 Z M11.9709775,14 C9.57797746,14 7.37597746,15.207 6.07897746,17.229 C5.92997746,17.461 5.99797746,17.771 6.23097746,17.92 C6.45997746,18.068 6.77197746,18.002 6.92097746,17.769 C8.03297746,16.035 9.91997746,15 11.9709775,15 C14.0219775,15 15.9089775,16.035 17.0209775,17.769 C17.1709775,18.003 17.4819775,18.069 17.7109775,17.92 C17.9439775,17.771 18.0119775,17.461 17.8629775,17.229 C16.5659775,15.207 14.3639775,14 11.9709775,14 Z M15.0202584,9.79888781 C15.0069756,9.8638603 15,9.93112049 15,10 C15,10.552 15.448,11 16,11 C16.552,11 17,10.552 17,10 C17,9.6006916 16.7655681,9.2558049 16.4269209,9.09555655 L18.7236068,7.9472136 C18.970596,7.82371897 19.0707082,7.52338245 18.9472136,7.2763932 C18.823719,7.02940395 18.5233825,6.92929178 18.2763932,7.0527864 L14.2763932,9.0527864 C14.029404,9.17628103 13.9292918,9.47661755 14.0527864,9.7236068 C14.176281,9.97059605 14.4766175,10.0707082 14.7236068,9.9472136 L15.0202584,9.79888781 Z M7.57307911,9.09555655 C7.23443192,9.2558049 7,9.6006916 7,10 C7,10.552 7.448,11 8,11 C8.552,11 9,10.552 9,10 C9,9.93112049 8.99302443,9.8638603 8.97974164,9.79888781 L9.2763932,9.9472136 C9.52338245,10.0707082 9.82371897,9.97059605 9.9472136,9.7236068 C10.0707082,9.47661755 9.97059605,9.17628103 9.7236068,9.0527864 L5.7236068,7.0527864 C5.47661755,6.92929178 5.17628103,7.02940395 5.0527864,7.2763932 C4.92929178,7.52338245 5.02940395,7.82371897 5.2763932,7.9472136 L7.57307911,9.09555655 Z" id="hate-filled_24" fill="#00090D"></path>
    </g>
</svg>