<?xml version="1.0" encoding="UTF-8"?>
<svg width="16px" height="16px" viewBox="0 0 16 16" version="1.1" xmlns="http://www.w3.org/2000/svg" xmlns:xlink="http://www.w3.org/1999/xlink">
    <!-- Generator: Sketch 60.1 (88133) - https://sketch.com -->
    <title>Tools / dashboard / health-dashboard_16</title>
    <desc>Created with Sketch.</desc>
    <g id="Tools-/-dashboard-/-health-dashboard_16" stroke="none" stroke-width="1" fill="none" fill-rule="evenodd">
        <path d="M15,7.97926331 L15.0053712,12.9792633 C15.0053712,14.0838633 14.1099712,14.9792633 13.0053712,14.9792633 L3.00537121,15 C1.90080121,15 1.00537121,14.1046 1.00537121,13 L1.00537121,3 C1.00537121,1.89543 1.90080121,1 3.00537121,1 L4,1 L4.5,1 C4.77614237,1 5,1.22385763 5,1.5 C5,1.77614237 4.77614237,2 4.5,2 L4,2 L3.00537121,2 C2.45309121,2 2.00537121,2.44772 2.00537121,3 L2.00537121,13 C2.00537121,13.5523 2.45309121,14 3.00537121,14 L13.0053712,13.9792633 C13.5576712,13.9792633 14.0053712,13.5315633 14.0053712,12.9792633 L14.0005856,8.5244143 C14.0001967,8.51632512 14,8.50818553 14,8.5 L14,7.5 C14,7.22385763 14.2238576,7 14.5,7 C14.7761424,7 15,7.22385763 15,7.5 L15,7.97926331 Z M4.5,8.50375366 C4.5,8.22761129 4.72385763,8.00375366 5,8.00375366 C5.27614237,8.00375366 5.5,8.22761129 5.5,8.50375366 L5.5,12.5037537 C5.5,12.779896 5.27614237,13.0037537 5,13.0037537 C4.72385763,13.0037537 4.5,12.779896 4.5,12.5037537 L4.5,8.50375366 Z M7.5,6.50375366 C7.5,6.22761129 7.72385763,6.00375366 8,6.00375366 C8.27614237,6.00375366 8.5,6.22761129 8.5,6.50375366 L8.5,12.5037537 C8.5,12.779896 8.27614237,13.0037537 8,13.0037537 C7.72385763,13.0037537 7.5,12.779896 7.5,12.5037537 L7.5,6.50375366 Z M10.5,9.50375366 C10.5,9.22761129 10.7238576,9.00375366 11,9.00375366 C11.2761424,9.00375366 11.5,9.22761129 11.5,9.50375366 L11.5,12.5037537 C11.5,12.779896 11.2761424,13.0037537 11,13.0037537 C10.7238576,13.0037537 10.5,12.779896 10.5,12.5037537 L10.5,9.50375366 Z M12.0534525,6.72868763 L9.49245303,1.64449331 L8.44805886,3.75324822 C8.36370281,3.92357302 8.19006967,4.03134 8,4.03134 L6.5,4.03134 C6.22385763,4.03134 6,3.80748237 6,3.53134 C6,3.25519762 6.22385763,3.03134 6.5,3.03134 L7.68967049,3.03134 L9.04060965,0.303634617 C9.2235564,-0.0657564227 9.74977481,-0.0675362016 9.93521606,0.300608874 L12.5019713,5.39622992 L13.5763673,3.28206378 C13.661635,3.11427642 13.8339008,3.00858598 14.0221113,3.00858598 L15.4872147,3.00858598 C15.7633571,3.00858598 15.9872147,3.2324436 15.9872147,3.50858598 C15.9872147,3.78472835 15.7633571,4.00858598 15.4872147,4.00858598 L14.3288769,4.00858598 L12.945744,6.73027585 C12.7600692,7.09564136 12.2378254,7.0947118 12.0534525,6.72868763 Z" id="health-dasboard_16" fill="#00090D"></path>
    </g>
</svg>