<?xml version="1.0" encoding="UTF-8"?>
<svg width="24px" height="24px" viewBox="0 0 24 24" version="1.1" xmlns="http://www.w3.org/2000/svg" xmlns:xlink="http://www.w3.org/1999/xlink">
    <!-- Generator: Sketch 60.1 (88133) - https://sketch.com -->
    <title>Tools / dashboard / health-dashboard_24</title>
    <desc>Created with Sketch.</desc>
    <g id="Tools-/-dashboard-/-health-dashboard_24" stroke="none" stroke-width="1" fill="none" fill-rule="evenodd">
        <path d="M21.0029633,11.5127225 C21.0029633,11.2365801 21.2268209,11.0127225 21.5029633,11.0127225 C21.7791057,11.0127225 22.0029633,11.2365801 22.0029633,11.5127225 L22.0029633,19.5158231 C22.0029633,20.8962294 20.8839229,22.0152698 19.5035166,22.0152698 L4.50240998,22.0152698 C3.12200369,22.0152698 2.00296329,20.8962294 2.00296329,19.5158231 L2.00296329,4.49824092 C2.00296329,3.11783462 3.12200369,1.99879422 4.50201054,1.99879438 L8.53515092,1.99637026 C8.81129321,1.99615063 9.0353296,2.21982934 9.03555021,2.49597163 C9.03577081,2.77211392 8.8120921,2.99615031 8.53594981,2.99637026 L4.50240998,2.99879422 C3.67428844,2.99879422 3.00296329,3.67011937 3.00296329,4.49824092 L3.00296329,19.5158231 C3.00296329,20.3439447 3.67428844,21.0152698 4.50240998,21.0152698 L19.5035166,21.0152698 C20.3316381,21.0152698 21.0029633,20.3439447 21.0029633,19.5158231 L21.0029633,11.5127225 Z M7.5,12 C7.77614237,12 8,12.2238576 8,12.5 L8,18.5 C8,18.7761424 7.77614237,19 7.5,19 C7.22385763,19 7,18.7761424 7,18.5 L7,12.5 C7,12.2238576 7.22385763,12 7.5,12 Z M13.5,12 C13.7761424,12 14,12.2238576 14,12.5 L14,18.5 C14,18.7761424 13.7761424,19 13.5,19 C13.2238576,19 13,18.7761424 13,18.5 L13,12.5 C13,12.2238576 13.2238576,12 13.5,12 Z M10.5,9 C10.7761424,9 11,9.22385763 11,9.5 L11,18.5 C11,18.7761424 10.7761424,19 10.5,19 C10.2238576,19 10,18.7761424 10,18.5 L10,9.5 C10,9.22385763 10.2238576,9 10.5,9 Z M16.5,13 C16.7761424,13 17,13.2238576 17,13.5 L17,18.5 C17,18.7761424 16.7761424,19 16.5,19 C16.2238576,19 16,18.7761424 16,18.5 L16,13.5 C16,13.2238576 16.2238576,13 16.5,13 Z M14.9778919,2.65207848 L13.4544436,5.73011481 C13.3701111,5.90050361 13.1964436,6.00832324 13.006327,6.00832324 L10.5252335,6.00832324 C10.2490911,6.00832324 10.0252335,5.78446561 10.0252335,5.50832324 C10.0252335,5.23218086 10.2490911,5.00832324 10.5252335,5.00832324 L12.6959073,5.00832324 L14.5518834,1.2584344 C14.7393665,0.879636052 15.2831014,0.889894121 15.4561634,1.27549449 L18.6539674,8.40053982 L20.3905097,5.26601988 C20.4786091,5.10699731 20.64608,5.00832324 20.8278758,5.00832324 L22.4580844,5.00832324 C22.7342267,5.00832324 22.9580844,5.23218086 22.9580844,5.50832324 C22.9580844,5.78446561 22.7342267,6.00832324 22.4580844,6.00832324 L21.1224764,6.00832324 L19.0443856,9.75935015 C18.8447707,10.1196622 18.3195186,10.0975759 18.1508562,9.72177827 L14.9778919,2.65207848 Z" id="health-dasboard_24" fill="#00090D"></path>
    </g>
</svg>