<?xml version="1.0" encoding="UTF-8"?>
<svg width="16px" height="16px" viewBox="0 0 16 16" version="1.1" xmlns="http://www.w3.org/2000/svg" xmlns:xlink="http://www.w3.org/1999/xlink">
    <!-- Generator: Sketch 60.1 (88133) - https://sketch.com -->
    <title>Navigation / heatmap-view_16</title>
    <desc>Created with Sketch.</desc>
    <g id="Navigation-/-heatmap-view_16" stroke="none" stroke-width="1" fill="none" fill-rule="evenodd">
        <path d="M2,1 L4,1 C4.55228475,1 5,1.44771525 5,2 L5,3 C5,3.55228475 4.55228475,4 4,4 L2,4 C1.44771525,4 1,3.55228475 1,3 L1,2 C1,1.44771525 1.44771525,1 2,1 Z M12,1 L14,1 C14.5522847,1 15,1.44771525 15,2 L15,3 C15,3.55228475 14.5522847,4 14,4 L12,4 C11.4477153,4 11,3.55228475 11,3 L11,2 C11,1.44771525 11.4477153,1 12,1 Z M2,9 L4,9 C4.55228475,9 5,9.44771525 5,10 L5,11 C5,11.5522847 4.55228475,12 4,12 L2,12 C1.44771525,12 1,11.5522847 1,11 L1,10 C1,9.44771525 1.44771525,9 2,9 Z M12,9 L14,9 C14.5522847,9 15,9.44771525 15,10 L15,11 C15,11.5522847 14.5522847,12 14,12 L12,12 C11.4477153,12 11,11.5522847 11,11 L11,10 C11,9.44771525 11.4477153,9 12,9 Z M2,5 L4,5 C4.55228475,5 5,5.44771525 5,6 L5,7 C5,7.55228475 4.55228475,8 4,8 L2,8 C1.44771525,8 1,7.55228475 1,7 L1,6 C1,5.44771525 1.44771525,5 2,5 Z M2,6 L2,7 L4,7 L4,6 L2,6 Z M7,9 L9,9 C9.55228475,9 10,9.44771525 10,10 L10,11 C10,11.5522847 9.55228475,12 9,12 L7,12 C6.44771525,12 6,11.5522847 6,11 L6,10 C6,9.44771525 6.44771525,9 7,9 Z M7,10 L7,11 L9,11 L9,10 L7,10 Z M7,5 L9,5 C9.55228475,5 10,5.44771525 10,6 L10,7 C10,7.55228475 9.55228475,8 9,8 L7,8 C6.44771525,8 6,7.55228475 6,7 L6,6 C6,5.44771525 6.44771525,5 7,5 Z M12,5 L14,5 C14.5522847,5 15,5.44771525 15,6 L15,7 C15,7.55228475 14.5522847,8 14,8 L12,8 C11.4477153,8 11,7.55228475 11,7 L11,6 C11,5.44771525 11.4477153,5 12,5 Z M12,6 L12,7 L14,7 L14,6 L12,6 Z M1.5,15 C1.22385763,15 1,14.7761424 1,14.5 C1,14.2238576 1.22385763,14 1.5,14 L14.5,14 C14.7761424,14 15,14.2238576 15,14.5 C15,14.7761424 14.7761424,15 14.5,15 L1.5,15 Z" id="heatmap-view_16" fill="#00090D"></path>
    </g>
</svg>