<?xml version="1.0" encoding="UTF-8"?>
<svg width="18px" height="18px" viewBox="0 0 18 18" version="1.1" xmlns="http://www.w3.org/2000/svg" xmlns:xlink="http://www.w3.org/1999/xlink">
    <!-- Generator: Sketch 60.1 (88133) - https://sketch.com -->
    <title>Alert and Notification/help/help-circle_18</title>
    <desc>Created with Sketch.</desc>
    <g id="Alert-and-Notification/help/help-circle_18" stroke="none" stroke-width="1" fill="none" fill-rule="evenodd">
        <path d="M9,0 C13.9707,0 18,4.0293 18,9 C18,13.9707 13.9707,18 9,18 C4.0293,18 0,13.9707 0,9 C0,4.0293 4.0293,0 9,0 Z M9,17 C13.4115556,17 17,13.4115556 17,9 C17,4.58844444 13.4115556,1 9,1 C4.58844444,1 1,4.58844444 1,9 C1,13.4115556 4.58844444,17 9,17 Z M8.5198,13.4890242 C8.5198,13.3590242 8.5698,13.2290242 8.6698,13.1390242 C8.8498,12.9490242 9.1898,12.9490242 9.3698,13.1390242 C9.4698,13.2290242 9.5198,13.3590242 9.5198,13.4890242 C9.5198,13.5590242 9.5098,13.6190242 9.4798,13.6790242 C9.4598,13.7390242 9.4198,13.7990242 9.3698,13.8390242 C9.3298,13.8890242 9.2698,13.9290242 9.2098,13.9490242 C9.1498,13.9790242 9.0798,13.9890242 9.0198,13.9890242 C8.8898,13.9890242 8.7598,13.9390242 8.6698,13.8390242 C8.6198,13.7990242 8.5798,13.7390242 8.5598,13.6790242 C8.5298,13.6190242 8.5198,13.5590242 8.5198,13.4890242 Z M6.934,4.84902422 C7.512,4.28602422 8.277,3.99102422 9.078,4.01202422 C10.689,4.05802422 12,5.41202422 12,7.03002422 C12,8.38302422 11.231,9.02602422 10.67,9.49502422 C10.57,9.57802422 10.473,9.65902422 10.383,9.74302422 L9.957,10.1340242 C9.671,10.3970242 9.5,10.7710242 9.5,11.1590242 L9.5,11.4960242 C9.5,11.7730242 9.276,11.9960242 9,11.9960242 C8.724,11.9960242 8.5,11.7730242 8.5,11.4960242 L8.5,11.1590242 C8.5,10.4920242 8.789,9.85002422 9.281,9.39802422 L9.705,9.00702422 C9.807,8.91402422 9.916,8.82202422 10.028,8.72802422 C10.55,8.29202422 11,7.91502422 11,7.03002422 C11,5.96602422 10.107,5.04202422 9.05,5.01202422 C8.502,4.98602422 8.014,5.19302422 7.631,5.56602422 C7.224,5.96102422 7,6.50202422 7,7.08802422 C7,7.36502422 6.776,7.58802422 6.5,7.58802422 C6.224,7.58802422 6,7.36502422 6,7.08802422 C6,6.22902422 6.331,5.43402422 6.934,4.84902422 Z" id="help-circle_18" fill="#00090D"></path>
    </g>
</svg>