<?xml version="1.0" encoding="UTF-8"?>
<svg width="16px" height="16px" viewBox="0 0 16 16" version="1.1" xmlns="http://www.w3.org/2000/svg" xmlns:xlink="http://www.w3.org/1999/xlink">
    <!-- Generator: Sketch 60.1 (88133) - https://sketch.com -->
    <title>Alert and Notification/help/help-circle_16</title>
    <desc>Created with Sketch.</desc>
    <g id="Alert-and-Notification/help/help-circle_16" stroke="none" stroke-width="1" fill="none" fill-rule="evenodd">
        <path d="M8,0 C12.418,0 16,3.582 16,8 C16,12.418 12.418,16 8,16 C3.582,16 0,12.418 0,8 C0,3.582 3.582,0 8,0 Z M8,15 C11.86,15 15,11.86 15,8 C15,4.14 11.86,1 8,1 C4.14,1 1,4.14 1,8 C1,11.86 4.14,15 8,15 Z M7.6699,12.1426 C7.8499,11.9526 8.1899,11.9526 8.3699,12.1426 C8.4699,12.2326 8.5199,12.3626 8.5199,12.4926 C8.5199,12.5626 8.5099,12.6226 8.4799,12.6826 C8.4599,12.7426 8.4199,12.8026 8.3699,12.8426 C8.3299,12.8926 8.2699,12.9326 8.2099,12.9526 C8.1499,12.9826 8.0799,12.9926 8.0199,12.9926 C7.8899,12.9926 7.7599,12.9426 7.6699,12.8426 C7.6199,12.8026 7.5799,12.7426 7.5599,12.6826 C7.5299,12.6226 7.5199,12.5626 7.5199,12.4926 C7.5199,12.3626 7.5699,12.2326 7.6699,12.1426 L7.6699,12.1426 Z M8.0781,3.0156 C9.6891,3.0616 11.0001,4.4156 11.0001,6.0336 C11.0001,7.3866 10.2311,8.0296 9.6701,8.4986 C9.5701,8.5816 9.4731,8.6626 9.3831,8.7466 L8.9571,9.1376 C8.6711,9.4006 8.5001,9.7746 8.5001,10.1626 L8.5001,10.4996 C8.5001,10.7766 8.2761,10.9996 8.0001,10.9996 C7.7241,10.9996 7.5001,10.7766 7.5001,10.4996 L7.5001,10.1626 C7.5001,9.4956 7.7891,8.8536 8.2811,8.4016 L8.7051,8.0106 C8.8071,7.9176 8.9161,7.8256 9.0281,7.7316 C9.5501,7.2956 10.0001,6.9186 10.0001,6.0336 C10.0001,4.9696 9.1071,4.0456 8.0501,4.0156 C7.5021,3.9896 7.0141,4.1966 6.6311,4.5696 C6.2241,4.9646 6.0001,5.5056 6.0001,6.0916 C6.0001,6.3686 5.7761,6.5916 5.5001,6.5916 C5.2241,6.5916 5.0001,6.3686 5.0001,6.0916 C5.0001,5.2326 5.3311,4.4376 5.9341,3.8526 C6.5121,3.2896 7.2771,2.9946 8.0781,3.0156 L8.0781,3.0156 Z" id="help-circle_16" fill="#00090D"></path>
    </g>
</svg>