<?xml version="1.0" encoding="UTF-8"?>
<svg width="16px" height="16px" viewBox="0 0 16 16" version="1.1" xmlns="http://www.w3.org/2000/svg" xmlns:xlink="http://www.w3.org/1999/xlink">
    <!-- Generator: Sketch 60.1 (88133) - https://sketch.com -->
    <title>Action/view/hide_16</title>
    <desc>Created with Sketch.</desc>
    <g id="Action/view/hide_16" stroke="none" stroke-width="1" fill="none" fill-rule="evenodd">
        <path d="M10.903,2.59992 C11.0302,2.65447 11.059,2.81967 10.9611,2.91754 L10.4947,3.38395 C10.4377,3.44096 10.3522,3.4579 10.277,3.42881 C9.58669,3.16172 8.82719,3 8,3 C4.273,3 1.92,6.283 1.082,7.695 C0.973,7.877 0.973,8.123 1.082,8.305 C1.43183,8.89446 2.04569,9.80998 2.91332,10.6766 C2.99259,10.7558 2.99411,10.8846 2.91488,10.9638 L2.48889,11.3898 C2.41174,11.4669 2.28679,11.4681 2.20963,11.3909 C1.28042,10.462 0.617855,9.48225 0.222,8.816 C-0.074,8.318 -0.074,7.682 0.222,7.184 C1.197,5.543 3.79,2 8,2 C9.07264,2 10.0403,2.22999 10.903,2.59992 Z M13.5111,4.61021 C13.5883,4.53307 13.7132,4.53194 13.7904,4.60907 C14.7196,5.53797 15.3821,6.51775 15.778,7.184 C16.074,7.682 16.074,8.318 15.778,8.816 C14.803,10.457 12.21,14 8,14 C6.92736,14 5.95969,13.77 5.097,13.4001 C4.96979,13.3455 4.941,13.1803 5.03886,13.0825 L5.50527,12.6161 C5.56228,12.559 5.64783,12.5421 5.72303,12.5712 C6.41331,12.8383 7.17281,13 8,13 C11.727,13 14.08,9.717 14.918,8.305 C15.027,8.123 15.027,7.877 14.918,7.695 C14.5682,7.10554 13.9543,6.19002 13.0867,5.32339 C13.0074,5.24421 13.0059,5.11543 13.0851,5.0362 L13.5111,4.61021 Z M7.56222,10.9683 C7.40983,10.946 7.35913,10.7622 7.46802,10.6533 L8.07164,10.0497 C8.10613,10.0152 8.15216,9.9949 8.2007,9.99006 C9.14502,9.89596 9.89596,9.14502 9.99005,8.2007 C9.99489,8.15216 10.0152,8.10614 10.0497,8.07164 L10.6533,7.46802 C10.7622,7.35912 10.946,7.40983 10.9683,7.56222 C10.9892,7.70512 11,7.8513 11,8 C11,9.65685 9.65685,11 8,11 C7.8513,11 7.70512,10.9892 7.56222,10.9683 Z M5.3467,8.53198 C5.2378,8.64087 5.05399,8.59017 5.03171,8.43778 C5.01082,8.29488 5,8.1487 5,8 C5,6.34315 6.34315,5 8,5 C8.1487,5 8.29488,5.01082 8.43778,5.03171 C8.59017,5.05399 8.64087,5.23781 8.53198,5.3467 L7.92836,5.95032 C7.89387,5.98481 7.84784,6.0051 7.7993,6.00994 C6.85498,6.10404 6.10404,6.85498 6.00994,7.7993 C6.00511,7.84784 5.98481,7.89386 5.95032,7.92836 L5.3467,8.53198 Z M13.1464,2.146447 C13.3417,1.9511845 13.6583,1.9511845 13.8536,2.146447 C14.0488,2.341709 14.0488,2.658291 13.8536,2.853553 L2.853553,13.8536 C2.658291,14.0488 2.341709,14.0488 2.146447,13.8536 C1.9511845,13.6583 1.9511845,13.3417 2.146447,13.1464 L13.1464,2.146447 Z" id="hide_16" fill="#9E9EA2"></path>
    </g>
</svg>