<?xml version="1.0" encoding="UTF-8"?>
<svg width="24px" height="24px" viewBox="0 0 24 24" version="1.1" xmlns="http://www.w3.org/2000/svg" xmlns:xlink="http://www.w3.org/1999/xlink">
    <!-- Generator: Sketch 60.1 (88133) - https://sketch.com -->
    <title>Action/view/hide_24</title>
    <desc>Created with Sketch.</desc>
    <g id="Action/view/hide_24" stroke="none" stroke-width="1" fill="none" fill-rule="evenodd">
        <path d="M20.2817874,6.71467587 C21.8891335,8.27046451 23.0175377,9.94022775 23.667,10.9122 C24.111,11.5762 24.111,12.4242 23.667,13.0882 C22.205,15.2752 18.316,21.0002 12,21.0002 C9.98268375,21.0002 8.21295774,20.4161645 6.69082196,19.5499131 L7.45221431,18.8299178 C8.77944534,19.5362384 10.2964936,20.0002 12,20.0002 C17.878,20.0002 21.536,14.4762 22.836,12.5322 C23.055,12.2042 23.055,11.7962 22.836,11.4682 C22.2379242,10.5733866 21.1407691,8.92127643 19.5579722,7.39806136 L20.2817874,6.71467587 Z M21.1566882,3.13649342 C21.3574474,2.94688757 21.6739007,2.95592909 21.8635066,3.15668823 C22.0531124,3.35744737 22.0440709,3.67390072 21.8433118,3.86350658 L21.8433118,3.86350658 L3.84331177,20.8635066 C3.64255263,21.0531124 3.32609928,21.0440709 3.13649342,20.8433118 C2.94688757,20.6425526 2.95592909,20.3260993 3.15668823,20.1364934 L3.15668823,20.1364934 Z M12,3.0002 C14.2929464,3.0002 16.266023,3.75460265 17.9192297,4.82034406 L17.1700183,5.52684511 C15.7010438,4.6243239 13.9759569,4.0002 12,4.0002 C6.122,4.0002 2.464,9.5232 1.164,11.4682 C0.945,11.7962 0.945,12.2042 1.164,12.5322 C1.82390396,13.5190102 3.09140905,15.4283022 4.94846467,17.0692607 L4.22244013,17.7546968 C2.34486121,16.0755783 1.04838117,14.1583358 0.333,13.0882 C-0.111,12.4242 -0.111,11.5762 0.333,10.9122 C1.795,8.7242 5.684,3.0002 12,3.0002 Z M15.8474928,10.9022617 C15.9468232,11.2510723 16,11.6193261 16,12 C16,14.209139 14.209139,16 12,16 C11.5387918,16 11.0958148,15.9219434 10.6835588,15.7783201 L11.5449965,14.9657179 C11.6933717,14.9882934 11.8453187,15 12,15 C13.6568542,15 15,13.6568542 15,12 C15,11.9040983 14.9955001,11.8092477 14.9866998,11.7156477 L15.8474928,10.9022617 Z M12,8 C12.7249503,8 13.4048567,8.19285559 13.9912135,8.53006091 L13.2190985,9.25805042 C12.8466041,9.09218699 12.4340678,9 12,9 C10.3431458,9 9,10.3431458 9,12 C9,12.3736267 9.06830152,12.7313007 9.1930997,13.0612172 L8.42148111,13.7891908 C8.15178278,13.2508228 8,12.6431368 8,12 C8,9.790861 9.790861,8 12,8 Z" id="hide_24" fill="#9E9EA2"></path>
    </g>
</svg>