<?xml version="1.0" encoding="UTF-8"?>
<svg width="16px" height="16px" viewBox="0 0 16 16" version="1.1" xmlns="http://www.w3.org/2000/svg" xmlns:xlink="http://www.w3.org/1999/xlink">
    <!-- Generator: Sketch 60.1 (88133) - https://sketch.com -->
    <title>Networking / high-availability / high-availability_16</title>
    <desc>Created with Sketch.</desc>
    <g id="Networking-/-high-availability-/-high-availability_16" stroke="none" stroke-width="1" fill="none" fill-rule="evenodd">
        <path d="M6,12 C6,12.5128358 6.38604019,12.9355072 6.88337887,12.9932723 L7,13 L14,13 C14.5128358,13 14.9355072,12.6139598 14.9932723,12.1166211 L15,12 L15,8 C15,7.48716416 14.6139598,7.06449284 14.1166211,7.00672773 L14,7 L12.5,7 C12.2238576,7 12,6.77614237 12,6.5 C12,6.22385763 12.2238576,6 12.5,6 L14,6 L14,6 C15.1045695,6 16,6.8954305 16,8 L16,12 C16,13.1045695 15.1045695,14 14,14 L7,14 C5.8954305,14 5,13.1045695 5,12 L5,8 C5,6.8954305 5.8954305,6 7,6 L8.5,6 C8.77614237,6 9,6.22385763 9,6.5 C9,6.77614237 8.77614237,7 8.5,7 L7,7 L7,7 C6.48716416,7 6.06449284,7.38604019 6.00672773,7.88337887 L6,8 L6,12 Z M11,8 C11,9.1045695 10.1045695,10 9,10 L7.5,10 C7.22385763,10 7,9.77614237 7,9.5 C7,9.22385763 7.22385763,9 7.5,9 L9,9 L9,9 C9.51283584,9 9.93550716,8.61395981 9.99327227,8.11662113 L10,8 L10,4 C10,3.48716416 9.61395981,3.06449284 9.11662113,3.00672773 L9,3 L2,3 C1.48716416,3 1.06449284,3.38604019 1.00672773,3.88337887 L1,4 L1,8 C1,8.51283584 1.38604019,8.93550716 1.88337887,8.99327227 L2,9 L3.5,9 C3.77614237,9 4,9.22385763 4,9.5 C4,9.77614237 3.77614237,10 3.5,10 L2,10 L2,10 C0.8954305,10 0,9.1045695 0,8 L0,4 C0,2.8954305 0.8954305,2 2,2 L9,2 C10.1045695,2 11,2.8954305 11,4 L11,8 Z" id="high-availability_16" fill="#00090D"></path>
    </g>
</svg>