<?xml version="1.0" encoding="UTF-8"?>
<svg width="36px" height="36px" viewBox="0 0 36 36" version="1.1" xmlns="http://www.w3.org/2000/svg" xmlns:xlink="http://www.w3.org/1999/xlink">
    <!-- Generator: Sketch 60.1 (88133) - https://sketch.com -->
    <title>Networking / high-availability / high-availability_36</title>
    <desc>Created with Sketch.</desc>
    <g id="Networking-/-high-availability-/-high-availability_36" stroke="none" stroke-width="1" fill="none" fill-rule="evenodd">
        <path d="M13,28 C13,29.5976809 14.24892,30.9036609 15.8237272,30.9949073 L16,31 L32,31 C33.5976809,31 34.9036609,29.75108 34.9949073,28.1762728 L35,28 L35,18 C35,16.4023191 33.75108,15.0963391 32.1762728,15.0050927 L32,15 L26.5,15 C26.2238576,15 26,14.7761424 26,14.5 C26,14.2238576 26.2238576,14 26.5,14 L32,14 L32,14 C34.209139,14 36,15.790861 36,18 L36,28 C36,30.209139 34.209139,32 32,32 L16,32 C13.790861,32 12,30.209139 12,28 L12,18 C12,15.790861 13.790861,14 16,14 L20.5,14 C20.7761424,14 21,14.2238576 21,14.5 C21,14.7761424 20.7761424,15 20.5,15 L16,15 L16,15 C14.4023191,15 13.0963391,16.24892 13.0050927,17.8237272 L13,18 L13,28 Z M24,18 C24,20.209139 22.209139,22 20,22 L15.5,22 C15.2238576,22 15,21.7761424 15,21.5 C15,21.2238576 15.2238576,21 15.5,21 L20,21 L20,21 C21.5976809,21 22.9036609,19.75108 22.9949073,18.1762728 L23,18 L23,8 C23,6.40231912 21.75108,5.09633912 20.1762728,5.00509269 L20,5 L4,5 C2.40231912,5 1.09633912,6.24891996 1.00509269,7.82372721 L1,8 L1,18 C1,19.5976809 2.24891996,20.9036609 3.82372721,20.9949073 L4,21 L9.5,21 C9.77614237,21 10,21.2238576 10,21.5 C10,21.7761424 9.77614237,22 9.5,22 L4,22 L4,22 C1.790861,22 0,20.209139 0,18 L0,8 C0,5.790861 1.790861,4 4,4 L20,4 C22.209139,4 24,5.790861 24,8 L24,18 Z" id="high-availability_36" fill="#00090D"></path>
    </g>
</svg>