<?xml version="1.0" encoding="UTF-8"?>
<svg width="24px" height="24px" viewBox="0 0 24 24" version="1.1" xmlns="http://www.w3.org/2000/svg" xmlns:xlink="http://www.w3.org/1999/xlink">
    <!-- Generator: Sketch 60.1 (88133) - https://sketch.com -->
    <title>Navigation / home_24</title>
    <desc>Created with Sketch.</desc>
    <g id="Navigation-/-home_24" stroke="none" stroke-width="1" fill="none" fill-rule="evenodd">
        <path d="M11.9970415,1 C12.5810393,1 13.1650371,1.201 13.6300354,1.603 L21.7860046,8.637 C22.5570017,9.302 23,10.27 23,11.288 L23,21.5 C23,22.328 22.3290025,23 21.5000057,23 L15.4970283,23 C14.6690314,23 13.997034,22.328 13.997034,21.5 L13.997034,15.517 C13.997034,15.241 13.7720348,15.017 13.4970359,15.017 L10.4960472,15.017 C10.2210482,15.017 9.99704909,15.241 9.99704909,15.516 L9.99704909,21.5 C9.99704909,22.328 9.32505162,23 8.49705475,23 L2.55207719,23 C1.72608031,23 1.05608284,22.333 1.05208285,21.508 L1.00004118,11.3 C0.99508307,10.276 1.4380814,9.302 2.21307847,8.633 L10.3630477,1.603 C10.8290459,1.201 11.4130437,1 11.9970415,1 Z M11.9970415,2 C11.6340429,2 11.2850442,2.128 11.0160452,2.36 L2.867076,9.39 C2.3120781,9.869 1.99607929,10.563 2.00004176,11.295 L2.05207908,21.503 C2.05307908,21.777 2.27807823,22 2.55207719,22 L8.49705475,22 C8.77205371,22 8.99705286,21.775 8.99705286,21.5 L8.99705286,15.516 C8.99705286,14.689 9.66905032,14.017 10.4960472,14.017 L13.4970359,14.017 C14.3250327,14.017 14.9970302,14.689 14.9970302,15.517 L14.9970302,21.5 C14.9970302,21.775 15.2220294,22 15.4970283,22 L21.5000057,22 C21.7760046,22 22.0000038,21.775 22.0000038,21.5 L22.0000038,11.288 C22.0000038,10.56 21.684005,9.87 21.1320071,9.394 L12.9770378,2.36 C12.7080389,2.128 12.3600402,2 11.9970415,2 L11.9970415,2 Z" id="home_24" fill="#00090D"></path>
    </g>
</svg>