<?xml version="1.0" encoding="UTF-8"?>
<svg width="16px" height="16px" viewBox="0 0 16 16" version="1.1" xmlns="http://www.w3.org/2000/svg" xmlns:xlink="http://www.w3.org/1999/xlink">
    <!-- Generator: Sketch 60.1 (88133) - https://sketch.com -->
    <title>Networking/hosts_16</title>
    <desc>Created with Sketch.</desc>
    <g id="Networking/hosts_16" stroke="none" stroke-width="1" fill="none" fill-rule="evenodd">
        <path d="M2,1 L14,1 C14.5522847,1 15,1.44771525 15,2 L15,4 C15,4.55228475 14.5522847,5 14,5 L2,5 C1.44771525,5 1,4.55228475 1,4 L1,2 C1,1.44771525 1.44771525,1 2,1 Z M2,2 L2,4 L14,4 L14,2 L2,2 Z M2,6 L14,6 C14.5522847,6 15,6.44771525 15,7 L15,9 C15,9.55228475 14.5522847,10 14,10 L2,10 C1.44771525,10 1,9.55228475 1,9 L1,7 C1,6.44771525 1.44771525,6 2,6 Z M2,7 L2,9 L14,9 L14,7 L2,7 Z M2,11 L14,11 C14.5522847,11 15,11.4477153 15,12 L15,14 C15,14.5522847 14.5522847,15 14,15 L2,15 C1.44771525,15 1,14.5522847 1,14 L1,12 C1,11.4477153 1.44771525,11 2,11 Z M2,12 L2,14 L14,14 L14,12 L2,12 Z M3,3.5 C2.72385763,3.5 2.5,3.27614237 2.5,3 C2.5,2.72385763 2.72385763,2.5 3,2.5 C3.27614237,2.5 3.5,2.72385763 3.5,3 C3.5,3.27614237 3.27614237,3.5 3,3.5 Z M3,8.5 C2.72385763,8.5 2.5,8.27614237 2.5,8 C2.5,7.72385763 2.72385763,7.5 3,7.5 C3.27614237,7.5 3.5,7.72385763 3.5,8 C3.5,8.27614237 3.27614237,8.5 3,8.5 Z M3,13.5 C2.72385763,13.5 2.5,13.2761424 2.5,13 C2.5,12.7238576 2.72385763,12.5 3,12.5 C3.27614237,12.5 3.5,12.7238576 3.5,13 C3.5,13.2761424 3.27614237,13.5 3,13.5 Z" id="hosts_16" fill="#00090D"></path>
    </g>
</svg>