<?xml version="1.0" encoding="UTF-8"?>
<svg width="16px" height="16px" viewBox="0 0 16 16" version="1.1" xmlns="http://www.w3.org/2000/svg" xmlns:xlink="http://www.w3.org/1999/xlink">
    <!-- Generator: Sketch 60.1 (88133) - https://sketch.com -->
    <title>Action / hourglass_16</title>
    <desc>Created with Sketch.</desc>
    <g id="Action-/-hourglass_16" stroke="none" stroke-width="1" fill="none" fill-rule="evenodd">
        <path d="M12,1 L12,3.80003222 C12,5.21880737 11.1120641,6.57956504 9.39614656,7.89438301 C9.34535461,7.93330582 9.28364079,7.96851077 9.21309162,8 C9.28362284,8.03147747 9.34532234,8.06667324 9.396105,8.10558514 C11.1120561,9.42042249 12,10.7811861 12,12.1999678 L12,15 L12.4857097,15 C12.7697444,15 13,15.2159653 13,15.5 C13,15.7840347 12.7840347,16.0001127 12.5,16.0001127 L3.5,16.0001127 C3.2159653,16.0001127 3,15.7840347 3,15.5 C3,15.2159653 3.23025562,15 3.51429032,15 L4,15 L4,12.1999678 C4,10.7811926 4.88793585,9.42043496 6.60385344,8.10561699 C6.65464539,8.06669418 6.71635921,8.03148923 6.78690838,8 C6.71637716,7.96852253 6.65467766,7.93332676 6.603895,7.89441486 C4.88794395,6.57957751 4,5.21881391 4,3.80003222 L4,1 L3.5,1 C3.22385763,1 3,0.776142375 3,0.5 C3,0.223857625 3.22385763,1.13686838e-13 3.5,1.13686838e-13 L12.5,1.13686838e-13 C12.7761424,1.13686838e-13 13,0.223857625 13,0.5 C13,0.776142375 12.7761424,1 12.5,1 L12,1 Z M5,1 L5,3 L11,3 L11,1 L5,1 Z M5,14 L11,14 L11,15 L5,15 L5,14 Z M5,12.4038141 L5,15 L11,15 L11,12.4038141 C11,11.3579966 10.2862118,10.2536028 8.79869854,9.10284111 C8.62144534,8.96571547 7.37853402,8.96571812 7.20127948,9.10285812 C5.71378104,10.2536139 5,11.3580018 5,12.4038141 Z" id="hourglass_16" fill="#00090D"></path>
    </g>
</svg>