<?xml version="1.0" encoding="UTF-8"?>
<svg width="36px" height="36px" viewBox="0 0 36 36" version="1.1" xmlns="http://www.w3.org/2000/svg" xmlns:xlink="http://www.w3.org/1999/xlink">
    <!-- Generator: Sketch 60.1 (88133) - https://sketch.com -->
    <title>Alert and Notification/idle/idle_36</title>
    <desc>Created with Sketch.</desc>
    <g id="Alert-and-Notification/idle/idle_36" stroke="none" stroke-width="1" fill="none" fill-rule="evenodd">
        <path d="M0,18 C0,27.9405 8.0595,36 18,36 C27.9405,36 36,27.9405 36,18 C36,8.0595 27.9405,0 18,0 C8.0595,0 0,8.0595 0,18 Z M13.7759417,10.4105795 C11.4259704,11.9835246 9.99998779,14.6184325 9.99998779,17.4823325 C9.99998779,22.1791684 13.8209411,26.0000349 18.5178838,26.0000349 C21.3818488,26.0000349 24.0158166,24.5730848 25.5887974,22.2231669 C25.5307981,22.2241668 25.4727988,22.2251668 25.4137995,22.2251668 C18.9958779,22.2251668 13.7749417,17.0043492 13.7749417,10.5865734 C13.7749417,10.5275754 13.7749417,10.4695774 13.7759417,10.4105795 M18.5178838,27 C13.2699479,27 9,22.7301492 9,17.4823325 C9,13.9384563 10.9529762,10.710569 14.0959378,9.05762677 C14.2599358,8.97162977 14.4559334,8.98262939 14.6079315,9.08562579 C14.7609297,9.18762223 14.8449286,9.36561601 14.8269288,9.54860962 C14.7939292,9.8895977 14.7749295,10.2365856 14.7749295,10.5865734 C14.7749295,16.4533684 19.5468712,21.2252017 25.4137995,21.2252017 C25.7647953,21.2252017 26.110791,21.2062024 26.4527869,21.1732035 C26.6327847,21.1582041 26.8127825,21.2392012 26.9147812,21.3921959 C27.01778,21.5451905 27.0277798,21.7411837 26.9427809,21.903178 C25.2898011,25.0470682 22.0618405,27 18.5178838,27" id="idle_36" fill="#00090D"></path>
    </g>
</svg>