<svg width="36" height="36" viewBox="0 0 36 36" fill="none" xmlns="http://www.w3.org/2000/svg">
<path fill-rule="evenodd" clip-rule="evenodd" d="M0 18C0 27.9405 8.0595 36 18 36C27.9405 36 36 27.9405 36 18C36 8.0595 27.9405 0 18 0C8.0595 0 0 8.0595 0 18ZM13.7759 10.4106C11.426 11.9835 9.99999 14.6184 9.99999 17.4823C9.99999 22.1792 13.8209 26 18.5179 26C21.3818 26 24.0158 24.5731 25.5888 22.2232C25.5308 22.2242 25.4728 22.2252 25.4138 22.2252C18.9959 22.2252 13.7749 17.0043 13.7749 10.5866C13.7749 10.5276 13.7749 10.4696 13.7759 10.4106M18.5179 27C13.2699 27 9 22.7301 9 17.4823C9 13.9385 10.953 10.7106 14.0959 9.05763C14.2599 8.97163 14.4559 8.98263 14.6079 9.08563C14.7609 9.18762 14.8449 9.36562 14.8269 9.54861C14.7939 9.8896 14.7749 10.2366 14.7749 10.5866C14.7749 16.4534 19.5469 21.2252 25.4138 21.2252C25.7648 21.2252 26.1108 21.2062 26.4528 21.1732C26.6328 21.1582 26.8128 21.2392 26.9148 21.3922C27.0178 21.5452 27.0278 21.7412 26.9428 21.9032C25.2898 25.0471 22.0618 27 18.5179 27" fill="#949494"/>
</svg>
