<svg width="16" height="16" viewBox="0 0 16 16" fill="none" xmlns="http://www.w3.org/2000/svg">
<path fill-rule="evenodd" clip-rule="evenodd" d="M15 8C15 11.866 11.866 15 8 15C4.13401 15 1 11.866 1 8C1 4.13401 4.13401 1 8 1C11.866 1 15 4.13401 15 8ZM16 8C16 12.4183 12.4183 16 8 16C3.58172 16 0 12.4183 0 8C0 3.58172 3.58172 0 8 0C12.4183 0 16 3.58172 16 8ZM4 7.78607C4 6.21809 4.86404 4.78912 6.2561 4.05813C6.41811 3.97113 6.61512 3.98313 6.76713 4.08513C6.91914 4.18813 7.00314 4.36512 6.98614 4.54812C6.97314 4.67912 6.96614 4.81312 6.96614 4.94711C6.96614 7.20108 8.79922 9.03405 11.0533 9.03405C11.1873 9.03405 11.3193 9.02705 11.4503 9.01405C11.6344 8.98705 11.8124 9.07905 11.9144 9.23204C12.0174 9.38404 12.0284 9.58104 11.9424 9.74304C11.2103 11.136 9.78127 12 8.2132 12C5.89009 12 4 10.11 4 7.78607ZM5.99209 5.4661C5.36606 6.06309 5.00005 6.89508 5.00005 7.78607C5.00005 9.55904 6.44111 11 8.21319 11C9.10424 11 9.93627 10.634 10.5333 10.008C8.14219 9.76503 6.2351 7.85806 5.99209 5.4661Z" fill="#949494"/>
</svg>
