<svg width="24" height="24" viewBox="0 0 24 24" fill="none" xmlns="http://www.w3.org/2000/svg">
<path fill-rule="evenodd" clip-rule="evenodd" d="M23 12C23 18.0751 18.0751 23 12 23C5.92487 23 1 18.0751 1 12C1 5.92487 5.92487 1 12 1C18.0751 1 23 5.92487 23 12ZM24 12C24 18.6274 18.6274 24 12 24C5.37258 24 0 18.6274 0 12C0 5.37258 5.37258 0 12 0C18.6274 0 24 5.37258 24 12ZM16.7462 14.996C12.5296 14.8646 9.13537 11.4703 9.00395 7.2538C7.77863 8.26383 7 9.79103 7 11.5C7 14.5375 9.46243 17 12.5 17C14.2089 17 15.7361 16.2213 16.7462 14.996ZM17.8308 15.2201C18.2185 14.6656 17.6766 14 17 14C13.134 14 10 10.866 10 6.99999C10 6.32338 9.33435 5.78145 8.77983 6.16915C7.0992 7.34418 6 9.29371 6 11.5C6 15.0898 8.91015 18 12.5 18C14.7063 18 16.6558 16.9008 17.8308 15.2201Z" fill="#949494"/>
</svg>
