<?xml version="1.0" encoding="UTF-8"?>
<svg width="18px" height="18px" viewBox="0 0 18 18" version="1.1" xmlns="http://www.w3.org/2000/svg" xmlns:xlink="http://www.w3.org/1999/xlink">
    <!-- Generator: Sketch 60.1 (88133) - https://sketch.com -->
    <title>Alert and Notification/idle/idle_18</title>
    <desc>Created with Sketch.</desc>
    <g id="Alert-and-Notification/idle/idle_18" stroke="none" stroke-width="1" fill="none" fill-rule="evenodd">
        <path d="M0,9 C0,13.97025 4.02975,18 9,18 C13.97025,18 18,13.97025 18,9 C18,4.02975 13.97025,0 9,0 C4.02975,0 0,4.02975 0,9 Z M6.99209244,6.46610473 C6.36606339,7.06309516 6.0000464,7.89508183 6.0000464,8.78606755 C6.0000464,10.5590391 7.44111327,12.000016 9.2131955,12.000016 C10.1042368,12.000016 10.9362755,11.6340219 11.5333032,11.0080319 C9.14219221,10.7650358 7.23510371,8.85806639 6.99209244,6.46610473 M5,8.78606755 C5,7.21809268 5.86404009,5.78911558 7.25610469,5.0581273 C7.41811221,4.9711287 7.61512135,4.9831285 7.7671284,5.08512687 C7.91913546,5.18812522 8.00313935,5.36512238 7.98613856,5.54811945 C7.97313796,5.67911735 7.96613764,5.8131152 7.96613764,5.94711305 C7.96613764,8.20107692 9.7992227,10.0340475 12.0533273,10.0340475 C12.1873335,10.0340475 12.3193396,10.0270477 12.4503457,10.0140479 C12.6343543,9.9870483 12.8123625,10.0790468 12.9143673,10.2320444 C13.017372,10.3840419 13.0283725,10.5810388 12.9423686,10.7430362 C12.2103346,12.1360139 10.7812683,13 9.2131955,13 C6.8900877,13 5,11.1100303 5,8.78606755 Z" id="idle_18" fill="#00090D"></path>
    </g>
</svg>