<svg width="18" height="18" viewBox="0 0 18 18" fill="none" xmlns="http://www.w3.org/2000/svg">
<path fill-rule="evenodd" clip-rule="evenodd" d="M0 9C0 13.9703 4.02975 18 9 18C13.9703 18 18 13.9703 18 9C18 4.02975 13.9703 0 9 0C4.02975 0 0 4.02975 0 9ZM6.99209 6.4661C6.36606 7.06309 6.00005 7.89508 6.00005 8.78607C6.00005 10.559 7.44111 12 9.2132 12C10.1042 12 10.9363 11.634 11.5333 11.008C9.14219 10.765 7.2351 8.85807 6.99209 6.4661M5 8.78607C5 7.21809 5.86404 5.78912 7.2561 5.05813C7.41811 4.97113 7.61512 4.98313 7.76713 5.08513C7.91914 5.18813 8.00314 5.36512 7.98614 5.54812C7.97314 5.67912 7.96614 5.81312 7.96614 5.94711C7.96614 8.20108 9.79922 10.034 12.0533 10.034C12.1873 10.034 12.3193 10.027 12.4503 10.014C12.6344 9.98705 12.8124 10.079 12.9144 10.232C13.0174 10.384 13.0284 10.581 12.9424 10.743C12.2103 12.136 10.7813 13 9.2132 13C6.89009 13 5 11.11 5 8.78607Z" fill="#949494"/>
</svg>
