<svg width="24" height="24" viewBox="0 0 24 24" fill="none" xmlns="http://www.w3.org/2000/svg">
<path fill-rule="evenodd" clip-rule="evenodd" d="M0 12C0 18.627 5.373 24 12 24C18.627 24 24 18.627 24 12C24 5.373 18.627 0 12 0C5.373 0 0 5.373 0 12ZM9.62502 6C9.7232 6 9.82029 6.02836 9.90429 6.084C10.057 6.18763 10.141 6.36545 10.1236 6.54763C10.1017 6.76362 10.0897 6.9818 10.0897 7.20216C10.0897 10.9025 13.0984 13.91 16.7976 13.91C17.018 13.91 17.2362 13.8991 17.4511 13.8762C17.4652 13.8751 17.4794 13.8751 17.4936 13.8751C17.6594 13.8751 17.8198 13.9548 17.9147 14.0955C18.0172 14.2482 18.0281 14.4457 17.943 14.6082C16.8423 16.7005 14.6944 17.9998 12.3348 17.9998C8.84176 17.9998 6 15.1591 6 11.6639C6 9.30648 7.30034 7.15852 9.39266 6.05782C9.46575 6.01854 9.54539 6 9.62502 6ZM9.00976 7.61233C7.80651 8.59741 7.09089 10.0734 7.09089 11.6639C7.09089 14.5558 9.44284 16.9089 12.3348 16.9089C13.9264 16.9089 15.4024 16.1933 16.3874 14.9911C12.4133 14.7838 9.21594 11.5875 9.00976 7.61233Z" fill="#949494"/>
</svg>
