<?xml version="1.0" encoding="UTF-8"?>
<svg width="24px" height="24px" viewBox="0 0 24 24" version="1.1" xmlns="http://www.w3.org/2000/svg" xmlns:xlink="http://www.w3.org/1999/xlink">
    <!-- Generator: Sketch 60.1 (88133) - https://sketch.com -->
    <title>Topology / ips &amp; ids / ids-topology_24</title>
    <desc>Created with Sketch.</desc>
    <g id="Topology-/-ips-&amp;-ids-/-ids-topology_24" stroke="none" stroke-width="1" fill="none" fill-rule="evenodd">
        <path d="M3.5,1 L20.5,1 C21.8807119,1 23,2.11928813 23,3.5 L23,20.5 C23,21.8807119 21.8807119,23 20.5,23 L3.5,23 C2.11928813,23 1,21.8807119 1,20.5 L1,3.5 C1,2.11928813 2.11928813,1 3.5,1 Z" id="secondary-color" fill="#FFA000"></path>
        <path d="M19.4161089,15.0058583 L20.4996339,15.0058583 C20.7757763,15.0058583 20.9996339,15.2297159 20.9996339,15.5058583 C20.9996339,15.7820007 20.7757763,16.0058583 20.4996339,16.0058583 L18.9263745,16.0058583 C17.5422807,18.3938327 14.9587106,20 12,20 C7.581722,20 4,16.418278 4,12 C4,10.9413353 4.20563765,9.9306999 4.57914837,9.00585832 C4.23230305,9.00585832 3.87258743,9.00585832 3.5,9.00585832 C3.22385763,9.00585832 3,8.78200069 3,8.50585832 C3,8.22971594 3.22385763,8.00585832 3.5,8.00585832 L5.06687202,8.00585832 C6.44927394,5.61142253 9.03645302,4 12,4 C16.418278,4 20,7.581722 20,12 C20,13.0631371 19.7926212,14.0778383 19.4161089,15.0058583 Z M17.74122,16.0058583 L14.4331227,16.0058583 C14.0417539,16.0058583 13.5329032,16.0058583 12.9065708,16.0058583 L12.906547,16.0058583 L13.4628307,17.3965675 C13.514109,17.5247634 13.451755,17.670256 13.3235592,17.7215344 C13.2573655,17.7480118 13.1830165,17.7449692 13.1192077,17.7131716 L9.13855128,15.7295048 C9.01497405,15.667923 8.96471683,15.5178219 9.02629865,15.3942447 C9.05051199,15.3456554 9.08988372,15.3062682 9.13846353,15.2820358 L13.1192752,13.2963423 C13.2428283,13.234712 13.3929491,13.2849104 13.4545794,13.4084635 C13.4864041,13.4722639 13.4894741,13.5466171 13.4630173,13.612824 L12.9063506,15.0058583 L18.3235825,15.0058583 C18.7572694,14.0951144 19,13.0759036 19,12 C19,8.13400675 15.8659932,5 12,5 C9.61869439,5 7.51511134,6.18907162 6.2506074,8.00585832 L11.0932833,8.00585832 L10.5366166,6.61282402 C10.5101598,6.54661711 10.5132298,6.47226395 10.5450545,6.40846346 C10.6066848,6.28491039 10.7568056,6.23471204 10.8803586,6.29634232 L14.8611704,8.28203582 C14.9097502,8.30626821 14.9491219,8.34565539 14.9733352,8.3942447 C15.0349171,8.51782194 14.9846598,8.667923 14.8610826,8.72950482 L10.8804261,10.7131716 C10.8166174,10.7449692 10.7422683,10.7480118 10.6760747,10.7215344 C10.5478789,10.670256 10.4855249,10.5247634 10.5368032,10.3965675 L11.0930869,9.00585832 L11.0930631,9.00585832 C10.4667307,9.00585832 9.95788,9.00585832 9.56651115,9.00585832 C8.60841404,9.00585832 7.30985968,9.00585832 5.67084808,9.00585832 C5.24065428,9.91362351 5,10.9287078 5,12 C5,15.8659932 8.13400675,19 12,19 C14.3761827,19 16.4758365,17.816039 17.74122,16.0058583 Z" id="ids-topology_24" fill="#00090D"></path>
    </g>
</svg>