<?xml version="1.0" encoding="UTF-8"?>
<svg width="24px" height="24px" viewBox="0 0 24 24" version="1.1" xmlns="http://www.w3.org/2000/svg" xmlns:xlink="http://www.w3.org/1999/xlink">
    <!-- Generator: Sketch 60.1 (88133) - https://sketch.com -->
    <title>Networking / image-management / image-management-filled_24</title>
    <desc>Created with Sketch.</desc>
    <g id="Networking-/-image-management-/-image-management-filled_24" stroke="none" stroke-width="1" fill="none" fill-rule="evenodd">
        <path d="M12,0 C18.627417,0 24,5.372583 24,12 C24,18.627417 18.627417,24 12,24 C5.372583,24 0,18.627417 0,12 C0,5.372583 5.372583,0 12,0 Z M4.77147,16.0007 C4.38692,16.0007 4.13949,16.404 4.34189,16.731 C5.92813,19.2936 8.76472,21.0007 12,21.0007 C12.1871,21.0007 12.3728,20.995 12.557,20.9838 C12.8097,20.9684 13,20.7543 13,20.5011 C13,20.2025 12.7382,19.9727 12.4401,19.9888 C12.2944,19.9967 12.1477,20.0007 12,20.0007 C9.14576,20.0007 6.64063,18.506 5.22471,16.2566 C5.1262,16.1001 4.95639,16.0007 4.77147,16.0007 Z M12,7 C9.23858,7 7,9.23858 7,12 C7,14.7614 9.23858,17 12,17 C14.7614,17 17,14.7614 17,12 C17,9.23858 14.7614,7 12,7 Z M12,8 C14.2091,8 16,9.79086 16,12 C16,14.2091 14.2091,16 12,16 C9.79086,16 8,14.2091 8,12 C8,9.79086 9.79086,8 12,8 Z M12,9 C10.3431,9 9,10.3431 9,12 C9,13.6569 10.3431,15 12,15 C13.6569,15 15,13.6569 15,12 C15,10.3431 13.6569,9 12,9 Z M20.2629,8.42773 C20.1532,8.17441 19.8516,8.07496 19.6047,8.19841 C19.3575,8.322 19.259,8.62209 19.367,8.87647 C19.7128,9.691 19.9276,10.5747 19.9847,11.501 C20.0016,11.7766 20.2239,12.0007 20.5,12.0007 C20.7762,12.0007 21.0015,11.7767 20.9864,11.5009 C20.9269,10.414 20.6745,9.37834 20.2629,8.42773 Z M12.5,3.01439 C12.2243,2.99929 12,3.22459 12,3.50074 C12,3.77688 12.2242,3.9991 12.4998,4.01609 C14.9091,4.16459 17.0299,5.37947 18.396,7.19455 C18.5485,7.39717 18.8229,7.47127 19.0497,7.35785 C19.3185,7.22348 19.4113,6.88436 19.2323,6.64307 C17.6852,4.55813 15.2579,3.1654 12.5,3.01439 Z" id="image-management-filled_24" fill="#00090D"></path>
    </g>
</svg>