<?xml version="1.0" encoding="UTF-8"?>
<svg width="16px" height="16px" viewBox="0 0 16 16" version="1.1" xmlns="http://www.w3.org/2000/svg" xmlns:xlink="http://www.w3.org/1999/xlink">
    <!-- Generator: Sketch 60.1 (88133) - https://sketch.com -->
    <title>Action/import &amp; export/import_16</title>
    <desc>Created with Sketch.</desc>
    <g id="Action/import-&amp;-export/import_16" stroke="none" stroke-width="1" fill="none" fill-rule="evenodd">
        <path d="M15.501,7.0005 C15.776,7.0005 15.99,7.2265 15.99,7.5005 L15.99,7.5005 L15.99,13.0015 C15.99,14.1065 15.105,14.99 14.001,14.99 L14.001,14.99 L2.001,14.99 C0.897,14.99 0.001,14.1065 0.001,13.0015 L0.001,13.0015 L0,7.5005 C0,7.2265 0.225,7.0005 0.5,7.0005 C0.775,7.0005 1,7.2265 1,7.5005 L1,7.5005 L1.001,13.0015 C1.001,13.5525 1.449,14.0015 2.001,14.0015 L2.001,14.0015 L14.002,14.0015 C14.554,14.0015 15.002,13.5525 15.002,13.0015 L15.002,13.0015 L15.002,7.5005 C15.002,7.2265 15.226,7.0005 15.501,7.0005 Z M8.0005,1 C8.2765,1 8.5005,1.223 8.5005,1.5 L8.5005,10.293 L11.6475,7.147 C11.8425,6.951 12.1585,6.951 12.3545,7.147 C12.5495,7.342 12.5495,7.658 12.3545,7.854 L8.3545,11.853 C8.3085,11.899 8.2535,11.936 8.1915,11.961 C8.1305,11.987 8.0655,12 8.0005,12 C7.9355,12 7.8705,11.987 7.8095,11.961 C7.7485,11.936 7.6925,11.899 7.6465,11.853 L3.6475,7.854 C3.4515,7.658 3.4515,7.342 3.6475,7.147 C3.8425,6.951 4.1585,6.951 4.3545,7.147 L7.5005,10.293 L7.5005,1.5 C7.5005,1.223 7.7245,1 8.0005,1 Z" id="import_16" fill="#00090D"></path>
    </g>
</svg>