<?xml version="1.0" encoding="UTF-8"?>
<svg width="24px" height="24px" viewBox="0 0 24 24" version="1.1" xmlns="http://www.w3.org/2000/svg" xmlns:xlink="http://www.w3.org/1999/xlink">
    <!-- Generator: Sketch 60.1 (88133) - https://sketch.com -->
    <title>Action/import &amp; export/import_24</title>
    <desc>Created with Sketch.</desc>
    <g id="Action/import-&amp;-export/import_24" stroke="none" stroke-width="1" fill="none" fill-rule="evenodd">
        <path d="M22.5,10.9999 C22.775,10.9999 23,11.2249 23,11.4999 L23,11.4999 L23,19.3749 C23,20.8219 21.823,21.9999 20.375,21.9999 L20.375,21.9999 L3.625,21.9999 C2.177,21.9999 1,20.8219 1,19.3749 L1,19.3749 L1,11.4999 C1,11.2249 1.225,10.9999 1.5,10.9999 C1.775,10.9999 2,11.2249 2,11.4999 L2,11.4999 L2,19.4259 C2,20.2939 2.707,20.9999 3.575,20.9999 L3.575,20.9999 L20.425,20.9999 C21.293,20.9999 22,20.2939 22,19.4259 L22,19.4259 L22,11.4999 C22,11.2249 22.225,10.9999 22.5,10.9999 Z M12,2 C12.276,2 12.499,2.224 12.499,2.5 L12.495,16.2924 L17.639,11.1464 C17.834,10.9514 18.15,10.9514 18.345,11.1464 C18.54,11.3414 18.54,11.6584 18.345,11.8534 L12.35,17.8534 C12.304,17.8994 12.248,17.9354 12.187,17.9614 C12.126,17.9874 12.061,17.9994 11.996,17.9994 C11.931,17.9994 11.866,17.9874 11.805,17.9614 C11.744,17.9354 11.688,17.8994 11.642,17.8534 L5.647,11.8534 C5.451,11.6584 5.451,11.3414 5.647,11.1464 C5.842,10.9514 6.158,10.9514 6.354,11.1464 L11.5,16.2924 L11.504,2.5 C11.504,2.224 11.724,2 12,2 Z" id="import_24" fill="#00090D"></path>
    </g>
</svg>