<svg width="36" height="36" viewBox="0 0 36 36" fill="none" xmlns="http://www.w3.org/2000/svg">
<g id="Type=in-progress-filled_36">
<path id="in-progress_36" fill-rule="evenodd" clip-rule="evenodd" d="M18 36C27.9405 36 36 27.9405 36 18C36 8.0595 27.9405 0 18 0C8.0595 0 0 8.0595 0 18C0 27.9405 8.0595 36 18 36ZM9.5 19C10.3284 19 11 18.3284 11 17.5C11 16.6716 10.3284 16 9.5 16C8.67157 16 8 16.6716 8 17.5C8 18.3284 8.67157 19 9.5 19ZM28 17.5C28 18.3284 27.3284 19 26.5 19C25.6716 19 25 18.3284 25 17.5C25 16.6716 25.6716 16 26.5 16C27.3284 16 28 16.6716 28 17.5ZM18 19C18.8284 19 19.5 18.3284 19.5 17.5C19.5 16.6716 18.8284 16 18 16C17.1716 16 16.5 16.6716 16.5 17.5C16.5 18.3284 17.1716 19 18 19Z" fill="#005E7D"/>
</g>
</svg>
