<svg width="16" height="16" viewBox="0 0 16 16" fill="none" xmlns="http://www.w3.org/2000/svg">
<g id="Type=in-progress-filled_16">
<path id="in-progress_16" fill-rule="evenodd" clip-rule="evenodd" d="M8 16C12.418 16 16 12.418 16 8C16 3.582 12.418 0 8 0C3.582 0 0 3.582 0 8C0 12.418 3.582 16 8 16ZM4 9C4.55228 9 5 8.55229 5 8C5 7.44772 4.55228 7 4 7C3.44772 7 3 7.44772 3 8C3 8.55229 3.44772 9 4 9ZM9 8C9 8.55229 8.55229 9 8 9C7.44772 9 7 8.55229 7 8C7 7.44772 7.44772 7 8 7C8.55229 7 9 7.44772 9 8ZM12 9C12.5523 9 13 8.55229 13 8C13 7.44772 12.5523 7 12 7C11.4477 7 11 7.44772 11 8C11 8.55229 11.4477 9 12 9Z" fill="#005E7D"/>
</g>
</svg>
