<svg width="40" height="40" viewBox="0 0 40 40" fill="none" xmlns="http://www.w3.org/2000/svg">
<g id=".in-progress-illustration_40">
<rect id="secondary-color" opacity="0.1" width="40" height="40" rx="20" fill="#005E7D"/>
<g id=".in-progress (v2)">
<path id="in-progress_24" fill-rule="evenodd" clip-rule="evenodd" d="M19 9C19 8.44772 19.4477 8 20 8C26.6274 8 32 13.3726 32 20C32 26.6274 26.6274 32 20 32C13.3726 32 8 26.6274 8 20C8 19.4477 8.44772 19 9 19C9.55228 19 10 19.4477 10 20C10 25.5228 14.4772 30 20 30C25.5228 30 30 25.5228 30 20C30 14.4772 25.5228 10 20 10C19.4477 10 19 9.55228 19 9Z" fill="#005E7D"/>
</g>
</g>
</svg>
