<svg width="18" height="18" viewBox="0 0 18 18" fill="none" xmlns="http://www.w3.org/2000/svg">
<g id="Type=in-progress-filled_18">
<path id="in-progress_18" fill-rule="evenodd" clip-rule="evenodd" d="M9 18C13.9703 18 18 13.9703 18 9C18 4.02975 13.9703 0 9 0C4.02975 0 0 4.02975 0 9C0 13.9703 4.02975 18 9 18ZM5 10C5.55228 10 6 9.55229 6 9C6 8.44771 5.55228 8 5 8C4.44772 8 4 8.44771 4 9C4 9.55229 4.44772 10 5 10ZM10 9C10 9.55229 9.55229 10 9 10C8.44771 10 8 9.55229 8 9C8 8.44771 8.44771 8 9 8C9.55229 8 10 8.44771 10 9ZM13 10C13.5523 10 14 9.55229 14 9C14 8.44771 13.5523 8 13 8C12.4477 8 12 8.44771 12 9C12 9.55229 12.4477 10 13 10Z" fill="#005E7D"/>
</g>
</svg>
