<svg width="40" height="40" viewBox="0 0 40 40" fill="none" xmlns="http://www.w3.org/2000/svg">
<g id="Size=40">
<path id="secondary-color" fill-rule="evenodd" clip-rule="evenodd" d="M20 0C8.95431 0 0 8.95431 0 20C0 31.0457 8.95431 40 20 40C31.0457 40 40 31.0457 40 20C40 8.95431 31.0457 0 20 0ZM20 10C14.4772 10 10 14.4772 10 20C10 25.5228 14.4772 30 20 30C25.5228 30 30 25.5228 30 20C30 14.4772 25.5228 10 20 10Z" fill="#91EBFF" fill-opacity="0.2"/>
<g id="info-filled_24">
<path id="info-filled_24_2" fill-rule="evenodd" clip-rule="evenodd" d="M20 32C26.6274 32 32 26.6274 32 20C32 13.3726 26.6274 8 20 8C13.3726 8 8 13.3726 8 20C8 26.6274 13.3726 32 20 32ZM19.9998 13.8C20.3864 13.8 20.6998 14.1134 20.6998 14.5V15.5C20.6998 15.8866 20.3864 16.2 19.9998 16.2C19.6132 16.2 19.2998 15.8866 19.2998 15.5V14.5C19.2998 14.1134 19.6132 13.8 19.9998 13.8ZM19.9996 18.375C20.3448 18.375 20.6246 18.6548 20.6246 19V26.5001C20.6246 26.8453 20.3448 27.1251 19.9996 27.1251C19.6544 27.1251 19.3746 26.8453 19.3746 26.5001V19C19.3746 18.6548 19.6544 18.375 19.9996 18.375Z" fill="#00A0D1"/>
</g>
</g>
</svg>
