<?xml version="1.0" encoding="UTF-8"?>
<svg width="16px" height="16px" viewBox="0 0 16 16" version="1.1" xmlns="http://www.w3.org/2000/svg" xmlns:xlink="http://www.w3.org/1999/xlink">
    <!-- Generator: Sketch 60.1 (88133) - https://sketch.com -->
    <title>Alert and Notification/info/info_16</title>
    <desc>Created with Sketch.</desc>
    <g id="Alert-and-Notification/info/info_16" stroke="none" stroke-width="1" fill="none" fill-rule="evenodd">
        <path d="M8,16 C3.581722,16 0,12.418278 0,8 C0,3.581722 3.581722,0 8,0 C12.418278,0 16,3.581722 16,8 C16,12.418278 12.418278,16 8,16 Z M8,15 C11.8659932,15 15,11.8659932 15,8 C15,4.13400675 11.8659932,1 8,1 C4.13400675,1 1,4.13400675 1,8 C1,11.8659932 4.13400675,15 8,15 Z M8.5,11.5 C8.5,11.7761424 8.27614237,12 8,12 C7.72385763,12 7.5,11.7761424 7.5,11.5 L7.5,7.5 C7.5,7.22385763 7.72385763,7 8,7 C8.27614237,7 8.5,7.22385763 8.5,7.5 L8.5,11.5 Z M7.5,4.5 C7.5,4.22385763 7.72385763,4 8,4 C8.27614237,4 8.5,4.22385763 8.5,4.5 L8.5,5 C8.5,5.27614237 8.27614237,5.5 8,5.5 C7.72385763,5.5 7.5,5.27614237 7.5,5 L7.5,4.5 Z" id="info_16" fill="#00090D"></path>
    </g>
</svg>