<svg width="24" height="24" viewBox="0 0 24 24" fill="none" xmlns="http://www.w3.org/2000/svg">
<g id="Type=info-filled_24">
<path id="info_24" fill-rule="evenodd" clip-rule="evenodd" d="M12 24C5.37258 24 0 18.6274 0 12C0 5.37258 5.37258 0 12 0C18.6274 0 24 5.37258 24 12C24 18.6274 18.6274 24 12 24ZM11.5 6.5C11.5 6.22386 11.7239 6 12 6C12.2761 6 12.5 6.22386 12.5 6.5V7C12.5 7.27614 12.2761 7.5 12 7.5C11.7239 7.5 11.5 7.27614 11.5 7V6.5ZM11.5 9.5C11.5 9.22386 11.7239 9 12 9C12.2761 9 12.5 9.22386 12.5 9.5V17.5C12.5 17.7761 12.2761 18 12 18C11.7239 18 11.5 17.7761 11.5 17.5V9.5Z" fill="#00A0D1"/>
</g>
</svg>
