<?xml version="1.0" encoding="UTF-8"?>
<svg width="18px" height="18px" viewBox="0 0 18 18" version="1.1" xmlns="http://www.w3.org/2000/svg" xmlns:xlink="http://www.w3.org/1999/xlink">
    <!-- Generator: Sketch 60.1 (88133) - https://sketch.com -->
    <title>Alert and Notification/info/info_18</title>
    <desc>Created with Sketch.</desc>
    <g id="Alert-and-Notification/info/info_18" stroke="none" stroke-width="1" fill="none" fill-rule="evenodd">
        <path d="M9,18 C4.02943725,18 0,13.9705627 0,9 C0,4.02943725 4.02943725,0 9,0 C13.9705627,0 18,4.02943725 18,9 C18,13.9705627 13.9705627,18 9,18 Z M9,17 C13.418278,17 17,13.418278 17,9 C17,4.581722 13.418278,1 9,1 C4.581722,1 1,4.581722 1,9 C1,13.418278 4.581722,17 9,17 Z M9.5,12.5 C9.5,12.7761424 9.27614237,13 9,13 C8.72385763,13 8.5,12.7761424 8.5,12.5 L8.5,8.5 C8.5,8.22385763 8.72385763,8 9,8 C9.27614237,8 9.5,8.22385763 9.5,8.5 L9.5,12.5 Z M8.5,5.5 C8.5,5.22385763 8.72385763,5 9,5 C9.27614237,5 9.5,5.22385763 9.5,5.5 L9.5,6 C9.5,6.27614237 9.27614237,6.5 9,6.5 C8.72385763,6.5 8.5,6.27614237 8.5,6 L8.5,5.5 Z" id="info_18" fill="#00090D"></path>
    </g>
</svg>