<?xml version="1.0" encoding="UTF-8"?>
<svg width="24px" height="24px" viewBox="0 0 24 24" version="1.1" xmlns="http://www.w3.org/2000/svg" xmlns:xlink="http://www.w3.org/1999/xlink">
    <!-- Generator: Sketch 60.1 (88133) - https://sketch.com -->
    <title>Alert and Notification/info/info_24</title>
    <desc>Created with Sketch.</desc>
    <g id="Alert-and-Notification/info/info_24" stroke="none" stroke-width="1" fill="none" fill-rule="evenodd">
        <path d="M12,24 C5.372583,24 0,18.627417 0,12 C0,5.372583 5.372583,0 12,0 C18.627417,0 24,5.372583 24,12 C24,18.627417 18.627417,24 12,24 Z M12,23 C18.0751322,23 23,18.0751322 23,12 C23,5.92486775 18.0751322,1 12,1 C5.92486775,1 1,5.92486775 1,12 C1,18.0751322 5.92486775,23 12,23 Z M11.5,6.5 C11.5,6.22385763 11.7238576,6 12,6 C12.2761424,6 12.5,6.22385763 12.5,6.5 L12.5,7 C12.5,7.27614237 12.2761424,7.5 12,7.5 C11.7238576,7.5 11.5,7.27614237 11.5,7 L11.5,6.5 Z M11.5,9.5 C11.5,9.22385763 11.7238576,9 12,9 C12.2761424,9 12.5,9.22385763 12.5,9.5 L12.5,17.5 C12.5,17.7761424 12.2761424,18 12,18 C11.7238576,18 11.5,17.7761424 11.5,17.5 L11.5,9.5 Z" id="info_24" fill="#00090D"></path>
    </g>
</svg>