<?xml version="1.0" encoding="UTF-8"?>
<svg width="36px" height="36px" viewBox="0 0 36 36" version="1.1" xmlns="http://www.w3.org/2000/svg" xmlns:xlink="http://www.w3.org/1999/xlink">
    <!-- Generator: Sketch 60.1 (88133) - https://sketch.com -->
    <title>Alert and Notification/info/info_36</title>
    <desc>Created with Sketch.</desc>
    <g id="Alert-and-Notification/info/info_36" stroke="none" stroke-width="1" fill="none" fill-rule="evenodd">
        <path d="M18,36 C8.0588745,36 0,27.9411255 0,18 C0,8.0588745 8.0588745,0 18,0 C27.9411255,0 36,8.0588745 36,18 C36,27.9411255 27.9411255,36 18,36 Z M18,34 C26.836556,34 34,26.836556 34,18 C34,9.163444 26.836556,2 18,2 C9.163444,2 2,9.163444 2,18 C2,26.836556 9.163444,34 18,34 Z M18,13.5 C18.5522847,13.5 19,13.9477153 19,14.5 L19,26 C19,26.5522847 18.5522847,27 18,27 C17.4477153,27 17,26.5522847 17,26 L17,14.5 C17,13.9477153 17.4477153,13.5 18,13.5 Z M18,9 C18.5522847,9 19,9.44771525 19,10 L19,11 C19,11.5522847 18.5522847,12 18,12 C17.4477153,12 17,11.5522847 17,11 L17,10 C17,9.44771525 17.4477153,9 18,9 Z" id="info_36" fill="#00090D"></path>
    </g>
</svg>