<?xml version="1.0" encoding="UTF-8"?>
<svg width="16px" height="16px" viewBox="0 0 16 16" version="1.1" xmlns="http://www.w3.org/2000/svg" xmlns:xlink="http://www.w3.org/1999/xlink">
    <title>Navigation / inherited-settings / inherited-settings_16</title>
    <g id="Navigation-/-inherited-settings-/-inherited-settings_16" stroke="none" stroke-width="1" fill="none" fill-rule="evenodd">
        <path d="M5,0 C7.76142375,0 10,2.23857625 10,5 C10,6.20065927 9.57680031,7.30247496 8.87143006,8.16441794 L11.2618047,10.5545749 C11.7522009,10.2053754 12.3521164,10 13,10 C14.6568542,10 16,11.3431458 16,13 C16,14.6568542 14.6568542,16 13,16 C11.3431458,16 10,14.6568542 10,13 C10,12.3521164 10.2053754,11.7522009 10.5545749,11.2618047 L8.16441794,8.87143006 C7.30247496,9.57680031 6.20065927,10 5,10 C2.23857625,10 0,7.76142375 0,5 C0,2.23857625 2.23857625,0 5,0 Z M13,11 C11.8954305,11 11,11.8954305 11,13 C11,14.1045695 11.8954305,15 13,15 C14.1045695,15 15,14.1045695 15,13 C15,11.8954305 14.1045695,11 13,11 Z M5,1 C2.790861,1 1,2.790861 1,5 C1,7.209139 2.790861,9 5,9 C7.209139,9 9,7.209139 9,5 C9,2.790861 7.209139,1 5,1 Z" id="inherited-settings_16" fill="#000000" fill-rule="nonzero"></path>
    </g>
</svg>