<?xml version="1.0" encoding="UTF-8"?>
<svg width="24px" height="24px" viewBox="0 0 24 24" version="1.1" xmlns="http://www.w3.org/2000/svg" xmlns:xlink="http://www.w3.org/1999/xlink">
    <title>Navigation / inherited-settings / inherited-settings-broken_24</title>
    <g id="Navigation-/-inherited-settings-/-inherited-settings-broken_24" stroke="none" stroke-width="1" fill="none" fill-rule="evenodd">
        <path d="M19.5,15 C21.9852814,15 24,17.0147186 24,19.5 C24,21.9852814 21.9852814,24 19.5,24 C17.0147186,24 15,21.9852814 15,19.5 C15,18.8052197 15.1574557,18.1472151 15.43863,17.5597233 L16.2023589,18.3243128 C16.071342,18.6917677 16,19.0875525 16,19.5 C16,21.4329966 17.5670034,23 19.5,23 C21.4329966,23 23,21.4329966 23,19.5 C23,17.5670034 21.4329966,16 19.5,16 C19.0875525,16 18.6917677,16.071342 18.3243128,16.2023589 L17.5597233,15.43863 C18.1472151,15.1574557 18.8052197,15 19.5,15 Z M11.3535534,17.6464466 C11.5271197,17.820013 11.5464049,18.0894374 11.4114088,18.2843055 L11.3535534,18.3535534 L7.85355339,21.8535534 C7.65829124,22.0488155 7.34170876,22.0488155 7.14644661,21.8535534 C6.97288026,21.679987 6.95359511,21.4105626 7.08859116,21.2156945 L7.14644661,21.1464466 L10.6464466,17.6464466 C10.8417088,17.4511845 11.1582912,17.4511845 11.3535534,17.6464466 Z M7.5,0 C11.6421356,0 15,3.35786438 15,7.5 C15,9.02861476 14.5426901,10.4504191 13.7574187,11.6360645 L13.0332424,10.9124744 C13.646236,9.92063185 14,8.75162893 14,7.5 C14,3.91014913 11.0898509,1 7.5,1 C3.91014913,1 1,3.91014913 1,7.5 C1,11.0898509 3.91014913,14 7.5,14 C8.75162893,14 9.92063185,13.646236 10.9124744,13.0332424 L11.6360645,13.7574187 C10.4504191,14.5426901 9.02861476,15 7.5,15 C3.35786438,15 0,11.6421356 0,7.5 C0,3.35786438 3.35786438,0 7.5,0 Z M21.8535534,7.14644661 C22.0271197,7.32001296 22.0464049,7.58943736 21.9114088,7.7843055 L21.8535534,7.85355339 L18.3535534,11.3535534 C18.1582912,11.5488155 17.8417088,11.5488155 17.6464466,11.3535534 C17.4728803,11.179987 17.4535951,10.9105626 17.5885912,10.7156945 L17.6464466,10.6464466 L21.1464466,7.14644661 C21.3417088,6.95118446 21.6582912,6.95118446 21.8535534,7.14644661 Z" id="inherited-settings-broken_24" fill="#121212"></path>
    </g>
</svg>