<?xml version="1.0" encoding="UTF-8"?>
<svg width="16px" height="16px" viewBox="0 0 16 16" version="1.1" xmlns="http://www.w3.org/2000/svg" xmlns:xlink="http://www.w3.org/1999/xlink">
    <title>Navigation / inherited-settings / inherited-settings-broken_16</title>
    <g id="Navigation-/-inherited-settings-/-inherited-settings-broken_16" stroke="none" stroke-width="1" fill="none" fill-rule="evenodd">
        <path d="M13,10 C14.6568542,10 16,11.3431458 16,13 C16,14.6568542 14.6568542,16 13,16 C11.3431458,16 10,14.6568542 10,13 C10,12.5371241 10.1048295,12.0987325 10.2920425,11.7072712 L11.0674756,12.4829588 C11.0234621,12.6478854 11,12.8212028 11,13 C11,14.1045695 11.8954305,15 13,15 C14.1045695,15 15,14.1045695 15,13 C15,11.8954305 14.1045695,11 13,11 C12.8212028,11 12.6478854,11.0234621 12.4829588,11.0674756 L11.7072712,10.2920425 C12.0987325,10.1048295 12.5371241,10 13,10 Z M7.7325,11.2675 C7.92773378,11.4627338 7.92773687,11.7792693 7.73250691,11.9745069 L5.35355339,14.3535534 C5.15829124,14.5488155 4.84170876,14.5488155 4.64644661,14.3535534 C4.47288026,14.179987 4.45359511,13.9105626 4.58859116,13.7156945 L4.64644661,13.6464466 L7.02549309,11.2674931 C7.22073068,11.0722631 7.53726622,11.0722662 7.7325,11.2675 Z M5,0 C7.76142375,0 10,2.23857625 10,5 C10,6.01910722 9.69510834,6.96700318 9.1715651,7.75744781 L8.44676165,7.03098422 C8.79829277,6.43568963 9,5.74140044 9,5 C9,2.790861 7.209139,1 5,1 C2.790861,1 1,2.790861 1,5 C1,7.209139 2.790861,9 5,9 C5.74140044,9 6.43568963,8.79829277 7.03098422,8.44676165 L7.75744781,9.1715651 C6.96700318,9.69510834 6.01910722,10 5,10 C2.23857625,10 0,7.76142375 0,5 C0,2.23857625 2.23857625,0 5,0 Z M14.3535534,4.64644661 C14.5271197,4.82001296 14.5464049,5.08943736 14.4114088,5.2843055 L14.3535534,5.35355339 L11.9745069,7.73250691 C11.7792693,7.92773687 11.4627338,7.92773378 11.2675,7.7325 C11.0722662,7.53726622 11.0722631,7.22073068 11.2674931,7.02549309 L13.6464466,4.64644661 C13.8417088,4.45118446 14.1582912,4.45118446 14.3535534,4.64644661 Z" id="inherited-settings-broken_16" fill="#000000" fill-rule="nonzero"></path>
    </g>
</svg>