<?xml version="1.0" encoding="UTF-8"?>
<svg width="24px" height="24px" viewBox="0 0 24 24" version="1.1" xmlns="http://www.w3.org/2000/svg" xmlns:xlink="http://www.w3.org/1999/xlink">
    <title>Navigation / inherited-settings / inherited-settings_24</title>
    <g id="Navigation-/-inherited-settings-/-inherited-settings_24" stroke="none" stroke-width="1" fill="none" fill-rule="evenodd">
        <path d="M7.5,0 C11.6421356,0 15,3.35786438 15,7.5 C15,9.39108988 14.3000954,11.1187083 13.1451944,12.4379469 L16.6913744,15.9838765 C17.4611762,15.3681672 18.4375931,15 19.5,15 C21.9852814,15 24,17.0147186 24,19.5 C24,21.9852814 21.9852814,24 19.5,24 C17.0147186,24 15,21.9852814 15,19.5 C15,18.4375931 15.3681672,17.4611762 15.9838765,16.6913744 L12.4379469,13.1451944 C11.1187083,14.3000954 9.39108988,15 7.5,15 C3.35786438,15 0,11.6421356 0,7.5 C0,3.35786438 3.35786438,0 7.5,0 Z M19.5,16 C17.5670034,16 16,17.5670034 16,19.5 C16,21.4329966 17.5670034,23 19.5,23 C21.4329966,23 23,21.4329966 23,19.5 C23,17.5670034 21.4329966,16 19.5,16 Z M7.5,1 C3.91014913,1 1,3.91014913 1,7.5 C1,11.0898509 3.91014913,14 7.5,14 C11.0898509,14 14,11.0898509 14,7.5 C14,3.91014913 11.0898509,1 7.5,1 Z" id="inherited-settings_24" fill="#121212"></path>
    </g>
</svg>