<?xml version="1.0" encoding="UTF-8"?>
<svg width="16px" height="16px" viewBox="0 0 16 16" version="1.1" xmlns="http://www.w3.org/2000/svg" xmlns:xlink="http://www.w3.org/1999/xlink">
    <!-- Generator: Sketch 60.1 (88133) - https://sketch.com -->
    <title>Action / insert_16</title>
    <desc>Created with Sketch.</desc>
    <g id="Action-/-insert_16" stroke="none" stroke-width="1" fill="none" fill-rule="evenodd">
        <path d="M2,7 L0.5,7 C0.223857625,7 -5.15143483e-14,6.77614237 -5.15143483e-14,6.5 C-5.15143483e-14,6.22385763 0.223857625,6 0.5,6 L2.5,6 C2.77614237,6 3,6.22385763 3,6.5 L3,14.5 C3,14.7761424 3.22385763,15 3.5,15 L12.5,15 C12.7761424,15 13,14.7761424 13,14.5 L13,6.5 C13,6.22385763 13.2238576,6 13.5,6 L15.5002567,6 C15.7763991,6 16.0002567,6.22385763 16.0002567,6.5 C16.0002567,6.77614237 15.7763991,7 15.5002567,7 L14,7 L14,14.5 C14,15.3284271 13.3284271,16 12.5,16 L3.5,16 C2.67157288,16 2,15.3284271 2,14.5 L2,7 Z M7.85282559,12.9440955 C7.79201441,12.9186396 7.73622368,12.8825065 7.69026174,12.8365445 L5.1463711,10.3010106 C4.95120963,10.1058491 4.95120963,9.78906529 5.1463711,9.59390382 C5.34223968,9.39803524 5.65831641,9.39874235 5.85347788,9.59390382 L7.54389064,11.2759598 L7.52359264,0.499925201 C7.52359285,0.361332484 7.57874695,0.236881463 7.66925662,0.146371795 C7.75976629,0.0558621274 7.88492513,2.30038211e-13 8.02351784,2.30038211e-13 C8.29928913,2.30038211e-13 8.52273488,0.223446096 8.52344163,0.499925201 L8.54366892,11.2760306 L10.1714806,9.59393918 C10.3673492,9.3980706 10.6834259,9.39877771 10.8785874,9.59393918 C11.0737489,9.78910065 11.074456,10.1051774 10.8785874,10.301046 L8.39736852,12.8365445 C8.35140658,12.8825065 8.29688865,12.9186396 8.23607747,12.9440955 C8.11304089,12.9950071 7.97515506,12.9957142 7.85282559,12.9440955 Z" id="insert_16" fill="#00090D"></path>
    </g>
</svg>