<?xml version="1.0" encoding="UTF-8"?>
<svg width="16px" height="16px" viewBox="0 0 16 16" version="1.1" xmlns="http://www.w3.org/2000/svg" xmlns:xlink="http://www.w3.org/1999/xlink">
    <!-- Generator: Sketch 60.1 (88133) - https://sketch.com -->
    <title>Action / install_16</title>
    <desc>Created with Sketch.</desc>
    <g id="Action-/-install_16" stroke="none" stroke-width="1" fill="none" fill-rule="evenodd">
        <path d="M1.00004,7.20494 C1.00004,6.75949 1.53861,6.53641 1.85359,6.85139 L1.85359,6.85139 C1.94736,6.94516 2.00004,7.07233 2.00004,7.20494 L2.00004,14.0007 C2.00004,14.553 2.44776,15.0007 3.00004,15.0007 L14,15.0007 C14.5523,15.0007 15,14.553 15,14.0007 L15,3.00065 C15,2.44837 14.5523,2.00065 14,2.00065 L7.20714,2.00065 C7.07453,2.00065 6.94736,1.94798 6.85359,1.85421 L6.85359,1.85421 C6.53861,1.53923 6.76169,1.00065 7.20714,1.00065 L14,1.00065 C15.1046,1.00065 16,1.89608 16,3.00065 L16,14.0007 C16,15.1053 15.1046,16.0007 14,16.0007 L3.00004,16.0007 C1.89547,16.0007 1.00004,15.1053 1.00004,14.0007 L1.00004,7.20494 Z M11.691,11.962 C11.63,11.987 11.565,12.0009 11.5,12.0009 L6.50004,12.0009 C6.22404,12.0009 6.00004,11.7769 6.00004,11.5009 C6.00004,11.2239 6.22404,11.0009 6.50004,11.0009 L10.293,11.0009 L0.164286689,0.862643272 C0.0662866893,0.764643272 0.0172866893,0.637643272 0.0172866893,0.509643272 C0.0172866893,0.381643272 0.0662866893,0.253642272 0.164286689,0.155642272 C0.359286689,-0.0393577282 0.675290689,-0.0393577282 0.871290689,0.155643272 L11,10.294 L11,6.5009 C11,6.2239 11.224,6.0009 11.5,6.0009 C11.776,6.0009 12,6.2239 12,6.5009 L12,11.5009 C12,11.5659 11.987,11.63 11.962,11.691 C11.911,11.814 11.814,11.912 11.691,11.962 Z" id="install_16" fill="#00090D"></path>
    </g>
</svg>