<?xml version="1.0" encoding="UTF-8"?>
<svg width="16px" height="16px" viewBox="0 0 16 16" version="1.1" xmlns="http://www.w3.org/2000/svg" xmlns:xlink="http://www.w3.org/1999/xlink">
    <!-- Generator: Sketch 60.1 (88133) - https://sketch.com -->
    <title>Networking / interface / interface-filled_16</title>
    <desc>Created with Sketch.</desc>
    <g id="Networking-/-interface-/-interface-filled_16" stroke="none" stroke-width="1" fill="none" fill-rule="evenodd">
        <path d="M1.5,13 L14.5,13 C15.3284271,13 16,13.6715729 16,14.5 C16,15.3284271 15.3284271,16 14.5,16 L1.5,16 C0.671572875,16 -4.70734562e-14,15.3284271 -4.70734562e-14,14.5 C-4.70734562e-14,13.6715729 0.671572875,13 1.5,13 Z M3,14 L3,15 L4,15 L4,14 L3,14 Z M6,14 L6,15 L7,15 L7,14 L6,14 Z M9,14 L9,15 L10,15 L10,14 L9,14 Z M12,14 L12,15 L13,15 L13,14 L12,14 Z M11.99975,1.70429233 L11.99975,11 C11.99975,11.2761424 11.7758924,11.5 11.49975,11.5 C11.2236076,11.5 10.99975,11.2761424 10.99975,11 L10.99975,1.70717792 L8.85356812,3.85353866 C8.65831411,4.04880894 8.34173162,4.04882213 8.14646134,3.85356812 C7.95119106,3.65831411 7.95117787,3.34173162 8.14643188,3.14646134 L11.1461819,0.146461343 C11.3412136,-0.0485866325 11.6573571,-0.0488543468 11.8527189,0.145863038 L14.862647,3.14586304 C15.0582314,3.34080235 15.0587544,3.65738441 14.8638151,3.85296885 C14.6688758,4.0485533 14.3522937,4.04907628 14.1567093,3.85413696 L11.99975,1.70429233 Z M4.00992815,10.2957077 L4.00992815,0.5 C4.00992815,0.223857625 4.23378578,8.07793567e-28 4.50992815,8.07793567e-28 C4.78607053,8.07793567e-28 5.00992815,0.223857625 5.00992815,0.5 L5.00992815,10.2928221 L7.15611003,8.14646134 C7.35136404,7.95119106 7.66794653,7.95117787 7.86321681,8.14643188 C8.0584871,8.34168589 8.05850029,8.65826838 7.86324628,8.85353866 L4.86349628,11.8535387 C4.66846456,12.0485866 4.35232108,12.0488544 4.1569593,11.854137 L1.14703115,8.85413697 C0.951446707,8.65919765 0.950923726,8.34261559 1.14586304,8.14703115 C1.34080236,7.95144671 1.65738441,7.95092373 1.85296886,8.14586304 L4.00992815,10.2957077 Z" id="interface-filled_16" fill="#00090D"></path>
    </g>
</svg>