<?xml version="1.0" encoding="UTF-8"?>
<svg width="16px" height="16px" viewBox="0 0 16 16" version="1.1" xmlns="http://www.w3.org/2000/svg" xmlns:xlink="http://www.w3.org/1999/xlink">
    <!-- Generator: Sketch 60.1 (88133) - https://sketch.com -->
    <title>Networking/ip-pool_16</title>
    <desc>Created with Sketch.</desc>
    <g id="Networking/ip-pool_16" stroke="none" stroke-width="1" fill="none" fill-rule="evenodd">
        <path d="M2,0 L14,0 C15.1045695,0 16,0.8954305 16,2 L16,14 C16,15.1045695 15.1045695,16 14,16 L2,16 C0.8954305,16 0,15.1045695 0,14 L0,2 C0,0.8954305 0.8954305,0 2,0 Z M3.5,1 C2.67157288,1 2,1.67157288 2,2.5 L2,13.5 C2,14.3284271 2.67157288,15 3.5,15 C4.32842712,15 5,14.3284271 5,13.5 L5,2.5 C5,1.67157288 4.32842712,1 3.5,1 Z M8,1 C7.17157288,1 6.5,1.67157288 6.5,2.5 L6.5,13.5 C6.5,14.3284271 7.17157288,15 8,15 C8.82842712,15 9.5,14.3284271 9.5,13.5 L9.5,2.5 C9.5,1.67157288 8.82842712,1 8,1 Z M12.5,1 C11.6715729,1 11,1.67157288 11,2.5 L11,13.5 C11,14.3284271 11.6715729,15 12.5,15 C13.3284271,15 14,14.3284271 14,13.5 L14,2.5 C14,1.67157288 13.3284271,1 12.5,1 Z M3.5,9.00176308 C3.77614237,9.00176308 4,9.22562071 4,9.50176308 L4,13.5017631 C4,13.7779055 3.77614237,14.0017631 3.5,14.0017631 C3.22385763,14.0017631 3,13.7779055 3,13.5017631 L3,9.50176308 C3,9.22562071 3.22385763,9.00176308 3.5,9.00176308 Z M8,5 C8.27614237,5 8.5,5.22385763 8.5,5.5 L8.5,13.5 C8.5,13.7761424 8.27614237,14 8,14 C7.72385763,14 7.5,13.7761424 7.5,13.5 L7.5,5.5 C7.5,5.22385763 7.72385763,5 8,5 Z M12.5,9 C12.7761424,9 13,9.22385763 13,9.5 L13,13.5 C13,13.7761424 12.7761424,14 12.5,14 C12.2238576,14 12,13.7761424 12,13.5 L12,9.5 C12,9.22385763 12.2238576,9 12.5,9 Z" id="ip-pool_16" fill="#00090D"></path>
    </g>
</svg>