<?xml version="1.0" encoding="UTF-8"?>
<svg width="24px" height="24px" viewBox="0 0 24 24" version="1.1" xmlns="http://www.w3.org/2000/svg" xmlns:xlink="http://www.w3.org/1999/xlink">
    <!-- Generator: Sketch 60.1 (88133) - https://sketch.com -->
    <title>Networking / ips &amp; ids / ips_24</title>
    <desc>Created with Sketch.</desc>
    <g id="Networking-/-ips-&amp;-ids-/-ips_24" stroke="none" stroke-width="1" fill="none" fill-rule="evenodd">
        <path d="M3.5,1 L20.5,1 C21.8807119,1 23,2.11928813 23,3.5 L23,20.5 C23,21.8807119 21.8807119,23 20.5,23 L3.5,23 C2.11928813,23 1,21.8807119 1,20.5 L1,3.5 C1,2.11928813 2.11928813,1 3.5,1 Z M3.5,2 C2.67157288,2 2,2.67157288 2,3.5 L2,20.5 C2,21.3284271 2.67157288,22 3.5,22 L20.5,22 C21.3284271,22 22,21.3284271 22,20.5 L22,3.5 C22,2.67157288 21.3284271,2 20.5,2 L3.5,2 Z M4.86195319,7.00585832 C6.11843791,4.62376013 8.6195942,3 11.5,3 C15.6421356,3 19,6.35786438 19,10.5 C19,11.3787781 18.8488622,12.2222561 18.5711624,13.0058583 L19.4996339,13.0058583 C19.7757763,13.0058583 19.9996339,13.2297159 19.9996339,13.5058583 C19.9996339,13.7820007 19.7757763,14.0058583 19.4996339,14.0058583 L18.1318534,14.0058583 C17.7479917,14.7304855 17.2488437,15.3846607 16.6588468,15.9439464 L20.8535534,20.1464466 C21.0488155,20.3417088 21.0488155,20.6582912 20.8535534,20.8535534 C20.6582912,21.0488155 20.3417088,21.0488155 20.1464466,20.8535534 L15.8856065,16.5847968 C14.6522822,17.4752717 13.1374195,18 11.5,18 C7.35786438,18 4,14.6421356 4,10.5 C4,9.62560015 4.14963551,8.78614954 4.4246964,8.00585832 C4.12581578,8.00585832 3.81758385,8.00585832 3.5,8.00585832 C3.22385763,8.00585832 3,7.78200069 3,7.50585832 C3,7.22971594 3.22385763,7.00585832 3.5,7.00585832 L4.86195319,7.00585832 Z M6.01807167,7.00585832 L11.0932833,7.00585832 L10.5366166,5.61282402 C10.5101598,5.54661711 10.5132298,5.47226395 10.5450545,5.40846346 C10.6066848,5.28491039 10.7568056,5.23471204 10.8803586,5.29634232 L14.8611704,7.28203582 C14.9097502,7.30626821 14.9491219,7.34565539 14.9733352,7.3942447 C15.0349171,7.51782194 14.9846598,7.667923 14.8610826,7.72950482 L10.8804261,9.71317159 C10.8166174,9.7449692 10.7422683,9.74801183 10.6760747,9.72153439 C10.5478789,9.67025604 10.4855249,9.52476343 10.5368032,9.39656755 L11.0930869,8.00585832 L11.0930631,8.00585832 C10.4667307,8.00585832 9.95788,8.00585832 9.56651115,8.00585832 C8.57453911,8.00585832 7.21760948,8.00585832 5.49572228,8.00585832 C5.17633011,8.77387702 5,9.61634646 5,10.5 C5,14.0898509 7.91014913,17 11.5,17 C13.7987169,17 15.8187341,15.8067446 16.974427,14.0058583 L13.4331227,14.0058583 C13.0417539,14.0058583 12.5329032,14.0058583 11.9065708,14.0058583 L11.906547,14.0058583 L12.4628307,15.3965675 C12.514109,15.5247634 12.451755,15.670256 12.3235592,15.7215344 C12.2573655,15.7480118 12.1830165,15.7449692 12.1192077,15.7131716 L8.13855128,13.7295048 C8.01497405,13.667923 7.96471683,13.5178219 8.02629865,13.3942447 C8.05051199,13.3456554 8.08988372,13.3062682 8.13846353,13.2820358 L12.1192752,11.2963423 C12.2428283,11.234712 12.3929491,11.2849104 12.4545794,11.4084635 C12.4864041,11.4722639 12.4894741,11.5466171 12.4630173,11.612824 L11.9063506,13.0058583 L17.4993902,13.0058583 C17.8218711,12.2346944 18,11.3881493 18,10.5 C18,6.91014913 15.0898509,4 11.5,4 C9.19630157,4 7.17251211,5.19843279 6.01807167,7.00585832 Z" id="ips_24" fill="#00090D"></path>
    </g>
</svg>