<?xml version="1.0" encoding="UTF-8"?>
<svg width="36px" height="36px" viewBox="0 0 36 36" version="1.1" xmlns="http://www.w3.org/2000/svg" xmlns:xlink="http://www.w3.org/1999/xlink">
    <!-- Generator: Sketch 60.1 (88133) - https://sketch.com -->
    <title>Networking / ENCS / ISR_36</title>
    <desc>Created with Sketch.</desc>
    <g id="Networking-/-ENCS-/-ISR_36" stroke="none" stroke-width="1" fill="none" fill-rule="evenodd">
        <path d="M9.5,23 C9.77614237,23 10,23.2238576 10,23.5 C10,23.7761424 9.77614237,24 9.5,24 L1.97435897,24 C1.42207422,24 0.97435897,24.4477153 0.97435897,25 L0.97435897,34 C0.97435897,34.5522847 1.42207422,35 1.97435897,35 L34.025641,35 C34.5779258,35 35.025641,34.5522847 35.025641,34 L35.025641,25 C35.025641,24.4477153 34.5779258,24 34.025641,24 L26.5,24 C26.2238576,24 26,23.7761424 26,23.5 C26,23.2238576 26.2238576,23 26.5,23 L35,23 C35.5522847,23 36,23.4477153 36,24 L36,35 C36,35.5522847 35.5522847,36 35,36 L1,36 C0.44771525,36 0,35.5522847 0,35 L0,24 C0,23.4477153 0.44771525,23 1,23 L9.5,23 Z M15.64,26 C17.18,26 18.31,26.73 18.49,27.95 L17.44,27.95 C17.33,27.25 16.72,26.84 15.64,26.84 C14.54,26.84 14.08,27.27 14.08,27.81 C14.08,28.37 14.32,28.64 15.97,29.1 C17.97,29.66 18.54,30.25 18.54,31.36 C18.54,32.48 17.52,33.5 15.73,33.5 C14.18,33.5 13.01,32.65 12.81,31.33 L13.86,31.33 C13.98,32.14 14.64,32.66 15.71,32.66 C16.91,32.66 17.52,32.08 17.52,31.4 C17.52,30.73 17.19,30.42 15.25,29.89 C13.58,29.43 13.06,28.84 13.06,27.85 C13.06,26.8 13.99,26 15.64,26 Z M11.02,26.15 L11.02,33.35 L10,33.35 L10,26.15 L11.02,26.15 Z M22.66,26.15 C24.49,26.15 25.51,26.96 25.51,28.41 C25.51,29.5 24.85,30.1 24.06,30.4 L26,33.35 L24.8,33.35 L23.06,30.61 L21.35,30.61 L21.35,33.35 L20.33,33.35 L20.33,26.15 L22.66,26.15 Z M22.68,26.98 L21.35,26.98 L21.35,29.78 L22.71,29.78 C23.83,29.78 24.45,29.25 24.45,28.41 C24.45,27.48 23.89,26.98 22.68,26.98 Z M18,0 C24.627417,0 30,5.372583 30,12 C30,18.627417 24.627417,24 18,24 C11.372583,24 6,18.627417 6,12 C6,5.372583 11.372583,0 18,0 Z M18,1 C11.9248678,1 7,5.92486775 7,12 C7,18.0751322 11.9248678,23 18,23 C24.0751322,23 29,18.0751322 29,12 C29,5.92486775 24.0751322,1 18,1 Z M18.2295048,14.1385513 L20.2131716,18.1192077 C20.2449692,18.1830165 20.2480118,18.2573655 20.2215344,18.3235592 C20.170256,18.451755 20.0247634,18.514109 19.8965675,18.4628307 L18.5058583,17.906547 L18.5058583,20.4996339 C18.5058583,20.7757763 18.2820007,20.9996339 18.0058583,20.9996339 C17.7297159,20.9996339 17.5058583,20.7757763 17.5058583,20.4996339 L17.5058583,17.9063506 L16.112824,18.4630173 C16.0466171,18.4894741 15.972264,18.4864041 15.9084635,18.4545794 C15.7849104,18.3929491 15.734712,18.2428283 15.7963423,18.1192752 L17.7820358,14.1384635 C17.8062682,14.0898837 17.8456554,14.050512 17.8942447,14.0262986 C18.0178219,13.9647168 18.167923,14.014974 18.2295048,14.1385513 Z M13.4545794,9.93846346 C13.4864041,10.0022639 13.4894741,10.0766171 13.4630173,10.142824 L12.9063506,11.5358583 L15.4996339,11.5358583 C15.7757763,11.5358583 15.9996339,11.7597159 15.9996339,12.0358583 C15.9996339,12.3120007 15.7757763,12.5358583 15.4996339,12.5358583 L12.906547,12.5358583 L13.4628307,13.9265675 C13.514109,14.0547634 13.451755,14.200256 13.3235591,14.2515344 C13.2573655,14.2780118 13.1830165,14.2749692 13.1192077,14.2431716 L9.13855128,12.2595048 C9.01497405,12.197923 8.96471683,12.0478219 9.02629865,11.9242447 C9.05051199,11.8756554 9.08988372,11.8362682 9.13846353,11.8120358 L13.1192752,9.82634232 C13.2428283,9.76471204 13.3929491,9.81491039 13.4545794,9.93846346 Z M22.8803586,9.82634232 L26.8611704,11.8120358 C26.9097502,11.8362682 26.9491219,11.8756554 26.9733352,11.9242447 C27.0349171,12.0478219 26.9846598,12.197923 26.8610826,12.2595048 L22.8804261,14.2431716 C22.8166174,14.2749692 22.7422683,14.2780118 22.6760747,14.2515344 C22.5478789,14.200256 22.4855249,14.0547634 22.5368032,13.9265675 L23.0930869,12.5358583 L20.5,12.5358583 C20.2238576,12.5358583 20,12.3120007 20,12.0358583 C20,11.7597159 20.2238576,11.5358583 20.5,11.5358583 L23.0932833,11.5358583 L22.5366166,10.142824 C22.5101598,10.0766171 22.5132298,10.0022639 22.5450545,9.93846346 C22.6066848,9.81491039 22.7568056,9.76471204 22.8803586,9.82634232 Z M18.0058583,3 C18.2820007,3 18.5058583,3.22385763 18.5058583,3.5 L18.5058583,6.09308693 L19.8965675,5.53680323 C20.0247634,5.48552488 20.170256,5.54787886 20.2215344,5.67607474 C20.2480118,5.74226835 20.2449692,5.81661736 20.2131716,5.88042615 L18.2295048,9.86108261 C18.167923,9.98465984 18.0178219,10.0349171 17.8942447,9.97333524 C17.8456554,9.9491219 17.8062682,9.90975016 17.7820358,9.86117036 L15.7963423,5.88035865 C15.734712,5.75680558 15.7849104,5.60668481 15.9084635,5.54505453 C15.972264,5.51322981 16.0466171,5.5101598 16.112824,5.53661657 L17.5058583,6.09328327 L17.5058583,3.5 C17.5058583,3.22385763 17.7297159,3 18.0058583,3 Z" id="ISR_36" fill="#00090D"></path>
    </g>
</svg>