<?xml version="1.0" encoding="UTF-8"?>
<svg width="16px" height="16px" viewBox="0 0 16 16" version="1.1" xmlns="http://www.w3.org/2000/svg" xmlns:xlink="http://www.w3.org/1999/xlink">
    <!-- Generator: Sketch 60.1 (88133) - https://sketch.com -->
    <title>Action/play &amp; pause/jump-to-current_16</title>
    <desc>Created with Sketch.</desc>
    <g id="Action/play-&amp;-pause/jump-to-current_16" stroke="none" stroke-width="1" fill="none" fill-rule="evenodd">
        <path d="M7.76376438,7.9999 L1.15947885,1.8659 C0.956948761,1.6779 0.945919895,1.3609 1.13441324,1.1589 C1.32290659,0.9579 1.64073846,0.9459 1.84326854,1.1339 L8.84058275,7.6339 C8.94285042,7.7289 9,7.8609 9,7.9999 C9,8.1389 8.94285042,8.2709 8.84058275,8.3659 L1.84326854,14.8689 C1.746014,14.9589 1.61752889,15 1.49520874,15 C1.3608571,15 1.23267041,14.9499 1.13441324,14.8439 C0.945919895,14.6419 0.956948761,14.3259 1.15947885,14.1379 L7.76376438,7.9999 Z M12.9996,1.5 C12.9996,1.22385762 13.2234576,1 13.4996,1 C13.7757424,1 13.9996,1.22385762 13.9996,1.5 L13.9996,14.5 C13.9996,14.7761424 13.7757424,15 13.4996,15 C13.2234576,15 12.9996,14.7761424 12.9996,14.5 L12.9996,1.5 Z" id="jump-to-current_16" fill="#00090D"></path>
    </g>
</svg>