<?xml version="1.0" encoding="UTF-8"?>
<svg width="16px" height="16px" viewBox="0 0 16 16" version="1.1" xmlns="http://www.w3.org/2000/svg" xmlns:xlink="http://www.w3.org/1999/xlink">
    <!-- Generator: Sketch 60.1 (88133) - https://sketch.com -->
    <title>Tools/kairos_16</title>
    <desc>Created with Sketch.</desc>
    <g id="Tools/kairos_16" stroke="none" stroke-width="1" fill="none" fill-rule="evenodd">
        <path d="M10.2403103,14.6338261 C9.4155926,13.4300857 9,12.0367721 9,10.5 C9,9.94128174 9.06166088,9.39420117 9.17927569,8.86612023 C7.80400371,9.89241768 6.09795608,10.5 4.25,10.5 C3.21809209,10.5 2.2130066,10.3101131 1.27431949,9.94694888 C2.11773727,12.8656624 4.809618,15 8,15 C8.78349975,15 9.53693467,14.8712772 10.2403103,14.6338261 Z M11.1808877,14.2372088 C13.4479145,13.0787443 15,10.7206266 15,8 C15,6.71559366 14.6540745,5.51198256 14.0503081,4.47725144 C11.6272079,5.46300034 10,7.82798322 10,10.5 C10,11.8614778 10.4197654,13.1565691 11.1808877,14.2372088 Z M13.4733283,3.63578568 C13.1803468,3.26882899 12.8512327,2.93198815 12.4913743,2.63065141 C12.4648673,3.21431715 12.3777125,3.78217707 12.2360631,4.32807792 C12.6221009,4.06114307 13.0358079,3.828721 13.4733283,3.63578568 Z M1.03998209,8.75257193 C2.02833498,9.24154537 3.12000877,9.5 4.25,9.5 C8.25406444,9.5 11.5,6.25406444 11.5,2.25 C11.5,2.14387145 11.4977231,2.03803511 11.4931829,1.93253703 C10.4651182,1.33937754 9.27219205,1 8,1 C4.13400675,1 1,4.13400675 1,8 C1,8.25425103 1.01355511,8.50533609 1.03998209,8.75257193 Z M8,16 C3.581722,16 0,12.418278 0,8 C0,3.581722 3.581722,0 8,0 C12.418278,0 16,3.581722 16,8 C16,12.418278 12.418278,16 8,16 Z" id="kairos_16" fill="#00090D"></path>
    </g>
</svg>