<?xml version="1.0" encoding="UTF-8"?>
<svg width="16px" height="16px" viewBox="0 0 16 16" version="1.1" xmlns="http://www.w3.org/2000/svg" xmlns:xlink="http://www.w3.org/1999/xlink">
    <!-- Generator: Sketch 60.1 (88133) - https://sketch.com -->
    <title>Networking/Endpoints/laptop/laptop-filled_16</title>
    <desc>Created with Sketch.</desc>
    <g id="Networking/Endpoints/laptop/laptop-filled_16" stroke="none" stroke-width="1" fill="none" fill-rule="evenodd">
        <path d="M15.5,11 C15.7453333,11 15.9495802,11.1769877 15.9919396,11.4101619 L16,11.5 L16,12 C16,13.0547727 15.1845145,13.9182025 14.1493158,13.9945168 L14,14 L2,14 C0.945227273,14 0.0817975207,13.1845145 0.00548318933,12.1493158 L0,12 L0,11.5 C0,11.2546667 0.176987654,11.0504198 0.410161866,11.0080604 L0.5,11 L15.5,11 Z M13,2 C14.0547727,2 14.9182025,2.81548554 14.9945168,3.85068417 L15,4 L15,10 L1,10 L1,4 C1,2.94522727 1.81548554,2.08179752 2.85068417,2.00548319 L3,2 L13,2 Z" id="laptop-filled_16" fill="#00090D"></path>
    </g>
</svg>