<?xml version="1.0" encoding="UTF-8"?>
<svg width="16px" height="16px" viewBox="0 0 16 16" version="1.1" xmlns="http://www.w3.org/2000/svg" xmlns:xlink="http://www.w3.org/1999/xlink">
    <!-- Generator: Sketch 60.1 (88133) - https://sketch.com -->
    <title>Networking/Endpoints/laptop/laptop-disconnect_16</title>
    <desc>Created with Sketch.</desc>
    <g id="Networking/Endpoints/laptop/laptop-disconnect_16" stroke="none" stroke-width="1" fill="none" fill-rule="evenodd">
        <path d="M5.06274,13.0586 C5.10025,13.0211 5.15112,13 5.20416,13 L14,13 C14.551,13 15,12.551 15,12 L6.60416,12 C6.42598,12 6.33675,11.7846 6.46274,11.6586 L7.06274,11.0586 C7.10025,11.0211 7.15112,11 7.20416,11 L14,11 L14,4.20416 C14,4.15112 14.0211,4.10025 14.0586,4.06274 L14.6444,3.47689 C14.7461,3.37521 14.9176,3.4118 14.9497,3.55199 C14.9826,3.69601 15,3.84596 15,4 L15,11 L15.5,11 C15.776,11 16,11.224 16,11.5 L16,12 C16,13.105 15.105,14 14,14 L4.60416,14 C4.42598,14 4.33675,13.7846 4.46274,13.6586 L5.06274,13.0586 Z M1.13034,12.493 C1.18175,12.5832 1.17886,12.6998 1.10542,12.7733 L0.673848,13.2048 C0.593376,13.2853 0.461188,13.283 0.393331,13.1916 C0.146183,12.8589 0,12.4466 0,12 L0,11.5 C0,11.224 0.224,11 0.5,11 L1,11 L1,4 C1,2.895 1.895,2 3,2 L11.3958,2 C11.574,2 11.6633,2.21543 11.5373,2.34142 L10.9373,2.94142 C10.8998,2.97893 10.8489,3 10.7958,3 L3,3 C2.449,3 2,3.449 2,4 L2,11 L2.39584,11 C2.57402,11 2.66325,11.2154 2.53726,11.3414 L1.93726,11.9414 C1.89975,11.9789 1.84888,12 1.79584,12 L1,12 C1,12.1791 1.04742,12.3473 1.13034,12.493 Z M15.1464,0.146447 C15.3417,-0.0488155 15.6583,-0.0488155 15.8536,0.146447 C16.0488,0.341709 16.0488,0.658291 15.8536,0.853553 L0.853553,15.8536 C0.658291,16.0488 0.341709,16.0488 0.146447,15.8536 C-0.0488155,15.6583 -0.0488155,15.3417 0.146447,15.1464 L15.1464,0.146447 Z" id="laptop-disconnect_16" fill="#9E9EA2"></path>
    </g>
</svg>