<?xml version="1.0" encoding="UTF-8"?>
<svg width="24px" height="24px" viewBox="0 0 24 24" version="1.1" xmlns="http://www.w3.org/2000/svg" xmlns:xlink="http://www.w3.org/1999/xlink">
    <!-- Generator: Sketch 60.1 (88133) - https://sketch.com -->
    <title>Networking/Endpoints/laptop/laptop_24</title>
    <desc>Created with Sketch.</desc>
    <g id="Networking/Endpoints/laptop/laptop_24" stroke="none" stroke-width="1" fill="none" fill-rule="evenodd">
        <path d="M23,17.5 C23,18.879 21.878,20 20.5,20 L3.5,20 C2.122,20 1,18.879 1,17.5 L1,17 L23,17 L23,17.5 Z M3,5.5 C3,4.673 3.673,4 4.5,4 L19.5,4 C20.327,4 21,4.673 21,5.5 L21,16 L3,16 L3,5.5 Z M23.5,16 L22,16 L22,5.5 C22,4.121 20.878,3 19.5,3 L4.5,3 C3.122,3 2,4.121 2,5.5 L2,16 L0.5,16 C0.224,16 0,16.224 0,16.5 L0,17.5 C0,19.43 1.57,21 3.5,21 L20.5,21 C22.43,21 24,19.43 24,17.5 L24,16.5 C24,16.224 23.776,16 23.5,16 Z" id="laptop_24" fill="#00090D"></path>
    </g>
</svg>