<?xml version="1.0" encoding="UTF-8"?>
<svg width="24px" height="24px" viewBox="0 0 24 24" version="1.1" xmlns="http://www.w3.org/2000/svg" xmlns:xlink="http://www.w3.org/1999/xlink">
    <!-- Generator: Sketch 60.1 (88133) - https://sketch.com -->
    <title>Action/align/left-align_24</title>
    <desc>Created with Sketch.</desc>
    <g id="Action/align/left-align_24" stroke="none" stroke-width="1" fill="none" fill-rule="evenodd">
        <path d="M1.5,5 C1.22385763,5 1,4.77614237 1,4.5 C1,4.22385763 1.22385763,4 1.5,4 L16.5,4 C16.7761424,4 17,4.22385763 17,4.5 C17,4.77614237 16.7761424,5 16.5,5 L1.5,5 Z M1.5,10 C1.22385763,10 1,9.77614237 1,9.5 C1,9.22385763 1.22385763,9 1.5,9 L22.5,9 C22.7761424,9 23,9.22385763 23,9.5 C23,9.77614237 22.7761424,10 22.5,10 L1.5,10 Z M1.5,15 C1.22385763,15 1,14.7761424 1,14.5 C1,14.2238576 1.22385763,14 1.5,14 L16.5,14 C16.7761424,14 17,14.2238576 17,14.5 C17,14.7761424 16.7761424,15 16.5,15 L1.5,15 Z M1.5,20 C1.22385763,20 1,19.7761424 1,19.5 C1,19.2238576 1.22385763,19 1.5,19 L22.5,19 C22.7761424,19 23,19.2238576 23,19.5 C23,19.7761424 22.7761424,20 22.5,20 L1.5,20 Z" id="left-align_24" fill="#00090D"></path>
    </g>
</svg>