<?xml version="1.0" encoding="UTF-8"?>
<svg width="24px" height="24px" viewBox="0 0 24 24" version="1.1" xmlns="http://www.w3.org/2000/svg" xmlns:xlink="http://www.w3.org/1999/xlink">
    <!-- Generator: Sketch 60.1 (88133) - https://sketch.com -->
    <title>Tools / license-manager / license-manager-essential-filled_24</title>
    <desc>Created with Sketch.</desc>
    <g id="Tools-/-license-manager-/-license-manager-essential-filled_24" stroke="none" stroke-width="1" fill="none" fill-rule="evenodd">
        <path d="M19,10.92118 C19,11.0502 18.8796,11.1454 18.753,11.1207 C18.3475,11.0415 17.9286,11 17.5,11 C15.238,11 13.2459,12.1554 12.0816,13.9083 C12.0439,13.9651 11.9806,14 11.9124,14 L6.5,14 C6.22386,14 6,14.2239 6,14.5 C6,14.7761 6.22386,15 6.5,15 L11.1981,15 C11.3408,15 11.4379,15.1454 11.3891,15.2796 C11.1373,15.9724 11,16.7202 11,17.5 C11,18.2798 11.1373,19.0276 11.3891,19.7204 C11.4379,19.8546 11.3408,20 11.1981,20 L2,20 C2,21.2691 3.03331,22 4,22 L12.7243,22 C12.7788,22 12.8308,22.0223 12.869,22.0611 C13.058,22.253 13.2589,22.4333 13.4704,22.6006 C13.6276,22.725 13.5434,23 13.343,23 L4,23 C2.519,23 1,21.834 1,20 L1,19.2 C1,19.0895 1.0895431,19 1.2,19 L3,19 L3,5 C3,2.79086 4.79086,1 7,1 L20,1 C21.6569,1 23,2.34315 23,4 L23,5.8 C23,5.91046 22.9105,6 22.8,6 L19,6 L19,10.92118 Z M21.8,5 C21.9105,5 22,4.91046 22,4.8 L22,3.5 C22,2.67157 21.3284,2 20.5,2 C19.6716,2 19,2.67157 19,3.5 L19,5 L21.8,5 Z M6,10.5 C6,10.77614 6.22386,11 6.5,11 L15.5,11 C15.7761,11 16,10.77614 16,10.5 C16,10.22386 15.7761,10 15.5,10 L6.5,10 C6.22386,10 6,10.22386 6,10.5 Z M6,6.5 C6,6.77614 6.22386,7 6.5,7 L15.5,7 C15.7761,7 16,6.77614 16,6.5 C16,6.22386 15.7761,6 15.5,6 L6.5,6 C6.22386,6 6,6.22386 6,6.5 Z M17.5,23 C14.4624,23 12,20.5376 12,17.5 C12,14.4624 14.4624,12 17.5,12 C20.5376,12 23,14.4624 23,17.5 C23,20.5376 20.5376,23 17.5,23 Z M15.3534,17.6381 C15.158,17.4429 14.8414,17.4431 14.6463,17.6384 C14.4511,17.8338 14.4513,18.1504 14.6466,18.3455 L16.1482,19.8455 C16.3435,20.0406 16.6598,20.0405 16.855,19.8455 L20.3501,16.3537 C20.5455,16.1586 20.5456,15.842 20.3505,15.6466 C20.1553,15.4513 19.8387,15.4511 19.6434,15.6463 L16.5016,18.785 L15.3534,17.6381 Z" id="license-manager-essential-filled_24" fill="#00090D"></path>
    </g>
</svg>