<?xml version="1.0" encoding="UTF-8"?>
<svg width="24px" height="24px" viewBox="0 0 24 24" version="1.1" xmlns="http://www.w3.org/2000/svg" xmlns:xlink="http://www.w3.org/1999/xlink">
    <!-- Generator: Sketch 60.1 (88133) - https://sketch.com -->
    <title>Tools / license-manager / license-manager_24</title>
    <desc>Created with Sketch.</desc>
    <g id="Tools-/-license-manager-/-license-manager_24" stroke="none" stroke-width="1" fill="none" fill-rule="evenodd">
        <path d="M3,5 C3,2.79086 4.79086,1 7,1 L20,1 C21.6569,1 23,2.34315 23,4 L23,5.8 C23,5.91046 22.9105,6 22.8,6 L19,6 L19,20 C19,22 18,23 16,23 L4,23 C2.519,23 1,21.834 1,20 L1,19.2 C1,19.0895 1.0895431,19 1.2,19 L3,19 L3,5 Z M18,20 L18,3.47214 C18,3.16165 18.0723,2.85542 18.2111,2.57771 L18.5,2 L7,2 C5.34315,2 4,3.34315 4,5 L4,19 C9.72963,19 12.9971,19 13.8024,19 C13.9129,19 13.9993,19.0897 14.006,19.1999 C14.0671,20.1991 14.5947,20.9145 15.5889,21.3461 C16.0885,21.5631 16.6538,21.5727 17.1606,21.373 L17.1405,21.322 C17.7135,21.0962 18,20.6556 18,20 Z M21.8,5 C21.9105,5 22,4.91046 22,4.8 L22,3.5 C22,2.67157 21.3284,2 20.5,2 C19.6716,2 19,2.67157 19,3.5 L19,5 L21.8,5 Z M4,22 L14.1509,22 C14.2514,22 14.2915,21.8644 14.2103,21.8052 C13.6605,21.4043 13.2855,20.9234 13.043,20.146 C13.0163,20.0603 12.9378,20 12.848,20 L2.2,20 C2.08954,20 1.998983,20.09 2.00879,20.2 C2.11094,21.3456 3.08529,22 4,22 Z M6,14.5 C6,14.7761 6.22386,15 6.5,15 L14.5,15 C14.7761,15 15,14.7761 15,14.5 C15,14.2239 14.7761,14 14.5,14 L6.5,14 C6.22386,14 6,14.2239 6,14.5 Z M6,10.5 C6,10.77614 6.22386,11 6.5,11 L15.5,11 C15.7761,11 16,10.77614 16,10.5 C16,10.22386 15.7761,10 15.5,10 L6.5,10 C6.22386,10 6,10.22386 6,10.5 Z M6,6.5 C6,6.77614 6.22386,7 6.5,7 L15.5,7 C15.7761,7 16,6.77614 16,6.5 C16,6.22386 15.7761,6 15.5,6 L6.5,6 C6.22386,6 6,6.22386 6,6.5 Z" id="license-manager_24" fill="#00090D"></path>
    </g>
</svg>