<?xml version="1.0" encoding="UTF-8"?>
<svg width="24px" height="24px" viewBox="0 0 24 24" version="1.1" xmlns="http://www.w3.org/2000/svg" xmlns:xlink="http://www.w3.org/1999/xlink">
    <!-- Generator: Sketch 60.1 (88133) - https://sketch.com -->
    <title>Tools / license-manager / license-manager-advantage_24</title>
    <desc>Created with Sketch.</desc>
    <g id="Tools-/-license-manager-/-license-manager-advantage_24" stroke="none" stroke-width="1" fill="none" fill-rule="evenodd">
        <path d="M19.0001,11.174 C21.8667,11.8511 24,14.4264 24,17.5 C24,21.0899 21.0899,24 17.5,24 C16.2259,24 15.0375,23.6334 14.0343,23 L4,23 C2.519,23 1,21.834 1,20 L1,19.2 C1,19.0895 1.0895431,19 1.2,19 L3,19 L3,5 C3,2.79086 4.79086,1 7,1 L20,1 C21.6569,1 23,2.34315 23,4 L23,5.8 C23,5.91046 22.9105,6 22.8,6 L19,6 L19.0001,11.174 Z M18,11.0189 L18,3.47214 C18,3.16165 18.0723,2.85542 18.2111,2.57771 L18.5,2 L7,2 C5.34315,2 4,3.34315 4,5 L4,19 L11.1739,19 C11.0602,18.5185 11,18.0163 11,17.5 C11,16.6141 11.1772,15.7696 11.4982,15 L6.5,15 C6.22386,15 6,14.7761 6,14.5 C6,14.2239 6.22386,14 6.5,14 L12.0218,14 C13.1769,12.1958 15.1988,11 17.5,11 C17.6682,11 17.835,11.0064 18,11.0189 Z M11.4982,20 L2.2,20 C2.08954,20 1.998983,20.09 2.00879,20.2 C2.11094,21.3456 3.08529,22 4,22 L12.8096,22 C12.2573,21.4245 11.8099,20.7476 11.4982,20 Z M21.8,5 C21.9105,5 22,4.91046 22,4.8 L22,3.5 C22,2.67157 21.3284,2 20.5,2 C19.6716,2 19,2.67157 19,3.5 L19,5 L21.8,5 Z M6,10.5 C6,10.22386 6.22386,10 6.5,10 L15.5,10 C15.7761,10 16,10.22386 16,10.5 C16,10.77614 15.7761,11 15.5,11 L6.5,11 C6.22386,11 6,10.77614 6,10.5 Z M6,6.5 C6,6.22386 6.22386,6 6.5,6 L15.5,6 C15.7761,6 16,6.22386 16,6.5 C16,6.77614 15.7761,7 15.5,7 L6.5,7 C6.22386,7 6,6.77614 6,6.5 Z M17.5,23 C20.5376,23 23,20.5376 23,17.5 C23,14.4624 20.5376,12 17.5,12 C14.4624,12 12,14.4624 12,17.5 C12,20.5376 14.4624,23 17.5,23 Z M18.7535,17.7897 L19.7465,17.0257 L18.5465,17.0257 C18.2325,17.0257 17.9435,16.8097 17.8465,16.4977 L17.5085,15.4167 L17.1545,16.6108 C17.0555,16.9288 16.7675,17.1458 16.4525,17.1458 L15.3335,17.1458 L16.2285,17.7778 C16.4875,17.9768 16.5895,18.2977 16.4985,18.5907 L16.1135,19.8197 L17.0525,19.0987 C17.1835,18.9967 17.3405,18.9447 17.4985,18.9447 C17.6575,18.9447 17.8165,18.9967 17.9485,19.1007 L18.8845,19.8197 L18.5005,18.5907 C18.4095,18.2977 18.5105,17.9767 18.7535,17.7897 Z M21.4675,16.4428 C21.5505,16.6908 21.4655,16.9657 21.2555,17.1257 L19.5105,18.4697 L20.1885,20.6397 C20.2705,20.9037 20.1735,21.1857 19.9475,21.3447 C19.8385,21.4197 19.7125,21.4578 19.5875,21.4578 C19.4525,21.4578 19.3175,21.4137 19.2045,21.3267 L17.4995,20.0168 L15.7955,21.3267 C15.5755,21.4937 15.2765,21.5007 15.0505,21.3447 C14.8245,21.1857 14.7285,20.9038 14.8095,20.6408 L15.4855,18.4767 L13.7585,17.2588 C13.5315,17.0828 13.4475,16.8088 13.5325,16.5618 C13.6175,16.3128 13.8545,16.1458 14.1215,16.1458 L16.2495,16.1458 L16.9195,13.8888 C17.0845,13.3678 17.9165,13.3757 18.0765,13.8807 L18.7475,16.0257 L20.8775,16.0257 C21.1455,16.0257 21.3825,16.1938 21.4675,16.4428 Z" id="license-manager-advantage_24" fill="#00090D"></path>
    </g>
</svg>