<?xml version="1.0" encoding="UTF-8"?>
<svg width="24px" height="24px" viewBox="0 0 24 24" version="1.1" xmlns="http://www.w3.org/2000/svg" xmlns:xlink="http://www.w3.org/1999/xlink">
    <!-- Generator: Sketch 60.1 (88133) - https://sketch.com -->
    <title>Tools / license-manager / license-manager-advantage-filled_24</title>
    <desc>Created with Sketch.</desc>
    <g id="Tools-/-license-manager-/-license-manager-advantage-filled_24" stroke="none" stroke-width="1" fill="none" fill-rule="evenodd">
        <path d="M19,10.92118 C19,11.0502 18.8796,11.1454 18.753,11.1207 C18.3475,11.0415 17.9286,11 17.5,11 C15.238,11 13.2459,12.1554 12.0816,13.9083 C12.0439,13.9651 11.9806,14 11.9124,14 L6.5,14 C6.22386,14 6,14.2239 6,14.5 C6,14.7761 6.22386,15 6.5,15 L11.1981,15 C11.3408,15 11.4379,15.1454 11.3891,15.2796 C11.1373,15.9724 11,16.7202 11,17.5 C11,18.2798 11.1373,19.0276 11.3891,19.7204 C11.4379,19.8546 11.3408,20 11.1981,20 L2,20 C2,21.2691 3.03331,22 4,22 L12.7243,22 C12.7788,22 12.8308,22.0223 12.869,22.0611 C13.058,22.253 13.2589,22.4333 13.4704,22.6006 C13.6276,22.725 13.5434,23 13.343,23 L4,23 C2.519,23 1,21.834 1,20 L1,19.2 C1,19.0895 1.0895431,19 1.2,19 L3,19 L3,5 C3,2.79086 4.79086,1 7,1 L20,1 C21.6569,1 23,2.34315 23,4 L23,5.8 C23,5.91046 22.9105,6 22.8,6 L19,6 L19,10.92118 Z M21.8,5 C21.9105,5 22,4.91046 22,4.8 L22,3.5 C22,2.67157 21.3284,2 20.5,2 C19.6716,2 19,2.67157 19,3.5 L19,5 L21.8,5 Z M6,10.5 C6,10.77614 6.22386,11 6.5,11 L15.5,11 C15.7761,11 16,10.77614 16,10.5 C16,10.22386 15.7761,10 15.5,10 L6.5,10 C6.22386,10 6,10.22386 6,10.5 Z M6,6.5 C6,6.77614 6.22386,7 6.5,7 L15.5,7 C15.7761,7 16,6.77614 16,6.5 C16,6.22386 15.7761,6 15.5,6 L6.5,6 C6.22386,6 6,6.22386 6,6.5 Z M17.5,23 C14.4624,23 12,20.5376 12,17.5 C12,14.4624 14.4624,12 17.5,12 C20.5376,12 23,14.4624 23,17.5 C23,20.5376 20.5376,23 17.5,23 Z M18.7534,17.7898 C18.5104,17.9768 18.4094,18.2978 18.5004,18.5908 L18.8844,19.8198 L17.9484,19.1008 C17.8164,18.9968 17.6574,18.9448 17.4984,18.9448 C17.3404,18.9448 17.1834,18.9968 17.0524,19.0988 L16.1134,19.8198 L16.4984,18.5908 C16.5894,18.2978 16.4874,17.9768 16.2284,17.7778 L15.3334,17.1458 L16.4524,17.1458 C16.7674,17.1458 17.0554,16.9288 17.1544,16.6108 L17.5084,15.4168 L17.8464,16.4978 C17.9434,16.8098 18.2324,17.0258 18.5464,17.0258 L19.7464,17.0258 L18.7534,17.7898 Z M21.4674,16.4428 C21.3824,16.1938 21.1454,16.0258 20.8774,16.0258 L18.7474,16.0258 L18.0764,13.8808 C17.9164,13.3758 17.0844,13.3678 16.9194,13.8888 L16.2494,16.1458 L14.1214,16.1458 C13.8544,16.1458 13.6174,16.3128 13.5324,16.5618 C13.4474,16.8088 13.5314,17.0828 13.7584,17.2588 L15.4854,18.4768 L14.8094,20.6408 C14.7284,20.9038 14.8244,21.1858 15.0504,21.3448 C15.2764,21.5008 15.5754,21.4938 15.7954,21.3268 L17.4994,20.0168 L19.2044,21.3268 C19.3174,21.4138 19.4524,21.4578 19.5874,21.4578 C19.7124,21.4578 19.8384,21.4198 19.9474,21.3448 C20.1734,21.1858 20.2704,20.9038 20.1884,20.6398 L19.5104,18.4698 L21.2554,17.1258 C21.4654,16.9658 21.5504,16.6908 21.4674,16.4428 Z" id="license-manager-advantage-filled_24" fill="#00090D"></path>
    </g>
</svg>