<?xml version="1.0" encoding="UTF-8"?>
<svg width="24px" height="24px" viewBox="0 0 24 24" version="1.1" xmlns="http://www.w3.org/2000/svg" xmlns:xlink="http://www.w3.org/1999/xlink">
    <!-- Generator: Sketch 60.1 (88133) - https://sketch.com -->
    <title>Tools / license-manager / license-manager-essential_24</title>
    <desc>Created with Sketch.</desc>
    <g id="Tools-/-license-manager-/-license-manager-essential_24" stroke="none" stroke-width="1" fill="none" fill-rule="evenodd">
        <path d="M19.0001,11.174 C21.8667,11.8511 24,14.4264 24,17.5 C24,21.0899 21.0899,24 17.5,24 C16.2259,24 15.0375,23.6334 14.0343,23 L4,23 C2.519,23 1,21.834 1,20 L1,19.2 C1,19.0895 1.0895431,19 1.2,19 L3,19 L3,5 C3,2.79086 4.79086,1 7,1 L20,1 C21.6569,1 23,2.34315 23,4 L23,5.8 C23,5.91046 22.9105,6 22.8,6 L19,6 L19.0001,11.174 Z M18,11.0189 L18,3.47214 C18,3.16165 18.0723,2.85542 18.2111,2.57771 L18.5,2 L7,2 C5.34315,2 4,3.34315 4,5 L4,19 L11.1739,19 C11.0602,18.5185 11,18.0163 11,17.5 C11,16.6141 11.1772,15.7696 11.4982,15 L6.5,15 C6.22386,15 6,14.7761 6,14.5 C6,14.2239 6.22386,14 6.5,14 L12.0218,14 C13.1769,12.1958 15.1988,11 17.5,11 C17.6682,11 17.835,11.0064 18,11.0189 Z M11.4982,20 L2.2,20 C2.08954,20 1.998983,20.09 2.00879,20.2 C2.11094,21.3456 3.08529,22 4,22 L12.8096,22 C12.2573,21.4245 11.8099,20.7476 11.4982,20 Z M21.8,5 C21.9105,5 22,4.91046 22,4.8 L22,3.5 C22,2.67157 21.3284,2 20.5,2 C19.6716,2 19,2.67157 19,3.5 L19,5 L21.8,5 Z M6,10.5 C6,10.22386 6.22386,10 6.5,10 L15.5,10 C15.7761,10 16,10.22386 16,10.5 C16,10.77614 15.7761,11 15.5,11 L6.5,11 C6.22386,11 6,10.77614 6,10.5 Z M6,6.5 C6,6.22386 6.22386,6 6.5,6 L15.5,6 C15.7761,6 16,6.22386 16,6.5 C16,6.77614 15.7761,7 15.5,7 L6.5,7 C6.22386,7 6,6.77614 6,6.5 Z M17.5,23 C20.5376,23 23,20.5376 23,17.5 C23,14.4624 20.5376,12 17.5,12 C14.4624,12 12,14.4624 12,17.5 C12,20.5376 14.4624,23 17.5,23 Z M15.3534,17.6381 L16.5016,18.785 L19.6434,15.6463 C19.8387,15.4511 20.1553,15.4513 20.3505,15.6466 C20.5456,15.842 20.5455,16.1586 20.3501,16.3537 L16.855,19.8455 C16.6598,20.0405 16.3435,20.0406 16.1482,19.8455 L14.6466,18.3455 C14.4513,18.1504 14.4511,17.8338 14.6463,17.6384 C14.8414,17.4431 15.158,17.4429 15.3534,17.6381 Z" id="license-manager-essential_24" fill="#00090D"></path>
    </g>
</svg>