<?xml version="1.0" encoding="UTF-8"?>
<svg width="18px" height="18px" viewBox="0 0 18 18" version="1.1" xmlns="http://www.w3.org/2000/svg" xmlns:xlink="http://www.w3.org/1999/xlink">
    <!-- Generator: Sketch 60.1 (88133) - https://sketch.com -->
    <title>Alert and Notification / lightbulb_18</title>
    <desc>Created with Sketch.</desc>
    <g id="Alert-and-Notification-/-lightbulb_18" stroke="none" stroke-width="1" fill="none" fill-rule="evenodd">
        <path d="M9,1 C6.239,1 4,3.239 4,6 C4,7.188 4.415,8.31 5.158,9.199 L5.322,9.386 L5.395,9.475 C5.875,10.133 6.093,10.791 6.291,12.047 C6.328,12.028 6.368,12.016 6.41,12.008 L6.5,12 L8.5,12 L8.5,7.5 C8.5,7.224 8.724,7 9,7 C9.246,7 9.45,7.177 9.492,7.41 L9.5,7.5 L9.5,12 L11.5,12 C11.563,12 11.624,12.012 11.68,12.033 C11.894,10.777 12.145,10.092 12.704,9.359 L12.875,9.162 L12.889,9.144 C13.549,8.328 13.937,7.33 13.993,6.267 L14,6 C14,3.239 11.762,1 9,1 L9,1 Z M6.5,13 L6.423,12.992 L6.489,13.498 C6.512,13.673 6.536,13.841 6.561,14 L11.392,14.002 C11.408,13.899 11.424,13.795 11.439,13.686 L11.502,13.225 L11.532,12.997 L11.5,13 L6.5,13 Z M11.203,15.001 L6.751,15.001 C7.113,16.5 7.698,17 9,17 C10.289,17 10.844,16.532 11.203,15.001 L11.203,15.001 Z M9,0 C12.313,0 15,2.687 15,6 C15,7.334 14.564,8.567 13.828,9.563 L13.646,9.796 L13.444,10.031 C11.729,12.291 13.487,18 9,18 C4.478,18 6.165,12.229 4.586,10.063 C3.602,8.996 3,7.568 3,6 C3,2.687 5.687,0 9,0 L9,0 Z" id="lightbulb_18" fill="#00090D"></path>
    </g>
</svg>