<?xml version="1.0" encoding="UTF-8"?>
<svg width="16px" height="16px" viewBox="0 0 16 16" version="1.1" xmlns="http://www.w3.org/2000/svg" xmlns:xlink="http://www.w3.org/1999/xlink">
    <!-- Generator: Sketch 60.1 (88133) - https://sketch.com -->
    <title>Action/link/link_16</title>
    <desc>Created with Sketch.</desc>
    <g id="Action/link/link_16" stroke="none" stroke-width="1" fill="none" fill-rule="evenodd">
        <path d="M5.8848,6.6321 C6.1598,6.6601 6.3588,6.9061 6.3298,7.1821 C6.3018,7.4581 6.0548,7.6481 5.7828,7.6291 C4.9118,7.5361 4.0568,7.8411 3.4418,8.4581 L2.8428,9.0591 C1.7178,10.1881 1.7178,12.0241 2.8428,13.1531 C3.9288,14.2421 5.8408,14.2421 6.9258,13.1531 L7.5258,12.5531 C8.1398,11.9371 8.4408,11.0811 8.3518,10.2051 C8.3228,9.9291 8.5238,9.6831 8.7978,9.6551 C9.0668,9.6291 9.3178,9.8261 9.3458,10.1031 C9.4668,11.2801 9.0608,12.4311 8.2328,13.2621 L7.6328,13.8631 C6.9018,14.5961 5.9258,15.0001 4.8848,15.0001 C3.8438,15.0001 2.8668,14.5961 2.1368,13.8621 C0.6208,12.3421 0.6208,9.8691 2.1368,8.3501 L2.7358,7.7491 C3.5638,6.9181 4.7108,6.5141 5.8848,6.6321 Z M11.3858,4.586 C11.5808,4.782 11.5808,5.099 11.3858,5.295 L5.3218,11.377 C5.2238,11.475 5.0958,11.524 4.9678,11.524 C4.8398,11.524 4.7118,11.475 4.6138,11.377 C4.4188,11.181 4.4188,10.864 4.6138,10.668 L10.6788,4.586 C10.8738,4.39 11.1908,4.39 11.3858,4.586 Z M13.8635,2.1006 C15.3785,3.6206 15.3785,6.0936 13.8635,7.6136 L13.2645,8.2136 C12.5325,8.9486 11.5495,9.3516 10.5205,9.3516 C10.3855,9.3516 10.2505,9.3446 10.1155,9.3306 C9.8395,9.3026 9.6415,9.0566 9.6695,8.7816 C9.6985,8.5056 9.9455,8.3116 10.2165,8.3336 C11.0925,8.4286 11.9435,8.1216 12.5585,7.5046 L13.1575,6.9046 C14.2825,5.7756 14.2825,3.9386 13.1575,2.8096 C12.0715,1.7206 10.1595,1.7206 9.0745,2.8096 L8.4745,3.4106 C7.8605,4.0256 7.5595,4.8816 7.6485,5.7586 C7.6765,6.0336 7.4765,6.2796 7.2025,6.3086 C6.9325,6.3296 6.6825,6.1366 6.6545,5.8596 C6.5335,4.6836 6.9395,3.5316 7.7675,2.7006 L8.3675,2.1006 C9.8295,0.6336 12.4015,0.6326 13.8635,2.1006 Z" id="fill" fill="#00090D"></path>
    </g>
</svg>