<?xml version="1.0" encoding="UTF-8"?>
<svg width="24px" height="24px" viewBox="0 0 24 24" version="1.1" xmlns="http://www.w3.org/2000/svg" xmlns:xlink="http://www.w3.org/1999/xlink">
    <title>Action/link/link_24</title>
    <g id="Action/link/link_24" stroke="none" stroke-width="1" fill="none" fill-rule="evenodd">
        <path d="M6.5034,18 C6.3754,18 6.2474,17.951 6.1494,17.854 C5.9544,17.658 5.9544,17.342 6.1494,17.146 L17.1494,6.146 C17.3454,5.951 17.6614,5.951 17.8574,6.146 C18.0524,6.342 18.0524,6.658 17.8574,6.854 L6.8574,17.854 C6.7594,17.951 6.6314,18 6.5034,18 Z M7.0151,23 C5.4041,23 3.8921,22.376 2.7591,21.244 C0.4131,18.897 0.4131,15.079 2.7591,12.732 L3.7351,11.756 C5.0171,10.474 6.8001,9.844 8.6131,10.032 C8.8881,10.06 9.0871,10.306 9.0591,10.581 C9.0311,10.856 8.7671,11.045 8.5111,11.027 C7.0001,10.871 5.5111,11.395 4.4421,12.463 L3.4661,13.439 C1.5101,15.396 1.5101,18.58 3.4661,20.537 C4.4101,21.48 5.6701,22 7.0151,22 C8.3611,22 9.6201,21.48 10.5641,20.537 L11.5401,19.561 C12.6091,18.493 13.1321,17.009 12.9771,15.492 C12.9491,15.217 13.1481,14.972 13.4231,14.943 C13.6731,14.921 13.9431,15.114 13.9711,15.39 C14.1581,17.208 13.5301,18.986 12.2471,20.268 L11.2711,21.244 C10.1391,22.376 8.6271,23 7.0151,23 Z M16.0229,14.0005 C15.8139,14.0005 15.6039,13.9895 15.3939,13.9685 C15.1189,13.9395 14.9189,13.6945 14.9479,13.4195 C14.9759,13.1445 15.2369,12.9465 15.4959,12.9735 C17.0069,13.1305 18.4959,12.6055 19.5649,11.5365 L20.5409,10.5615 C22.4969,8.6045 22.4969,5.4205 20.5409,3.4635 C19.5969,2.5195 18.3359,2.0005 16.9919,2.0005 C15.6459,2.0005 14.3859,2.5195 13.4429,3.4635 L12.4659,4.4385 C11.3979,5.5075 10.8749,6.9905 11.0299,8.5075 C11.0579,8.7825 10.8589,9.0285 10.5839,9.0565 C10.3299,9.0755 10.0639,8.8855 10.0359,8.6105 C9.8489,6.7925 10.4769,5.0145 11.7589,3.7315 L12.7359,2.7565 C13.8679,1.6235 15.3789,1.0005 16.9919,1.0005 C18.6029,1.0005 20.1149,1.6235 21.2479,2.7565 C23.5929,5.1035 23.5929,8.9215 21.2479,11.2685 L20.2719,12.2435 C19.1379,13.3775 17.6169,14.0005 16.0229,14.0005 L16.0229,14.0005 Z" fill="#545454"></path>
    </g>
</svg>