<?xml version="1.0" encoding="UTF-8"?>
<svg width="16px" height="16px" viewBox="0 0 16 16" version="1.1" xmlns="http://www.w3.org/2000/svg" xmlns:xlink="http://www.w3.org/1999/xlink">
    <!-- Generator: Sketch 60.1 (88133) - https://sketch.com -->
    <title>Navigation / view-list / list-view_16</title>
    <desc>Created with Sketch.</desc>
    <g id="Navigation-/-view-list-/-list-view_16" stroke="none" stroke-width="1" fill="none" fill-rule="evenodd">
        <path d="M6.40630251,3.0002 C6.18042272,3.0002 5.9971,2.7762 5.9971,2.5002 C5.9971,2.2232 6.18042272,2.0002 6.40630251,2.0002 L14.5878975,2.0002 C14.8137773,2.0002 14.9971,2.2232 14.9971,2.5002 C14.9971,2.7762 14.8137773,3.0002 14.5878975,3.0002 L6.40630251,3.0002 Z M14.5878975,7.5 C14.8137773,7.5 14.9971,7.724 14.9971,8 C14.9971,8.277 14.8137773,8.5 14.5878975,8.5 L6.40630251,8.5 C6.18042272,8.5 5.9971,8.277 5.9971,8 C5.9971,7.724 6.18042272,7.5 6.40630251,7.5 L14.5878975,7.5 Z M3,12 C3.55228475,12 4,12.4477153 4,13 L4,14 C4,14.5522847 3.55228475,15 3,15 L2,15 C1.44771525,15 1,14.5522847 1,14 L1,13 C1,12.4477153 1.44771525,12 2,12 L3,12 Z M3,13 L2,13 L2,14 L3,14 L3,13 Z M14.5878975,13.0016 C14.8137773,13.0016 14.9971,13.2256 14.9971,13.5016 C14.9971,13.7786 14.8137773,13.99 14.5878975,13.99 L6.40630251,13.99 C6.18042272,13.99 5.9971,13.7786 5.9971,13.5016 C5.9971,13.2256 6.18042272,13.0016 6.40630251,13.0016 L14.5878975,13.0016 Z M3,6.5 C3.55228475,6.5 4,6.94771525 4,7.5 L4,8.5 C4,9.05228475 3.55228475,9.5 3,9.5 L2,9.5 C1.44771525,9.5 1,9.05228475 1,8.5 L1,7.5 C1,6.94771525 1.44771525,6.5 2,6.5 L3,6.5 Z M3,7.5 L2,7.5 L2,8.5 L3,8.5 L3,7.5 Z M3,1 C3.55228475,1 4,1.44771525 4,2 L4,3 C4,3.55228475 3.55228475,4 3,4 L2,4 C1.44771525,4 1,3.55228475 1,3 L1,2 C1,1.44771525 1.44771525,1 2,1 L3,1 Z M3,2 L2,2 L2,3 L3,3 L3,2 Z" id="list-view_16" fill="#00090D"></path>
    </g>
</svg>