<?xml version="1.0" encoding="UTF-8"?>
<svg width="24px" height="24px" viewBox="0 0 24 24" version="1.1" xmlns="http://www.w3.org/2000/svg" xmlns:xlink="http://www.w3.org/1999/xlink">
    <!-- Generator: Sketch 60.1 (88133) - https://sketch.com -->
    <title>Navigation / view-list / list-view_24</title>
    <desc>Created with Sketch.</desc>
    <g id="Navigation-/-view-list-/-list-view_24" stroke="none" stroke-width="1" fill="none" fill-rule="evenodd">
        <path d="M21.5,11.5 C21.776,11.5 22,11.724 22,12 C22,12.276 21.776,12.5 21.5,12.5 L8.5,12.5 C8.224,12.5 8,12.276 8,12 C8,11.724 8.224,11.5 8.5,11.5 L21.5,11.5 Z M8.5,4 C8.224,4 8,3.776 8,3.5 C8,3.224 8.224,3 8.5,3 L21.5,3 C21.776,3 22,3.224 22,3.5 C22,3.776 21.776,4 21.5,4 L8.5,4 Z M21.5,20 C21.776,20 22,20.224 22,20.5 C22,20.776 21.776,21 21.5,21 L8.5,21 C8.224,21 8,20.776 8,20.5 C8,20.224 8.224,20 8.5,20 L21.5,20 Z M4,2 C4.55228475,2 5,2.44771525 5,3 L5,4 C5,4.55228475 4.55228475,5 4,5 L3,5 C2.44771525,5 2,4.55228475 2,4 L2,3 C2,2.44771525 2.44771525,2 3,2 L4,2 Z M4,3 L3,3 L3,4 L4,4 L4,3 Z M4,10.5 C4.55228475,10.5 5,10.9477153 5,11.5 L5,12.5 C5,13.0522847 4.55228475,13.5 4,13.5 L3,13.5 C2.44771525,13.5 2,13.0522847 2,12.5 L2,11.5 C2,10.9477153 2.44771525,10.5 3,10.5 L4,10.5 Z M4,11.5 L3,11.5 L3,12.5 L4,12.5 L4,11.5 Z M4,19 C4.55228475,19 5,19.4477153 5,20 L5,21 C5,21.5522847 4.55228475,22 4,22 L3,22 C2.44771525,22 2,21.5522847 2,21 L2,20 C2,19.4477153 2.44771525,19 3,19 L4,19 Z M4,20 L3,20 L3,21 L4,21 L4,20 Z" id="list-view_24" fill="#00090D"></path>
    </g>
</svg>