<?xml version="1.0" encoding="UTF-8"?>
<svg width="42px" height="16px" viewBox="0 0 42 16" version="1.1" xmlns="http://www.w3.org/2000/svg" xmlns:xlink="http://www.w3.org/1999/xlink">
    <!-- Generator: Sketch 60.1 (88133) - https://sketch.com -->
    <title>Networking / live / live_16</title>
    <desc>Created with Sketch.</desc>
    <g id="Networking-/-live-/-live_16" stroke="none" stroke-width="1" fill="none" fill-rule="evenodd">
        <path d="M14.736,3.36 L14.736,10.488 L18.936,10.488 L18.936,12 L12.72,12 L12.72,3.36 L14.736,3.36 Z M22.912,3.36 L22.912,12 L20.896,12 L20.896,3.36 L22.912,3.36 Z M26.708,3.36 L28.652,10.428 L30.62,3.36 L32.564,3.36 L29.804,12 L27.392,12 L24.632,3.36 L26.708,3.36 Z M40.116,3.36 L40.116,4.836 L36.3,4.836 L36.3,6.948 L39.768,6.948 L39.768,8.34 L36.3,8.34 L36.3,10.548 L40.116,10.548 L40.116,12 L34.284,12 L34.284,3.36 L40.116,3.36 Z M4,4 C6.209139,4 8,5.790861 8,8 C8,10.209139 6.209139,12 4,12 C1.790861,12 0,10.209139 0,8 C0,5.790861 1.790861,4 4,4 Z" id="live_42*16" fill="#00090D"></path>
    </g>
</svg>