<?xml version="1.0" encoding="UTF-8"?>
<svg width="24px" height="24px" viewBox="0 0 24 24" version="1.1" xmlns="http://www.w3.org/2000/svg" xmlns:xlink="http://www.w3.org/1999/xlink">
    <!-- Generator: Sketch 60.1 (88133) - https://sketch.com -->
    <title>Action/location/location_24</title>
    <desc>Created with Sketch.</desc>
    <g id="Action/location/location_24" stroke="none" stroke-width="1" fill="none" fill-rule="evenodd">
        <path d="M12.0001,0.9997 C15.8601,0.9997 19.0001,4.3127 19.0001,8.3847 C19.0001,13.6497 12.6741,22.3878359 12.4051,22.7588359 C12.3101,22.8878359 12.1281,22.9868359 12.0001,22.9648359 C11.8431,22.9648359 11.6941,22.8908359 11.6001,22.7648359 C11.3301,22.4058359 5.0001,13.9367 5.0001,8.3847 C5.0001,4.3127 8.1401,0.9997 12.0001,0.9997 Z M12.0001,1.9997 C8.6911,1.9997 6.0001,4.8647 6.0001,8.3847 C6.0001,12.8267 10.5851,19.6477 11.9941,21.6377 C13.3941,19.6047 18.0001,12.5957 18.0001,8.3847 C18.0001,4.8647 15.3081,1.9997 12.0001,1.9997 Z M12,7 C12.5522847,7 13,7.44771525 13,8 C13,8.55228475 12.5522847,9 12,9 C11.4477153,9 11,8.55228475 11,8 C11,7.44771525 11.4477153,7 12,7 Z" id="location_24" fill="#00090D"></path>
    </g>
</svg>