<?xml version="1.0" encoding="UTF-8"?>
<svg width="24px" height="24px" viewBox="0 0 24 24" version="1.1" xmlns="http://www.w3.org/2000/svg" xmlns:xlink="http://www.w3.org/1999/xlink">
    <!-- Generator: Sketch 60.1 (88133) - https://sketch.com -->
    <title>Action/location/location-filled_24</title>
    <desc>Created with Sketch.</desc>
    <g id="Action/location/location-filled_24" stroke="none" stroke-width="1" fill="none" fill-rule="evenodd">
        <path d="M12.0001,0.9997 C15.8601,0.9997 19.0001,4.31714469 19.0001,8.39460764 C19.0001,13.6666711 12.674,22.4188496 12.405,22.7903474 C12.31,22.9195204 12.128,23.0186533 12,22.9966237 C11.843,22.9966237 11.694,22.9225245 11.6,22.7963554 C11.33,22.4368738 5.0001,13.9540561 5.0001,8.39460764 C5.0001,4.31714469 8.1401,0.9997 12.0001,0.9997 Z M12,7 C11.4477153,7 11,7.44771525 11,8 C11,8.55228475 11.4477153,9 12,9 C12.5522847,9 13,8.55228475 13,8 C13,7.44771525 12.5522847,7 12,7 Z" id="location-filled_24" fill="#00090D"></path>
    </g>
</svg>