<?xml version="1.0" encoding="UTF-8"?>
<svg width="18px" height="18px" viewBox="0 0 18 18" version="1.1" xmlns="http://www.w3.org/2000/svg" xmlns:xlink="http://www.w3.org/1999/xlink">
    <!-- Generator: Sketch 60.1 (88133) - https://sketch.com -->
    <title>Action/location/location_18</title>
    <desc>Created with Sketch.</desc>
    <g id="Action/location/location_18" stroke="none" stroke-width="1" fill="none" fill-rule="evenodd">
        <path d="M9,0 C12.308,0 15,2.7236877 15,6.07230375 C15,10.3708109 9.627,17.4989936 9.398,17.800959 C9.305,17.9249447 9.153,18.0149344 9,17.9979364 C8.847,17.9979364 8.701,17.9279444 8.606,17.8059584 C8.378,17.5139919 3,10.6037842 3,6.07230375 C3,2.7236877 5.691,0 9,0 Z M8.994,16.6590899 C10.236,14.9252887 14,9.39692255 14,6.07230375 C14,3.27562442 11.757,0.999885354 9,0.999885354 C6.243,0.999885354 4,3.27562442 4,6.07230375 C4,9.58190134 7.745,14.9632843 8.994,16.6590899 Z M8.9999,5.00512611 C9.5529,5.00512611 9.9999,5.45307475 9.9999,6.00501147 C9.9999,6.55694818 9.5529,7.00489682 8.9999,7.00489682 C8.4469,7.00489682 7.9999,6.55694818 7.9999,6.00501147 C7.9999,5.45307475 8.4469,5.00512611 8.9999,5.00512611 Z" id="location_18" fill="#00090D"></path>
    </g>
</svg>