<?xml version="1.0" encoding="UTF-8"?>
<svg width="24px" height="24px" viewBox="0 0 24 24" version="1.1" xmlns="http://www.w3.org/2000/svg" xmlns:xlink="http://www.w3.org/1999/xlink">
    <!-- Generator: Sketch 60.1 (88133) - https://sketch.com -->
    <title>Action/feedback/love-filled_24</title>
    <desc>Created with Sketch.</desc>
    <g id="Action/feedback/love-filled_24" stroke="none" stroke-width="1" fill="none" fill-rule="evenodd">
        <path d="M12,0 C18.617,0 24,5.383 24,12 C24,18.617 18.617,24 12,24 C5.383,24 0,18.617 0,12 C0,5.383 5.383,0 12,0 Z M6.95,15.231 C6.8,14.997 6.489,14.931 6.26,15.08 C6.027,15.229 5.959,15.539 6.108,15.771 C7.405,17.793 9.607,19 12,19 C14.393,19 16.595,17.793 17.892,15.771 C18.041,15.539 17.973,15.229 17.74,15.08 C17.511,14.932 17.199,14.998 17.05,15.231 C15.938,16.965 14.051,18 12,18 C9.949,18 8.062,16.965 6.95,15.231 Z M8.70208333,8 C8.36875,8 8.03541667,8.2992 7.78208333,8.5352 L7.78208333,8.5352 L7.50041667,8.828 L7.21791667,8.5352 C6.96541667,8.2992 6.63208333,8 6.29791667,8 C5.96458333,8 5.63125,8.1184 5.37875,8.3552 C4.87375,8.8288 4.87375,9.588 5.37875,10.0616 L5.37875,10.0616 L7.49875,12 L9.62125,10.0616 C10.12625,9.588 10.12625,8.8288 9.62125,8.3552 C9.36875,8.1184 9.03541667,8 8.70208333,8 Z M17.7020833,8 C17.36875,8 17.0354167,8.2992 16.7820833,8.5352 L16.7820833,8.5352 L16.5004167,8.828 L16.2179167,8.5352 C15.9654167,8.2992 15.6320833,8 15.2979167,8 C14.9645833,8 14.63125,8.1184 14.37875,8.3552 C13.87375,8.8288 13.87375,9.588 14.37875,10.0616 L14.37875,10.0616 L16.49875,12 L18.62125,10.0616 C19.12625,9.588 19.12625,8.8288 18.62125,8.3552 C18.36875,8.1184 18.0354167,8 17.7020833,8 Z" id="love-filled_24" fill="#00090D"></path>
    </g>
</svg>