<?xml version="1.0" encoding="UTF-8"?>
<svg width="16px" height="16px" viewBox="0 0 16 16" version="1.1" xmlns="http://www.w3.org/2000/svg" xmlns:xlink="http://www.w3.org/1999/xlink">
    <!-- Generator: Sketch 60.1 (88133) - https://sketch.com -->
    <title>Tools / manage / manage_16</title>
    <desc>Created with Sketch.</desc>
    <g id="Tools-/-manage-/-manage_16" stroke="none" stroke-width="1" fill="none" fill-rule="evenodd">
        <path d="M8,9.85878046e-14 C8.24545989,9.85878046e-14 8.44960837,0.176875161 8.49194433,0.410124368 L8.5,0.5 L8.50043449,11.0500973 C9.64133817,11.2819003 10.5,12.2906746 10.5,13.5 C10.5,14.8807119 9.38071187,16 8,16 C6.61928813,16 5.5,14.8807119 5.5,13.5 C5.5,12.2903182 6.35916789,11.2813059 7.50057405,11.0498926 L7.5,0.5 C7.5,0.223857625 7.72385763,9.85878046e-14 8,9.85878046e-14 Z M2.5,0 C3.88071187,0 5,1.11928813 5,2.5 C5,3.70932545 4.14133817,4.71809967 3.00043449,4.94990271 L3,15.5 C3,15.7761424 2.77614237,16 2.5,16 C2.25454011,16 2.05039163,15.8231248 2.00805567,15.5898756 L2,15.5 L2.00057405,4.9501074 C0.859167895,4.7186941 0,3.70968176 0,2.5 C0,1.11928813 1.11928813,0 2.5,0 Z M13.5,0 C14.8807119,0 16,1.11928813 16,2.5 C16,3.70932545 15.1413382,4.71809967 14.0004345,4.94990271 L14,15.5 C14,15.7761424 13.7761424,16 13.5,16 C13.2545401,16 13.0503916,15.8231248 13.0080557,15.5898756 L13,15.5 L13.000574,4.9501074 C11.8591679,4.7186941 11,3.70968176 11,2.5 C11,1.11928813 12.1192881,0 13.5,0 Z M8,12 C7.17157288,12 6.5,12.6715729 6.5,13.5 C6.5,14.3284271 7.17157288,15 8,15 C8.82842712,15 9.5,14.3284271 9.5,13.5 C9.5,12.6715729 8.82842712,12 8,12 Z M2.5,1 C1.67157288,1 1,1.67157288 1,2.5 C1,3.32842712 1.67157288,4 2.5,4 C3.32842712,4 4,3.32842712 4,2.5 C4,1.67157288 3.32842712,1 2.5,1 Z M13.5,1 C12.6715729,1 12,1.67157288 12,2.5 C12,3.32842712 12.6715729,4 13.5,4 C14.3284271,4 15,3.32842712 15,2.5 C15,1.67157288 14.3284271,1 13.5,1 Z" id="manage_16" fill="#00090D"></path>
    </g>
</svg>