<?xml version="1.0" encoding="UTF-8"?>
<svg width="24px" height="24px" viewBox="0 0 24 24" version="1.1" xmlns="http://www.w3.org/2000/svg" xmlns:xlink="http://www.w3.org/1999/xlink">
    <!-- Generator: Sketch 60.1 (88133) - https://sketch.com -->
    <title>Tools / manage / manage_24</title>
    <desc>Created with Sketch.</desc>
    <g id="Tools-/-manage-/-manage_24" stroke="none" stroke-width="1" fill="none" fill-rule="evenodd">
        <path d="M12,1 C12.2454599,1 12.4496084,1.17687516 12.4919443,1.41012437 L12.5,1.5 L12.5009499,16.0355804 C14.1966339,16.2786039 15.5,17.7370932 15.5,19.5 C15.5,21.4329966 13.9329966,23 12,23 C10.0670034,23 8.5,21.4329966 8.5,19.5 C8.5,17.7367468 9.80387842,16.2780307 11.5000497,16.0354373 L11.5,1.5 C11.5,1.22385763 11.7238576,1 12,1 Z M4.5,1 C6.43299662,1 8,2.56700338 8,4.5 C8,6.26290678 6.69663386,7.72139608 5.00094991,7.96441956 L5,22.5 C5,22.7761424 4.77614237,23 4.5,23 C4.25454011,23 4.05039163,22.8231248 4.00805567,22.5898756 L4,22.5 L4.00004975,7.96456269 C2.30387842,7.72196926 1,6.26325319 1,4.5 C1,2.56700338 2.56700338,1 4.5,1 Z M19.5,1 C21.4329966,1 23,2.56700338 23,4.5 C23,6.26290678 21.6966339,7.72139608 20.0009499,7.96441956 L20,22.5 C20,22.7761424 19.7761424,23 19.5,23 C19.2545401,23 19.0503916,22.8231248 19.0080557,22.5898756 L19,22.5 L19.0000497,7.96456269 C17.3038784,7.72196926 16,6.26325319 16,4.5 C16,2.56700338 17.5670034,1 19.5,1 Z M12,17 C10.6192881,17 9.5,18.1192881 9.5,19.5 C9.5,20.8807119 10.6192881,22 12,22 C13.3807119,22 14.5,20.8807119 14.5,19.5 C14.5,18.1192881 13.3807119,17 12,17 Z M4.5,2 C3.11928813,2 2,3.11928813 2,4.5 C2,5.88071187 3.11928813,7 4.5,7 C5.88071187,7 7,5.88071187 7,4.5 C7,3.11928813 5.88071187,2 4.5,2 Z M19.5,2 C18.1192881,2 17,3.11928813 17,4.5 C17,5.88071187 18.1192881,7 19.5,7 C20.8807119,7 22,5.88071187 22,4.5 C22,3.11928813 20.8807119,2 19.5,2 Z" id="manage_24" fill="#00090D"></path>
    </g>
</svg>