<?xml version="1.0" encoding="UTF-8"?>
<svg width="16px" height="16px" viewBox="0 0 16 16" version="1.1" xmlns="http://www.w3.org/2000/svg" xmlns:xlink="http://www.w3.org/1999/xlink">
    <!-- Generator: Sketch 60.1 (88133) - https://sketch.com -->
    <title>Navigation / view-matrix / matrix-view_16</title>
    <desc>Created with Sketch.</desc>
    <g id="Navigation-/-view-matrix-/-matrix-view_16" stroke="none" stroke-width="1" fill="none" fill-rule="evenodd">
        <path d="M3,12 C3.55228475,12 4,12.4477153 4,13 L4,14 C4,14.5522847 3.55228475,15 3,15 L2,15 C1.44771525,15 1,14.5522847 1,14 L1,13 C1,12.4477153 1.44771525,12 2,12 L3,12 Z M8.5,12 C9.05228475,12 9.5,12.4477153 9.5,13 L9.5,14 C9.5,14.5522847 9.05228475,15 8.5,15 L7.5,15 C6.94771525,15 6.5,14.5522847 6.5,14 L6.5,13 C6.5,12.4477153 6.94771525,12 7.5,12 L8.5,12 Z M14,12 C14.5522847,12 15,12.4477153 15,13 L15,14 C15,14.5522847 14.5522847,15 14,15 L13,15 C12.4477153,15 12,14.5522847 12,14 L12,13 C12,12.4477153 12.4477153,12 13,12 L14,12 Z M3,13 L2,13 L2,14 L3,14 L3,13 Z M8.5,13 L7.5,13 L7.5,14 L8.5,14 L8.5,13 Z M14,13 L13,13 L13,14 L14,14 L14,13 Z M3,6.5 C3.55228475,6.5 4,6.94771525 4,7.5 L4,8.5 C4,9.05228475 3.55228475,9.5 3,9.5 L2,9.5 C1.44771525,9.5 1,9.05228475 1,8.5 L1,7.5 C1,6.94771525 1.44771525,6.5 2,6.5 L3,6.5 Z M8.5,6.5 C9.05228475,6.5 9.5,6.94771525 9.5,7.5 L9.5,8.5 C9.5,9.05228475 9.05228475,9.5 8.5,9.5 L7.5,9.5 C6.94771525,9.5 6.5,9.05228475 6.5,8.5 L6.5,7.5 C6.5,6.94771525 6.94771525,6.5 7.5,6.5 L8.5,6.5 Z M14,6.5 C14.5522847,6.5 15,6.94771525 15,7.5 L15,8.5 C15,9.05228475 14.5522847,9.5 14,9.5 L13,9.5 C12.4477153,9.5 12,9.05228475 12,8.5 L12,7.5 C12,6.94771525 12.4477153,6.5 13,6.5 L14,6.5 Z M3,7.5 L2,7.5 L2,8.5 L3,8.5 L3,7.5 Z M8.5,7.5 L7.5,7.5 L7.5,8.5 L8.5,8.5 L8.5,7.5 Z M14,7.5 L13,7.5 L13,8.5 L14,8.5 L14,7.5 Z M3,1 C3.55228475,1 4,1.44771525 4,2 L4,3 C4,3.55228475 3.55228475,4 3,4 L2,4 C1.44771525,4 1,3.55228475 1,3 L1,2 C1,1.44771525 1.44771525,1 2,1 L3,1 Z M8.5,1 C9.05228475,1 9.5,1.44771525 9.5,2 L9.5,3 C9.5,3.55228475 9.05228475,4 8.5,4 L7.5,4 C6.94771525,4 6.5,3.55228475 6.5,3 L6.5,2 C6.5,1.44771525 6.94771525,1 7.5,1 L8.5,1 Z M14,1 C14.5522847,1 15,1.44771525 15,2 L15,3 C15,3.55228475 14.5522847,4 14,4 L13,4 C12.4477153,4 12,3.55228475 12,3 L12,2 C12,1.44771525 12.4477153,1 13,1 L14,1 Z M3,2 L2,2 L2,3 L3,3 L3,2 Z M8.5,2 L7.5,2 L7.5,3 L8.5,3 L8.5,2 Z M14,2 L13,2 L13,3 L14,3 L14,2 Z" id="matrix-view_16" fill="#00090D"></path>
    </g>
</svg>