<?xml version="1.0" encoding="UTF-8"?>
<svg width="18px" height="18px" viewBox="0 0 18 18" version="1.1" xmlns="http://www.w3.org/2000/svg" xmlns:xlink="http://www.w3.org/1999/xlink">
    <!-- Generator: Sketch 60.1 (88133) - https://sketch.com -->
    <title>Navigation / menu / menu_18</title>
    <desc>Created with Sketch.</desc>
    <g id="Navigation-/-menu-/-menu_18" stroke="none" stroke-width="1" fill="none" fill-rule="evenodd">
        <path d="M17,13 C17.5522847,13 18,13.4477153 18,14 C18,14.5128358 17.6139598,14.9355072 17.1166211,14.9932723 L17,15 L1,15 C0.44771525,15 0,14.5522847 0,14 C0,13.4871642 0.38604019,13.0644928 0.883378875,13.0067277 L1,13 L17,13 Z M17,8 C17.5522847,8 18,8.44771525 18,9 C18,9.51283584 17.6139598,9.93550716 17.1166211,9.99327227 L17,10 L1,10 C0.44771525,10 0,9.55228475 0,9 C0,8.48716416 0.38604019,8.06449284 0.883378875,8.00672773 L1,8 L17,8 Z M17,3 C17.5522847,3 18,3.44771525 18,4 C18,4.51283584 17.6139598,4.93550716 17.1166211,4.99327227 L17,5 L1,5 C0.44771525,5 0,4.55228475 0,4 C0,3.48716416 0.38604019,3.06449284 0.883378875,3.00672773 L1,3 L17,3 Z" id="menu_18" fill="#00090D"></path>
    </g>
</svg>