<?xml version="1.0" encoding="UTF-8"?>
<svg width="16px" height="16px" viewBox="0 0 16 16" version="1.1" xmlns="http://www.w3.org/2000/svg" xmlns:xlink="http://www.w3.org/1999/xlink">
    <!-- Generator: Sketch 60.1 (88133) - https://sketch.com -->
    <title>Topology / Meraki-camera / Meraki-camera-topology_16</title>
    <desc>Created with Sketch.</desc>
    <g id="Topology-/-Meraki-camera-/-Meraki-camera-topology_16" stroke="none" stroke-width="1" fill="none" fill-rule="evenodd">
        <path d="M14,0 L2,0 C0.89543,0 0,0.89543 0,2 L0,14 C0,15.1046 0.89543,16 2,16 L14,16 C15.1046,16 16,15.1046 16,14 L16,2 C16,0.89543 15.1046,0 14,0 Z" id="secondary-color" fill="#FFA000"></path>
        <path d="M9.04188,11.0419 C9.25706,9.87996 10.2758,9 11.5,9 C12.7242,9 13.7429,9.87996 13.9581,11.0419 C15.12,11.2571 16,12.2758 16,13.5 C16,14.8807 14.8807,16 13.5,16 L9.5,16 C8.11929,16 7,14.8807 7,13.5 C7,12.2758 7.87996,11.2571 9.04188,11.0419 Z M11.7727,15 C11.8128,15 11.8491,14.976 11.8648,14.939 L12.5214,13.3873 C12.5638,13.2869 12.7135,13.3173 12.7135,13.4263 L12.7135,14.9 C12.7135,14.9552 12.7582,15 12.8135,15 L13.4,15 C13.4552,15 13.5,14.9552 13.5,14.9 L13.5,12.1 C13.5,12.0448 13.4552,12 13.4,12 L12.5472,12 C12.5069,12 12.4705,12.0242 12.4549,12.0615 L11.5934,14.1242 C11.5594,14.2056 11.4442,14.2063 11.4093,14.1252 L10.5196,12.0604 C10.5038,12.0238 10.4677,12 10.4277,12 L9.6,12 C9.54477,12 9.5,12.0448 9.5,12.1 L9.5,14.9 C9.5,14.9552 9.54477,15 9.6,15 L10.1348,15 C10.19,15 10.2348,14.9552 10.2348,14.9 L10.2348,13.4191 C10.2348,13.3106 10.3833,13.2797 10.4265,13.3792 L11.1039,14.9398 C11.1198,14.9764 11.1558,15 11.1956,15 L11.7727,15 Z M16,10.7869 C16,10.9605 15.7885,11.0572 15.6442,10.9605 C15.483,10.8523 15.3108,10.7591 15.1298,10.6829 C15.0525,10.6503 15,10.576 15,10.4922 L15,2 C15,1.44772 14.5523,1 14,1 L2,1 C1.44772,1 1,1.44772 1,2 L1,14 C1,14.5523 1.44772,15 2,15 L6.27614,15 C6.34829,15 6.4144,15.0391 6.45224,15.1006 C6.55958,15.2748 6.68392,15.4374 6.82295,15.5861 C6.95628,15.7288 6.86217,16 6.66692,16 L2,16 C0.89543,16 0,15.1046 0,14 L0,2 C0,0.89543 0.89543,0 2,0 L14,0 C15.1046,0 16,0.89543 16,2 L16,10.7869 Z M8.76634,9.68895 C8.64056,9.94007 8.54836,10.2109 8.49563,10.4956 C8.37794,10.5174 8.26261,10.546 8.15006,10.5808 C8.09119,10.3965 7.96755,10.2711 7.76269,10.187 L7.73818,10.303 C7.72564,10.5327 7.64704,10.7189 7.51785,10.859 C7.40392,10.9255 7.29468,10.9991 7.19074,11.0793 C7.04174,11.1391 6.86823,11.1696 6.67759,11.1696 C6.12066,11.1696 5.69678,10.9232 5.52804,10.4409 L5.5,10.2758 L5.50044,10.1986 C5.29596,10.3189 5.19835,10.4889 5.17917,10.7124 C5.13211,11.2606 5.67606,11.6959 6.54644,11.7558 C6.34796,12.0407 6.19679,12.3611 6.1043,12.7055 C4.92018,12.496 4.08898,11.7204 4.18283,10.6268 C4.24856,9.86108 4.7199,9.35674 5.50652,9.12579 L5.51624,7.4111 L2.41672,6.90411 C2.09742,6.85319 1.90968,6.51718 2.0337,6.21857 L3.28925,3.19542 C3.37695,2.98425 3.59673,2.85948 3.823,2.8924 L11.5775,4.04236 C11.8425,4.08091 12.03,4.32138 12.0029,4.58777 L11.9356,5.24983 L13.4433,5.03243 C13.8056,4.98132 14.0983,5.32402 13.9912,5.67393 L13.1733,8.34477 C13.1601,8.38778 13.1418,8.42759 13.1192,8.4638 C12.6497,8.1699 12.0947,8 11.5,8 C11.1081,8 10.7335,8.07377 10.3892,8.20818 L8.25442,7.85899 L7.97102,9.2007 C8.29977,9.30677 8.56679,9.47179 8.76634,9.68895 Z M6.51524,7.57451 L6.5,10.1477 C6.52595,10.1632 6.57496,10.1696 6.67759,10.1696 C6.79785,10.1696 6.74183,10.2089 6.75081,10.1674 L7.26699,7.69747 L6.51524,7.57451 Z M11.8312,6.27517 L11.7478,7.095 L12.3842,7.5064 L12.805,6.13236 L11.8312,6.27517 Z M10.9898,5.01187 L4.03453,3.93284 L3.1713,6.01134 L10.7568,7.30111 L10.9898,5.01187 Z" id="Meraki-camera-topology_16" fill="#00090D"></path>
    </g>
</svg>