<?xml version="1.0" encoding="UTF-8"?>
<svg width="24px" height="24px" viewBox="0 0 24 24" version="1.1" xmlns="http://www.w3.org/2000/svg" xmlns:xlink="http://www.w3.org/1999/xlink">
    <!-- Generator: Sketch 60.1 (88133) - https://sketch.com -->
    <title>Topology / Meraki-camera / Meraki-camera-topology_24</title>
    <desc>Created with Sketch.</desc>
    <g id="Topology-/-Meraki-camera-/-Meraki-camera-topology_24" stroke="none" stroke-width="1" fill="none" fill-rule="evenodd">
        <path d="M20.5,1 L3.5,1 C2.11929,1 1,2.11929 1,3.5 L1,20.5 C1,21.8807 2.11929,23 3.5,23 L20.5,23 C21.8807,23 23,21.8807 23,20.5 L23,3.5 C23,2.11929 21.8807,1 20.5,1 Z" id="secondary-color" fill="#FFA000"></path>
        <path d="M20.499,24 L15,24 C13.346,24 12,22.654 12,21 C12,19.712 12.835,18.58 14.035,18.172 C14.221,16.363 15.704,15 17.5,15 C18.853,15 20.073,15.791 20.645,17.003 C22.507,17.08 23.999,18.619 23.999,20.5 C23.999,22.43 22.428,24 20.499,24 Z M18.4421,22.5 C18.4823,22.5 18.5186,22.476 18.5342,22.439 L19.6281,19.854 C19.6706,19.7536 19.8202,19.7839 19.8202,19.8929 L19.8202,22.4 C19.8202,22.4552 19.865,22.5 19.9202,22.5 L20.9,22.5 C20.9552,22.5 21,22.4552 21,22.4 L21,18.1 C21,18.0448 20.9552,18 20.9,18 L19.5375,18 C19.4972,18 19.4608,18.0242 19.4452,18.0615 L18.0947,21.295 C18.0607,21.3765 17.9455,21.3771 17.9106,21.296 L16.5163,18.0604 C16.5005,18.0238 16.4644,18 16.4245,18 L15.1,18 C15.0448,18 15,18.0448 15,18.1 L15,22.5 L16.0022,22.5 C16.0574,22.5 16.1022,22.4552 16.1022,22.4 L16.1022,19.8878 C16.1022,19.7793 16.2507,19.7485 16.2939,19.848 L17.4189,22.4398 C17.4348,22.4764 17.4708,22.5 17.5106,22.5 L18.4421,22.5 Z M18.931,13.2345 C18.4791,13.0818 17.9972,12.9998 17.4998,12.9998 C17.3566,12.9998 17.2149,13.0065 17.0751,13.0197 L16.9671,12.952 L16.9607,13.0319 C16.4639,13.0916 15.9917,13.2326 15.558,13.4419 L11.6434,12.6079 L11.4442,14.0719 C12.0014,14.415 12.294,14.9658 12.2766,15.6797 C12.2588,17.1947 11.2971,17.9897 9.66667,17.9897 C8.07742,17.9897 6.9204,16.9933 7.03731,15.6311 C7.09641,14.9426 7.43241,14.4118 8.00768,14.0653 L8.00768,11.8333 L4.41988,11.069 C4.13044,11.0073 3.95759,10.70911 4.04793,10.4273 L5.33764,6.40415 C5.41568,6.16073 5.66475,6.01536 5.91508,6.06715 L16.8974,8.3393 C17.1444,8.3904 17.3146,8.61747 17.2945,8.86889 L17.2522,9.39555 L19.3655,8.89197 C19.7358,8.80373 20.0649,9.14514 19.9632,9.51195 L18.931,13.2345 Z M23,15.9741 C23,16.1122 22.8631,16.209 22.7303,16.1711 C22.5503,16.1199 22.3658,16.0795 22.1774,16.0509 C22.0767,16.0356 22,15.9505 22,15.8486 L22,3.5 C22,2.67157 21.3284,2 20.5,2 L3.5,2 C2.67157,2 2,2.67157 2,3.5 L2,20.5 C2,21.3284 2.67157,22 3.5,22 L9.97143,22 C10.06262,22 10.14176,22.0619 10.16799,22.1492 C10.22423,22.3364 10.29384,22.5179 10.37572,22.6925 C10.44114,22.8321 10.34355,23 10.18943,23 L3.5,23 C2.11929,23 1,21.8807 1,20.5 L1,3.5 C1,2.11929 2.11929,1 3.5,1 L20.5,1 C21.8807,1 23,2.11929 23,3.5 L23,15.9741 Z M11.2607,15.4203 L11.2182,15.7322 L11.0899,15.8534 C10.64368,16.2749 10.16703,16.5 9.66667,16.5 C9.17634,16.5 8.6848,16.2837 8.18975,15.8758 L8.03155,15.7454 C7.98939,16.4495 8.63054,16.9897 9.66667,16.9897 C10.78477,16.9897 11.2658,16.592 11.2768,15.6617 C11.2789,15.5743 11.2738,15.4941 11.2607,15.4203 Z M10.66266,12.399 L9.00768,12.0464 L9.00768,15.2426 C9.26051,15.4186 9.48058,15.5 9.66667,15.5 C9.85157,15.5 10.05345,15.4184 10.2763,15.2379 L10.66266,12.399 Z M17.1682,10.44357 L17.0567,11.8345 C17.0794,11.8444 17.1016,11.8561 17.1231,11.8696 L18.1017,12.4829 L18.7732,10.06111 L17.1682,10.44357 Z M6.15268,7.13749 L5.16897,10.20611 L15.9991,12.5134 L16.2624,9.22911 L6.15268,7.13749 Z" id="Meraki-camera-topology_24" fill="#00090D"></path>
    </g>
</svg>