<?xml version="1.0" encoding="UTF-8"?>
<svg width="16px" height="16px" viewBox="0 0 16 16" version="1.1" xmlns="http://www.w3.org/2000/svg" xmlns:xlink="http://www.w3.org/1999/xlink">
    <!-- Generator: Sketch 60.1 (88133) - https://sketch.com -->
    <title>Topology / AP / Meraki-AP-topology_16</title>
    <desc>Created with Sketch.</desc>
    <g id="Topology-/-AP-/-Meraki-AP-topology_16" stroke="none" stroke-width="1" fill="none" fill-rule="evenodd">
        <path d="M14,0 L2,0 C0.89543,0 0,0.89543 0,2 L0,14 C0,15.1046 0.89543,16 2,16 L14,16 C15.1046,16 16,15.1046 16,14 L16,2 C16,0.89543 15.1046,0 14,0 Z" id="secondary-color" fill="#FFA000"></path>
        <path d="M9.04188,11.0419 C9.25706,9.87996 10.2758,9 11.5,9 C12.6765,9 13.6632,9.81272 13.9293,10.9074 C13.9489,10.9879 14.0121,11.0511 14.0926,11.0707 C15.1873,11.3368 16,12.3235 16,13.5 C16,14.8807 14.8807,16 13.5,16 L9.5,16 C8.11929,16 7,14.8807 7,13.5 C7,12.2758 7.87996,11.2571 9.04188,11.0419 Z M11.7727,15 C11.8128,15 11.8491,14.976 11.8648,14.939 L12.5214,13.3873 C12.5638,13.2869 12.7135,13.3173 12.7135,13.4263 L12.7135,14.9 C12.7135,14.9552 12.7582,15 12.8135,15 L13.4,15 C13.4552,15 13.5,14.9552 13.5,14.9 L13.5,12.1 C13.5,12.0448 13.4552,12 13.4,12 L12.5472,12 C12.5069,12 12.4705,12.0242 12.4549,12.0615 L11.5934,14.1242 C11.5594,14.2056 11.4442,14.2063 11.4093,14.1252 L10.5196,12.0604 C10.5038,12.0238 10.4677,12 10.4277,12 L9.6,12 C9.54477,12 9.5,12.0448 9.5,12.1 L9.5,14.9 C9.5,14.9552 9.54477,15 9.6,15 L10.1348,15 C10.19,15 10.2348,14.9552 10.2348,14.9 L10.2348,13.4191 C10.2348,13.3106 10.3833,13.2797 10.4265,13.3792 L11.1039,14.9398 C11.1198,14.9764 11.1558,15 11.1956,15 L11.7727,15 Z M14,0 C15.1046,0 16,0.89543 16,2 L16,10.7869 C16,10.9605 15.7885,11.0572 15.6442,10.9605 C15.483,10.8523 15.3108,10.7591 15.1298,10.6829 C15.0525,10.6503 15,10.576 15,10.4922 L15,2 C15,1.44772 14.5523,1 14,1 L2,1 C1.44772,1 1,1.44772 1,2 L1,14 C1,14.5523 1.44772,15 2,15 L6.27614,15 C6.34829,15 6.4144,15.0391 6.45224,15.1006 C6.55958,15.2748 6.68392,15.4374 6.82295,15.5861 C6.95628,15.7288 6.86217,16 6.66692,16 L2,16 C0.89543,16 0,15.1046 0,14 L0,2 C0,0.89543 0.89543,0 2,0 L14,0 Z M9.73116,8.47949 L9.58587,8.56948 C9.32427,8.74054 9.08652,8.94588 8.8793,9.17964 C8.01217,8.85543 6.9659,9.03183 6.29175,9.7082 C6.09575,9.9032 5.77975,9.9032 5.58375,9.7082 C5.38875,9.5122 5.38875,9.1962 5.58375,9.0002 C6.66726,7.91585 8.43016,7.74228 9.73116,8.47949 Z M8.00045,5.5001 C9.56245,5.5001 11.03045,6.1081 12.13545,7.2121 C12.33045,7.4081 12.33045,7.7241 12.13545,7.9201 C12.08435,7.97069 12.02505,8.00822 11.96195,8.03255 C11.8610833,8.01753 11.7589278,8.00793667 11.65575,8.00321 L11.533,8 L11.4806875,7.9659875 C11.46215,7.9521225 11.44435,7.936825 11.42745,7.9201 C10.51245,7.0041 9.29545,6.5001 8.00045,6.5001 C6.70545,6.5001 5.48745,7.0041 4.57245,7.9201 C4.37745,8.1151 4.06045,8.1151 3.86545,7.9201 C3.67045,7.7241 3.67045,7.4081 3.86545,7.2121 C4.96945,6.1081 6.43745,5.5001 8.00045,5.5001 Z M8.00025,3 C10.21125,3 12.29025,3.861 13.85425,5.424 C14.04925,5.62 14.04925,5.936 13.85425,6.132 C13.75625,6.229 13.62825,6.278 13.50025,6.278 C13.37225,6.278 13.24425,6.229 13.14625,6.132 C11.77225,4.757 9.94425,4 8.00025,4 C6.05625,4 4.22825,4.757 2.85425,6.132 C2.65825,6.327 2.34225,6.327 2.14625,6.132 C1.95125,5.936 1.95125,5.62 2.14625,5.424 C3.71025,3.861 5.78925,3 8.00025,3 Z" id="Meraki-AP-topology_16" fill="#00090D"></path>
    </g>
</svg>