<?xml version="1.0" encoding="UTF-8"?>
<svg width="24px" height="24px" viewBox="0 0 24 24" version="1.1" xmlns="http://www.w3.org/2000/svg" xmlns:xlink="http://www.w3.org/1999/xlink">
    <!-- Generator: Sketch 60.1 (88133) - https://sketch.com -->
    <title>Topology / AP / Meraki-AP-topology_24</title>
    <desc>Created with Sketch.</desc>
    <g id="Topology-/-AP-/-Meraki-AP-topology_24" stroke="none" stroke-width="1" fill="none" fill-rule="evenodd">
        <path d="M20.5,1 L3.5,1 C2.11929,1 1,2.11929 1,3.5 L1,20.5 C1,21.8807 2.11929,23 3.5,23 L20.5,23 C21.8807,23 23,21.8807 23,20.5 L23,3.5 C23,2.11929 21.8807,1 20.5,1 Z" id="secondary-color" fill="#FFA000"></path>
        <path d="M17.5,15 C18.853,15 20.073,15.791 20.645,17.003 C22.507,17.08 23.999,18.619 23.999,20.5 C23.999,22.43 22.428,24 20.499,24 L15,24 C13.346,24 12,22.654 12,21 C12,19.712 12.835,18.58 14.035,18.172 C14.221,16.363 15.704,15 17.5,15 Z M20.5,1 C21.8807,1 23,2.11929 23,3.5 L23.0005001,15.6839 C23.0005001,15.8242 22.8596,15.9212 22.7258,15.8793 C22.5454,15.8227 22.3605,15.7769 22.1716,15.7424 C22.0737,15.7246 22.0006,15.6407 22.0006,15.5413 L22,3.5 C22,2.67157 21.3284,2 20.5,2 L3.5,2 C2.67157,2 2,2.67157 2,3.5 L2,20.5 C2,21.3284 2.67157,22 3.5,22 L9.97128,21.9994 C10.0625,21.9994 10.14166,22.0613 10.16788,22.1487 C10.22406,22.3358 10.29362,22.5173 10.37542,22.6919 C10.44079,22.8314 10.34322,22.9993 10.18914,22.9993 L3.5,23 C2.11929,23 1,21.8807 1,20.5 L1,3.5 C1,2.11929 2.11929,1 3.5,1 L20.5,1 Z M16.4245,18 L15.1,18 C15.0448,18 15,18.0448 15,18.1 L15,22.4 C15,22.4552 15.0448,22.5 15.1,22.5 L16.0022,22.5 C16.0574,22.5 16.1022,22.4552 16.1022,22.4 L16.102,19.407 L17.4189,22.4398 C17.4348,22.4764 17.4708,22.5 17.5106,22.5 L18.4421,22.5 C18.4823,22.5 18.5186,22.476 18.5342,22.439 L19.6281,19.854 C19.6706,19.7536 19.8202,19.7839 19.8202,19.8929 L19.8202,22.4 C19.8202,22.4552 19.865,22.5 19.9202,22.5 L20.9,22.5 C20.9552,22.5 21,22.4552 21,22.4 L21,18.1 C21,18.0448 20.9552,18 20.9,18 L19.5375,18 C19.4972,18 19.4608,18.0242 19.4452,18.0615 L18.0947,21.295 C18.0607,21.3765 17.9455,21.3771 17.9106,21.296 L16.5163,18.0604 C16.5005,18.0238 16.4644,18 16.4245,18 Z M12,17 C12.214,17 12.3966,17.1344 12.4679,17.3234 C12.1158,17.4686 11.7911,17.6622 11.5006,17.8948 L11.5,17.5 C11.5,17.2239 11.7239,17 12,17 Z M14.6337,13.8723 L14.6115,13.888 C14.3417,14.0856 14.0936,14.3123 13.8718,14.5639 C12.6241,13.7649 11.0014,13.8378 9.82304,14.7818 C9.61004,14.9528 9.29504,14.9198 9.12004,14.7038 C8.94804,14.4878 8.98204,14.1738 9.19804,14.0008 C10.77772,12.7351 13.0099,12.6923 14.6337,13.8723 Z M11.9998,8.9998 C13.9498,8.9998 15.7858,9.6458 17.3098,10.8678 C17.5248,11.0408 17.5598,11.3558 17.3868,11.5708 C17.2878,11.6938 17.1438,11.7578 16.9968,11.7578 C16.8868,11.7578 16.7758,11.7218 16.6848,11.6478 C15.3398,10.5698 13.7198,9.9998 11.9998,9.9998 C10.27983,9.9998 8.65984,10.5698 7.31484,11.6478 C7.10284,11.8208 6.78584,11.7878 6.61284,11.5708 C6.43984,11.3558 6.47484,11.0408 6.68984,10.8678 C8.21384,9.6458 10.04983,8.9998 11.9998,8.9998 Z M12.0003,5 C14.8333,5 17.6073,5.974 19.8123,7.742 C20.0283,7.915 20.0623,8.229 19.8893,8.445 C19.7913,8.568 19.6463,8.632 19.5003,8.632 C19.3893,8.632 19.2793,8.596 19.1873,8.522 C17.1293,6.872 14.6443,6 12.0003,6 C9.35534,6 6.87034,6.872 4.81234,8.522 C4.59934,8.694 4.28334,8.661 4.11034,8.445 C3.93734,8.229 3.97134,7.915 4.18734,7.742 C6.39234,5.974 9.16634,5 12.0003,5 Z" id="Meraki-AP-topology_24" fill="#00090D"></path>
    </g>
</svg>