<?xml version="1.0" encoding="UTF-8"?>
<svg width="24px" height="24px" viewBox="0 0 24 24" version="1.1" xmlns="http://www.w3.org/2000/svg" xmlns:xlink="http://www.w3.org/1999/xlink">
    <!-- Generator: Sketch 60.1 (88133) - https://sketch.com -->
    <title>Topology / WLC / Meraki-WLC-topology_24</title>
    <desc>Created with Sketch.</desc>
    <g id="Topology-/-WLC-/-Meraki-WLC-topology_24" stroke="none" stroke-width="1" fill="none" fill-rule="evenodd">
        <path d="M20.5,1 L3.5,1 C2.11929,1 1,2.11929 1,3.5 L1,20.5 C1,21.8807 2.11929,23 3.5,23 L20.5,23 C21.8807,23 23,21.8807 23,20.5 L23,3.5 C23,2.11929 21.8807,1 20.5,1 Z" id="secondary-color" fill="#FFA000"></path>
        <path d="M20.499,24 L15,24 C13.346,24 12,22.654 12,21 C12,19.712 12.835,18.58 14.035,18.172 C14.221,16.363 15.704,15 17.5,15 C18.853,15 20.073,15.791 20.645,17.003 C22.507,17.08 23.999,18.619 23.999,20.5 C23.999,22.43 22.428,24 20.499,24 Z M18.4421,22.5 C18.4823,22.5 18.5186,22.476 18.5342,22.439 L19.6281,19.854 C19.6706,19.7536 19.8202,19.7839 19.8202,19.8929 L19.8202,22.4 C19.8202,22.4552 19.865,22.5 19.9202,22.5 L20.9,22.5 C20.9552,22.5 21,22.4552 21,22.4 L21,18.1 C21,18.0448 20.9552,18 20.9,18 L19.5375,18 C19.4972,18 19.4608,18.0242 19.4452,18.0615 L18.0947,21.295 C18.0607,21.3765 17.9455,21.3771 17.9106,21.296 L16.5163,18.0604 C16.5005,18.0238 16.4644,18 16.4245,18 L15.1,18 C15.0448,18 15,18.0448 15,18.1 L15,22.4 C15,22.4552 15.0448,22.5 15.1,22.5 L16.0022,22.5 C16.0574,22.5 16.1022,22.4552 16.1022,22.4 L16.1022,19.4062 L17.4189,22.4398 C17.4348,22.4764 17.4708,22.5 17.5106,22.5 L18.4421,22.5 Z M13.4405,15.5812 C13.2179,16.0526 13.0733,16.5699 13.0236,17.1166 L12.4984,16.9067 L12.4984,17.3084 C12.1348,17.4563 11.7986,17.656 11.4984,17.8976 L11.4984,16.9069 L10.10766,17.4632 C9.97946,17.5145 9.83397,17.4521 9.78269,17.3239 C9.75621,17.2577 9.75926,17.1834 9.79105,17.1196 L11.7747,13.1389 C11.8363,13.0153 11.9864,12.9651 12.11,13.0267 C12.1586,13.0509 12.198,13.0902 12.2222,13.1388 L13.4405,15.5812 Z M14.8891,13.8398 L14.1563,12.4909 C14.0904,12.3696 14.1354,12.2178 14.2567,12.1519 C14.3044,12.126 14.3592,12.1163 14.4129,12.1243 L18.8128,12.781 C18.9493,12.8014 19.0435,12.9286 19.0231,13.0652 C19.0131,13.1322 18.9764,13.1921 18.9217,13.2314 C18.4725,13.0807 17.9938,12.9998 17.4998,12.9998 C16.527,12.9998 15.6255,13.3101 14.8891,13.8398 Z M23,16.2573 C22.7362,16.1637 22.4611,16.094 22.1774,16.0509 C22.0767,16.0356 22,15.9505 22,15.8486 L22,3.5 C22,2.67157 21.3284,2 20.5,2 L3.5,2 C2.67157,2 2,2.67157 2,3.5 L2,20.5 C2,21.3284 2.67157,22 3.5,22 L9.97143,22 C10.06262,22 10.14176,22.0619 10.16799,22.1492 C10.22423,22.3364 10.29384,22.5179 10.37572,22.6925 C10.44114,22.8321 10.34355,23 10.18943,23 L3.5,23 C2.11929,23 1,21.8807 1,20.5 L1,3.5 C1,2.11929 2.11929,1 3.5,1 L20.5,1 C21.8807,1 23,2.11929 23,3.5 L23,16.2573 Z M11.4984,7.90691 L10.10766,8.4632 C9.97946,8.51448 9.83397,8.45212 9.78269,8.32393 C9.75621,8.25773 9.75926,8.18338 9.79105,8.11957 L11.7747,4.13892 C11.8363,4.01534 11.9864,3.96508 12.11,4.02666 C12.1586,4.05088 12.198,4.09025 12.2222,4.13883 L14.2079,8.11964 C14.2695,8.24319 14.2193,8.39332 14.0958,8.45495 C14.032,8.48677 13.9576,8.48984 13.8914,8.46338 L12.4984,7.90672 L12.4984,10.5 C12.4984,10.77614 12.2745,11 11.9984,11 C11.7222,11 11.4984,10.77614 11.4984,10.5 L11.4984,7.90691 Z M6.93293,14.8785 L4.8088,16.3659 C4.5826,16.5242 4.27082,16.4693 4.11244,16.2431 C3.95405,16.0169 4.00902,15.7051 4.23522,15.5467 L6.35952,14.0593 L5.10451,13.2374 C5.04486,13.1984 5.00473,13.1357 4.99421,13.0652 C4.97382,12.9286 5.068,12.8014 5.20456,12.781 L9.6044,12.1243 C9.65809,12.1163 9.71293,12.126 9.76064,12.1519 C9.88196,12.2178 9.92689,12.3696 9.86098,12.4909 L7.73801,16.399 C7.70397,16.4617 7.64482,16.5068 7.57541,16.5231 C7.44098,16.5546 7.30645,16.4712 7.27493,16.3368 L6.93293,14.8785 Z" id="Meraki-WLC-topology_24" fill="#00090D"></path>
    </g>
</svg>