<?xml version="1.0" encoding="UTF-8"?>
<svg width="16px" height="16px" viewBox="0 0 16 16" version="1.1" xmlns="http://www.w3.org/2000/svg" xmlns:xlink="http://www.w3.org/1999/xlink">
    <!-- Generator: Sketch 60.1 (88133) - https://sketch.com -->
    <title>Topology / WLC / Meraki-WLC-topology_16</title>
    <desc>Created with Sketch.</desc>
    <g id="Topology-/-WLC-/-Meraki-WLC-topology_16" stroke="none" stroke-width="1" fill="none" fill-rule="evenodd">
        <path d="M14,0 L2,0 C0.89543,0 0,0.89543 0,2 L0,14 C0,15.1046 0.89543,16 2,16 L14,16 C15.1046,16 16,15.1046 16,14 L16,2 C16,0.89543 15.1046,0 14,0 Z" id="secondary-color" fill="#FFA000"></path>
        <path d="M9.04188,11.0419 C9.25706,9.87996 10.2758,9 11.5,9 C12.6765,9 13.6632,9.81272 13.9293,10.9074 C13.9489,10.9879 14.0121,11.0511 14.0926,11.0707 C15.1873,11.3368 16,12.3235 16,13.5 C16,14.8807 14.8807,16 13.5,16 L9.5,16 C8.11929,16 7,14.8807 7,13.5 C7,12.2758 7.87996,11.2571 9.04188,11.0419 Z M11.7727,15 C11.8128,15 11.8491,14.976 11.8648,14.939 L12.5214,13.3873 C12.5638,13.2869 12.7135,13.3173 12.7135,13.4263 L12.7135,14.9 C12.7135,14.9552 12.7582,15 12.8135,15 L13.4,15 C13.4552,15 13.5,14.9552 13.5,14.9 L13.5,12.1 C13.5,12.0448 13.4552,12 13.4,12 L12.5472,12 C12.5069,12 12.4705,12.0242 12.4549,12.0615 L11.5934,14.1242 C11.5594,14.2056 11.4442,14.2063 11.4093,14.1252 L10.5196,12.0604 C10.5038,12.0238 10.4677,12 10.4277,12 L9.6,12 C9.54477,12 9.5,12.0448 9.5,12.1 L9.5,14.9 C9.5,14.9552 9.54477,15 9.6,15 L10.1348,15 C10.19,15 10.2348,14.9552 10.2348,14.9 L10.2348,13.4191 C10.2348,13.3106 10.3833,13.2797 10.4265,13.3792 L11.1039,14.9398 C11.1198,14.9764 11.1558,15 11.1956,15 L11.7727,15 Z M16,10.7869 C16,10.9605 15.7885,11.0572 15.6442,10.9605 C15.483,10.8523 15.3108,10.7591 15.1298,10.6829 C15.0525,10.6503 15,10.576 15,10.4922 L15,2 C15,1.44772 14.5523,1 14,1 L2,1 C1.44772,1 1,1.44772 1,2 L1,14 C1,14.5523 1.44772,15 2,15 L6.27614,15 C6.34829,15 6.4144,15.0391 6.45224,15.1006 C6.55958,15.2748 6.68392,15.4374 6.82295,15.5861 C6.95628,15.7288 6.86217,16 6.66692,16 L2,16 C0.89543,16 0,15.1046 0,14 L0,2 C0,0.89543 0.89543,0 2,0 L14,0 C15.1046,0 16,0.89543 16,2 L16,10.7869 Z M6.19791,12.4159 C6.08826,12.429 5.97915,12.3678 5.93618,12.2604 C5.90614,12.1853 5.91429,12.1003 5.95807,12.0323 L7.84608,9.09851 C7.9208,8.9824 8.0755,8.94885 8.1916,9.02357 C8.22223,9.04328 8.24817,9.06944 8.26763,9.10022 L8.71204,9.80324 C8.61379,10.0216 8.54045,10.2536 8.49563,10.4956 C7.43785,10.6915 6.57127,11.4323 6.19791,12.4159 Z M9.57211,8.68485 L9.31327,8.28783 C9.23786,8.17217 9.27049,8.01727 9.38616,7.94187 C9.41819,7.92098 9.45459,7.90773 9.49256,7.90312 L13.0349,7.47301 C13.1719,7.45637 13.2965,7.55399 13.3132,7.69106 C13.3228,7.77005 13.2942,7.84889 13.2362,7.90338 L12.8168,8.2975 C12.418,8.10679 11.9715,8 11.5,8 C10.769,8 10.098,8.25669 9.57211,8.68485 Z M7.5346,4.8903 L6.26374,5.39865 C6.13554,5.44992 5.99005,5.38757 5.93877,5.25937 C5.90866,5.1841 5.91693,5.09889 5.96094,5.0308 L7.84637,2.1143 C7.92132,1.99835 8.07609,1.96512 8.19204,2.04008 C8.22233,2.05966 8.24802,2.08557 8.26736,2.11601 L10.1222,5.03694 C10.1962,5.15349 10.1617,5.30798 10.0451,5.382 C9.97732,5.42506 9.89294,5.43291 9.81835,5.4031 L8.5346,4.89011 L8.5346,6.48339 C8.5346,6.75953 8.31074,6.98339 8.0346,6.98339 C7.75845,6.98339 7.5346,6.75953 7.5346,6.48339 L7.5346,4.8903 Z M4.40526,9.76414 L2.96143,10.4374 C2.71116,10.5541 2.41367,10.4458 2.29697,10.1956 C2.18026,9.94529 2.28854,9.6478 2.53881,9.5311 L3.98282,8.85775 L2.96716,7.90338 C2.90917,7.84889 2.88059,7.77005 2.89018,7.69106 C2.90682,7.55399 3.03142,7.45637 3.16849,7.47301 L6.71079,7.90312 C6.74876,7.90773 6.78516,7.92098 6.81719,7.94187 C6.93286,8.01727 6.96549,8.17217 6.89008,8.28783 L4.94193,11.276 C4.89848,11.3427 4.82589,11.3847 4.74645,11.3891 C4.6086,11.3968 4.4906,11.2913 4.48289,11.1534 L4.40526,9.76414 Z" id="Meraki-WLC-topology_16" fill="#00090D"></path>
    </g>
</svg>