<?xml version="1.0" encoding="UTF-8"?>
<svg width="24px" height="24px" viewBox="0 0 24 24" version="1.1" xmlns="http://www.w3.org/2000/svg" xmlns:xlink="http://www.w3.org/1999/xlink">
    <!-- Generator: Sketch 60.1 (88133) - https://sketch.com -->
    <title>Topology / AP / mobile-express-AP-topology_24</title>
    <desc>Created with Sketch.</desc>
    <g id="Topology-/-AP-/-mobile-express-AP-topology_24" stroke="none" stroke-width="1" fill="none" fill-rule="evenodd">
        <path d="M20.5,1 L3.5,1 C2.11929,1 1,2.11929 1,3.5 L1,20.5 C1,21.8807 2.11929,23 3.5,23 L20.5,23 C21.8807,23 23,21.8807 23,20.5 L23,3.5 C23,2.11929 21.8807,1 20.5,1 Z" id="secondary-color" fill="#FFA000"></path>
        <path d="M22.6444,15.0492 C22.7629,14.9025 23,14.9863 23,15.1749 L23,20.5 C23,21.8807 21.8807,23 20.5,23 L16.6417,23 C16.4736,23 16.3805,22.8051 16.4862,22.6743 L16.971,22.0743 C17.0089,22.0273 17.0661,22 17.1265,22 L20.5,22 C21.3284,22 22,21.3284 22,20.5 L22,15.9177 C22,15.8719 22.0157,15.8276 22.0444,15.792 L22.6444,15.0492 Z M5.364,17.96 L6.729,21.894 L8.052,17.96 L9.431,17.96 L9.431,23 L8.367,23 L8.367,19.528 L7.184,23 L6.225,23 L5.014,19.535 L5.014,23 L4.02,23 L4.02,17.96 L5.364,17.96 Z M13.7824,17.96 L13.7824,18.821 L11.5564,18.821 L11.5564,20.053 L13.5794,20.053 L13.5794,20.865 L11.5564,20.865 L11.5564,22.153 L13.7824,22.153 L13.7824,23 L10.38037,23 L10.38037,17.96 L13.7824,17.96 Z M20.5,1 C21.8807,1 23,2.11929 23,3.5 L23,5.56486 C23,5.62218 22.9754,5.67674 22.9325,5.7147 L22.3325,6.2451 C22.2034,6.35923 22,6.26757 22,6.09526 L22,3.5 C22,2.67157 21.3284,2 20.5,2 L3.5,2 C2.67157,2 2,2.67157 2,3.5 L2,20.5 C2,21.1032 2.356,21.6232 2.86935,21.8614 C2.94623,21.8971 3.00031,21.9714 3.00033,22.0562 L3.00051,22.7054 C3.00054,22.8319 2.88433,22.9269 2.76348,22.8897 C1.742249,22.5754 1,21.6244 1,20.5 L1,3.5 C1,2.11929 2.11929,1 3.5,1 L20.5,1 Z M23,13.0183 L22.07,14.169 L22,14.255 L15.006,22.917 L15,22.924 L14.9892,22.9382 L18.6702,14.0112 L14.9892,14.0681 L23,6.99021 L22,8.783 L19.6402,13.0182 L23,13.0183 Z M14.0851,13.5313 L13.2675,14.2546 C12.1316,13.8085 10.81865,13.9842 9.82304,14.7818 C9.61004,14.9528 9.29504,14.9198 9.12004,14.7038 C8.94804,14.4878 8.98204,14.1738 9.19804,14.0008 C10.60625,12.8725 12.533,12.716 14.0851,13.5313 Z M22.8127,9.3801 C22.8629,9.29004 23,9.32568 23,9.42879 L23,11.818 C23,11.9285 22.9105,12.018 22.8,12.018 L22.2,12.018 C22.0895,12.018 22,11.9285 22,11.818 L22,10.88998 C22,10.85589 22.0087,10.82237 22.0253,10.7926 L22.8127,9.3801 Z M11.9998,8.9998 C13.903,8.9998 15.6976,9.61516 17.1995,10.78079 L16.435,11.455 C15.1369,10.50078 13.6123,9.9998 11.9998,9.9998 C10.27983,9.9998 8.65984,10.5698 7.31484,11.6478 C7.10284,11.8208 6.78584,11.7878 6.61284,11.5708 C6.43984,11.3558 6.47484,11.0408 6.68984,10.8678 C8.21384,9.6458 10.04983,8.9998 11.9998,8.9998 Z M12.0003,5 C14.8333,5 17.6073,5.974 19.8123,7.742 C19.9996747,7.89217 20.0502,8.14859 19.9471,8.35493 L19.6633,8.60472 C19.6108,8.62282 19.5556,8.632 19.5003,8.632 C19.3893,8.632 19.2793,8.596 19.1873,8.522 C17.1293,6.872 14.6443,6 12.0003,6 C9.35534,6 6.87034,6.872 4.81234,8.522 C4.59934,8.694 4.28334,8.661 4.11034,8.445 C3.93734,8.229 3.97134,7.915 4.18734,7.742 C6.39234,5.974 9.16634,5 12.0003,5 Z" id="mobile-express-AP-topology_24" fill="#00090D"></path>
    </g>
</svg>