<?xml version="1.0" encoding="UTF-8"?>
<svg width="16px" height="16px" viewBox="0 0 16 16" version="1.1" xmlns="http://www.w3.org/2000/svg" xmlns:xlink="http://www.w3.org/1999/xlink">
    <!-- Generator: Sketch 60.1 (88133) - https://sketch.com -->
    <title>Topology / AP / mobile-express-AP-topology_16</title>
    <desc>Created with Sketch.</desc>
    <g id="Topology-/-AP-/-mobile-express-AP-topology_16" stroke="none" stroke-width="1" fill="none" fill-rule="evenodd">
        <path d="M14,0 L2,0 C0.89543,0 0,0.89543 0,2 L0,14 C0,15.1046 0.89543,16 2,16 L14,16 C15.1046,16 16,15.1046 16,14 L16,2 C16,0.89543 15.1046,0 14,0 Z" id="secondary-color" fill="#FFA000"></path>
        <path d="M14,0 C15.1046,0 16,0.89543 16,2 L16,4.49822 C16,4.55122 15.979,4.60206 15.9415,4.63957 L15.3415,5.24017 C15.2155,5.36626 15,5.27704 15,5.09882 L15,2 C15,1.44772 14.5523,1 14,1 L2,1 C1.44772,1 1,1.44772 1,2 L1,14 C1,14.4842 1.34419,14.8881 1.80128,14.9803 C1.90955,15.0021 2,15.0895 2,15.2 L2,15.8 C2,15.9105 1.9102,16.0011 1.80028,15.9902 C0.789481,15.8899 0,15.0372 0,14 L0,2 C0,0.89543 0.89543,0 2,0 L14,0 Z M16,11.541 L16,14 C16,15.1046 15.1046,16 14,16 L12.7249,16 C12.5555,16 12.4628,15.8026 12.571,15.6723 L13.069,15.0723 C13.107,15.0265 13.1634,15 13.2229,15 L14,15 C14.5523,15 15,14.5523 15,14 L15,12.746 L16,11.541 Z M16,6.02447 L14.0793,9.99947 L16,10 L11,16 L12.9973,11.0045 L10.9953,11.0047 L16,6.02447 Z M3.96,12.4 L4.935,15.21 L5.88,12.4 L6.865,12.4 L6.865,16 L6.105,16 L6.105,13.52 L5.26,16 L4.575,16 L3.71,13.525 L3.71,16 L3,16 L3,12.4 L3.96,12.4 Z M9.97313,12.4 L9.97313,13.015 L8.38313,13.015 L8.38313,13.895 L9.82812,13.895 L9.82812,14.475 L8.38313,14.475 L8.38313,15.395 L9.97313,15.395 L9.97313,16 L7.54313,16 L7.54313,12.4 L9.97313,12.4 Z M10.4165,9.0005 C10.6115,9.1965 10.6115,9.5125 10.4165,9.7085 C10.3185,9.8055 10.1905,9.8545 10.0625,9.8545 C9.9345,9.8545 9.8065,9.8055 9.7085,9.7085 C8.7965,8.7935 7.2035,8.7935 6.2915,9.7085 C6.0955,9.9035 5.7795,9.9035 5.5835,9.7085 C5.3885,9.5125 5.3885,9.1965 5.5835,9.0005 C6.8735,7.7095 9.1265,7.7095 10.4165,9.0005 Z M16,8.285 L16,8.999 L15.6595,8.99991 L16,8.285 Z M8.0002,5.5004 C9.5622,5.5004 11.0302,6.1084 12.1352,7.2124 C12.3302,7.4084 12.3302,7.7244 12.1352,7.9204 C12.0372,8.0174 11.9092,8.0664 11.7812,8.0664 C11.6532,8.0664 11.5252,8.0174 11.4272,7.9204 C10.5122,7.0044 9.2952,6.5004 8.0002,6.5004 C6.7052,6.5004 5.4872,7.0044 4.5722,7.9204 C4.3772,8.1154 4.0602,8.1154 3.8652,7.9204 C3.6702,7.7244 3.6702,7.4084 3.8652,7.2124 C4.9692,6.1084 6.4372,5.5004 8.0002,5.5004 Z M8,3.0003 C10.211,3.0003 12.29,3.8613 13.854,5.4243 C14.049,5.6203 14.049,5.9363 13.854,6.1323 C13.756,6.2293 13.628,6.2783 13.5,6.2783 C13.372,6.2783 13.244,6.2293 13.146,6.1323 C11.772,4.7573 9.944,4.0003 8,4.0003 C6.056,4.0003 4.228,4.7573 2.854,6.1323 C2.658,6.3273 2.342,6.3273 2.146,6.1323 C1.951,5.9363 1.951,5.6203 2.146,5.4243 C3.71,3.8613 5.789,3.0003 8,3.0003 Z" id="mobile-express-AP-topology_16" fill="#00090D"></path>
    </g>
</svg>