<?xml version="1.0" encoding="UTF-8"?>
<svg width="18px" height="18px" viewBox="0 0 18 18" version="1.1" xmlns="http://www.w3.org/2000/svg" xmlns:xlink="http://www.w3.org/1999/xlink">
    <!-- Generator: Sketch 60.1 (88133) - https://sketch.com -->
    <title>Navigation / more / more-vertical_18</title>
    <desc>Created with Sketch.</desc>
    <g id="Navigation-/-more-/-more-vertical_18" stroke="none" stroke-width="1" fill="none" fill-rule="evenodd">
        <path d="M9,0 C10.106,0 11,0.896 11,2 C11,3.104 10.106,4 9,4 C7.894,4 7,3.104 7,2 C7,0.896 7.894,0 9,0 Z M9,7 C10.106,7 11,7.896 11,9 C11,10.104 10.106,11 9,11 C7.894,11 7,10.104 7,9 C7,7.896 7.894,7 9,7 Z M9,14 C10.106,14 11,14.896 11,16 C11,17.104 10.106,18 9,18 C7.894,18 7,17.104 7,16 C7,14.896 7.894,14 9,14 Z" id="more-vertical_18" fill="#00090D"></path>
    </g>
</svg>