<?xml version="1.0" encoding="UTF-8"?>
<svg width="16px" height="16px" viewBox="0 0 16 16" version="1.1" xmlns="http://www.w3.org/2000/svg" xmlns:xlink="http://www.w3.org/1999/xlink">
    <!-- Generator: Sketch 60.1 (88133) - https://sketch.com -->
    <title>Navigation / more / more-horizontal_16</title>
    <desc>Created with Sketch.</desc>
    <g id="Navigation-/-more-/-more-horizontal_16" stroke="none" stroke-width="1" fill="none" fill-rule="evenodd">
        <path d="M1.5,6.5 C2.328,6.5 3,7.1705 3,8 C3,8.8295 2.328,9.5 1.5,9.5 C0.672,9.5 0,8.8295 0,8 C0,7.1705 0.672,6.5 1.5,6.5 Z M8,6.5 C8.828,6.5 9.5,7.1705 9.5,8 C9.5,8.8295 8.828,9.5 8,9.5 C7.172,9.5 6.5,8.8295 6.5,8 C6.5,7.1705 7.172,6.5 8,6.5 Z M14.5,6.5 C15.328,6.5 16,7.1705 16,8 C16,8.8295 15.328,9.5 14.5,9.5 C13.672,9.5 13,8.8295 13,8 C13,7.1705 13.672,6.5 14.5,6.5 Z" id="more-horizontal_16" fill="#00090D"></path>
    </g>
</svg>