<?xml version="1.0" encoding="UTF-8"?>
<svg width="18px" height="18px" viewBox="0 0 18 18" version="1.1" xmlns="http://www.w3.org/2000/svg" xmlns:xlink="http://www.w3.org/1999/xlink">
    <!-- Generator: Sketch 60.1 (88133) - https://sketch.com -->
    <title>Navigation / more / more-horizontal_18</title>
    <desc>Created with Sketch.</desc>
    <g id="Navigation-/-more-/-more-horizontal_18" stroke="none" stroke-width="1" fill="none" fill-rule="evenodd">
        <path d="M2,7 C3.106,7 4,7.896 4,9 C4,10.104 3.106,11 2,11 C0.894,11 0,10.104 0,9 C0,7.896 0.894,7 2,7 Z M9,7 C10.106,7 11,7.896 11,9 C11,10.104 10.106,11 9,11 C7.894,11 7,10.104 7,9 C7,7.896 7.894,7 9,7 Z M16,7 C17.106,7 18,7.896 18,9 C18,10.104 17.106,11 16,11 C14.894,11 14,10.104 14,9 C14,7.896 14.894,7 16,7 Z" id="more-horizontal_18" fill="#00090D"></path>
    </g>
</svg>