<?xml version="1.0" encoding="UTF-8"?>
<svg width="16px" height="16px" viewBox="0 0 16 16" version="1.1" xmlns="http://www.w3.org/2000/svg" xmlns:xlink="http://www.w3.org/1999/xlink">
    <!-- Generator: Sketch 60.1 (88133) - https://sketch.com -->
    <title>Networking/Endpoints/multi-devices/multiple-devices_16</title>
    <desc>Created with Sketch.</desc>
    <g id="Networking/Endpoints/multi-devices/multiple-devices_16" stroke="none" stroke-width="1" fill="none" fill-rule="evenodd">
        <path d="M6,3 L6,2 L8,2 L8,3 L6,3 Z M2,3 L2,2 L4,2 L4,3 L2,3 Z M10,3 L10,2 L12,2 L12,3 L10,3 Z M14,3 L14,2 L16,2 L16,3 L14,3 Z M15,4 L16,4 L16,6 L15,6 L15,4 Z M15,8 L16,8 L16,10 L15,10 L15,8 Z M2,4 L12,4 C13.1045695,4 14,4.8954305 14,6 L14,12 C14,13.1045695 13.1045695,14 12,14 L2,14 C0.8954305,14 0,13.1045695 0,12 L0,6 C0,4.8954305 0.8954305,4 2,4 Z M2,5 C1.44771525,5 1,5.44771525 1,6 L1,12 C1,12.5522847 1.44771525,13 2,13 L12,13 C12.5522847,13 13,12.5522847 13,12 L13,6 C13,5.44771525 12.5522847,5 12,5 L2,5 Z M4,7 L10,7 C11.1045695,7 12,7.8954305 12,9 C12,10.1045695 11.1045695,11 10,11 L4,11 C2.8954305,11 2,10.1045695 2,9 C2,7.8954305 2.8954305,7 4,7 Z M4,8 C3.44771525,8 3,8.44771525 3,9 C3,9.55228475 3.44771525,10 4,10 L10,10 C10.5522847,10 11,9.55228475 11,9 C11,8.44771525 10.5522847,8 10,8 L4,8 Z M4.5,8.5 L5.5,8.5 L5.5,9.5 L4.5,9.5 L4.5,8.5 Z M6.5,8.5 L7.5,8.5 L7.5,9.5 L6.5,9.5 L6.5,8.5 Z M8.5,8.5 L9.5,8.5 L9.5,9.5 L8.5,9.5 L8.5,8.5 Z" id="multiple-devices_16" fill="#00090D"></path>
    </g>
</svg>