<?xml version="1.0" encoding="UTF-8"?>
<svg width="24px" height="24px" viewBox="0 0 24 24" version="1.1" xmlns="http://www.w3.org/2000/svg" xmlns:xlink="http://www.w3.org/1999/xlink">
    <!-- Generator: Sketch 60.1 (88133) - https://sketch.com -->
    <title>Topology/Endpoints/multi-devices/multiple-devices-topology_24</title>
    <desc>Created with Sketch.</desc>
    <g id="Topology/Endpoints/multi-devices/multiple-devices-topology_24" stroke="none" stroke-width="1" fill="none" fill-rule="evenodd">
        <path d="M18.7732875,6 C19.9724398,6 20.9819095,7.33454594 20.9819088,8.49921627 L21,18.9510849 C21,20.0563926 19.9874711,21 18.7732875,21 L2.76077757,21 C1.54311743,21 0,19.6026424 0,18.5 L0,8.65125 C0,7.38253745 1.53696117,6 3.31293308,6 L18.7732875,6 Z M24,15 L24,17 L23,17 L23,15 L24,15 Z M24,11 L24,13 L23,13 L23,11 L24,11 Z M24,7 L24,9 L23,9 L23,7 L24,7 Z M22,3 L22,4 L20,4 L20,3 L22,3 Z M18,3 L18,4 L16,4 L16,3 L18,3 Z M14,3 L14,4 L12,4 L12,3 L14,3 Z M10,3 L10,4 L8,4 L8,3 L10,3 Z M6,3 L6,4 L4,4 L4,3 L6,3 Z" id="secondary-color" fill="#FFA000"></path>
        <path d="M23,16 L23,15 L24,15 L24,16 L24,17 L23,17 L23,16 Z M23,12 L23,11 L24,11 L24,12 L24,13 L23,13 L23,12 Z M23,8 L23,7 L24,7 L24,8 L24,9 L23,9 L23,8 Z M21,4 L20,4 L20,3 L21,3 L22,3 L22,4 L21,4 Z M17,4 L16,4 L16,3 L17,3 L18,3 L18,4 L17,4 Z M13,4 L12,4 L12,3 L13,3 L14,3 L14,4 L13,4 Z M9,4 L8,4 L8,3 L9,3 L10,3 L10,4 L9,4 Z M5,4 L4,4 L4,3 L5,3 L6,3 L6,4 L5,4 Z M18.7732875,6 C19.9724398,6 20.9819095,7.33454594 20.9819088,8.49921627 L21,18.9510849 C21,20.0563926 19.9874711,21 18.7732875,21 L2.76077757,21 C1.54311743,21 0,19.6026424 0,18.5 L0,8.65125 C0,7.38253745 1.53696117,6 3.31293308,6 L18.7732875,6 Z M18.8651369,7 L3.23314212,7 C2.0524588,7 1,7.93631969 1,8.65125 L1,18.5 C1,19.0503576 2.06034319,20 2.67485659,20 L18.8651369,20 C19.4688433,20 20,19.5104342 20,18.9518686 L19.981708,8.5 C19.981708,7.824061 19.3514562,7 18.8651369,7 Z M7,13 L8,13 L8,14 L7,14 L7,13 Z M10.0757775,13 L11.0757775,13 L11.0757775,14 L10.0757775,14 L10.0757775,13 Z M13.1515551,13 L14.1515551,13 L14.1515551,14 L13.1515551,14 L13.1515551,13 Z M5,11 L16,11 C17.1045695,11 18,11.8954305 18,13 L18,14 C18,15.1045695 17.1045695,16 16,16 L5,16 C3.8954305,16 3,15.1045695 3,14 L3,13 C3,11.8954305 3.8954305,11 5,11 Z M5,12 C4.44771525,12 4,12.4477153 4,13 L4,14 C4,14.5522847 4.44771525,15 5,15 L16,15 C16.5522847,15 17,14.5522847 17,14 L17,13 C17,12.4477153 16.5522847,12 16,12 L5,12 Z" id="multiple-devices-topology_24" fill="#00090D"></path>
    </g>
</svg>