<?xml version="1.0" encoding="UTF-8"?>
<svg width="24px" height="24px" viewBox="0 0 24 24" version="1.1" xmlns="http://www.w3.org/2000/svg" xmlns:xlink="http://www.w3.org/1999/xlink">
    <!-- Generator: Sketch 60.1 (88133) - https://sketch.com -->
    <title>Networking/Endpoints/multi-devices/multiple-devices-filled_24</title>
    <desc>Created with Sketch.</desc>
    <g id="Networking/Endpoints/multi-devices/multiple-devices-filled_24" stroke="none" stroke-width="1" fill="none" fill-rule="evenodd">
        <path d="M18.7732875,6 C19.9724398,6 20.9819095,7.33454594 20.9819088,8.49921627 L21,18.9510849 C21,20.0563926 19.9874711,21 18.7732875,21 L2.76077757,21 C1.54311743,21 0,19.6026424 0,18.5 L0,8.65125 C0,7.38253745 1.53696117,6 3.31293308,6 L18.7732875,6 Z M24,15 L24,17 L23,17 L23,15 L24,15 Z M16,11 L5,11 C3.8954305,11 3,11.8954305 3,13 L3,13 L3,14 C3,15.1045695 3.8954305,16 5,16 L5,16 L16,16 C17.1045695,16 18,15.1045695 18,14 L18,14 L18,13 C18,11.8954305 17.1045695,11 16,11 L16,11 Z M16,12 C16.5522847,12 17,12.4477153 17,13 L17,13 L17,14 C17,14.5522847 16.5522847,15 16,15 L16,15 L5,15 C4.44771525,15 4,14.5522847 4,14 L4,14 L4,13 C4,12.4477153 4.44771525,12 5,12 L5,12 Z M8,13 L7,13 L7,14 L8,14 L8,13 Z M11.0757775,13 L10.0757775,13 L10.0757775,14 L11.0757775,14 L11.0757775,13 Z M14.1515551,13 L13.1515551,13 L13.1515551,14 L14.1515551,14 L14.1515551,13 Z M24,11 L24,13 L23,13 L23,11 L24,11 Z M24,7 L24,9 L23,9 L23,7 L24,7 Z M22,3 L22,4 L20,4 L20,3 L22,3 Z M18,3 L18,4 L16,4 L16,3 L18,3 Z M14,3 L14,4 L12,4 L12,3 L14,3 Z M10,3 L10,4 L8,4 L8,3 L10,3 Z M6,3 L6,4 L4,4 L4,3 L6,3 Z" id="multiple-devices-filled_24" fill="#00090D"></path>
    </g>
</svg>