<?xml version="1.0" encoding="UTF-8"?>
<svg width="16px" height="16px" viewBox="0 0 16 16" version="1.1" xmlns="http://www.w3.org/2000/svg" xmlns:xlink="http://www.w3.org/1999/xlink">
    <!-- Generator: Sketch 60.1 (88133) - https://sketch.com -->
    <title>Tools / network-cloud / network-cloud_16</title>
    <desc>Created with Sketch.</desc>
    <g id="Tools-/-network-cloud-/-network-cloud_16" stroke="none" stroke-width="1" fill="none" fill-rule="evenodd">
        <path d="M7.4998,2.9998 C5.5698,2.9998 3.9998,4.5698 3.9998,6.4998 C3.9998,6.7488 3.8218,7.0098 3.5758,7.0448 C2.1068,7.2548 0.9998,8.5248 0.9998,9.9998 C0.9998,11.6538 2.3458,12.9998 3.9998,12.9998 L11.4998,12.9998 C13.4298,12.9998 14.9998,11.4298 14.9998,9.4998 C14.9998,7.5728 13.4348,6.0058 11.5098,5.9998 C11.4698,6.0048 11.3778,6.0138 11.3628,6.0138 C11.1348,6.0138 10.9348,5.8588 10.8778,5.6378 C10.4818,4.0848 9.0928,2.9998 7.4998,2.9998 Z M11.4998,13.9998 L3.9998,13.9998 C1.7938,13.9998 -0.0002,12.2058 -0.0002,9.9998 C-0.0002,8.1718 1.2728,6.5778 3.0218,6.1368 C3.2238,3.8028 5.1548,1.9998 7.4998,1.9998 C9.4168,1.9998 11.1028,3.2178 11.7308,5.0058 C14.1048,5.1268 15.9998,7.0968 15.9998,9.4998 C15.9998,11.9808 13.9808,13.9998 11.4998,13.9998 Z M3.2,10 L4.8,10 C4.91045695,10 5,10.089543 5,10.2 L5,11.8 C5,11.9104569 4.91045695,12 4.8,12 L3.2,12 C3.08954305,12 3,11.9104569 3,11.8 L3,10.2 C3,10.089543 3.08954305,10 3.2,10 Z M6.7,5 L8.3,5 C8.41045695,5 8.5,5.08954305 8.5,5.2 L8.5,6.8 C8.5,6.91045695 8.41045695,7 8.3,7 L6.7,7 C6.58954305,7 6.5,6.91045695 6.5,6.8 L6.5,5.2 C6.5,5.08954305 6.58954305,5 6.7,5 Z M11.2,10 L12.8,10 C12.9104569,10 13,10.089543 13,10.2 L13,11.8 C13,11.9104569 12.9104569,12 12.8,12 L11.2,12 C11.0895431,12 11,11.9104569 11,11.8 L11,10.2 C11,10.089543 11.0895431,10 11.2,10 Z M5.60355339,9.35355339 C5.40829124,9.54881554 5.09170876,9.54881554 4.89644661,9.35355339 C4.70118446,9.15829124 4.70118446,8.84170876 4.89644661,8.64644661 L5.89644661,7.64644661 C6.09170876,7.45118446 6.40829124,7.45118446 6.60355339,7.64644661 C6.79881554,7.84170876 6.79881554,8.15829124 6.60355339,8.35355339 L5.60355339,9.35355339 Z M9.8964466,9.35355339 L8.89644661,8.35355339 C8.70118446,8.15829124 8.70118446,7.84170876 8.89644661,7.64644661 C9.09170876,7.45118446 9.4082912,7.45118446 9.6035534,7.64644661 L10.6035534,8.64644661 C10.7988155,8.84170876 10.7988155,9.15829124 10.6035534,9.35355339 C10.4082912,9.54881554 10.0917088,9.54881554 9.8964466,9.35355339 Z" id="network-cloud_16" fill="#00090D"></path>
    </g>
</svg>