<?xml version="1.0" encoding="UTF-8"?>
<svg width="24px" height="24px" viewBox="0 0 24 24" version="1.1" xmlns="http://www.w3.org/2000/svg" xmlns:xlink="http://www.w3.org/1999/xlink">
    <!-- Generator: Sketch 60.1 (88133) - https://sketch.com -->
    <title>Networking / network-hierarchy / network-hierarchy_24</title>
    <desc>Created with Sketch.</desc>
    <g id="Networking-/-network-hierarchy-/-network-hierarchy_24" stroke="none" stroke-width="1" fill="none" fill-rule="evenodd">
        <path d="M13,12 L15,12 L15,14 L13,14 L13,12 Z M16,12 L18,12 L18,14 L16,14 L16,12 Z M13,15 L15,15 L15,17 L13,17 L13,15 Z M16,15 L18,15 L18,17 L16,17 L16,15 Z M5,24 C3.8954305,24 3,23.1045695 3,22 L3,12.5797066 C3,11.634485 3.66173481,10.8183179 4.58653754,10.6229111 L18.5865375,8.50995421 C18.7224834,8.48122943 18.8610526,8.46674975 19,8.46674975 C20.1045695,8.46674975 21,9.36218025 21,10.4667497 L21,22 C21,23.1045695 20.1045695,24 19,24 C15.737948,24 13.291409,24 11.660383,24 C11.606922,24 11.553461,24 11.5,24 C11.2238576,24 11,23.7761424 11,23.5 L11,17.5046902 L11,17.5046902 C11,17.2285478 10.7761424,17.0046902 10.5,17.0046902 L7.5,17.0046902 C7.22385763,17.0046902 7,17.2285478 7,17.5046902 L7,23.5 C7,23.7761424 6.77614237,24 6.5,24 L5,24 L5,24 Z M12,23 L19,23 C19.5522847,23 20,22.5522847 20,22 L20,10.4667497 C20,9.914465 19.5522847,9.46674975 19,9.46674975 C18.9305263,9.46674975 18.8612417,9.47398959 18.7932688,9.48835198 L4.79326877,11.6013088 C4.33086741,11.6990122 4,12.1070958 4,12.5797066 L4,22 C4,22.5522847 4.44771525,23 5,23 L6,23 L6,17.5046902 C6,16.6762631 6.67157288,16.0046902 7.5,16.0046902 L10.5,16.0046902 C11.3284271,16.0046902 12,16.6762631 12,17.5046902 L12,23 Z M9.26320925,4.27231301 L10.0197372,5.25629641 C10.309407,5.09310181 10.643831,5 11,5 C12.1045695,5 13,5.8954305 13,7 C13,8.1045695 12.1045695,9 11,9 C9.8954305,9 9,8.1045695 9,7 C9,6.61340756 9.10968633,6.25243373 9.29963582,5.94650169 L8.43346185,4.81990641 C8.14504843,4.93606495 7.82999063,5 7.5,5 C7.2757035,5 7.05830597,4.97046202 6.85148511,4.91506377 L6.13314251,6.35174896 C6.65675402,6.7124096 7,7.3161201 7,8 C7,9.1045695 6.1045695,10 5,10 C3.8954305,10 3,9.1045695 3,8 C3,6.8954305 3.8954305,6 5,6 C5.06294965,6 5.12522004,6.00290825 5.18668414,6.00859773 L5.95729221,4.46738159 C5.37442336,4.00969091 5,3.29857108 5,2.5 C5,1.11928813 6.11928813,0 7.5,0 C8.88071187,0 10,1.11928813 10,2.5 C10,3.19267125 9.71829789,3.81954745 9.26320925,4.27231301 Z M7.5,4 C8.32842712,4 9,3.32842712 9,2.5 C9,1.67157288 8.32842712,1 7.5,1 C6.67157288,1 6,1.67157288 6,2.5 C6,3.32842712 6.67157288,4 7.5,4 Z M5,9 C5.55228475,9 6,8.55228475 6,8 C6,7.44771525 5.55228475,7 5,7 C4.44771525,7 4,7.44771525 4,8 C4,8.55228475 4.44771525,9 5,9 Z M11,8 C11.5522847,8 12,7.55228475 12,7 C12,6.44771525 11.5522847,6 11,6 C10.4477153,6 10,6.44771525 10,7 C10,7.55228475 10.4477153,8 11,8 Z" id="network-hierarchy_24" fill="#00090D"></path>
    </g>
</svg>