<?xml version="1.0" encoding="UTF-8"?>
<svg width="24px" height="24px" viewBox="0 0 24 24" version="1.1" xmlns="http://www.w3.org/2000/svg" xmlns:xlink="http://www.w3.org/1999/xlink">
    <!-- Generator: Sketch 60.1 (88133) - https://sketch.com -->
    <title>Tools / network-profile / network-profile-filled_24</title>
    <desc>Created with Sketch.</desc>
    <g id="Tools-/-network-profile-/-network-profile-filled_24" stroke="none" stroke-width="1" fill="none" fill-rule="evenodd">
        <path d="M20.9930949,7.03767391 C20.9933465,7.03999506 20.9935912,7.04231778 20.9938292,7.04464205 L15.5476994,7.04464205 C14.7049204,7.04464205 14.0190798,6.40678619 14.0190798,5.62297222 L14.0190798,0.0151976615 C14.0251407,0.0161906692 14.0311922,0.0172314328 14.0372338,0.0183196845 L20.9930949,7.03767391 Z M21,7.166 L21,21.5 C21,22.879 19.879,24 18.5,24 L5.5,24 C4.121,24 3,22.879 3,21.5 L3,2.5 C3,1.121 4.121,0 5.5,0 L13.4165,0 L13,0 L13,5.62297222 C13,6.92996068 14.1423884,7.99242193 15.5476994,7.99242193 L21,8 L21,7.166 Z M7.55128613,16.4300474 C7.28061249,16.1640667 6.90946617,16 6.5,16 C5.67157288,16 5,16.6715729 5,17.5 C5,18.3284271 5.67157288,19 6.5,19 C7.32842712,19 8,18.3284271 8,17.5 C8,17.4422498 7.99673644,17.3852618 7.99038369,17.3292105 L9.49967791,16.658413 C9.9678112,17.3627871 10.7256461,17.8580009 11.6031063,17.973978 L11.8596118,19 L11.5,19 C11.2238576,19 11,19.2238576 11,19.5 L11,21.5 C11,21.7761424 11.2238576,22 11.5,22 L13.5,22 C13.7761424,22 14,21.7761424 14,21.5 L14,19.5 C14,19.2238576 13.7761424,19 13.5,19 L12.8903882,19 L12.6241347,17.9349861 C13.6043817,17.7275597 14.4079507,17.0414701 14.7787623,16.1327965 L16.0023574,16.5848114 C16.0463321,17.3737813 16.7000355,18 17.5,18 C18.3284271,18 19,17.3284271 19,16.5 C19,15.6715729 18.3284271,15 17.5,15 C16.9969665,15 16.5517668,15.2476158 16.2796393,15.6276088 L14.9961426,15.1534653 C14.9987039,15.1026335 15,15.0514681 15,15 C15,14.2339561 14.7128811,13.5349725 14.240387,13.0047928 L14.8510574,12 L15.5,12 C15.7761424,12 16,11.7761424 16,11.5 L16,9.5 C16,9.22385763 15.7761424,9 15.5,9 L13.5,9 C13.2238576,9 13,9.22385763 13,9.5 L13,11.5 C13,11.7761424 13.2238576,12 13.5,12 L13.6818839,12 L13.4538557,12.3751959 C13.0231799,12.1361383 12.5274883,12 12,12 C11.4820144,12 10.9946902,12.1312774 10.5694833,12.3623765 L9.65917721,11.4520704 C9.8721391,11.1930837 10,10.8614736 10,10.5 C10,9.67157288 9.32842712,9 8.5,9 C7.67157288,9 7,9.67157288 7,10.5 C7,11.3284271 7.67157288,12 8.5,12 C8.59178001,12 8.68163479,11.9917571 8.7688644,11.9759712 L9.7776396,12.9847464 C9.29443169,13.5172924 9,14.2242621 9,15 C9,15.2570902 9.03233894,15.5066273 9.09317086,15.7447653 L7.55128613,16.4300474 Z M11.990585,16.9999783 C10.8903467,16.9949073 10,16.1014295 10,15 C10,14.3500871 10.309996,13.7725777 10.7901919,13.4072677 C10.7966839,13.4026302 10.8030899,13.3978187 10.8094034,13.3928332 C11.142042,13.146007 11.5539701,13 12,13 C13.1045695,13 14,13.8954305 14,15 C14,16.1012271 13.1099805,16.9945789 12.0100215,16.9999783 C12.0035601,16.9998498 11.9970802,16.9998502 11.990585,16.9999783 L11.990585,16.9999783 Z M12.4887874,20 C12.4959896,20.0001573 12.5032149,20.0001581 12.5104595,20 L13,20 L13,21 L12,21 L12,20 L12.4887865,20 L12.4887874,20 Z M14,10 L15,10 L15,11 L14,11 L14,10 Z M8.5,11 C8.22385763,11 8,10.7761424 8,10.5 C8,10.2238576 8.22385763,10 8.5,10 C8.77614237,10 9,10.2238576 9,10.5 C9,10.7761424 8.77614237,11 8.5,11 Z M17.5,17 C17.2238576,17 17,16.7761424 17,16.5 C17,16.2238576 17.2238576,16 17.5,16 C17.7761424,16 18,16.2238576 18,16.5 C18,16.7761424 17.7761424,17 17.5,17 Z M6.5,18 C6.22385763,18 6,17.7761424 6,17.5 C6,17.2238576 6.22385763,17 6.5,17 C6.77614237,17 7,17.2238576 7,17.5 C7,17.7761424 6.77614237,18 6.5,18 Z" id="network-profile-filled_24" fill="#00090D"></path>
    </g>
</svg>