<?xml version="1.0" encoding="UTF-8"?>
<svg width="16px" height="16px" viewBox="0 0 16 16" version="1.1" xmlns="http://www.w3.org/2000/svg" xmlns:xlink="http://www.w3.org/1999/xlink">
    <!-- Generator: Sketch 60.1 (88133) - https://sketch.com -->
    <title>Networking / network / network_16</title>
    <desc>Created with Sketch.</desc>
    <g id="Networking-/-network-/-network_16" stroke="none" stroke-width="1" fill="none" fill-rule="evenodd">
        <path d="M11.8464669,3.99419462 C10.813634,3.91578753 10,3.05291096 10,2 C10,0.8954305 10.8954305,0 12,0 C13.1045695,0 14,0.8954305 14,2 C14,3.05291096 13.186366,3.91578753 12.1535331,3.99419462 L12.5,3.99419462 L12.5,12.265625 C12.5,14.0195934 11.6239609,15 10.0034814,15 C8.383002,15 7.50696286,14.0195934 7.50696286,12.265625 L7.50859983,3.69394869 C7.60610423,2.49194468 7.16652864,2 6.0104443,2 C4.85435995,2 4.41478436,2.49194468 4.51392573,3.734375 L4.51392573,12.0666469 C5.36946462,12.2934739 6,13.0731022 6,14 C6,15.1045695 5.1045695,16 4,16 C2.8954305,16 2,15.1045695 2,14 C2,13.0630582 2.64427467,12.2765947 3.51396547,12.0594683 L3.51556269,3.77480131 C3.37140246,1.99763865 4.26283926,1 6.0104443,1 C7.75804933,1 8.64948613,1.99763865 8.50696286,3.734375 L8.50696286,12.265625 C8.50696286,13.4908233 8.9619361,14 10.0034814,14 C11.0450268,14 11.5,13.4908233 11.5,12.265625 L11.5,3.99419462 L11.8464669,3.99419462 Z" id="network_16" fill="#00090D"></path>
    </g>
</svg>