<?xml version="1.0" encoding="UTF-8"?>
<svg width="24px" height="24px" viewBox="0 0 24 24" version="1.1" xmlns="http://www.w3.org/2000/svg" xmlns:xlink="http://www.w3.org/1999/xlink">
    <!-- Generator: Sketch 60.1 (88133) - https://sketch.com -->
    <title>Topology/network-topology_24</title>
    <desc>Created with Sketch.</desc>
    <g id="Topology/network-topology_24" stroke="none" stroke-width="1" fill="none" fill-rule="evenodd">
        <path d="M16.5,2 C17.3284271,2 18,2.67157288 18,3.5 L18,5.5 C18,6.32842712 17.3284271,7 16.5,7 L15.3571621,7 L14.339475,8.75512516 C15.3453778,9.48162721 16,10.664366 16,12 C16,12.1892887 15.9868518,12.3755066 15.9614189,12.55779 L17.1350468,12.6873499 C17.4723358,11.7055673 18.4037709,11 19.5,11 C20.8807119,11 22,12.1192881 22,13.5 C22,14.8807119 20.8807119,16 19.5,16 C18.1795481,16 17.0981987,14.9762806 17.0063248,13.6792148 L15.6951019,13.5344654 C15.2954759,14.4957011 14.5317003,15.2674676 13.5759702,15.67757 L13.8572759,17 L14.5,17 C15.3284271,17 16,17.6715729 16,18.5 L16,20.5 C16,21.3284271 15.3284271,22 14.5,22 L12.5,22 C11.6715729,22 11,21.3284271 11,20.5 L11,18.5 C11,17.6715729 11.6715729,17 12.5,17 L12.8349015,17 L12.6122772,15.9534335 C12.4126655,15.9840949 12.2081902,16 12,16 C10.7707875,16 9.67107598,15.4455407 8.93732136,14.573078 L6.91022559,15.8336875 C6.96874058,16.0458214 7,16.2692602 7,16.5 C7,17.8807119 5.88071187,19 4.5,19 C3.11928813,19 2,17.8807119 2,16.5 C2,15.1192881 3.11928813,14 4.5,14 C5.29064789,14 5.99557125,14.3670304 6.45368369,14.9400048 L8.39404328,13.7333347 C8.14151041,13.2089333 8,12.6209924 8,12 C8,10.8041792 8.52474459,9.73091915 9.35652909,8.9979244 L7.81251012,6.62815782 C7.43102792,6.86393219 6.98140413,7 6.5,7 C5.11928813,7 4,5.88071187 4,4.5 C4,3.11928813 5.11928813,2 6.5,2 C7.88071187,2 9,3.11928813 9,4.5 C9,5.03170138 8.83401404,5.52463465 8.55103274,5.92980923 L10.1834837,8.43530154 C10.7285797,8.15697362 11.3459583,8 12,8 C12.5158496,8 13.0088924,8.0976477 13.4616525,8.27546723 L14.2167055,6.97328649 C13.5237276,6.84083226 13,6.23157769 13,5.5 L13,3.5 C13,2.67157288 13.6715729,2 14.5,2 L16.5,2 Z" id="secondary-color" fill="#FFA000"></path>
        <path d="M13.8572759,17 L14.5,17 C15.3284271,17 16,17.6715729 16,18.5 L16,20.5 C16,21.3284271 15.3284271,22 14.5,22 L12.5,22 C11.6715729,22 11,21.3284271 11,20.5 L11,18.5 C11,17.6715729 11.6715729,17 12.5,17 L12.8349015,17 L12.6122772,15.9534335 C12.4126655,15.9840949 12.2081902,16 12,16 C10.7707875,16 9.67107598,15.4455407 8.93732136,14.573078 L6.91022559,15.8336875 C6.96874058,16.0458214 7,16.2692602 7,16.5 C7,17.8807119 5.88071187,19 4.5,19 C3.11928813,19 2,17.8807119 2,16.5 C2,15.1192881 3.11928813,14 4.5,14 C5.29064789,14 5.99557125,14.3670304 6.45368369,14.9400048 L8.39404328,13.7333347 C8.14151041,13.2089333 8,12.6209924 8,12 C8,10.8041792 8.52474459,9.73091915 9.35652909,8.9979244 L7.81251012,6.62815782 C7.43102792,6.86393219 6.98140413,7 6.5,7 C5.11928813,7 4,5.88071187 4,4.5 C4,3.11928813 5.11928813,2 6.5,2 C7.88071187,2 9,3.11928813 9,4.5 C9,5.03170138 8.83401404,5.52463465 8.55103274,5.92980923 L10.1834837,8.43530154 C10.7285797,8.15697362 11.3459583,8 12,8 C12.5158496,8 13.0088924,8.0976477 13.4616525,8.27546723 L14.2167055,6.97328649 C13.5237276,6.84083226 13,6.23157769 13,5.5 L13,3.5 C13,2.67157288 13.6715729,2 14.5,2 L16.5,2 C17.3284271,2 18,2.67157288 18,3.5 L18,5.5 C18,6.32842712 17.3284271,7 16.5,7 L15.3571621,7 L14.339475,8.75512516 C15.3453778,9.48162721 16,10.664366 16,12 C16,12.1892887 15.9868518,12.3755066 15.9614189,12.55779 L17.1350468,12.6873499 C17.4723358,11.7055673 18.4037709,11 19.5,11 C20.8807119,11 22,12.1192881 22,13.5 C22,14.8807119 20.8807119,16 19.5,16 C18.1795481,16 17.0981987,14.9762806 17.0063248,13.6792148 L15.6951019,13.5344654 C15.2954759,14.4957011 14.5317003,15.2674676 13.5759702,15.67757 L13.8572759,17 Z M4.5,18 C5.32842712,18 6,17.3284271 6,16.5 C6,15.6715729 5.32842712,15 4.5,15 C3.67157288,15 3,15.6715729 3,16.5 C3,17.3284271 3.67157288,18 4.5,18 Z M19.5,15 C20.3284271,15 21,14.3284271 21,13.5 C21,12.6715729 20.3284271,12 19.5,12 C18.6715729,12 18,12.6715729 18,13.5 C18,14.3284271 18.6715729,15 19.5,15 Z M12,15 C13.6568542,15 15,13.6568542 15,12 C15,10.3431458 13.6568542,9 12,9 C10.3431458,9 9,10.3431458 9,12 C9,13.6568542 10.3431458,15 12,15 Z M6.5,6 C7.32842712,6 8,5.32842712 8,4.5 C8,3.67157288 7.32842712,3 6.5,3 C5.67157288,3 5,3.67157288 5,4.5 C5,5.32842712 5.67157288,6 6.5,6 Z M14.5,3 C14.2238576,3 14,3.22385763 14,3.5 L14,5.5 C14,5.77614237 14.2238576,6 14.5,6 L16.5,6 C16.7761424,6 17,5.77614237 17,5.5 L17,3.5 C17,3.22385763 16.7761424,3 16.5,3 L14.5,3 Z M12.5,18 C12.2238576,18 12,18.2238576 12,18.5 L12,20.5 C12,20.7761424 12.2238576,21 12.5,21 L14.5,21 C14.7761424,21 15,20.7761424 15,20.5 L15,18.5 C15,18.2238576 14.7761424,18 14.5,18 L12.5,18 Z" id="network-topology_24" fill="#00090D"></path>
    </g>
</svg>