<?xml version="1.0" encoding="UTF-8"?>
<svg width="24px" height="24px" viewBox="0 0 24 24" version="1.1" xmlns="http://www.w3.org/2000/svg" xmlns:xlink="http://www.w3.org/1999/xlink">
    <!-- Generator: Sketch 60.1 (88133) - https://sketch.com -->
    <title>Networking / network-hierarchy / network-hierarchy-filled_24</title>
    <desc>Created with Sketch.</desc>
    <g id="Networking-/-network-hierarchy-/-network-hierarchy-filled_24" stroke="none" stroke-width="1" fill="none" fill-rule="evenodd">
        <path d="M13,12 L13,14 L15,14 L15,12 L13,12 Z M16,12 L16,14 L18,14 L18,12 L16,12 Z M13,15 L13,17 L15,17 L15,15 L13,15 Z M16,15 L16,17 L18,17 L18,15 L16,15 Z M5,24 C3.8954305,24 3,23.1045695 3,22 L3,12.5797066 C3,11.634485 3.66173481,10.8183179 4.58653754,10.6229111 L18.5865375,8.50995421 C18.7224834,8.48122943 18.8610526,8.46674975 19,8.46674975 C20.1045695,8.46674975 21,9.36218025 21,10.4667497 L21,22 C21,23.1045695 20.1045695,24 19,24 L11.5,24 C11.2238576,24 11,23.7761424 11,23.5 L11,17.5046902 L11,17.5046902 C11,17.2285478 10.7761424,17.0046902 10.5,17.0046902 L7.5,17.0046902 C7.22385763,17.0046902 7,17.2285478 7,17.5046902 L7,23.5 C7,23.7761424 6.77614237,24 6.5,24 L5,24 L5,24 Z M8.43346185,4.81990641 C8.14504843,4.93606495 7.82999063,5 7.5,5 C7.2757035,5 7.05830597,4.97046202 6.85148511,4.91506377 L6.13314251,6.35174896 C6.65675402,6.7124096 7,7.3161201 7,8 C7,9.1045695 6.1045695,10 5,10 C3.8954305,10 3,9.1045695 3,8 C3,6.8954305 3.8954305,6 5,6 C5.06294965,6 5.12522004,6.00290825 5.18668414,6.00859773 L5.95729221,4.46738159 C5.37442336,4.00969091 5,3.29857108 5,2.5 C5,1.11928813 6.11928813,0 7.5,0 C8.88071187,0 10,1.11928813 10,2.5 C10,3.19267125 9.71829789,3.81954745 9.26320925,4.27231301 L10.0197372,5.25629641 C10.309407,5.09310181 10.643831,5 11,5 C12.1045695,5 13,5.8954305 13,7 C13,8.1045695 12.1045695,9 11,9 C9.8954305,9 9,8.1045695 9,7 C9,6.61340756 9.10968633,6.25243373 9.29963582,5.94650169 L8.43346185,4.81990641 Z" id="network-hierarchy-filled_24" fill="#00090D"></path>
    </g>
</svg>