<?xml version="1.0" encoding="UTF-8"?>
<svg width="24px" height="24px" viewBox="0 0 24 24" version="1.1" xmlns="http://www.w3.org/2000/svg" xmlns:xlink="http://www.w3.org/1999/xlink">
    <!-- Generator: Sketch 60.1 (88133) - https://sketch.com -->
    <title>Tools / network-settings / network-settings_24</title>
    <desc>Created with Sketch.</desc>
    <g id="Tools-/-network-settings-/-network-settings_24" stroke="none" stroke-width="1" fill="none" fill-rule="evenodd">
        <path d="M18.7082,12.9183 C18.6364,12.9421 18.5574,12.9233 18.5039,12.8699 L18.0295,12.3954 C17.9242,12.2902 17.9667,12.1109 18.108,12.0642 L19.592,11.573 C19.836,11.492 20,11.265 20,11.008 L20,11.003 C20,10.747 19.836,10.52 19.593,10.439 L17.331,9.681 C17.193,9.635 17.083,9.532 17.027,9.398 L16.396,7.868 C16.34,7.734 16.346,7.582 16.411,7.452 L17.48,5.324 C17.596,5.095 17.551,4.818 17.37,4.636 C17.187,4.453 16.911,4.408 16.68,4.522 L14.545,5.588 C14.415,5.653 14.263,5.658 14.13,5.603 L12.602,4.968 C12.468,4.913 12.365,4.802 12.319,4.665 L11.567,2.407 C11.403,1.916 10.595,1.924 10.434,2.406 L9.682,4.663 C9.636,4.8 9.533,4.912 9.398,4.967 L7.87,5.6 C7.735,5.655 7.584,5.651 7.455,5.586 L5.33,4.523 C5.101,4.408 4.825,4.453 4.643,4.634 C4.458,4.819 4.413,5.095 4.527,5.324 L5.591,7.453 C5.656,7.583 5.661,7.734 5.605,7.867 L4.974,9.395 C4.919,9.529 4.809,9.633 4.671,9.678 L2.406,10.438 C2.163,10.519 2,10.746 2,11.003 C2,11.265 2.164,11.492 2.408,11.573 L4.664,12.322 C4.802,12.368 4.913,12.471 4.968,12.605 L5.604,14.132 C5.66,14.266 5.655,14.417 5.59,14.547 L4.526,16.685 C4.412,16.914 4.457,17.19 4.638,17.371 C4.823,17.556 5.1,17.602 5.33,17.486 L7.45,16.421 C7.521,16.385 7.598,16.367 7.675,16.367 C7.74,16.367 7.804,16.38 7.866,16.405 L9.396,17.036 C9.53,17.092 9.633,17.203 9.679,17.34 L10.432,19.593 C10.597,20.084 11.406,20.074 11.566,19.592 L12.0484,18.1378 C12.0952,17.9965 12.2744,17.9541 12.3796,18.0593 L12.8545,18.5342 C12.908,18.5877 12.9268,18.6669 12.9029,18.7387 L12.515,19.907 C12.299,20.56 11.69,21 11.001,21 C10.31,21 9.702,20.562 9.484,19.91 L8.803,17.874 L7.695,17.417 L5.779,18.379 C5.162,18.69 4.422,18.569 3.934,18.081 C3.446,17.592 3.325,16.853 3.631,16.239 L4.593,14.306 L4.133,13.199 L2.093,12.523 C1.439,12.305 1,11.697 1,11.008 C1,10.316 1.438,9.708 2.088,9.49 L4.137,8.803 L4.594,7.696 L3.633,5.772 C3.326,5.157 3.446,4.417 3.931,3.931 C4.42,3.44 5.161,3.32 5.777,3.628 L7.698,4.589 L8.805,4.131 L9.484,2.091 C9.702,1.438 10.31,1 10.998,1 C11.69,1 12.298,1.438 12.516,2.091 L13.196,4.132 L14.303,4.591 L16.233,3.627 C16.848,3.319 17.588,3.441 18.074,3.927 C18.564,4.417 18.684,5.157 18.374,5.774 L17.407,7.697 L17.864,8.805 L19.911,9.49 C20.562,9.708 21,10.316 21,11.003 L21,11.008 C21,11.697 20.561,12.305 19.906,12.522 L18.7082,12.9183 Z M21.762,21.7586 C21.9168,21.6036 22.0017,21.3976 22.0017,21.1766 C22.0017,20.9556 21.9168,20.7486 21.762,20.5946 L13.9191,12.7506 C13.7753,12.6076 13.7324,12.3906 13.8113,12.2036 C14.2357,11.1886 14.0929,10.0326 13.4388,9.1866 C12.7578,8.3076 11.6703,7.8806 10.61079,8.0296 L12.1366,9.5546 C12.3144,9.7326 12.4122,9.9696 12.4122,10.2206 C12.4122,10.4726 12.3144,10.7096 12.1356,10.8866 L10.8884,12.1346 C10.52292,12.5006 9.92676,12.5016 9.55928,12.1346 L8.03044,10.6056 C7.89663,11.5336 8.2012,12.4836 8.88723,13.1696 C9.76199,14.0446 11.0652,14.2966 12.2115,13.8136 C12.2744,13.7866 12.3403,13.7746 12.4053,13.7746 C12.5351,13.7746 12.6629,13.8246 12.7588,13.9206 L20.5967,21.7586 C20.9182,22.0806 21.4415,22.0796 21.762,21.7586 Z M18.0483,15.4666 L22.468,19.8866 C22.8115,20.2306 23.0003,20.6886 23.0003,21.1766 C23.0003,21.6646 22.8115,22.1226 22.468,22.4666 C22.1125,22.8216 21.6462,22.9996 21.1798,22.9996 C20.7125,22.9996 20.2452,22.8216 19.8897,22.4656 L14.0659,16.6406 L13.3589,15.9336 L12.2794,14.8546 C10.84147,15.3266 9.2647,14.9596 8.18123,13.8776 C7.01588,12.7116 6.67935,10.9766 7.32244,9.4556 C7.38635,9.3026 7.52316,9.1926 7.68593,9.1606 C7.8497,9.1276 8.01746,9.1796 8.1343,9.2976 L10.26428,11.4266 L11.4306,10.1786 L9.30065,8.1336 C9.18281,8.0156 9.13189,7.8466 9.16384,7.6836 C9.1958,7.5206 9.30564,7.3836 9.45942,7.3186 C11.145,6.6046 13.1043,7.1226 14.2277,8.5746 C14.8658,9.3986 15.149,11.0575 14.7723,12.1059 L18.0483,15.4666 Z" id="network-settings_24" fill="#00090D"></path>
    </g>
</svg>