<?xml version="1.0" encoding="UTF-8"?>
<svg width="24px" height="24px" viewBox="0 0 24 24" version="1.1" xmlns="http://www.w3.org/2000/svg" xmlns:xlink="http://www.w3.org/1999/xlink">
    <!-- Generator: Sketch 60.1 (88133) - https://sketch.com -->
    <title>Tools / network-settings / network-settings-filled_24</title>
    <desc>Created with Sketch.</desc>
    <g id="Tools-/-network-settings-/-network-settings-filled_24" stroke="none" stroke-width="1" fill="none" fill-rule="evenodd">
        <path d="M17.8471,13.2363 C17.7925,13.368 17.6217,13.4019 17.5209,13.3011 L16.8732,12.6534 C16.8225,12.6027 16.8031,12.5289 16.8206,12.4593 C16.9378,11.9919 17,11.503 17,10.9997 C17,7.6907 14.309,4.9997 11,4.9997 C7.691,4.9997 5,7.6907 5,10.9997 C5,14.3087 7.691,16.9997 11,16.9997 C11.4904,16.9997 11.9672,16.9406 12.4238,16.8291 C12.493,16.8122 12.5663,16.8317 12.6166,16.8821 L13.2724,17.5379 C13.3732,17.6386 13.3393,17.8094 13.2078,17.864 L13.191,17.871 L12.515,19.907 C12.299,20.56 11.69,21 11.001,21 C10.31,21 9.702,20.562 9.484,19.91 L8.803,17.874 L7.695,17.417 L5.779,18.379 C5.162,18.69 4.422,18.569 3.934,18.081 C3.446,17.592 3.325,16.853 3.631,16.239 L4.593,14.306 L4.133,13.199 L2.093,12.523 C1.439,12.305 1,11.697 1,11.008 C1,10.316 1.438,9.708 2.088,9.49 L4.137,8.803 L4.594,7.696 L3.633,5.772 C3.326,5.157 3.446,4.417 3.931,3.931 C4.42,3.44 5.161,3.32 5.777,3.628 L7.698,4.589 L8.805,4.131 L9.484,2.091 C9.702,1.438 10.31,1 10.998,1 C11.69,1 12.298,1.438 12.516,2.091 L13.196,4.132 L14.303,4.591 L16.233,3.627 C16.848,3.319 17.588,3.441 18.074,3.927 C18.564,4.417 18.684,5.157 18.374,5.774 L17.407,7.697 L17.864,8.805 L19.911,9.49 C20.562,9.708 21,10.316 21,11.003 L21,11.008 C21,11.697 20.561,12.305 19.906,12.522 L17.863,13.198 L17.8471,13.2363 Z M18.0483,15.4666 L22.468,19.8866 C22.8115,20.2306 23.0003,20.6886 23.0003,21.1766 C23.0003,21.6646 22.8115,22.1226 22.468,22.4666 C22.1125,22.8216 21.6462,22.9996 21.1798,22.9996 C20.7125,22.9996 20.2452,22.8216 19.8897,22.4656 L14.0659,16.6406 L13.3589,15.9336 L12.2794,14.8546 C10.84147,15.3266 9.2647,14.9596 8.18123,13.8776 C7.01588,12.7116 6.67935,10.9766 7.32244,9.4556 C7.38635,9.3026 7.52316,9.1926 7.68593,9.1606 C7.8497,9.1276 8.01746,9.1796 8.1343,9.2976 L10.26428,11.4266 L11.4306,10.1786 L9.30065,8.1336 C9.18281,8.0156 9.13189,7.8466 9.16384,7.6836 C9.1958,7.5206 9.30564,7.3836 9.45942,7.3186 C11.145,6.6046 13.1043,7.1226 14.2277,8.5746 C14.8658,9.3986 15.149,11.0575 14.7723,12.1059 L18.0483,15.4666 Z" id="network-settings-filled_24" fill="#00090D"></path>
    </g>
</svg>