<?xml version="1.0" encoding="UTF-8"?>
<svg width="16px" height="16px" viewBox="0 0 16 16" version="1.1" xmlns="http://www.w3.org/2000/svg" xmlns:xlink="http://www.w3.org/1999/xlink">
    <!-- Generator: Sketch 60.1 (88133) - https://sketch.com -->
    <title>Tools / network-cloud / network-cloud-filled_16</title>
    <desc>Created with Sketch.</desc>
    <g id="Tools-/-network-cloud-/-network-cloud-filled_16" stroke="none" stroke-width="1" fill="none" fill-rule="evenodd">
        <path d="M7.4998,1.9998 C9.4168,1.9998 11.1028,3.2178 11.7308,5.0058 C14.1048,5.1268 15.9998,7.0968 15.9998,9.4998 C15.9998,11.9808 13.9808,13.9998 11.4998,13.9998 L3.9998,13.9998 C1.7938,13.9998 -0.0002,12.2058 -0.0002,9.9998 C-0.0002,8.1718 1.2728,6.5778 3.0218,6.1368 C3.2238,3.8028 5.1548,1.9998 7.4998,1.9998 Z M4.8,10 L3.2,10 C3.08954305,10 3,10.089543 3,10.2 L3,10.2 L3,11.8 C3,11.9104569 3.08954305,12 3.2,12 L3.2,12 L4.8,12 C4.91045695,12 5,11.9104569 5,11.8 L5,11.8 L5,10.2 C5,10.089543 4.91045695,10 4.8,10 L4.8,10 Z M12.8,10 L11.2,10 C11.0895431,10 11,10.089543 11,10.2 L11,10.2 L11,11.8 C11,11.9104569 11.0895431,12 11.2,12 L11.2,12 L12.8,12 C12.9104569,12 13,11.9104569 13,11.8 L13,11.8 L13,10.2 C13,10.089543 12.9104569,10 12.8,10 L12.8,10 Z M6.60355339,7.64644661 C6.40829124,7.45118446 6.09170876,7.45118446 5.89644661,7.64644661 L5.89644661,7.64644661 L4.89644661,8.64644661 C4.70118446,8.84170876 4.70118446,9.15829124 4.89644661,9.35355339 C5.09170876,9.54881554 5.40829124,9.54881554 5.60355339,9.35355339 L5.60355339,9.35355339 L6.60355339,8.35355339 C6.79881554,8.15829124 6.79881554,7.84170876 6.60355339,7.64644661 Z M9.6035534,7.64644661 C9.4082912,7.45118446 9.09170876,7.45118446 8.89644661,7.64644661 C8.70118446,7.84170876 8.70118446,8.15829124 8.89644661,8.35355339 L8.89644661,8.35355339 L9.8964466,9.35355339 C10.0917088,9.54881554 10.4082912,9.54881554 10.6035534,9.35355339 C10.7988155,9.15829124 10.7988155,8.84170876 10.6035534,8.64644661 L10.6035534,8.64644661 Z M8.3,5 L6.7,5 C6.58954305,5 6.5,5.08954305 6.5,5.2 L6.5,5.2 L6.5,6.8 C6.5,6.91045695 6.58954305,7 6.7,7 L6.7,7 L8.3,7 C8.41045695,7 8.5,6.91045695 8.5,6.8 L8.5,6.8 L8.5,5.2 C8.5,5.08954305 8.41045695,5 8.3,5 L8.3,5 Z" id="network-cloud-filled_16" fill="#00090D"></path>
    </g>
</svg>