<?xml version="1.0" encoding="UTF-8"?>
<svg width="24px" height="24px" viewBox="0 0 24 24" version="1.1" xmlns="http://www.w3.org/2000/svg" xmlns:xlink="http://www.w3.org/1999/xlink">
    <!-- Generator: Sketch 60.1 (88133) - https://sketch.com -->
    <title>Action/feedback/neutral-filled_24</title>
    <desc>Created with Sketch.</desc>
    <g id="Action/feedback/neutral-filled_24" stroke="none" stroke-width="1" fill="none" fill-rule="evenodd">
        <path d="M12,24 C5.383,24 0,18.617 0,12 C0,5.383 5.383,0 12,0 C18.617,0 24,5.383 24,12 C24,18.617 18.617,24 12,24 Z M17,10 C17,9.448 16.552,9 16,9 C15.448,9 15,9.448 15,10 C15,10.552 15.448,11 16,11 C16.552,11 17,10.552 17,10 Z M9,10 C9,9.448 8.552,9 8,9 C7.448,9 7,9.448 7,10 C7,10.552 7.448,11 8,11 C8.552,11 9,10.552 9,10 Z M7,17 L17,17 C17.2761424,17 17.5,16.7761424 17.5,16.5 C17.5,16.2238576 17.2761424,16 17,16 L7,16 C6.72385763,16 6.5,16.2238576 6.5,16.5 C6.5,16.7761424 6.72385763,17 7,17 Z" id="neutral-filled_24" fill="#00090D"></path>
    </g>
</svg>