<?xml version="1.0" encoding="UTF-8"?>
<svg width="16px" height="16px" viewBox="0 0 16 16" version="1.1" xmlns="http://www.w3.org/2000/svg" xmlns:xlink="http://www.w3.org/1999/xlink">
    <!-- Generator: Sketch 60.1 (88133) - https://sketch.com -->
    <title>Action / new-window_16</title>
    <desc>Created with Sketch.</desc>
    <g id="Action-/-new-window_16" stroke="none" stroke-width="1" fill="none" fill-rule="evenodd">
        <path d="M14.0685419,1.0039287 C14.2863007,1.00408725 14.2863007,1.00408725 14.6055288,1.01380287 C14.833731,1.05986259 15.0056716,1.26131794 15.006071,1.50308449 L15.013165,5.75274544 C15.0135474,6.02888744 14.7900599,6.25311456 14.5139179,6.25357074 C14.2377759,6.25402691 14.0135488,6.0305394 14.0130926,5.7543974 L14.0130926,2.65951329 L7.25822718,9.20886176 C7.06296503,9.40412391 6.74638254,9.40412391 6.5511204,9.20886176 C6.35585825,9.01359962 6.35585825,8.69701713 6.5511204,8.50175498 L13.302528,2.00408725 L10.2636286,2.00408725 C9.98748624,2.00409875 9.76361928,1.78025046 9.76360778,1.50410808 C9.76359627,1.22796571 9.98744457,1.00409876 10.2635869,1.00408725 L14.0685419,1.0039287 Z M7.5,3.00531006 C7.77614238,3.00531006 8,3.22385763 8,3.5 C8,3.77614237 7.77614238,4.00531006 7.5,4.00531006 L2.49895489,4.00172424 C2.22281252,4.00172424 1.99895489,4.22558187 1.99895489,4.50172424 L1.99895489,13.5 C1.99895489,13.7761424 2.22281252,14 2.49895489,14 L11.4989549,14 C11.7750973,14 11.9989549,13.7761424 11.9989549,13.5 L11.9989549,8.50838883 C11.9989549,8.23224645 12.2228125,8.00838883 12.4989549,8.00838883 C12.7750973,8.00838883 12.9989549,8.23224645 12.9989549,8.50838883 L12.9989549,13.5 C12.9989549,14.3284271 12.327382,15 11.4989549,15 L2.49895489,15 C1.67052777,15 0.998954895,14.3284271 0.998954895,13.5 L0.998954895,4.50172424 C0.998954895,3.67329712 1.67052777,3.00172424 2.49895489,3.00172424 L7.5,3.00531006 Z" id="new-window_16" fill="#00090D"></path>
    </g>
</svg>