<?xml version="1.0" encoding="UTF-8"?>
<svg width="18px" height="18px" viewBox="0 0 18 18" version="1.1" xmlns="http://www.w3.org/2000/svg" xmlns:xlink="http://www.w3.org/1999/xlink">
    <!-- Generator: Sketch 60.1 (88133) - https://sketch.com -->
    <title>Alert and Notification/notification/notifications_18</title>
    <desc>Created with Sketch.</desc>
    <g id="Alert-and-Notification/notification/notifications_18" stroke="none" stroke-width="1" fill="none" fill-rule="evenodd">
        <path d="M15.9995249,13.9502504 C15.9995249,13.9903172 15.9675129,14.0233723 15.9284982,14.0233723 L2.07230215,14.0233723 C2.03228715,14.0233723 2.00027514,13.9903172 2.00027514,13.9502504 L2.00027514,12.4417362 C2.00027514,11.8106845 2.20835317,11.1856427 2.61650623,10.6377295 L4.2191072,7.93422371 C4.7102914,7.27813022 5.00440169,6.360601 5.00440169,5.48614357 L4.99839944,5.00834725 C4.99839944,2.79966611 6.79307244,1.00166945 8.9999,1.00166945 C11.2057272,1.00166945 13.0014006,2.79966611 13.0014006,5.00834725 L13.0114043,5.67746244 C13.0504189,6.49382304 13.322521,7.32320534 13.7516819,7.89015025 L15.3842941,10.6377295 L15.413305,10.681803 C15.7914468,11.1866444 15.9995249,11.8116861 15.9995249,12.4417362 L15.9995249,13.9502504 Z M8.9999,16.9983306 C7.89948735,16.9983306 7.00515197,16.1038397 7.00015009,15.00601 L10.9996499,15.00601 C10.9936477,16.1038397 10.1003127,16.9983306 8.9999,16.9983306 L8.9999,16.9983306 Z M16.2296111,10.1028381 L14.5819933,7.33422371 C14.2278605,6.8624374 14.0177817,6.20534224 14.0017757,5.56227045 L14.0017757,5.00834725 C14.0017757,2.2427379 11.7629361,0 8.9999,0 C6.23686386,0 3.9980243,2.2427379 3.9980243,5.00834725 L3.9980243,5.56126878 C3.98201829,6.20534224 3.76993876,6.86343907 3.38879584,7.37829716 L1.78619486,10.081803 C1.27900466,10.7569282 0.9999,11.5953255 0.9999,12.4417362 L0.9999,13.9502504 C0.9999,14.5422371 1.48108044,15.0250417 2.07230215,15.0250417 L5.99977495,15.00601 C6.00477683,16.6567613 7.34828064,18 8.9999,18 C10.6515194,18 11.9940228,16.6567613 12.000025,15.00601 L15.9284982,15.0250417 C16.5197199,15.0250417 16.9999,14.5422371 16.9999,13.9502504 L16.9999,12.4417362 C16.9999,11.6053422 16.727798,10.7759599 16.2296111,10.1028381 L16.2296111,10.1028381 Z" id="notifications_18" fill="#00090D"></path>
    </g>
</svg>