<?xml version="1.0" encoding="UTF-8"?>
<svg width="16px" height="16px" viewBox="0 0 16 16" version="1.1" xmlns="http://www.w3.org/2000/svg" xmlns:xlink="http://www.w3.org/1999/xlink">
    <!-- Generator: Sketch 60.1 (88133) - https://sketch.com -->
    <title>Action/link/outside-link_16</title>
    <desc>Created with Sketch.</desc>
    <g id="Action/link/outside-link_16" stroke="none" stroke-width="1" fill="none" fill-rule="evenodd">
        <path d="M5.6479,10.35351 C5.4529,10.15851 5.4529,9.84151 5.6479,9.64651 L9.6479,5.64651 C9.8429,5.45151 10.1599,5.45151 10.3549,5.64651 C10.5499,5.84151 10.5499,6.15851 10.3549,6.35351 L6.3549,10.35351 C6.2569,10.45151 6.1289,10.49951 6.0019,10.49951 C5.8739,10.49951 5.7459,10.45151 5.6479,10.35351 Z M8.4561,9.05521 C8.7301,9.03021 8.9761,9.22621 9.0051,9.50121 C9.0931,10.36021 8.7951,11.20121 8.1891,11.80721 L7.8701,12.15421 C7.3071,12.71921 6.5711,12.99921 5.8381,12.99921 C5.1101,12.99921 4.3851,12.72221 3.8321,12.16921 C2.7231,11.06021 2.7231,9.25521 3.8321,8.14521 L4.1561,7.83821 C4.7531,7.24121 5.5931,6.94521 6.4531,7.03221 C6.7271,7.06021 6.9271,7.30521 6.8991,7.58021 C6.8711,7.85521 6.6271,8.05521 6.3501,8.02721 C5.7921,7.96921 5.2471,8.16121 4.8531,8.55521 L4.5291,8.86221 C3.8201,9.57221 3.8201,10.74221 4.5391,11.46221 C5.2591,12.18221 6.4291,12.18321 7.1491,11.46221 L7.4681,11.11621 C7.8751,10.70721 8.0671,10.16221 8.0101,9.60421 C7.9821,9.32921 8.1821,9.08321 8.4561,9.05521 Z M12.1694,3.83011 C13.2784,4.93911 13.2784,6.74511 12.1694,7.85411 L11.8454,8.16111 C11.2484,8.75911 10.4084,9.05411 9.5484,8.96811 C9.2744,8.93911 9.0744,8.69411 9.1024,8.41911 C9.1304,8.14411 9.3744,7.94411 9.6514,7.97311 C10.2094,8.03011 10.7544,7.83811 11.1484,7.44511 L11.4724,7.13811 C12.1814,6.42711 12.1814,5.25711 11.4624,4.53711 C10.7424,3.81711 9.5724,3.81611 8.8524,4.53711 L8.5334,4.88411 C8.1264,5.29211 7.9344,5.83711 7.9914,6.39511 C8.0194,6.67011 7.8194,6.91611 7.5454,6.94411 C7.2714,6.96911 7.0254,6.77311 6.9964,6.49811 C6.9084,5.63911 7.2064,4.79811 7.8124,4.19211 L8.1314,3.84511 C8.6944,3.28111 9.4304,3.00011 10.1634,3.00011 C10.8914,3.00011 11.6164,3.27711 12.1694,3.83011 Z M8,16 C3.581722,16 0,12.418278 0,8 C0,3.581722 3.581722,0 8,0 C12.418278,0 16,3.581722 16,8 C16,12.418278 12.418278,16 8,16 Z M8,15 C11.8659932,15 15,11.8659932 15,8 C15,4.13400675 11.8659932,1 8,1 C4.13400675,1 1,4.13400675 1,8 C1,11.8659932 4.13400675,15 8,15 Z" id="outside-link_16" fill="#00090D"></path>
    </g>
</svg>