<?xml version="1.0" encoding="UTF-8"?>
<svg width="16px" height="16px" viewBox="0 0 16 16" version="1.1" xmlns="http://www.w3.org/2000/svg" xmlns:xlink="http://www.w3.org/1999/xlink">
    <!-- Generator: Sketch 60.1 (88133) - https://sketch.com -->
    <title>Action / page-jump_16</title>
    <desc>Created with Sketch.</desc>
    <g id="Action-/-page-jump_16" stroke="none" stroke-width="1" fill="none" fill-rule="evenodd">
        <path d="M9.79438114,8.50108093 L1.51538153,8.49877351 C1.23923916,8.49873647 1.01544859,8.27484882 1.01544859,7.99870645 C1.01544859,7.72256408 1.23937326,7.49873648 1.51551563,7.49877351 L9.79415304,7.50108084 L7.64646135,5.35356812 C7.45119106,5.15831411 7.45117787,4.84173162 7.64643188,4.64646134 C7.84168589,4.45119106 8.15826838,4.45117787 8.35353866,4.64643188 L11.3535387,7.64618188 C11.5485866,7.8412136 11.5488544,8.15735707 11.354137,8.35271885 L8.35413697,11.362647 C8.15919765,11.5582314 7.84261559,11.5587544 7.64703115,11.3638151 C7.45144671,11.1688758 7.45092373,10.8522937 7.64586304,10.6567093 L9.79438114,8.50108093 Z M15,2.50314526 L15,13.4954198 C14.9996168,14.3240238 14.3452853,14.9953401 13.5171273,14.9942714 L5.49938914,14.9905563 C4.67156043,14.98948 4.00073294,14.3183423 4.00003929,13.4900943 L4.00003929,11.5034028 C4.00003929,11.2272604 4.22389692,11.0034028 4.50003929,11.0034028 C4.77618167,11.0034028 5.00003929,11.2272604 5.00003929,11.5034028 L5.00003929,13.4896754 C5.00027064,13.7660547 5.22431013,13.9901978 5.50027038,13.9905567 L13.5180082,13.9942676 C13.7866728,13.9946134 14.0059975,13.7825594 14.0173583,13.5164221 L14.0173583,2.50314526 C14.0173583,2.22700288 13.7935007,2.00314526 13.5173583,2.00314526 L5.50003929,2.00314526 C5.22389692,2.00314526 5.00003929,2.22700288 5.00003929,2.50314526 L5.00003929,4.50138583 C5.00003929,4.77752821 4.77618167,5.00138583 4.50003929,5.00138583 C4.22389692,5.00138583 4.00003929,4.77752821 4.00003929,4.50138583 L4.00003929,2.50314526 C4.00003929,1.67471813 4.67161217,1.00314526 5.50003929,1.00314526 L13.5173583,1.00314526 C14.3457855,1.00314526 15,1.67471813 15,2.50314526 Z" id="page-jump_16" fill="#00090D"></path>
    </g>
</svg>