<?xml version="1.0" encoding="UTF-8"?>
<svg width="16px" height="16px" viewBox="0 0 16 16" version="1.1" xmlns="http://www.w3.org/2000/svg" xmlns:xlink="http://www.w3.org/1999/xlink">
    <!-- Generator: Sketch 60.1 (88133) - https://sketch.com -->
    <title>Networking / path / path-trace-horizontal_16</title>
    <desc>Created with Sketch.</desc>
    <g id="Networking-/-path-/-path-trace-horizontal_16" stroke="none" stroke-width="1" fill="none" fill-rule="evenodd">
        <path d="M4,5.5 C4.55228475,5.5 5,5.94771525 5,6.5 L5,9.5 C5,10.0522847 4.55228475,10.5 4,10.5 L1,10.5 C0.44771525,10.5 0,10.0522847 0,9.5 L0,6.5 C0,5.94771525 0.44771525,5.5 1,5.5 L4,5.5 Z M15,5.5 C15.5522847,5.5 16,5.94771525 16,6.5 L16,9.5 C16,10.0522847 15.5522847,10.5 15,10.5 L12,10.5 C11.4477153,10.5 11,10.0522847 11,9.5 L11,6.5 C11,5.94771525 11.4477153,5.5 12,5.5 L15,5.5 Z M4,6.5 L1,6.5 L1,9.5 L4,9.5 L4,6.5 Z M15,6.5 L12,6.5 L12,9.5 L15,9.5 L15,6.5 Z M7,7.5 L7,8.5 L6,8.5 L6,7.5 L7,7.5 Z M10,7.5 L10,8.5 L9,8.5 L9,7.5 L10,7.5 Z" id="path-trace-horizontal_16" fill="#00090D"></path>
    </g>
</svg>