<?xml version="1.0" encoding="UTF-8"?>
<svg width="16px" height="16px" viewBox="0 0 16 16" version="1.1" xmlns="http://www.w3.org/2000/svg" xmlns:xlink="http://www.w3.org/1999/xlink">
    <!-- Generator: Sketch 60.1 (88133) - https://sketch.com -->
    <title>Networking / path / path-trace-vertical_16</title>
    <desc>Created with Sketch.</desc>
    <g id="Networking-/-path-/-path-trace-vertical_16" stroke="none" stroke-width="1" fill="none" fill-rule="evenodd">
        <path d="M6.5,15 L9.5,15 L9.5,12 L6.5,12 L6.5,15 Z M6.5,11 L9.5,11 C10.0522847,11 10.5,11.4477153 10.5,12 L10.5,15 C10.5,15.5522847 10.0522847,16 9.5,16 L6.5,16 C5.94771525,16 5.5,15.5522847 5.5,15 L5.5,12 C5.5,11.4477153 5.94771525,11 6.5,11 Z M6.5,1 L6.5,4 L9.5,4 L9.5,1 L6.5,1 Z M6.5,0 L9.5,0 C10.0522847,0 10.5,0.44771525 10.5,1 L10.5,4 C10.5,4.55228475 10.0522847,5 9.5,5 L6.5,5 C5.94771525,5 5.5,4.55228475 5.5,4 L5.5,1 C5.5,0.44771525 5.94771525,0 6.5,0 Z M7.5,6 L8.5,6 L8.5,7 L7.5,7 L7.5,6 Z M7.5,9 L8.5,9 L8.5,10 L7.5,10 L7.5,9 Z" id="path-trace-vertical_16" fill="#00090D"></path>
    </g>
</svg>