<?xml version="1.0" encoding="UTF-8"?>
<svg width="18px" height="18px" viewBox="0 0 18 18" version="1.1" xmlns="http://www.w3.org/2000/svg" xmlns:xlink="http://www.w3.org/1999/xlink">
    <title>Action / video controls / pause-circle_18</title>
    <g id="Action-/-video-controls-/-pause-circle_18" stroke="none" stroke-width="1" fill="none" fill-rule="evenodd">
        <path d="M9,0 C13.97025,0 18,4.02975 18,9 C18,13.97025 13.97025,18 9,18 C4.02975,18 0,13.97025 0,9 C0,4.02975 4.02975,0 9,0 Z M9,1 C4.58857143,1 1,4.58857143 1,9 C1,13.4114286 4.58857143,17 9,17 C13.4114286,17 17,13.4114286 17,9 C17,4.58857143 13.4114286,1 9,1 Z M7.5,5 C7.77614237,5 8,5.22385763 8,5.5 L8,12.5 C8,12.7761424 7.77614237,13 7.5,13 C7.22385763,13 7,12.7761424 7,12.5 L7,5.5 C7,5.22385763 7.22385763,5 7.5,5 Z M10.5,5 C10.7761424,5 11,5.22385763 11,5.5 L11,12.5 C11,12.7761424 10.7761424,13 10.5,13 C10.2238576,13 10,12.7761424 10,12.5 L10,5.5 C10,5.22385763 10.2238576,5 10.5,5 Z" id="Combined-Shape" fill="#545454"></path>
    </g>
</svg>