<?xml version="1.0" encoding="UTF-8"?>
<svg width="16px" height="16px" viewBox="0 0 16 16" version="1.1" xmlns="http://www.w3.org/2000/svg" xmlns:xlink="http://www.w3.org/1999/xlink">
    <!-- Generator: Sketch 60.1 (88133) - https://sketch.com -->
    <title>Action/play &amp; pause/pause-filled_16</title>
    <desc>Created with Sketch.</desc>
    <g id="Action/play-&amp;-pause/pause-filled_16" stroke="none" stroke-width="1" fill="none" fill-rule="evenodd">
        <path d="M5,1 C6.1,1 7,1.9 7,3 L7,13 C7,14.1 6.1,15 5,15 C3.9,15 3,14.1 3,13 L3,3 C3,1.9 3.9,1 5,1 Z M11,1 C12.1,1 13,1.9 13,3 L13,13 C13,14.1 12.1,15 11,15 C9.9,15 9,14.1 9,13 L9,3 C9,1.9 9.9,1 11,1 Z" id="pause-filled_16" fill="#00090D"></path>
    </g>
</svg>