<?xml version="1.0" encoding="UTF-8"?>
<svg width="24px" height="24px" viewBox="0 0 24 24" version="1.1" xmlns="http://www.w3.org/2000/svg" xmlns:xlink="http://www.w3.org/1999/xlink">
    <title>Action / video controls / pause-circle_24</title>
    <g id="Action-/-video-controls-/-pause-circle_24" stroke="none" stroke-width="1" fill="none" fill-rule="evenodd">
        <path d="M12,0 C18.617,0 24,5.383 24,12 C24,18.617 18.617,24 12,24 C5.383,24 0,18.617 0,12 C0,5.383 5.383,0 12,0 Z M12,23 C18.065,23 23,18.065 23,12 C23,5.935 18.065,1 12,1 C5.935,1 1,5.935 1,12 C1,18.065 5.935,23 12,23 Z M9.498,7 C10.323,7 10.998,7.675 10.998,8.5 L10.998,15.5 C10.998,16.325 10.323,17 9.498,17 C8.673,17 7.998,16.325 7.998,15.5 L7.998,8.5 C7.998,7.675 8.673,7 9.498,7 Z M9.998,15.5 L9.998,8.5 C9.998,8.229 9.769,8 9.498,8 C9.227,8 8.998,8.229 8.998,8.5 L8.998,15.5 C8.998,15.771 9.227,16 9.498,16 C9.769,16 9.998,15.771 9.998,15.5 Z M14.498,7 C15.323,7 15.998,7.675 15.998,8.5 L15.998,15.5 C15.998,16.325 15.323,17 14.498,17 C13.673,17 12.998,16.325 12.998,15.5 L12.998,8.5 C12.998,7.675 13.673,7 14.498,7 Z M14.998,15.5 L14.998,8.5 C14.998,8.229 14.769,8 14.498,8 C14.227,8 13.998,8.229 13.998,8.5 L13.998,15.5 C13.998,15.771 14.227,16 14.498,16 C14.769,16 14.998,15.771 14.998,15.5 Z" id="pause-circle_24" fill="#545454"></path>
    </g>
</svg>