<?xml version="1.0" encoding="UTF-8"?>
<svg width="16px" height="16px" viewBox="0 0 16 16" version="1.1" xmlns="http://www.w3.org/2000/svg" xmlns:xlink="http://www.w3.org/1999/xlink">
    <!-- Generator: Sketch 60.1 (88133) - https://sketch.com -->
    <title>Topology/Endpoints/phone/phone-topology_16</title>
    <desc>Created with Sketch.</desc>
    <g id="Topology/Endpoints/phone/phone-topology_16" stroke="none" stroke-width="1" fill="none" fill-rule="evenodd">
        <path d="M3.55913262,0 C4.46412297,0 5.28111426,0.537966377 5.63911044,1.36991438 L6.29310347,2.88981939 C6.60810012,3.62377351 6.58410037,4.45472158 6.22710418,5.16867696 L5.78610888,6.05062184 C5.71910959,6.18461346 5.73610941,6.34360352 5.8311084,6.46659584 C6.74709863,7.64352228 8.13708382,9.02443597 9.55006875,10.1573652 C9.66906749,10.2523592 9.83206575,10.272358 9.96606432,10.2053622 L10.8320551,9.77238923 C11.5460475,9.4144116 12.3760386,9.3904131 13.1100308,9.70739329 L14.6300146,10.3603525 C15.4620057,10.7183301 16,11.535279 16,12.4402225 L16,14.1711143 C16,14.7400787 15.7420028,15.2670458 15.2930075,15.616024 C14.970011,15.8680082 14.5810151,16 14.1840194,16 C14.0350209,16 13.8850225,15.9810012 13.7370241,15.9430036 C11.0470528,15.2600462 7.9790855,13.3421661 5.31811387,10.6813324 C2.65714223,8.02049872 0.739162677,4.95269046 0.0561699571,2.26285857 C-0.0818285719,1.71889257 0.0371701596,1.151928 0.383166471,0.706955815 C0.732162751,0.257983876 1.25915713,0 1.82815107,0 L3.55913262,0 Z" id="secondary-color" fill="#FFA000"></path>
        <path d="M14.6300146,10.3603525 C15.4620057,10.7183301 16,11.535279 16,12.4402225 L16,14.1711143 C16,14.7400787 15.7420028,15.2670458 15.2930075,15.616024 C14.970011,15.8680082 14.5810151,16 14.1840194,16 C14.0350209,16 13.8850225,15.9810012 13.7370241,15.9430036 C11.0470528,15.2600462 7.9790855,13.3421661 5.31811387,10.6813324 C2.65714223,8.02049872 0.739162677,4.95269046 0.0561699571,2.26285857 C-0.0818285719,1.71889257 0.0371701596,1.151928 0.383166471,0.706955815 C0.732162751,0.257983876 1.25915713,0 1.82815107,0 L3.55913262,0 C4.46412297,0 5.28111426,0.537966377 5.63911044,1.36991438 L6.29310347,2.88981939 C6.60810012,3.62377351 6.58410037,4.45472158 6.22710418,5.16867696 L5.78610888,6.05062184 C5.71910959,6.18461346 5.73610941,6.34360352 5.8311084,6.46659584 C6.74709863,7.64352228 8.13708382,9.02443597 9.55006875,10.1573652 C9.66906749,10.2523592 9.83206575,10.272358 9.96606432,10.2053622 L10.8320551,9.77238923 C11.5460475,9.4144116 12.3760386,9.3904131 13.1100308,9.70739329 L14.6300146,10.3603525 L14.6300146,10.3603525 Z M15.0000125,14.1711143 L15.0000125,12.4402225 C15.0000125,11.935254 14.7000139,11.4792825 14.2350188,11.2782951 L12.715035,10.6263359 C12.2530399,10.4273483 11.7300455,10.4423474 11.2790503,10.6673333 L10.4130596,11.1003062 C9.93406466,11.3412912 9.34807091,11.2772952 8.92407543,10.9383164 C7.43209133,9.74039123 6.01710642,8.3344791 5.04211681,7.08055747 C4.70812037,6.65058434 4.65112098,6.08561965 4.89211841,5.60364977 L5.33311371,4.72170489 C5.55811131,4.27173302 5.57311115,3.74776576 5.37411327,3.2847947 L4.72012024,1.76488969 C4.52112236,1.29991876 4.06412723,0.999937504 3.55913262,0.999937504 L1.82815107,0.999937504 C1.57015382,0.999937504 1.33115637,1.11693019 1.17215806,1.32091744 C1.01715971,1.52090494 0.963160289,1.77488907 1.02515963,2.01687395 C1.6661528,4.53671646 3.48813337,7.43753515 6.02510633,9.9743766 C8.56307928,12.511218 11.4630484,14.3341041 13.9830215,14.9740641 C14.2260189,15.0360602 14.4790162,14.9820636 14.6790141,14.8270733 C14.8830119,14.6680832 15.0000125,14.4290982 15.0000125,14.1711143 L15.0000125,14.1711143 Z" id="phone-topology_16" fill="#00090D"></path>
    </g>
</svg>