<?xml version="1.0" encoding="UTF-8"?>
<svg width="24px" height="24px" viewBox="0 0 24 24" version="1.1" xmlns="http://www.w3.org/2000/svg" xmlns:xlink="http://www.w3.org/1999/xlink">
    <!-- Generator: Sketch 60.1 (88133) - https://sketch.com -->
    <title>Networking/Endpoints/phone/phone-filled_24</title>
    <desc>Created with Sketch.</desc>
    <g id="Networking/Endpoints/phone/phone-filled_24" stroke="none" stroke-width="1" fill="none" fill-rule="evenodd">
        <path d="M5.75757124,1 C6.93273305,1 7.99239534,1.69758045 8.45714342,2.77740932 L9.37563962,4.91506715 C9.7908879,5.8793965 9.75972137,6.97205865 9.28947331,7.9116381 L8.6698092,9.15096631 C8.53230977,9.42504851 8.56714296,9.74863051 8.7587255,9.99521282 C10.0768867,11.6892058 11.9963788,13.5958646 14.0258704,15.2247745 C14.2678694,15.4191071 14.5987847,15.4557736 14.8719503,15.3191908 L16.0892786,14.7105267 C17.0279414,14.2411953 18.1206035,14.2100287 19.0858495,14.6243604 L21.2225907,15.5428566 C22.3024196,16.0076046 23,17.0672669 23,18.2424287 L23,20.675252 C23,21.398499 22.6727514,22.0685796 22.1016704,22.5122444 C21.6900887,22.8330764 21.1969241,22.9999091 20.6918429,22.9999091 C20.5030103,22.9999091 20.3123444,22.9760758 20.1235119,22.9284094 C16.3853607,21.9787466 12.1137117,19.3066743 8.40397697,15.5969397 C4.69332564,11.8862883 2.02033669,7.61463933 1.07159061,3.87648811 C0.895591341,3.1853243 1.04775738,2.46391062 1.48775556,1.89924628 C1.93233705,1.32816531 2.60150095,1 3.32474796,1 L5.75757124,1 Z" id="phone-filled_24" fill="#00090D"></path>
    </g>
</svg>