<?xml version="1.0" encoding="UTF-8"?>
<svg width="24px" height="24px" viewBox="0 0 24 24" version="1.1" xmlns="http://www.w3.org/2000/svg" xmlns:xlink="http://www.w3.org/1999/xlink">
    <!-- Generator: Sketch 60.1 (88133) - https://sketch.com -->
    <title>Topology/Endpoints/phone/phone-topology_24</title>
    <desc>Created with Sketch.</desc>
    <g id="Topology/Endpoints/phone/phone-topology_24" stroke="none" stroke-width="1" fill="none" fill-rule="evenodd">
        <path d="M5.75757124,1 C6.93273305,1 7.99239534,1.69758045 8.45714342,2.77740932 L9.37563962,4.91506715 C9.7908879,5.8793965 9.75972137,6.97205865 9.28947331,7.9116381 L8.6698092,9.15096631 C8.53230977,9.42504851 8.56714296,9.74863051 8.7587255,9.99521282 C10.0768867,11.6892058 11.9963788,13.5958646 14.0258704,15.2247745 C14.2678694,15.4191071 14.5987847,15.4557736 14.8719503,15.3191908 L16.0892786,14.7105267 C17.0279414,14.2411953 18.1206035,14.2100287 19.0858495,14.6243604 L21.2225907,15.5428566 C22.3024196,16.0076046 23,17.0672669 23,18.2424287 L23,20.675252 C23,21.398499 22.6727514,22.0685796 22.1016704,22.5122444 C21.6900887,22.8330764 21.1969241,22.9999091 20.6918429,22.9999091 C20.5030103,22.9999091 20.3123444,22.9760758 20.1235119,22.9284094 C16.3853607,21.9787466 12.1137117,19.3066743 8.40397697,15.5969397 C4.69332564,11.8862883 2.02033669,7.61463933 1.07159061,3.87648811 C0.895591341,3.1853243 1.04775738,2.46391062 1.48775556,1.89924628 C1.93233705,1.32816531 2.60150095,1 3.32474796,1 L5.75757124,1 Z" id="secondary-color" fill="#FFA000"></path>
        <path d="M21.2225907,15.5428566 C22.3024196,16.0076046 23,17.0672669 23,18.2424287 L23,20.675252 C23,21.398499 22.6727514,22.0685796 22.1016704,22.5122444 C21.6900887,22.8330764 21.1969241,22.9999091 20.6918429,22.9999091 C20.5030103,22.9999091 20.3123444,22.9760758 20.1235119,22.9284094 C16.3853607,21.9787466 12.1137117,19.3066743 8.40397697,15.5969397 C4.69332564,11.8862883 2.02033669,7.61463933 1.07159061,3.87648811 C0.895591341,3.1853243 1.04775738,2.46391062 1.48775556,1.89924628 C1.93233705,1.32816531 2.60150095,1 3.32474796,1 L5.75757124,1 C6.93273305,1 7.99239534,1.69758045 8.45714342,2.77740932 L9.37563962,4.91506715 C9.7908879,5.8793965 9.75972137,6.97205865 9.28947331,7.9116381 L8.6698092,9.15096631 C8.53230977,9.42504851 8.56714296,9.74863051 8.7587255,9.99521282 C10.0768867,11.6892058 11.9963788,13.5958646 14.0258704,15.2247745 C14.2678694,15.4191071 14.5987847,15.4557736 14.8719503,15.3191908 L16.0892786,14.7105267 C17.0279414,14.2411953 18.1206035,14.2100287 19.0858495,14.6243604 L21.2225907,15.5428566 Z M22.0004556,20.6039378 L22.0004556,18.1911714 C22.0004556,17.3893402 21.5240843,16.6666013 20.7877087,16.3493234 L18.6685835,15.4383995 C17.9576629,15.13294 17.1540135,15.1565768 16.4621841,15.5020369 L15.2558009,16.1056831 C14.6694278,16.397506 13.9566889,16.3211411 13.4403169,15.907498 C11.3748289,14.2492894 9.41752447,12.3038033 8.0684117,10.5701388 C7.66749612,10.0546759 7.59476767,9.34739177 7.88386326,8.76738237 L8.49841867,7.53827155 C8.84478792,6.84735126 8.86842466,6.04279277 8.56205606,5.33278127 L7.65113222,3.21274692 C7.33385435,2.47637135 6.61111537,2 5.80928419,2 L3.39651783,2 C2.96196534,2 2.55923154,2.19727592 2.29195448,2.54091785 C2.02922295,2.87819605 1.93831239,3.30820301 2.04285954,3.72002787 C2.94560143,7.2728127 5.50837023,11.3574243 9.07660986,14.9247549 C12.6430313,18.4920854 16.7267338,21.0548542 20.2804278,21.9575961 C20.6931617,22.0630523 21.1222596,21.9712327 21.4595378,21.7085011 C21.8031797,21.4412241 22.0004556,21.0393994 22.0004556,20.6039378 L22.0004556,20.6039378 Z" id="phone-topology_24" fill="#00090D"></path>
    </g>
</svg>