<svg width="24" height="24" viewBox="0 0 24 24" fill="none" xmlns="http://www.w3.org/2000/svg">
<path fill-rule="evenodd" clip-rule="evenodd" d="M22.9867 12.5462C22.9741 12.8035 22.7579 13 22.5003 13L22.4917 12.9999L22.4793 12.9996C22.4724 12.9999 22.4654 13 22.4584 13H11.5L11.5 13C11.3965 13 11.3003 12.9685 11.2205 12.9146C11.0875 12.8248 11 12.6726 11 12.5V1.53681C11 1.53052 11.0001 1.52425 11.0003 1.51802C11.0001 1.51196 11 1.50587 11 1.49976C11 1.24217 11.1965 1.02591 11.4538 1.01332C11.6348 1.00448 11.8169 1 12 1C18.0752 1 23 5.92487 23 12C23 12.1832 22.9955 12.3653 22.9867 12.5462ZM22 12H12V2H12C17.5229 2 22 6.47715 22 12ZM8.37773 2.47203C8.69152 2.37443 9 2.61638 9 2.945C9 3.17368 8.84637 3.37269 8.62836 3.44174C4.78529 4.65895 2 8.2542 2 12.5C2 17.7467 6.25329 22 11.5 22C15.7458 22 19.341 19.2147 20.5583 15.3716C20.6273 15.1536 20.8263 15 21.055 15C21.3836 15 21.6256 15.3085 21.528 15.6223C20.1986 19.8966 16.2117 23 11.5 23C5.70101 23 1 18.299 1 12.5C1 7.78828 4.10345 3.80141 8.37773 2.47203Z" fill="#545454"/>
</svg>
