<svg width="36" height="36" viewBox="0 0 36 36" fill="none" xmlns="http://www.w3.org/2000/svg">
<path fill-rule="evenodd" clip-rule="evenodd" d="M34.9295 19.5591C34.9066 19.8108 34.6932 20 34.4405 20C34.4266 20 34.413 19.9994 34.3994 19.9983C34.3908 19.999 34.3821 19.9995 34.3733 19.9998C34.3684 19.9999 34.3635 20 34.3585 20H16.5891C16.5741 20 16.5592 19.9993 16.5445 19.998C16.5299 19.9993 16.515 20 16.5 20C16.2239 20 16 19.7761 16 19.5V1.58905L16.0003 1.57329L16.0001 1.55962C16.0001 1.30691 16.1892 1.09343 16.4409 1.07054C16.9544 1.02386 17.4744 1 18.0001 1C27.3889 1 35.0001 8.61115 35.0001 18C35.0001 18.5256 34.9762 19.0457 34.9295 19.5591ZM34.0001 18C34.0001 18.3358 33.9897 18.6693 33.9693 19H17V2.03075C17.3308 2.01035 17.6642 2 18.0001 2C26.8366 2 34.0001 9.16344 34.0001 18ZM12.373 3.67917C12.6887 3.58396 13 3.82523 13 4.15497C13 4.38196 12.8478 4.58025 12.6306 4.64628C6.47761 6.5169 2 12.2355 2 18.9999C2 27.2842 8.71573 33.9999 17 33.9999C23.7644 33.9999 29.483 29.5223 31.3537 23.3693C31.4197 23.1522 31.618 23 31.845 23C32.1747 23 32.416 23.3113 32.3208 23.627C30.3361 30.2075 24.2277 34.9999 17 34.9999C8.16344 34.9999 1 27.8365 1 18.9999C1 11.7722 5.79246 5.66384 12.373 3.67917Z" fill="#545454"/>
</svg>
