<?xml version="1.0" encoding="UTF-8"?>
<svg width="16px" height="16px" viewBox="0 0 16 16" version="1.1" xmlns="http://www.w3.org/2000/svg" xmlns:xlink="http://www.w3.org/1999/xlink">
    <!-- Generator: Sketch 60.1 (88133) - https://sketch.com -->
    <title>Action/pin/pin-filled_16</title>
    <desc>Created with Sketch.</desc>
    <g id="Action/pin/pin-filled_16" stroke="none" stroke-width="1" fill="none" fill-rule="evenodd">
        <path d="M15.8526,15.1459 C16.0486,15.3409 16.0496,15.6569 15.8536,15.8529 C15.7566,15.9509 15.6286,15.9999 15.4996,15.9999 C15.3726,15.9999 15.2446,15.9509 15.1466,15.8549 L11.3946,12.1149 L7.7926,15.7179 C7.6116,15.8989 7.3646,15.9999 7.1096,15.9999 C7.0956,15.9999 7.0816,15.9999 7.0676,15.9989 C6.7936,15.9869 6.5346,15.8589 6.3566,15.6489 C5.1086,14.1679 4.5786,12.1729 4.9126,10.2599 L0.9926,6.3399 L0.8536,6.4789 C0.7556,6.5759 0.6276,6.6249 0.4996,6.6249 C0.3716,6.6249 0.2446,6.5759 0.1466,6.4789 C-0.0484,6.2829 -0.0484,5.9669 0.1466,5.7719 L5.7716,0.1469 C5.9666,-0.0491 6.2836,-0.0491 6.4786,0.1469 C6.6736,0.3419 6.6736,0.6579 6.4786,0.8539 L6.3396,0.9919 L10.2596,4.9119 C12.1956,4.5729 14.1446,5.0899 15.6486,6.3579 C15.8606,6.5359 15.9876,6.7959 15.9986,7.0699 C16.0106,7.3399 15.9076,7.6029 15.7166,7.7919 L12.1016,11.4069 L15.8526,15.1459 Z" id="pin-filled_16" fill="#00090D"></path>
    </g>
</svg>