<?xml version="1.0" encoding="UTF-8"?>
<svg width="24px" height="24px" viewBox="0 0 24 24" version="1.1" xmlns="http://www.w3.org/2000/svg" xmlns:xlink="http://www.w3.org/1999/xlink">
    <!-- Generator: Sketch 60.1 (88133) - https://sketch.com -->
    <title>Action/pin/pin-filled_24</title>
    <desc>Created with Sketch.</desc>
    <g id="Action/pin/pin-filled_24" stroke="none" stroke-width="1" fill="none" fill-rule="evenodd">
        <path d="M23.85225,23.14525 C24.04925,23.34025 24.04925,23.65725 23.85425,23.85225 C23.75725,23.95125 23.62825,24.00025 23.50025,24.00025 C23.37225,24.00025 23.24525,23.95125 23.14725,23.85425 L17.20525,17.93225 L11.49325,23.64425 C11.26425,23.87525 10.96225,24.00025 10.63825,24.00025 C10.62025,24.00025 10.60325,24.00025 10.58625,23.99925 C10.23925,23.98425 9.91125,23.82325 9.68525,23.55525 C7.79225,21.31125 7.00425,18.27225 7.55325,15.37525 L1.25525,9.07725 L0.85325,9.47825 C0.75625,9.57625 0.62825,9.62525 0.50025,9.62525 C0.37225,9.62525 0.24425,9.57625 0.14625,9.47825 C-0.04875,9.28325 -0.04875,8.96625 0.14625,8.77125 L8.77125,0.14625 C8.96725,-0.04875 9.28325,-0.04875 9.47825,0.14625 C9.67425,0.34125 9.67425,0.65825 9.47825,0.85325 L9.07725,1.25425 L15.37525,7.55225 C18.27125,7.00625 21.31025,7.79125 23.55625,9.68525 C23.82325,9.91125 23.98425,10.23925 23.99925,10.58525 C24.01325,10.92825 23.88725,11.25125 23.64325,11.49425 L17.91225,17.22525 L23.85225,23.14525 Z" id="pin-filled_24" fill="#00090D"></path>
    </g>
</svg>