<?xml version="1.0" encoding="UTF-8"?>
<svg width="24px" height="24px" viewBox="0 0 24 24" version="1.1" xmlns="http://www.w3.org/2000/svg" xmlns:xlink="http://www.w3.org/1999/xlink">
    <!-- Generator: Sketch 60.1 (88133) - https://sketch.com -->
    <title>Action/pin/pin_24</title>
    <desc>Created with Sketch.</desc>
    <g id="Action/pin/pin_24" stroke="none" stroke-width="1" fill="none" fill-rule="evenodd">
        <path d="M10.78525,22.93825 C10.73025,22.99325 10.65825,22.99725 10.62725,23.00025 C10.55925,22.99725 10.49525,22.96425 10.44925,22.91125 C8.67025,20.80125 7.99025,18.03425 8.58525,15.31925 C8.62125,15.15225 8.57025,14.97825 8.45025,14.85825 L1.96225,8.37025 L8.37025,1.96125 L14.85825,8.45025 C14.97825,8.57025 15.14825,8.62125 15.31925,8.58425 C18.03325,7.99125 20.80225,8.66925 22.91125,10.44925 C22.96525,10.49525 22.99725,10.55925 23.00025,10.62625 C23.00225,10.66825 22.99225,10.73125 22.93725,10.78625 L10.78525,22.93825 Z M23.85225,23.14525 L17.91225,17.22525 L23.64325,11.49425 C23.88725,11.25125 24.01325,10.92825 23.99925,10.58525 C23.98425,10.23925 23.82325,9.91125 23.55625,9.68525 C21.31025,7.79125 18.27125,7.00625 15.37525,7.55225 L9.07725,1.25425 L9.47825,0.85325 C9.67425,0.65825 9.67425,0.34125 9.47825,0.14625 C9.28325,-0.04875 8.96725,-0.04875 8.77125,0.14625 L0.14625,8.77125 C-0.04875,8.96625 -0.04875,9.28325 0.14625,9.47825 C0.24425,9.57625 0.37225,9.62525 0.50025,9.62525 C0.62825,9.62525 0.75625,9.57625 0.85325,9.47825 L1.25525,9.07725 L7.55325,15.37525 C7.00425,18.27225 7.79225,21.31125 9.68525,23.55525 C9.91125,23.82325 10.23925,23.98425 10.58625,23.99925 C10.60325,24.00025 10.62025,24.00025 10.63825,24.00025 C10.96225,24.00025 11.26425,23.87525 11.49325,23.64425 L17.20525,17.93225 L23.14725,23.85425 C23.24525,23.95125 23.37225,24.00025 23.50025,24.00025 C23.62825,24.00025 23.75725,23.95125 23.85425,23.85225 C24.04925,23.65725 24.04925,23.34025 23.85225,23.14525 L23.85225,23.14525 Z" id="pin_24" fill="#00090D"></path>
    </g>
</svg>