<?xml version="1.0" encoding="UTF-8"?>
<svg width="16px" height="16px" viewBox="0 0 16 16" version="1.1" xmlns="http://www.w3.org/2000/svg" xmlns:xlink="http://www.w3.org/1999/xlink">
    <!-- Generator: Sketch 60.1 (88133) - https://sketch.com -->
    <title>Action/pin/pin_16</title>
    <desc>Created with Sketch.</desc>
    <g id="Action/pin/pin_16" stroke="none" stroke-width="1" fill="none" fill-rule="evenodd">
        <path d="M7.1216,15.0039 C5.9966,13.6699 5.5666,11.9189 5.9426,10.2009 C5.9786,10.0349 5.9286,9.8609 5.8076,9.7409 L1.6996,5.6329 L5.6326,1.6989 L9.7406,5.8079 C9.8616,5.9279 10.0346,5.9799 10.2016,5.9419 C11.9176,5.5699 13.6696,5.9969 15.0106,7.0849 L11.0606,11.0499 C11.0556,11.0549 11.0496,11.0559 11.0446,11.0609 C11.0396,11.0659 11.0386,11.0719 11.0336,11.0769 L7.1216,15.0039 Z M15.8526,15.1459 L12.1016,11.4069 L15.7166,7.7919 C15.9076,7.6029 16.0106,7.3399 15.9986,7.0699 C15.9876,6.7959 15.8606,6.5359 15.6486,6.3579 C14.1446,5.0899 12.1956,4.5729 10.2596,4.9119 L6.3396,0.9919 L6.4786,0.8539 C6.6736,0.6579 6.6736,0.3419 6.4786,0.1469 C6.2836,-0.0491 5.9666,-0.0491 5.7716,0.1469 L0.1466,5.7719 C-0.0484,5.9669 -0.0484,6.2829 0.1466,6.4789 C0.2446,6.5759 0.3716,6.6249 0.4996,6.6249 C0.6276,6.6249 0.7556,6.5759 0.8536,6.4789 L0.9926,6.3399 L4.9126,10.2599 C4.5786,12.1729 5.1086,14.1679 6.3566,15.6489 C6.5346,15.8589 6.7936,15.9869 7.0676,15.9989 C7.0816,15.9999 7.0956,15.9999 7.1096,15.9999 C7.3646,15.9999 7.6116,15.8989 7.7926,15.7179 L11.3946,12.1149 L15.1466,15.8549 C15.2446,15.9509 15.3726,15.9999 15.4996,15.9999 C15.6286,15.9999 15.7566,15.9509 15.8536,15.8529 C16.0496,15.6569 16.0486,15.3409 15.8526,15.1459 Z" id="pin_16" fill="#00090D"></path>
    </g>
</svg>