<?xml version="1.0" encoding="UTF-8"?>
<svg width="24px" height="24px" viewBox="0 0 24 24" version="1.1" xmlns="http://www.w3.org/2000/svg" xmlns:xlink="http://www.w3.org/1999/xlink">
    <!-- Generator: Sketch 60.1 (88133) - https://sketch.com -->
    <title>Tools / platform / platform_24</title>
    <desc>Created with Sketch.</desc>
    <g id="Tools-/-platform-/-platform_24" stroke="none" stroke-width="1" fill="none" fill-rule="evenodd">
        <path d="M20,11.47 C20,11.651 19.82,11.76 19.65,11.7 C19.29,11.571 18.9,11.5 18.5,11.5 C16.57,11.5 15,13.071 15,15 C15,15.31 15.04,15.63 15.13,15.96 C15.47,17.25 16.59,18.25 17.91,18.45 C18.53,18.55 19.12,18.491 19.65,18.3 C19.82,18.241 20,18.35 20,18.531 L20,21.5 C20,22.33 19.33,23 18.5,23 L5.5,23 C4.67,23 4,22.33 4,21.5 L4,7.5 C4,6.67 4.67,6 5.5,6 L8.47,6 C8.88,6 9.26,5.8 9.49,5.47 C9.72,5.13 9.78,4.7 9.64,4.31 C9.5,3.941 9.47,3.51 9.53,3.06 C9.68,2.13 10.39,1.34 11.3,1.09 C11.53,1.031 11.77,1 12,1 C13.38,1 14.5,2.12 14.5,3.5 C14.5,3.79 14.45,4.06 14.36,4.31 C14.22,4.7 14.28,5.13 14.51,5.47 C14.74,5.8 15.12,6 15.53,6 L18.5,6 C19.33,6 20,6.67 20,7.5 L20,11.47 Z M20.84,6.63 C20.49,5.68 19.57,5 18.5,5 L15.53,5 C15.35,5 15.24,4.821 15.3,4.651 C15.43,4.29 15.5,3.901 15.5,3.5 C15.5,1.571 13.93,0 12,0 C11.69,0 11.37,0.04 11.04,0.13 C9.75,0.47 8.75,1.59 8.55,2.91 C8.45,3.531 8.51,4.12 8.7,4.651 C8.76,4.821 8.65,5 8.47,5 L5.5,5 C4.12,5 3,6.12 3,7.5 L3,21.5 C3,22.88 4.12,24 5.5,24 L18.5,24 C19.32,24 20.04,23.611 20.5,23 C20.81,22.59 21,22.06 21,21.5 L21,18.531 C21,18.12 20.8,17.741 20.47,17.51 C20.33,17.41 20.17,17.35 20,17.31 C19.77,17.26 19.54,17.281 19.31,17.361 C18.94,17.5 18.51,17.531 18.06,17.47 C17.13,17.321 16.34,16.611 16.09,15.7 C16.03,15.47 16,15.231 16,15 C16,13.62 17.12,12.5 18.5,12.5 C18.79,12.5 19.06,12.55 19.31,12.64 C19.54,12.72 19.77,12.741 20,12.691 C20.17,12.651 20.33,12.59 20.47,12.491 C20.8,12.26 21,11.88 21,11.47 L21,7.5 C21,7.191 20.95,6.901 20.84,6.63 L20.84,6.63 Z" id="platform_24" fill="#00090D"></path>
    </g>
</svg>