<?xml version="1.0" encoding="UTF-8"?>
<svg width="36px" height="36px" viewBox="0 0 36 36" version="1.1" xmlns="http://www.w3.org/2000/svg" xmlns:xlink="http://www.w3.org/1999/xlink">
    <!-- Generator: Sketch 60.1 (88133) - https://sketch.com -->
    <title>Tools / platform / platform_36</title>
    <desc>Created with Sketch.</desc>
    <g id="Tools-/-platform-/-platform_36" stroke="none" stroke-width="1" fill="none" fill-rule="evenodd">
        <path d="M30,16.71 C30,17.04 29.69,17.28 29.38,17.19 C28.94,17.07 28.48,17 28,17 C25.24,17 23,19.24 23,22 C23,22.4 23.05,22.82 23.15,23.24 C23.51,24.731 24.59,26 26.01,26.59 C27.17,27.08 28.34,27.1 29.37,26.81 C29.69,26.72 30,26.96 30,27.29 L30,31.5 C30,32.88 28.88,34 27.5,34 L8.5,34 C7.12,34 6,32.88 6,31.5 L6,11.5 C6,10.12 7.12,9 8.5,9 L12.71,9 C13.18,9 13.62,8.78 13.9,8.41 C14.19,8.03 14.28,7.56 14.15,7.1 C13.98,6.481 13.86,5.5 14.33,4.4 C14.8,3.28 15.82,2.4 17,2.12 C17.33,2.04 17.67,2 18,2 C20.21,2 22,3.79 22,6 C22,6.37 21.95,6.74 21.85,7.11 C21.72,7.56 21.81,8.03 22.09,8.41 C22.38,8.78 22.81,9 23.29,9 L27.5,9 C28.88,9 30,10.12 30,11.5 L30,16.71 Z M30.78,10.3 C30.3,8.96 29.01,8 27.5,8 L23.29,8 C22.96,8 22.72,7.69 22.81,7.38 C22.93,6.94 23,6.481 23,6 C23,3.24 20.76,1 18,1 C17.6,1 17.18,1.05 16.76,1.15 C15.27,1.51 14,2.59 13.41,4.01 C12.92,5.17 12.9,6.34 13.19,7.37 C13.28,7.69 13.04,8 12.71,8 L8.5,8 C6.57,8 5,9.57 5,11.5 L5,31.5 C5,33.43 6.57,35 8.5,35 L27.5,35 C28.78,35 29.89,34.31 30.5,33.29 C30.82,32.77 31,32.15 31,31.5 L31,27.29 C31,26.82 30.78,26.38 30.41,26.1 C30.28,26 30.14,25.93 30,25.88 C29.72,25.77 29.41,25.76 29.1,25.85 C28.48,26.02 27.5,26.14 26.4,25.67 C25.28,25.2 24.4,24.18 24.12,23 C24.04,22.67 24,22.33 24,22 C24,19.79 25.79,18 28,18 C28.37,18 28.74,18.05 29.11,18.15 C29.41,18.24 29.72,18.231 30,18.13 C30.15,18.08 30.28,18.01 30.41,17.91 C30.78,17.62 31,17.19 31,16.71 L31,11.5 C31,11.08 30.93,10.68 30.78,10.3 L30.78,10.3 Z" id="platform_36" fill="#00090D"></path>
    </g>
</svg>