<?xml version="1.0" encoding="UTF-8"?>
<svg width="24px" height="24px" viewBox="0 0 24 24" version="1.1" xmlns="http://www.w3.org/2000/svg" xmlns:xlink="http://www.w3.org/1999/xlink">
    <!-- Generator: Sketch 60.1 (88133) - https://sketch.com -->
    <title>Action/play &amp; pause/play-circle_24</title>
    <desc>Created with Sketch.</desc>
    <g id="Action/play-&amp;-pause/play-circle_24" stroke="none" stroke-width="1" fill="none" fill-rule="evenodd">
        <path d="M12,0 C18.617,0 24,5.383 24,12 C24,18.617 18.617,24 12,24 C5.383,24 0,18.617 0,12 C0,5.383 5.383,0 12,0 Z M12,1 C5.935,1 1,5.935 1,12 C1,18.065 5.935,23 12,23 C18.065,23 23,18.065 23,12 C23,5.935 18.065,1 12,1 Z M8.7476,7.2207 C9.2156,6.9397 9.7816,6.9267 10.2626,7.1827 L10.2626,7.1827 L17.1736,10.6367 C17.6876,10.9097 17.9996,11.4307 17.9996,11.9997 C17.9996,12.5697 17.6876,13.0897 17.1856,13.3577 L17.1856,13.3577 L10.2506,16.8227 C10.0286,16.9417 9.7856,17.0007 9.5406,17.0007 C9.2676,17.0007 8.9936,16.9267 8.7476,16.7797 C8.2796,16.4987 7.9996,16.0057 7.9996,15.4597 L7.9996,15.4597 L7.9996,8.5397 C7.9996,7.9937 8.2796,7.5007 8.7476,7.2207 Z M9.5366,8.0007 C9.4086,8.0007 9.3096,8.0487 9.2616,8.0777 C9.1826,8.1247 8.9996,8.2647 8.9996,8.5397 L8.9996,8.5397 L8.9996,15.4597 C8.9996,15.7357 9.1826,15.8747 9.2616,15.9217 C9.3396,15.9677 9.5476,16.0657 9.7916,15.9347 L9.7916,15.9347 L16.7266,12.4687 C16.8936,12.3797 16.9996,12.2017 16.9996,11.9997 C16.9996,11.7977 16.8936,11.6197 16.7146,11.5257 L16.7146,11.5257 L9.8036,8.0717 C9.7066,8.0197 9.6156,8.0007 9.5366,8.0007 Z" id="play-circle_24" fill="#00090D"></path>
    </g>
</svg>