<?xml version="1.0" encoding="UTF-8"?>
<svg width="16px" height="16px" viewBox="0 0 16 16" version="1.1" xmlns="http://www.w3.org/2000/svg" xmlns:xlink="http://www.w3.org/1999/xlink">
    <!-- Generator: Sketch 60.1 (88133) - https://sketch.com -->
    <title>Action/play &amp; pause/play-circle_16</title>
    <desc>Created with Sketch.</desc>
    <g id="Action/play-&amp;-pause/play-circle_16" stroke="none" stroke-width="1" fill="none" fill-rule="evenodd">
        <path d="M8,0 C12.411,0 16,3.589 16,8 C16,12.411 12.411,16 8,16 C3.589,16 0,12.411 0,8 C0,3.589 3.589,0 8,0 Z M8,1 C4.14,1 1,4.14 1,8 C1,11.86 4.14,15 8,15 C11.86,15 15,11.86 15,8 C15,4.14 11.86,1 8,1 Z M5.528,5.16142047 C5.86,4.96042047 6.262,4.94642047 6.605,5.12342047 L6.605,5.12342047 L10.463,7.11842047 C10.794,7.28942047 11,7.62842047 11,8.00142047 C11,8.37442047 10.794,8.71342047 10.462,8.88442047 L10.462,8.88442047 L6.605,10.8774205 C6.445,10.9594205 6.272,11.0004205 6.1,11.0004205 C5.902,11.0004205 5.705,10.9464205 5.528,10.8394205 C5.198,10.6374205 5,10.2864205 5,9.89942047 L5,9.89942047 L5,6.10042047 C5,5.71342047 5.198,5.36242047 5.528,5.16142047 Z M6.146,6 L6,6.088 L6,9.887 L6.146,9.976 L10.003,7.984 L6.146,6 Z" id="play-circle_16" fill="#00090D"></path>
    </g>
</svg>