<?xml version="1.0" encoding="UTF-8"?>
<svg width="18px" height="18px" viewBox="0 0 18 18" version="1.1" xmlns="http://www.w3.org/2000/svg" xmlns:xlink="http://www.w3.org/1999/xlink">
    <!-- Generator: Sketch 60.1 (88133) - https://sketch.com -->
    <title>Action/play &amp; pause/play-circle_18</title>
    <desc>Created with Sketch.</desc>
    <g id="Action/play-&amp;-pause/play-circle_18" stroke="none" stroke-width="1" fill="none" fill-rule="evenodd">
        <path d="M9,18 C4.02943725,18 0,13.9705627 0,9 C0,4.02943725 4.02943725,0 9,0 C13.9705627,0 18,4.02943725 18,9 C18,13.9705627 13.9705627,18 9,18 Z M9,17 C13.418278,17 17,13.418278 17,9 C17,4.581722 13.418278,1 9,1 C4.581722,1 1,4.581722 1,9 C1,13.418278 4.581722,17 9,17 Z M6,6.9397855 C6,6.75383811 6.04321286,6.57043478 6.12622879,6.40404732 C6.42210882,5.81101986 7.14271072,5.57013427 7.73573818,5.86601429 L11.8524556,7.91997393 C12.084788,8.03589185 12.2732561,8.22403802 12.3895711,8.45617186 C12.6864646,9.04869258 12.4468114,9.76970527 11.8542907,10.0665988 L7.73757327,12.1293566 C7.57070827,12.2129674 7.38664056,12.2565029 7.2,12.2565029 C6.5372583,12.2565029 6,11.7192446 6,11.0565029 L6,6.9397855 Z M7,6.9397855 L7,11.0565029 C7,11.1669599 7.08954305,11.2565029 7.2,11.2565029 C7.23110676,11.2565029 7.26178471,11.249247 7.28959555,11.2353119 L11.406313,9.17255408 C11.5050664,9.12307182 11.5450086,9.00290304 11.4955264,8.90414959 C11.4761406,8.86546061 11.4447292,8.83410292 11.4060071,8.81478327 L7.2892897,6.76082363 C7.19045179,6.71151029 7.07035147,6.75165789 7.02103813,6.8504958 C7.00720214,6.87822705 7,6.90879427 7,6.9397855 Z" id="play-circle_18" fill="#00090D"></path>
    </g>
</svg>