<?xml version="1.0" encoding="UTF-8"?>
<svg width="24px" height="24px" viewBox="0 0 24 24" version="1.1" xmlns="http://www.w3.org/2000/svg" xmlns:xlink="http://www.w3.org/1999/xlink">
    <!-- Generator: Sketch 60.1 (88133) - https://sketch.com -->
    <title>Tools / plug-and-play / plug-and-play-filled_24</title>
    <desc>Created with Sketch.</desc>
    <g id="Tools-/-plug-and-play-/-plug-and-play-filled_24" stroke="none" stroke-width="1" fill="none" fill-rule="evenodd">
        <path d="M12.5007388,14 L12.5007388,17.5 L14.0007388,17.5 C14.3846502,17.5 14.6253338,17.9147411 14.4348604,18.2480695 L12.4348604,20.7480695 C12.2429133,21.0839768 11.7585643,21.0839768 11.5666173,20.7480695 L9.56661725,18.2480695 C9.37614389,17.9147411 9.61682749,17.5 10.0007388,17.5 L11.5007388,17.5 L11.5007388,14 L7.5,14 C5.01825,14 3,11.907 3,9.33333333 C3,7.20066667 4.432125,5.341 6.39975,4.8265 C6.627,2.1035 8.799375,0 11.4375,0 C13.594125,0 15.490875,1.421 16.197375,3.507 C18.868125,3.64816667 21,5.9465 21,8.75 C21,11.6445 18.728625,14 15.9375,14 L12.5007388,14 Z M7,21 L17,21 C17.5522847,21 18,21.4477153 18,22 L18,23 C18,23.5522847 17.5522847,24 17,24 L7,24 C6.44771525,24 6,23.5522847 6,23 L6,22 C6,21.4477153 6.44771525,21 7,21 Z" id="plug-and-play-filled_24" fill="#00090D"></path>
    </g>
</svg>