<?xml version="1.0" encoding="UTF-8"?>
<svg width="24px" height="24px" viewBox="0 0 24 24" version="1.1" xmlns="http://www.w3.org/2000/svg" xmlns:xlink="http://www.w3.org/1999/xlink">
    <!-- Generator: Sketch 60.1 (88133) - https://sketch.com -->
    <title>Networking/pnp-connect_24</title>
    <desc>Created with Sketch.</desc>
    <g id="Networking/pnp-connect_24" stroke="none" stroke-width="1" fill="none" fill-rule="evenodd">
        <path d="M4.88287001,14.1278734 C3.74350082,13.2804374 3,11.8954215 3,10.3333333 C3,8.20066667 4.432125,6.341 6.39975,5.8265 C6.627,3.1035 8.799375,1 11.4375,1 C13.594125,1 15.490875,2.421 16.197375,4.507 C18.868125,4.64816667 21,6.9465 21,9.75 C21,11.4349124 20.2303444,12.9371847 19.0365369,13.8985168 C18.9152779,13.5706513 18.7717589,13.2535789 18.6078142,12.9491339 C19.4593321,12.1706038 20,11.026762 20,9.75 C20,7.48163932 18.2871068,5.61885197 16.1445921,5.50560601 L15.4676737,5.46982643 L15.2502237,4.82778732 C14.6755221,3.13093289 13.1478849,2 11.4375,2 C9.33722083,2 7.58175826,3.68726001 7.39628566,5.90966663 L7.33742695,6.61493507 L6.6527273,6.79397222 C5.11557399,7.19591129 4,8.66579655 4,10.3333333 C4,11.4756269 4.50023734,12.4937053 5.28018825,13.1654826 C5.1264195,13.4747655 4.99337439,13.7961681 4.88287001,14.1278734 Z M12,20 C10.0670034,20 8.5,18.4329966 8.5,16.5 C8.5,14.5670034 10.0670034,13 12,13 C13.9329966,13 15.5,14.5670034 15.5,16.5 C15.5,18.4329966 13.9329966,20 12,20 Z M11.5,14.5 L11.5,15.5 C11.5,15.7761424 11.7238576,16 12,16 C12.2761424,16 12.5,15.7761424 12.5,15.5 L12.5,14.5 C12.5,14.2238576 12.2761424,14 12,14 C11.7238576,14 11.5,14.2238576 11.5,14.5 Z M11.5,17.5 L11.5,18.5 C11.5,18.7761424 11.7238576,19 12,19 C12.2761424,19 12.5,18.7761424 12.5,18.5 L12.5,17.5 C12.5,17.2238576 12.2761424,17 12,17 C11.7238576,17 11.5,17.2238576 11.5,17.5 Z M14,16 L13,16 C12.7238576,16 12.5,16.2238576 12.5,16.5 C12.5,16.7761424 12.7238576,17 13,17 L14,17 C14.2761424,17 14.5,16.7761424 14.5,16.5 C14.5,16.2238576 14.2761424,16 14,16 Z M11,16 L10,16 C9.72385763,16 9.5,16.2238576 9.5,16.5 C9.5,16.7761424 9.72385763,17 10,17 L11,17 C11.2761424,17 11.5,16.7761424 11.5,16.5 C11.5,16.2238576 11.2761424,16 11,16 Z M11.9688738,9.99999997 C13.4388585,9.99308218 14.8880952,10.4901912 16.049792,11.4298058 C16.3035993,11.6350713 16.2606681,12.0219823 15.9838729,12.1949431 C15.9626255,12.208219 15.9407053,12.2197285 15.9182802,12.2295104 C15.7302684,12.3283653 15.4991365,12.2991275 15.3298314,12.1661979 C14.2049743,11.2827766 12.7759042,10.8779565 11.3662798,11.0264338 C10.5928404,11.1173993 9.82683452,11.3766482 9.12257508,11.8167197 C7.30229988,12.9541539 6.38692792,14.9918764 6.59296801,16.9920845 L7.25638359,16.1891561 C7.43227355,15.9762775 7.7474328,15.9462922 7.96031148,16.1221821 C8.17319017,16.2980721 8.20317546,16.6132313 8.0272855,16.82611 L6.60301333,18.5498991 C6.48461722,18.6931933 6.30311838,18.7536187 6.13218771,18.7241661 C5.99999613,18.7164277 5.87111697,18.6565139 5.77903317,18.5472774 L4.16771962,16.6358202 C3.98973884,16.4246864 4.01661462,16.1092468 4.22774835,15.931266 C4.43888208,15.7532852 4.75432172,15.780161 4.9323025,15.9912948 L5.46950421,16.6285625 C5.41967734,14.4192191 6.50272477,12.2408807 8.51274889,10.9848713 C9.58923372,10.3121978 10.7869071,9.99447263 11.9688738,9.99999997 Z M8.10384707,20.7613877 C8.29185888,20.6625327 8.5229907,20.6917706 8.69229585,20.8247001 C9.81715295,21.7081214 11.2462231,22.1129415 12.6558475,21.9644643 C13.4292868,21.8734987 14.1952927,21.6142499 14.8995522,21.1741783 C16.7198274,20.0367441 17.6351993,17.9990216 17.4291592,15.9988135 L16.7657437,16.8017419 C16.5898537,17.0146206 16.2746945,17.0446059 16.0618158,16.8687159 C15.8489371,16.692826 15.8189518,16.3776667 15.9948418,16.164788 L17.4191139,14.4409989 C17.53751,14.2977048 17.7190089,14.2372793 17.8899395,14.2667319 C18.0221311,14.2744703 18.1510103,14.3343842 18.2430941,14.4436207 L19.8544076,16.3550779 C20.0323884,16.5662116 20.0055126,16.8816512 19.7943789,17.059632 C19.5832452,17.2376128 19.2678055,17.210737 19.0898248,16.9996033 L18.552623,16.3623356 C18.6024499,18.571679 17.5194025,20.7500173 15.5093784,22.0060267 C14.4328935,22.6787002 13.2352201,22.9964254 12.0532535,22.990898 C10.5832687,22.9978159 9.13403208,22.5007069 7.97233524,21.5610923 C7.71852792,21.3558267 7.76145918,20.9689158 8.03825437,20.7959549 C8.05950178,20.782679 8.08142196,20.7711695 8.10384707,20.7613877 Z" id="pnp-connect_24" fill="#00090D"></path>
    </g>
</svg>