<?xml version="1.0" encoding="UTF-8"?>
<svg width="36px" height="36px" viewBox="0 0 36 36" version="1.1" xmlns="http://www.w3.org/2000/svg" xmlns:xlink="http://www.w3.org/1999/xlink">
    <!-- Generator: Sketch 60.1 (88133) - https://sketch.com -->
    <title>Tools / policy / policy_36</title>
    <desc>Created with Sketch.</desc>
    <g id="Tools-/-policy-/-policy_36" stroke="none" stroke-width="1" fill="none" fill-rule="evenodd">
        <path d="M11,4 L25,4 C25,2.34314575 26.3431458,1 28,1 C29.6568542,1 31,2.34314575 31,4 L31,12 C31,13.6568542 29.6568542,15 28,15 C26.3431458,15 25,13.6568542 25,12 L21,12 L21,32 C21,33.6568542 19.6568542,35 18,35 C16.3431458,35 15,33.6568542 15,32 L15,12 L11,12 C11,13.6568542 9.65685425,15 8,15 C6.34314575,15 5,13.6568542 5,12 L5,4 C5,2.34314575 6.34314575,1 8,1 C9.65685425,1 11,2.34314575 11,4 Z M11,5 L11,11 L15,11 L21,11 L25,11 L25,5 L11,5 Z M10,4 C10,2.8954305 9.1045695,2 8,2 C6.8954305,2 6,2.8954305 6,4 L6,12 C6,13.1045695 6.8954305,14 8,14 C9.1045695,14 10,13.1045695 10,12 L10,4 Z M26,12 C26,13.1045695 26.8954305,14 28,14 C29.1045695,14 30,13.1045695 30,12 L30,4 C30,2.8954305 29.1045695,2 28,2 C26.8954305,2 26,2.8954305 26,4 L26,12 Z M16,12 L16,32 C16,33.1045695 16.8954305,34 18,34 C19.1045695,34 20,33.1045695 20,32 L20,12 L16,12 Z" id="policy_36" fill="#00090D"></path>
    </g>
</svg>