<?xml version="1.0" encoding="UTF-8"?>
<svg width="24px" height="24px" viewBox="0 0 24 24" version="1.1" xmlns="http://www.w3.org/2000/svg" xmlns:xlink="http://www.w3.org/1999/xlink">
    <!-- Generator: Sketch 60.1 (88133) - https://sketch.com -->
    <title>Tools / policy / policy_24</title>
    <desc>Created with Sketch.</desc>
    <g id="Tools-/-policy-/-policy_24" stroke="none" stroke-width="1" fill="none" fill-rule="evenodd">
        <path d="M17,3 L7,3 L7,7 L10,7 L14,7 L17,7 L17,3 Z M17,8 L14,8 L14,22 C14,23.1045695 13.1045695,24 12,24 C10.8954305,24 10,23.1045695 10,22 L10,8 L7,8 C7,9.1045695 6.1045695,10 5,10 C3.8954305,10 3,9.1045695 3,8 L3,2 C3,0.8954305 3.8954305,0 5,0 C6.1045695,0 7,0.8954305 7,2 L17,2 C17,0.8954305 17.8954305,0 19,0 C20.1045695,0 21,0.8954305 21,2 L21,8 C21,9.1045695 20.1045695,10 19,10 C17.8954305,10 17,9.1045695 17,8 Z M18,8 C18,8.55228475 18.4477153,9 19,9 C19.5522847,9 20,8.55228475 20,8 L20,2 C20,1.44771525 19.5522847,1 19,1 C18.4477153,1 18,1.44771525 18,2 L18,8 Z M6,8 L6,2 C6,1.44771525 5.55228475,1 5,1 C4.44771525,1 4,1.44771525 4,2 L4,8 C4,8.55228475 4.44771525,9 5,9 C5.55228475,9 6,8.55228475 6,8 Z M11,8 L11,22 C11,22.5522847 11.4477153,23 12,23 C12.5522847,23 13,22.5522847 13,22 L13,8 L11,8 Z" id="policy_24" fill="#00090D"></path>
    </g>
</svg>