<?xml version="1.0" encoding="UTF-8"?>
<svg width="16px" height="16px" viewBox="0 0 16 16" version="1.1" xmlns="http://www.w3.org/2000/svg" xmlns:xlink="http://www.w3.org/1999/xlink">
    <!-- Generator: Sketch 60.1 (88133) - https://sketch.com -->
    <title>Tools / policy / policy_16</title>
    <desc>Created with Sketch.</desc>
    <g id="Tools-/-policy-/-policy_16" stroke="none" stroke-width="1" fill="none" fill-rule="evenodd">
        <path d="M10,6 L10,14 C10,15.1045695 9.1045695,16 8,16 C6.8954305,16 6,15.1045695 6,14 L6,6 L4,6 C4,6.55228475 3.55228475,7 3,7 L2,7 C1.44771525,7 1,6.55228475 1,6 L1,1 C1,0.44771525 1.44771525,0 2,0 L3,0 C3.55228475,0 4,0.44771525 4,1 L12,1 C12,0.44771525 12.4477153,0 13,0 L14,0 C14.5522847,0 15,0.44771525 15,1 L15,6 C15,6.55228475 14.5522847,7 14,7 L13,7 C12.4477153,7 12,6.55228475 12,6 L10,6 Z M9,6 L7,6 L7,14 C7,14.5522847 7.44771525,15 8,15 C8.55228475,15 9,14.5522847 9,14 L9,6 Z M10,5 L12,5 L12,2 L4,2 L4,5 L6,5 L10,5 Z M3,1 L2,1 L2,6 L3,6 L3,1 Z M13,1 L13,6 L14,6 L14,1 L13,1 Z" id="policy_16" fill="#00090D"></path>
    </g>
</svg>