<?xml version="1.0" encoding="UTF-8"?>
<svg width="16px" height="16px" viewBox="0 0 16 16" version="1.1" xmlns="http://www.w3.org/2000/svg" xmlns:xlink="http://www.w3.org/1999/xlink">
    <title>Navigation / view-port-list / port-list-view_16</title>
    <g id="Navigation-/-view-port-list-/-port-list-view_16" stroke="none" stroke-width="1" fill="none" fill-rule="evenodd">
        <path d="M11,1 C11.5128358,1 11.9355072,1.38604019 11.9932723,1.88337887 L12,2 L12,3 L14,3 C14.5522847,3 15,3.44771525 15,4 L15,6.5 C15,6.77614237 14.7761424,7 14.5,7 C14.2238576,7 14,6.77614237 14,6.5 L14,4 L11,4 L11.0016599,2.05759303 L10.999,2 L5.05759303,1.99834014 L5,2 L5,4 L2,4 L2,14 L5.5,14 C5.77614237,14 6,14.2238576 6,14.5 C6,14.7761424 5.77614237,15 5.5,15 L2,15 C1.44771525,15 1,14.5522847 1,14 L1,4 C1,3.44771525 1.44771525,3 2,3 L4,3 L4,2 C4,1.48716416 4.38604019,1.06449284 4.88337887,1.00672773 L5,1 L11,1 Z M9,12 C9.55228475,12 10,12.4477153 10,13 L10,14 C10,14.5522847 9.55228475,15 9,15 L8,15 C7.44771525,15 7,14.5522847 7,14 L7,13 C7,12.4477153 7.44771525,12 8,12 L9,12 Z M9,13 L8,13 L8,14 L9,14 L9,13 Z M14.5,13 C14.7761424,13 15,13.2238576 15,13.5 C15,13.7454599 14.8231248,13.9496084 14.5898756,13.9919443 L14.5,14 L11.5,14 C11.2238576,14 11,13.7761424 11,13.5 C11,13.2545401 11.1768752,13.0503916 11.4101244,13.0080557 L11.5,13 L14.5,13 Z M9,7 C9.55228475,7 10,7.44771525 10,8 L10,9 C10,9.55228475 9.55228475,10 9,10 L8,10 C7.44771525,10 7,9.55228475 7,9 L7,8 C7,7.44771525 7.44771525,7 8,7 L9,7 Z M9,8 L8,8 L8,9 L9,9 L9,8 Z M14.5,8 C14.7761424,8 15,8.22385763 15,8.5 C15,8.74545989 14.8231248,8.94960837 14.5898756,8.99194433 L14.5,9 L11.5,9 C11.2238576,9 11,8.77614237 11,8.5 C11,8.25454011 11.1768752,8.05039163 11.4101244,8.00805567 L11.5,8 L14.5,8 Z" id="port-list-view_16" fill="#545454"></path>
    </g>
</svg>