<?xml version="1.0" encoding="UTF-8"?>
<svg width="24px" height="24px" viewBox="0 0 24 24" version="1.1" xmlns="http://www.w3.org/2000/svg" xmlns:xlink="http://www.w3.org/1999/xlink">
    <!-- Generator: Sketch 60.1 (88133) - https://sketch.com -->
    <title>Navigation / view-port / port-view_24</title>
    <desc>Created with Sketch.</desc>
    <g id="Navigation-/-view-port-/-port-view_24" stroke="none" stroke-width="1" fill="none" fill-rule="evenodd">
        <path d="M17,2 C17.5128358,2 17.9355072,2.38604019 17.9932723,2.88337887 L18,3 L18,5 L21,5 C21.5522847,5 22,5.44771525 22,6 L22,21 C22,21.5522847 21.5522847,22 21,22 L3,22 C2.44771525,22 2,21.5522847 2,21 L2,6 C2,5.44771525 2.44771525,5 3,5 L6,5 L6,3 C6,2.48716416 6.38604019,2.06449284 6.88337887,2.00672773 L7,2 L17,2 Z M16.999,3 L7.05759303,2.99834014 L7,3 L7,6 L3,6 L3,21 L21,21 L21,6 L17,6 L17.0016599,3.05759303 L16.999,3 Z" id="port-view_24" fill="#00090D"></path>
    </g>
</svg>