<?xml version="1.0" encoding="UTF-8"?>
<svg width="16px" height="16px" viewBox="0 0 16 16" version="1.1" xmlns="http://www.w3.org/2000/svg" xmlns:xlink="http://www.w3.org/1999/xlink">
    <!-- Generator: Sketch 60.1 (88133) - https://sketch.com -->
    <title>Navigation / view-port / port-view_16</title>
    <desc>Created with Sketch.</desc>
    <g id="Navigation-/-view-port-/-port-view_16" stroke="none" stroke-width="1" fill="none" fill-rule="evenodd">
        <path d="M11,1 C11.5128358,1 11.9355072,1.38604019 11.9932723,1.88337887 L12,2 L12,3 L14,3 C14.5522847,3 15,3.44771525 15,4 L15,14 C15,14.5522847 14.5522847,15 14,15 L2,15 C1.44771525,15 1,14.5522847 1,14 L1,4 C1,3.44771525 1.44771525,3 2,3 L4,3 L4,2 C4,1.48716416 4.38604019,1.06449284 4.88337887,1.00672773 L5,1 L11,1 Z M10.999,2 L5.05759303,1.99834014 L5,2 L5,4 L2,4 L2,14 L14,14 L14,4 L11,4 L11.0016599,2.05759303 L10.999,2 Z" id="port-view_16" fill="#00090D"></path>
    </g>
</svg>