<?xml version="1.0" encoding="UTF-8"?>
<svg width="24px" height="24px" viewBox="0 0 24 24" version="1.1" xmlns="http://www.w3.org/2000/svg" xmlns:xlink="http://www.w3.org/1999/xlink">
    <title>Action/power-settings/power-settings_24</title>
    <g id="Action/power-settings/power-settings_24" stroke="none" stroke-width="1" fill="none" fill-rule="evenodd">
        <path d="M17.9797075,1.59670333 C18.7019583,2.01260081 19.3791802,2.50284208 20.0001575,3.05861307 C22.5276306,5.32076974 24,8.54369849 24,12.00289 C24,18.6303324 18.6274424,24.00289 12,24.00289 C5.37257747,24.00289 0,18.6303222 0,12.00289 C0,8.54371222 1.47238738,5.3207805 3.99987622,3.05860977 C4.62092698,2.50276364 5.2980957,2.01253999 6.02029329,1.59669711 C6.25959987,1.45890389 6.56529966,1.54119672 6.70309289,1.78050329 C6.84088611,2.01980987 6.75859328,2.32550966 6.51928671,2.46330289 C5.85722213,2.84452105 5.23631142,3.29401776 4.66678746,3.80374693 C2.34908151,5.87815632 1,8.8311819 1,12.00289 C1,18.0780371 5.92486181,23.00289 12,23.00289 C18.0751576,23.00289 23,18.0780476 23,12.00289 C23,8.83116656 21.6509354,5.87814457 19.3332493,3.80375302 C18.7638012,3.29410026 18.1428291,2.84457829 17.4806925,2.46329667 C17.2413894,2.32549749 17.1591041,2.01979565 17.2969033,1.7804925 C17.4347025,1.54118935 17.7404044,1.45890414 17.9797075,1.59670333 Z M12,0 C12.2454599,0 12.4496084,0.176875161 12.4919443,0.410124368 L12.5,0.5 L12.5,12.5 C12.5,12.7761424 12.2761424,13 12,13 C11.7545401,13 11.5503916,12.8231248 11.5080557,12.5898756 L11.5,12.5 L11.5,0.5 C11.5,0.223857625 11.7238576,0 12,0 Z" id="power-settings_24" fill="#545454"></path>
    </g>
</svg>