<?xml version="1.0" encoding="UTF-8"?>
<svg width="18px" height="18px" viewBox="0 0 18 18" version="1.1" xmlns="http://www.w3.org/2000/svg" xmlns:xlink="http://www.w3.org/1999/xlink">
    <title>Action/power-settings/power-settings_18</title>
    <g id="Action/power-settings/power-settings_18" stroke="none" stroke-width="1" fill="none" fill-rule="evenodd">
        <path d="M13.4848909,1.19560375 C14.0265756,1.50749722 14.5344363,1.87514869 15.0001631,2.29199813 C16.8956353,3.98854876 18,6.40592282 18,9.0002 C18,13.9707424 13.9705424,18.0002 9,18.0002 C4.02944435,18.0002 0,13.9707491 0,9.0002 C0,6.40589655 1.10436608,3.98852557 2.99987595,2.29199001 C3.46561778,1.87514619 3.97347295,1.5074987 4.51513183,1.19560795 C4.75443794,1.05781392 5.06013801,1.14010572 5.19793205,1.37941183 C5.33572608,1.61871794 5.25343428,1.92441801 5.01412817,2.06221205 C4.53259902,2.3394797 4.08100142,2.6664011 3.6667878,3.03712663 C1.98106064,4.54590067 1,6.69336568 1,9.0002 C1,13.4184647 4.58172946,17.0002 9,17.0002 C13.4182576,17.0002 17,13.4184576 17,9.0002 C17,6.69338929 16.0189381,4.54591609 14.3332375,3.03712243 C13.9190452,2.66639911 13.4674529,2.33948154 12.9859091,2.06221625 C12.7466007,1.92442625 12.6643037,1.61872757 12.8020937,1.37941913 C12.9398838,1.1401107 13.2455824,1.05781375 13.4848909,1.19560375 Z M9,0 C9.24545989,0 9.44960837,0.176875161 9.49194433,0.410124368 L9.5,0.5 L9.5,9.5 C9.5,9.77614237 9.27614237,10 9,10 C8.75454011,10 8.55039163,9.82312484 8.50805567,9.58987563 L8.5,9.5 L8.5,0.5 C8.5,0.223857625 8.72385763,0 9,0 Z" id="power-settings_18" fill="#545454"></path>
    </g>
</svg>