<?xml version="1.0" encoding="UTF-8"?>
<svg width="16px" height="16px" viewBox="0 0 16 16" version="1.1" xmlns="http://www.w3.org/2000/svg" xmlns:xlink="http://www.w3.org/1999/xlink">
    <!-- Generator: Sketch 60.1 (88133) - https://sketch.com -->
    <title>Networking/Endpoints/printer/printer_16</title>
    <desc>Created with Sketch.</desc>
    <g id="Networking/Endpoints/printer/printer_16" stroke="none" stroke-width="1" fill="none" fill-rule="evenodd">
        <path d="M4,5 L4,3.66666667 C4,3.29847683 4.29847683,3 4.66666667,3 L11.3333333,3 C11.7015232,3 12,3.29847683 12,3.66666667 L12,5 L14,5 C15.1045695,5 16,5.8954305 16,7 L16,12.6666667 C16,12.8507616 15.8507616,13 15.6666667,13 L12.4852217,13 L14.2302418,14.487868 C14.4518948,14.6768574 14.2949111,15 13.9814464,15 L2.01855358,15 C1.70508889,15 1.5481052,14.6768574 1.76975821,14.487868 L3.51477831,13 L0.333333333,13 C0.149238417,13 0,12.8507616 0,12.6666667 L0,7 C0,5.8954305 0.8954305,5 2,5 L4,5 Z M5,5 L11,5 L11,4.33333333 C11,4.14923842 10.8507616,4 10.6666667,4 L5.33333333,4 C5.14923842,4 5,4.14923842 5,4.33333333 L5,5 Z M4.56420801,13 L3.43370983,14 L12.6099686,14 L11.4434757,13 L4.56420801,13 Z M11.1666481,12 L14.6666667,12 C14.8507616,12 15,11.8507616 15,11.6666667 L15,7.33339882 C15,6.59701915 14.4030463,6.00006548 13.6666667,6.00006548 L2.33333333,6.00006548 C1.59695367,6.00006548 1,6.59701915 1,7.33339882 L1,11.6666667 C1,11.8507616 1.14923842,12 1.33333333,12 L4.83335189,12 L11.1666481,12 Z M10.2769827,12 L5.69470618,12 L10.2769827,12 Z M2,8.5 C2,8.22385763 2.22385763,8 2.5,8 C2.77614237,8 3,8.22385763 3,8.5 L3,9.5 C3,9.77614237 2.77614237,10 2.5,10 C2.22385763,10 2,9.77614237 2,9.5 L2,8.5 Z M4,8.5 C4,8.22385763 4.22385763,8 4.5,8 C4.77614237,8 5,8.22385763 5,8.5 L5,9.5 C5,9.77614237 4.77614237,10 4.5,10 C4.22385763,10 4,9.77614237 4,9.5 L4,8.5 Z" id="printer_16" fill="#00090D"></path>
    </g>
</svg>