<?xml version="1.0" encoding="UTF-8"?>
<svg width="16px" height="16px" viewBox="0 0 16 16" version="1.1" xmlns="http://www.w3.org/2000/svg" xmlns:xlink="http://www.w3.org/1999/xlink">
    <!-- Generator: Sketch 60.1 (88133) - https://sketch.com -->
    <title>Networking/Endpoints/printer/printer-filled_16</title>
    <desc>Created with Sketch.</desc>
    <g id="Networking/Endpoints/printer/printer-filled_16" stroke="none" stroke-width="1" fill="none" fill-rule="evenodd">
        <path d="M11.3333333,2 C11.7015232,2 12,2.29847683 12,2.66666667 L12,4 L14,4 C15.1045695,4 16,4.8954305 16,6 L16,11.6666667 C16,11.8507616 15.8507616,12 15.6666667,12 L12.4852217,12 L14.2302418,13.487868 C14.4518948,13.6768574 14.2949111,14 13.9814464,14 L2.01855358,14 C1.70508889,14 1.5481052,13.6768574 1.76975821,13.487868 L3.51477831,12 L0.333333333,12 C0.149238417,12 0,11.8507616 0,11.6666667 L0,6 C0,4.8954305 0.8954305,4 2,4 L4,4 L4,2.66666667 C4,2.29847683 4.29847683,2 4.66666667,2 L11.3333333,2 Z M2.5,7 C2.22385763,7 2,7.22385763 2,7.5 L2,7.5 L2,8.5 C2,8.77614237 2.22385763,9 2.5,9 C2.77614237,9 3,8.77614237 3,8.5 L3,8.5 L3,7.5 C3,7.22385763 2.77614237,7 2.5,7 Z M4.5,7 C4.22385763,7 4,7.22385763 4,7.5 L4,7.5 L4,8.5 C4,8.77614237 4.22385763,9 4.5,9 C4.77614237,9 5,8.77614237 5,8.5 L5,8.5 L5,7.5 C5,7.22385763 4.77614237,7 4.5,7 Z M5,4 L11,4 L11,3.33333333 C11,3.14923842 10.8507616,3 10.6666667,3 L5.33333333,3 C5.14923842,3 5,3.14923842 5,3.33333333 L5,4 Z M4.56420801,12 L3.43370983,13 L12.6099686,13 L11.4434757,12 L4.56420801,12 Z M10.2769827,11 L5.69470618,11 L10.2769827,11 Z" id="printer-filled_16" fill="#00090D"></path>
    </g>
</svg>