<?xml version="1.0" encoding="UTF-8"?>
<svg width="24px" height="24px" viewBox="0 0 24 24" version="1.1" xmlns="http://www.w3.org/2000/svg" xmlns:xlink="http://www.w3.org/1999/xlink">
    <!-- Generator: Sketch 60.1 (88133) - https://sketch.com -->
    <title>Networking/Endpoints/printer/printer-filled_24</title>
    <desc>Created with Sketch.</desc>
    <g id="Networking/Endpoints/printer/printer-filled_24" stroke="none" stroke-width="1" fill="none" fill-rule="evenodd">
        <path d="M17,3 C17.5522847,3 18,3.44771525 18,4 L18,7 L22,7 C23.1045695,7 24,7.8954305 24,9 L24,16.5 C24,16.7761424 23.7761424,17 23.5,17 L18.3395212,17 L21.8351837,20.1464466 C22.1851252,20.461429 21.9372823,21 21.4423903,21 L2.55560494,21 C2.06071292,21 1.81287008,20.461429 2.16281159,20.1464466 L5.65847404,17 L0.5,17 C0.223857625,17 0,16.7761424 0,16.5 L0,9 C0,7.8954305 0.8954305,7 2,7 L6,7 L6,4 C6,3.44771525 6.44771525,3 7,3 L17,3 Z M3.5,11 C3.22385763,11 3,11.2238576 3,11.5 L3,11.5 L3,12.5 C3,12.7761424 3.22385763,13 3.5,13 C3.77614237,13 4,12.7761424 4,12.5 L4,12.5 L4,11.5 C4,11.2238576 3.77614237,11 3.5,11 Z M5.5,11 C5.22385763,11 5,11.2238576 5,11.5 L5,11.5 L5,12.5 C5,12.7761424 5.22385763,13 5.5,13 C5.77614237,13 6,12.7761424 6,12.5 L6,12.5 L6,11.5 C6,11.2238576 5.77614237,11 5.5,11 Z M19.8019912,20 L16.5111162,17 L7.09286617,17 L3.80199117,20 L19.8019912,20 Z M17,7 L17,4.5 C17,4.22385763 16.7761424,4 16.5,4 L7.5,4 C7.22385763,4 7,4.22385763 7,4.5 L7,7 L17,7 Z" id="printer-filled_24" fill="#00090D"></path>
    </g>
</svg>