<?xml version="1.0" encoding="UTF-8"?>
<svg width="36px" height="36px" viewBox="0 0 36 36" version="1.1" xmlns="http://www.w3.org/2000/svg" xmlns:xlink="http://www.w3.org/1999/xlink">
    <!-- Generator: Sketch 60.1 (88133) - https://sketch.com -->
    <title>Tools / provision / provision_36</title>
    <desc>Created with Sketch.</desc>
    <g id="Tools-/-provision-/-provision_36" stroke="none" stroke-width="1" fill="none" fill-rule="evenodd">
        <path d="M17.5,19 L17.5,14 L11.5,14 C9.56700338,14 8,12.4329966 8,10.5 L8,4.5 C8,2.56700338 9.56700338,1 11.5,1 L24.5,1 C26.4329966,1 28,2.56700338 28,4.5 L28,10.5 C28,12.4329966 26.4329966,14 24.5,14 L18.5,14 L18.5,19 L24.5,19 C26.4329966,19 28,20.5670034 28,22.5 L28,26 L31.5,26 C33.4329966,26 35,27.5670034 35,29.5 L35,31.5 C35,33.4329966 33.4329966,35 31.5,35 L23.5,35 C21.5670034,35 20,33.4329966 20,31.5 L20,29.5 C20,27.5670034 21.5670034,26 23.5,26 L27,26 L27,22.5 C27,21.1192881 25.8807119,20 24.5,20 L11.5,20 C10.1192881,20 9,21.1192881 9,22.5 L9,26 L12.5,26 C14.4329966,26 16,27.5670034 16,29.5 L16,31.5 C16,33.4329966 14.4329966,35 12.5,35 L4.5,35 C2.56700338,35 1,33.4329966 1,31.5 L1,29.5 C1,27.5670034 2.56700338,26 4.5,26 L8,26 L8,22.5 C8,20.5670034 9.56700338,19 11.5,19 L17.5,19 Z M11.5,2 C10.1192881,2 9,3.11928813 9,4.5 L9,10.5 C9,11.8807119 10.1192881,13 11.5,13 L24.5,13 C25.8807119,13 27,11.8807119 27,10.5 L27,4.5 C27,3.11928813 25.8807119,2 24.5,2 L11.5,2 Z M4.5,27 C3.11928813,27 2,28.1192881 2,29.5 L2,31.5 C2,32.8807119 3.11928813,34 4.5,34 L12.5,34 C13.8807119,34 15,32.8807119 15,31.5 L15,29.5 C15,28.1192881 13.8807119,27 12.5,27 L4.5,27 Z M23.5,27 C22.1192881,27 21,28.1192881 21,29.5 L21,31.5 C21,32.8807119 22.1192881,34 23.5,34 L31.5,34 C32.8807119,34 34,32.8807119 34,31.5 L34,29.5 C34,28.1192881 32.8807119,27 31.5,27 L23.5,27 Z" id="provision_36" fill="#00090D"></path>
    </g>
</svg>