<?xml version="1.0" encoding="UTF-8"?>
<svg width="16px" height="16px" viewBox="0 0 16 16" version="1.1" xmlns="http://www.w3.org/2000/svg" xmlns:xlink="http://www.w3.org/1999/xlink">
    <!-- Generator: Sketch 60.1 (88133) - https://sketch.com -->
    <title>Tools / provision / provision_16</title>
    <desc>Created with Sketch.</desc>
    <g id="Tools-/-provision-/-provision_16" stroke="none" stroke-width="1" fill="none" fill-rule="evenodd">
        <path d="M7.5,9 L7.5,7 L5,7 C3.8954305,7 3,6.1045695 3,5 L3,2 C3,0.8954305 3.8954305,0 5,0 L11,0 C12.1045695,0 13,0.8954305 13,2 L13,5 C13,6.1045695 12.1045695,7 11,7 L8.5,7 L8.5,9 L10.5,9 C11.709479,9 12.7183558,9.85887984 12.9499909,11 L14,11 C15.1045695,11 16,11.8954305 16,13 L16,14 C16,15.1045695 15.1045695,16 14,16 L11,16 C9.8954305,16 9,15.1045695 9,14 L9,13 C9,11.8954305 9.8954305,11 11,11 L11.9146471,11 C11.7087289,10.4174038 11.1531094,10 10.5,10 L5.5,10 C4.84689059,10 4.29127106,10.4174038 4.08535285,11 L5,11 C6.1045695,11 7,11.8954305 7,13 L7,14 C7,15.1045695 6.1045695,16 5,16 L2,16 C0.8954305,16 0,15.1045695 0,14 L0,13 C0,11.8954305 0.8954305,11 2,11 L3.05000906,11 C3.28164422,9.85887984 4.29052104,9 5.5,9 L7.5,9 Z M2,12 C1.44771525,12 1,12.4477153 1,13 L1,14 C1,14.5522847 1.44771525,15 2,15 L5,15 C5.55228475,15 6,14.5522847 6,14 L6,13 C6,12.4477153 5.55228475,12 5,12 L2,12 Z M11,12 C10.4477153,12 10,12.4477153 10,13 L10,14 C10,14.5522847 10.4477153,15 11,15 L14,15 C14.5522847,15 15,14.5522847 15,14 L15,13 C15,12.4477153 14.5522847,12 14,12 L11,12 Z M5,1 C4.44771525,1 4,1.44771525 4,2 L4,5 C4,5.55228475 4.44771525,6 5,6 L11,6 C11.5522847,6 12,5.55228475 12,5 L12,2 C12,1.44771525 11.5522847,1 11,1 L5,1 Z" id="provision_16" fill="#00090D"></path>
    </g>
</svg>