<?xml version="1.0" encoding="UTF-8"?>
<svg width="24px" height="24px" viewBox="0 0 24 24" version="1.1" xmlns="http://www.w3.org/2000/svg" xmlns:xlink="http://www.w3.org/1999/xlink">
    <!-- Generator: Sketch 60.1 (88133) - https://sketch.com -->
    <title>Tools / provision / provision_24</title>
    <desc>Created with Sketch.</desc>
    <g id="Tools-/-provision-/-provision_24" stroke="none" stroke-width="1" fill="none" fill-rule="evenodd">
        <path d="M19,17 L20.5,17 C21.8807119,17 23,18.1192881 23,19.5 L23,20.5 C23,21.8807119 21.8807119,23 20.5,23 L16.5,23 C15.1192881,23 14,21.8807119 14,20.5 L14,19.5 C14,18.1192881 15.1192881,17 16.5,17 L18,17 L18,15.5 C18,14.6715729 17.3284271,14 16.5,14 L7.5,14 C6.67157288,14 6,14.6715729 6,15.5 L6,17 L7.5,17 C8.88071187,17 10,18.1192881 10,19.5 L10,20.5 C10,21.8807119 8.88071187,23 7.5,23 L3.5,23 C2.11928813,23 1,21.8807119 1,20.5 L1,19.5 C1,18.1192881 2.11928813,17 3.5,17 L5,17 L5,15.5 C5,14.1192881 6.11928813,13 7.5,13 L11.5,13 L11.5,10 L7.5,10 C6.11928813,10 5,8.88071187 5,7.5 L5,3.5 C5,2.11928813 6.11928813,1 7.5,1 L16.5,1 C17.8807119,1 19,2.11928813 19,3.5 L19,7.5 C19,8.88071187 17.8807119,10 16.5,10 L12.5,10 L12.5,13 L16.5,13 C17.8807119,13 19,14.1192881 19,15.5 L19,17 Z M11.5,9 L12.5,9 L16.5,9 C17.3284271,9 18,8.32842712 18,7.5 L18,3.5 C18,2.67157288 17.3284271,2 16.5,2 L7.5,2 C6.67157288,2 6,2.67157288 6,3.5 L6,7.5 C6,8.32842712 6.67157288,9 7.5,9 L11.5,9 Z M3.5,18 C2.67157288,18 2,18.6715729 2,19.5 L2,20.5 C2,21.3284271 2.67157288,22 3.5,22 L7.5,22 C8.32842712,22 9,21.3284271 9,20.5 L9,19.5 C9,18.6715729 8.32842712,18 7.5,18 L3.5,18 Z M16.5,18 C15.6715729,18 15,18.6715729 15,19.5 L15,20.5 C15,21.3284271 15.6715729,22 16.5,22 L20.5,22 C21.3284271,22 22,21.3284271 22,20.5 L22,19.5 C22,18.6715729 21.3284271,18 20.5,18 L16.5,18 Z" id="provision_24" fill="#00090D"></path>
    </g>
</svg>