<?xml version="1.0" encoding="UTF-8"?>
<svg width="24px" height="24px" viewBox="0 0 24 24" version="1.1" xmlns="http://www.w3.org/2000/svg" xmlns:xlink="http://www.w3.org/1999/xlink">
    <!-- Generator: Sketch 60.1 (88133) - https://sketch.com -->
    <title>Networking / radio / radio_24</title>
    <desc>Created with Sketch.</desc>
    <g id="Networking-/-radio-/-radio_24" stroke="none" stroke-width="1" fill="none" fill-rule="evenodd">
        <path d="M1.03136,8.99975 C0.700549,8.99975 0.458493,8.68723 0.558396,8.37186 C1.73353,4.66228 4.66277,1.73304 8.37235,0.557908 C8.68772,0.458004 9.00024,0.70006 9.00024,1.03087 C9.00024,1.25741 8.84929,1.45523 8.6336,1.52449 C5.26629,2.60585 2.60634,5.2658 1.52498,8.63311 C1.45572,8.8488 1.2579,8.99975 1.03136,8.99975 Z M1.52498,15.3664 C2.60634,18.7337 5.26629,21.3936 8.6336,22.475 C8.84929,22.5443 9.00024,22.7421 9.00024,22.9686 C9.00024,23.2994 8.68772,23.5415 8.37235,23.4416 C4.66277,22.2665 1.73352,19.3372 0.558396,15.6276 C0.458492,15.3123 0.700548,14.9997 1.03136,14.9997 C1.2579,14.9997 1.45572,15.1507 1.52498,15.3664 Z M22.4755,15.3664 C22.5448,15.1507 22.7426,14.9997 22.9691,14.9997 C23.2999,14.9997 23.542,15.3123 23.4421,15.6276 C22.2669,19.3372 19.3377,22.2665 15.6281,23.4416 C15.3128,23.5415 15.0002,23.2994 15.0002,22.9686 C15.0002,22.7421 15.1512,22.5443 15.3669,22.475 C18.7342,21.3936 21.3941,18.7337 22.4755,15.3664 Z M22.9691,8.99975 C22.7426,8.99975 22.5448,8.8488 22.4755,8.63311 C21.3941,5.26581 18.7342,2.60585 15.3669,1.52449 C15.1512,1.45523 15.0002,1.25741 15.0002,1.03087 C15.0002,0.70006 15.3128,0.458004 15.6281,0.557908 C19.3377,1.73304 22.2669,4.66228 23.4421,8.37186 C23.542,8.68723 23.2999,8.99975 22.9691,8.99975 Z M10.0001,5.97743 C10.0001,6.19502 9.86197,6.38699 9.66161,6.47186 C8.22833,7.079 7.07998,8.22736 6.47284,9.66063 C6.38796,9.86099 6.196,9.99909 5.9784,9.99909 C5.63496,9.99909 5.38865,9.66784 5.5187,9.34998 C6.22876,7.61456 7.61554,6.22778 9.35095,5.51773 C9.66882,5.38767 10.0001,5.63398 10.0001,5.97743 Z M10.0001,18.0207 C10.0001,18.3642 9.66882,18.6105 9.35095,18.4804 C7.61554,17.7704 6.22875,16.3836 5.5187,14.6482 C5.38865,14.3303 5.63496,13.9991 5.9784,13.9991 C6.196,13.9991 6.38796,14.1372 6.47284,14.3375 C7.07998,15.7708 8.22833,16.9192 9.66161,17.5263 C9.86197,17.6112 10.0001,17.8032 10.0001,18.0207 Z M14.6492,18.4804 C14.3313,18.6105 14.0001,18.3642 14.0001,18.0207 C14.0001,17.8032 14.1382,17.6112 14.3385,17.5263 C15.7718,16.9192 16.9201,15.7708 17.5273,14.3375 C17.6122,14.1372 17.8041,13.9991 18.0217,13.9991 C18.3652,13.9991 18.6115,14.3303 18.4814,14.6482 C17.7714,16.3836 16.3846,17.7704 14.6492,18.4804 Z M14.3385,6.47186 C14.1382,6.38699 14.0001,6.19502 14.0001,5.97743 C14.0001,5.63398 14.3313,5.38767 14.6492,5.51773 C16.3846,6.22778 17.7714,7.61456 18.4814,9.34997 C18.6115,9.66784 18.3652,9.99909 18.0217,9.99909 C17.8041,9.99909 17.6122,9.86099 17.5273,9.66063 C16.9201,8.22736 15.7718,7.079 14.3385,6.47186 Z M12.7071068,9.17194678 L14.8284271,11.2932671 C15.2189514,11.6837914 15.2189514,12.3169564 14.8284271,12.7074807 L12.7071068,14.828801 C12.3165825,15.2193253 11.6834175,15.2193253 11.2928932,14.828801 L9.17157288,12.7074807 C8.78104858,12.3169564 8.78104858,11.6837914 9.17157288,11.2932671 L11.2928932,9.17194678 C11.6834175,8.78142249 12.3165825,8.78142249 12.7071068,9.17194678 Z" id="radio_24" fill="#00090D"></path>
    </g>
</svg>