<?xml version="1.0" encoding="UTF-8"?>
<svg width="16px" height="16px" viewBox="0 0 16 16" version="1.1" xmlns="http://www.w3.org/2000/svg" xmlns:xlink="http://www.w3.org/1999/xlink">
    <!-- Generator: Sketch 60.1 (88133) - https://sketch.com -->
    <title>Networking / radio / radio_16</title>
    <desc>Created with Sketch.</desc>
    <g id="Networking-/-radio-/-radio_16" stroke="none" stroke-width="1" fill="none" fill-rule="evenodd">
        <path d="M0.909541,6.00034 C0.576406,6.00034 0.332584,5.68546 0.442041,5.37082 C1.24321,3.06781 3.06732,1.2437 5.37033,0.442529 C5.68497,0.333072 5.99985,0.576894 5.99985,0.910028 C5.99985,1.13558 5.85086,1.33254 5.63853,1.40861 C3.67209,2.11312 2.11264,3.67258 1.40813,5.63901 C1.33205,5.85135 1.13509,6.00034 0.909541,6.00034 Z M1.40813,10.3617 C2.11264,12.3281 3.67209,13.8876 5.63853,14.5921 C5.85086,14.6681 5.99985,14.8651 5.99985,15.0907 C5.99985,15.4238 5.68497,15.6676 5.37033,15.5581 C3.06732,14.757 1.24321,12.9329 0.44204,10.6299 C0.332583,10.3152 0.576406,10.0003 0.90954,10.0003 C1.13509,10.0003 1.33205,10.1493 1.40813,10.3617 Z M14.5916,10.3617 C14.6677,10.1493 14.8646,10.0003 15.0902,10.0003 C15.4233,10.0003 15.6671,10.3152 15.5577,10.6299 C14.7565,12.9329 12.9324,14.757 10.6294,15.5581 C10.3147,15.6676 9.99985,15.4238 9.99985,15.0907 C9.99985,14.8651 10.1488,14.6681 10.3612,14.5921 C12.3276,13.8876 13.8871,12.3281 14.5916,10.3617 Z M15.0902,6.00034 C14.8646,6.00034 14.6677,5.85135 14.5916,5.63901 C13.8871,3.67258 12.3276,2.11312 10.3612,1.40861 C10.1488,1.33254 9.99985,1.13558 9.99985,0.910028 C9.99985,0.576894 10.3147,0.333072 10.6294,0.442529 C12.9324,1.2437 14.7565,3.06781 15.5577,5.37082 C15.6671,5.68546 15.4233,6.00034 15.0902,6.00034 Z M6.99985,3.72719 C6.99985,3.96143 6.8399,4.1627 6.62004,4.2435 C5.52064,4.64755 4.6478,5.52057 4.24397,6.62007 C4.1632,6.83998 3.96192,6.99999 3.72764,6.99999 C3.40313,6.99999 3.15898,6.70137 3.2631,6.39402 C3.76103,4.92408 4.92398,3.76091 6.39378,3.26267 C6.70115,3.15847 6.99985,3.40263 6.99985,3.72719 Z M6.99985,12.2711 C6.99985,12.5956 6.70115,12.8398 6.39378,12.7356 C4.92463,12.2376 3.76205,11.0752 3.26375,9.60616 C3.15948,9.29876 3.40365,8.99999 3.72826,8.99999 C3.96246,8.99999 4.1637,9.1599 4.24454,9.37971 C4.64861,10.4785 5.52116,11.3509 6.62004,11.7547 C6.8399,11.8355 6.99985,12.0368 6.99985,12.2711 Z M9.60591,12.7356 C9.29854,12.8398 8.99985,12.5956 8.99985,12.2711 C8.99985,12.0368 9.15981,11.8356 9.37967,11.7548 C10.4786,11.3509 11.3512,10.4785 11.7552,9.37971 C11.8361,9.1599 12.0373,8.99999 12.2715,8.99999 C12.5961,8.99999 12.8403,9.29876 12.736,9.60616 C12.2377,11.0752 11.0751,12.2376 9.60591,12.7356 Z M9.37967,4.24347 C9.15981,4.16267 8.99985,3.9614 8.99985,3.72716 C8.99985,3.40261 9.29854,3.15845 9.60591,3.26264 C11.0758,3.76086 12.2387,4.92405 12.7367,6.39402 C12.8408,6.70137 12.5967,6.99999 12.2721,6.99999 C12.0379,6.99999 11.8366,6.83998 11.7558,6.62007 C11.352,5.52054 10.4791,4.64751 9.37967,4.24347 Z M8.35355339,6.23246339 L9.76776695,7.64667695 C9.9630291,7.8419391 9.9630291,8.15852159 9.76776695,8.35378373 L8.35355339,9.7679973 C8.15829124,9.96325944 7.84170876,9.96325944 7.64644661,9.7679973 L6.23223305,8.35378373 C6.0369709,8.15852159 6.0369709,7.8419391 6.23223305,7.64667695 L7.64644661,6.23246339 C7.84170876,6.03720124 8.15829124,6.03720124 8.35355339,6.23246339 Z" id="radio_16" fill="#00090D"></path>
    </g>
</svg>