<?xml version="1.0" encoding="UTF-8"?>
<svg width="24px" height="24px" viewBox="0 0 24 24" version="1.1" xmlns="http://www.w3.org/2000/svg" xmlns:xlink="http://www.w3.org/1999/xlink">
    <!-- Generator: Sketch 60.1 (88133) - https://sketch.com -->
    <title>Topology / as-sensor &amp; farallon / radio-as-sensor-topology_24</title>
    <desc>Created with Sketch.</desc>
    <g id="Topology-/-as-sensor-&amp;-farallon-/-radio-as-sensor-topology_24" stroke="none" stroke-width="1" fill="none" fill-rule="evenodd">
        <rect id="secondary-color" fill="#FFA000" x="1" y="1" width="22" height="22" rx="2.5"></rect>
        <path d="M12.0992372,12.5376588 L10.4333998,12.5376588 C10.2440138,12.5376588 10.0708822,12.4306576 9.98618622,12.2612656 L8.61018265,9.87338323 L6.96330944,15.6374394 C6.84622171,16.0472465 6.30293876,16.1320536 6.06652232,15.777429 L4.23240812,12.0000789 L3.5,12.0000789 C3.22385763,12.0000789 3,11.7762213 3,11.5000789 C3,11.2239365 3.22385763,11.0000789 3.5,11.0000789 L4.5,11.0000789 C4.66717659,11.0000789 4.82329226,11.0836294 4.91602515,11.2227288 L6.29881954,14.3230992 L8.0017855,8.36271831 C8.12705955,7.92425912 8.72582968,7.86860931 8.92976107,8.27647208 L10.7424168,11.5376588 L12.0726056,11.5376588 C12.2675154,10.9354751 12.8329024,10.5 13.5,10.5 C14.3284271,10.5 15,11.1715729 15,12 C15,12.8284271 14.3284271,13.5 13.5,13.5 C12.8610509,13.5 12.31541,13.1004997 12.0992372,12.5376588 Z M14.25,7.33414679 C14.3880712,7.05800441 14.7238576,6.9460756 15,7.08414679 L15.5,7.33414679 C16.1491106,7.65870211 16.6754447,8.18503615 17,8.83414679 L17.25,9.33414679 C17.3880712,9.61028916 17.2761424,9.9460756 17,10.0841468 C16.7303542,10.2189697 16.4024675,10.1096741 16.2676446,9.84002832 C16.2657075,9.83615411 16.2638166,9.83225698 16.2619722,9.82833776 L16.1,9.48414679 C15.8414551,8.93473879 15.399408,8.49269173 14.85,8.23414679 L14.505809,8.07217457 C14.2330305,7.94380818 14.1159612,7.61861593 14.2443276,7.34583735 C14.246172,7.34191813 14.2480629,7.338021 14.25,7.33414679 Z M19.5,9.08414679 C19.2398581,9.21421772 18.9235282,9.1087744 18.7934572,8.84863253 C18.7887737,8.83926558 18.7843707,8.82976102 18.780254,8.82013151 L18.4014879,7.93414679 C18.0173294,7.03554856 17.3016842,6.31953562 16.4032835,5.9349155 L15.5139023,5.55415681 C15.2463897,5.43963025 15.1223699,5.12992626 15.2368965,4.8624136 C15.2409847,4.85286422 15.2453545,4.84343783 15.25,4.83414679 C15.3911062,4.55193445 15.7255891,4.42579234 16.0179106,4.54454795 L17.1,4.98414679 C18.1229449,5.39971814 18.9344286,6.21120191 19.35,7.23414679 L19.7895988,8.31623623 C19.9083544,8.60855773 19.7822123,8.94304062 19.5,9.08414679 Z M14.25,16.3341468 C14.2480629,16.3302726 14.246172,16.3263754 14.2443276,16.3224562 C14.1159612,16.0496776 14.2330305,15.7244854 14.505809,15.596119 L14.85,15.4341468 C15.399408,15.1756019 15.8414551,14.7335548 16.1,14.1841468 L16.2619722,13.8399558 C16.2638166,13.8360366 16.2657075,13.8321395 16.2676446,13.8282653 C16.4024675,13.5586194 16.7303542,13.4493239 17,13.5841468 C17.2761424,13.722218 17.3880712,14.0580044 17.25,14.3341468 L17,14.8341468 C16.6754447,15.4832574 16.1491106,16.0095915 15.5,16.3341468 L15,16.5841468 C14.7238576,16.722218 14.3880712,16.6102892 14.25,16.3341468 Z M19.5,14.5841468 C19.7822123,14.725253 19.9083544,15.0597358 19.7895988,15.3520574 L19.35,16.4341468 C18.9344286,17.4570917 18.1229449,18.2685754 17.1,18.6841468 L16.0179106,19.1237456 C15.7255891,19.2425012 15.3911062,19.1163591 15.25,18.8341468 C15.2453545,18.8248557 15.2409847,18.8154294 15.2368965,18.80588 C15.1223699,18.5383673 15.2463897,18.2286633 15.5139023,18.1141368 L16.4032835,17.7333781 C17.3016842,17.348758 18.0173294,16.632745 18.4014879,15.7341468 L18.780254,14.8481621 C18.7843707,14.8385326 18.7887737,14.829028 18.7934572,14.819661 C18.9235282,14.5595192 19.2398581,14.4540759 19.5,14.5841468 Z" id="radio-as-sensor-topology_24" fill="#00090D"></path>
    </g>
</svg>