<?xml version="1.0" encoding="UTF-8"?>
<svg width="16px" height="16px" viewBox="0 0 16 16" version="1.1" xmlns="http://www.w3.org/2000/svg" xmlns:xlink="http://www.w3.org/1999/xlink">
    <!-- Generator: Sketch 60.1 (88133) - https://sketch.com -->
    <title>Tools / dashboard / recent-dashboard_16</title>
    <desc>Created with Sketch.</desc>
    <g id="Tools-/-dashboard-/-recent-dashboard_16" stroke="none" stroke-width="1" fill="none" fill-rule="evenodd">
        <path d="M14.9944305,9.57487982 L14.9944305,13 C14.9944305,14.1046 14.0990305,15 12.9944305,15 L3,15 C1.89543,15 1,14.1046 1,13 L1,3 C1,1.89543 1.89543,1 3,1 L6,1 L6,2 L3,2 C2.44772,2 2,2.44772 2,3 L2,13 C2,13.5523 2.44772,14 3,14 L12.9944305,14 C13.5467305,14 13.9944305,13.5523 13.9944305,13 L13.9944305,9 L14,9 L14,8.5 C14,8.22385763 14.2238576,8 14.5,8 C14.7761424,8 15,8.22385763 15,8.5 L15,9.5 C15,9.52544877 14.9980988,9.55045347 14.9944305,9.57487982 Z M6,2 L6,1 L7,1 C7.27614237,1 7.5,1.22385763 7.5,1.5 C7.5,1.77614237 7.27614237,2 7,2 L6,2 Z M4.5,6.5037537 C4.5,6.22761133 4.72385762,6.0037537 5,6.0037537 C5.27614237,6.0037537 5.5,6.22761133 5.5,6.5037537 L5.5,12.5037537 C5.5,12.779896 5.27614237,13.0037537 5,13.0037537 C4.72385762,13.0037537 4.5,12.779896 4.5,12.5037537 L4.5,6.5037537 Z M7.5,8.51803941 C7.5,8.23400726 7.72385762,8.0037537 8,8.0037537 C8.27614237,8.0037537 8.5,8.23400726 8.5,8.51803941 L8.5,12.489468 C8.5,12.7735001 8.27614237,13.0037537 8,13.0037537 C7.72385762,13.0037537 7.5,12.7735001 7.5,12.489468 L7.5,8.51803941 Z M10.5,10.5037537 C10.5,10.2276113 10.7238576,10.0037537 11,10.0037537 C11.2761424,10.0037537 11.5,10.2276113 11.5,10.5037537 L11.5,12.5037537 C11.5,12.779896 11.2761424,13.0037537 11,13.0037537 C10.7238576,13.0037537 10.5,12.779896 10.5,12.5037537 L10.5,10.5037537 Z M12,8 C9.790861,8 8,6.209139 8,4 C8,1.790861 9.790861,0 12,0 C14.209139,0 16,1.790861 16,4 C16,6.209139 14.209139,8 12,8 Z M12,7 C13.6568542,7 15,5.65685425 15,4 C15,2.34314575 13.6568542,1 12,1 C10.3431458,1 9,2.34314575 9,4 C9,5.65685425 10.3431458,7 12,7 Z M12.5,2.75 L12.5,3.77998685 L13.2900792,4.34274819 C13.5149982,4.50295452 13.5674581,4.81516026 13.4072518,5.04007923 C13.2470455,5.2649982 12.9348397,5.31745815 12.7099208,5.15725181 L11.5,4.29544378 L11.5,2.75 C11.5,2.47385763 11.7238576,2.25 12,2.25 C12.2761424,2.25 12.5,2.47385763 12.5,2.75 Z" id="recent-dashboard_16" fill="#00090D"></path>
    </g>
</svg>