<?xml version="1.0" encoding="UTF-8"?>
<svg width="24px" height="24px" viewBox="0 0 24 24" version="1.1" xmlns="http://www.w3.org/2000/svg" xmlns:xlink="http://www.w3.org/1999/xlink">
    <!-- Generator: Sketch 60.1 (88133) - https://sketch.com -->
    <title>Tools / dashboard / recent-dashboard_24</title>
    <desc>Created with Sketch.</desc>
    <g id="Tools-/-dashboard-/-recent-dashboard_24" stroke="none" stroke-width="1" fill="none" fill-rule="evenodd">
        <path d="M21.0029633,12.5001236 C21.0029633,12.2239812 21.2268209,12.0001236 21.5029633,12.0001236 C21.7791057,12.0001236 22.0029633,12.2239812 22.0029633,12.5001236 L22.0029633,19.5158231 C22.0029633,20.8962294 20.8839229,22.0152698 19.5035166,22.0152698 L4.50240998,22.0152698 C3.12200369,22.0152698 2.00296329,20.8962294 2.00296329,19.5158231 L2.00296329,5.00186984 C2.00296329,3.62146355 3.12200369,2.50242314 4.50240998,2.50242314 L10.5088921,2.50242314 C10.7850345,2.50242314 11.0088921,2.72628077 11.0088921,3.00242314 C11.0088921,3.27856552 10.7850345,3.50242314 10.5088921,3.50242314 L4.50240998,3.50242314 C3.67428844,3.50242314 3.00296329,4.1737483 3.00296329,5.00186984 L3.00296329,19.5158231 C3.00296329,20.3439447 3.67428844,21.0152698 4.50240998,21.0152698 L19.5035166,21.0152698 C20.3316381,21.0152698 21.0029633,20.3439447 21.0029633,19.5158231 L21.0029633,12.5001236 Z M7.5,12 C7.77614237,12 8,12.2238576 8,12.5 L8,18.5 C8,18.7761424 7.77614237,19 7.5,19 C7.22385763,19 7,18.7761424 7,18.5 L7,12.5 C7,12.2238576 7.22385763,12 7.5,12 Z M13.5,12 C13.7761424,12 14,12.2238576 14,12.5 L14,18.5 C14,18.7761424 13.7761424,19 13.5,19 C13.2238576,19 13,18.7761424 13,18.5 L13,12.5 C13,12.2238576 13.2238576,12 13.5,12 Z M10.5,9 C10.7761424,9 11,9.22385763 11,9.5 L11,18.5 C11,18.7761424 10.7761424,19 10.5,19 C10.2238576,19 10,18.7761424 10,18.5 L10,9.5 C10,9.22385763 10.2238576,9 10.5,9 Z M16.5,13 C16.7761424,13 17,13.2238576 17,13.5 L17,18.5 C17,18.7761424 16.7761424,19 16.5,19 C16.2238576,19 16,18.7761424 16,18.5 L16,13.5 C16,13.2238576 16.2238576,13 16.5,13 Z M18,11 C15.2385763,11 13,8.76142375 13,6 C13,3.23857625 15.2385763,1 18,1 C20.7614237,1 23,3.23857625 23,6 C23,8.76142375 20.7614237,11 18,11 Z M18,10 C20.209139,10 22,8.209139 22,6 C22,3.790861 20.209139,2 18,2 C15.790861,2 14,3.790861 14,6 C14,8.209139 15.790861,10 18,10 Z M18.5,4.48088967 L18.5,6.04788715 L19.7930347,7.08565721 C20.0083939,7.2585012 20.0428592,7.57320203 19.8700152,7.78856119 C19.6971712,8.00392034 19.3824704,8.03838569 19.1671113,7.8655417 L17.5,6.52754349 L17.5,4.48088967 C17.5,4.2047473 17.7238576,3.98088967 18,3.98088967 C18.2761424,3.98088967 18.5,4.2047473 18.5,4.48088967 Z" id="recent-dashboard_24" fill="#00090D"></path>
    </g>
</svg>