<?xml version="1.0" encoding="UTF-8"?>
<svg width="24px" height="24px" viewBox="0 0 24 24" version="1.1" xmlns="http://www.w3.org/2000/svg" xmlns:xlink="http://www.w3.org/1999/xlink">
    <!-- Generator: Sketch 60.1 (88133) - https://sketch.com -->
    <title>Action/refresh/refresh_24</title>
    <desc>Created with Sketch.</desc>
    <g id="Action/refresh/refresh_24" stroke="none" stroke-width="1" fill="none" fill-rule="evenodd">
        <path d="M0.499929,12 C0.776071,12 0.998753,11.7757 1.0111,11.4998 C1.2726,5.65682 6.09244,1 11.9999,1 C16.6639,1 20.6499,3.90264 22.25,8 L15.5,8 C15.2239,8 15,8.22386 15,8.5 C15,8.77614 15.2239,9 15.5,9 L22.9688,9 L23.5,9 C23.7761,9 23.99,8.77614 23.99,8.5 L23.99,0.5 C23.99,0.223858 23.7761,0 23.5,0 C23.2239,0 23,0.223858 23,0.5 L23,7.19674 C21.1475,2.96031 16.9194,0 11.9999,0 C5.54015,0 0.272529,5.10422 0.0101749,11.4996 C-0.00114368,11.7755 0.223787,12 0.499929,12 Z M23.5098,12 C23.2337,12 23.011,12.2243 22.9987,12.5002 C22.7372,18.3432 17.9173,23 12.0098,23 C7.34587,23 3.35986,20.0974 1.75972,16 L8.50976563,16 C8.78591,16 9.00976563,15.7761 9.00976563,15.5 C9.00976563,15.2239 8.78591,15 8.50976563,15 L1.04096,15 L0.50976563,15 C0.233624,15 0.00976563,15.2239 0.00976563,15.5 L0.00976563,23.5 C0.00976563,23.7761 0.233624,24 0.50976563,24 C0.785908,24 1.00976563,23.7761 1.00976563,23.5 L1.00976563,16.8033 C2.86225,21.0397 7.09033,24 12.0098,24 C18.4696,24 23.7276,18.8958 23.99,12.5004 C24.0013,12.2245 23.786,12 23.5098,12 Z" id="refresh_24" fill="#00090D"></path>
    </g>
</svg>