<?xml version="1.0" encoding="UTF-8"?>
<svg width="12px" height="12px" viewBox="0 0 12 12" version="1.1" xmlns="http://www.w3.org/2000/svg" xmlns:xlink="http://www.w3.org/1999/xlink">
    <!-- Generator: Sketch 60.1 (88133) - https://sketch.com -->
    <title>Action/refresh/refresh_12</title>
    <desc>Created with Sketch.</desc>
    <g id="Action/refresh/refresh_12" stroke="none" stroke-width="1" fill="none" fill-rule="evenodd">
        <path d="M10.27204,7 C10.0378,7 9.83651,7.16003 9.7557,7.37989 C9.19366,8.90911 7.72427,10 6.00009,10 C4.51953,10 3.22684,9.1956 2.53522,8 L4.5,8 C4.77614,8 5,7.77614 5,7.5 C5,7.22386 4.77614,7 4.5,7 L1.728146,7 L1.5,7 C1.223858,7 1,7.22386 1,7.5 L1,10.5 C1,10.77614 1.223858,11 1.5,11 C1.776142,11 2,10.77614 2,10.5 L2,9.00037 C2.91222,10.2146 4.36444,11 6.00009,11 C8.19971,11 10.06758,9.57963 10.73657,7.60604 C10.84076,7.29867 10.59659,7 10.27204,7 Z M1.728146,5 C1.962384,5 2.16368,4.83997 2.24448,4.62011 C2.80652,3.09089 4.27591,2 6.00009,2 C7.48066,2 8.77334,2.8044 9.46496,4 L7.5,4 C7.22386,4 7,4.22386 7,4.5 C7,4.77614 7.22386,5 7.5,5 L10.27204,5 L10.5,5 C10.77614,5 11,4.77614 11,4.5 L11,1.5 C11,1.223858 10.77614,1 10.5,1 C10.22386,1 10,1.223858 10,1.5 L10,2.99939 C9.08777,1.785291 7.63564,1 6.00009,1 C3.80047,1 1.932599,2.42037 1.263614,4.39396 C1.159422,4.70133 1.40359,5 1.728146,5 Z" id="refresh_12" fill="#00090D"></path>
    </g>
</svg>