<?xml version="1.0" encoding="UTF-8"?>
<svg width="16px" height="16px" viewBox="0 0 16 16" version="1.1" xmlns="http://www.w3.org/2000/svg" xmlns:xlink="http://www.w3.org/1999/xlink">
    <!-- Generator: Sketch 60.1 (88133) - https://sketch.com -->
    <title>Action/refresh/refresh_16</title>
    <desc>Created with Sketch.</desc>
    <g id="Action/refresh/refresh_16" stroke="none" stroke-width="1" fill="none" fill-rule="evenodd">
        <path d="M8.00017,1 C10.7926,1 13.2031,2.63505 14.3265,5 L10.5,5 C10.2239,5 10,5.22386 10,5.5 C10,5.77614 10.2239,6 10.5,6 L15.0905,6 L15.5,6 C15.7761,6 16,5.77614 16,5.5 L16,0.5 C16,0.223858 15.7761,0 15.5,0 C15.2239,0 15,0.223858 15,0.5 L15,4.12368 C13.6352,1.66443 11.0121,0 8.00017,0 C3.74985,0 0.273693,3.31459 0.0155507,7.49991 C-0.00144888,7.77553 0.224032,8 0.500174,8 C0.776317,8 0.998318,7.77539 1.01776,7.49993 C1.27417,3.86733 4.30232,1 8.00017,1 Z M8.01447,15 C5.22208,15 2.81157,13.3649 1.68811,11 L5.5146484,11 C5.79079,11 6.0146484,10.7761 6.0146484,10.5 C6.0146484,10.2239 5.79079,10 5.5146484,10 L0.924163,10 L0.5146484,10 C0.238507,10 0.0146484,10.2239 0.0146484,10.5 L0.0146484,15.5 C0.0146484,15.7761 0.238506,16 0.5146484,16 C0.790791,16 1.0146484,15.7761 1.0146484,15.5 L1.0146484,11.8763 C2.37943,14.3356 5.00258,16 8.01447,16 C12.2648,16 15.741,12.6854 15.9991,8.50009 C16.0161,8.22447 15.7906,8 15.5145,8 C15.2383,8 15.0163,8.22461 14.9969,8.50007 C14.7405,12.1327 11.7123,15 8.01447,15 Z" id="refresh_16" fill="#00090D"></path>
    </g>
</svg>