<?xml version="1.0" encoding="UTF-8"?>
<svg width="18px" height="18px" viewBox="0 0 18 18" version="1.1" xmlns="http://www.w3.org/2000/svg" xmlns:xlink="http://www.w3.org/1999/xlink">
    <!-- Generator: Sketch 60.1 (88133) - https://sketch.com -->
    <title>Action/remove/remove_18</title>
    <desc>Created with Sketch.</desc>
    <g id="Action/remove/remove_18" stroke="none" stroke-width="1" fill="none" fill-rule="evenodd">
        <path d="M9.707,9.00025 L15.853,2.85425 C16.049,2.65825 16.049,2.34225 15.853,2.14625 C15.658,1.95125 15.342,1.95125 15.146,2.14625 L9,8.29325 L2.853,2.14625 C2.658,1.95125 2.342,1.95125 2.146,2.14625 C1.951,2.34225 1.951,2.65825 2.146,2.85425 L8.293,9.00025 L2.146,15.14625 C1.951,15.34225 1.951,15.65825 2.146,15.85425 C2.244,15.95125 2.372,16.00025 2.5,16.00025 C2.628,16.00025 2.756,15.95125 2.853,15.85425 L9,9.70725 L15.146,15.85425 C15.244,15.95125 15.372,16.00025 15.5,16.00025 C15.628,16.00025 15.756,15.95125 15.853,15.85425 C16.049,15.65825 16.049,15.34225 15.853,15.14625 L9.707,9.00025 Z" id="remove_18" fill="#00090D"></path>
    </g>
</svg>