<?xml version="1.0" encoding="UTF-8"?>
<svg width="12px" height="12px" viewBox="0 0 12 12" version="1.1" xmlns="http://www.w3.org/2000/svg" xmlns:xlink="http://www.w3.org/1999/xlink">
    <!-- Generator: Sketch 60.1 (88133) - https://sketch.com -->
    <title>Action/remove/remove_12</title>
    <desc>Created with Sketch.</desc>
    <g id="Action/remove/remove_12" stroke="none" stroke-width="1" fill="none" fill-rule="evenodd">
        <path d="M6.70725,6.00025 L9.35325,3.35425 C9.54925,3.15825 9.54925,2.84225 9.35325,2.64625 C9.15825,2.45125 8.84225,2.45125 8.64625,2.64625 L6.00025,5.29325 L3.35325,2.64625 C3.15825,2.45125 2.84225,2.45125 2.64625,2.64625 C2.45125,2.84225 2.45125,3.15825 2.64625,3.35425 L5.29325,6.00025 L2.64625,8.64625 C2.45125,8.84225 2.45125,9.15825 2.64625,9.35425 C2.74425,9.45125 2.87225,9.50025 3.00025,9.50025 C3.12825,9.50025 3.25625,9.45125 3.35325,9.35425 L6.00025,6.70725 L8.64625,9.35425 C8.74425,9.45125 8.87225,9.50025 9.00025,9.50025 C9.12825,9.50025 9.25625,9.45125 9.35325,9.35425 C9.54925,9.15825 9.54925,8.84225 9.35325,8.64625 L6.70725,6.00025 Z" id="remove_12" fill="#00090D"></path>
    </g>
</svg>