<svg width="18" height="18" viewBox="0 0 18 18" fill="none" xmlns="http://www.w3.org/2000/svg">
<g id="Type=x-circle_18">
<path id="remove-circle_18" fill-rule="evenodd" clip-rule="evenodd" d="M17 9C17 13.4183 13.4183 17 9 17C4.58172 17 1 13.4183 1 9C1 4.58172 4.58172 1 9 1C13.4183 1 17 4.58172 17 9ZM18 9C18 13.9706 13.9706 18 9 18C4.02944 18 0 13.9706 0 9C0 4.02944 4.02944 0 9 0C13.9706 0 18 4.02944 18 9ZM5.64649 5.64645C5.84176 5.45118 6.15834 5.45118 6.3536 5.64645L9.00002 8.29287L11.6464 5.64645C11.8417 5.45119 12.1583 5.45119 12.3536 5.64645C12.5488 5.84171 12.5488 6.15829 12.3536 6.35355L9.70713 8.99998L12.3536 11.6464C12.5489 11.8417 12.5489 12.1583 12.3536 12.3536C12.1583 12.5488 11.8418 12.5488 11.6465 12.3536L9.00002 9.70708L6.35355 12.3536C6.15829 12.5488 5.84171 12.5488 5.64645 12.3536C5.45118 12.1583 5.45118 11.8417 5.64645 11.6464L8.29292 8.99998L5.64649 6.35355C5.45123 6.15829 5.45123 5.84171 5.64649 5.64645Z" fill="#545454"/>
</g>
</svg>
