<?xml version="1.0" encoding="UTF-8"?>
<svg width="16px" height="16px" viewBox="0 0 16 16" version="1.1" xmlns="http://www.w3.org/2000/svg" xmlns:xlink="http://www.w3.org/1999/xlink">
    <!-- Generator: Sketch 60.1 (88133) - https://sketch.com -->
    <title>Action/remove/remove-circle_16</title>
    <desc>Created with Sketch.</desc>
    <g id="Action/remove/remove-circle_16" stroke="none" stroke-width="1" fill="none" fill-rule="evenodd">
        <path d="M8,0 C12.411,0 16,3.589 16,8 C16,12.411 12.411,16 8,16 C3.589,16 0,12.411 0,8 C0,3.589 3.589,0 8,0 Z M8,15 C11.859,15 15,11.859 15,8 C15,4.141 11.859,1 8,1 C4.14,1 1,4.141 1,8 C1,11.859 4.14,15 8,15 Z M10.8535,5.1465 C11.0485,5.3415 11.0485,5.6585 10.8535,5.8535 L8.6785,8.0285 L10.7575,10.1505 C10.9515,10.3475 10.9475,10.6645 10.7495,10.8575 C10.6535,10.9525 10.5265,11.0005 10.4005,11.0005 C10.2705,11.0005 10.1415,10.9505 10.0425,10.8495 L7.9715,8.7355 L5.8535,10.8535 C5.7555,10.9515 5.6275,11.0005 5.4995,11.0005 C5.3725,11.0005 5.2445,10.9515 5.1465,10.8535 C4.9515,10.6585 4.9515,10.3415 5.1465,10.1465 L7.2715,8.0215 L5.1435,5.8495 C4.9495,5.6525 4.9525,5.3355 5.1495,5.1425 C5.3475,4.9505 5.6635,4.9505 5.8565,5.1505 L7.9785,7.3145 L10.1465,5.1465 C10.3415,4.9515 10.6585,4.9515 10.8535,5.1465 Z" id="remove-circle_16" fill="#00090D"></path>
    </g>
</svg>