<?xml version="1.0" encoding="UTF-8"?>
<svg width="24px" height="24px" viewBox="0 0 24 24" version="1.1" xmlns="http://www.w3.org/2000/svg" xmlns:xlink="http://www.w3.org/1999/xlink">
    <!-- Generator: Sketch 60.1 (88133) - https://sketch.com -->
    <title>Action/remove/remove_24</title>
    <desc>Created with Sketch.</desc>
    <g id="Action/remove/remove_24" stroke="none" stroke-width="1" fill="none" fill-rule="evenodd">
        <path d="M12.707,12.00025 L21.853,2.85425 C22.049,2.65825 22.049,2.34225 21.853,2.14625 C21.658,1.95125 21.342,1.95125 21.146,2.14625 L12,11.29325 L2.853,2.14625 C2.658,1.95125 2.342,1.95125 2.146,2.14625 C1.951,2.34225 1.951,2.65825 2.146,2.85425 L11.293,12.00025 L2.146,21.14625 C1.951,21.34225 1.951,21.65825 2.146,21.85425 C2.244,21.95125 2.372,22.00025 2.5,22.00025 C2.628,22.00025 2.756,21.95125 2.853,21.85425 L12,12.70725 L21.146,21.85425 C21.244,21.95125 21.372,22.00025 21.5,22.00025 C21.628,22.00025 21.756,21.95125 21.853,21.85425 C22.049,21.65825 22.049,21.34225 21.853,21.14625 L12.707,12.00025 Z" id="remove_24" fill="#00090D"></path>
    </g>
</svg>