<?xml version="1.0" encoding="UTF-8"?>
<svg width="24px" height="24px" viewBox="0 0 24 24" version="1.1" xmlns="http://www.w3.org/2000/svg" xmlns:xlink="http://www.w3.org/1999/xlink">
    <!-- Generator: Sketch 60.1 (88133) - https://sketch.com -->
    <title>Action / report_24</title>
    <desc>Created with Sketch.</desc>
    <g id="Action-/-report_24" stroke="none" stroke-width="1" fill="none" fill-rule="evenodd">
        <path d="M5.5,0 L18.5,0 C19.8807119,0 21,1.11928813 21,2.5 L21,21.5 C21,22.8807119 19.8807119,24 18.5,24 L5.5,24 C4.11928813,24 3,22.8807119 3,21.5 L3,2.5 C3,1.11928813 4.11928813,0 5.5,0 Z M5.5,1 C4.67157288,1 4,1.67157288 4,2.5 L4,21.5 C4,22.3284271 4.67157288,23 5.5,23 L18.5,23 C19.3284271,23 20,22.3284271 20,21.5 L20,2.5 C20,1.67157288 19.3284271,1 18.5,1 L5.5,1 Z M7.5,11.5 L16.5,11.5 C16.7761424,11.5 17,11.7238576 17,12 C17,12.2761424 16.7761424,12.5 16.5,12.5 L7.5,12.5 C7.22385763,12.5 7,12.2761424 7,12 C7,11.7238576 7.22385763,11.5 7.5,11.5 Z M7.5,17 L11.5,17 C11.7761424,17 12,17.2238576 12,17.5 C12,17.7761424 11.7761424,18 11.5,18 L7.5,18 C7.22385763,18 7,17.7761424 7,17.5 C7,17.2238576 7.22385763,17 7.5,17 Z M7.5,6 L16.5,6 C16.7761424,6 17,6.22385763 17,6.5 C17,6.77614237 16.7761424,7 16.5,7 L7.5,7 C7.22385763,7 7,6.77614237 7,6.5 C7,6.22385763 7.22385763,6 7.5,6 Z" id="report_24" fill="#00090D"></path>
    </g>
</svg>