<?xml version="1.0" encoding="UTF-8"?>
<svg width="16px" height="16px" viewBox="0 0 16 16" version="1.1" xmlns="http://www.w3.org/2000/svg" xmlns:xlink="http://www.w3.org/1999/xlink">
    <!-- Generator: Sketch 60.1 (88133) - https://sketch.com -->
    <title>Action / reset_16</title>
    <desc>Created with Sketch.</desc>
    <g id="Action-/-reset_16" stroke="none" stroke-width="1" fill="none" fill-rule="evenodd">
        <path d="M1.70710678,7 L4.85355339,10.1464466 C5.04881554,10.3417088 5.04881554,10.6582912 4.85355339,10.8535534 C4.65829124,11.0488155 4.34170876,11.0488155 4.14644661,10.8535534 L0.146446609,6.85355339 C-0.0488155365,6.65829124 -0.0488155365,6.34170876 0.146446609,6.14644661 L4.14644661,2.14644661 C4.34170876,1.95118446 4.65829124,1.95118446 4.85355339,2.14644661 C5.04881554,2.34170876 5.04881554,2.65829125 4.85355339,2.85355339 L1.70710678,6 L12,6 C14.2091,6 16,7.79086 16,10 C16,12.2091 14.2091,14 12,14 L1.5,14 C1.22386,14 1,13.7761 1,13.5 C1,13.2239 1.22386,13 1.5,13 L12,13 C13.6569,13 15,11.65685 15,10 C15,8.34315 13.6569,7 12,7 L1.70710678,7 Z" id="reset_16" fill="#00090D"></path>
    </g>
</svg>