<?xml version="1.0" encoding="UTF-8"?>
<svg width="24px" height="24px" viewBox="0 0 24 24" version="1.1" xmlns="http://www.w3.org/2000/svg" xmlns:xlink="http://www.w3.org/1999/xlink">
    <!-- Generator: Sketch 60.1 (88133) - https://sketch.com -->
    <title>Networking / rogue / rogue_24</title>
    <desc>Created with Sketch.</desc>
    <g id="Networking-/-rogue-/-rogue_24" stroke="none" stroke-width="1" fill="none" fill-rule="evenodd">
        <rect id="rogue_24" fill="#00090D" x="1" y="1" width="22" height="22" rx="2"></rect>
        <path d="M12,3 C16.1421356,3 19.5,6.35786438 19.5,10.5 C19.5,13.4210459 17.8300968,15.9520651 15.3928629,17.1904849 L14.8215025,20.1871121 C14.7316638,20.658765 14.3192966,21 13.8391639,21 L10.1608361,21 C9.68070338,21 9.26833619,20.658765 9.17849754,20.1871121 L8.60713708,17.1904849 C6.1699032,15.9520651 4.5,13.4210459 4.5,10.5 C4.5,6.35786438 7.85786438,3 12,3 Z M11.8651469,14.0168884 C11.6970115,14.0639807 11.5656209,14.1953712 11.5185287,14.3635067 L10.5711252,17.7460588 C10.5413343,17.8524225 10.6034088,17.9627976 10.7097725,17.9925885 C10.727331,17.9975064 10.7454796,18 10.7637138,18 L13.2362862,18 C13.3467432,18 13.4362862,17.9104569 13.4362862,17.8 C13.4362862,17.7817658 13.4337926,17.7636173 13.4288748,17.7460588 L12.4814713,14.3635067 C12.406994,14.0975974 12.1310562,13.9424111 11.8651469,14.0168884 Z M8.5,9 C7.11928813,9 6,10.1192881 6,11.5 C6,12.8807119 7.11928813,14 8.5,14 C9.88071187,14 11,12.8807119 11,11.5 C11,10.1192881 9.88071187,9 8.5,9 Z M15.5,9 C14.1192881,9 13,10.1192881 13,11.5 C13,12.8807119 14.1192881,14 15.5,14 C16.8807119,14 18,12.8807119 18,11.5 C18,10.1192881 16.8807119,9 15.5,9 Z" id="secondary-color" fill="#FFA000"></path>
    </g>
</svg>