<?xml version="1.0" encoding="UTF-8"?>
<svg width="16px" height="16px" viewBox="0 0 16 16" version="1.1" xmlns="http://www.w3.org/2000/svg" xmlns:xlink="http://www.w3.org/1999/xlink">
    <!-- Generator: Sketch 60.1 (88133) - https://sketch.com -->
    <title>Networking / rogue / rogue_16</title>
    <desc>Created with Sketch.</desc>
    <g id="Networking-/-rogue-/-rogue_16" stroke="none" stroke-width="1" fill="none" fill-rule="evenodd">
        <rect id="rogue_16" fill="#00090D" x="0" y="0" width="16" height="16" rx="2"></rect>
        <path d="M8,1 C11.3137085,1 14,3.6862915 14,7 C14,9.4177339 12.5699819,11.5014692 10.5096188,12.4515328 L10.1607768,14.1961161 C10.0672919,14.6635403 9.65687712,15 9.1801961,15 L6.8198039,15 C6.34312288,15 5.93270807,14.6635403 5.83922323,14.1961161 L5.49038122,12.4515328 C3.4300181,11.5014692 2,9.4177339 2,7 C2,3.6862915 4.6862915,1 8,1 Z M7.90194193,10.0592194 C7.70401131,10.0988055 7.54929579,10.2535211 7.50970966,10.4514517 L7,13 L9,13 L8.49029034,10.4514517 C8.43613436,10.1806718 8.17272181,10.0050634 7.90194193,10.0592194 Z M5,6 C3.8954305,6 3,6.8954305 3,8 C3,9.1045695 3.8954305,10 5,10 C6.1045695,10 7,9.1045695 7,8 C7,6.8954305 6.1045695,6 5,6 Z M11,6 C9.8954305,6 9,6.8954305 9,8 C9,9.1045695 9.8954305,10 11,10 C12.1045695,10 13,9.1045695 13,8 C13,6.8954305 12.1045695,6 11,6 Z" id="secondary-color" fill="#FFA000"></path>
    </g>
</svg>