<?xml version="1.0" encoding="UTF-8"?>
<svg width="24px" height="24px" viewBox="0 0 24 24" version="1.1" xmlns="http://www.w3.org/2000/svg" xmlns:xlink="http://www.w3.org/1999/xlink">
    <!-- Generator: Sketch 60.1 (88133) - https://sketch.com -->
    <title>Topology / router / router-split-topology_24</title>
    <desc>Created with Sketch.</desc>
    <g id="Topology-/-router-/-router-split-topology_24" stroke="none" stroke-width="1" fill="none" fill-rule="evenodd">
        <path d="M11.9999481,0 C18.627417,0 23.9999481,5.372583 23.9999481,12 C23.9999481,18.5254567 18.791454,23.8343928 12.3049252,23.9962001 L11.9999481,24 L12,20.999 L12.0058583,20.9996339 C12.2513182,20.9996339 12.4554667,20.8227588 12.4978026,20.5895095 L12.5058583,20.4996339 L12.5058583,17.906547 L13.8965675,18.4628307 C14.0247634,18.514109 14.170256,18.451755 14.2215344,18.3235592 C14.239186,18.2794301 14.2437176,18.2316764 14.2353559,18.1858375 L14.2131716,18.1192077 L12.2295048,14.1385513 C12.1849221,14.0490865 12.0939451,13.9980499 12.0002255,14.000057 C12.001971,13.0765842 12.0028127,12.2863205 12.0032014,11.5613409 L12.0032917,9.99962362 C12.077398,10.0002974 12.149489,9.96785973 12.1979384,9.90955143 L12.2295048,9.86108261 L14.2131716,5.88042615 C14.2449692,5.81661736 14.2480118,5.74226835 14.2215344,5.67607474 C14.1788024,5.56924484 14.0706439,5.50813848 13.9615906,5.52041216 L13.8965675,5.53680323 L12.5058583,6.09308693 L12.5058583,3.5 C12.5058583,3.25454012 12.3289832,3.05039163 12.0957339,3.00805567 L12.0058583,3 L12.0012293,3.02605878 C12.0011318,2.79779452 12.0010311,2.56234811 12.0009274,2.31917886 L11.9999481,0 Z M11.999572,14.0000719 L11.999,20.9980336 L11.9159827,20.9915782 C11.6827334,20.9492423 11.5058583,20.7450938 11.5058583,20.4996339 L11.5058583,17.9063506 L10.112824,18.4630173 C10.0466171,18.4894741 9.97226395,18.4864041 9.90846346,18.4545794 C9.78491039,18.3929491 9.73471204,18.2428283 9.79634232,18.1192752 L11.7820358,14.1384635 C11.8062682,14.0898837 11.8456554,14.050512 11.8942447,14.0262986 C11.9281492,14.0094031 11.9640503,14.000926 11.999572,14.0000719 Z M16.5450545,9.93846346 C16.523838,9.98099709 16.5154014,10.0282208 16.5199735,10.0745942 L16.5366166,10.142824 L17.0932833,11.5358583 L14.5,11.5358583 C14.2238576,11.5358583 14,11.7597159 14,12.0358583 C14,12.2813182 14.1768751,12.4854667 14.4101244,12.5278026 L14.5,12.5358583 L17.0930869,12.5358583 L16.5368032,13.9265675 C16.4855249,14.0547634 16.5478789,14.200256 16.6760747,14.2515344 C16.7202038,14.269186 16.7679575,14.2737176 16.8137964,14.2653559 L16.8804261,14.2431716 L20.8610826,12.2595048 C20.9846598,12.197923 21.0349171,12.0478219 20.9733352,11.9242447 C20.957193,11.8918518 20.9343137,11.8635488 20.9064605,11.8410993 L20.8611704,11.8120358 L16.8803586,9.82634232 C16.7568056,9.76471204 16.6066848,9.81491039 16.5450545,9.93846346 Z M7.45457936,9.93846346 C7.48640408,10.0022639 7.48947409,10.0766171 7.46301732,10.142824 L6.90635062,11.5358583 L9.49963389,11.5358583 C9.77577626,11.5358583 9.99963389,11.7597159 9.99963389,12.0358583 C9.99963389,12.3120007 9.77577626,12.5358583 9.49963389,12.5358583 L6.90654696,12.5358583 L7.46283066,13.9265675 C7.51410901,14.0547634 7.45175503,14.200256 7.32355915,14.2515344 C7.25736554,14.2780118 7.18301653,14.2749692 7.11920774,14.2431716 L3.13855128,12.2595048 C3.01497405,12.197923 2.96471683,12.0478219 3.02629865,11.9242447 C3.05051199,11.8756554 3.08988372,11.8362682 3.13846353,11.8120358 L7.11927524,9.82634232 C7.24282831,9.76471204 7.39294908,9.81491039 7.45457936,9.93846346 Z M11.9997305,3.00003678 L11.999572,9.99956199 C11.9640503,9.99870786 11.9281492,9.99023078 11.8942447,9.97333524 C11.8456554,9.9491219 11.8062682,9.90975016 11.7820358,9.86117036 L9.79634232,5.88035865 C9.73471204,5.75680558 9.78491039,5.60668481 9.90846346,5.54505453 C9.97226395,5.51322981 10.0466171,5.5101598 10.112824,5.53661657 L11.5058583,6.09328327 L11.5058583,3.5 C11.5058583,3.22590313 11.7264118,3.00331928 11.9997305,3.00003678 Z" id="secondary-color" fill="#FFA000"></path>
        <path d="M12,0 L12.0008805,2.02479077 C12.0010153,2.37466719 12.0011367,2.7145529 12.0012455,3.04553823 L12.0006932,3.00002613 C12.0024129,3.00000872 12.0041346,3 12.0058583,3 C12.2820007,3 12.5058583,3.22385763 12.5058583,3.5 L12.5058583,6.09308693 L13.8965675,5.53680323 C14.0247634,5.48552488 14.170256,5.54787886 14.2215344,5.67607474 C14.2480118,5.74226835 14.2449692,5.81661736 14.2131716,5.88042615 L12.2295048,9.86108261 C12.1850843,9.95022205 12.0946062,10.0012123 12.0012478,9.99959664 L12.0018949,9.97397196 C12.0017194,11.2613294 12.001419,12.549005 12.0011083,13.9719333 L12.0002255,14.000057 C12.0939451,13.9980499 12.1849221,14.0490865 12.2295048,14.1385513 L14.2131716,18.1192077 C14.2449692,18.1830165 14.2480118,18.2573655 14.2215344,18.3235592 C14.170256,18.451755 14.0247634,18.514109 13.8965675,18.4628307 L12.5058583,17.906547 L12.5058583,20.4996339 C12.5058583,20.7757763 12.2820007,20.9996339 12.0058583,20.9996339 L12.0000753,20.7960981 C12.0000118,21.7840033 11.9999824,22.8468093 12,24 C5.372583,24 3.55271368e-14,18.627417 3.55271368e-14,12 C3.55271368e-14,5.372583 5.372583,0 12,0 Z M11.999572,14.0000719 C11.9640503,14.000926 11.9281492,14.0094031 11.8942447,14.0262986 C11.8618518,14.0424409 11.8335488,14.0653202 11.8110993,14.0931734 L11.7820358,14.1384635 L9.79634232,18.1192752 C9.73471204,18.2428283 9.78491039,18.3929491 9.90846346,18.4545794 C9.95099712,18.4757959 9.99822085,18.4842325 10.0445942,18.4796604 L10.112824,18.4630173 L11.5058583,17.9063506 L11.5058583,20.4996339 C11.5058583,20.7144113 11.6412783,20.8975597 11.8313921,20.9683526 L11.9159827,20.9915782 L11.999,20.9980336 L11.999572,14.0000719 Z M7.18273307,9.80466811 L7.11927524,9.82634232 L3.13846353,11.8120358 C3.08988372,11.8362682 3.05051199,11.8756554 3.02629865,11.9242447 C2.97498047,12.0272257 3.00132828,12.1486261 3.08305099,12.2218699 L3.13855128,12.2595048 L7.11920774,14.2431716 C7.18301653,14.2749692 7.25736554,14.2780118 7.32355915,14.2515344 C7.43038905,14.2088024 7.49149541,14.1006439 7.47922173,13.9915906 L7.46283066,13.9265675 L6.90654696,12.5358583 L9.49963389,12.5358583 C9.77577626,12.5358583 9.99963389,12.3120007 9.99963389,12.0358583 C9.99963389,11.7903984 9.82275873,11.5862499 9.58950952,11.543914 L9.49963389,11.5358583 L6.90635062,11.5358583 L7.46301732,10.142824 C7.48947409,10.0766171 7.48640408,10.0022639 7.45457936,9.93846346 C7.40322079,9.83550257 7.2904105,9.78348245 7.18273307,9.80466811 Z M16.8803586,9.82634232 L20.8611704,11.8120358 C20.9097502,11.8362682 20.9491219,11.8756554 20.9733352,11.9242447 C21.0349171,12.0478219 20.9846598,12.197923 20.8610826,12.2595048 L16.8804261,14.2431716 C16.8166174,14.2749692 16.7422683,14.2780118 16.6760747,14.2515344 C16.5478789,14.200256 16.4855249,14.0547634 16.5368032,13.9265675 L17.0930869,12.5358583 L14.5,12.5358583 C14.2238576,12.5358583 14,12.3120007 14,12.0358583 C14,11.7597159 14.2238576,11.5358583 14.5,11.5358583 L17.0932833,11.5358583 L16.5366166,10.142824 C16.5101598,10.0766171 16.5132298,10.0022639 16.5450545,9.93846346 C16.6066848,9.81491039 16.7568056,9.76471204 16.8803586,9.82634232 Z M11.9997305,3.00003678 C11.7567805,3.00295456 11.5555216,3.17914748 11.5137968,3.41077243 L11.5058583,3.5 L11.5058583,6.09328327 L10.112824,5.53661657 C10.0466171,5.5101598 9.97226395,5.51322981 9.90846346,5.54505453 C9.80550257,5.5964131 9.75348245,5.70922339 9.77466811,5.81690082 L9.79634232,5.88035865 L11.7820358,9.86117036 C11.8062682,9.90975016 11.8456554,9.9491219 11.8942447,9.97333524 L11.9463019,9.99246414 L11.9463019,9.99246414 L11.999572,9.99956199 L11.9997305,3.00003678 Z" id="router-split-topology_24" fill="#00090D"></path>
    </g>
</svg>