<?xml version="1.0" encoding="UTF-8"?>
<svg width="16px" height="16px" viewBox="0 0 16 16" version="1.1" xmlns="http://www.w3.org/2000/svg" xmlns:xlink="http://www.w3.org/1999/xlink">
    <!-- Generator: Sketch 60.1 (88133) - https://sketch.com -->
    <title>Networking / router / router_16</title>
    <desc>Created with Sketch.</desc>
    <g id="Networking-/-router-/-router_16" stroke="none" stroke-width="1" fill="none" fill-rule="evenodd">
        <path d="M8.50585832,12.906547 L8.50585832,15.4996339 C8.50585832,15.7757763 8.28200069,15.9996339 8.00585832,15.9996339 C7.72971594,15.9996339 7.50585832,15.7757763 7.50585832,15.4996339 L7.50585832,12.9063506 L6.11282402,13.4630173 C6.04661711,13.4894741 5.97226395,13.4864041 5.90846346,13.4545794 C5.78491039,13.3929491 5.73471204,13.2428283 5.79634232,13.1192752 L7.78203582,9.13846353 C7.80626821,9.08988372 7.84565539,9.05051199 7.8942447,9.02629865 C8.01782194,8.96471683 8.167923,9.01497405 8.22950482,9.13855128 L10.2131716,13.1192077 C10.2449692,13.1830165 10.2480118,13.2573655 10.2215344,13.3235592 C10.170256,13.451755 10.0247634,13.514109 9.89656755,13.4628307 L8.50585832,12.906547 Z M8.50585832,3.09308693 L9.89656755,2.53680323 C10.0247634,2.48552488 10.170256,2.54787886 10.2215344,2.67607474 C10.2480118,2.74226835 10.2449692,2.81661736 10.2131716,2.88042615 L8.22950482,6.86108261 C8.167923,6.98465984 8.01782194,7.03491706 7.8942447,6.97333524 C7.84565539,6.9491219 7.80626821,6.90975016 7.78203582,6.86117036 L5.79634232,2.88035865 C5.73471204,2.75680558 5.78491039,2.60668481 5.90846346,2.54505453 C5.97226395,2.51322981 6.04661711,2.5101598 6.11282402,2.53661657 L7.50585832,3.09328327 L7.50585832,0.5 C7.50585832,0.223857625 7.72971594,-2.16715534e-13 8.00585832,-2.16715534e-13 C8.28200069,-2.16715534e-13 8.50585832,0.223857625 8.50585832,0.5 L8.50585832,3.09308693 Z M3.90654696,8.53585832 L4.46283066,9.92656755 C4.51410901,10.0547634 4.45175503,10.200256 4.32355915,10.2515344 C4.25736554,10.2780118 4.18301653,10.2749692 4.11920774,10.2431716 L0.138551282,8.25950482 C0.014974048,8.197923 -0.0352831683,8.04782194 0.0262986476,7.9242447 C0.0505119902,7.87565539 0.0898837244,7.83626821 0.138463534,7.81203582 L4.11927524,5.82634232 C4.24282831,5.76471204 4.39294908,5.81491039 4.45457936,5.93846346 C4.48640408,6.00226395 4.48947409,6.07661711 4.46301732,6.14282402 L3.90635062,7.53585832 L6.49963389,7.53585832 C6.77577626,7.53585832 6.99963389,7.75971594 6.99963389,8.03585832 C6.99963389,8.31200069 6.77577626,8.53585832 6.49963389,8.53585832 L3.90654696,8.53585832 Z M12.0930869,8.53585832 L9.5,8.53585832 C9.22385763,8.53585832 9,8.31200069 9,8.03585832 C9,7.75971594 9.22385763,7.53585832 9.5,7.53585832 L12.0932833,7.53585832 L11.5366166,6.14282402 C11.5101598,6.07661711 11.5132298,6.00226395 11.5450545,5.93846346 C11.6066848,5.81491039 11.7568056,5.76471204 11.8803586,5.82634232 L15.8611704,7.81203582 C15.9097502,7.83626821 15.9491219,7.87565539 15.9733352,7.9242447 C16.0349171,8.04782194 15.9846598,8.197923 15.8610826,8.25950482 L11.8804261,10.2431716 C11.8166174,10.2749692 11.7422683,10.2780118 11.6760747,10.2515344 C11.5478789,10.200256 11.4855249,10.0547634 11.5368032,9.92656755 L12.0930869,8.53585832 Z" id="router_16" fill="#00090D"></path>
    </g>
</svg>