<?xml version="1.0" encoding="UTF-8"?>
<svg width="30px" height="30px" viewBox="0 0 30 30" version="1.1" xmlns="http://www.w3.org/2000/svg" xmlns:xlink="http://www.w3.org/1999/xlink">
    <!-- Generator: Sketch 60.1 (88133) - https://sketch.com -->
    <title>Networking / router / router-circle_30</title>
    <desc>Created with Sketch.</desc>
    <g id="Networking-/-router-/-router-circle_30" stroke="none" stroke-width="1" fill="none" fill-rule="evenodd">
        <path d="M15,0 C23.2842712,0 30,6.71572875 30,15 C30,23.2842712 23.2842712,30 15,30 C6.71572875,30 0,23.2842712 0,15 C0,6.71572875 6.71572875,0 15,0 Z M15,1 C7.2680135,1 1,7.2680135 1,15 C1,22.7319865 7.2680135,29 15,29 C22.7319865,29 29,22.7319865 29,15 C29,7.2680135 22.7319865,1 15,1 Z M15.2044245,17.1004964 L15.2420594,17.1559966 L18.2257262,23.1366531 C18.2575239,23.2004619 18.2605665,23.2748109 18.234089,23.3410045 C18.1913571,23.4478344 18.0831985,23.5089408 17.9741453,23.4966671 L17.9091222,23.480276 L15.5184129,22.42 L15.5184129,26.5170792 C15.5184129,26.7932216 15.2945553,27.0170792 15.0184129,27.0170792 C14.7729531,27.0170792 14.5688046,26.8402041 14.5264686,26.6069549 L14.5184129,26.5170792 L14.5184129,22.42 L12.1253786,23.4804627 C12.0591717,23.5069194 11.9848186,23.5038494 11.9210181,23.4720247 C11.8180572,23.4206662 11.7660371,23.3078559 11.7872227,23.2001784 L11.8088969,23.1367206 L14.7945904,17.1559089 C14.8188228,17.1073291 14.85821,17.0679573 14.9067993,17.043744 C15.0097804,16.9924258 15.1311807,17.0187736 15.2044245,17.1004964 Z M9.2553395,11.8012152 L9.32355915,11.8178809 C9.43038905,11.8606129 9.49149541,11.9687714 9.47922173,12.0778247 L9.46283066,12.1428477 L8.41,14.533557 L12.4996339,14.533557 C12.7757763,14.533557 12.9996339,14.7574146 12.9996339,15.033557 C12.9996339,15.2790169 12.8227587,15.4831654 12.5895095,15.5255014 L12.4996339,15.533557 L8.41,15.533557 L9.46301732,17.9265913 C9.48947409,17.9927982 9.48640408,18.0671513 9.45457936,18.1309518 C9.40322079,18.2339128 9.2904105,18.2859328 9.18273307,18.2647472 L9.11927524,18.243073 L3.13846353,15.2573795 C3.08988373,15.2331471 3.05051199,15.1937599 3.02629865,15.1451706 C2.97498047,15.0421896 3.00132828,14.9207892 3.08305099,14.8475454 L3.13855128,14.8099105 L9.11920774,11.8262437 L9.18583751,11.8040594 L9.18583751,11.8040594 L9.2553395,11.8012152 Z M20.8804261,11.791353 L26.8610826,14.7750198 C26.9846598,14.8366016 27.0349171,14.9867026 26.9733352,15.1102799 C26.9491219,15.1588692 26.9097502,15.1982564 26.8611704,15.2224888 L20.8803587,18.2081823 C20.7568056,18.2698125 20.6066848,18.2196142 20.5450545,18.0960611 C20.5132298,18.0322606 20.5101598,17.9579075 20.5366166,17.8917006 L21.59,15.4986663 L17.5,15.4986663 C17.2238576,15.4986663 17,15.2748086 17,14.9986663 C17,14.7225239 17.2238576,14.4986663 17.5,14.4986663 L21.59,14.4986663 L20.5368032,12.107957 C20.4855249,11.9797612 20.5478789,11.8342686 20.6760747,11.7829902 C20.7422684,11.7565128 20.8166174,11.7595554 20.8804261,11.791353 Z M14.9835222,3.01744536 C15.2596646,3.01744536 15.4835222,3.24130296 15.4835222,3.51744536 L15.4835222,7.61 L17.8742315,6.55424859 C18.0024274,6.50297024 18.14792,6.56532422 18.1991983,6.6935201 C18.2256758,6.75971371 18.2226331,6.83406272 18.1908355,6.89787151 L15.2071687,12.878528 C15.1455869,13.0021052 14.9954859,13.0523624 14.8719086,12.9907806 C14.8233193,12.9665673 14.7839321,12.9271955 14.7596997,12.8786157 L11.7740062,6.89780401 C11.712376,6.77425094 11.7625743,6.62413017 11.8861274,6.56249989 C11.9499279,6.53067517 12.024281,6.52760516 12.0904879,6.55406193 L14.4835222,7.61 L14.4835222,3.51744536 C14.4835222,3.24130296 14.7073799,3.01744536 14.9835222,3.01744536 Z" id="router-circle_30" fill="#00090D"></path>
    </g>
</svg>