<?xml version="1.0" encoding="UTF-8"?>
<svg width="24px" height="24px" viewBox="0 0 24 24" version="1.1" xmlns="http://www.w3.org/2000/svg" xmlns:xlink="http://www.w3.org/1999/xlink">
    <!-- Generator: Sketch 60.1 (88133) - https://sketch.com -->
    <title>Networking / router / router-circle_24</title>
    <desc>Created with Sketch.</desc>
    <g id="Networking-/-router-/-router-circle_24" stroke="none" stroke-width="1" fill="none" fill-rule="evenodd">
        <path d="M12,24 C5.372583,24 0,18.627417 0,12 C0,5.372583 5.372583,0 12,0 C18.627417,0 24,5.372583 24,12 C24,18.627417 18.627417,24 12,24 Z M12,23 C18.0751322,23 23,18.0751322 23,12 C23,5.92486775 18.0751322,1 12,1 C5.92486775,1 1,5.92486775 1,12 C1,18.0751322 5.92486775,23 12,23 Z M12.5058583,17.906547 L12.5058583,20.4996339 C12.5058583,20.7757763 12.2820007,20.9996339 12.0058583,20.9996339 C11.7297159,20.9996339 11.5058583,20.7757763 11.5058583,20.4996339 L11.5058583,17.9063506 L10.112824,18.4630173 C10.0466171,18.4894741 9.97226395,18.4864041 9.90846346,18.4545794 C9.78491039,18.3929491 9.73471204,18.2428283 9.79634232,18.1192752 L11.7820358,14.1384635 C11.8062682,14.0898837 11.8456554,14.050512 11.8942447,14.0262986 C12.0178219,13.9647168 12.167923,14.014974 12.2295048,14.1385513 L14.2131716,18.1192077 C14.2449692,18.1830165 14.2480118,18.2573655 14.2215344,18.3235592 C14.170256,18.451755 14.0247634,18.514109 13.8965675,18.4628307 L12.5058583,17.906547 Z M12.5058583,6.09308693 L13.8965675,5.53680323 C14.0247634,5.48552488 14.170256,5.54787886 14.2215344,5.67607474 C14.2480118,5.74226835 14.2449692,5.81661736 14.2131716,5.88042615 L12.2295048,9.86108261 C12.167923,9.98465984 12.0178219,10.0349171 11.8942447,9.97333524 C11.8456554,9.9491219 11.8062682,9.90975016 11.7820358,9.86117036 L9.79634232,5.88035865 C9.73471204,5.75680558 9.78491039,5.60668481 9.90846346,5.54505453 C9.97226395,5.51322981 10.0466171,5.5101598 10.112824,5.53661657 L11.5058583,6.09328327 L11.5058583,3.5 C11.5058583,3.22385763 11.7297159,3 12.0058583,3 C12.2820007,3 12.5058583,3.22385763 12.5058583,3.5 L12.5058583,6.09308693 Z M6.90654696,12.5358583 L7.46283066,13.9265675 C7.51410901,14.0547634 7.45175503,14.200256 7.32355915,14.2515344 C7.25736554,14.2780118 7.18301653,14.2749692 7.11920774,14.2431716 L3.13855128,12.2595048 C3.01497405,12.197923 2.96471683,12.0478219 3.02629865,11.9242447 C3.05051199,11.8756554 3.08988372,11.8362682 3.13846353,11.8120358 L7.11927524,9.82634232 C7.24282831,9.76471204 7.39294908,9.81491039 7.45457936,9.93846346 C7.48640408,10.0022639 7.48947409,10.0766171 7.46301732,10.142824 L6.90635062,11.5358583 L9.49963389,11.5358583 C9.77577626,11.5358583 9.99963389,11.7597159 9.99963389,12.0358583 C9.99963389,12.3120007 9.77577626,12.5358583 9.49963389,12.5358583 L6.90654696,12.5358583 Z M17.0930869,12.5358583 L14.5,12.5358583 C14.2238576,12.5358583 14,12.3120007 14,12.0358583 C14,11.7597159 14.2238576,11.5358583 14.5,11.5358583 L17.0932833,11.5358583 L16.5366166,10.142824 C16.5101598,10.0766171 16.5132298,10.0022639 16.5450545,9.93846346 C16.6066848,9.81491039 16.7568056,9.76471204 16.8803586,9.82634232 L20.8611704,11.8120358 C20.9097502,11.8362682 20.9491219,11.8756554 20.9733352,11.9242447 C21.0349171,12.0478219 20.9846598,12.197923 20.8610826,12.2595048 L16.8804261,14.2431716 C16.8166174,14.2749692 16.7422683,14.2780118 16.6760747,14.2515344 C16.5478789,14.200256 16.4855249,14.0547634 16.5368032,13.9265675 L17.0930869,12.5358583 Z" id="router-circle_24" fill="#00090D"></path>
    </g>
</svg>