<?xml version="1.0" encoding="UTF-8"?>
<svg width="16px" height="16px" viewBox="0 0 16 16" version="1.1" xmlns="http://www.w3.org/2000/svg" xmlns:xlink="http://www.w3.org/1999/xlink">
    <!-- Generator: Sketch 60.1 (88133) - https://sketch.com -->
    <title>Networking / router / router-disconnect_16</title>
    <desc>Created with Sketch.</desc>
    <g id="Networking-/-router-/-router-disconnect_16" stroke="none" stroke-width="1" fill="none" fill-rule="evenodd">
        <path d="M6.57236,11.5636 C6.58198,11.5443 6.59466,11.5267 6.60991,11.5114 L8.28354,9.83778 C8.38015,9.74117 8.54303,9.76771 8.60397,9.89 L10.2132,13.1192 C10.245,13.183 10.248,13.2574 10.2215,13.3236 C10.1703,13.4518 10.0248,13.5141 9.89657,13.4628 L8.50586,12.9065 L8.50586,15.4996 C8.50586,15.7758 8.282,15.9996 8.00586,15.9996 C7.72972,15.9996 7.50586,15.7758 7.50586,15.4996 L7.50586,12.9064 L6.11282,13.463 C6.04662,13.4895 5.97226,13.4864 5.90846,13.4546 C5.78491,13.3929 5.73471,13.2428 5.79634,13.1193 L6.57236,11.5636 Z M9.44786,4.41618 C9.43824,4.4355 9.42554,4.45314 9.41028,4.4684 L7.724,6.15468 C7.62742,6.25126 7.46458,6.22476 7.40361,6.10253 L5.79634,2.88036 C5.73471,2.75681 5.78491,2.60668 5.90846,2.54505 C5.97226,2.51323 6.04662,2.51016 6.11282,2.53662 L7.50586,3.09328 L7.50586,0.5 C7.50586,0.223858 7.72972,0 8.00586,0 C8.282,0 8.50586,0.223858 8.50586,0.5 L8.50586,3.09309 L9.89657,2.5368 C10.0248,2.48552 10.1703,2.54788 10.2215,2.67607 C10.248,2.74227 10.245,2.81662 10.2132,2.88043 L9.44786,4.41618 Z M4.31691,9.56177 L3.79638,10.0823 L0.138551,8.25951 C0.014974,8.19792 -0.0352832,8.04782 0.0262986,7.92424 C0.050512,7.87566 0.0898837,7.83627 0.138464,7.81204 L4.11928,5.82634 C4.24283,5.76471 4.39295,5.81491 4.45458,5.93846 C4.4864,6.00226 4.48947,6.07662 4.46302,6.14282 L3.90635,7.53586 L5.85998,7.53586 C6.03816,7.53586 6.12739,7.75129 6.0014,7.87728 L5.4014,8.47728 C5.36389,8.51479 5.31302,8.53586 5.25998,8.53586 L3.90655,8.53586 L4.31691,9.56177 Z M10.0683,8.53586 C9.89012,8.53586 9.80089,8.32043 9.92688,8.19444 L10.5269,7.59444 C10.5644,7.55693 10.6153,7.53586 10.6683,7.53586 L12.0933,7.53586 L11.6628,6.45854 L12.157,5.96433 L15.8612,7.81204 C15.9098,7.83627 15.9491,7.87566 15.9733,7.92424 C16.0349,8.04782 15.9847,8.19792 15.8611,8.25951 L11.8804,10.2432 C11.8166,10.275 11.7423,10.278 11.6761,10.2515 C11.5479,10.2003 11.4855,10.0548 11.5368,9.92657 L12.0931,8.53586 L10.0683,8.53586 Z M15.1464,0.146447 C15.3417,-0.0488155 15.6583,-0.0488155 15.8536,0.146447 C16.0488,0.341709 16.0488,0.658291 15.8536,0.853553 L0.853553,15.8536 C0.658291,16.0488 0.341709,16.0488 0.146447,15.8536 C-0.0488155,15.6583 -0.0488155,15.3417 0.146447,15.1464 L15.1464,0.146447 Z" id="router-disconnect_16" fill="#9E9EA2"></path>
    </g>
</svg>