<?xml version="1.0" encoding="UTF-8"?>
<svg width="30px" height="30px" viewBox="0 0 30 30" version="1.1" xmlns="http://www.w3.org/2000/svg" xmlns:xlink="http://www.w3.org/1999/xlink">
    <!-- Generator: Sketch 60.1 (88133) - https://sketch.com -->
    <title>Networking / router / router_30</title>
    <desc>Created with Sketch.</desc>
    <g id="Networking-/-router-/-router_30" stroke="none" stroke-width="1" fill="none" fill-rule="evenodd">
        <path d="M15.1451706,18.0262986 C15.1937599,18.050512 15.2331471,18.0898837 15.2573795,18.1384635 L19.243073,25.1192752 C19.3047032,25.2428283 19.2545049,25.3929491 19.1309518,25.4545794 C19.0671513,25.4864041 18.9927982,25.4894741 18.9265913,25.4630173 L15.533557,23.9998169 L15.533557,28.4996339 C15.533557,28.7757763 15.3096993,28.9996339 15.033557,28.9996339 C14.7574146,28.9996339 14.533557,28.7757763 14.533557,28.4996339 L14.533557,23.9998169 L11.1428477,25.4628307 C11.0146519,25.514109 10.8691593,25.451755 10.8178809,25.3235591 C10.7914035,25.2573655 10.7944461,25.1830165 10.8262437,25.1192077 L14.8099105,18.1385513 C14.8714923,18.014974 15.0215933,17.9647168 15.1451706,18.0262986 Z M21.8804261,10.7962437 L28.8610826,14.7799105 C28.9846598,14.8414923 29.0349171,14.9915933 28.9733352,15.1151706 C28.9491219,15.1637599 28.9097502,15.2031471 28.8611704,15.2273795 L21.8803587,19.213073 C21.7568056,19.2747032 21.6066848,19.2245049 21.5450545,19.1009518 C21.5132298,19.0371513 21.5101598,18.9627982 21.5366166,18.8965913 L22.9998169,15.503557 L18.5,15.503557 C18.2238576,15.503557 18,15.2796993 18,15.003557 C18,14.7274146 18.2238576,14.503557 18.5,14.503557 L22.9998169,14.503557 L21.5368032,11.1128477 C21.4855249,10.9846519 21.5478789,10.8391593 21.6760747,10.7878809 C21.7422684,10.7614035 21.8166174,10.7644461 21.8804261,10.7962437 Z M8.2553395,10.7712152 L8.32355915,10.7878809 C8.45175503,10.8391593 8.51410901,10.9846519 8.46283066,11.1128477 L8.46283066,11.1128477 L6.99981694,14.503557 L11.4996339,14.503557 C11.7757763,14.503557 11.9996339,14.7274146 11.9996339,15.003557 C11.9996339,15.2796993 11.7757763,15.503557 11.4996339,15.503557 L11.4996339,15.503557 L6.99981694,15.503557 L8.46301732,18.8965913 C8.48947409,18.9627982 8.48640408,19.0371513 8.45457936,19.1009518 C8.39294908,19.2245049 8.24282831,19.2747032 8.11927524,19.213073 L8.11927524,19.213073 L1.13846353,15.2273795 C1.08988373,15.2031471 1.05051199,15.1637599 1.02629865,15.1151706 C0.96471683,14.9915933 1.01497405,14.8414923 1.13855128,14.7799105 L1.13855128,14.7799105 L8.11920774,10.7962437 C8.18301653,10.7644461 8.25736554,10.7614035 8.32355915,10.7878809 Z M15.033557,1 C15.3096993,1 15.533557,1.2238576 15.533557,1.5 L15.533557,1.5 L15.533557,5.99981694 L18.9265913,4.53661657 C18.9927982,4.5101598 19.0671513,4.51322981 19.1309518,4.54505453 C19.2545049,4.60668481 19.3047032,4.75680558 19.243073,4.88035865 L19.243073,4.88035865 L15.2573795,11.8611704 C15.2331471,11.9097502 15.1937599,11.9491219 15.1451706,11.9733352 C15.0215933,12.0349171 14.8714923,11.9846598 14.8099105,11.8610826 L14.8099105,11.8610826 L10.8262437,4.88042615 C10.7944461,4.81661736 10.7914035,4.74226835 10.8178809,4.67607474 C10.8691593,4.54787886 11.0146519,4.48552488 11.1428477,4.53680323 L11.1428477,4.53680323 L14.533557,5.99981694 L14.533557,1.5 C14.533557,1.2238576 14.7574146,1 15.033557,1 Z" id="router_30" fill="#00090D"></path>
    </g>
</svg>