<?xml version="1.0" encoding="UTF-8"?>
<svg width="24px" height="24px" viewBox="0 0 24 24" version="1.1" xmlns="http://www.w3.org/2000/svg" xmlns:xlink="http://www.w3.org/1999/xlink">
    <!-- Generator: Sketch 60.1 (88133) - https://sketch.com -->
    <title>Networking / router / router_24</title>
    <desc>Created with Sketch.</desc>
    <g id="Networking-/-router-/-router_24" stroke="none" stroke-width="1" fill="none" fill-rule="evenodd">
        <path d="M11.4983675,5.00737264 L11.4983675,1.5 C11.4983675,1.22385763 11.7222251,1 11.9983675,1 C12.2745098,1 12.4983675,1.22385763 12.4983675,1.5 L12.4983675,5.00757304 L14.7850614,3.70180731 C14.8575736,3.66040086 14.9459711,3.65793067 15.0206825,3.6952231 C15.1442189,3.75688675 15.1943767,3.90702108 15.132713,4.03055749 L12.2221284,9.86159697 C12.1979078,9.91012032 12.1585653,9.94945181 12.1100352,9.97365881 C11.9864815,10.0352878 11.8363612,9.98508796 11.7747322,9.86153426 L8.86628633,4.03068971 C8.82901398,3.95596619 8.83150998,3.86756708 8.87293931,3.79506576 C8.9414418,3.6751864 9.09415546,3.63353721 9.21403483,3.70203971 L11.4983675,5.00737264 Z M11.4983675,18.9926274 L9.21403483,20.2979603 C9.09415546,20.3664628 8.9414418,20.3248136 8.87293931,20.2049342 C8.83150998,20.1324329 8.82901398,20.0440338 8.86628633,19.9693103 L11.7747322,14.1384657 C11.8363612,14.014912 11.9864815,13.9647122 12.1100352,14.0263412 C12.1585653,14.0505482 12.1979078,14.0898797 12.2221284,14.138403 L15.132713,19.9694425 C15.1943767,20.0929789 15.1442189,20.2431132 15.0206825,20.3047769 C14.9459711,20.3420693 14.8575736,20.3395991 14.7850614,20.2981927 L12.4983675,18.992427 L12.4983675,22.5 C12.4983675,22.7761424 12.2745098,23 11.9983675,23 C11.7222251,23 11.4983675,22.7761424 11.4983675,22.5 L11.4983675,18.9926274 Z M5.99262736,11.5083675 L9.5,11.5083675 C9.77614237,11.5083675 10,11.7322251 10,12.0083675 C10,12.2845098 9.77614237,12.5083675 9.5,12.5083675 L5.99242696,12.5083675 L7.29819269,14.7950614 C7.33959914,14.8675736 7.34206933,14.9559711 7.3047769,15.0306825 C7.24311325,15.1542189 7.09297892,15.2043767 6.96944251,15.142713 L1.13840303,12.2321284 C1.08987968,12.2079078 1.05054819,12.1685653 1.02634119,12.1200352 C0.964712166,11.9964815 1.01491204,11.8463612 1.13846574,11.7847322 L6.96931029,8.87628633 C7.04403381,8.83901398 7.13243292,8.84150998 7.20493424,8.88293931 C7.3248136,8.9514418 7.36646279,9.10415546 7.29796029,9.22403483 L5.99262736,11.5083675 Z M18.0073726,12.510718 L14.5,12.510718 C14.2238576,12.510718 14,12.2868603 14,12.010718 C14,11.7345756 14.2238576,11.510718 14.5,11.510718 L18.007573,11.510718 L16.7018073,9.22402403 C16.6604009,9.15151187 16.6579307,9.0631143 16.6952231,8.98840297 C16.7568868,8.86486656 16.9070211,8.81470877 17.0305575,8.87637242 L22.861597,11.786957 C22.9101203,11.8111776 22.9494518,11.8505201 22.9736588,11.8990503 C23.0352878,12.022604 22.985088,12.1727242 22.8615343,12.2343532 L17.0306897,15.1427991 C16.9559662,15.1800714 16.8675671,15.1775754 16.7950658,15.1361461 C16.6751864,15.0676436 16.6335372,14.91493 16.7020397,14.7950506 L18.0073726,12.510718 Z" id="router_24" fill="#00090D"></path>
    </g>
</svg>