<?xml version="1.0" encoding="UTF-8"?>
<svg width="16px" height="16px" viewBox="0 0 16 16" version="1.1" xmlns="http://www.w3.org/2000/svg" xmlns:xlink="http://www.w3.org/1999/xlink">
    <!-- Generator: Sketch 60.1 (88133) - https://sketch.com -->
    <title>Networking / signal / RSSI-signal-100_16</title>
    <desc>Created with Sketch.</desc>
    <g id="Networking-/-signal-/-RSSI-signal-100_16" stroke="none" stroke-width="1" fill="none" fill-rule="evenodd">
        <path d="M14,14 C13.724,14 13.5,13.776 13.5,13.5 L13.5,2.5 C13.5,2.224 13.724,2 14,2 C14.276,2 14.5,2.224 14.5,2.5 L14.5,13.5 C14.5,13.776 14.276,14 14,14 Z M2,14 C1.724,14 1.5,13.776 1.5,13.5 L1.5,11.5 C1.5,11.224 1.724,11 2,11 C2.276,11 2.5,11.224 2.5,11.5 L2.5,13.5 C2.5,13.776 2.276,14 2,14 Z M10,14 C9.724,14 9.5,13.776 9.5,13.5 L9.5,5.5 C9.5,5.224 9.724,5 10,5 C10.276,5 10.5,5.224 10.5,5.5 L10.5,13.5 C10.5,13.776 10.276,14 10,14 Z M6,14 C5.724,14 5.5,13.776 5.5,13.5 L5.5,8.5 C5.5,8.224 5.724,8 6,8 C6.276,8 6.5,8.224 6.5,8.5 L6.5,13.5 C6.5,13.776 6.276,14 6,14 Z" id="RSSI-signal-100_16" fill="#00090D"></path>
    </g>
</svg>