<?xml version="1.0" encoding="UTF-8"?>
<svg width="24px" height="24px" viewBox="0 0 24 24" version="1.1" xmlns="http://www.w3.org/2000/svg" xmlns:xlink="http://www.w3.org/1999/xlink">
    <!-- Generator: Sketch 60.1 (88133) - https://sketch.com -->
    <title>Action/feedback/satisfied_24</title>
    <desc>Created with Sketch.</desc>
    <g id="Action/feedback/satisfied_24" stroke="none" stroke-width="1" fill="none" fill-rule="evenodd">
        <path d="M12,1 C5.935,1 1,5.935 1,12 C1,18.065 5.935,23 12,23 C18.065,23 23,18.065 23,12 C23,5.935 18.065,1 12,1 L12,1 Z M12,24 C5.383,24 0,18.617 0,12 C0,5.383 5.383,0 12,0 C18.617,0 24,5.383 24,12 C24,18.617 18.617,24 12,24 Z M17,10 C17,9.448 16.552,9 16,9 C15.448,9 15,9.448 15,10 C15,10.552 15.448,11 16,11 C16.552,11 17,10.552 17,10 Z M9,10 C9,9.448 8.552,9 8,9 C7.448,9 7,9.448 7,10 C7,10.552 7.448,11 8,11 C8.552,11 9,10.552 9,10 Z M12,19 C14.393,19 16.595,17.793 17.892,15.771 C18.041,15.539 17.973,15.229 17.74,15.08 C17.511,14.932 17.199,14.998 17.05,15.231 C15.938,16.965 14.051,18 12,18 C9.949,18 8.062,16.965 6.95,15.231 C6.8,14.997 6.489,14.931 6.26,15.08 C6.027,15.229 5.959,15.539 6.108,15.771 C7.405,17.793 9.607,19 12,19 Z" id="satisfied_24" fill="#00090D"></path>
    </g>
</svg>