<?xml version="1.0" encoding="UTF-8"?>
<svg width="15px" height="16px" viewBox="0 0 15 16" version="1.1" xmlns="http://www.w3.org/2000/svg" xmlns:xlink="http://www.w3.org/1999/xlink">
    <!-- Generator: Sketch 60.1 (88133) - https://sketch.com -->
    <title>Action/save/save-cloud_16</title>
    <desc>Created with Sketch.</desc>
    <g id="Action/save/save-cloud_16" stroke="none" stroke-width="1" fill="none" fill-rule="evenodd">
        <path d="M7,7 C5.626,7 4.508,8.118 4.508,9.492 C4.513,9.734 4.35,10.004 4.112,10.051 C3.178,10.235 2.5,11.055 2.5,12 C2.5,13.103 3.397,14 4.5,14 L9.999,14 C11.377,14 12.499,12.878 12.499,11.5 C12.499,10.122 11.377,9 9.999,9 L9.938,9.005 C9.711,9.032 9.419,8.9 9.343,8.679 C8.994,7.675 8.052,7 7,7 Z M9.999,15 L4.5,15 C2.846,15 1.5,13.654 1.5,12 C1.5,10.712 2.335,9.58 3.535,9.172 C3.721,7.363 5.204,6 7,6 C8.353,6 9.573,6.791 10.145,8.003 C12.007,8.08 13.499,9.619 13.499,11.5 C13.499,13.43 11.928,15 9.999,15 Z M4.85296886,1.14586304 L7.50932985,3.79346211 L10.15611,1.14646134 C10.351364,0.951191063 10.6679465,0.951177871 10.8632168,1.14643188 C11.0584871,1.34168589 11.0585003,1.65826838 10.8632463,1.85353866 L7.86349628,4.85353866 C7.66846456,5.04858664 7.35232108,5.04885435 7.1569593,4.85413697 L4.14703115,1.85413697 C3.95144671,1.65919765 3.95092373,1.34261559 4.14586304,1.14703115 C4.34080236,0.951446706 4.65738441,0.950923725 4.85296886,1.14586304 Z" id="save-cloud_16" fill="#00090D"></path>
    </g>
</svg>