<?xml version="1.0" encoding="UTF-8"?>
<svg width="16px" height="16px" viewBox="0 0 16 16" version="1.1" xmlns="http://www.w3.org/2000/svg" xmlns:xlink="http://www.w3.org/1999/xlink">
    <!-- Generator: Sketch 60.1 (88133) - https://sketch.com -->
    <title>Action/save/save-drive_16</title>
    <desc>Created with Sketch.</desc>
    <g id="Action/save/save-drive_16" stroke="none" stroke-width="1" fill="none" fill-rule="evenodd">
        <path d="M14,8 C14.5522847,8 15,8.44771525 15,9 L15,12 C15,12.5522847 14.5522847,13 14,13 L2,13 C1.44771525,13 1,12.5522847 1,12 L1,9 C1,8.44771525 1.44771525,8 2,8 L14,8 Z M14,9 L2,9 L2,12 L14,12 L14,9 Z M12.5,10 C12.7761424,10 13,10.2238576 13,10.5 C13,10.7454599 12.8231248,10.9496084 12.5898756,10.9919443 L12.5,11 L11.5,11 C11.2238576,11 11,10.7761424 11,10.5 C11,10.2545401 11.1768752,10.0503916 11.4101244,10.0080557 L11.5,10 L12.5,10 Z M5.35296886,3.14586304 L8.00932985,5.79346211 L10.65611,3.14646134 C10.851364,2.95119106 11.1679465,2.95117787 11.3632168,3.14643188 C11.5584871,3.34168589 11.5585003,3.65826838 11.3632463,3.85353866 L8.36349628,6.85353866 C8.16846456,7.04858664 7.85232108,7.04885435 7.6569593,6.85413697 L4.64703115,3.85413697 C4.45144671,3.65919765 4.45092373,3.34261559 4.64586304,3.14703115 C4.84080236,2.95144671 5.15738441,2.95092373 5.35296886,3.14586304 Z" id="save-drive_16" fill="#00090D"></path>
    </g>
</svg>