<?xml version="1.0" encoding="UTF-8"?>
<svg width="16px" height="16px" viewBox="0 0 16 16" version="1.1" xmlns="http://www.w3.org/2000/svg" xmlns:xlink="http://www.w3.org/1999/xlink">
    <!-- Generator: Sketch 60.1 (88133) - https://sketch.com -->
    <title>Action/save/save-disk_16</title>
    <desc>Created with Sketch.</desc>
    <g id="Action/save/save-disk_16" stroke="none" stroke-width="1" fill="none" fill-rule="evenodd">
        <path d="M12,2 L12,5.5 C12,5.77614237 11.7985281,6 11.55,6 L3.45,6 C3.20147186,6 3,5.77614237 3,5.5 L3,2 L2.46153846,2 C2.20663781,2 2,2.20663781 2,2.46153846 L2,13.5384615 C2,13.7933622 2.20663781,14 2.46153846,14 L3,14 L3,8.875 C3,8.39175084 3.40701386,8 3.90909091,8 L12.0909091,8 C12.5929861,8 13,8.39175084 13,8.875 L13,14 L13.5384615,14 C13.7933622,14 14,13.7933622 14,13.5384615 L14,3.57579087 L12.4242091,2 L12,2 Z M2.4,15 C1.62680135,15 1,14.3731986 1,13.6 L1,2.4 C1,1.62680135 1.62680135,1 2.4,1 L12.6666667,1 C12.7904344,1 12.9091329,1.04916653 12.9966498,1.1366835 L14.8633165,3.00335017 C14.9508335,3.09086715 15,3.20956564 15,3.33333333 L15,13.6 C15,14.3731986 14.3731986,15 13.6,15 L2.4,15 Z M9.5,4.5 C9.22385763,4.5 9,4.27614237 9,4 L9,3 C9,2.72385763 9.22385763,2.5 9.5,2.5 C9.77614237,2.5 10,2.72385763 10,3 L10,4 C10,4.27614237 9.77614237,4.5 9.5,4.5 Z M12,14 L12,9 L4,9 L4,14 L12,14 Z M5.25,10 L10.75,10 C10.8880712,10 11,10.1119288 11,10.25 C11,10.3880712 10.8880712,10.5 10.75,10.5 L5.25,10.5 C5.11192881,10.5 5,10.3880712 5,10.25 C5,10.1119288 5.11192881,10 5.25,10 Z M5.25,11.25 L10.75,11.25 C10.8880712,11.25 11,11.3619288 11,11.5 C11,11.6380712 10.8880712,11.75 10.75,11.75 L5.25,11.75 C5.11192881,11.75 5,11.6380712 5,11.5 C5,11.3619288 5.11192881,11.25 5.25,11.25 Z M5.25,12.5 L10.75,12.5 C10.8880712,12.5 11,12.6119288 11,12.75 C11,12.8880712 10.8880712,13 10.75,13 L5.25,13 C5.11192881,13 5,12.8880712 5,12.75 C5,12.6119288 5.11192881,12.5 5.25,12.5 Z M4,5 L11,5 L11,2 L4,2 L4,5 Z" id="save-disk_16" fill="#00090D"></path>
    </g>
</svg>