<?xml version="1.0" encoding="UTF-8"?>
<svg width="24px" height="24px" viewBox="0 0 24 24" version="1.1" xmlns="http://www.w3.org/2000/svg" xmlns:xlink="http://www.w3.org/1999/xlink">
    <!-- Generator: Sketch 60.1 (88133) - https://sketch.com -->
    <title>Action/search/search_24</title>
    <desc>Created with Sketch.</desc>
    <g id="Action/search/search_24" stroke="none" stroke-width="1" fill="none" fill-rule="evenodd">
        <path d="M10,18 C5.589,18 2,14.411 2,10 C2,5.589 5.589,2 10,2 C14.411,2 18,5.589 18,10 C18,14.411 14.411,18 10,18 M22.854,22.146 L16.698,15.991 C18.124,14.398 19,12.302 19,10 C19,5.037 14.963,1 10,1 C5.038,1 1,5.037 1,10 C1,14.963 5.038,19 10,19 C12.302,19 14.398,18.124 15.991,16.698 L22.146,22.854 C22.244,22.951 22.372,23 22.5,23 C22.628,23 22.756,22.951 22.854,22.854 C23.049,22.658 23.049,22.342 22.854,22.146" id="search_24" fill="#00090D"></path>
    </g>
</svg>