<?xml version="1.0" encoding="UTF-8"?>
<svg width="18px" height="18px" viewBox="0 0 18 18" version="1.1" xmlns="http://www.w3.org/2000/svg" xmlns:xlink="http://www.w3.org/1999/xlink">
    <!-- Generator: Sketch 60.1 (88133) - https://sketch.com -->
    <title>Action/search/search_18</title>
    <desc>Created with Sketch.</desc>
    <g id="Action/search/search_18" stroke="none" stroke-width="1" fill="none" fill-rule="evenodd">
        <path d="M7.5,14 C3.916,14 1,11.084 1,7.5 C1,3.916 3.916,1 7.5,1 C11.084,1 14,3.916 14,7.5 C14,11.084 11.084,14 7.5,14 M17.854,17.146 L13.138,12.431 C14.293,11.11 15,9.389 15,7.5 C15,3.364 11.636,0 7.5,0 C3.364,0 -3.55271368e-15,3.364 -3.55271368e-15,7.5 C-3.55271368e-15,11.636 3.364,15 7.5,15 C9.388,15 11.11,14.293 12.431,13.138 L17.146,17.854 C17.244,17.951 17.372,18 17.5,18 C17.628,18 17.756,17.951 17.854,17.854 C18.049,17.658 18.049,17.342 17.854,17.146" id="search_18" fill="#00090D"></path>
    </g>
</svg>