<?xml version="1.0" encoding="UTF-8"?>
<svg width="16px" height="16px" viewBox="0 0 16 16" version="1.1" xmlns="http://www.w3.org/2000/svg" xmlns:xlink="http://www.w3.org/1999/xlink">
    <!-- Generator: Sketch 60.1 (88133) - https://sketch.com -->
    <title>Action/search/search_16</title>
    <desc>Created with Sketch.</desc>
    <g id="Action/search/search_16" stroke="none" stroke-width="1" fill="none" fill-rule="evenodd">
        <path d="M6.5,12 C3.467,12 1,9.533 1,6.5 C1,3.467 3.467,1 6.5,1 C9.533,1 12,3.467 12,6.5 C12,9.533 9.533,12 6.5,12 M15.854,15.146 L11.431,10.724 C12.406,9.586 13,8.112 13,6.5 C13,2.916 10.084,0 6.5,0 C2.916,0 0,2.916 0,6.5 C0,10.084 2.916,13 6.5,13 C8.112,13 9.586,12.406 10.724,11.431 L15.146,15.854 C15.244,15.951 15.372,16 15.5,16 C15.628,16 15.756,15.951 15.854,15.854 C16.049,15.658 16.049,15.342 15.854,15.146" id="search_16" fill="#00090D"></path>
    </g>
</svg>