<?xml version="1.0" encoding="UTF-8"?>
<svg width="16px" height="16px" viewBox="0 0 16 16" version="1.1" xmlns="http://www.w3.org/2000/svg" xmlns:xlink="http://www.w3.org/1999/xlink">
    <title>Action/send_16</title>
    <g id="Action/send_16" stroke="none" stroke-width="1" fill="none" fill-rule="evenodd">
        <path d="M1.0231,14.992 C1.0091,14.981 0.9951,14.965 1.0021,14.926 L2.2491,8.5 L14.0741,8.5 L1.0231,14.992 Z M1.0021,1.071 C0.9951,1.034 1.0091,1.018 1.0221,1.008 C1.0291,1.003 1.0351,1 1.0411,1 L1.0561,1.004 L14.0781,7.5 L2.2491,7.5 L1.0021,1.071 L1.0021,1.071 Z M15.4171,7.05 L1.5021,0.109 C1.3551,0.036 1.1981,0 1.0411,0 C0.8211,0 0.6031,0.071 0.4181,0.211 C0.0941,0.457 -0.0589,0.86 0.0201,1.264 L1.3271,8 L0.0201,14.735 C-0.0589,15.139 0.0941,15.542 0.4181,15.788 C0.6031,15.928 0.8211,16 1.0411,16 C1.1981,16 1.3561,15.963 1.5021,15.89 L15.4171,8.949 C15.7761,8.77 16.0001,8.406 16.0001,8 C16.0001,7.593 15.7761,7.229 15.4171,7.05 Z" id="send_16" fill="#545454"></path>
    </g>
</svg>