<?xml version="1.0" encoding="UTF-8"?>
<svg width="24px" height="24px" viewBox="0 0 24 24" version="1.1" xmlns="http://www.w3.org/2000/svg" xmlns:xlink="http://www.w3.org/1999/xlink">
    <!-- Generator: Sketch 60.1 (88133) - https://sketch.com -->
    <title>Networking / sensor / sensor_24</title>
    <desc>Created with Sketch.</desc>
    <g id="Networking-/-sensor-/-sensor_24" stroke="none" stroke-width="1" fill="none" fill-rule="evenodd">
        <path d="M6,3.500316 C6,3.682671 5.90244,3.850511 5.74726,3.946297 C2.85896,5.72919 1,8.70534 1,12.00078 C1,15.2962 2.85896,18.2625271 5.74726,20.0454271 C5.90244,20.1412271 6,20.3090271 6,20.4913271 C6,20.8755271 5.59346,21.1204271 5.26561,20.9202271 C2.08768,18.9798271 0,15.7144 0,12.00078 C0,8.28718 2.08768,5.01189 5.26561,3.0714865 C5.59346,2.871307 6,3.116185 6,3.500316 Z M18,20.4890594 C18,20.3067594 18.0976,20.1389594 18.2527,20.0431594 C21.141,18.2602594 23,15.2962 23,12.00078 C23,8.70534 21.141,5.72919 18.2527,3.946296 C18.0976,3.850511 18,3.68267 18,3.500315 C18,3.116186 18.4065,2.871306 18.7344,3.0714856 C21.9123,5.01189 24,8.28718 24,12.00078 C24,15.7144 21.9123,18.9775594 18.7344,20.9179594 C18.4065,21.1181594 18,20.8732594 18,20.4890594 Z M8,6.50896525 C8,6.69158624 7.90648211,6.8600347 7.75833102,6.96237504 C6.06068038,8.13500581 4.99296977,9.98590113 4.99296977,11.9999834 C4.99296977,14.0140759 6.06068038,15.8650219 7.75833102,17.0376526 C7.90648211,17.1399423 8,17.3084313 8,17.4910118 C8,17.8864844 7.5904099,18.1372918 7.26722803,17.9193307 C5.28594551,16.5831784 4,14.4294185 4,11.9999834 C4,9.57056864 5.28594551,7.41678847 7.26722803,6.08065646 C7.5904099,5.86271563 8,6.11353311 8,6.50896525 Z M16,17.490945 C16,17.3083406 16.0935638,17.1399309 16.2416567,17.0375264 C17.9392133,15.8647419 19.0067541,14.0139587 19.0067541,12 C19.0067541,9.986087 17.9392133,8.1352835 16.2416567,6.96245838 C16.0935638,6.86010462 16,6.69165435 16,6.50903981 C16,6.11350512 16.4098133,5.86266488 16.7330155,6.08071541 C18.7142431,7.4170835 20,9.570771 20,12 C20,14.4292544 18.7142431,16.5828912 16.7330155,17.9193201 C16.4098133,18.1373098 16,17.8864696 16,17.490945 Z" id="sensor_24" fill="#00090D"></path>
        <circle id="secondary-color" fill="#FFA000" cx="12" cy="12" r="3"></circle>
    </g>
</svg>