<?xml version="1.0" encoding="UTF-8"?>
<svg width="24px" height="24px" viewBox="0 0 24 24" version="1.1" xmlns="http://www.w3.org/2000/svg" xmlns:xlink="http://www.w3.org/1999/xlink">
    <!-- Generator: Sketch 60.1 (88133) - https://sketch.com -->
    <title>Networking / sensor / sensor-square_24</title>
    <desc>Created with Sketch.</desc>
    <g id="Networking-/-sensor-/-sensor-square_24" stroke="none" stroke-width="1" fill="none" fill-rule="evenodd">
        <path d="M20.5,1 C21.8807119,1 23,2.11928813 23,3.5 L23,20.5 C23,21.8807119 21.8807119,23 20.5,23 L3.5,23 C2.11928813,23 1,21.8807119 1,20.5 L1,3.5 C1,2.11928813 2.11928813,1 3.5,1 L20.5,1 Z M20.5,2 L3.5,2 C2.72030388,2 2.07955132,2.59488808 2.00686658,3.35553999 L2,3.5 L2,20.5 C2,21.2796961 2.59488808,21.9204487 3.35553999,21.9931334 L3.5,22 L20.5,22 C21.2796961,22 21.9204487,21.4051119 21.9931334,20.64446 L22,20.5 L22,3.5 C22,2.72030388 21.4051119,2.07955132 20.64446,2.00686658 L20.5,2 Z M5.49654,6 C5.91875,6 6.13452,6.543448 5.86347,6.867154 C4.70026,8.25634 4,10.04639 4,12 C4,13.95361 4.70026,15.74366 5.86347,17.1328 C6.13452,17.4566 5.91875,18 5.49654,18 C5.36618,18 5.24151,17.9449 5.15679,17.8458 C3.812067,16.2732 3,14.23141 3,12 C3,9.76859 3.812067,7.72685 5.15679,6.154187 C5.24151,6.0551082 5.36618,6 5.49654,6 Z M18.5035,6 C18.6338,6 18.7585,6.055108 18.8432,6.154187 C20.1879,7.72685 21,9.76859 21,12 C21,14.23141 20.1879,16.2732 18.8432,17.8458 C18.7585,17.9449 18.6338,18 18.5035,18 C18.0813,18 17.8655,17.4566 18.1365,17.1328 C19.2997,15.74366 20,13.95361 20,12 C20,10.04639 19.2997,8.25634 18.1365,6.867154 C17.8655,6.543448 18.0813,6 18.5035,6 Z M7.71888,8 C8.12951,8 8.33967,8.56928 8.08411,8.8907 C7.40546,9.74426 7,10.82478 7,12 C7,13.17522 7.40546,14.25574 8.08411,15.10931 C8.33967,15.43072 8.12951,16 7.71888,16 C7.59728,16 7.48081,15.94875 7.40262,15.85562 C6.52721,14.81289 6,13.46801 6,12 C6,10.53199 6.52721,9.18711 7.40262,8.14438 C7.48081,8.05125 7.59728,8 7.71888,8 Z M16.2811,8 C16.4027,8 16.5192,8.05125 16.5974,8.14438 C17.4728,9.18711 18,10.53199 18,12 C18,13.46801 17.4728,14.81289 16.5974,15.85562 C16.5192,15.94875 16.4027,16 16.2811,16 C15.8705,16 15.6603,15.43072 15.9159,15.10931 C16.5945,14.25574 17,13.17522 17,12 C17,10.82478 16.5945,9.74426 15.9159,8.89069 C15.6603,8.56928 15.8705,8 16.2811,8 Z" id="sensor-square_24" fill="#00090D"></path>
        <circle id="secondary-color" fill="#FFA000" cx="12" cy="12" r="2.5"></circle>
    </g>
</svg>