<?xml version="1.0" encoding="UTF-8"?>
<svg width="16px" height="16px" viewBox="0 0 16 16" version="1.1" xmlns="http://www.w3.org/2000/svg" xmlns:xlink="http://www.w3.org/1999/xlink">
    <!-- Generator: Sketch 60.1 (88133) - https://sketch.com -->
    <title>Networking / sensor / sensor-disabled_16</title>
    <desc>Created with Sketch.</desc>
    <g id="Networking-/-sensor-/-sensor-disabled_16" stroke="none" stroke-width="1" fill="none" fill-rule="evenodd">
        <path d="M4,2.516387 C4,2.694948 3.90762,2.859942 3.76079,2.961546 C2.06902,4.13217 1,5.97949 1,8.00275 C1,10.02602 2.06902,11.87334 3.76079,13.044 C3.90762,13.1456 4,13.3106 4,13.4891 C4,13.8819 3.58325,14.1293 3.25785,13.9094 C1.28187,12.5742 0,10.42569 0,8.00275 C0,5.57982 1.28187,3.43133 3.25785,2.0960708 C3.58325,1.876179 4,2.123651 4,2.516387 Z M12,13.4891 C12,13.3106 12.0924,13.1456 12.2392,13.044 C13.931,11.87334 15,10.02602 15,8.00275 C15,5.97949 13.931,4.13217 12.2392,2.961546 C12.0924,2.859942 12,2.694948 12,2.516387 C12,2.123651 12.4167,1.876179 12.7422,2.0960711 C14.7181,3.43133 16,5.57982 16,8.00275 C16,10.42569 14.7181,12.5742 12.7422,13.9094 C12.4167,14.1293 12,13.8819 12,13.4891 Z M5.33867,4.65975 C5.33867,4.83404 5.25236,4.99567 5.11663,5.105 C4.2082,5.83668 3.65332,6.89824 3.65332,8.03386 C3.65332,9.16947 4.2082,10.23103 5.11663,10.96272 C5.25236,11.07204 5.33867,11.23368 5.33867,11.40796 C5.33867,11.81173 4.91056,12.0638 4.58959,11.81885 C3.40643,10.91584 2.65332,9.55547 2.65332,8.03386 C2.65332,6.51225 3.40643,5.15188 4.58959,4.24887 C4.91056,4.0039 5.33867,4.25598 5.33867,4.65975 Z M10.709,11.40767 C10.709,11.2334 10.7953,11.07178 10.931,10.96245 C11.8392,10.23077 12.394,9.16933 12.394,8.03386 C12.394,6.89838 11.8392,5.83694 10.931,5.10526 C10.7953,4.99594 10.709,4.83431 10.709,4.66004 C10.709,4.25625 11.1372,4.00416 11.4581,4.24918 C12.6411,5.15219 13.394,6.51242 13.394,8.03386 C13.394,9.55529 12.6411,10.91553 11.4581,11.81854 C11.1372,12.0636 10.709,11.81147 10.709,11.40767 Z M8,10 C6.8954305,10 6,9.1045695 6,8 C6,6.8954305 6.8954305,6 8,6 C9.1045695,6 10,6.8954305 10,8 C10,9.1045695 9.1045695,10 8,10 Z" id="sensor-disabled_16" fill="#9E9EA2"></path>
    </g>
</svg>