<?xml version="1.0" encoding="UTF-8"?>
<svg width="16px" height="16px" viewBox="0 0 16 16" version="1.1" xmlns="http://www.w3.org/2000/svg" xmlns:xlink="http://www.w3.org/1999/xlink">
    <!-- Generator: Sketch 60.1 (88133) - https://sketch.com -->
    <title>Networking / sensor / sensor-square_16</title>
    <desc>Created with Sketch.</desc>
    <g id="Networking-/-sensor-/-sensor-square_16" stroke="none" stroke-width="1" fill="none" fill-rule="evenodd">
        <path d="M14,0 C15.1045695,0 16,0.8954305 16,2 L16,14 C16,15.1045695 15.1045695,16 14,16 L2,16 C0.8954305,16 0,15.1045695 0,14 L0,2 C0,0.8954305 0.8954305,0 2,0 L14,0 Z M14,1 L2,1 C1.44771525,1 1,1.44771525 1,2 L1,14 C1,14.5522847 1.44771525,15 2,15 L14,15 C14.5522847,15 15,14.5522847 15,14 L15,2 C15,1.44771525 14.5522847,1 14,1 Z M3.71888,4 C4.12951,4 4.33967,4.569278 4.08411,4.890695 C3.40546,5.74426 3,6.82478 3,8 C3,9.17522 3.40546,10.25574 4.08411,11.10931 C4.33967,11.43072 4.12951,12 3.71888,12 C3.59728,12 3.48081,11.94875 3.40262,11.85562 C2.527211,10.81289 2,9.46801 2,8 C2,6.53199 2.527211,5.18711 3.40262,4.14438 C3.48081,4.0512526 3.59728,4 3.71888,4 Z M12.2811,4 C12.4027,4 12.5192,4.0512522 12.5974,4.144379 C13.4728,5.18711 14,6.53199 14,8 C14,9.46801 13.4728,10.81289 12.5974,11.85562 C12.5192,11.94875 12.4027,12 12.2811,12 C11.87049,12 11.66033,11.43072 11.91589,11.10931 C12.5945,10.25574 13,9.17522 13,8 C13,6.82478 12.5945,5.74426 11.91589,4.890695 C11.66033,4.569277 11.87049,4 12.2811,4 Z M5.0627,5.5 C5.44506,5.5 5.65905,6.08523 5.45601,6.40923 C5.16706,6.87037 5,7.41567 5,8 C5,8.58433 5.16706,9.12963 5.45601,9.59077 C5.65905,9.91477 5.44506,10.5 5.0627,10.5 C4.94551,10.5 4.83374,10.44745 4.76474,10.35273 C4.28377,9.69248 4,8.87938 4,8 C4,7.12062 4.28377,6.30752 4.76474,5.64727 C4.83374,5.55255 4.94551,5.5 5.0627,5.5 Z M10.9373,5.5 C11.05449,5.5 11.16626,5.55255 11.23526,5.64727 C11.71623,6.30752 12,7.12062 12,8 C12,8.87938 11.71623,9.69248 11.23526,10.35273 C11.16626,10.44745 11.05449,10.5 10.9373,10.5 C10.55494,10.5 10.34095,9.91477 10.54399,9.59077 C10.83294,9.12963 11,8.58433 11,8 C11,7.41567 10.83294,6.87037 10.54399,6.40923 C10.34095,6.08523 10.55494,5.5 10.9373,5.5 Z" id="sensor-square_16" fill="#00090D"></path>
        <circle id="secondary-color" fill="#FFA000" cx="8" cy="8" r="1.5"></circle>
    </g>
</svg>