<?xml version="1.0" encoding="UTF-8"?>
<svg width="18px" height="18px" viewBox="0 0 18 18" version="1.1" xmlns="http://www.w3.org/2000/svg" xmlns:xlink="http://www.w3.org/1999/xlink">
    <!-- Generator: Sketch 60.1 (88133) - https://sketch.com -->
    <title>Action/settings/settings_18</title>
    <desc>Created with Sketch.</desc>
    <g id="Action/settings/settings_18" stroke="none" stroke-width="1" fill="none" fill-rule="evenodd">
        <path d="M6.0249,13.75 C6.0899,13.75 6.1539,13.763 6.2159,13.788 L7.5849,14.354 C7.7189,14.408 7.8219,14.52 7.8679,14.657 L8.5419,16.673 C8.6739,17.067 9.3279,17.061 9.4569,16.672 L10.1259,14.656 C10.1709,14.519 10.2749,14.407 10.4089,14.352 L11.7759,13.784 C11.9089,13.729 12.0609,13.734 12.1909,13.799 L14.0969,14.749 C14.2819,14.842 14.5039,14.805 14.6509,14.659 C14.7999,14.51 14.8359,14.287 14.7439,14.102 L13.7909,12.2 C13.7259,12.07 13.7199,11.919 13.7759,11.785 L14.3439,10.416 C14.3999,10.281 14.5109,10.179 14.6489,10.133 L16.6709,9.463 C16.8679,9.397 16.9999,9.215 16.9999,9.008 L16.9999,9.003 C16.9999,8.797 16.8679,8.614 16.6719,8.548 L14.6479,7.871 C14.5099,7.824 14.3999,7.721 14.3439,7.587 L13.7789,6.218 C13.7239,6.084 13.7299,5.933 13.7949,5.803 L14.7519,3.898 C14.8449,3.713 14.8089,3.49 14.6619,3.344 C14.5129,3.195 14.2909,3.158 14.1059,3.251 L12.1959,4.205 C12.0659,4.27 11.9129,4.274 11.7809,4.22 L10.4129,3.652 C10.2789,3.597 10.1759,3.486 10.1299,3.349 L9.4579,1.329 C9.3239,0.931 8.6719,0.937 8.5429,1.329 L7.8709,3.348 C7.8249,3.485 7.7209,3.596 7.5869,3.651 L6.2189,4.218 C6.0849,4.273 5.9339,4.269 5.8039,4.203 L3.9029,3.252 C3.7179,3.16 3.4959,3.196 3.3489,3.342 C3.1999,3.492 3.1639,3.714 3.2559,3.898 L4.2079,5.804 C4.2729,5.934 4.2779,6.085 4.2219,6.219 L3.6569,7.585 C3.6019,7.72 3.4909,7.822 3.3539,7.868 L1.3269,8.547 C1.1309,8.613 0.9999,8.796 0.9999,9.003 C0.9999,9.216 1.1319,9.398 1.3289,9.464 L3.3479,10.134 C3.4849,10.18 3.5959,10.282 3.6519,10.416 L4.2209,11.782 C4.2759,11.916 4.2719,12.067 4.2069,12.197 L3.2549,14.11 C3.1629,14.295 3.1989,14.518 3.3449,14.663 C3.4949,14.813 3.7179,14.851 3.9029,14.756 L5.7999,13.803 C5.8709,13.768 5.9479,13.75 6.0249,13.75 L6.0249,13.75 Z M9.0009,18 C8.3599,18 7.7959,17.594 7.5939,16.99 L6.9919,15.19 L6.0459,14.8 L4.3519,15.65 C3.7779,15.937 3.0919,15.826 2.6409,15.372 C2.1879,14.92 2.0759,14.234 2.3589,13.665 L3.2099,11.956 L2.8169,11.011 L1.0139,10.413 C0.4079,10.212 -0.0001,9.647 -0.0001,9.008 C-0.0001,8.365 0.4059,7.802 1.0099,7.6 L2.8199,6.993 L3.2109,6.047 L2.3609,4.346 C2.0759,3.775 2.1879,3.09 2.6389,2.639 C3.0929,2.184 3.7799,2.071 4.3499,2.357 L6.0469,3.207 L6.9939,2.814 L7.5939,1.013 C7.7959,0.407 8.3599,0 8.9979,0 C9.6399,0 10.2039,0.407 10.4059,1.013 L11.0069,2.816 L11.9529,3.209 L13.6589,2.356 C14.2319,2.07 14.9179,2.184 15.3669,2.636 C15.8209,3.089 15.9319,3.776 15.6449,4.348 L14.7909,6.048 L15.1809,6.995 L16.9899,7.6 C17.5939,7.803 17.9999,8.366 17.9999,9.003 L17.9999,9.008 C17.9999,9.646 17.5919,10.211 16.9849,10.412 L15.1799,11.01 L14.7869,11.957 L15.6379,13.654 C15.9229,14.225 15.8129,14.911 15.3609,15.363 C14.9069,15.816 14.2199,15.93 13.6499,15.644 L11.9489,14.795 L11.0029,15.187 L10.4059,16.986 C10.2049,17.593 9.6399,18 9.0009,18 Z M9,6 C10.654,6 12,7.346 12,9 C12,10.654 10.654,12 9,12 C7.346,12 6,10.654 6,9 C6,7.346 7.346,6 9,6 Z M9,13 C11.206,13 13,11.206 13,9 C13,6.794 11.206,5 9,5 C6.794,5 5,6.794 5,9 C5,11.206 6.794,13 9,13 Z" id="settings_18" fill="#00090D"></path>
    </g>
</svg>