<?xml version="1.0" encoding="UTF-8"?>
<svg width="24px" height="24px" viewBox="0 0 24 24" version="1.1" xmlns="http://www.w3.org/2000/svg" xmlns:xlink="http://www.w3.org/1999/xlink">
    <!-- Generator: Sketch 60.1 (88133) - https://sketch.com -->
    <title>Topology/sever-topology_24</title>
    <desc>Created with Sketch.</desc>
    <g id="Topology/sever-topology_24" stroke="none" stroke-width="1" fill="none" fill-rule="evenodd">
        <path d="M18,1 L18,22.6857143 C18,23.4115742 17.4115742,24 16.6857143,24 L7.31428571,24 C6.58842576,24 6,23.4115742 6,22.6857143 L6,1.31428571 C6,0.588425757 6.58842576,0 7.31428571,0 L17,0 C17.5522847,0 18,0.44771525 18,1 Z" id="secondary-color" fill="#FFA000"></path>
        <path d="M16,5.5 C16,5.77614237 15.7761424,6 15.5,6 L8.5,6 C8.22385763,6 8,5.77614237 8,5.5 C8,5.22385763 8.22385763,5 8.5,5 L15.5,5 C15.7761424,5 16,5.22385763 16,5.5 Z M16,9.5 C16,9.77614237 15.7761424,10 15.5,10 L8.5,10 C8.22385763,10 8,9.77614237 8,9.5 C8,9.22385763 8.22385763,9 8.5,9 L15.5,9 C15.7761424,9 16,9.22385763 16,9.5 Z M16,7.5 C16,7.77614237 15.7761424,8 15.5,8 L8.5,8 C8.22385763,8 8,7.77614237 8,7.5 C8,7.22385763 8.22385763,7 8.5,7 L15.5,7 C15.7761424,7 16,7.22385763 16,7.5 Z M13,20.5 C13,20.7761424 12.7761424,21 12.5,21 L11.5,21 C11.2238576,21 11,20.7761424 11,20.5 C11,20.2238576 11.2238576,20 11.5,20 L12.5,20 C12.7761424,20 13,20.2238576 13,20.5 Z" id="sever-topology_24" fill="#000000" fill-rule="nonzero"></path>
    </g>
</svg>