<?xml version="1.0" encoding="UTF-8"?>
<svg width="16px" height="16px" viewBox="0 0 16 16" version="1.1" xmlns="http://www.w3.org/2000/svg" xmlns:xlink="http://www.w3.org/1999/xlink">
    <!-- Generator: Sketch 60.1 (88133) - https://sketch.com -->
    <title>Action / share_16</title>
    <desc>Created with Sketch.</desc>
    <g id="Action-/-share_16" stroke="none" stroke-width="1" fill="none" fill-rule="evenodd">
        <path d="M12,15 C10.897,15 10,14.103 10,13 C10,11.897 10.897,11 12,11 C13.103,11 14,11.897 14,13 C14,14.103 13.103,15 12,15 M4,10 C2.897,10 2,9.103 2,8 C2,6.897 2.897,6 4,6 C5.103,6 6,6.897 6,8 C6,9.103 5.103,10 4,10 M12,1 C13.103,1 14,1.897 14,3 C14,4.103 13.103,5 12,5 C10.897,5 10,4.103 10,3 C10,1.897 10.897,1 12,1 M12,10 C11.108,10 10.316,10.396 9.767,11.015 L6.772,9.143 C6.917,8.791 7,8.405 7,8 C7,7.595 6.917,7.209 6.772,6.857 L9.767,4.985 C10.316,5.603 11.108,6 12,6 C13.657,6 15,4.657 15,3 C15,1.343 13.657,0 12,0 C10.343,0 9,1.343 9,3 C9,3.405 9.083,3.791 9.229,4.143 L6.233,6.015 C5.684,5.397 4.892,5 4,5 C2.343,5 1,6.343 1,8 C1,9.657 2.343,11 4,11 C4.892,11 5.684,10.604 6.233,9.985 L9.229,11.856 C9.083,12.209 9,12.595 9,13 C9,14.657 10.343,16 12,16 C13.657,16 15,14.657 15,13 C15,11.343 13.657,10 12,10" id="share_16" fill="#00090D"></path>
    </g>
</svg>