<?xml version="1.0" encoding="UTF-8"?>
<svg width="16px" height="16px" viewBox="0 0 16 16" version="1.1" xmlns="http://www.w3.org/2000/svg" xmlns:xlink="http://www.w3.org/1999/xlink">
    <title>Networking / site / site-filled_16</title>
    <g id="Networking-/-site-/-site-filled_16" stroke="none" stroke-width="1" fill="none" fill-rule="evenodd">
        <path d="M11.9523741,1.56656749 C11.9840296,1.70901729 12,1.85450372 12,2.00042841 L12,6.014 L14,6.01422155 C15.1045695,6.01422155 16,6.90965205 16,8.01422155 L16,16 L12,15.999 L12,16 L9,16 L9,12.0142216 C9,10 8,9 6,9.01422155 L3,9.01422155 L3,3.11153952 C3,2.17414222 3.65106397,1.36251542 4.56613908,1.1591654 L9.56613908,0.048054288 C10.6444055,-0.191560479 11.7127594,0.48830104 11.9523741,1.56656749 Z M6,10.0142216 C7.1045695,10.0142216 8,10.9096521 8,12.0142216 L8,16 L4.5,16 L4.5,13.2642216 C4.5,13.1458748 4.42044388,13.0467347 4.31,13.0208242 L3.75,13.0142216 C3.63165327,13.0142216 3.5359105,13.096455 3.51,13.2068988 L3.5,13.2642216 L3.5,16 L0,16 L0,12.0142216 C0,10.9096521 0.8954305,10.0142216 2,10.0142216 L6,10.0142216 Z M14,11 L13,11 L13,12 L14,12 L14,11 Z M14,9 L13,9 L13,10 L14,10 L14,9 Z M7,6 L6,6 L6,7 L7,7 L7,6 Z M9,6 L8,6 L8,7 L9,7 L9,6 Z M7,4 L6,4 L6,5 L7,5 L7,4 Z M9,4 L8,4 L8,5 L9,5 L9,4 Z" id="site-filled_16" fill="#545454"></path>
    </g>
</svg>