<?xml version="1.0" encoding="UTF-8"?>
<svg width="24px" height="24px" viewBox="0 0 24 24" version="1.1" xmlns="http://www.w3.org/2000/svg" xmlns:xlink="http://www.w3.org/1999/xlink">
    <!-- Generator: Sketch 60.1 (88133) - https://sketch.com -->
    <title>Topology / site / site-topology_24</title>
    <desc>Created with Sketch.</desc>
    <g id="Topology-/-site-/-site-topology_24" stroke="none" stroke-width="1" fill="none" fill-rule="evenodd">
        <path d="M8,23 L8,19.266755 C8,19.1484082 7.91776659,19.0492682 7.80732271,19.0233577 L7.75,19.016755 L5.25,19.016755 C5.13165327,19.016755 5.03251318,19.0989884 5.00660268,19.2094323 L5,19.266755 L5,23 L1,23 L1,16.016755 C1,14.9121855 1.8954305,14.016755 3,14.016755 L6,14.016 L6,5.27307403 C6,4.30650174 6.69124773,3.47823992 7.64222912,3.30533421 L14.6422291,2.03260694 C15.7289818,1.83501554 16.7701484,2.55582319 16.9677398,3.64257588 C16.9892031,3.76062374 17,3.88036356 17,4.00034676 L17,11.016 L21,11.016755 C22.1045695,11.016755 23,11.9121855 23,13.016755 L23,23 L8,23 Z" id="secondary-color" fill="#FFA000"></path>
        <path d="M16.9677398,3.64257588 C16.9892031,3.76062374 17,3.88036356 17,4.00034676 L17,11.016 L21,11.016755 C22.1045695,11.016755 23,11.9121855 23,13.016755 L23,23 L8,23 L8,19.266755 C8,19.1484082 7.91776659,19.0492682 7.80732271,19.0233577 L7.75,19.016755 L5.25,19.016755 C5.13165327,19.016755 5.03251318,19.0989884 5.00660268,19.2094323 L5,19.266755 L5,23 L1,23 L1,16.016755 C1,14.9121855 1.8954305,14.016755 3,14.016755 L6,14.016 L6,5.27307403 C6,4.30650174 6.69124773,3.47823992 7.64222912,3.30533421 L14.6422291,2.03260694 C15.7289818,1.83501554 16.7701484,2.55582319 16.9677398,3.64257588 Z M10,15.016755 L3,15.016755 C2.48716416,15.016755 2.06449284,15.4027952 2.00672773,15.9001339 L2,16.016755 L2,22.0167297 L4,22.0167297 L4,19.266755 L4.00656843,19.1523272 L4.01317111,19.0950045 L4.03303577,18.9810303 C4.15466702,18.4625753 4.59147089,18.079637 5.1169216,18.0237911 L5.25,18.016755 L7.75,18.016755 L7.86442776,18.0233234 L7.92175047,18.0299261 L8.03572473,18.0497908 C8.55417968,18.171422 8.93711803,18.6082259 8.99296384,19.1336766 L9,19.266755 L9,22.0167297 L11,22.0167297 L11,16.016755 C11,15.4644702 10.5522847,15.016755 10,15.016755 Z M21,12.0167297 L17,12.0167297 L17,22.0167297 L22,22.0167297 L22,13.016755 C22,12.5039191 21.6139598,12.0812478 21.1166211,12.0234827 L21,12.0167297 Z M14.9370581,3.00223424 L14.8211146,3.01647685 L7.82111456,4.28920412 C7.38524809,4.36845257 7.05850583,4.72304161 7.00707564,5.15384283 L7,5.27307403 L7,14.0167297 L10,14.016755 L10.1566505,14.0227995 L10.2517968,14.0324533 C10.2684666,14.0345473 10.2850726,14.0368465 10.3016122,14.0393482 C10.3205588,14.0422185 10.3389686,14.0452733 10.3572915,14.0485776 C10.3887784,14.0542502 10.420351,14.0607388 10.4516427,14.0679616 L10.5212872,14.0853687 L10.5212872,14.0853687 C10.5430987,14.0912382 10.5650088,14.0975427 10.5867611,14.1042081 C10.6124825,14.1120957 10.6375811,14.1203467 10.6624549,14.1290755 C10.6852516,14.1370711 10.7081567,14.1455848 10.7308591,14.1545015 C10.7495078,14.1618275 10.7679035,14.1693756 10.7861594,14.1771876 C10.8110808,14.1878486 10.8359422,14.1990968 10.8605264,14.2108323 C10.8865198,14.2232446 10.9119708,14.2360781 10.9371031,14.249432 L10.9839422,14.2751294 L10.9839422,14.2751294 C11.0042001,14.2865987 11.0242526,14.2984201 11.044077,14.3105773 C11.0716963,14.3275117 11.0990041,14.3451875 11.1258429,14.3634997 C11.1355746,14.3701392 11.1452979,14.3769002 11.1549579,14.3837447 L11.2320939,14.4412246 L11.2320939,14.4412246 C11.2473153,14.4531402 11.2626437,14.4655077 11.2777834,14.4780944 C11.3000125,14.4965798 11.3216408,14.5153622 11.3428544,14.5345937 C11.3571838,14.5475801 11.3715482,14.5609867 11.3857124,14.5746 C11.4049497,14.593093 11.4236619,14.6118053 11.4419994,14.6308807 L11.4914591,14.6842282 L11.4914591,14.6842282 C11.5039515,14.6981979 11.5163842,14.7125026 11.5286149,14.7269834 C11.5491916,14.7513497 11.5690981,14.7760866 11.5884181,14.8012967 L11.6142611,14.8357789 L11.6142611,14.8357789 C11.6325839,14.8607937 11.6500809,14.8858612 11.6670094,14.9113389 C11.6787282,14.928975 11.6902005,14.9468495 11.701393,14.9649155 C11.7132654,14.9840774 11.7248545,15.0035097 11.7361199,15.0231512 C11.7975173,15.1301379 11.8494783,15.2438216 11.8905648,15.3625807 C11.9460067,15.5229595 11.9815728,15.6920802 11.9945143,15.8674926 L12,16.016755 L12,22.0167297 L16,22.0167297 L16,4.00034676 L15.9959593,3.91054116 L15.9838699,3.82146132 C15.892131,3.31689757 15.436708,2.97010094 14.9370581,3.00223424 Z M19,18.0097297 L19,19.0097297 L18,19.0097297 L18,18.0097297 L19,18.0097297 Z M21,18.0097297 L21,19.0097297 L20,19.0097297 L20,18.0097297 L21,18.0097297 Z M19,16.0097297 L19,17.0097297 L18,17.0097297 L18,16.0097297 L19,16.0097297 Z M21,16.0097297 L21,17.0097297 L20,17.0097297 L20,16.0097297 L21,16.0097297 Z M19,14.0097297 L19,15.0097297 L18,15.0097297 L18,14.0097297 L19,14.0097297 Z M21,14.0097297 L21,15.0097297 L20,15.0097297 L20,14.0097297 L21,14.0097297 Z M10,11.0097297 L10,12.0097297 L9,12.0097297 L9,11.0097297 L10,11.0097297 Z M12,11.0097297 L12,12.0097297 L11,12.0097297 L11,11.0097297 L12,11.0097297 Z M14,11.0097297 L14,12.0097297 L13,12.0097297 L13,11.0097297 L14,11.0097297 Z M10,9.00972973 L10,10.0097297 L9,10.0097297 L9,9.00972973 L10,9.00972973 Z M12,9.00972973 L12,10.0097297 L11,10.0097297 L11,9.00972973 L12,9.00972973 Z M14,9.00972973 L14,10.0097297 L13,10.0097297 L13,9.00972973 L14,9.00972973 Z M10,7.00972973 L10,8.00972973 L9,8.00972973 L9,7.00972973 L10,7.00972973 Z M12,7.00972973 L12,8.00972973 L11,8.00972973 L11,7.00972973 L12,7.00972973 Z M14,7.00972973 L14,8.00972973 L13,8.00972973 L13,7.00972973 L14,7.00972973 Z" id="site-topology_24" fill="#00090D"></path>
    </g>
</svg>