<?xml version="1.0" encoding="UTF-8"?>
<svg width="16px" height="16px" viewBox="0 0 16 16" version="1.1" xmlns="http://www.w3.org/2000/svg" xmlns:xlink="http://www.w3.org/1999/xlink">
    <!-- Generator: Sketch 60.1 (88133) - https://sketch.com -->
    <title>Networking / site / site_16</title>
    <desc>Created with Sketch.</desc>
    <g id="Networking-/-site-/-site_16" stroke="none" stroke-width="1" fill="none" fill-rule="evenodd">
        <path d="M11.9523741,1.56656749 C11.9840296,1.70901729 12,1.85450372 12,2.00042841 L12,6.014 L14,6.01422155 C15.1045695,6.01422155 16,6.90965205 16,8.01422155 L16,16 L12,15.999 L12,16 L8,16 L8,15.999 L5,16 L5,13.2642216 C5,13.1458748 4.91776659,13.0467347 4.80732271,13.0208242 L4.75,13.0142216 L4.25,13.0142216 C4.13165327,13.0142216 4.03251318,13.096455 4.00660268,13.2068988 L4,13.2642216 L4,16 L0,16 L0,11.0142216 C0,9.90965205 0.8954305,9.01422155 2,9.01422155 L3,9.014 L3,3.11153952 C3,2.17414222 3.65106397,1.36251542 4.56613908,1.1591654 L9.56613908,0.048054288 C10.6444055,-0.191560479 11.7127594,0.48830104 11.9523741,1.56656749 Z M14,7.01422155 L12,7.014 L12,15.014 L15,15.0142216 L15,8.01422155 C15,7.50138571 14.6139598,7.07871439 14.1166211,7.02094928 L14,7.01422155 Z M7,10.0142216 L2,10.0142216 C1.48716416,10.0142216 1.06449284,10.4002617 1.00672773,10.8976004 L1,11.0142216 L1,15.0142216 L3,15.0142216 L3,13.2642216 L3.00656843,13.1497938 L3.01317111,13.0924711 L3.03303577,12.9784968 C3.15466702,12.4600419 3.59147089,12.0771035 4.1169216,12.0212577 L4.25,12.0142216 L4.75,12.0142216 L4.86442776,12.02079 L4.92175047,12.0273927 L5.03572473,12.0472573 C5.55417968,12.1688886 5.93711803,12.6056924 5.99296384,13.1311432 L6,13.2642216 L6,15.0142216 L8,15.0142216 L8,11.0142216 C8,10.4619368 7.55228475,10.0142216 7,10.0142216 Z M9.89837303,1.0055102 L9.78306954,1.02424135 L4.78306954,2.13535246 C4.36366012,2.22855455 4.05517204,2.57731738 4.00666992,2.99581458 L4,3.11153952 L4,9.01322155 L7,9.01422155 C7.15568,9.01422155 7.30720555,9.03200891 7.45265519,9.06566218 C7.46382481,9.06824678 7.47491936,9.07091515 7.48597748,9.07367557 C7.51680326,9.08137019 7.54736596,9.08978614 7.57762643,9.09889961 L7.6049749,9.10735172 L7.61908937,9.11188372 C7.65685153,9.12416452 7.69412056,9.13753842 7.73085909,9.15196808 C7.75393058,9.16103147 7.77667688,9.1704606 7.79920696,9.18029274 C7.81890641,9.18888504 7.83878541,9.19794949 7.85848682,9.20732666 C7.88522333,9.22005791 7.9113308,9.2332046 7.93710314,9.24689853 L7.98394217,9.27259597 L7.98394217,9.27259597 C8.00627205,9.28523828 8.02834913,9.29830655 8.05014803,9.31178179 C8.07209507,9.32534358 8.09403379,9.33950203 8.11567216,9.35407236 L8.16509707,9.3884427 L8.16509707,9.3884427 C8.18777738,9.40472477 8.2101202,9.42148314 8.23209393,9.43869122 C8.24731527,9.45060681 8.2626437,9.46297429 8.2777834,9.47556098 C8.29895938,9.49317068 8.31957188,9.51103397 8.33980907,9.52930511 L8.39361375,9.57970214 L8.39361375,9.57970214 L8.43820007,9.62440579 L8.43820007,9.62440579 C8.45644793,9.64329015 8.47413946,9.66232271 8.49145914,9.68169475 C8.50516119,9.69701727 8.51876398,9.712711 8.53212367,9.72861576 C8.54900182,9.74870926 8.56549198,9.76913957 8.5815826,9.78989517 C8.59616213,9.80870495 8.61031084,9.82763919 8.62412787,9.84682819 C8.63902414,9.86751307 8.65361068,9.8886081 8.66779697,9.90999171 L8.6972633,9.95574526 L8.6972633,9.95574526 C8.7106571,9.97718133 8.72356207,9.99872546 8.73606816,10.0205276 C8.80038656,10.1325727 8.85438039,10.252055 8.89636192,10.3770523 C8.90181804,10.3932843 8.90721402,10.4100731 8.91239254,10.426957 C8.91770352,10.4442889 8.92264415,10.4612119 8.92736554,10.478226 C8.96184703,10.6023731 8.98469418,10.7318548 8.99451426,10.8649592 L9,11.0142216 L9,15.0132216 L11,15.0132216 L11,2.00042841 L10.9940289,1.89131164 L10.9761871,1.78349795 C10.8649373,1.28287424 10.3963996,0.954011841 9.89837303,1.0055102 Z M14,11.0142216 L14,12.0142216 L13,12.0142216 L13,11.0142216 L14,11.0142216 Z M14,9.01422155 L14,10.0142216 L13,10.0142216 L13,9.01422155 L14,9.01422155 Z M7,6.01422155 L7,7.01422155 L6,7.01422155 L6,6.01422155 L7,6.01422155 Z M9,6.01422155 L9,7.01422155 L8,7.01422155 L8,6.01422155 L9,6.01422155 Z M7,4.01422155 L7,5.01422155 L6,5.01422155 L6,4.01422155 L7,4.01422155 Z M9,4.01422155 L9,5.01422155 L8,5.01422155 L8,4.01422155 L9,4.01422155 Z" id="site_16" fill="#00090D"></path>
    </g>
</svg>