<?xml version="1.0" encoding="UTF-8"?>
<svg width="16px" height="16px" viewBox="0 0 16 16" version="1.1" xmlns="http://www.w3.org/2000/svg" xmlns:xlink="http://www.w3.org/1999/xlink">
    <!-- Generator: Sketch 60.1 (88133) - https://sketch.com -->
    <title>Networking/Endpoints/smart-phone/smart-phone-disconnect_16</title>
    <desc>Created with Sketch.</desc>
    <g id="Networking/Endpoints/smart-phone/smart-phone-disconnect_16" stroke="none" stroke-width="1" fill="none" fill-rule="evenodd">
        <path d="M12.7134,0.967831 C12.7582,1.04196 12.7424,1.13623 12.6812,1.19747 L12.2863,1.59228 C12.168,1.71058 11.9478,1.63953 11.8631,1.49528 C11.6891,1.1993 11.3673,1.00000001 11.0002,1.00000001 L5.00023,1.00000001 C4.44923,1.00000001 4.00023,1.449 4.00023,2.00000001 L4.00023,9.79431 C4.00023,9.84736 3.97915,9.89823 3.94164,9.93574 L3.34164,10.5357 C3.21564,10.6616 3.00023,10.5724 3.00023,10.3942 L3.00023,2.00000001 C3.00023,0.896 3.89623,5.05565367e-09 5.00023,5.05565367e-09 L11.0002,5.05565367e-09 C11.7267,5.05565367e-09 12.3631,0.387948 12.7134,0.967831 Z M12.6588,5.46216 C12.7848,5.33618 13.0002,5.42542 13.0002,5.6036 L13.0002,14 C13.0002,15.104 12.1042,16 11.0002,16 L5.00023,16 C4.27316,16 3.63631,15.6114 3.28619,15.0307 C3.2415,14.9566 3.25724,14.8624 3.31845,14.8012 L3.71304,14.4066 C3.83151,14.2882 4.05208,14.3596 4.13678,14.5041 C4.31057,14.8007 4.63271,15 5.00023,15 L11.0002,15 C11.5512,15 12.0002,14.552 12.0002,14 L12.0002,12 L6.12003,12 L7.12018,11 L12.0002,11 L12.0002,6.20351 C12.0002,6.15046 12.0213,6.09958 12.0588,6.06208 L12.6588,5.46216 Z M7.50023,14 C7.22523,14 7.00023,13.775 7.00023,13.5 C7.00023,13.225 7.22523,13 7.50023,13 L8.50023,13 C8.77523,13 9.00023,13.225 9.00023,13.5 C9.00023,13.775 8.77523,14 8.50023,14 L7.50023,14 Z M15.1467,0.146421 C15.342,-0.0488271 15.6586,-0.048804 15.8538,0.146472 C16.0491,0.341749 16.049,0.658331 15.8538,0.853579 L0.860797137,15.8462689 C0.665520137,16.0414689 0.348938137,16.0414689 0.153690137,15.8461689 C-0.0415580632,15.6509689 -0.0415350632,15.3343689 0.153741137,15.1390689 L15.1467,0.146421 Z" id="smart-phone-disconnect_16" fill="#9E9EA2"></path>
    </g>
</svg>