<?xml version="1.0" encoding="UTF-8"?>
<svg width="16px" height="16px" viewBox="0 0 16 16" version="1.1" xmlns="http://www.w3.org/2000/svg" xmlns:xlink="http://www.w3.org/1999/xlink">
    <!-- Generator: Sketch 60.1 (88133) - https://sketch.com -->
    <title>Networking/Endpoints/smart-watch/smart-watch-filled_16</title>
    <desc>Created with Sketch.</desc>
    <g id="Networking/Endpoints/smart-watch/smart-watch-filled_16" stroke="none" stroke-width="1" fill="none" fill-rule="evenodd">
        <path d="M11.5,0 C11.7761424,0 12,0.223857625 12,0.5 L12,3.26756439 C12.5422928,3.58126383 12.9236216,4.1422769 12.9897622,4.79637943 C13.070832,4.76638445 13.1585026,4.75 13.25,4.75 C13.6642136,4.75 14,5.08578644 14,5.5 L14,8.5 C14,8.91421356 13.6642136,9.25 13.25,9.25 C13.1623411,9.25 13.0781947,9.23496144 13,9.20732357 L13,11 C13,11.7402824 12.5978014,12.3866262 12,12.7324356 L12,15.5 C12,15.7761424 11.7761424,16 11.5,16 C11.2238576,16 11,15.7761424 11,15.5 L11,13 L4,13 L4,15.5 C4,15.7761424 3.77614237,16 3.5,16 C3.22385763,16 3,15.7761424 3,15.5 L3,12.7324356 C2.40219863,12.3866262 2,11.7402824 2,11 L2,5 C2,4.25971764 2.40219863,3.61337381 3,3.26756439 L3,0.5 C3,0.223857625 3.22385763,0 3.5,0 C3.77614237,0 4,0.223857625 4,0.5 L4,3 L11,3 L11,0.5 C11,0.223857625 11.2238576,0 11.5,0 Z M7.61332,5.03333333 C7.42922508,5.03333333 7.27998667,5.18257175 7.27998667,5.36666667 C7.27998667,5.55076158 7.42922508,5.7 7.61332,5.7 C8.83482508,5.7 9.82518667,6.69036158 9.82518667,7.91186667 C9.82518667,9.13327925 8.83491759,10.1233333 7.61332,10.1233333 C6.55796693,10.1233333 5.65546472,9.37849717 5.44669114,8.35786546 C5.40979786,8.1775052 5.23367906,8.06120224 5.0533188,8.09809553 C4.87295854,8.13498881 4.75665557,8.31110761 4.79354886,8.49146787 C5.0654855,9.82088496 6.23974169,10.79 7.61332,10.79 C9.20307502,10.79 10.4918533,9.5015015 10.4918533,7.91186667 C10.4918533,6.32217175 9.20301492,5.03333333 7.61332,5.03333333 Z M7.72,6.51333333 C7.53590508,6.51333333 7.38666667,6.66257175 7.38666667,6.84666667 C7.38666667,7.03076158 7.53590508,7.18 7.72,7.18 C8.18894514,7.18 8.50666667,7.49780161 8.50666667,7.96666667 C8.50666667,8.35401935 8.45726022,8.47677084 8.05636223,8.83948807 C7.91984926,8.96299981 7.90930967,9.17379147 8.03282141,9.31030444 C8.15633314,9.44681741 8.36712481,9.45735699 8.50363777,9.33384526 C9.05098394,8.8386273 9.17333333,8.53464732 9.17333333,7.96666667 C9.17333333,7.12964939 8.5571726,6.51333333 7.72,6.51333333 Z" id="smart-watch-filled_16" fill="#00090D"></path>
    </g>
</svg>