<?xml version="1.0" encoding="UTF-8"?>
<svg width="16px" height="16px" viewBox="0 0 16 16" version="1.1" xmlns="http://www.w3.org/2000/svg" xmlns:xlink="http://www.w3.org/1999/xlink">
    <!-- Generator: Sketch 60.1 (88133) - https://sketch.com -->
    <title>Topology/Endpoints/smart-phone/smart-phone-topology_16</title>
    <desc>Created with Sketch.</desc>
    <g id="Topology/Endpoints/smart-phone/smart-phone-topology_16" stroke="none" stroke-width="1" fill="none" fill-rule="evenodd">
        <path d="M11,0 C12.104,0 13,0.896 13,2 L13,14 C13,15.104 12.104,16 11,16 L5,16 C3.896,16 3,15.104 3,14 L3,2 C3,0.896 3.896,0 5,0 L11,0 Z" id="secondary-color" fill="#FFA000"></path>
        <path d="M11,0 C12.104,0 13,0.896 13,2 L13,14 C13,15.104 12.104,16 11,16 L5,16 C3.896,16 3,15.104 3,14 L3,2 C3,0.896 3.896,0 5,0 L11,0 Z M12,11 L12,2 C12,1.449 11.551,1 11,1 L5,1 C4.449,1 4,1.449 4,2 L4,11 L12,11 Z M12,14 L12,12 L4,12 L4,14 C4,14.552 4.449,15 5,15 L11,15 C11.551,15 12,14.552 12,14 Z M7.5,14 C7.225,14 7,13.775 7,13.5 C7,13.225 7.225,13 7.5,13 L8.5,13 C8.775,13 9,13.225 9,13.5 C9,13.775 8.775,14 8.5,14 L7.5,14 Z" id="smart-phone-topology_16" fill="#00090D"></path>
    </g>
</svg>