<?xml version="1.0" encoding="UTF-8"?>
<svg width="24px" height="24px" viewBox="0 0 24 24" version="1.1" xmlns="http://www.w3.org/2000/svg" xmlns:xlink="http://www.w3.org/1999/xlink">
    <!-- Generator: Sketch 60.1 (88133) - https://sketch.com -->
    <title>Topology/Endpoints/smart-phone/smart-phone-topology_24</title>
    <desc>Created with Sketch.</desc>
    <g id="Topology/Endpoints/smart-phone/smart-phone-topology_24" stroke="none" stroke-width="1" fill="none" fill-rule="evenodd">
        <path d="M17.4998,0 C18.8778,0 19.9998,1.121 19.9998,2.5 L19.9998,21.5 C19.9998,22.879 18.8778,24 17.4998,24 L6.4998,24 C5.1218,24 3.9998,22.879 3.9998,21.5 L3.9998,2.5 C3.9998,1.121 5.1218,0 6.4998,0 L17.4998,0 Z" id="secondary-color" fill="#FFA000"></path>
        <path d="M17.4998,0 C18.8778,0 19.9998,1.121 19.9998,2.5 L19.9998,21.5 C19.9998,22.879 18.8778,24 17.4998,24 L6.4998,24 C5.1218,24 3.9998,22.879 3.9998,21.5 L3.9998,2.5 C3.9998,1.121 5.1218,0 6.4998,0 L17.4998,0 Z M18.9998,19 L18.9998,2.5 C18.9998,1.673 18.3268,1 17.4998,1 L6.4998,1 C5.6728,1 4.9998,1.673 4.9998,2.5 L4.9998,19 L18.9998,19 Z M18.9998,21.5 L18.9998,20 L4.9998,20 L4.9998,21.5 C4.9998,22.327 5.6728,23 6.4998,23 L17.4998,23 C18.3268,23 18.9998,22.327 18.9998,21.5 Z M11.4998,22 C11.2248,22 10.9998,21.775 10.9998,21.5 C10.9998,21.225 11.2248,21 11.4998,21 L12.4998,21 C12.7748,21 12.9998,21.225 12.9998,21.5 C12.9998,21.775 12.7748,22 12.4998,22 L11.4998,22 Z" id="smart-phone-topology_24" fill="#00090D"></path>
    </g>
</svg>