<?xml version="1.0" encoding="UTF-8"?>
<svg width="24px" height="24px" viewBox="0 0 24 24" version="1.1" xmlns="http://www.w3.org/2000/svg" xmlns:xlink="http://www.w3.org/1999/xlink">
    <!-- Generator: Sketch 60.1 (88133) - https://sketch.com -->
    <title>Networking/Endpoints/smart-phone/smart-phone-filled_24</title>
    <desc>Created with Sketch.</desc>
    <g id="Networking/Endpoints/smart-phone/smart-phone-filled_24" stroke="none" stroke-width="1" fill="none" fill-rule="evenodd">
        <path d="M20,20 L20,22 C20,23.1045695 19.1045695,24 18,24 L6,24 C4.8954305,24 4,23.1045695 4,22 L4,20 L20,20 Z M12.5,21 L11.5,21 L11.4101244,21.0080557 C11.1768752,21.0503916 11,21.2545401 11,21.5 C11,21.7761424 11.2238576,22 11.5,22 L11.5,22 L12.5,22 L12.5898756,21.9919443 C12.8231248,21.9496084 13,21.7454599 13,21.5 C13,21.2238576 12.7761424,21 12.5,21 L12.5,21 Z M4,2 C4,0.8954305 4.8954305,2.02906125e-16 6,0 L18,0 C19.1045695,-2.02906125e-16 20,0.8954305 20,2 L20,19 L4,19 L4,2 Z" id="smart-phone-filled_24" fill="#00090D"></path>
    </g>
</svg>