<?xml version="1.0" encoding="UTF-8"?>
<svg width="24px" height="24px" viewBox="0 0 24 24" version="1.1" xmlns="http://www.w3.org/2000/svg" xmlns:xlink="http://www.w3.org/1999/xlink">
    <!-- Generator: Sketch 60.1 (88133) - https://sketch.com -->
    <title>Networking/Endpoints/smart-watch/smart-watch_24</title>
    <desc>Created with Sketch.</desc>
    <g id="Networking/Endpoints/smart-watch/smart-watch_24" stroke="none" stroke-width="1" fill="none" fill-rule="evenodd">
        <path d="M16,5 L16,1.5 C16,1.22385763 16.2238576,1 16.5,1 C16.7761424,1 17,1.22385763 17,1.5 L17,5 C18.1045695,5 19,5.8954305 19,7 L19,9.03917193 C19.1317254,9.0136608 19.228472,9.00319733 19.3333485,9.00567169 C19.6902269,9.01409156 20,9.22617927 20,9.64138428 L20,13.5 C20,13.915205 19.6902269,14.1272927 19.3333485,14.1357126 C19.228472,14.138187 19.1317254,14.1277235 19,14.1022123 L19,17 C19,18.1045695 18.1045695,19 17,19 L17,22.5 C17,22.7761424 16.7761424,23 16.5,23 C16.2238576,23 16,22.7761424 16,22.5 L16,19 L7,19 L7,22.5 C7,22.7761424 6.77614237,23 6.5,23 C6.22385763,23 6,22.7761424 6,22.5 L6,19 C4.8954305,19 4,18.1045695 4,17 L4,7 C4,5.8954305 4.8954305,5 6,5 L6,1.5 C6,1.22385763 6.22385763,1 6.5,1 C6.77614237,1 7,1.22385763 7,1.5 L7,5 L16,5 Z M18,9.64138428 L18,7 C18,6.44771525 17.5522847,6 17,6 L6,6 C5.44771525,6 5,6.44771525 5,7 L5,17 C5,17.5522847 5.44771525,18 6,18 L17,18 C17.5522847,18 18,17.5522847 18,17 L18,13.5 L18,9.64138428 Z M11.58,10.9 C11.3038576,10.9 11.08,10.6761424 11.08,10.4 C11.08,10.1238576 11.3038576,9.9 11.58,9.9 C12.8357589,9.9 13.76,10.8244741 13.76,12.08 C13.76,12.931971 13.5764759,13.387941 12.7554567,14.1307679 C12.5506872,14.3160355 12.2344997,14.3002261 12.0492321,14.0954567 C11.8639645,13.8906872 11.8797739,13.5744997 12.0845433,13.3892321 C12.6858903,12.8451563 12.76,12.661029 12.76,12.08 C12.76,11.3767024 12.2834177,10.9 11.58,10.9 Z M11.41998,8.8 C11.1438376,8.8 10.91998,8.57614237 10.91998,8.3 C10.91998,8.02385763 11.1438376,7.8 11.41998,7.8 C13.8045224,7.8 15.73778,9.73325763 15.73778,12.1178 C15.73778,14.5022522 13.8046125,16.435 11.41998,16.435 C9.35961253,16.435 7.59822826,14.9813274 7.19032329,12.9872018 C7.13498336,12.7166614 7.3094378,12.4524832 7.5799782,12.3971433 C7.85051859,12.3418034 8.11469678,12.5162578 8.17003671,12.7867982 C8.48319708,14.3177458 9.83695039,15.435 11.41998,15.435 C13.2523764,15.435 14.73778,13.9499189 14.73778,12.1178 C14.73778,10.2855424 13.2522376,8.8 11.41998,8.8 Z" id="smart-watch_24" fill="#00090D"></path>
    </g>
</svg>