<?xml version="1.0" encoding="UTF-8"?>
<svg width="16px" height="16px" viewBox="0 0 16 16" version="1.1" xmlns="http://www.w3.org/2000/svg" xmlns:xlink="http://www.w3.org/1999/xlink">
    <!-- Generator: Sketch 60.1 (88133) - https://sketch.com -->
    <title>Networking/Endpoints/smart-phone/smart-phone-filled_16</title>
    <desc>Created with Sketch.</desc>
    <g id="Networking/Endpoints/smart-phone/smart-phone-filled_16" stroke="none" stroke-width="1" fill="none" fill-rule="evenodd">
        <path d="M13,12 L13,14 C13,15.1045695 12.1045695,16 11,16 L5,16 C3.8954305,16 3,15.1045695 3,14 L3,12 L13,12 Z M8.5,13 L7.5,13 L7.41012437,13.0080557 C7.17687516,13.0503916 7,13.2545401 7,13.5 C7,13.7761424 7.22385763,14 7.5,14 L7.5,14 L8.5,14 L8.58987563,13.9919443 C8.82312484,13.9496084 9,13.7454599 9,13.5 C9,13.2238576 8.77614237,13 8.5,13 L8.5,13 Z M3,2 C3,0.8954305 3.8954305,2.02906125e-16 5,0 L11,0 C12.1045695,-2.02906125e-16 13,0.8954305 13,2 L13,11 L3,11 L3,2 Z" id="smart-phone-filled_16" fill="#00090D"></path>
    </g>
</svg>