<?xml version="1.0" encoding="UTF-8"?>
<svg width="36px" height="36px" viewBox="0 0 36 36" version="1.1" xmlns="http://www.w3.org/2000/svg" xmlns:xlink="http://www.w3.org/1999/xlink">
    <!-- Generator: Sketch 60.1 (88133) - https://sketch.com -->
    <title>Topology / ENFV / SSID-topology_36</title>
    <desc>Created with Sketch.</desc>
    <g id="Topology-/-ENFV-/-SSID-topology_36" stroke="none" stroke-width="1" fill="none" fill-rule="evenodd">
        <rect id="secondary-color" fill="#FFA000" x="0" y="11" width="36" height="15" rx="2.5"></rect>
        <path d="M10.71,20.4 C10.71,21.08 10.1,21.66 8.9,21.66 C7.83,21.66 7.17,21.14 7.05,20.33 L6,20.33 C6.2,21.65 7.37,22.5 8.92,22.5 C10.71,22.5 11.73,21.48 11.73,20.36 C11.73,19.25 11.16,18.66 9.16,18.1 C7.51,17.64 7.27,17.37 7.27,16.81 C7.27,16.27 7.73,15.84 8.83,15.84 C9.91,15.84 10.52,16.25 10.63,16.95 L11.68,16.95 C11.5,15.73 10.37,15 8.83,15 C7.18,15 6.25,15.8 6.25,16.85 C6.25,17.84 6.77,18.43 8.44,18.89 C10.38,19.42 10.71,19.73 10.71,20.4 Z M17.7233333,20.4 C17.7233333,21.08 17.1133333,21.66 15.9133333,21.66 C14.8433333,21.66 14.1833333,21.14 14.0633333,20.33 L13.0133333,20.33 C13.2133333,21.65 14.3833333,22.5 15.9333333,22.5 C17.7233333,22.5 18.7433333,21.48 18.7433333,20.36 C18.7433333,19.25 18.1733333,18.66 16.1733333,18.1 C14.5233333,17.64 14.2833333,17.37 14.2833333,16.81 C14.2833333,16.27 14.7433333,15.84 15.8433333,15.84 C16.9233333,15.84 17.5333333,16.25 17.6433333,16.95 L18.6933333,16.95 C18.5133333,15.73 17.3833333,15 15.8433333,15 C14.1933333,15 13.2633333,15.8 13.2633333,16.85 C13.2633333,17.84 13.7833333,18.43 15.4533333,18.89 C17.3933333,19.42 17.7233333,19.73 17.7233333,20.4 Z M20.5266666,15.15 L20.5266666,22.35 L21.5466666,22.35 L21.5466666,15.15 L20.5266666,15.15 Z M23.6299999,15.15 L25.9699999,15.15 C28.0899999,15.15 29.5099999,16.28 29.5099999,18.75 C29.5099999,21.08 28.0099999,22.35 25.8999999,22.35 L23.6299999,22.35 L23.6299999,15.15 Z M25.9799999,15.96 L24.6499999,15.96 L24.6499999,21.51 L25.9999999,21.51 C27.5799999,21.51 28.4799999,20.56 28.4799999,18.75 C28.4799999,16.86 27.5199999,15.96 25.9799999,15.96 Z" id="SSID-topology_36" fill="#00090D"></path>
    </g>
</svg>