<?xml version="1.0" encoding="UTF-8"?>
<svg width="24px" height="24px" viewBox="0 0 24 24" version="1.1" xmlns="http://www.w3.org/2000/svg" xmlns:xlink="http://www.w3.org/1999/xlink">
    <!-- Generator: Sketch 60.1 (88133) - https://sketch.com -->
    <title>Networking / stacked-switch / stacked-switch_24</title>
    <desc>Created with Sketch.</desc>
    <g id="Networking-/-stacked-switch-/-stacked-switch_24" stroke="none" stroke-width="1" fill="none" fill-rule="evenodd">
        <path d="M21.5,1 C22.3284271,1 23,1.67157288 23,2.5 L23,5.5 C23,5.88469382 22.8551845,6.23556417 22.6170946,6.50107009 C22.8555371,6.76529062 23,7.11577475 23,7.5 L23,10.5 C23,10.8846938 22.8551845,11.2355642 22.6170946,11.5010701 C22.8555371,11.7652906 23,12.1157747 23,12.5 L23,21.5 C23,22.3284271 22.3284271,23 21.5,23 L2.5,23 C1.67157288,23 1,22.3284271 1,21.5 L1,12.5 C1,12.1157747 1.1444629,11.7652906 1.38203584,11.4999005 C1.14481546,11.2355642 1,10.8846938 1,10.5 L1,7.5 C1,7.11577475 1.1444629,6.76529062 1.38203584,6.49990047 C1.14481546,6.23556417 1,5.88469382 1,5.5 L1,2.5 C1,1.67157288 1.67157288,1 2.5,1 L21.5,1 Z M21.5,12 L2.5,12 C2.25454011,12 2.05039163,12.1768752 2.00805567,12.4101244 L2,12.5 L2,21.5 C2,21.7454599 2.17687516,21.9496084 2.41012437,21.9919443 L2.5,22 L21.5,22 C21.7454599,22 21.9496084,21.8231248 21.9919443,21.5898756 L22,21.5 L22,12.5 C22,12.2545401 21.8231248,12.0503916 21.5898756,12.0080557 L21.5,12 Z M8.45457936,16.4384635 C8.48640408,16.502264 8.48947409,16.5766171 8.46301732,16.642824 L7.90635062,18.0358583 L10.4996339,18.0358583 C10.7757763,18.0358583 10.9996339,18.2597159 10.9996339,18.5358583 C10.9996339,18.8120007 10.7757763,19.0358583 10.4996339,19.0358583 L7.90654696,19.0358583 L8.46283066,20.4265675 C8.51410901,20.5547634 8.45175503,20.700256 8.32355915,20.7515344 C8.25736554,20.7780118 8.18301653,20.7749692 8.11920774,20.7431716 L4.13855128,18.7595048 C4.01497405,18.697923 3.96471683,18.5478219 4.02629865,18.4242447 C4.05051199,18.3756554 4.08988372,18.3362682 4.13846353,18.3120358 L8.11927524,16.3263423 C8.24282831,16.264712 8.39294908,16.3149104 8.45457936,16.4384635 Z M15.8803586,13.3263423 L19.8611704,15.3120358 C19.9097502,15.3362682 19.9491219,15.3756554 19.9733352,15.4242447 C20.0349171,15.5478219 19.9846598,15.697923 19.8610826,15.7595048 L15.8804261,17.7431716 C15.8166174,17.7749692 15.7422683,17.7780118 15.6760747,17.7515344 C15.5478789,17.700256 15.4855249,17.5547634 15.5368032,17.4265676 L16.0930869,16.0358583 L13.5,16.0358583 C13.2238576,16.0358583 13,15.8120007 13,15.5358583 C13,15.2597159 13.2238576,15.0358583 13.5,15.0358583 L16.0932833,15.0358583 L15.5366166,13.642824 C15.5101598,13.5766171 15.5132298,13.502264 15.5450545,13.4384635 C15.6066848,13.3149104 15.7568056,13.264712 15.8803586,13.3263423 Z M21.5,7 L2.5,7 C2.25454011,7 2.05039163,7.17687516 2.00805567,7.41012437 L2,7.5 L2,10.5 C2,10.7454599 2.17687516,10.9496084 2.41012437,10.9919443 L2.5,11 L21.5,11 C21.7454599,11 21.9496084,10.8231248 21.9919443,10.5898756 L22,10.5 L22,7.5 C22,7.25454011 21.8231248,7.05039163 21.5898756,7.00805567 L21.5,7 Z M21.5,2 L2.5,2 C2.25454011,2 2.05039163,2.17687516 2.00805567,2.41012437 L2,2.5 L2,5.5 C2,5.74545989 2.17687516,5.94960837 2.41012437,5.99194433 L2.5,6 L21.5,6 C21.7454599,6 21.9496084,5.82312484 21.9919443,5.58987563 L22,5.5 L22,2.5 C22,2.25454011 21.8231248,2.05039163 21.5898756,2.00805567 L21.5,2 Z" id="stacked-switch_24" fill="#00090D"></path>
    </g>
</svg>