<svg width="24" height="24" viewBox="0 0 24 24" fill="none" xmlns="http://www.w3.org/2000/svg">
<g id="stack_24">
<path id="stack_24_2" fill-rule="evenodd" clip-rule="evenodd" d="M6.94118 2H21.0588V5H6.94118V2ZM6 2C6 1.44772 6.42138 1 6.94118 1H21.0588C21.5786 1 22 1.44772 22 2V5C22 5.55228 21.5786 6 21.0588 6H6.94118C6.42138 6 6 5.55228 6 5V4H3.5C3.22386 4 3 4.22386 3 4.5V11.5H6V10.5C6 9.94771 6.44772 9.5 7 9.5H21C21.5523 9.5 22 9.94772 22 10.5V13.5C22 14.0523 21.5523 14.5 21 14.5H7C6.44772 14.5 6 14.0523 6 13.5V12.5H3V19.5C3 19.7761 3.22386 20 3.5 20H6V19C6 18.4477 6.42138 18 6.94118 18H21.0588C21.5786 18 22 18.4477 22 19V22C22 22.5523 21.5786 23 21.0588 23H6.94118C6.42138 23 6 22.5523 6 22V21H3.5C2.67157 21 2 20.3284 2 19.5V4.5C2 3.67157 2.67157 3 3.5 3H6V2ZM7 10.5H21V13.5H7V10.5ZM21.0588 19H6.94118V22H21.0588V19Z" fill="#545454"/>
</g>
</svg>
