<svg width="16" height="16" viewBox="0 0 16 16" fill="none" xmlns="http://www.w3.org/2000/svg">
<g id="stack_16">
<path id="stack_16_2" fill-rule="evenodd" clip-rule="evenodd" d="M5 1H14V3H5L5 1ZM4 1C4 0.447715 4.44772 0 5 0H14C14.5523 0 15 0.447715 15 1V3C15 3.55228 14.5523 4 14 4H5C4.44772 4 4 3.55228 4 3V2.5H2V7.5H4V7C4 6.44772 4.44772 6 5 6H14C14.5523 6 15 6.44772 15 7V9C15 9.55228 14.5523 10 14 10H5C4.44772 10 4 9.55228 4 9V8.5H2V13.5H4V13C4 12.4477 4.44772 12 5 12H14C14.5523 12 15 12.4477 15 13V15C15 15.5523 14.5523 16 14 16H5C4.44772 16 4 15.5523 4 15V14.5H2C1.44772 14.5 1 14.0523 1 13.5V2.5C1 1.94772 1.44772 1.5 2 1.5H4V1ZM5 7H14V9H5L5 7ZM14 13H5L5 15H14V13Z" fill="#545454"/>
</g>
</svg>
