<?xml version="1.0" encoding="UTF-8"?>
<svg width="24px" height="24px" viewBox="0 0 24 24" version="1.1" xmlns="http://www.w3.org/2000/svg" xmlns:xlink="http://www.w3.org/1999/xlink">
    <!-- Generator: Sketch 60.1 (88133) - https://sketch.com -->
    <title>Networking/stack_24</title>
    <desc>Created with Sketch.</desc>
    <g id="Networking/stack_24" stroke="none" stroke-width="1" fill="none" fill-rule="evenodd">
        <path d="M3.5,1 L20.5,1 C21.8807119,1 23,2.11928813 23,3.5 L23,20.5 C23,21.8807119 21.8807119,23 20.5,23 L3.5,23 C2.11928813,23 1,21.8807119 1,20.5 L1,3.5 C1,2.11928813 2.11928813,1 3.5,1 Z M3.5,2 C2.67157288,2 2,2.67157288 2,3.5 L2,20.5 C2,21.3284271 2.67157288,22 3.5,22 L20.5,22 C21.3284271,22 22,21.3284271 22,20.5 L22,3.5 C22,2.67157288 21.3284271,2 20.5,2 L3.5,2 Z M5.04594687,12.5 L5.04594687,17.5 L8,17.5 L8,17 C8,16.4477153 8.44771525,16 9,16 L19,16 C19.5522847,16 20,16.4477153 20,17 L20,19 C20,19.5522847 19.5522847,20 19,20 L9,20 C8.44771525,20 8,19.5522847 8,19 L8,18.5 L4.54594687,18.5 C4.26980449,18.5 4.04594687,18.2761424 4.04594687,18 L4.04594687,6 C4.04594687,5.72385763 4.26980449,5.5 4.54594687,5.5 L8,5.5 L8,5 C8,4.44771525 8.44771525,4 9,4 L19,4 C19.5522847,4 20,4.44771525 20,5 L20,7 C20,7.55228475 19.5522847,8 19,8 L9,8 C8.44771525,8 8,7.55228475 8,7 L8,6.5 L5.04594687,6.5 L5.04594687,11.5 L8,11.5 L8,11 C8,10.4477153 8.44771525,10 9,10 L19,10 C19.5522847,10 20,10.4477153 20,11 L20,13 C20,13.5522847 19.5522847,14 19,14 L9,14 C8.44771525,14 8,13.5522847 8,13 L8,12.5 L5.04594687,12.5 Z M9,5 L9,7 L19,7 L19,5 L9,5 Z M9,11 L9,13 L19,13 L19,11 L9,11 Z M9,17 L9,19 L19,19 L19,17 L9,17 Z" id="stack_24" fill="#00090D"></path>
    </g>
</svg>