<?xml version="1.0" encoding="UTF-8"?>
<svg width="24px" height="24px" viewBox="0 0 24 24" version="1.1" xmlns="http://www.w3.org/2000/svg" xmlns:xlink="http://www.w3.org/1999/xlink">
    <!-- Generator: Sketch 60.1 (88133) - https://sketch.com -->
    <title>Networking / stacked-switch / stacked-switch-filled_24</title>
    <desc>Created with Sketch.</desc>
    <g id="Networking-/-stacked-switch-/-stacked-switch-filled_24" stroke="none" stroke-width="1" fill="none" fill-rule="evenodd">
        <path d="M22,12 C22.5522847,12 23,12.4477153 23,13 L23,21.5 C23,22.3284271 22.3284271,23 21.5,23 L2.5,23 C1.67157288,23 1,22.3284271 1,21.5 L1,13 C1,12.4477153 1.44771525,12 2,12 L22,12 Z M8.45457936,16.4384635 C8.39294908,16.3149104 8.24282831,16.264712 8.11927524,16.3263423 L8.11927524,16.3263423 L4.13846353,18.3120358 C4.08988372,18.3362682 4.05051199,18.3756554 4.02629865,18.4242447 C3.96471683,18.5478219 4.01497405,18.697923 4.13855128,18.7595048 L4.13855128,18.7595048 L8.11920774,20.7431716 C8.18301653,20.7749692 8.25736554,20.7780118 8.32355915,20.7515344 C8.45175503,20.700256 8.51410901,20.5547634 8.46283066,20.4265675 L8.46283066,20.4265675 L7.90654696,19.0358583 L10.4996339,19.0358583 C10.7757763,19.0358583 10.9996339,18.8120007 10.9996339,18.5358583 C10.9996339,18.2597159 10.7757763,18.0358583 10.4996339,18.0358583 L10.4996339,18.0358583 L7.90635062,18.0358583 L8.46301732,16.642824 C8.48947409,16.5766171 8.48640408,16.502264 8.45457936,16.4384635 Z M15.8803586,13.3263423 C15.7568056,13.264712 15.6066848,13.3149104 15.5450545,13.4384635 C15.5132298,13.502264 15.5101598,13.5766171 15.5366166,13.642824 L15.5366166,13.642824 L16.0932833,15.0358583 L13.5,15.0358583 C13.2238576,15.0358583 13,15.2597159 13,15.5358583 C13,15.8120007 13.2238576,16.0358583 13.5,16.0358583 L13.5,16.0358583 L16.0930869,16.0358583 L15.5368032,17.4265676 C15.4855249,17.5547634 15.5478789,17.700256 15.6760747,17.7515344 C15.7422683,17.7780118 15.8166174,17.7749692 15.8804261,17.7431716 L15.8804261,17.7431716 L19.8610826,15.7595048 C19.9846598,15.697923 20.0349171,15.5478219 19.9733352,15.4242447 C19.9491219,15.3756554 19.9097502,15.3362682 19.8611704,15.3120358 L19.8611704,15.3120358 Z M22,7 C22.5522847,7 23,7.44771525 23,8 L23,10 C23,10.5522847 22.5522847,11 22,11 L2,11 C1.44771525,11 1,10.5522847 1,10 L1,8 C1,7.44771525 1.44771525,7 2,7 L22,7 Z M21.5,1 C22.3284271,1 23,1.67157288 23,2.5 L23,5 C23,5.55228475 22.5522847,6 22,6 L2,6 C1.44771525,6 1,5.55228475 1,5 L1,2.5 C1,1.67157288 1.67157288,1 2.5,1 L21.5,1 Z" id="stacked-switch-filled_24" fill="#00090D"></path>
    </g>
</svg>