<?xml version="1.0" encoding="UTF-8"?>
<svg width="16px" height="16px" viewBox="0 0 16 16" version="1.1" xmlns="http://www.w3.org/2000/svg" xmlns:xlink="http://www.w3.org/1999/xlink">
    <!-- Generator: Sketch 60.1 (88133) - https://sketch.com -->
    <title>Action/star/star-filled_16</title>
    <desc>Created with Sketch.</desc>
    <g id="Action/star/star-filled_16" stroke="none" stroke-width="1" fill="none" fill-rule="evenodd">
        <path d="M11.9113437,15.0001 C11.7508621,15.0001 11.5923865,14.9481 11.4579832,14.8461 L8.02167116,12.0551 L4.59639222,14.8371 C4.32658254,15.0431 3.97352304,15.0511 3.7067224,14.8661 C3.43992175,14.6811 3.32457561,14.3471 3.42186758,14.0371 L4.78897012,9.6761 L1.30250757,7.3041 C1.03570693,7.0991 0.939417974,6.7891 1.03771295,6.5001 C1.13600792,6.2101 1.41384168,6.0151 1.7287868,6.0151 L6.07081683,6.0151 L7.35366654,1.4951 C7.44794948,1.1951 7.71475012,1.0001 8.02167116,1.0001 C8.32758919,1.0001 8.59539285,1.1951 8.68666675,1.4871 L10.0377211,6.0411 L14.2716269,6.0161 C14.585569,6.0161 14.8634027,6.2101 14.9616977,6.5001 C15.0609957,6.7891 14.9637037,7.1001 14.7149573,7.2901 L11.2684143,9.7231 L12.6204717,14.0361 C12.7177637,14.3481 12.6024176,14.6811 12.3356169,14.8661 C12.2072316,14.9551 12.0587862,15.0001 11.9113437,15.0001 Z" id="star-filled_16" fill="#00090D"></path>
    </g>
</svg>