<?xml version="1.0" encoding="UTF-8"?>
<svg width="24px" height="24px" viewBox="0 0 24 24" version="1.1" xmlns="http://www.w3.org/2000/svg" xmlns:xlink="http://www.w3.org/1999/xlink">
    <!-- Generator: Sketch 60.1 (88133) - https://sketch.com -->
    <title>Action/star/star_24</title>
    <desc>Created with Sketch.</desc>
    <g id="Action/star/star_24" stroke="none" stroke-width="1" fill="none" fill-rule="evenodd">
        <path d="M11.9997047,17.465 C12.2587047,17.465 12.5177047,17.548 12.7327047,17.715 L18.0547047,21.808 L15.9577047,15.099 C15.8087047,14.62 15.9747047,14.094 16.3717047,13.788 C16.3757047,13.785 16.3807047,13.781 16.3857047,13.778 L21.6527047,10 L15.1417047,10 C14.6297047,10 14.1587047,9.636 13.9947047,9.115 L11.9997047,2.459 L10.0057047,9.11 C9.84270469,9.636 9.37170469,10 8.85870469,10 L2.34770469,10 L7.61470469,13.778 C8.02570469,14.094 8.19170469,14.62 8.04270469,15.099 L5.94570469,21.808 L11.2687047,17.714 C11.4827047,17.548 11.7417047,17.465 11.9997047,17.465 L11.9997047,17.465 Z M5.73570469,22.999 C5.55870469,22.999 5.38070469,22.945 5.22770469,22.838 C4.90670469,22.615 4.77070469,22.216 4.88670469,21.844 L7.08770469,14.8 C7.11270469,14.72 7.08570469,14.632 7.01970469,14.581 L1.35270468,10.517 C1.04370469,10.281 0.928704685,9.914 1.04370469,9.573 C1.16170468,9.225 1.48370468,9 1.86470468,9 L8.85870469,9 C8.92270469,9 9.01770469,8.922 9.04970469,8.818 L11.2207047,1.577 C11.3297047,1.229 11.6557047,1.039 12.0017047,1 C12.3587047,1.001 12.6717047,1.231 12.7777047,1.571 L14.9507047,8.822 C14.9817047,8.922 15.0777047,9 15.1417047,9 L22.1357047,9 C22.5157047,9 22.8377047,9.225 22.9557047,9.572 C23.0717047,9.913 22.9567047,10.28 22.6617047,10.507 L16.9767047,14.585 C16.9137047,14.636 16.8877047,14.722 16.9127047,14.8 L19.1137047,21.844 C19.2297047,22.216 19.0937047,22.615 18.7727047,22.838 C18.4547047,23.062 18.0317047,23.052 17.7227047,22.814 L12.1227047,18.507 C12.0507047,18.45 11.9487047,18.451 11.8787047,18.506 L6.27770469,22.814 C6.11770469,22.937 5.92770469,22.999 5.73570469,22.999 L5.73570469,22.999 Z" id="star_24" fill="#00090D"></path>
    </g>
</svg>