<?xml version="1.0" encoding="UTF-8"?>
<svg width="16px" height="16px" viewBox="0 0 16 16" version="1.1" xmlns="http://www.w3.org/2000/svg" xmlns:xlink="http://www.w3.org/1999/xlink">
    <!-- Generator: Sketch 60.1 (88133) - https://sketch.com -->
    <title>Action/star/star_16</title>
    <desc>Created with Sketch.</desc>
    <g id="Action/star/star_16" stroke="none" stroke-width="1" fill="none" fill-rule="evenodd">
        <path d="M8.01873957,11.0361 C8.22017408,11.0361 8.4186021,11.1001 8.5859631,11.2281 L11.3970267,13.5141 L10.2886358,9.9741 C10.1713829,9.6021 10.3016639,9.1921 10.6113319,8.9561 C10.6173449,8.9511 10.6233579,8.9471 10.6293708,8.9431 L13.3923307,7.0131 L9.96393545,7.0131 C9.56407293,7.0131 9.19728174,6.7321 9.07100937,6.3321 L8.01573309,2.7701 L6.96145897,6.3271 C6.83318227,6.7351 6.46639109,7.0151 6.06652857,7.0151 L2.63813337,7.0151 L5.40209535,8.9421 C5.72980223,9.1931 5.85908109,9.6031 5.74283034,9.9741 L4.63443949,13.5141 L7.4344793,11.2371 C7.60885544,11.1021 7.81429859,11.0361 8.01873957,11.0361 L8.01873957,11.0361 Z M11.9021162,15.0001 C11.7417703,15.0001 11.5834288,14.9481 11.4491391,14.8461 L8.01573309,12.0551 L4.59335086,14.8371 C4.32376936,15.0431 3.97100844,15.0511 3.70443342,14.8661 C3.43785841,14.6811 3.32260981,14.3471 3.4198195,14.0371 L4.7857659,9.6761 L1.30225181,7.3041 C1.03567679,7.0991 0.939469271,6.7891 1.03768112,6.5001 C1.13589297,6.2101 1.41349176,6.0151 1.72817053,6.0151 L6.06652857,6.0151 L7.34829339,1.4951 C7.44249659,1.1951 7.70907161,1.0001 8.01573309,1.0001 C8.32139241,1.0001 8.58896959,1.1951 8.6801663,1.4871 L10.0300781,6.0411 L14.2722429,6.0161 C14.5859195,6.0161 14.8635183,6.2101 14.9617302,6.5001 C15.0609442,6.7891 14.9637345,7.1001 14.7151984,7.2901 L11.2597305,9.7231 L12.6106445,14.0361 C12.7078542,14.3481 12.5926056,14.6811 12.3260306,14.8661 C12.1977539,14.9551 12.049434,15.0001 11.9021162,15.0001 Z" id="star_16" fill="#00090D"></path>
    </g>
</svg>