<?xml version="1.0" encoding="UTF-8"?>
<svg width="24px" height="24px" viewBox="0 0 24 24" version="1.1" xmlns="http://www.w3.org/2000/svg" xmlns:xlink="http://www.w3.org/1999/xlink">
    <title>Action / video controls / stop-circle_24</title>
    <g id="Action-/-video-controls-/-stop-circle_24" stroke="none" stroke-width="1" fill="none" fill-rule="evenodd">
        <path d="M12,0 C18.617,0 24,5.383 24,12 C24,18.617 18.617,24 12,24 C5.383,24 0,18.617 0,12 C0,5.383 5.383,0 12,0 Z M12,23 C18.065,23 23,18.065 23,12 C23,5.935 18.065,1 12,1 C5.935,1 1,5.935 1,12 C1,18.065 5.935,23 12,23 Z M14.5,8 C15.325,8 16,8.675 16,9.5 L16,14.5 C16,15.325 15.325,16 14.5,16 L9.5,16 C8.675,16 8,15.325 8,14.5 L8,9.5 C8,8.675 8.675,8 9.5,8 L14.5,8 Z M15,14.5 L15,9.5 C15,9.229 14.771,9 14.5,9 L9.5,9 C9.229,9 9,9.229 9,9.5 L9,14.5 C9,14.771 9.229,15 9.5,15 L14.5,15 C14.771,15 15,14.771 15,14.5 Z" id="stop-circle_24" fill="#545454"></path>
    </g>
</svg>