<?xml version="1.0" encoding="UTF-8"?>
<svg width="18px" height="18px" viewBox="0 0 18 18" version="1.1" xmlns="http://www.w3.org/2000/svg" xmlns:xlink="http://www.w3.org/1999/xlink">
    <title>Action / video controls / stop-circle_18</title>
    <g id="Action-/-video-controls-/-stop-circle_18" stroke="none" stroke-width="1" fill="none" fill-rule="evenodd">
        <path d="M9,0 C13.9705627,0 18,4.02943725 18,9 C18,13.9705627 13.9705627,18 9,18 C4.02943725,18 0,13.9705627 0,9 C0,4.02943725 4.02943725,0 9,0 Z M9,1 C4.581722,1 1,4.581722 1,9 C1,13.418278 4.581722,17 9,17 C13.418278,17 17,13.418278 17,9 C17,4.581722 13.418278,1 9,1 Z M10.5,6 C11.3284271,6 12,6.67157288 12,7.5 L12,10.5 C12,11.3284271 11.3284271,12 10.5,12 L7.5,12 C6.67157288,12 6,11.3284271 6,10.5 L6,7.5 C6,6.67157288 6.67157288,6 7.5,6 L10.5,6 Z M10.5,7 L7.5,7 C7.25454011,7 7.05039163,7.17687516 7.00805567,7.41012437 L7,7.5 L7,10.5 C7,10.7454599 7.17687516,10.9496084 7.41012437,10.9919443 L7.5,11 L10.5,11 C10.7454599,11 10.9496084,10.8231248 10.9919443,10.5898756 L11,10.5 L11,7.5 C11,7.25454011 10.8231248,7.05039163 10.5898756,7.00805567 L10.5,7 Z" id="stop-circle_18" fill="#545454"></path>
    </g>
</svg>