<?xml version="1.0" encoding="UTF-8"?>
<svg width="36px" height="36px" viewBox="0 0 36 36" version="1.1" xmlns="http://www.w3.org/2000/svg" xmlns:xlink="http://www.w3.org/1999/xlink">
    <!-- Generator: Sketch 60.1 (88133) - https://sketch.com -->
    <title>Alert and Notification/success/success-filled_36</title>
    <desc>Created with Sketch.</desc>
    <g id="Alert-and-Notification/success/success-filled_36" stroke="none" stroke-width="1" fill="none" fill-rule="evenodd">
        <path d="M18,0 C27.9405,0 36,8.0595 36,18 C36,27.9405 27.9405,36 18,36 C8.0595,36 0,27.9405 0,18 C0,8.0595 8.0595,0 18,0 Z M14.5,22.0857864 L11.2071068,18.7928932 C10.8165825,18.4023689 10.1834175,18.4023689 9.79289322,18.7928932 C9.40236893,19.1834175 9.40236893,19.8165825 9.79289322,20.2071068 L13.7928932,24.2071068 C14.1834175,24.5976311 14.8165825,24.5976311 15.2071068,24.2071068 L24.7071068,14.7071068 C25.0976311,14.3165825 25.0976311,13.6834175 24.7071068,13.2928932 C24.3165825,12.9023689 23.6834175,12.9023689 23.2928932,13.2928932 L14.5,22.0857864 Z" id="success-filled_36" fill="#00090D"></path>
    </g>
</svg>