<svg width="40" height="40" viewBox="0 0 40 40" fill="none" xmlns="http://www.w3.org/2000/svg">
<g id="Size=40">
<path id="secondary-color" fill-rule="evenodd" clip-rule="evenodd" d="M20 0C8.95431 0 0 8.95431 0 20C0 31.0457 8.95431 40 20 40C31.0457 40 40 31.0457 40 20C40 8.95431 31.0457 0 20 0ZM20 10C14.4772 10 10 14.4772 10 20C10 25.5228 14.4772 30 20 30C25.5228 30 30 25.5228 30 20C30 14.4772 25.5228 10 20 10Z" fill="#00AB50" fill-opacity="0.15"/>
<g id="Icon">
<path id="success-filled_24" fill-rule="evenodd" clip-rule="evenodd" d="M20 8C26.627 8 32 13.373 32 20C32 26.627 26.627 32 20 32C13.373 32 8 26.627 8 20C8 13.373 13.373 8 20 8ZM17.5 22.7929L14.8536 20.1463C14.6583 19.9511 14.3417 19.9511 14.1465 20.1463C13.9512 20.3416 13.9512 20.6582 14.1464 20.8534L17.1464 23.8536C17.3417 24.0488 17.6583 24.0488 17.8536 23.8536L24.8536 16.8536C25.0488 16.6583 25.0488 16.3417 24.8536 16.1464C24.6583 15.9512 24.3417 15.9512 24.1464 16.1464L17.5 22.7929Z" fill="#00AB50"/>
</g>
</g>
</svg>
