<?xml version="1.0" encoding="UTF-8"?>
<svg width="24px" height="24px" viewBox="0 0 24 24" version="1.1" xmlns="http://www.w3.org/2000/svg" xmlns:xlink="http://www.w3.org/1999/xlink">
    <!-- Generator: Sketch 60.1 (88133) - https://sketch.com -->
    <title>Alert and Notification/success/success-filled_24</title>
    <desc>Created with Sketch.</desc>
    <g id="Alert-and-Notification/success/success-filled_24" stroke="none" stroke-width="1" fill="none" fill-rule="evenodd">
        <path d="M12,0 C18.627,0 24,5.373 24,12 C24,18.627 18.627,24 12,24 C5.373,24 0,18.627 0,12 C0,5.373 5.373,0 12,0 Z M9.5,14.7928859 L6.85356076,12.146329 C6.65830268,11.9510628 6.34172019,11.9510562 6.14645398,12.1463142 C5.95118776,12.3415723 5.95118117,12.6581548 6.14643924,12.853421 L9.14644661,15.8535534 C9.34170876,16.0488155 9.65829124,16.0488155 9.85355339,15.8535534 L16.8535534,8.85355339 C17.0488155,8.65829124 17.0488155,8.34170876 16.8535534,8.14644661 C16.6582912,7.95118446 16.3417088,7.95118446 16.1464466,8.14644661 L9.5,14.7928859 Z" id="success-filled_24" fill="#00090D"></path>
    </g>
</svg>