<svg width="60" height="60" viewBox="0 0 60 60" fill="none" xmlns="http://www.w3.org/2000/svg">
<g id="Size=60">
<path id="secondary-color" fill-rule="evenodd" clip-rule="evenodd" d="M30 0C13.4315 0 0 13.4315 0 30C0 46.5685 13.4315 60 30 60C46.5685 60 60 46.5685 60 30C60 13.4315 46.5685 0 30 0ZM30 18C23.3726 18 18 23.3726 18 30C18 36.6274 23.3726 42 30 42C36.6274 42 42 36.6274 42 30C42 23.3726 36.6274 18 30 18Z" fill="#00AB50" fill-opacity="0.15"/>
<g id="Icon_Status">
<path id="success-filled_36" fill-rule="evenodd" clip-rule="evenodd" d="M30 12C39.9405 12 48 20.0595 48 30C48 39.9405 39.9405 48 30 48C20.0595 48 12 39.9405 12 30C12 20.0595 20.0595 12 30 12ZM26.5 34.0858L23.2071 30.7929C22.8166 30.4024 22.1834 30.4024 21.7929 30.7929C21.4024 31.1834 21.4024 31.8166 21.7929 32.2071L25.7929 36.2071C26.1834 36.5976 26.8166 36.5976 27.2071 36.2071L36.7071 26.7071C37.0976 26.3166 37.0976 25.6834 36.7071 25.2929C36.3166 24.9024 35.6834 24.9024 35.2929 25.2929L26.5 34.0858Z" fill="#00AB50"/>
</g>
</g>
</svg>
