<?xml version="1.0" encoding="UTF-8"?>
<svg width="18px" height="18px" viewBox="0 0 18 18" version="1.1" xmlns="http://www.w3.org/2000/svg" xmlns:xlink="http://www.w3.org/1999/xlink">
    <!-- Generator: Sketch 60.1 (88133) - https://sketch.com -->
    <title>Alert and Notification/success/success-filled_18</title>
    <desc>Created with Sketch.</desc>
    <g id="Alert-and-Notification/success/success-filled_18" stroke="none" stroke-width="1" fill="none" fill-rule="evenodd">
        <path d="M9,0 C13.97025,0 18,4.02975 18,9 C18,13.97025 13.97025,18 9,18 C4.02975,18 0,13.97025 0,9 C0,4.02975 4.02975,0 9,0 Z M7.5,10.7928932 L5.85355339,9.14644661 C5.65829124,8.95118446 5.34170876,8.95118446 5.14644661,9.14644661 C4.95118446,9.34170876 4.95118446,9.65829124 5.14644661,9.85355339 L7.14644661,11.8535534 C7.34170876,12.0488155 7.65829124,12.0488155 7.85355339,11.8535534 L12.3535534,7.35355339 C12.5488155,7.15829124 12.5488155,6.84170876 12.3535534,6.64644661 C12.1582912,6.45118446 11.8417088,6.45118446 11.6464466,6.64644661 L7.5,10.7928932 Z" id="success-filled_18" fill="#00090D"></path>
    </g>
</svg>