<?xml version="1.0" encoding="UTF-8"?>
<svg width="16px" height="16px" viewBox="0 0 16 16" version="1.1" xmlns="http://www.w3.org/2000/svg" xmlns:xlink="http://www.w3.org/1999/xlink">
    <!-- Generator: Sketch 60.1 (88133) - https://sketch.com -->
    <title>Alert and Notification/success/success_16</title>
    <desc>Created with Sketch.</desc>
    <g id="Alert-and-Notification/success/success_16" stroke="none" stroke-width="1" fill="none" fill-rule="evenodd">
        <path d="M8,0 C12.418,0 16,3.582 16,8 C16,12.418 12.418,16 8,16 C3.582,16 0,12.418 0,8 C0,3.582 3.582,0 8,0 Z M8,15 C11.8659932,15 15,11.8659932 15,8 C15,4.13400675 11.8659932,1 8,1 C4.13400675,1 1,4.13400675 1,8 C1,11.8659932 4.13400675,15 8,15 Z M6.5,9.79289322 L4.85355339,8.14644661 C4.65829124,7.95118446 4.34170876,7.95118446 4.14644661,8.14644661 C3.95118446,8.34170876 3.95118446,8.65829124 4.14644661,8.85355339 L6.14644661,10.8535534 C6.34170876,11.0488155 6.65829124,11.0488155 6.85355339,10.8535534 L11.3535534,6.35355339 C11.5488155,6.15829124 11.5488155,5.84170876 11.3535534,5.64644661 C11.1582912,5.45118446 10.8417088,5.45118446 10.6464466,5.64644661 L6.5,9.79289322 Z" id="success_16" fill="#00090D"></path>
    </g>
</svg>