<?xml version="1.0" encoding="UTF-8"?>
<svg width="24px" height="24px" viewBox="0 0 24 24" version="1.1" xmlns="http://www.w3.org/2000/svg" xmlns:xlink="http://www.w3.org/1999/xlink">
    <!-- Generator: Sketch 60.1 (88133) - https://sketch.com -->
    <title>Tools / sudi / sudi-failed_24</title>
    <desc>Created with Sketch.</desc>
    <g id="Tools-/-sudi-/-sudi-failed_24" stroke="none" stroke-width="1" fill="none" fill-rule="evenodd">
        <path d="M3.42021,22.9145 C3.3692,22.839 3.38263,22.7387 3.44706,22.6743 L3.86335,22.258 C3.96698,22.1543 4.14591,22.1937 4.2241,22.3177 C4.4826,22.7275 4.93934,23 5.459,23 L18.541,23 C19.346,23 20,22.346 20,21.541 L20,11.459 C20,10.654 19.346,10 18.541,10 L16.6042,10 C16.426,10 16.3367,9.78457 16.4627,9.65858 L17.6796,8.44174 C17.8056,8.31575 18.021,8.40498 18.021,8.58316 L18.021,9 L18.541,9 C19.897,9 21,10.103 21,11.459 L21,21.541 C21,22.897 19.897,24 18.541,24 L5.459,24 C4.61132,24 3.8625,23.569 3.42021,22.9145 Z M3.34142,18.5373 C3.21543,18.6633 3,18.574 3,18.3958 L3,11.459 C3,10.103 4.103,9 5.459,9 L6,9 L6,6.01 C6,2.696 8.696,0 12.01,0 C14.6334,0 16.8691,1.68837 17.6878,4.03528 C17.7126,4.10635 17.6935,4.18516 17.6403,4.23839 L17.1722,4.70652 C17.06,4.81869 16.8662,4.76203 16.8218,4.60974 C16.2143,2.52676 14.287,1 12.01,1 C9.248,1 7,3.248 7,6.01 L7,9 L12.3958,9 C12.574,9 12.6633,9.21543 12.5373,9.34142 L11.9373,9.94142 C11.8998,9.97893 11.8489,10 11.7958,10 L5.459,10 C4.654,10 4,10.654 4,11.459 L4,17.7958 C4,17.8489 3.97893,17.8998 3.94142,17.9373 L3.34142,18.5373 Z M12.9329,13.6479 C12.7804,13.598 12.7211,13.4003 12.8345,13.2868 L13.2874,12.8339 C13.3425,12.7789 13.4248,12.7604 13.497,12.7895 C14.9645,13.3822 16,14.8202 16,16.5 L16,19.5007 L16,20.9722 C15.6934,21.2466 15.3584,21.49 15,21.6973 L15,20.5005 L15,16.5 C15,15.1689 14.133,14.0402 12.9329,13.6479 Z M8.65858,17.4627 C8.78457,17.3367 9,17.426 9,17.6042 L9,20.5005 L9,21.6973 C8.64158,21.49 8.3066,21.2466 8,20.9722 L8,19.5008 L8,18.2042 C8,18.1511 8.02107,18.1002 8.05858,18.0627 L8.65858,17.4627 Z M9.89961,11.9612 C9.92136,11.9512 9.94126,11.9374 9.95821,11.9205 L10.94139,10.9373 C11.0749,10.8038 10.96686,10.5856 10.78191,10.6237 C8.44557,11.1055 6.6055,12.9456 6.12372,15.2819 C6.08558,15.4669 6.30376,15.5749 6.43729,15.4414 L7.42047,14.4582 C7.43742,14.4413 7.45115,14.4214 7.46124,14.3996 C7.95885,13.3261 8.82611,12.4589 9.89961,11.9612 Z M6.7996,19.3217 C6.87355,19.2478 7,19.3001 7,19.4047 L7,19.8178 C6.92276,19.7016 6.84945,19.5826 6.78028,19.4609 C6.75449,19.4155 6.76269,19.3586 6.7996,19.3217 L6.7996,19.3217 Z M14.7779,11.3434 C14.8408,11.2806 14.9378,11.2665 15.0147,11.3112 C16.8,12.3507 18,14.2852 18,16.5 C18,17.7267 17.6318,18.8675 17,19.8178 L17,16.5 C17,14.6057 15.9466,12.9575 14.3937,12.1091 C14.2724,12.0429 14.2438,11.8775 14.3416,11.7798 L14.7779,11.3434 Z M10.03339,16.1341 C10.04038,16.0963 10.05942,16.0619 10.08662,16.0347 L11.5347,14.5866 C11.5619,14.5594 11.5963,14.5404 11.6341,14.5334 C11.7528,14.5115 11.875,14.5 12,14.5 C13.1046,14.5 14,15.3954 14,16.5 L14,21.6973 L14,22.1586 C13.6784,22.2723 13.3442,22.3593 13,22.417 L13,21.4002 L13,18 L13,16.5 C13,15.9477 12.5523,15.5 12,15.5 C11.4477,15.5 11,15.9477 11,16.5 L11,18 L11,21.4002 L11,22.417 C10.65585,22.3593 10.32163,22.2723 10,22.1586 L10,21.6973 L10,16.5 C10,16.375 10.01146,16.2528 10.03339,16.1341 Z M23.0890781,0.205443563 C23.2843781,0.0101775629 23.6009781,0.0101775629 23.7962781,0.205443563 C23.9914781,0.400703563 23.9914781,0.717283563 23.7962781,0.912543563 L0.880842572,23.8292236 C0.685580572,24.0244236 0.368998572,24.0244236 0.173736572,23.8292236 C-0.0215259277,23.6339236 -0.0215259277,23.3173236 0.173736572,23.1220236 L23.0890781,0.205443563 Z" id="sudi-failed_24" fill="#9E9EA2"></path>
    </g>
</svg>