<?xml version="1.0" encoding="UTF-8"?>
<svg width="24px" height="24px" viewBox="0 0 24 24" version="1.1" xmlns="http://www.w3.org/2000/svg" xmlns:xlink="http://www.w3.org/1999/xlink">
    <!-- Generator: Sketch 60.1 (88133) - https://sketch.com -->
    <title>Tools / sudi / sudi_24</title>
    <desc>Created with Sketch.</desc>
    <g id="Tools-/-sudi-/-sudi_24" stroke="none" stroke-width="1" fill="none" fill-rule="evenodd">
        <path d="M18.541,9 C19.897,9 21,10.103 21,11.459 L21,21.541 C21,22.897 19.897,24 18.541,24 L5.459,24 C4.103,24 3,22.897 3,21.541 L3,11.459 C3,10.103 4.103,9 5.459,9 L6,9 L6,6.01 C6,2.696 8.696,0 12.01,0 C15.325,0 18.021,2.696 18.021,6.01 L18.021,9 L18.541,9 Z M20,21.541 L20,11.459 C20,10.654 19.346,10 18.541,10 L5.459,10 C4.654,10 4,10.654 4,11.459 L4,21.541 C4,22.346 4.654,23 5.459,23 L18.541,23 C19.346,23 20,22.346 20,21.541 Z M7,6.01 L7,9 L17.021,9 L17.021,6.01 C17.021,3.248 14.773,1 12.01,1 C9.248,1 7,3.248 7,6.01 Z M15,21.6973 L15,20.5005 L15,16.5 C15,14.84315 13.65685,13.5 12,13.5 C10.34315,13.5 9,14.84315 9,16.5 L9,20.5005 L9,21.6973 C8.64158,21.49 8.3066,21.2466 8,20.9722 L8,19.50076 L8,16.5 C8,14.29086 9.79086,12.5 12,12.5 C14.20914,12.5 16,14.29086 16,16.5 L16,19.50075 L16,20.9722 C15.6934,21.2466 15.35842,21.49 15,21.6973 Z M12,11.5 C9.23858,11.5 7,13.73858 7,16.5 L7,19.81779 C6.368153,18.86749 6,17.72674 6,16.5 C6,13.18629 8.68629,10.5 12,10.5 C15.31371,10.5 18,13.18629 18,16.5 C18,17.72674 17.6318,18.86749 17,19.81779 L17,16.5 C17,13.73858 14.76142,11.5 12,11.5 Z M10,16.5 C10,15.39543 10.89543,14.5 12,14.5 C13.10457,14.5 14,15.39543 14,16.5 L14,21.6973 L14,22.1586 C13.67837,22.2723 13.34415,22.3593 13,22.417 L13,21.4002 L13,18 L13,16.5 C13,15.94772 12.55228,15.5 12,15.5 C11.44772,15.5 11,15.94772 11,16.5 L11,18 L11,21.4002 L11,22.417 C10.65585,22.3593 10.32163,22.2723 10,22.1586 L10,21.6973 L10,16.5 Z" id="sudi_24" fill="#00090D"></path>
    </g>
</svg>