<?xml version="1.0" encoding="UTF-8"?>
<svg width="24px" height="24px" viewBox="0 0 24 24" version="1.1" xmlns="http://www.w3.org/2000/svg" xmlns:xlink="http://www.w3.org/1999/xlink">
    <!-- Generator: Sketch 60.1 (88133) - https://sketch.com -->
    <title>Tools / sudi / sudi-required_24</title>
    <desc>Created with Sketch.</desc>
    <g id="Tools-/-sudi-/-sudi-required_24" stroke="none" stroke-width="1" fill="none" fill-rule="evenodd">
        <path d="M15,3.6339746 L15,1.5 C15,1.22385763 15.2238576,1 15.5,1 C15.7761424,1 16,1.22385763 16,1.5 L16,3.6339746 L17.8480762,2.5669873 C18.0872225,2.42891611 18.3930177,2.51085369 18.5310889,2.75 C18.6691601,2.98914631 18.5872225,3.29494151 18.3480762,3.4330127 L16.5,4.5 L18.3480762,5.5669873 C18.5872225,5.70505849 18.6691601,6.01085369 18.5310889,6.25 C18.3930177,6.48914631 18.0872225,6.57108389 17.8480762,6.4330127 L16,5.3660254 L16,7.5 C16,7.77614237 15.7761424,8 15.5,8 C15.2238576,8 15,7.77614237 15,7.5 L15,5.3660254 L13.1519238,6.4330127 C12.9127775,6.57108389 12.6069823,6.48914631 12.4689111,6.25 C12.3308399,6.01085369 12.4127775,5.70505849 12.6519238,5.5669873 L14.5,4.5 L12.6519238,3.4330127 C12.4127775,3.29494151 12.3308399,2.98914631 12.4689111,2.75 C12.6069823,2.51085369 12.9127775,2.42891611 13.1519238,2.5669873 L15,3.6339746 Z M12,1 C9.24257603,1.00542799 7,3.25133408 7,6.01 L7,9 L12,9 L18.541,9 C19.897,9 21,10.103 21,11.459 L21,21.541 C21,22.897 19.897,24 18.541,24 L5.459,24 C4.103,24 3,22.897 3,21.541 L3,11.459 C3,10.103 4.103,9 5.459,9 L6,9 L6,6.01 C6,2.70069017 8.68837432,0.00763231677 11.9959332,2.84217094e-14 C11.9972875,2.84217094e-14 11.9986431,2.84217094e-14 12,2.84217094e-14 L12.4995215,2.84217094e-14 C12.7756638,2.84217094e-14 12.9995215,0.223857625 12.9995215,0.5 C12.9995215,0.776142375 12.7756638,1 12.4995215,1 L12,1 L12,1 Z M20,21.541 L20,11.459 C20,10.654 19.346,10 18.541,10 L5.459,10 C4.654,10 4,10.654 4,11.459 L4,21.541 C4,22.346 4.654,23 5.459,23 L18.541,23 C19.346,23 20,22.346 20,21.541 Z M15,21.6973 L15,20.5005 L15,16.5 C15,14.84315 13.65685,13.5 12,13.5 C10.34315,13.5 9,14.84315 9,16.5 L9,20.5005 L9,21.6973 C8.64158,21.49 8.3066,21.2466 8,20.9722 L8,19.50076 L8,16.5 C8,14.29086 9.79086,12.5 12,12.5 C14.20914,12.5 16,14.29086 16,16.5 L16,19.50075 L16,20.9722 C15.6934,21.2466 15.35842,21.49 15,21.6973 Z M12,11.5 C9.23858,11.5 7,13.73858 7,16.5 L7,19.81779 C6.368153,18.86749 6,17.72674 6,16.5 C6,13.18629 8.68629,10.5 12,10.5 C15.31371,10.5 18,13.18629 18,16.5 C18,17.72674 17.6318,18.86749 17,19.81779 L17,16.5 C17,13.73858 14.76142,11.5 12,11.5 Z M10,16.5 C10,15.39543 10.89543,14.5 12,14.5 C13.10457,14.5 14,15.39543 14,16.5 L14,21.6973 L14,22.1586 C13.67837,22.2723 13.34415,22.3593 13,22.417 L13,21.4002 L13,18 L13,16.5 C13,15.94772 12.55228,15.5 12,15.5 C11.44772,15.5 11,15.94772 11,16.5 L11,18 L11,21.4002 L11,22.417 C10.65585,22.3593 10.32163,22.2723 10,22.1586 L10,21.6973 L10,16.5 Z" id="sudi-required_24" fill="#00090D"></path>
    </g>
</svg>