<?xml version="1.0" encoding="UTF-8"?>
<svg width="24px" height="24px" viewBox="0 0 24 24" version="1.1" xmlns="http://www.w3.org/2000/svg" xmlns:xlink="http://www.w3.org/1999/xlink">
    <!-- Generator: Sketch 60.1 (88133) - https://sketch.com -->
    <title>Tools / sudi / sudi-authenticated_24</title>
    <desc>Created with Sketch.</desc>
    <g id="Tools-/-sudi-/-sudi-authenticated_24" stroke="none" stroke-width="1" fill="none" fill-rule="evenodd">
        <path d="M18.541,9 C19.897,9 21,10.103 21,11.459 L21,21.541 C21,22.897 19.897,24 18.541,24 L5.459,24 C4.103,24 3,22.897 3,21.541 L3,11.459 C3,10.103 4.103,9 5.459,9 L6,9 L6,6.01 C6,2.696 8.696,0 12.01,0 C15.325,0 18.021,2.696 18.021,6.01 L18.021,9 L18.541,9 Z M20,21.541 L20,11.459 C20,10.654 19.346,10 18.541,10 L5.459,10 C4.654,10 4,10.654 4,11.459 L4,21.541 C4,22.346 4.654,23 5.459,23 L18.541,23 C19.346,23 20,22.346 20,21.541 Z M7,6.01 L7,9 L17.021,9 L17.021,6.01 C17.021,3.248 14.773,1 12.01,1 C9.248,1 7,3.248 7,6.01 Z M12,22.5 C8.6862915,22.5 6,19.8137085 6,16.5 C6,13.1862915 8.6862915,10.5 12,10.5 C15.3137085,10.5 18,13.1862915 18,16.5 C18,19.8137085 15.3137085,22.5 12,22.5 Z M12,21.5 C14.7614237,21.5 17,19.2614237 17,16.5 C17,13.7385763 14.7614237,11.5 12,11.5 C9.23857625,11.5 7,13.7385763 7,16.5 C7,19.2614237 9.23857625,21.5 12,21.5 Z M11.25,18.625 C11.154,18.625 11.058,18.58825 10.9845,18.5155 L9.1095,16.6405 C8.96325,16.4935 8.96325,16.2565 9.1095,16.1095 C9.2565,15.96325 9.4935,15.96325 9.6405,16.1095 L11.25,17.71975 L14.3595,14.6095 C14.5065,14.46325 14.7435,14.46325 14.8905,14.6095 C15.03675,14.7565 15.03675,14.9935 14.8905,15.1405 L11.5155,18.5155 C11.442,18.58825 11.346,18.625 11.25,18.625 Z" id="sudi-authenticated" fill="#00090D"></path>
    </g>
</svg>