<?xml version="1.0" encoding="UTF-8"?>
<svg width="16px" height="16px" viewBox="0 0 16 16" version="1.1" xmlns="http://www.w3.org/2000/svg" xmlns:xlink="http://www.w3.org/1999/xlink">
    <!-- Generator: Sketch 60.1 (88133) - https://sketch.com -->
    <title>Topology/Endpoints/surveillance/surveillance-topology_16</title>
    <desc>Created with Sketch.</desc>
    <g id="Topology/Endpoints/surveillance/surveillance-topology_16" stroke="none" stroke-width="1" fill="none" fill-rule="evenodd">
        <path d="M1.91507555,2.06715242 L12.8973685,4.33930203 C13.1443646,4.39040358 13.3146256,4.61747064 13.2944686,4.8688909 L13.2522452,5.39554471 L15.3654955,4.89196734 C15.7357795,4.80373045 16.0649312,5.14514292 15.9632169,5.51195379 L14.8861088,9.39631632 C14.7967271,9.71865235 14.4221732,9.86401779 14.1387463,9.68636979 L12.9671135,8.95200666 L12.9503523,9.1610697 C12.9262285,9.46196715 12.6430043,9.67303543 12.3477672,9.61013666 L7.6434387,8.60790333 L7.44420535,10.071852 C8.00141596,10.4149951 8.29397674,10.9658216 8.27661069,11.6797417 C8.25877699,13.1946666 7.29712221,13.9896931 5.66666667,13.9896931 C4.0774226,13.9896931 2.92039581,12.99328 3.03731203,11.6310982 C3.09640851,10.9425697 3.43240915,10.4118378 4.00768398,10.0653469 L4.00768398,7.83332423 L0.419881915,7.06896119 C0.130437856,7.0072966 -0.0424081477,6.70911473 0.047933241,6.42730129 L1.33764184,2.40414834 C1.4156763,2.16072546 1.66475201,2.01536246 1.91507555,2.06715242 Z" id="secondary-color" fill="#FFA000"></path>
        <path d="M7.44420535,10.071852 C8.00141596,10.4149951 8.29397674,10.9658216 8.27661069,11.6797417 C8.25877699,13.1946666 7.29712221,13.9896931 5.66666667,13.9896931 C4.0774226,13.9896931 2.92039581,12.99328 3.03731203,11.6310982 C3.09640851,10.9425697 3.43240915,10.4118378 4.00768398,10.0653469 L4.00768398,7.83332423 L0.419881915,7.06896119 C0.130437856,7.0072966 -0.0424081477,6.70911473 0.047933241,6.42730129 L1.33764184,2.40414834 C1.4156763,2.16072546 1.66475201,2.01536246 1.91507555,2.06715242 L12.8973685,4.33930203 C13.1443646,4.39040358 13.3146256,4.61747064 13.2944686,4.8688909 L13.2522452,5.39554471 L15.3654955,4.89196734 C15.7357795,4.80373045 16.0649312,5.14514292 15.9632169,5.51195379 L14.8861088,9.39631632 C14.7967271,9.71865235 14.4221732,9.86401779 14.1387463,9.68636979 L12.9671135,8.95200666 L12.9503523,9.1610697 C12.9262285,9.46196715 12.6430043,9.67303543 12.3477672,9.61013666 L7.6434387,8.60790333 L7.44420535,10.071852 Z M7.26069207,11.4202911 L7.21824326,11.7322011 L7.08992543,11.8533917 C6.64367671,12.274854 6.16702675,12.5 5.66666667,12.5 C5.17633852,12.5 4.68480403,12.2836568 4.18974717,11.8757838 L4.03154764,11.7454446 C3.9893886,12.4495204 4.63054176,12.9896931 5.66666667,12.9896931 C6.78476624,12.9896931 7.26580221,12.5920074 7.27679269,11.6617176 C7.2789146,11.5743389 7.27375812,11.4940584 7.26069207,11.4202911 Z M6.66265725,8.39895282 L5.00768398,8.04636915 L5.00768398,11.2426121 C5.26050864,11.4186162 5.48058135,11.5 5.66666667,11.5 C5.8515711,11.5 6.05344651,11.4183815 6.27629685,11.2378942 L6.66265725,8.39895282 Z M13.1682222,6.44356727 L13.056704,7.83453983 C13.0793513,7.84440481 13.1015501,7.85607446 13.1231154,7.86959126 L14.1016524,8.48292462 L14.7732064,6.06110728 L13.1682222,6.44356727 Z M2.15268041,3.13748891 L1.16896826,6.20610799 L11.9990686,8.51340596 L12.2623804,5.22910593 L2.15268041,3.13748891 Z" id="surveillance-topology_16" fill="#00090D"></path>
    </g>
</svg>