<?xml version="1.0" encoding="UTF-8"?>
<svg width="24px" height="24px" viewBox="0 0 24 24" version="1.1" xmlns="http://www.w3.org/2000/svg" xmlns:xlink="http://www.w3.org/1999/xlink">
    <!-- Generator: Sketch 60.1 (88133) - https://sketch.com -->
    <title>Networking/Endpoints/surveillance/surveillance-filled_24</title>
    <desc>Created with Sketch.</desc>
    <g id="Networking/Endpoints/surveillance/surveillance-filled_24" stroke="none" stroke-width="1" fill="none" fill-rule="evenodd">
        <path d="M3.35676974,4.01161864 L19.1354697,7.46054556 C19.3920023,7.51661875 19.5614498,7.7615807 19.5234319,8.02140331 L19.4129323,8.77657995 L22.007878,8.38012117 C22.3487074,8.32804885 22.6387189,8.62844154 22.5746967,8.96722965 L21.5392352,14.4466143 C21.475215,14.785392 21.0956035,14.9592424 20.7972801,14.7864069 L18.7104636,13.5773967 L18.6197319,14.1974764 C18.5779816,14.4828064 18.3041775,14.6737676 18.0219948,14.6143608 L10.491978,13.0290941 L10.2770369,14.5208607 C11.0696455,15.0085927 11.5,16.0281271 11.5,17.1157628 C11.5,19.0199247 9.96878858,19.9375859 8,19.9375859 C6.00530851,19.9375859 4.5,18.9786497 4.5,16.9375859 C4.5,15.9463673 5.03853638,15.2621409 6,14.6553141 L6,12.0834145 L1.39699476,11.1143608 C1.11314566,11.054603 0.939549343,10.7666357 1.01923803,10.4877253 L2.76923803,4.36272529 C2.84173685,4.1089794 3.09895702,3.95526563 3.35676974,4.01161864 Z M7,14.9279887 C7.00011145,14.9340818 7.00011117,14.9401704 7,14.9462517 L7,16.4435936 C7,16.6864067 7.48898389,17.0372089 7.90540385,17.0372089 C8.36449512,17.0372089 9,16.6480259 9.0050083,16.3730016 L9.5050083,12.8669939 C9.5071338,12.8520899 9.50989604,12.8374337 9.51326359,12.8230489 L7,12.2939408 L7,14.9279862 L7,14.9279887 Z" id="surveillance-filled_24" fill="#00090D"></path>
    </g>
</svg>