<?xml version="1.0" encoding="UTF-8"?>
<svg width="16px" height="16px" viewBox="0 0 16 16" version="1.1" xmlns="http://www.w3.org/2000/svg" xmlns:xlink="http://www.w3.org/1999/xlink">
    <!-- Generator: Sketch 60.1 (88133) - https://sketch.com -->
    <title>Networking / switch / switch_16</title>
    <desc>Created with Sketch.</desc>
    <g id="Networking-/-switch-/-switch_16" stroke="none" stroke-width="1" fill="none" fill-rule="evenodd">
        <path d="M3.90654696,14.0058583 L4.46283066,15.3965675 C4.51410901,15.5247634 4.45175503,15.670256 4.32355915,15.7215344 C4.25736554,15.7480118 4.18301653,15.7449692 4.11920774,15.7131716 L0.13855128,13.7295048 C0.01497405,13.667923 -0.03528317,13.5178219 0.02629865,13.3942447 C0.05051199,13.3456554 0.08988372,13.3062682 0.13846353,13.2820358 L4.11927524,11.2963423 C4.24282831,11.234712 4.39294908,11.2849104 4.45457936,11.4084635 C4.48640408,11.4722639 4.48947409,11.5466171 4.46301732,11.612824 L3.90635062,13.0058583 L6.4996339,13.0058583 C6.7757763,13.0058583 6.9996339,13.2297159 6.9996339,13.5058583 C6.9996339,13.7820007 6.7757763,14.0058583 6.4996339,14.0058583 L3.90654696,14.0058583 Z M3.90654696,6.0058583 L4.46283066,7.3965675 C4.51410901,7.5247634 4.45175503,7.670256 4.32355915,7.7215344 C4.25736554,7.7480118 4.18301653,7.7449692 4.11920774,7.7131716 L0.13855128,5.72950482 C0.01497405,5.667923 -0.03528317,5.51782194 0.02629865,5.3942447 C0.05051199,5.34565539 0.08988372,5.30626821 0.13846353,5.28203582 L4.11927524,3.29634232 C4.24282831,3.23471204 4.39294908,3.28491039 4.45457936,3.40846346 C4.48640408,3.47226395 4.48947409,3.54661711 4.46301732,3.61282402 L3.90635062,5.00585832 L6.4996339,5.00585832 C6.7757763,5.00585832 6.9996339,5.22971594 6.9996339,5.50585832 C6.9996339,5.78200069 6.7757763,6.0058583 6.4996339,6.0058583 L3.90654696,6.0058583 Z M12.0930869,11.0058583 L9.5,11.0058583 C9.2238576,11.0058583 9,10.7820007 9,10.5058583 C9,10.2297159 9.2238576,10.0058583 9.5,10.0058583 L12.0932833,10.0058583 L11.5366166,8.612824 C11.5101598,8.5466171 11.5132298,8.4722639 11.5450545,8.4084635 C11.6066848,8.2849104 11.7568056,8.234712 11.8803586,8.2963423 L15.8611704,10.2820358 C15.9097502,10.3062682 15.9491219,10.3456554 15.9733352,10.3942447 C16.0349171,10.5178219 15.9846598,10.667923 15.8610826,10.7295048 L11.8804261,12.7131716 C11.8166174,12.7449692 11.7422683,12.7480118 11.6760747,12.7215344 C11.5478789,12.670256 11.4855249,12.5247634 11.5368032,12.3965675 L12.0930869,11.0058583 Z M12.0930869,3.00585832 L9.5,3.00585832 C9.2238576,3.00585832 9,2.78200069 9,2.50585832 C9,2.22971594 9.2238576,2.00585832 9.5,2.00585832 L12.0932833,2.00585832 L11.5366166,0.61282402 C11.5101598,0.54661711 11.5132298,0.47226395 11.5450545,0.40846346 C11.6066848,0.28491039 11.7568056,0.23471204 11.8803586,0.29634232 L15.8611704,2.28203582 C15.9097502,2.30626821 15.9491219,2.34565539 15.9733352,2.3942447 C16.0349171,2.51782194 15.9846598,2.667923 15.8610826,2.72950482 L11.8804261,4.71317159 C11.8166174,4.7449692 11.7422683,4.74801183 11.6760747,4.72153439 C11.5478789,4.67025604 11.4855249,4.52476343 11.5368032,4.39656755 L12.0930869,3.00585832 Z" id="switch_16" fill="#00090D"></path>
    </g>
</svg>