<?xml version="1.0" encoding="UTF-8"?>
<svg width="30px" height="30px" viewBox="0 0 30 30" version="1.1" xmlns="http://www.w3.org/2000/svg" xmlns:xlink="http://www.w3.org/1999/xlink">
    <!-- Generator: Sketch 60.1 (88133) - https://sketch.com -->
    <title>Networking / switch / switch_30</title>
    <desc>Created with Sketch.</desc>
    <g id="Networking-/-switch-/-switch_30" stroke="none" stroke-width="1" fill="none" fill-rule="evenodd">
        <path d="M8.29023022,20.2712152 L8.35844987,20.2878809 C8.48664575,20.3391593 8.54899973,20.4846519 8.49772138,20.6128477 L8.49772138,20.6128477 L7.03470766,24.003557 L12.5345246,24.003557 C12.810667,24.003557 13.0345246,24.2274146 13.0345246,24.503557 C13.0345246,24.7796993 12.810667,25.003557 12.5345246,25.003557 L12.5345246,25.003557 L7.03470766,25.003557 L8.49790804,28.3965913 C8.52436481,28.4627982 8.5212948,28.5371513 8.48947008,28.6009518 C8.4278398,28.7245049 8.27771903,28.7747032 8.15416596,28.713073 L8.15416596,28.713073 L1.17335425,24.7273795 C1.12477445,24.7031471 1.08540271,24.6637599 1.06118937,24.6151706 C0.999607547,24.4915933 1.04986477,24.3414923 1.173442,24.2799105 L1.173442,24.2799105 L8.15409846,20.2962437 C8.21790725,20.2644461 8.29225626,20.2614035 8.35844987,20.2878809 Z M21.9153169,14.2962437 L28.8959733,18.2799105 C29.0195506,18.3414923 29.0698078,18.4915933 29.008226,18.6151706 C28.9840126,18.6637599 28.9446409,18.7031471 28.8960611,18.7273795 L21.9152494,22.713073 C21.7916963,22.7747032 21.6415755,22.7245049 21.5799452,22.6009518 C21.5481205,22.5371513 21.5450505,22.4627982 21.5715073,22.3965913 L23.0347077,19.003557 L17.5348907,19.003557 C17.2587483,19.003557 17.0348907,18.7796993 17.0348907,18.503557 C17.0348907,18.2274146 17.2587483,18.003557 17.5348907,18.003557 L23.0347077,18.003557 L21.5716939,14.6128477 C21.5204156,14.4846519 21.5827696,14.3391593 21.7109655,14.2878809 C21.7771591,14.2614035 21.8515081,14.2644461 21.9153169,14.2962437 Z M8.29023022,7.27121517 L8.35844987,7.28788093 C8.48664575,7.33915928 8.54899973,7.48465189 8.49772138,7.61284774 L8.49772138,7.61284774 L7.03470766,11.003557 L12.5345246,11.003557 C12.810667,11.003557 13.0345246,11.2274146 13.0345246,11.503557 C13.0345246,11.7796993 12.810667,12.003557 12.5345246,12.003557 L12.5345246,12.003557 L7.03470766,12.003557 L8.49790804,15.3965913 C8.52436481,15.4627982 8.5212948,15.5371513 8.48947008,15.6009518 C8.4278398,15.7245049 8.27771903,15.7747032 8.15416596,15.713073 L8.15416596,15.713073 L1.17335425,11.7273795 C1.12477445,11.7031471 1.08540271,11.6637599 1.06118937,11.6151706 C0.999607547,11.4915933 1.04986477,11.3414923 1.173442,11.2799105 L1.173442,11.2799105 L8.15409846,7.29624372 C8.21790725,7.26444611 8.29225626,7.26140348 8.35844987,7.28788093 Z M21.9153169,1.29624372 L28.8959733,5.27991054 C29.0195506,5.34149234 29.0698078,5.49159334 29.008226,5.61517064 C28.9840126,5.66375994 28.9446409,5.70314714 28.8960611,5.72737954 L21.9152494,9.71307304 C21.7916963,9.77470324 21.6415755,9.72450494 21.5799452,9.60095184 C21.5481205,9.53715134 21.5450505,9.46279824 21.5715073,9.39659134 L23.0347077,6.00355704 L17.5348907,6.00355704 C17.2587483,6.00355704 17.0348907,5.77969934 17.0348907,5.50355704 C17.0348907,5.22741464 17.2587483,5.00355704 17.5348907,5.00355704 L23.0347077,5.00355704 L21.5716939,1.61284774 C21.5204156,1.48465189 21.5827696,1.33915928 21.7109655,1.28788093 C21.7771591,1.26140348 21.8515081,1.26444611 21.9153169,1.29624372 Z" id="switch_30" fill="#00090D"></path>
    </g>
</svg>