<?xml version="1.0" encoding="UTF-8"?>
<svg width="24px" height="24px" viewBox="0 0 24 24" version="1.1" xmlns="http://www.w3.org/2000/svg" xmlns:xlink="http://www.w3.org/1999/xlink">
    <!-- Generator: Sketch 60.1 (88133) - https://sketch.com -->
    <title>Networking / switch / switch-square_24</title>
    <desc>Created with Sketch.</desc>
    <g id="Networking-/-switch-/-switch-square_24" stroke="none" stroke-width="1" fill="none" fill-rule="evenodd">
        <path d="M7.90654696,18.0058583 L8.46283066,19.3965675 C8.51410901,19.5247634 8.45175503,19.670256 8.32355915,19.7215344 C8.25736554,19.7480118 8.18301653,19.7449692 8.11920774,19.7131716 L4.13855128,17.7295048 C4.01497405,17.667923 3.96471683,17.5178219 4.02629865,17.3942447 C4.05051199,17.3456554 4.08988372,17.3062682 4.13846353,17.2820358 L8.11927524,15.2963423 C8.24282831,15.234712 8.39294908,15.2849104 8.45457936,15.4084635 C8.48640408,15.4722639 8.48947409,15.5466171 8.46301732,15.612824 L7.90635062,17.0058583 L10.4996339,17.0058583 C10.7757763,17.0058583 10.9996339,17.2297159 10.9996339,17.5058583 C10.9996339,17.7820007 10.7757763,18.0058583 10.4996339,18.0058583 L7.90654696,18.0058583 Z M7.90654696,10.0058583 L8.46283066,11.3965675 C8.51410901,11.5247634 8.45175503,11.670256 8.32355915,11.7215344 C8.25736554,11.7480118 8.18301653,11.7449692 8.11920774,11.7131716 L4.13855128,9.72950482 C4.01497405,9.667923 3.96471683,9.51782194 4.02629865,9.3942447 C4.05051199,9.34565539 4.08988372,9.30626821 4.13846353,9.28203582 L8.11927524,7.29634232 C8.24282831,7.23471204 8.39294908,7.28491039 8.45457936,7.40846346 C8.48640408,7.47226395 8.48947409,7.54661711 8.46301732,7.61282402 L7.90635062,9.00585832 L10.4996339,9.00585832 C10.7757763,9.00585832 10.9996339,9.22971594 10.9996339,9.50585832 C10.9996339,9.78200069 10.7757763,10.0058583 10.4996339,10.0058583 L7.90654696,10.0058583 Z M16.0930869,15.0058583 L13.5,15.0058583 C13.2238576,15.0058583 13,14.7820007 13,14.5058583 C13,14.2297159 13.2238576,14.0058583 13.5,14.0058583 L16.0932833,14.0058583 L15.5366166,12.612824 C15.5101598,12.5466171 15.5132298,12.4722639 15.5450545,12.4084635 C15.6066848,12.2849104 15.7568056,12.234712 15.8803586,12.2963423 L19.8611704,14.2820358 C19.9097502,14.3062682 19.9491219,14.3456554 19.9733352,14.3942447 C20.0349171,14.5178219 19.9846598,14.667923 19.8610826,14.7295048 L15.8804261,16.7131716 C15.8166174,16.7449692 15.7422683,16.7480118 15.6760747,16.7215344 C15.5478789,16.670256 15.4855249,16.5247634 15.5368032,16.3965675 L16.0930869,15.0058583 Z M16.0930869,7.00585832 L13.5,7.00585832 C13.2238576,7.00585832 13,6.78200069 13,6.50585832 C13,6.22971594 13.2238576,6.00585832 13.5,6.00585832 L16.0932833,6.00585832 L15.5366166,4.61282402 C15.5101598,4.54661711 15.5132298,4.47226395 15.5450545,4.40846346 C15.6066848,4.28491039 15.7568056,4.23471204 15.8803586,4.29634232 L19.8611704,6.28203582 C19.9097502,6.30626821 19.9491219,6.34565539 19.9733352,6.3942447 C20.0349171,6.51782194 19.9846598,6.667923 19.8610826,6.72950482 L15.8804261,8.71317159 C15.8166174,8.7449692 15.7422683,8.74801183 15.6760747,8.72153439 C15.5478789,8.67025604 15.4855249,8.52476343 15.5368032,8.39656755 L16.0930869,7.00585832 Z M3.5,1 L20.5,1 C21.8807119,1 23,2.11928813 23,3.5 L23,20.5 C23,21.8807119 21.8807119,23 20.5,23 L3.5,23 C2.11928813,23 1,21.8807119 1,20.5 L1,3.5 C1,2.11928813 2.11928813,1 3.5,1 Z M3.5,2 C2.67157288,2 2,2.67157288 2,3.5 L2,20.5 C2,21.3284271 2.67157288,22 3.5,22 L20.5,22 C21.3284271,22 22,21.3284271 22,20.5 L22,3.5 C22,2.67157288 21.3284271,2 20.5,2 L3.5,2 Z" id="switch-square_24" fill="#00090D"></path>
    </g>
</svg>