<?xml version="1.0" encoding="UTF-8"?>
<svg width="30px" height="30px" viewBox="0 0 30 30" version="1.1" xmlns="http://www.w3.org/2000/svg" xmlns:xlink="http://www.w3.org/1999/xlink">
    <!-- Generator: Sketch 60.1 (88133) - https://sketch.com -->
    <title>Networking / switch / switch-square_30</title>
    <desc>Created with Sketch.</desc>
    <g id="Networking-/-switch-/-switch-square_30" stroke="none" stroke-width="1" fill="none" fill-rule="evenodd">
        <path d="M26,1 C27.6568542,1 29,2.34314575 29,4 L29,26 C29,27.6568542 27.6568542,29 26,29 L4,29 C2.34314575,29 1,27.6568542 1,26 L1,4 C1,2.34314575 2.34314575,1 4,1 L26,1 Z M26,2 L4,2 C2.8954305,2 2,2.8954305 2,4 L2,26 C2,27.1045695 2.8954305,28 4,28 L26,28 C27.1045695,28 28,27.1045695 28,26 L28,4 C28,2.8954305 27.1045695,2 26,2 Z M10.2553395,18.8012152 L10.3235591,18.8178809 C10.451755,18.8691593 10.514109,19.0146519 10.4628307,19.1428477 L10.4628307,19.1428477 L9.5,21.533557 L13.4996339,21.533557 C13.7757763,21.533557 13.9996339,21.7574146 13.9996339,22.033557 C13.9996339,22.3096993 13.7757763,22.533557 13.4996339,22.533557 L13.4996339,22.533557 L9.5,22.533557 L10.4630173,24.9265913 C10.4894741,24.9927982 10.4864041,25.0671513 10.4545794,25.1309518 C10.3929491,25.2545049 10.2428283,25.3047032 10.1192752,25.243073 L10.1192752,25.243073 L4.13846353,22.2573795 C4.08988373,22.2331471 4.05051199,22.1937599 4.02629865,22.1451706 C3.96471683,22.0215933 4.01497405,21.8714923 4.13855128,21.8099105 L4.13855128,21.8099105 L10.1192077,18.8262437 C10.1830165,18.7944461 10.2573655,18.7914035 10.3235591,18.8178809 Z M19.8804261,14.791353 L25.8610826,17.7750198 C25.9846598,17.8366016 26.0349171,17.9867026 25.9733352,18.1102799 C25.9491219,18.1588692 25.9097502,18.1982564 25.8611704,18.2224888 L19.8803587,21.2081823 C19.7568056,21.2698125 19.6066848,21.2196142 19.5450545,21.0960611 C19.5132298,21.0322606 19.5101598,20.9579075 19.5366166,20.8917006 L20.59,18.4986663 L16.5,18.4986663 C16.2238576,18.4986663 16,18.2748086 16,17.9986663 C16,17.7225239 16.2238576,17.4986663 16.5,17.4986663 L20.59,17.4986663 L19.5368032,15.107957 C19.4855249,14.9797612 19.5478789,14.8342686 19.6760747,14.7829902 C19.7422684,14.7565128 19.8166174,14.7595554 19.8804261,14.791353 Z M10.2553395,8.80121517 L10.3235591,8.81788093 C10.451755,8.86915928 10.514109,9.01465189 10.4628307,9.14284774 L10.4628307,9.14284774 L9.5,11.533557 L13.4996339,11.533557 C13.7757763,11.533557 13.9996339,11.7574146 13.9996339,12.033557 C13.9996339,12.3096993 13.7757763,12.533557 13.4996339,12.533557 L13.4996339,12.533557 L9.5,12.533557 L10.4630173,14.9265913 C10.4894741,14.9927982 10.4864041,15.0671513 10.4545794,15.1309518 C10.3929491,15.2545049 10.2428283,15.3047032 10.1192752,15.243073 L10.1192752,15.243073 L4.13846353,12.2573795 C4.08988373,12.2331471 4.05051199,12.1937599 4.02629865,12.1451706 C3.96471683,12.0215933 4.01497405,11.8714923 4.13855128,11.8099105 L4.13855128,11.8099105 L10.1192077,8.82624372 C10.1830165,8.79444611 10.2573655,8.79140348 10.3235591,8.81788093 Z M19.8804261,4.82624372 L25.8610826,7.80991054 C25.9846598,7.87149234 26.0349171,8.02159334 25.9733352,8.14517064 C25.9491219,8.19375994 25.9097502,8.23314714 25.8611704,8.25737954 L19.8803587,11.243073 C19.7568056,11.3047032 19.6066848,11.2545049 19.5450545,11.1309518 C19.5132298,11.0671513 19.5101598,10.9927982 19.5366166,10.9265913 L20.59,8.53355704 L16.5,8.53355704 C16.2238576,8.53355704 16,8.30969934 16,8.03355704 C16,7.75741464 16.2238576,7.53355704 16.5,7.53355704 L20.59,7.53355704 L19.5368032,5.14284774 C19.4855249,5.01465189 19.5478789,4.86915928 19.6760747,4.81788093 C19.7422684,4.79140348 19.8166174,4.79444611 19.8804261,4.82624372 Z" id="switch-square_30" fill="#00090D"></path>
    </g>
</svg>