<?xml version="1.0" encoding="UTF-8"?>
<svg width="16px" height="16px" viewBox="0 0 16 16" version="1.1" xmlns="http://www.w3.org/2000/svg" xmlns:xlink="http://www.w3.org/1999/xlink">
    <!-- Generator: Sketch 60.1 (88133) - https://sketch.com -->
    <title>Networking / switch / switch-disconnect_16</title>
    <desc>Created with Sketch.</desc>
    <g id="Networking-/-switch-/-switch-disconnect_16" stroke="none" stroke-width="1" fill="none" fill-rule="evenodd">
        <path d="M3.86472,14.2566 C3.91548,14.2058 4.00161,14.2235 4.02827,14.2902 L4.46283,15.3766 C4.51411,15.5048 4.45176,15.6503 4.32356,15.7015 C4.25737,15.728 4.18302,15.725 4.11921,15.6932 L3.11493,15.1927 C3.05379,15.1622 3.04052,15.0808 3.08882,15.0325 L3.86472,14.2566 Z M0.15899,13.7197 L0.138551,13.7095 C0.014974,13.6479 -0.0352832,13.4978 0.0262986,13.3742 C0.050512,13.3257 0.0898837,13.2863 0.138464,13.262 L0.542782,13.0604 C0.644246,13.0097 0.738305,13.1404 0.658129,13.2206 L0.15899,13.7197 Z M5.10617,13.0151 C5.12493,12.9964 5.15036,12.9859 5.17688,12.9859 L6.49963,12.9859 C6.77578,12.9859 6.99963,13.2097 6.99963,13.4859 C6.99963,13.762 6.77578,13.9859 6.49963,13.9859 L4.37688,13.9859 C4.28779,13.9859 4.24318,13.8781 4.30617,13.8151 L5.10617,13.0151 Z M10.9221,2.95657 C10.9034,2.97532 10.8779,2.98586 10.8514,2.98586 L9.5,2.98586 C9.22386,2.98586 9,2.762 9,2.48586 C9,2.20972 9.22386,1.98586 9.5,1.98586 L11.6514,1.98586 C11.7405,1.98586 11.7851,2.09357 11.7221,2.15657 L10.9221,2.95657 Z M12.1433,1.73536 C12.0925,1.78613 12.0064,1.76843 11.9798,1.70175 L11.5366,0.592824 C11.5102,0.526617 11.5132,0.452264 11.5451,0.388463 C11.6067,0.26491 11.7568,0.214712 11.8804,0.276342 L12.905,0.787437 C12.9661,0.817922 12.9793,0.89934 12.931,0.947632 L12.1433,1.73536 Z M15.8589,2.2624 C15.8595,2.26181 15.8604,2.26166 15.8612,2.26204 L15.8612,2.26204 C15.9098,2.28627 15.9491,2.32566 15.9733,2.37424 C16.0349,2.49782 15.9847,2.64792 15.8611,2.7095 L15.5148,2.88209 C15.4133,2.93265 15.3193,2.80203 15.3994,2.72187 L15.8589,2.2624 Z M3.90655,5.98586 L4.46283,7.37657 C4.51411,7.50476 4.45176,7.65026 4.32356,7.70153 C4.25737,7.72801 4.18302,7.72497 4.11921,7.69317 L0.138551,5.7095 C0.014974,5.64792 -0.0352832,5.49782 0.0262986,5.37424 C0.050512,5.32566 0.0898837,5.28627 0.138464,5.26204 L4.11928,3.27634 C4.24283,3.21471 4.39295,3.26491 4.45458,3.38846 C4.4864,3.45226 4.48947,3.52662 4.46302,3.59282 L3.90635,4.98586 L6.49963,4.98586 C6.77578,4.98586 6.99963,5.20972 6.99963,5.48586 C6.99963,5.762 6.77578,5.98586 6.49963,5.98586 L3.90655,5.98586 Z M12.0931,10.9859 L9.5,10.9859 C9.22386,10.9859 9,10.762 9,10.4859 C9,10.2097 9.22386,9.98586 9.5,9.98586 L12.0933,9.98586 L11.5366,8.59282 C11.5102,8.52662 11.5132,8.45226 11.5451,8.38846 C11.6067,8.26491 11.7568,8.21471 11.8804,8.27634 L15.8612,10.262 C15.9098,10.2863 15.9491,10.3257 15.9733,10.3742 C16.0349,10.4978 15.9847,10.6479 15.8611,10.7095 L11.8804,12.6932 C11.8166,12.725 11.7423,12.728 11.6761,12.7015 C11.5479,12.6503 11.4855,12.5048 11.5368,12.3766 L12.0931,10.9859 Z M15.1464,0.146447 C15.3417,-0.0488155 15.6583,-0.0488155 15.8536,0.146447 C16.0488,0.341709 16.0488,0.658291 15.8536,0.853553 L0.853553,15.8536 C0.658291,16.0488 0.341709,16.0488 0.146447,15.8536 C-0.0488155,15.6583 -0.0488155,15.3417 0.146447,15.1464 L15.1464,0.146447 Z" id="switch-disconnect_16" fill="#9E9EA2"></path>
    </g>
</svg>