<?xml version="1.0" encoding="UTF-8"?>
<svg width="24px" height="24px" viewBox="0 0 24 24" version="1.1" xmlns="http://www.w3.org/2000/svg" xmlns:xlink="http://www.w3.org/1999/xlink">
    <!-- Generator: Sketch 60.1 (88133) - https://sketch.com -->
    <title>Networking / switch / switch_24</title>
    <desc>Created with Sketch.</desc>
    <g id="Networking-/-switch-/-switch_24" stroke="none" stroke-width="1" fill="none" fill-rule="evenodd">
        <path d="M18.0142857,3.65836746 L16.7089528,1.37403483 C16.6404503,1.25415546 16.6820995,1.1014418 16.8019788,1.03293931 C16.8744802,0.99150998 16.9628793,0.98901398 17.0376028,1.02628633 L22.8684473,3.93473218 C22.992001,3.9963612 23.0422009,4.14648145 22.9805719,4.27003515 C22.9563649,4.31856529 22.9170334,4.35790781 22.86851,4.38212841 L17.0374706,7.292713 C16.9139342,7.35437666 16.7637998,7.30421887 16.7021362,7.18068245 C16.6648437,7.10597113 16.6673139,7.01757356 16.7087204,6.9450614 L18.0144861,4.65836746 L14.5017548,4.65836746 C14.2256124,4.65836746 14.0017548,4.43450983 14.0017548,4.15836746 C14.0017548,3.88222508 14.2256124,3.65836746 14.5017548,3.65836746 L18.0142857,3.65836746 Z M5.99262736,9 L9.5,9 C9.7761424,9 10,9.22385763 10,9.5 C10,9.77614237 9.7761424,10 9.5,10 L5.99242696,10 L7.29819269,12.2866939 C7.33959914,12.3592061 7.34206933,12.4476037 7.3047769,12.522315 C7.24311325,12.6458514 7.09297892,12.6960092 6.96944251,12.6343455 L1.13840303,9.72376095 C1.08987968,9.69954035 1.05054819,9.66019783 1.02634119,9.61166769 C0.96471217,9.48811399 1.01491204,9.33799374 1.13846574,9.27636472 L6.96931029,6.36791887 C7.04403381,6.33064652 7.13243292,6.33314252 7.20493424,6.37457185 C7.3248136,6.44307434 7.36646279,6.59578801 7.29796029,6.71566737 L5.99262736,9 Z M18.0142857,15.0083675 L16.7089528,12.7240348 C16.6404503,12.6041555 16.6820995,12.4514418 16.8019788,12.3829393 C16.8744802,12.34151 16.9628793,12.339014 17.0376028,12.3762863 L22.8684473,15.2847322 C22.992001,15.3463612 23.0422009,15.4964815 22.9805719,15.6200352 C22.9563649,15.6685653 22.9170334,15.7079078 22.86851,15.7321284 L17.0374706,18.642713 C16.9139342,18.7043767 16.7637998,18.6542189 16.7021362,18.5306825 C16.6648437,18.4559711 16.6673139,18.3675736 16.7087204,18.2950614 L18.0144861,16.0083675 L14.5021741,16.0083675 C14.2260318,16.0083675 14.0021741,15.7845098 14.0021741,15.5083675 C14.0021741,15.2322251 14.2260318,15.0083675 14.5021741,15.0083675 L18.0142857,15.0083675 Z M5.99740877,19.35 L9.5,19.35 C9.7761424,19.35 10,19.5738576 10,19.85 C10,20.1261424 9.7761424,20.35 9.5,20.35 L5.98764891,20.35 L7.29819269,22.6450614 C7.33959914,22.7175736 7.34206933,22.8059711 7.3047769,22.8806825 C7.24311325,23.0042189 7.09297892,23.0543767 6.96944251,22.992713 L1.13840303,20.0821284 C1.08987968,20.0579078 1.05054819,20.0185653 1.02634119,19.9700352 C0.96471217,19.8464815 1.01491204,19.6963612 1.13846574,19.6347322 L6.96931029,16.7262863 C7.04403381,16.689014 7.13243292,16.69151 7.20493424,16.7329393 C7.3248136,16.8014418 7.36646279,16.9541555 7.29796029,17.0740348 L5.99740877,19.35 Z" id="switch_24" fill="#00090D"></path>
    </g>
</svg>