<?xml version="1.0" encoding="UTF-8"?>
<svg width="24px" height="24px" viewBox="0 0 24 24" version="1.1" xmlns="http://www.w3.org/2000/svg" xmlns:xlink="http://www.w3.org/1999/xlink">
    <!-- Generator: Sketch 60.1 (88133) - https://sketch.com -->
    <title>Networking/Endpoints/tablet/tablet-filled_24</title>
    <desc>Created with Sketch.</desc>
    <g id="Networking/Endpoints/tablet/tablet-filled_24" stroke="none" stroke-width="1" fill="none" fill-rule="evenodd">
        <path d="M18.999,3 L18.999,21 L2.50089583,21 C1.12195329,21 0.001,19.879 0.001,18.5 L0.001,5.5 C0.001,4.121 1.12195329,3 2.50089583,3 L18.999,3 Z M21.5001042,3 C22.8790467,3 24,4.121 24,5.5 L24,18.5 C24,19.879 22.8790467,21 21.5001042,21 L19.999,21 L19.999,3 L21.5001042,3 Z M21.5001042,11 C21.2556699,11 21.0507402,11.1777778 21.0082179,11.4104252 L21.000125,11.5 L21.000125,12.5 C21.000125,12.775 21.2251156,13 21.5001042,13 C21.7445384,13 21.9494681,12.8222222 21.9919904,12.5895748 L22.0000833,12.5 L22.0000833,11.5 C22.0000833,11.225 21.7750927,11 21.5001042,11 Z" id="tablet-filled_24" fill="#00090D"></path>
    </g>
</svg>