<?xml version="1.0" encoding="UTF-8"?>
<svg width="24px" height="24px" viewBox="0 0 24 24" version="1.1" xmlns="http://www.w3.org/2000/svg" xmlns:xlink="http://www.w3.org/1999/xlink">
    <!-- Generator: Sketch 60.1 (88133) - https://sketch.com -->
    <title>Navigation / view-table / table-view_24</title>
    <desc>Created with Sketch.</desc>
    <g id="Navigation-/-view-table-/-table-view_24" stroke="none" stroke-width="1" fill="none" fill-rule="evenodd">
        <path d="M3,2 L10,2 C10.5522847,2 11,2.44771525 11,3 L11,5 C11,5.55228475 10.5522847,6 10,6 L3,6 C2.44771525,6 2,5.55228475 2,5 L2,3 C2,2.44771525 2.44771525,2 3,2 Z M14.125,2 L20.875,2 C21.4963203,2 22,2.44771525 22,3 L22,5 C22,5.55228475 21.4963203,6 20.875,6 L14.125,6 C13.5036797,6 13,5.55228475 13,5 L13,3 C13,2.44771525 13.5036797,2 14.125,2 Z M14,3 L14,5 L21,5 L21,3 L14,3 Z M3,18 L10,18 C10.5522847,18 11,18.4477153 11,19 L11,21 C11,21.5522847 10.5522847,22 10,22 L3,22 C2.44771525,22 2,21.5522847 2,21 L2,19 C2,18.4477153 2.44771525,18 3,18 Z M14.125,18 L20.875,18 C21.4963203,18 22,18.4477153 22,19 L22,21 C22,21.5522847 21.4963203,22 20.875,22 L14.125,22 C13.5036797,22 13,21.5522847 13,21 L13,19 C13,18.4477153 13.5036797,18 14.125,18 Z M14,19 L14,21 L21,21 L21,19 L14,19 Z M3,10 L10,10 C10.5522847,10 11,10.4477153 11,11 L11,13 C11,13.5522847 10.5522847,14 10,14 L3,14 C2.44771525,14 2,13.5522847 2,13 L2,11 C2,10.4477153 2.44771525,10 3,10 Z M3,11 L3,13 L10,13 L10,11 L3,11 Z M14,10 L21,10 C21.5522847,10 22,10.4477153 22,11 L22,13 C22,13.5522847 21.5522847,14 21,14 L14,14 C13.4477153,14 13,13.5522847 13,13 L13,11 C13,10.4477153 13.4477153,10 14,10 Z" id="table-view_24" fill="#00090D"></path>
    </g>
</svg>