<?xml version="1.0" encoding="UTF-8"?>
<svg width="16px" height="16px" viewBox="0 0 16 16" version="1.1" xmlns="http://www.w3.org/2000/svg" xmlns:xlink="http://www.w3.org/1999/xlink">
    <!-- Generator: Sketch 60.1 (88133) - https://sketch.com -->
    <title>Navigation / view-table / table-view_16</title>
    <desc>Created with Sketch.</desc>
    <g id="Navigation-/-view-table-/-table-view_16" stroke="none" stroke-width="1" fill="none" fill-rule="evenodd">
        <path d="M2,1 L6,1 C6.55228475,1 7,1.44771525 7,2 L7,3 C7,3.55228475 6.55228475,4 6,4 L2,4 C1.44771525,4 1,3.55228475 1,3 L1,2 C1,1.44771525 1.44771525,1 2,1 Z M10,1 L14,1 C14.5522847,1 15,1.44771525 15,2 L15,3 C15,3.55228475 14.5522847,4 14,4 L10,4 C9.44771525,4 9,3.55228475 9,3 L9,2 C9,1.44771525 9.44771525,1 10,1 Z M10,2 L10,3 L14,3 L14,2 L10,2 Z M2,12 L6,12 C6.55228475,12 7,12.4477153 7,13 L7,14 C7,14.5522847 6.55228475,15 6,15 L2,15 C1.44771525,15 1,14.5522847 1,14 L1,13 C1,12.4477153 1.44771525,12 2,12 Z M10,12 L14,12 C14.5522847,12 15,12.4477153 15,13 L15,14 C15,14.5522847 14.5522847,15 14,15 L10,15 C9.44771525,15 9,14.5522847 9,14 L9,13 C9,12.4477153 9.44771525,12 10,12 Z M10,13 L10,14 L14,14 L14,13 L10,13 Z M2,6.5 L6,6.5 C6.55228475,6.5 7,6.94771525 7,7.5 L7,8.5 C7,9.05228475 6.55228475,9.5 6,9.5 L2,9.5 C1.44771525,9.5 1,9.05228475 1,8.5 L1,7.5 C1,6.94771525 1.44771525,6.5 2,6.5 Z M2,7.5 L2,8.5 L6,8.5 L6,7.5 L2,7.5 Z M10,6.5 L14,6.5 C14.5522847,6.5 15,6.94771525 15,7.5 L15,8.5 C15,9.05228475 14.5522847,9.5 14,9.5 L10,9.5 C9.44771525,9.5 9,9.05228475 9,8.5 L9,7.5 C9,6.94771525 9.44771525,6.5 10,6.5 Z" id="table-view_16" fill="#00090D"></path>
    </g>
</svg>