<?xml version="1.0" encoding="UTF-8"?>
<svg width="24px" height="24px" viewBox="0 0 24 24" version="1.1" xmlns="http://www.w3.org/2000/svg" xmlns:xlink="http://www.w3.org/1999/xlink">
    <!-- Generator: Sketch 60.1 (88133) - https://sketch.com -->
    <title>Networking/Endpoints/tablet/tablet_24</title>
    <desc>Created with Sketch.</desc>
    <g id="Networking/Endpoints/tablet/tablet_24" stroke="none" stroke-width="1" fill="none" fill-rule="evenodd">
        <path d="M0.001,5.5 C0.001,4.121 1.12195329,3 2.50089583,3 L21.5001042,3 C22.8790467,3 24,4.121 24,5.5 L24,18.5 C24,19.879 22.8790467,21 21.5001042,21 L2.50089583,21 C1.12195329,21 0.001,19.879 0.001,18.5 L0.001,5.5 Z M19.0002083,4 L2.50089583,4 C1.67393029,4 1.00095833,4.673 1.00095833,5.5 L1.00095833,18.5 C1.00095833,19.327 1.67393029,20 2.50089583,20 L19.0002083,20 L19.0002083,4 Z M21.5001042,4 L20.0001667,4 L20.0001667,20 L21.5001042,20 C22.3270697,20 23.0000417,19.327 23.0000417,18.5 L23.0000417,5.5 C23.0000417,4.673 22.3270697,4 21.5001042,4 Z M22.0000833,12.5 C22.0000833,12.775 21.7750927,13 21.5001041,13 C21.2251156,13 21.000125,12.775 21.000125,12.5 L21.000125,11.5 C21.000125,11.225 21.2251156,11 21.5001041,11 C21.7750927,11 22.0000833,11.225 22.0000833,11.5 L22.0000833,12.5 Z" id="tablet_24" fill="#00090D"></path>
    </g>
</svg>