<?xml version="1.0" encoding="UTF-8"?>
<svg width="16px" height="16px" viewBox="0 0 16 16" version="1.1" xmlns="http://www.w3.org/2000/svg" xmlns:xlink="http://www.w3.org/1999/xlink">
    <!-- Generator: Sketch 60.1 (88133) - https://sketch.com -->
    <title>Networking/Endpoints/tablet/tablet-disconnect_16</title>
    <desc>Created with Sketch.</desc>
    <g id="Networking/Endpoints/tablet/tablet-disconnect_16" stroke="none" stroke-width="1" fill="none" fill-rule="evenodd">
        <path d="M15.3258,2.79553 C15.4063,2.71506 15.5384,2.71738 15.6063,2.80872 C15.8536,3.14155 16,3.55379 16,4 L16,12 C16,13.104 15.104,14 14,14 L12,14 L11,14 L4.60416,14 C4.42598,14 4.33675,13.7846 4.46274,13.6586 L5.06274,13.0586 C5.10025,13.0211 5.15112,13 5.20416,13 L11,13 L11,7.12132 L12,6.12132 L12,13 L14,13 C14.551,13 15,12.552 15,12 L15,4 C15,3.82072 14.9526,3.65242 14.8698,3.50687 C14.8184,3.41659 14.8213,3.3 14.8948,3.22656 L15.3258,2.79553 Z M0.674211,13.2045 C0.593742,13.2849 0.461563,13.2826 0.393689,13.1913 C0.146372,12.8585 0,12.4462 0,12 L0,4 C0,2.896 0.896,2 2,2 L11,2 L11.3958,2 C11.574,2 11.6633,2.21543 11.5373,2.34142 L10.8787,3 L2,3 C1.449,3 1,3.448 1,4 L1,12 C1,12.1793 1.04736,12.3476 1.13019,12.4931 C1.18157,12.5834 1.17868,12.7 1.10524,12.7734 L0.674211,13.2045 Z M13.5,7 C13.776,7 14,7.224 14,7.5 L14,8.5 C14,8.776 13.776,9 13.5,9 C13.224,9 13,8.776 13,8.5 L13,7.5 C13,7.224 13.224,7 13.5,7 Z M15.1464,0.146447 C15.3417,-0.0488155 15.6583,-0.0488155 15.8536,0.146447 C16.0488,0.341709 16.0488,0.658291 15.8536,0.853553 L0.853553,15.8536 C0.658291,16.0488 0.341709,16.0488 0.146447,15.8536 C-0.0488155,15.6583 -0.0488155,15.3417 0.146447,15.1464 L15.1464,0.146447 Z" id="tablet-disconnect_16" fill="#9E9EA2"></path>
    </g>
</svg>