<?xml version="1.0" encoding="UTF-8"?>
<svg width="16px" height="16px" viewBox="0 0 16 16" version="1.1" xmlns="http://www.w3.org/2000/svg" xmlns:xlink="http://www.w3.org/1999/xlink">
    <!-- Generator: Sketch 60.1 (88133) - https://sketch.com -->
    <title>Networking/Endpoints/tablet/tablet_16</title>
    <desc>Created with Sketch.</desc>
    <g id="Networking/Endpoints/tablet/tablet_16" stroke="none" stroke-width="1" fill="none" fill-rule="evenodd">
        <path d="M14,2 C15.104,2 16,2.896 16,4 L16,12 C16,13.104 15.104,14 14,14 L12,14 L11,14 L2,14 C0.896,14 0,13.104 0,12 L0,4 C0,2.896 0.896,2 2,2 L11,2 L12,2 L14,2 Z M15,12 L15,4 C15,3.448 14.551,3 14,3 L12,3 L12,13 L14,13 C14.551,13 15,12.552 15,12 Z M2,13 L11,13 L11,3 L2,3 C1.449,3 1,3.448 1,4 L1,12 C1,12.552 1.449,13 2,13 Z M13.5,7 C13.776,7 14,7.224 14,7.5 L14,8.5 C14,8.776 13.776,9 13.5,9 C13.224,9 13,8.776 13,8.5 L13,7.5 C13,7.224 13.224,7 13.5,7 Z" id="tablet_16" fill="#00090D"></path>
    </g>
</svg>