<?xml version="1.0" encoding="UTF-8"?>
<svg width="16px" height="16px" viewBox="0 0 16 16" version="1.1" xmlns="http://www.w3.org/2000/svg" xmlns:xlink="http://www.w3.org/1999/xlink">
    <!-- Generator: Sketch 60.1 (88133) - https://sketch.com -->
    <title>Action/tag/tag-filled_16</title>
    <desc>Created with Sketch.</desc>
    <g id="Action/tag/tag-filled_16" stroke="none" stroke-width="1" fill="none" fill-rule="evenodd">
        <path d="M14.7307585,1.2668305 C15.9301342,2.46337633 16.3205914,4.26139013 15.7253042,5.84693318 L14.802769,8.30232832 C14.5587332,8.951722 14.1850785,9.53242216 13.6930064,10.0260572 L8.50424608,15.2291944 C8.00577304,15.7268233 7.34327598,16 6.63997293,16 C5.93506965,16 5.27337269,15.7268233 4.77489965,15.2299932 L0.771112989,11.232987 C-0.257037663,10.2065774 -0.257037663,8.5371644 0.771112989,7.51075492 L5.95267222,2.31480655 C6.45034514,1.81558015 7.03603097,1.43776562 7.69532757,1.19094808 L10.1428862,0.274767792 C11.731919,-0.320310076 13.5321828,0.0694858968 14.7307585,1.2668305 Z M12.7979152,3.99556206 C12.7979152,3.55384654 12.4394627,3.19679982 11.997798,3.19679982 C11.5561333,3.19679982 11.1976807,3.55384654 11.1976807,3.99556206 C11.1976807,4.43727758 11.5561333,4.7943243 11.997798,4.7943243 C12.4394627,4.7943243 12.7979152,4.43727758 12.7979152,3.99556206 Z" id="tag-filled_16" fill="#00090D"></path>
    </g>
</svg>