<?xml version="1.0" encoding="UTF-8"?>
<svg width="16px" height="16px" viewBox="0 0 16 16" version="1.1" xmlns="http://www.w3.org/2000/svg" xmlns:xlink="http://www.w3.org/1999/xlink">
    <!-- Generator: Sketch 60.1 (88133) - https://sketch.com -->
    <title>Action/tag/tag_16</title>
    <desc>Created with Sketch.</desc>
    <g id="Action/tag/tag_16" stroke="none" stroke-width="1" fill="none" fill-rule="evenodd">
        <path d="M14.7307585,1.2668305 C15.9301342,2.46337633 16.3205914,4.26139013 15.7253042,5.84693318 L14.802769,8.30232832 C14.5587332,8.951722 14.1850785,9.53242216 13.6930064,10.0260572 L8.50424608,15.2291944 C8.00577304,15.7268233 7.34327598,16 6.63997293,16 C5.93506965,16 5.27337269,15.7268233 4.77489965,15.2299932 L0.771112989,11.232987 C-0.257037663,10.2065774 -0.257037663,8.5371644 0.771112989,7.51075492 L5.95267222,2.31480655 C6.45034514,1.81558015 7.03603097,1.43776562 7.69532757,1.19094808 L10.1428862,0.274767792 C11.731919,-0.320310076 13.5321828,0.0694858968 14.7307585,1.2668305 Z M14.9755943,5.56576886 C15.4612655,4.27337156 15.1428188,2.80764286 14.1650755,1.8315554 C13.4913769,1.15819883 12.5840439,0.798755822 11.6615087,0.798755822 C11.2454478,0.798755822 10.8261863,0.871443184 10.4245274,1.02240925 L7.97616872,1.9393883 C7.42488794,2.14546896 6.93521619,2.46098004 6.51995534,2.87793393 L1.33759599,8.07468104 C0.620690948,8.78957328 0.620690948,9.95336984 1.33679587,10.6682621 L5.34058254,14.6652683 C6.0350843,15.3577951 7.24406145,15.3577951 7.9377631,14.6652683 L13.1257233,9.46292984 C13.5377837,9.04917096 13.8498294,8.56512104 14.0538593,8.021164 L14.9755943,5.56576886 Z M11.997798,3.19679982 C12.4394627,3.19679982 12.7979152,3.55384654 12.7979152,3.99556206 C12.7979152,4.43727758 12.4394627,4.7943243 11.997798,4.7943243 C11.5561333,4.7943243 11.1976807,4.43727758 11.1976807,3.99556206 C11.1976807,3.55384654 11.5561333,3.19679982 11.997798,3.19679982 L11.997798,3.19679982 Z" id="tag_16" fill="#00090D"></path>
    </g>
</svg>