<?xml version="1.0" encoding="UTF-8"?>
<svg width="24px" height="24px" viewBox="0 0 24 24" version="1.1" xmlns="http://www.w3.org/2000/svg" xmlns:xlink="http://www.w3.org/1999/xlink">
    <!-- Generator: Sketch 60.1 (88133) - https://sketch.com -->
    <title>Tools / task-manager / task-manager-filled_24</title>
    <desc>Created with Sketch.</desc>
    <g id="Tools-/-task-manager-/-task-manager-filled_24" stroke="none" stroke-width="1" fill="none" fill-rule="evenodd">
        <path d="M9,2 L21,2 C21.5522847,2 22,2.44771525 22,3 L22,5 C22,5.55228475 21.5522847,6 21,6 L9,6 C8.44771525,6 8,5.55228475 8,5 L8,3 C8,2.44771525 8.44771525,2 9,2 Z M4,6 C2.8954305,6 2,5.1045695 2,4 C2,2.8954305 2.8954305,2 4,2 C5.1045695,2 6,2.8954305 6,4 C6,5.1045695 5.1045695,6 4,6 Z M9,10 L21,10 C21.5522847,10 22,10.4477152 22,11 L22,13 C22,13.5522847 21.5522847,14 21,14 L9,14 C8.44771525,14 8,13.5522847 8,13 L8,11 C8,10.4477152 8.44771525,10 9,10 Z M4,14 C2.8954305,14 2,13.1045695 2,12 C2,10.8954305 2.8954305,10 4,10 C5.1045695,10 6,10.8954305 6,12 C6,13.1045695 5.1045695,14 4,14 Z M9,18 L21,18 C21.5522847,18 22,18.4477153 22,19 L22,21 C22,21.5522847 21.5522847,22 21,22 L9,22 C8.44771525,22 8,21.5522847 8,21 L8,19 C8,18.4477153 8.44771525,18 9,18 Z M4,22 C2.8954305,22 2,21.1045695 2,20 C2,18.8954305 2.8954305,18 4,18 C5.1045695,18 6,18.8954305 6,20 C6,21.1045695 5.1045695,22 4,22 Z" id="task-manager-filled_24" fill="#00090D"></path>
    </g>
</svg>