<?xml version="1.0" encoding="UTF-8"?>
<svg width="16px" height="16px" viewBox="0 0 16 16" version="1.1" xmlns="http://www.w3.org/2000/svg" xmlns:xlink="http://www.w3.org/1999/xlink">
    <!-- Generator: Sketch 60.1 (88133) - https://sketch.com -->
    <title>Navigation / task-list / task-list_16</title>
    <desc>Created with Sketch.</desc>
    <g id="Navigation-/-task-list-/-task-list_16" stroke="none" stroke-width="1" fill="none" fill-rule="evenodd">
        <path d="M1.5,3 C1.22385763,3 1,2.77614237 1,2.5 C1,2.22385763 1.22385763,2 1.5,2 C1.77614237,2 2,2.22385763 2,2.5 C2,2.77614237 1.77614237,3 1.5,3 Z M1.5,8.5 C1.22385763,8.5 1,8.27614237 1,8 C1,7.72385763 1.22385763,7.5 1.5,7.5 C1.77614237,7.5 2,7.72385763 2,8 C2,8.27614237 1.77614237,8.5 1.5,8.5 Z M1.5,14 C1.22385763,14 1,13.7761424 1,13.5 C1,13.2238576 1.22385763,13 1.5,13 C1.77614237,13 2,13.2238576 2,13.5 C2,13.7761424 1.77614237,14 1.5,14 Z M4.42307692,2 L14.5769231,2 C14.810582,2 15,2.22385763 15,2.5 C15,2.77614237 14.810582,3 14.5769231,3 L4.42307692,3 C4.18941799,3 4,2.77614237 4,2.5 C4,2.22385763 4.18941799,2 4.42307692,2 Z M4.42307692,7.5 L14.5769231,7.5 C14.810582,7.5 15,7.72385763 15,8 C15,8.27614237 14.810582,8.5 14.5769231,8.5 L4.42307692,8.5 C4.18941799,8.5 4,8.27614237 4,8 C4,7.72385763 4.18941799,7.5 4.42307692,7.5 Z M4.42307692,13 L14.5769231,13 C14.810582,13 15,13.2238576 15,13.5 C15,13.7761424 14.810582,14 14.5769231,14 L4.42307692,14 C4.18941799,14 4,13.7761424 4,13.5 C4,13.2238576 4.18941799,13 4.42307692,13 Z" id="task-list_16" fill="#00090D"></path>
    </g>
</svg>