<?xml version="1.0" encoding="UTF-8"?>
<svg width="24px" height="24px" viewBox="0 0 24 24" version="1.1" xmlns="http://www.w3.org/2000/svg" xmlns:xlink="http://www.w3.org/1999/xlink">
    <!-- Generator: Sketch 60.1 (88133) - https://sketch.com -->
    <title>Tools / task-manager / task-manager_24</title>
    <desc>Created with Sketch.</desc>
    <g id="Tools-/-task-manager-/-task-manager_24" stroke="none" stroke-width="1" fill="none" fill-rule="evenodd">
        <path d="M9,2 L21,2 C21.5522847,2 22,2.44771525 22,3 L22,5 C22,5.55228475 21.5522847,6 21,6 L9,6 C8.44771525,6 8,5.55228475 8,5 L8,3 C8,2.44771525 8.44771525,2 9,2 Z M9,3 L9,5 L21,5 L21,3 L9,3 Z M4,6 C2.8954305,6 2,5.1045695 2,4 C2,2.8954305 2.8954305,2 4,2 C5.1045695,2 6,2.8954305 6,4 C6,5.1045695 5.1045695,6 4,6 Z M4,5 C4.55228475,5 5,4.55228475 5,4 C5,3.44771525 4.55228475,3 4,3 C3.44771525,3 3,3.44771525 3,4 C3,4.55228475 3.44771525,5 4,5 Z M9,10 L21,10 C21.5522847,10 22,10.4477153 22,11 L22,13 C22,13.5522847 21.5522847,14 21,14 L9,14 C8.44771525,14 8,13.5522847 8,13 L8,11 C8,10.4477153 8.44771525,10 9,10 Z M9,11 L9,13 L21,13 L21,11 L9,11 Z M4,14 C2.8954305,14 2,13.1045695 2,12 C2,10.8954305 2.8954305,10 4,10 C5.1045695,10 6,10.8954305 6,12 C6,13.1045695 5.1045695,14 4,14 Z M4,13 C4.55228475,13 5,12.5522847 5,12 C5,11.4477153 4.55228475,11 4,11 C3.44771525,11 3,11.4477153 3,12 C3,12.5522847 3.44771525,13 4,13 Z M9,18 L21,18 C21.5522847,18 22,18.4477153 22,19 L22,21 C22,21.5522847 21.5522847,22 21,22 L9,22 C8.44771525,22 8,21.5522847 8,21 L8,19 C8,18.4477153 8.44771525,18 9,18 Z M9,19 L9,21 L21,21 L21,19 L9,19 Z M4,22 C2.8954305,22 2,21.1045695 2,20 C2,18.8954305 2.8954305,18 4,18 C5.1045695,18 6,18.8954305 6,20 C6,21.1045695 5.1045695,22 4,22 Z M4,21 C4.55228475,21 5,20.5522847 5,20 C5,19.4477153 4.55228475,19 4,19 C3.44771525,19 3,19.4477153 3,20 C3,20.5522847 3.44771525,21 4,21 Z" id="task-manager_24" fill="#00090D"></path>
    </g>
</svg>