<?xml version="1.0" encoding="UTF-8"?>
<svg width="16px" height="16px" viewBox="0 0 16 16" version="1.1" xmlns="http://www.w3.org/2000/svg" xmlns:xlink="http://www.w3.org/1999/xlink">
    <!-- Generator: Sketch 60.1 (88133) - https://sketch.com -->
    <title>Tools / task-manager / task-manager-filled_16</title>
    <desc>Created with Sketch.</desc>
    <g id="Tools-/-task-manager-/-task-manager-filled_16" stroke="none" stroke-width="1" fill="none" fill-rule="evenodd">
        <path d="M6,0 L15,0 C15.5522847,0 16,0.44771525 16,1 L16,2 C16,2.55228475 15.5522847,3 15,3 L6,3 C5.44771525,3 5,2.55228475 5,2 L5,1 C5,0.44771525 5.44771525,0 6,0 Z M6,6.5 L15,6.5 C15.5522847,6.5 16,6.94771525 16,7.5 L16,8.5 C16,9.05228475 15.5522847,9.5 15,9.5 L6,9.5 C5.44771525,9.5 5,9.05228475 5,8.5 L5,7.5 C5,6.94771525 5.44771525,6.5 6,6.5 Z M6,13 L15,13 C15.5522847,13 16,13.4477153 16,14 L16,15 C16,15.5522847 15.5522847,16 15,16 L6,16 C5.44771525,16 5,15.5522847 5,15 L5,14 C5,13.4477153 5.44771525,13 6,13 Z M1.5,3 C0.671572875,3 0,2.32842712 0,1.5 C0,0.671572875 0.671572875,0 1.5,0 C2.32842712,0 3,0.671572875 3,1.5 C3,2.32842712 2.32842712,3 1.5,3 Z M1.5,9.5 C0.671572875,9.5 0,8.82842712 0,8 C0,7.17157288 0.671572875,6.5 1.5,6.5 C2.32842712,6.5 3,7.17157288 3,8 C3,8.82842712 2.32842712,9.5 1.5,9.5 Z M1.5,16 C0.671572875,16 0,15.3284271 0,14.5 C0,13.6715729 0.671572875,13 1.5,13 C2.32842712,13 3,13.6715729 3,14.5 C3,15.3284271 2.32842712,16 1.5,16 Z" id="taskManager-filled_16" fill="#00090D"></path>
    </g>
</svg>