<?xml version="1.0" encoding="UTF-8"?>
<svg width="18px" height="18px" viewBox="0 0 18 18" version="1.1" xmlns="http://www.w3.org/2000/svg" xmlns:xlink="http://www.w3.org/1999/xlink">
    <!-- Generator: Sketch 60.1 (88133) - https://sketch.com -->
    <title>Navigation / task-list / task-list_18</title>
    <desc>Created with Sketch.</desc>
    <g id="Navigation-/-task-list-/-task-list_18" stroke="none" stroke-width="1" fill="none" fill-rule="evenodd">
        <path d="M1.5,3 C1.22385763,3 1,2.77614237 1,2.5 C1,2.22385763 1.22385763,2 1.5,2 C1.77614237,2 2,2.22385763 2,2.5 C2,2.77614237 1.77614237,3 1.5,3 Z M1.5,9.5 C1.22385763,9.5 1,9.27614237 1,9 C1,8.72385763 1.22385763,8.5 1.5,8.5 C1.77614237,8.5 2,8.72385763 2,9 C2,9.27614237 1.77614237,9.5 1.5,9.5 Z M1.5,16 C1.22385763,16 1,15.7761424 1,15.5 C1,15.2238576 1.22385763,15 1.5,15 C1.77614237,15 2,15.2238576 2,15.5 C2,15.7761424 1.77614237,16 1.5,16 Z M4.5,2 L16.5,2 C16.7761424,2 17,2.22385763 17,2.5 C17,2.77614237 16.7761424,3 16.5,3 L4.5,3 C4.22385763,3 4,2.77614237 4,2.5 C4,2.22385763 4.22385763,2 4.5,2 Z M4.5,8.5 L16.5,8.5 C16.7761424,8.5 17,8.72385763 17,9 C17,9.27614237 16.7761424,9.5 16.5,9.5 L4.5,9.5 C4.22385763,9.5 4,9.27614237 4,9 C4,8.72385763 4.22385763,8.5 4.5,8.5 Z M4.5,15 L16.5,15 C16.7761424,15 17,15.2238576 17,15.5 C17,15.7761424 16.7761424,16 16.5,16 L4.5,16 C4.22385763,16 4,15.7761424 4,15.5 C4,15.2238576 4.22385763,15 4.5,15 Z" id="task-list_18" fill="#00090D"></path>
    </g>
</svg>