<?xml version="1.0" encoding="UTF-8"?>
<svg width="24px" height="24px" viewBox="0 0 24 24" version="1.1" xmlns="http://www.w3.org/2000/svg" xmlns:xlink="http://www.w3.org/1999/xlink">
    <!-- Generator: Sketch 60.1 (88133) - https://sketch.com -->
    <title>Networking / telepresence / telepresence_24</title>
    <desc>Created with Sketch.</desc>
    <g id="Networking-/-telepresence-/-telepresence_24" stroke="none" stroke-width="1" fill="none" fill-rule="evenodd">
        <path d="M15.3177951,19 L16.5,19 C18.263236,19 19.7219407,20.3038529 19.9645556,22 L21.5,22 C22.3284271,22 23,21.3284271 23,20.5 L23,7.5 C23,6.67157288 22.3284271,6 21.5,6 L2.5,6 C1.67157288,6 1,6.67157288 1,7.5 L1,20.5 C1,21.3284271 1.67157288,22 2.5,22 L4.03544443,22 C4.27805926,20.3038529 5.73676405,19 7.5,19 L8.68220488,19 C7.06550934,17.9250785 6,16.0869708 6,14 C6,10.6862915 8.6862915,8 12,8 C15.3137085,8 18,10.6862915 18,14 C18,16.0869708 16.9344907,17.9250785 15.3177951,19 Z M12,19 C14.7614237,19 17,16.7614237 17,14 C17,11.2385763 14.7614237,9 12,9 C9.23857625,9 7,11.2385763 7,14 C7,16.7614237 9.23857625,19 12,19 Z M2.5,5 L21.5,5 C22.8807119,5 24,6.11928813 24,7.5 L24,20.5 C24,21.8807119 22.8807119,23 21.5,23 L2.5,23 C1.11928813,23 0,21.8807119 0,20.5 L0,7.5 C0,6.11928813 1.11928813,5 2.5,5 Z M18.9499909,22 C18.7183558,20.8588798 17.709479,20 16.5,20 L7.5,20 C6.29052104,20 5.28164422,20.8588798 5.05000906,22 L18.9499909,22 Z M12,5 C10.8954305,5 10,4.1045695 10,3 C10,1.8954305 10.8954305,1 12,1 C13.1045695,1 14,1.8954305 14,3 C14,4.1045695 13.1045695,5 12,5 Z M12,4 C12.5522847,4 13,3.55228475 13,3 C13,2.44771525 12.5522847,2 12,2 C11.4477153,2 11,2.44771525 11,3 C11,3.55228475 11.4477153,4 12,4 Z" id="telepresence_24" fill="#00090D"></path>
    </g>
</svg>