<?xml version="1.0" encoding="UTF-8"?>
<svg width="16px" height="16px" viewBox="0 0 16 16" version="1.1" xmlns="http://www.w3.org/2000/svg" xmlns:xlink="http://www.w3.org/1999/xlink">
    <!-- Generator: Sketch 60.1 (88133) - https://sketch.com -->
    <title>Networking / telepresence / telepresence-filled_16</title>
    <desc>Created with Sketch.</desc>
    <g id="Networking-/-telepresence-/-telepresence-filled_16" stroke="none" stroke-width="1" fill="none" fill-rule="evenodd">
        <path d="M14,3 C15.1045695,3 16,3.8954305 16,5 L16,13 C16,14.1045695 15.1045695,15 14,15 L2,15 C0.8954305,15 0,14.1045695 0,13 L0,5 C0,3.8954305 0.8954305,3 2,3 L14,3 Z M8,3 C7.44771525,3 7,2.55228475 7,2 C7,1.44771525 7.44771525,1 8,1 C8.55228475,1 9,1.44771525 9,2 C9,2.55228475 8.55228475,3 8,3 Z M12.9499909,14 L14,14 C14.5522847,14 15,13.5522847 15,13 L15,5 C15,4.44771525 14.5522847,4 14,4 L2,4 C1.44771525,4 1,4.44771525 1,5 L1,13 C1,13.5522847 1.44771525,14 2,14 L3.05000906,14 C3.27255828,12.9036405 4.21257009,12.0678138 5.35863452,12.0039297 C4.52563018,11.2708913 4,10.1968294 4,9 C4,6.790861 5.790861,5 8,5 C10.209139,5 12,6.790861 12,9 C12,10.1968294 11.4743698,11.2708913 10.6413655,12.0039297 C11.7874299,12.0678138 12.7274417,12.9036405 12.9499909,14 Z" id="telepresence-filled_16" fill="#00090D"></path>
    </g>
</svg>