<?xml version="1.0" encoding="UTF-8"?>
<svg width="24px" height="24px" viewBox="0 0 24 24" version="1.1" xmlns="http://www.w3.org/2000/svg" xmlns:xlink="http://www.w3.org/1999/xlink">
    <!-- Generator: Sketch 60.1 (88133) - https://sketch.com -->
    <title>Tools / template-editor / template-editor-filled_24</title>
    <desc>Created with Sketch.</desc>
    <g id="Tools-/-template-editor-/-template-editor-filled_24" stroke="none" stroke-width="1" fill="none" fill-rule="evenodd">
        <path d="M11.5,15 L11.5,12.5 C11.5,12.2238576 11.7238576,12 12,12 C12.2761424,12 12.5,12.2238576 12.5,12.5 L12.5,15 L18.5,15 C18.6380712,15 18.7630712,15.0559644 18.8535534,15.1464466 C18.9440356,15.2369288 19,15.3619288 19,15.5 L19,18.5 C19,18.7761424 18.7761424,19 18.5,19 C18.2238576,19 18,18.7761424 18,18.5 L18,16 L12.5,16 L12.5,18.5 C12.5,18.7761424 12.2761424,19 12,19 C11.7238576,19 11.5,18.7761424 11.5,18.5 L11.5,16 L6,16 L6,18.5 C6,18.7761424 5.77614237,19 5.5,19 C5.22385763,19 5,18.7761424 5,18.5 L5,15.5 C5,15.3619288 5.05596441,15.2369288 5.14644661,15.1464466 C5.23692881,15.0559644 5.36192881,15 5.5,15 L11.5,15 Z M6,0 L18,0 C19.1045695,0 20,0.976833273 20,2.18181818 L20,9.81818182 C20,11.0231667 19.1045695,12 18,12 L6,12 C4.8954305,12 4,11.0231667 4,9.81818182 L4,2.18181818 C4,0.976833273 4.8954305,0 6,0 Z M11.5,9 L14.5,9 C14.7761424,9 15,8.77614237 15,8.5 C15,8.22385763 14.7761424,8 14.5,8 L11.5,8 C11.2238576,8 11,8.22385763 11,8.5 C11,8.77614237 11.2238576,9 11.5,9 Z M8.79381201,6.50127295 L7.15463717,8.15065166 C6.95998182,8.34651873 6.96096413,8.6630997 7.1568312,8.85775504 C7.35269827,9.05241038 7.66927923,9.05142808 7.86393457,8.85556101 L9.8546487,6.85245467 C10.0489462,6.65694768 10.0483768,6.34107433 9.85337576,6.14626907 L7.86266163,4.15755374 C7.66730143,3.96238969 7.35071898,3.96254871 7.15555494,4.1579089 C6.9603909,4.3532691 6.96054991,4.66985155 7.15591011,4.8650156 L8.79381201,6.50127295 Z M5.5,24 C4.11928813,24 3,22.8807119 3,21.5 C3,20.1192881 4.11928813,19 5.5,19 C6.88071187,19 8,20.1192881 8,21.5 C8,22.8807119 6.88071187,24 5.5,24 Z M10.5,19 L13.5,19 C14.0522847,19 14.5,19.4477153 14.5,20 L14.5,23 C14.5,23.5522847 14.0522847,24 13.5,24 L10.5,24 C9.94771525,24 9.5,23.5522847 9.5,23 L9.5,20 C9.5,19.4477153 9.94771525,19 10.5,19 Z M17,19 L20,19 C20.5522847,19 21,19.4477153 21,20 L21,23 C21,23.5522847 20.5522847,24 20,24 L17,24 C16.4477153,24 16,23.5522847 16,23 L16,20 C16,19.4477153 16.4477153,19 17,19 Z" id="template-editor-filled_24" fill="#00090D"></path>
    </g>
</svg>