<?xml version="1.0" encoding="UTF-8"?>
<svg width="16px" height="16px" viewBox="0 0 16 16" version="1.1" xmlns="http://www.w3.org/2000/svg" xmlns:xlink="http://www.w3.org/1999/xlink">
    <!-- Generator: Sketch 60.1 (88133) - https://sketch.com -->
    <title>Navigation/template-group_16</title>
    <desc>Created with Sketch.</desc>
    <g id="Navigation/template-group_16" stroke="none" stroke-width="1" fill="none" fill-rule="evenodd">
        <path d="M2,1 L7,1 C7.55228475,1 8,1.44771525 8,2 L8,14 C8,14.5522847 7.55228475,15 7,15 L2,15 C1.44771525,15 1,14.5522847 1,14 L1,2 C1,1.44771525 1.44771525,1 2,1 Z M2,2 L2,14 L7,14 L7,2 L2,2 Z M10,8 L14,8 C14.5522847,8 15,8.44771525 15,9 L15,14 C15,14.5522847 14.5522847,15 14,15 L10,15 C9.44771525,15 9,14.5522847 9,14 L9,9 C9,8.44771525 9.44771525,8 10,8 Z M10,9 L10,14 L14,14 L14,9 L10,9 Z M10,1 L14,1 C14.5522847,1 15,1.44771525 15,2 L15,6 C15,6.55228475 14.5522847,7 14,7 L10,7 C9.44771525,7 9,6.55228475 9,6 L9,2 C9,1.44771525 9.44771525,1 10,1 Z M10,2 L10,6 L14,6 L14,2 L10,2 Z" id="template-group_16" fill="#00090D"></path>
    </g>
</svg>