<?xml version="1.0" encoding="UTF-8"?>
<svg width="16px" height="16px" viewBox="0 0 16 16" version="1.1" xmlns="http://www.w3.org/2000/svg" xmlns:xlink="http://www.w3.org/1999/xlink">
    <!-- Generator: Sketch 60.1 (88133) - https://sketch.com -->
    <title>Networking/terminate_16</title>
    <desc>Created with Sketch.</desc>
    <g id="Networking/terminate_16" stroke="none" stroke-width="1" fill="none" fill-rule="evenodd">
        <path d="M7.64213,5 C8.08759,5 8.31067,5.53857 7.99569,5.85355 L7.99569,5.85355 C7.90192,5.94732 7.77474,6 7.64213,6 L2,6 C1.44772,6 1,6.44772 1,7 L1,9 C1,9.55228 1.44772,10 2,10 L2.64213,10 C3.08759,10 3.31067,10.53857 2.99569,10.85355 L2.99569,10.85355 C2.90192,10.94732 2.77474,11 2.64213,11 L2,11 C0.895431,11 0,10.1046 0,9 L0,7 C0,5.89543 0.895431,5 2,5 L7.64213,5 Z M7.94543,10.14645 C8.0392,10.05268 8.16638,10 8.29899,10 L14,10 C14.5523,10 15,9.55228 15,9 L15,7 C15,6.44772 14.5523,6 14,6 L13.299,6 C12.8536,6 12.6305,5.46143 12.9455,5.14645 L12.9455,5.14645 C13.0392,5.05268 13.1664,5 13.299,5 L14,5 C15.1046,5 16,5.89543 16,7 L16,9 C16,10.1046 15.1046,11 14,11 L8.29899,11 C7.85353,11 7.63045,10.46143 7.94543,10.14645 L7.94543,10.14645 Z M15.1423389,0.147224188 C15.3385681,-0.0490747292 15.6566743,-0.0490747292 15.8529035,0.147224188 C16.0490322,0.343522602 16.0490322,0.66178496 15.8529035,0.858083374 L0.857610357,15.8528229 C0.661421386,16.049059 0.343335221,16.049059 0.14714625,15.8528229 C-0.04904875,15.6564863 -0.04904875,15.3382059 0.14714625,15.1418693 L15.1423389,0.147224188 Z" id="terminate_16" fill="#9E9EA2"></path>
    </g>
</svg>