<?xml version="1.0" encoding="UTF-8"?>
<svg width="24px" height="24px" viewBox="0 0 24 24" version="1.1" xmlns="http://www.w3.org/2000/svg" xmlns:xlink="http://www.w3.org/1999/xlink">
    <!-- Generator: Sketch 60.1 (88133) - https://sketch.com -->
    <title>Action/thumb/thumb-up_24</title>
    <desc>Created with Sketch.</desc>
    <g id="Action/thumb/thumb-up_24" stroke="none" stroke-width="1" fill="none" fill-rule="evenodd">
        <path d="M22.9758466,12.4124 L21.7363568,19.3204 C21.3421551,21.4534 19.4849164,23.0004 17.3203001,23.0004 L7.0002,23.0004 L7.0002,12.7554 C7.0002,12.3174 7.08103629,11.8884 7.24071292,11.4804 L11.2086771,1.3184 C11.2845235,1.1254 11.4671537,1.0004 11.6737353,1.0004 L12.0090562,1.0004 C12.4641346,1.0004 12.8892736,1.2044 13.1736976,1.5594 C13.4601176,1.9144 13.5678993,2.3734 13.4710954,2.8194 L12.067937,9.2884 C12.0040663,9.5864 12.0759208,9.8924 12.2665348,10.1284 C12.4571488,10.3654 12.7405748,10.5004 13.0429624,10.5004 L21.4708944,10.5004 C21.8930395,10.5004 22.3052048,10.7064 22.6026025,11.0644 C22.9209578,11.4494 23.0606748,11.9514 22.9758466,12.4124 L22.9758466,12.4124 Z M6.0002,23.0004 L3.5002,23.0004 C2.1222,23.0004 1.0002,21.8794 1.0002,20.5004 L1.0002,15.5004 C1.0002,14.2924 1.5262,13.0004 3.0002,13.0004 L6.0002,13.0004 L6.0002,23.0004 Z M23.371629,10.4254 C22.8832886,9.8374 22.1902248,9.5004 21.4711961,9.5004 L13.0375886,9.5004 L14.4426905,3.0324 C14.6034733,2.2884 14.4227175,1.5234 13.946361,0.9324 C13.4700045,0.3404 12.7619609,0.000399999997 12.0029862,0.000399999997 L11.6674394,0.000399999997 C11.0462785,0.000399999997 10.4980191,0.3754 10.272324,0.9544 L6.30068905,11.1164 C6.18884014,11.4034 6.11394132,11.7004 6.06301012,12.0004 L2.99615295,12.0004 C1.20457309,12.0004 0.0002,13.4074 0.0002,15.5004 L0.0002,20.5004 C0.0002,22.4304 1.56908069,24.0004 3.49547844,24.0004 L5.9921059,24.0004 L6.99075688,24.0004 L17.3178067,24.0004 C19.9652304,24.0004 22.2361628,22.1094 22.7195099,19.4994 L23.9598344,12.5914 C24.0976482,11.8454 23.877945,11.0354 23.371629,10.4254 L23.371629,10.4254 Z" id="thumb-up_24" fill="#00090D"></path>
    </g>
</svg>