<?xml version="1.0" encoding="UTF-8"?>
<svg width="25px" height="24px" viewBox="0 0 25 24" version="1.1" xmlns="http://www.w3.org/2000/svg" xmlns:xlink="http://www.w3.org/1999/xlink">
    <!-- Generator: Sketch 60.1 (88133) - https://sketch.com -->
    <title>Action/thumb/thumb-up-filled_24</title>
    <desc>Created with Sketch.</desc>
    <g id="Action/thumb/thumb-up-filled_24" stroke="none" stroke-width="1" fill="none" fill-rule="evenodd">
        <path d="M6,12.0004 L6,24 L7,24 L7,11.9576306 C7.05682475,11.6721809 7.19415799,11.3897546 7.30068905,11.1164 L11.272324,0.9544 C11.4980191,0.3754 12.0462785,0.000399999997 12.6674394,0.000399999997 L13.0029862,0.000399999997 C13.7619609,0.000399999997 14.4700045,0.3404 14.946361,0.9324 C15.4227175,1.5234 15.6034733,2.2884 15.4426905,3.0324 L14.0375886,9.5004 L22.4711961,9.5004 C23.1902248,9.5004 23.8832886,9.8374 24.371629,10.4254 C24.877945,11.0354 25.0976482,11.8454 24.9598344,12.5914 L23.7195099,19.4994 C23.2361628,22.1094 20.9652304,24.0004 18.3178067,24.0004 L7.99075688,24.0004 L6.9921059,24.0004 L4.49547844,24.0004 C2.56908069,24.0004 1.0002,22.4304 1.0002,20.5004 L1.0002,15.5004 C1.0002,13.4074 2.20457309,12.0004 3.99615295,12.0004 L6,12.0004 Z" id="thumb-up-filled_24" fill="#00090D"></path>
    </g>
</svg>