<?xml version="1.0" encoding="UTF-8"?>
<svg width="16px" height="16px" viewBox="0 0 16 16" version="1.1" xmlns="http://www.w3.org/2000/svg" xmlns:xlink="http://www.w3.org/1999/xlink">
    <!-- Generator: Sketch 60.1 (88133) - https://sketch.com -->
    <title>Action/thumb/thumb-down-filled_16</title>
    <desc>Created with Sketch.</desc>
    <g id="Action/thumb/thumb-down-filled_16" stroke="none" stroke-width="1" fill="none" fill-rule="evenodd">
        <path d="M11.5529446,6.83897383e-14 C13.1575538,6.83897383e-14 14.5475656,1.08928831 14.942611,2.62791207 L14.9851907,2.81466278 L15.9423808,7.60837873 C15.9681291,7.73732897 15.9810973,7.86850423 15.9810973,8 C15.9810973,9.0543618 15.1652195,9.91816512 14.1303597,9.99451426 L13.9810973,10 L9.134,10 L9.53651418,11.6964739 L9.99706204,13.6822864 C10.0719192,14.5065898 9.71902407,15.2670102 9.1315755,15.6921161 C8.48712622,16.1584704 7.68232599,16.1030436 7.28285229,15.3556738 C6.07084246,12.3113831 5.13857697,10.1781318 4.50043697,8.97902484 L4.5,2.68673972e-14 L4.5,2.68673972e-14 L11.5529446,6.83897383e-14 Z M3.5,8 L3.501,8 L2,8 C0.945638205,8 0.0818348781,7.18412221 0.00548573643,6.14926234 L1.0658141e-13,6 L1.0658141e-13,2 C1.0658141e-13,0.945638205 0.815877791,0.0818348781 1.85073766,0.00548573643 L2,6.83897383e-14 L3.5,2.68673972e-14 L3.5,8 Z" id="thumb-down-filled_16" fill="#00090D"></path>
    </g>
</svg>