<?xml version="1.0" encoding="UTF-8"?>
<svg width="24px" height="24px" viewBox="0 0 24 24" version="1.1" xmlns="http://www.w3.org/2000/svg" xmlns:xlink="http://www.w3.org/1999/xlink">
    <!-- Generator: Sketch 60.1 (88133) - https://sketch.com -->
    <title>Action/thumb/thumb-down_24</title>
    <desc>Created with Sketch.</desc>
    <g id="Action/thumb/thumb-down_24" stroke="none" stroke-width="1" fill="none" fill-rule="evenodd">
        <path d="M17.2827758,-2.0783375e-13 C19.9624612,-2.0783375e-13 22.2521213,1.93120195 22.7040085,4.5725107 L22.7040085,4.5725107 L23.9031907,11.5818052 C23.9270167,11.7210697 23.938994,11.8621033 23.938994,12.0033912 C23.938994,13.3841031 22.8197059,14.5033912 21.438994,14.5033912 L21.438994,14.5033912 L13.1086689,14.5033912 L13.7489731,17.67965 C13.9872133,18.8376096 14.1873317,19.7765557 14.3489688,20.4950047 L14.3489688,20.4950047 L14.4413305,20.8996025 C14.71199,21.9771626 14.0895782,23.1092978 13.0757288,23.6721562 C11.9812377,24.2797845 10.7762094,24.0253596 10.1805858,22.8070458 C8.47464123,18.5221045 7.22666626,15.2214153 6.4358088,12.9020522 L6.4358088,12.9020522 L6.24761723,12.342654 C6.17979665,12.1380727 5.98852971,11.9999817 5.77298175,12 L5.77298175,12 L3.5,12 C1.56700338,12 3.55271368e-14,10.4329966 3.55271368e-14,8.5 L3.55271368e-14,8.5 L3.55271368e-14,3.5 C3.55271368e-14,1.56700338 1.56700338,-2.0783375e-13 3.5,-2.0783375e-13 L3.5,-2.0783375e-13 Z M17.2827758,1 L7,0.999 L7.00181313,11.6395403 C7.05836784,11.7202943 7.1073751,11.8072638 7.14765942,11.8996001 L7.19681869,12.027985 C7.81611367,13.8960931 8.78631415,16.5196867 10.0986369,19.8782836 L10.0986369,19.8782836 L11.0940757,22.4020056 C11.4010408,23.028154 11.962131,23.1466204 12.5903437,22.7978558 C13.2369336,22.4388886 13.6212954,21.7397542 13.4693416,21.1344565 C13.2996828,20.4035076 13.0810324,19.3900057 12.8132532,18.0933879 L12.8132532,18.0933879 L12.1277874,14.6980024 C12.0203031,14.1562708 12.3723381,13.6299823 12.9140706,13.5225081 C12.9781565,13.5097941 13.043334,13.5033912 13.1086689,13.5033912 L13.1086689,13.5033912 L21.438994,13.5033912 C22.2674211,13.5033912 22.938994,12.8318184 22.938994,12.0033912 C22.938994,11.9186185 22.9318076,11.8339983 22.917512,11.7504396 L22.917512,11.7504396 L21.7183298,4.74114512 C21.3486039,2.58007432 19.4752457,1 17.2827758,1 L17.2827758,1 Z M6,0.999 L3.5,1 C2.11928813,1 1,2.11928813 1,3.5 L1,3.5 L1,8.5 C1,9.88071187 2.11928813,11 3.5,11 L3.5,11 L5.7729393,11 C5.85014309,10.9999934 5.92630974,11.0058944 6.00093261,11.0173369 L6,0.999 Z" id="thumb-down_24" fill="#00090D"></path>
    </g>
</svg>