<?xml version="1.0" encoding="UTF-8"?>
<svg width="16px" height="16px" viewBox="0 0 16 16" version="1.1" xmlns="http://www.w3.org/2000/svg" xmlns:xlink="http://www.w3.org/1999/xlink">
    <!-- Generator: Sketch 60.1 (88133) - https://sketch.com -->
    <title>Action/thumb/thumb-down_16</title>
    <desc>Created with Sketch.</desc>
    <g id="Action/thumb/thumb-down_16" stroke="none" stroke-width="1" fill="none" fill-rule="evenodd">
        <path d="M11.5529446,0 C13.2217381,0 14.6584232,1.17817424 14.9851907,2.81466278 L14.9851907,2.81466278 L15.9423808,7.60837873 C15.9681291,7.73732897 15.9810973,7.86850423 15.9810973,8 C15.9810973,9.1045695 15.0856668,10 13.9810973,10 L13.9810973,10 L9.134,10 L9.53651418,11.6964739 L9.99706204,13.6822864 C10.0719192,14.5065898 9.71902407,15.2670102 9.1315755,15.6921161 C8.48712622,16.1584704 7.68232599,16.1030436 7.28285229,15.3556738 C5.74595009,11.495328 4.65887071,9.0999137 4.05093755,8.21654243 C3.95764311,8.08097879 3.8036151,8 3.639053,8 L3.639053,8 L2,8 C0.8954305,8 5.68434189e-14,7.1045695 5.68434189e-14,6 L5.68434189e-14,6 L5.68434189e-14,2 C5.68434189e-14,0.8954305 0.8954305,0 2,0 L2,0 Z M11.5529446,1 L4.5,1 L4.5011167,7.27245434 C4.60585049,7.34599314 4.7015708,7.43321016 4.78543133,7.53260882 L4.87471146,7.64962397 C5.44982345,8.48530368 6.34858381,10.4062202 7.57407399,13.4089233 L7.57407399,13.4089233 L8.18741475,14.9332878 C8.23538316,15.0221825 8.34149123,15.0294901 8.54532618,14.8819854 C8.84919406,14.6620921 9.04383731,14.2426738 9.01205873,13.8405553 C8.86598845,13.2112339 8.71592751,12.5702601 8.56187246,11.9176196 L8.56187246,11.9176196 L8.08772155,9.92468411 C7.99127828,9.52193428 8.23951017,9.11720835 8.64225917,9.02066201 C8.69952183,9.00693511 8.75820189,9 8.81708686,9 L8.81708686,9 L13.9810973,9 C14.5333821,9 14.9810973,8.55228475 14.9810973,8 C14.9810973,7.93425211 14.9746132,7.86866448 14.9617391,7.80418936 L14.9617391,7.80418936 L14.0045489,3.01047341 C13.7711436,1.84155303 12.74494,1 11.5529446,1 L11.5529446,1 Z M3.5,7 L3.5,1 L2,1 C1.48716416,1 1.06449284,1.38604019 1.00672773,1.88337887 L1,2 L1,6 C1,6.55228475 1.44771525,7 2,7 L2,7 L3.5,7 Z" id="thumb-down_16" fill="#00090D"></path>
    </g>
</svg>