<?xml version="1.0" encoding="UTF-8"?>
<svg width="24px" height="24px" viewBox="0 0 24 24" version="1.1" xmlns="http://www.w3.org/2000/svg" xmlns:xlink="http://www.w3.org/1999/xlink">
    <!-- Generator: Sketch 60.1 (88133) - https://sketch.com -->
    <title>Action/thumb/thumb-down-filled_24</title>
    <desc>Created with Sketch.</desc>
    <g id="Action/thumb/thumb-down-filled_24" stroke="none" stroke-width="1" fill="none" fill-rule="evenodd">
        <path d="M6,12 L6,-2.13162821e-14 L17.2827758,8.70414851e-14 C19.883647,8.70414851e-14 22.117098,1.81927242 22.6594036,4.34132795 L22.7040085,4.5725107 L23.9031907,11.5818052 C23.9270167,11.7210697 23.938994,11.8621033 23.938994,12.0033912 C23.938994,13.3288746 22.9074581,14.4134299 21.6033697,14.4980736 L21.438994,14.5033912 L13.1086689,14.5033912 L13.7489731,17.67965 C13.9607422,18.7089474 14.1423903,19.5651972 14.293665,20.2473572 L14.3489688,20.4950047 L14.4413305,20.8996025 C14.71199,21.9771626 14.0895782,23.1092978 13.0757288,23.6721562 C11.9812377,24.2797845 10.7762094,24.0253596 10.1805858,22.8070458 C8.54572226,18.7006437 7.33145926,15.4981815 6.53704687,13.1970839 L6.4358088,12.9020522 L6.24761723,12.342654 C6.18948531,12.1672986 6.04065809,12.0407932 5.86358374,12.008239 L5.77298175,12 L6,12 Z M3.5,12 C1.6314366,12 0.104873551,10.5357224 0.00517886273,8.6920352 L-4.26325641e-14,8.5 L-4.26325641e-14,3.5 C-4.26325641e-14,1.6314366 1.4642776,0.104873551 3.3079648,0.00517886273 L3.5,8.70414851e-14 L5,-2.13162821e-14 L5,12 L3.5,12 Z" id="thumb-down-filled_24" fill="#00090D"></path>
    </g>
</svg>