<?xml version="1.0" encoding="UTF-8"?>
<svg width="16px" height="16px" viewBox="0 0 16 16" version="1.1" xmlns="http://www.w3.org/2000/svg" xmlns:xlink="http://www.w3.org/1999/xlink">
    <!-- Generator: Sketch 60.1 (88133) - https://sketch.com -->
    <title>Action/thumb/thumb-up-filled_16</title>
    <desc>Created with Sketch.</desc>
    <g id="Action/thumb/thumb-up-filled_16" stroke="none" stroke-width="1" fill="none" fill-rule="evenodd">
        <path d="M4,8 L4,16 L1.99483583,16 C0.894683869,16 1.75859327e-13,15.1030689 1.75859327e-13,14.0001536 L1.75859327e-13,9.9904617 C1.75859327e-13,8.88754639 0.894683869,8 1.99483583,8 L4,8 Z M8.58976308,0.06522413 C9.59915001,0.44119524 10.176655,1.48211528 9.96420497,2.54103393 L9.11639974,6.00076815 L14.0047449,6.00076815 C14.5922241,6.00076815 15.1467885,6.25103449 15.5268047,6.7 C15.9068209,7.14996544 16.0694,7.74863388 15.9726505,8.32858933 L15.2525147,12.6572568 C14.9313462,14.594108 13.2756324,16 11.3177011,16 L5,16 L5,6.692 L7.29611205,0.61418195 C7.50656723,0.11622021 8.07709027,-0.125761202 8.58976308,0.06522413 Z" id="thumb-up-filled_16" fill="#00090D"></path>
    </g>
</svg>