<svg width="24" height="24" viewBox="0 0 24 24" fill="none" xmlns="http://www.w3.org/2000/svg">
<path fill-rule="evenodd" clip-rule="evenodd" d="M24 12C24 5.383 18.616 0 12 0C5.383 0 0 5.383 0 12C0 18.617 5.383 24 12 24C18.616 24 24 18.617 24 12ZM23 12C23 18.065 18.065 23 12 23C5.935 23 1 18.065 1 12C1 5.935 5.935 1 12 1C18.065 1 23 5.935 23 12ZM17.469 8.5C17.469 6.846 16.123 5.5 14.469 5.5C12.815 5.5 11.469 6.846 11.469 8.5C11.469 9.146 11.679 9.743 12.029 10.232L6.647 15.615C6.451 15.811 6.451 16.127 6.647 16.322L8.647 18.322C8.744 18.42 8.872 18.469 9 18.469C9.128 18.469 9.256 18.42 9.354 18.322L11.354 16.322C11.549 16.127 11.549 15.811 11.354 15.615L9.707 13.969L12.736 10.939C13.226 11.29 13.822 11.5 14.469 11.5C16.123 11.5 17.469 10.154 17.469 8.5ZM16.469 8.5C16.469 9.603 15.572 10.5 14.469 10.5C13.366 10.5 12.469 9.603 12.469 8.5C12.469 7.396 13.366 6.5 14.469 6.5C15.572 6.5 16.469 7.396 16.469 8.5ZM9 14.676L10.293 15.969L9 17.262L7.707 15.969L9 14.676Z" fill="#545454"/>
</svg>
