<?xml version="1.0" encoding="UTF-8"?>
<svg width="16px" height="16px" viewBox="0 0 16 16" version="1.1" xmlns="http://www.w3.org/2000/svg" xmlns:xlink="http://www.w3.org/1999/xlink">
    <!-- Generator: Sketch 60.1 (88133) - https://sketch.com -->
    <title>Networking / topology / topology_16</title>
    <desc>Created with Sketch.</desc>
    <g id="Networking-/-topology-/-topology_16" stroke="none" stroke-width="1" fill="none" fill-rule="evenodd">
        <path d="M4,1 C5.65685425,1 7,2.34314575 7,4 C7,4.22854384 6.97444396,4.45111874 6.92603369,4.6650229 L10.4245017,6.10587294 C10.8734494,5.43882079 11.6354787,5 12.5,5 C13.8807119,5 15,6.11928813 15,7.5 C15,8.88071187 13.8807119,10 12.5,10 C11.8420608,10 11.2434838,9.74583992 10.7970945,9.33034516 L8,11.327 L8,14 C8,14.5522847 7.55228475,15 7,15 L4,15 C3.44771525,15 3,14.5522847 3,14 L3,11 C3,10.4477153 3.44771525,10 4,10 L4.555,10 L4.02317804,6.99991233 C4.01545893,6.99997074 4.00773288,7 4,7 C2.34314575,7 1,5.65685425 1,4 C1,2.34314575 2.34314575,1 4,1 Z M7,11 L4,11 L4,14 L7,14 L7,11 Z M5.0078238,6.8265167 L5.57,10 L7,10 C7.28047213,10 7.53397567,10.1154663 7.71556796,10.3014562 L10.2154702,8.51687661 C10.0769812,8.20621318 10,7.86209655 10,7.5 C10,7.33987216 10.0150546,7.18326051 10.0438257,7.03150322 L6.54535814,5.58857305 C6.18983556,6.15702203 5.64917716,6.59781687 5.0078238,6.8265167 Z M12.5,6 C11.6715729,6 11,6.67157288 11,7.5 C11,8.32842712 11.6715729,9 12.5,9 C13.3284271,9 14,8.32842712 14,7.5 C14,6.67157288 13.3284271,6 12.5,6 Z M4,2 C2.8954305,2 2,2.8954305 2,4 C2,5.1045695 2.8954305,6 4,6 C5.1045695,6 6,5.1045695 6,4 C6,2.8954305 5.1045695,2 4,2 Z" id="topology_16" fill="#00090D" fill-rule="nonzero"></path>
    </g>
</svg>