<?xml version="1.0" encoding="UTF-8"?>
<svg width="24px" height="24px" viewBox="0 0 24 24" version="1.1" xmlns="http://www.w3.org/2000/svg" xmlns:xlink="http://www.w3.org/1999/xlink">
    <!-- Generator: Sketch 60.1 (88133) - https://sketch.com -->
    <title>Networking / topology / topology-filled_24</title>
    <desc>Created with Sketch.</desc>
    <g id="Networking-/-topology-/-topology-filled_24" stroke="none" stroke-width="1" fill="none" fill-rule="evenodd">
        <path d="M6.5,2 C8.98528137,2 11,4.01471863 11,6.5 C11,6.97143482 10.9275052,7.42593758 10.7930555,7.85296855 L16.4992724,10.3421972 C17.0366311,9.53323574 17.9560436,9 19,9 C20.6568542,9 22,10.3431458 22,12 C22,13.6568542 20.6568542,15 19,15 C18.1119261,15 17.3139794,14.6141196 16.7646837,14.0008825 L11,17.711 L11,21 C11,21.5522847 10.5522847,22 10,22 L6,22 C5.44771525,22 5,21.5522847 5,21 L5,17 C5,16.4477153 5.44771525,16 6,16 L7.138,16 L6.53530388,10.9998644 C6.5235466,10.9999547 6.51177858,11 6.5,11 C4.01471863,11 2,8.98528137 2,6.5 C2,4.01471863 4.01471863,2 6.5,2 Z M7.52882635,10.8818504 L8.145,16 L10,16 C10.4026109,16 10.7496506,16.2379288 10.908182,16.5808492 L16.230362,13.1549018 C16.0819598,12.7994222 16,12.4092824 16,12 C16,11.7434618 16.0322002,11.4944444 16.0927794,11.2567689 L10.3875516,8.76793222 C9.77359046,9.81807848 8.74629058,10.5971093 7.52882635,10.8818504 Z" id="topology-filled_24" fill="#00090D"></path>
    </g>
</svg>