<?xml version="1.0" encoding="UTF-8"?>
<svg width="24px" height="24px" viewBox="0 0 24 24" version="1.1" xmlns="http://www.w3.org/2000/svg" xmlns:xlink="http://www.w3.org/1999/xlink">
    <!-- Generator: Sketch 60.1 (88133) - https://sketch.com -->
    <title>Tools / traffic-copies / traffic-copies-filled_24</title>
    <desc>Created with Sketch.</desc>
    <g id="Tools-/-traffic-copies-/-traffic-copies-filled_24" stroke="none" stroke-width="1" fill="none" fill-rule="evenodd">
        <path d="M2,7 L2,6 C2,5.44771525 2.44771525,5 3,5 L23,5 C23.5522847,5 24,5.44771525 24,6 L24,16 C24,16.5522847 23.5522847,17 23,17 L22,17 L22,18 C22,18.5522847 21.5522847,19 21,19 L1,19 C0.44771525,19 0,18.5522847 0,18 L0,8 C0,7.44771525 0.44771525,7 1,7 L2,7 Z M3,7 L21,7 C21.5522847,7 22,7.44771525 22,8 L22,16 L23,16 L23,6 L3,6 L3,7 Z M13,12.5 L13,12 C13,11.4477153 12.5522847,11 12,11 L10,11 C9.44771525,11 9,11.4477153 9,12 L9,12.5 L7,12.5 L7,12 C7,11.4477153 6.55228475,11 6,11 L4,11 C3.44771525,11 3,11.4477153 3,12 L3,12.5 L2.5,12.5 C2.22385763,12.5 2,12.7238576 2,13 C2,13.2761424 2.22385763,13.5 2.5,13.5 L3,13.5 L3,14 C3,14.5522847 3.44771525,15 4,15 L6,15 C6.55228475,15 7,14.5522847 7,14 L7,13.5 L9,13.5 L9,14 C9,14.5522847 9.44771525,15 10,15 L12,15 C12.5522847,15 13,14.5522847 13,14 L13,13.5 L15,13.5 L15,14 C15,14.5522847 15.4477153,15 16,15 L18,15 C18.5522847,15 19,14.5522847 19,14 L19,13.5 L19.5099382,13.5 C19.7860805,13.5 20.0099382,13.2761424 20.0099382,13 C20.0099382,12.7238576 19.7860805,12.5 19.5099382,12.5 L19,12.5 L19,12 C19,11.4477153 18.5522847,11 18,11 L16,11 C15.4477153,11 15,11.4477153 15,12 L15,12.5 L13,12.5 Z M4,12.9003141 L4,12 L6,12 L6,14 L4,14 L4,13.0996859 C4.00651741,13.0674723 4.00993816,13.0341356 4.00993816,13 C4.00993816,12.9658644 4.00651741,12.9325277 4,12.9003141 Z M10,12 L12,12 L12,14 L10,14 L10,12 Z M16,12 L18,12 L18,14 L16,14 L16,12 Z" id="traffic-copies-filled_24" fill="#00090D"></path>
    </g>
</svg>