<?xml version="1.0" encoding="UTF-8"?>
<svg width="24px" height="24px" viewBox="0 0 24 24" version="1.1" xmlns="http://www.w3.org/2000/svg" xmlns:xlink="http://www.w3.org/1999/xlink">
    <!-- Generator: Sketch 60.1 (88133) - https://sketch.com -->
    <title>Tools / traffic-copies / traffic-copies_24</title>
    <desc>Created with Sketch.</desc>
    <g id="Tools-/-traffic-copies-/-traffic-copies_24" stroke="none" stroke-width="1" fill="none" fill-rule="evenodd">
        <path d="M2,7 L2,6 C2,5.44771525 2.44771525,5 3,5 L23,5 C23.5522847,5 24,5.44771525 24,6 L24,16 C24,16.5522847 23.5522847,17 23,17 L22,17 L22,18 C22,18.5522847 21.5522847,19 21,19 L1,19 C0.44771525,19 0,18.5522847 0,18 L0,8 C0,7.44771525 0.44771525,7 1,7 L2,7 Z M3,7 L21,7 C21.5522847,7 22,7.44771525 22,8 L22,16 L23,16 L23,6 L3,6 L3,7 Z M1,8 L1,18 L21,18 L21,8 L1,8 Z M13,12.5 L15,12.5 L15,12 C15,11.4477153 15.4477153,11 16,11 L18,11 C18.5522847,11 19,11.4477153 19,12 L19,12.5 L19.5099382,12.5 C19.7860805,12.5 20.0099382,12.7238576 20.0099382,13 C20.0099382,13.2761424 19.7860805,13.5 19.5099382,13.5 L19,13.5 L19,14 C19,14.5522847 18.5522847,15 18,15 L16,15 C15.4477153,15 15,14.5522847 15,14 L15,13.5 L13,13.5 L13,14 C13,14.5522847 12.5522847,15 12,15 L10,15 C9.44771525,15 9,14.5522847 9,14 L9,13.5 L7,13.5 L7,14 C7,14.5522847 6.55228475,15 6,15 L4,15 C3.44771525,15 3,14.5522847 3,14 L3,13.5 L2.5,13.5 C2.22385763,13.5 2,13.2761424 2,13 C2,12.7238576 2.22385763,12.5 2.5,12.5 L3,12.5 L3,12 C3,11.4477153 3.44771525,11 4,11 L6,11 C6.55228475,11 7,11.4477153 7,12 L7,12.5 L9,12.5 L9,12 C9,11.4477153 9.44771525,11 10,11 L12,11 C12.5522847,11 13,11.4477153 13,12 L13,12.5 Z M4,12.9003141 C4.00651741,12.9325277 4.00993816,12.9658644 4.00993816,13 C4.00993816,13.0341356 4.00651741,13.0674723 4,13.0996859 L4,14 L6,14 L6,12 L4,12 L4,12.9003141 Z M10,12 L10,14 L12,14 L12,12 L10,12 Z M16,12 L16,14 L18,14 L18,12 L16,12 Z" id="traffic-copies_24" fill="#00090D"></path>
    </g>
</svg>