<?xml version="1.0" encoding="UTF-8"?>
<svg width="24px" height="24px" viewBox="0 0 24 24" version="1.1" xmlns="http://www.w3.org/2000/svg" xmlns:xlink="http://www.w3.org/1999/xlink">
    <!-- Generator: Sketch 60.1 (88133) - https://sketch.com -->
    <title>Action/trash/trash_24</title>
    <desc>Created with Sketch.</desc>
    <g id="Action/trash/trash_24" stroke="none" stroke-width="1" fill="none" fill-rule="evenodd">
        <path d="M18.81,6.0001 C19.147,6.0001 19.47,6.1461 19.694,6.4001 C19.925,6.6611 20.033,7.0101 19.99,7.3571 L18.244,21.6991 C18.084,23.0111 16.987,24.0001 15.693,24.0001 L8.307,24.0001 C7.013,24.0001 5.916,23.0111 5.756,21.6991 L4.01,7.3571 C3.967,7.0101 4.075,6.6611 4.306,6.4001 C4.53,6.1461 4.854,6.0001 5.19,6.0001 L18.81,6.0001 Z M17.252,21.5781 L18.998,7.2361 C19.009,7.1491 18.97,7.0901 18.945,7.0631 C18.92,7.0351 18.876,7.0001 18.81,7.0001 L5.19,7.0001 C5.124,7.0001 5.08,7.0351 5.055,7.0631 C5.03,7.0901 4.991,7.1491 5.002,7.2361 L6.748,21.5781 C6.848,22.3891 7.518,23.0001 8.307,23.0001 L15.693,23.0001 C16.482,23.0001 17.152,22.3891 17.252,21.5781 Z M4.5,4 C4.224,4 4,3.776 4,3.5 C4,3.224 4.224,3 4.5,3 L8,3 L8,2 C8,0.897 8.872,1.13686838e-13 9.943,1.13686838e-13 L14.057,1.13686838e-13 C15.128,1.13686838e-13 16,0.897 16,2 L16,3 L19.5,3 C19.776,3 20,3.224 20,3.5 C20,3.776 19.776,4 19.5,4 L4.5,4 Z M9,2 L9,3 L15,3 L15,2 C15,1.449 14.577,1 14.057,1 L9.943,1 C9.423,1 9,1.449 9,2 Z M9,9.5 C9,9.22385763 9.22385763,9 9.5,9 C9.77614237,9 10,9.22385763 10,9.5 L10,20.5 C10,20.7761424 9.77614237,21 9.5,21 C9.22385763,21 9,20.7761424 9,20.5 L9,9.5 Z M14,9.5 C14,9.22385763 14.2238576,9 14.5,9 C14.7761424,9 15,9.22385763 15,9.5 L15,20.5 C15,20.7761424 14.7761424,21 14.5,21 C14.2238576,21 14,20.7761424 14,20.5 L14,9.5 Z M11.5,9.5 C11.5,9.22385763 11.7238576,9 12,9 C12.2761424,9 12.5,9.22385763 12.5,9.5 L12.5,20.5 C12.5,20.7761424 12.2761424,21 12,21 C11.7238576,21 11.5,20.7761424 11.5,20.5 L11.5,9.5 Z" id="trash_24" fill="#00090D"></path>
    </g>
</svg>