<?xml version="1.0" encoding="UTF-8"?>
<svg width="16px" height="16px" viewBox="0 0 16 16" version="1.1" xmlns="http://www.w3.org/2000/svg" xmlns:xlink="http://www.w3.org/1999/xlink">
    <!-- Generator: Sketch 60.1 (88133) - https://sketch.com -->
    <title>Action/trash/trash_16</title>
    <desc>Created with Sketch.</desc>
    <g id="Action/trash/trash_16" stroke="none" stroke-width="1" fill="none" fill-rule="evenodd">
        <path d="M12.4994,2 C12.7764,2 12.9994,2.224 12.9994,2.5 C12.9994,2.776 12.7764,3 12.4994,3 L3.4994,3 C3.2234,3 3,2.776 3,2.5 C3,2.224 3.2234,2 3.4994,2 L4.9994,2 L4.9994,1.389 C4.9994,0.623 5.6224,0 6.3884,0 L9.6104,0 C10.3764,0 10.9994,0.623 10.9994,1.389 L10.9994,2 L12.4994,2 Z M9.9994,2 L9.9994,1.389 C9.9994,1.175 9.8244,1 9.6104,1 L6.3884,1 C6.1744,1 5.9994,1.175 5.9994,1.389 L5.9994,2 L9.9994,2 Z M11.9122,4 C12.4982,4 12.9572,4.5 12.9092,5.083 L12.1522,14.166 C12.0652,15.203 11.1992,16 10.1582,16 L5.8402,16 C4.8002,16 3.9332,15.203 3.8472,14.166 L3.0902,5.083 C3.0412,4.5 3.5012,4 4.0862,4 L11.9122,4 Z M11.1552,14.083 L11.9122,5 L4.0862,5 L4.8432,14.083 C4.8862,14.598 5.3242,15 5.8402,15 L10.1582,15 C10.6742,15 11.1122,14.598 11.1552,14.083 Z M6,6.5 C6,6.36192881 6.11192881,6.25 6.25,6.25 C6.38807119,6.25 6.5,6.36192881 6.5,6.5 L6.5,13.5 C6.5,13.6380712 6.38807119,13.75 6.25,13.75 C6.11192881,13.75 6,13.6380712 6,13.5 L6,6.5 Z M9.5,6.5 C9.5,6.36192881 9.61192881,6.25 9.75,6.25 C9.88807119,6.25 10,6.36192881 10,6.5 L10,13.5 C10,13.6380712 9.88807119,13.75 9.75,13.75 C9.61192881,13.75 9.5,13.6380712 9.5,13.5 L9.5,6.5 Z M7.75,6.5 C7.75,6.36192881 7.86192881,6.25 8,6.25 C8.13807119,6.25 8.25,6.36192881 8.25,6.5 L8.25,13.5 C8.25,13.6380712 8.13807119,13.75 8,13.75 C7.86192881,13.75 7.75,13.6380712 7.75,13.5 L7.75,6.5 Z" id="trash_16" fill="#00090D"></path>
    </g>
</svg>