<?xml version="1.0" encoding="UTF-8"?>
<svg width="16px" height="16px" viewBox="0 0 16 16" version="1.1" xmlns="http://www.w3.org/2000/svg" xmlns:xlink="http://www.w3.org/1999/xlink">
    <!-- Generator: Sketch 60.1 (88133) - https://sketch.com -->
    <title>Navigation / view-tree-map / tree-map-view_16</title>
    <desc>Created with Sketch.</desc>
    <g id="Navigation-/-view-tree-map-/-tree-map-view_16" stroke="none" stroke-width="1" fill="none" fill-rule="evenodd">
        <path d="M13.5,1 C14.3284271,1 15,1.67157288 15,2.5 L15,13.5 C15,14.3284271 14.3284271,15 13.5,15 L2.5,15 C1.67157288,15 1,14.3284271 1,13.5 L1,2.5 C1,1.67157288 1.67157288,1 2.5,1 L13.5,1 Z M14,11 L11,11 L11,14 L13.5,14 C13.7454599,14 13.9496084,13.8231248 13.9919443,13.5898756 L14,13.5 L14,11 Z M6,2 L2.5,2 C2.25454011,2 2.05039163,2.17687516 2.00805567,2.41012437 L2,2.5 L2,13.5 C2,13.7454599 2.17687516,13.9496084 2.41012437,13.9919443 L2.5,14 L6,14 L6,2 Z M7,14 L10,14 L10,7 L7,7 L7,14 Z M14,7 L11,7 L11,10 L14,10 L14,7 Z M13.5,2 L7,2 L7,6 L14,6 L14,2.5 C14,2.25454011 13.8231248,2.05039163 13.5898756,2.00805567 L13.5,2 Z" id="tree-map-view_16" fill="#00090D"></path>
    </g>
</svg>