<svg width="24" height="24" viewBox="0 0 24 24" fill="none" xmlns="http://www.w3.org/2000/svg">
<g id="Size=24px" clip-path="url(#clip0)">
<path id="trend_24" d="M22.293 6L13.5001 14.7929L8.85368 10.1464C8.65841 9.95118 8.34183 9.95118 8.14657 10.1464L0.146569 18.1464C-0.0486933 18.3417 -0.0486936 18.6583 0.146569 18.8536C0.341831 19.0488 0.658413 19.0488 0.853675 18.8536L8.50012 11.2071L13.1466 15.8536C13.3418 16.0488 13.6584 16.0488 13.8537 15.8536L23.0001 6.70715V13.5C23.0001 13.7761 23.2239 14 23.5001 14C23.7762 14 24.0001 13.7761 24.0001 13.5V6C24.0001 5.44772 23.5524 5 23.0001 5H15.5001C15.2239 5 15.0001 5.22386 15.0001 5.5C15.0001 5.77614 15.2239 6 15.5001 6H22.293Z" fill="#545454"/>
</g>
<defs>
<clipPath id="clip0">
<rect width="24" height="24" fill="white"/>
</clipPath>
</defs>
</svg>
