<svg width="18" height="18" viewBox="0 0 18 18" fill="none" xmlns="http://www.w3.org/2000/svg">
<g id="Size=18px" clip-path="url(#clip0)">
<g id="trend_18">
<path fill-rule="evenodd" clip-rule="evenodd" d="M10.0001 11.2929L16.6465 4.64645C16.8418 4.45118 17.1584 4.45118 17.3536 4.64645C17.5489 4.84171 17.5489 5.15829 17.3536 5.35355L10.3536 12.3536C10.1584 12.5488 9.8418 12.5488 9.64654 12.3536L6.50012 9.20711L0.853675 14.8536C0.658413 15.0488 0.341831 15.0488 0.146569 14.8536C-0.0486936 14.6583 -0.0486933 14.3417 0.146569 14.1464L6.14657 8.14645C6.34183 7.95118 6.65842 7.95118 6.85368 8.14645L10.0001 11.2929Z" fill="#545454"/>
<path fill-rule="evenodd" clip-rule="evenodd" d="M10.5 4.5C10.5 4.22386 10.7239 4 11 4H17C17.5523 4 18 4.44772 18 5V11C18 11.2761 17.7762 11.5 17.5 11.5C17.2239 11.5 17 11.2761 17 11V5H11C10.7239 5 10.5 4.77614 10.5 4.5Z" fill="#545454"/>
</g>
</g>
<defs>
<clipPath id="clip0">
<rect width="18" height="18" fill="white"/>
</clipPath>
</defs>
</svg>
