<?xml version="1.0" encoding="UTF-8"?>
<svg width="24px" height="24px" viewBox="0 0 24 24" version="1.1" xmlns="http://www.w3.org/2000/svg" xmlns:xlink="http://www.w3.org/1999/xlink">
    <!-- Generator: Sketch 60.1 (88133) - https://sketch.com -->
    <title>Networking/Endpoints/unknown/unknown-network-device-filled_24</title>
    <desc>Created with Sketch.</desc>
    <g id="Networking/Endpoints/unknown/unknown-network-device-filled_24" stroke="none" stroke-width="1" fill="none" fill-rule="evenodd">
        <path d="M21,1 C22.1045695,1 23,1.8954305 23,3 L23,21 C23,22.1045695 22.1045695,23 21,23 L3,23 C1.8954305,23 1,22.1045695 1,21 L1,3 C1,1.8954305 1.8954305,1 3,1 L21,1 Z M12.36,17.15 C12.17,16.96 11.84,16.96 11.65,17.15 C11.56,17.24 11.51,17.37 11.51,17.5 C11.51,17.63 11.56,17.76 11.65,17.85 C11.7,17.9 11.76,17.94 11.82,17.96 C11.88,17.99 11.94,18 12.01,18 C12.14,18 12.27,17.95 12.36,17.85 C12.45,17.76 12.51,17.63 12.51,17.5 C12.51,17.37 12.45,17.24 12.36,17.15 Z M12.122,5.001 C11.046,4.973 10.013,5.371 9.233,6.128 C8.42,6.918 7.972,7.994 7.972,9.154 C7.972,9.432 8.196,9.654 8.472,9.654 C8.748,9.654 8.972,9.432 8.972,9.154 C8.972,8.267 9.312,7.445 9.93,6.846 C10.514,6.277 11.278,5.975 12.094,6.001 C13.703,6.047 15.063,7.454 15.063,9.071 C15.063,10.425 14.357,11.017 13.609,11.642 C13.453,11.771 13.301,11.899 13.159,12.03 L13.159,12.03 L12.557,12.584 C11.903,13.187 11.528,14.041 11.528,14.929 C11.528,15.206 11.751,15.429 12.028,15.429 C12.304,15.429 12.528,15.206 12.528,14.929 C12.528,14.319 12.785,13.732 13.234,13.32 L13.234,13.32 L13.836,12.766 C13.967,12.646 14.107,12.528 14.251,12.409 C15.058,11.733 16.063,10.894 16.063,9.071 C16.063,6.926 14.258,5.063 12.122,5.001 Z" id="unknown-network-device-filled_24" fill="#00090D"></path>
    </g>
</svg>