<?xml version="1.0" encoding="UTF-8"?>
<svg width="16px" height="16px" viewBox="0 0 16 16" version="1.1" xmlns="http://www.w3.org/2000/svg" xmlns:xlink="http://www.w3.org/1999/xlink">
    <!-- Generator: Sketch 60.1 (88133) - https://sketch.com -->
    <title>Networking/Endpoints/unknown/unknown-network-device-filled_16</title>
    <desc>Created with Sketch.</desc>
    <g id="Networking/Endpoints/unknown/unknown-network-device-filled_16" stroke="none" stroke-width="1" fill="none" fill-rule="evenodd">
        <path d="M14,0 C15.1045695,0 16,0.8954305 16,2 L16,14 C16,15.1045695 15.1045695,16 14,16 L2,16 C0.8954305,16 0,15.1045695 0,14 L0,2 C0,0.8954305 0.8954305,0 2,0 L14,0 Z M8.3698,12.1280484 C8.1898,11.9380484 7.8498,11.9380484 7.6698,12.1280484 C7.5698,12.2180484 7.5198,12.3480484 7.5198,12.4780484 C7.5198,12.5480484 7.5298,12.6080484 7.5598,12.6680484 C7.5798,12.7280484 7.6198,12.7880484 7.6698,12.8280484 C7.7598,12.9280484 7.8898,12.9780484 8.0198,12.9780484 C8.0798,12.9780484 8.1498,12.9680484 8.2098,12.9380484 C8.2698,12.9180484 8.3298,12.8780484 8.3698,12.8280484 C8.4198,12.7880484 8.4598,12.7280484 8.4798,12.6680484 C8.5098,12.6080484 8.5198,12.5480484 8.5198,12.4780484 C8.5198,12.3480484 8.4698,12.2180484 8.3698,12.1280484 Z M8.078,3.00104844 C7.277,2.98004844 6.512,3.27504844 5.934,3.83804844 C5.331,4.42304844 5,5.21804844 5,6.07704844 C5,6.35404844 5.224,6.57704844 5.5,6.57704844 C5.776,6.57704844 6,6.35404844 6,6.07704844 C6,5.49104844 6.224,4.95004844 6.631,4.55504844 C7.014,4.18204844 7.502,3.97504844 8.05,4.00104844 C9.107,4.03104844 10,4.95504844 10,6.01904844 C10,6.90404844 9.55,7.28104844 9.028,7.71704844 C8.916,7.81104844 8.807,7.90304844 8.705,7.99604844 L8.705,7.99604844 L8.281,8.38704844 C7.789,8.83904844 7.5,9.48104844 7.5,10.1480484 L7.5,10.1480484 L7.5,10.4850484 C7.5,10.7620484 7.724,10.9850484 8,10.9850484 C8.276,10.9850484 8.5,10.7620484 8.5,10.4850484 L8.5,10.4850484 L8.5,10.1480484 C8.5,9.76004844 8.671,9.38604844 8.957,9.12304844 L8.957,9.12304844 L9.383,8.73204844 C9.473,8.64804844 9.57,8.56704844 9.67,8.48404844 C10.231,8.01504844 11,7.37204844 11,6.01904844 C11,4.40104844 9.689,3.04704844 8.078,3.00104844 Z" id="unknown-network-device-filled_16" fill="#00090D"></path>
    </g>
</svg>