<?xml version="1.0" encoding="UTF-8"?>
<svg width="16px" height="16px" viewBox="0 0 16 16" version="1.1" xmlns="http://www.w3.org/2000/svg" xmlns:xlink="http://www.w3.org/1999/xlink">
    <!-- Generator: Sketch 60.1 (88133) - https://sketch.com -->
    <title>Networking/Endpoints/unknown/unknown-device_16</title>
    <desc>Created with Sketch.</desc>
    <g id="Networking/Endpoints/unknown/unknown-device_16" stroke="none" stroke-width="1" fill="none" fill-rule="evenodd">
        <path d="M5,0 L11,0 C12.1045695,0 13,0.8954305 13,2 L13,14 C13,15.1045695 12.1045695,16 11,16 L5,16 C3.8954305,16 3,15.1045695 3,14 L3,2 C3,0.8954305 3.8954305,0 5,0 Z M5,1 C4.44771525,1 4,1.44771525 4,2 L4,14 C4,14.5522847 4.44771525,15 5,15 L11,15 C11.5522847,15 12,14.5522847 12,14 L12,2 C12,1.44771525 11.5522847,1 11,1 L5,1 Z M7.6698,12.1280484 C7.8498,11.9380484 8.1898,11.9380484 8.3698,12.1280484 C8.4698,12.2180484 8.5198,12.3480484 8.5198,12.4780484 C8.5198,12.5480484 8.5098,12.6080484 8.4798,12.6680484 C8.4598,12.7280484 8.4198,12.7880484 8.3698,12.8280484 C8.3298,12.8780484 8.2698,12.9180484 8.2098,12.9380484 C8.1498,12.9680484 8.0798,12.9780484 8.0198,12.9780484 C7.8898,12.9780484 7.7598,12.9280484 7.6698,12.8280484 C7.6198,12.7880484 7.5798,12.7280484 7.5598,12.6680484 C7.5298,12.6080484 7.5198,12.5480484 7.5198,12.4780484 C7.5198,12.3480484 7.5698,12.2180484 7.6698,12.1280484 Z M8.078,3.00104844 C9.689,3.04704844 11,4.40104844 11,6.01904844 C11,7.37204844 10.231,8.01504844 9.67,8.48404844 C9.57,8.56704844 9.473,8.64804844 9.383,8.73204844 L8.957,9.12304844 C8.671,9.38604844 8.5,9.76004844 8.5,10.1480484 L8.5,10.4850484 C8.5,10.7620484 8.276,10.9850484 8,10.9850484 C7.724,10.9850484 7.5,10.7620484 7.5,10.4850484 L7.5,10.1480484 C7.5,9.48104844 7.789,8.83904844 8.281,8.38704844 L8.705,7.99604844 C8.807,7.90304844 8.916,7.81104844 9.028,7.71704844 C9.55,7.28104844 10,6.90404844 10,6.01904844 C10,4.95504844 9.107,4.03104844 8.05,4.00104844 C7.502,3.97504844 7.014,4.18204844 6.631,4.55504844 C6.224,4.95004844 6,5.49104844 6,6.07704844 C6,6.35404844 5.776,6.57704844 5.5,6.57704844 C5.224,6.57704844 5,6.35404844 5,6.07704844 C5,5.21804844 5.331,4.42304844 5.934,3.83804844 C6.512,3.27504844 7.277,2.98004844 8.078,3.00104844 Z" id="unknown-device_16" fill="#00090D"></path>
    </g>
</svg>