<?xml version="1.0" encoding="UTF-8"?>
<svg width="24px" height="24px" viewBox="0 0 24 24" version="1.1" xmlns="http://www.w3.org/2000/svg" xmlns:xlink="http://www.w3.org/1999/xlink">
    <!-- Generator: Sketch 60.1 (88133) - https://sketch.com -->
    <title>Topology/Endpoints/unknown/unknown-device-topology_24</title>
    <desc>Created with Sketch.</desc>
    <g id="Topology/Endpoints/unknown/unknown-device-topology_24" stroke="none" stroke-width="1" fill="none" fill-rule="evenodd">
        <path d="M18,0 C19.1045695,0 20,0.8954305 20,2 L20,22 C20,23.1045695 19.1045695,24 18,24 L6,24 C4.8954305,24 4,23.1045695 4,22 L4,2 C4,0.8954305 4.8954305,0 6,0 L18,0 Z" id="secondary-color" fill="#FFA000"></path>
        <path d="M6,0 L18,0 C19.1045695,0 20,0.8954305 20,2 L20,22 C20,23.1045695 19.1045695,24 18,24 L6,24 C4.8954305,24 4,23.1045695 4,22 L4,2 C4,0.8954305 4.8954305,0 6,0 Z M6,1 C5.44771525,1 5,1.44771525 5,2 L5,22 C5,22.5522847 5.44771525,23 6,23 L18,23 C18.5522847,23 19,22.5522847 19,22 L19,2 C19,1.44771525 18.5522847,1 18,1 L6,1 Z M12.122,5.001 C14.258,5.063 16.063,6.926 16.063,9.071 C16.063,10.894 15.058,11.733 14.251,12.409 C14.107,12.528 13.967,12.646 13.836,12.766 L13.234,13.32 C12.785,13.732 12.528,14.319 12.528,14.929 C12.528,15.206 12.304,15.429 12.028,15.429 C11.751,15.429 11.528,15.206 11.528,14.929 C11.528,14.041 11.903,13.187 12.557,12.584 L13.159,12.03 C13.301,11.899 13.453,11.771 13.609,11.642 C14.357,11.017 15.063,10.425 15.063,9.071 C15.063,7.454 13.703,6.047 12.094,6.001 C11.278,5.975 10.514,6.277 9.93,6.846 C9.312,7.445 8.972,8.267 8.972,9.154 C8.972,9.432 8.748,9.654 8.472,9.654 C8.196,9.654 7.972,9.432 7.972,9.154 C7.972,7.994 8.42,6.918 9.233,6.128 C10.013,5.371 11.046,4.973 12.122,5.001 Z M11.65,17.15 C11.84,16.96 12.17,16.96 12.36,17.15 C12.45,17.24 12.51,17.37 12.51,17.5 C12.51,17.63 12.45,17.76 12.36,17.85 C12.27,17.95 12.14,18 12.01,18 C11.94,18 11.88,17.99 11.82,17.96 C11.76,17.94 11.7,17.9 11.65,17.85 C11.56,17.76 11.51,17.63 11.51,17.5 C11.51,17.37 11.56,17.24 11.65,17.15 Z" id="unknown-device-topology_24" fill="#00090D"></path>
    </g>
</svg>