<?xml version="1.0" encoding="UTF-8"?>
<svg width="16px" height="16px" viewBox="0 0 16 16" version="1.1" xmlns="http://www.w3.org/2000/svg" xmlns:xlink="http://www.w3.org/1999/xlink">
    <!-- Generator: Sketch 60.1 (88133) - https://sketch.com -->
    <title>Action/lock/unlocked_16</title>
    <desc>Created with Sketch.</desc>
    <g id="Action/lock/unlocked_16" stroke="none" stroke-width="1" fill="none" fill-rule="evenodd">
        <path d="M5,6 L5,4 C5,2.346 6.346,1 8,1 C9.313,1 10.496,1.881 10.875,3.144 C10.954,3.408 11.229,3.557 11.498,3.479 C11.762,3.399 11.912,3.121 11.833,2.856 C11.327,1.174 9.751,0 8,0 C5.794,0 4,1.794 4,4 L4,6 C2.896,6 13.104,6 12,6 C13.1045695,6 14,6.8954305 14,8 L14,14 C14,15.1045695 13.1045695,16 12,16 L4,16 C2.8954305,16 2,15.1045695 2,14 L2,8 C2,6.8954305 2.8954305,6 4,6 L5,6 Z M4,7 C3.44771525,7 3,7.44771525 3,8 L3,14 C3,14.5522847 3.44771525,15 4,15 L12,15 C12.5522847,15 13,14.5522847 13,14 L13,8 C13,7.44771525 12.5522847,7 12,7 L4,7 Z" id="unlocked_16" fill="#00090D"></path>
    </g>
</svg>