<?xml version="1.0" encoding="UTF-8"?>
<svg width="24px" height="24px" viewBox="0 0 24 24" version="1.1" xmlns="http://www.w3.org/2000/svg" xmlns:xlink="http://www.w3.org/1999/xlink">
    <!-- Generator: Sketch 60.1 (88133) - https://sketch.com -->
    <title>Action/feedback/unsatisfied_24</title>
    <desc>Created with Sketch.</desc>
    <g id="Action/feedback/unsatisfied_24" stroke="none" stroke-width="1" fill="none" fill-rule="evenodd">
        <path d="M12,1 C5.935,1 1,5.935 1,12 C1,18.065 5.935,23 12,23 C18.065,23 23,18.065 23,12 C23,5.935 18.065,1 12,1 L12,1 Z M12,24 C5.383,24 0,18.617 0,12 C0,5.383 5.383,0 12,0 C18.617,0 24,5.383 24,12 C24,18.617 18.617,24 12,24 Z M17,10 C17,9.448 16.552,9 16,9 C15.448,9 15,9.448 15,10 C15,10.552 15.448,11 16,11 C16.552,11 17,10.552 17,10 Z M9,10 C9,9.448 8.552,9 8,9 C7.448,9 7,9.448 7,10 C7,10.552 7.448,11 8,11 C8.552,11 9,10.552 9,10 Z M12,14.0004788 C9.607,14.0004788 7.405,15.2074788 6.108,17.2294788 C5.959,17.4614788 6.027,17.7714788 6.26,17.9204788 C6.489,18.0684788 6.801,18.0024788 6.95,17.7694788 C8.062,16.0354788 9.949,15.0004788 12,15.0004788 C14.051,15.0004788 15.938,16.0354788 17.05,17.7694788 C17.2,18.0034788 17.511,18.0694788 17.74,17.9204788 C17.973,17.7714788 18.041,17.4614788 17.892,17.2294788 C16.595,15.2074788 14.393,14.0004788 12,14.0004788 Z" id="unsatisfied_24" fill="#00090D"></path>
    </g>
</svg>