<?xml version="1.0" encoding="UTF-8"?>
<svg width="16px" height="16px" viewBox="0 0 16 16" version="1.1" xmlns="http://www.w3.org/2000/svg" xmlns:xlink="http://www.w3.org/1999/xlink">
    <!-- Generator: Sketch 60.1 (88133) - https://sketch.com -->
    <title>Action / upgrade_16</title>
    <desc>Created with Sketch.</desc>
    <g id="Action-/-upgrade_16" stroke="none" stroke-width="1" fill="none" fill-rule="evenodd">
        <path d="M8,0 C12.418278,0 16,3.581722 16,8 C16,12.418278 12.418278,16 8,16 C3.581722,16 0,12.418278 0,8 C0,3.581722 3.581722,0 8,0 Z M8,1 C4.13400675,1 1,4.13400675 1,8 C1,11.6980846 3.86768497,14.7263856 7.50061334,14.9824612 L7.5,4.7071125 L4.3535525,7.8535525 C4.1582925,8.0488225 3.8417125,8.0488225 3.6464525,7.8535525 C3.4511825,7.6582925 3.4511825,7.3417125 3.6464525,7.1464525 L7.6464525,3.1464525 C7.8417125,2.9511825 8.1582925,2.9511825 8.3535525,3.1464525 L12.3536025,7.1464525 C12.5488025,7.3417125 12.5488025,7.6582925 12.3536025,7.8535525 C12.1583025,8.0488225 11.8417025,8.0488225 11.6464025,7.8535525 L8.5,4.7071125 L8.50039243,14.9823903 C12.1328443,14.7258266 15,11.6977434 15,8 C15,4.13400675 11.8659932,1 8,1 Z" id="upgrade_16" fill="#00090D"></path>
    </g>
</svg>