<?xml version="1.0" encoding="UTF-8"?>
<svg width="24px" height="24px" viewBox="0 0 24 24" version="1.1" xmlns="http://www.w3.org/2000/svg" xmlns:xlink="http://www.w3.org/1999/xlink">
    <!-- Generator: Sketch 60.1 (88133) - https://sketch.com -->
    <title>Action/upload/upload_24</title>
    <desc>Created with Sketch.</desc>
    <g id="Action/upload/upload_24" stroke="none" stroke-width="1" fill="none" fill-rule="evenodd">
        <path d="M12,5 C12.1665621,5 12.3141019,5.08144379 12.4049684,5.20668027 L12.4049684,5.20668027 L18.8391425,11.1484008 C19.0420529,11.3357026 19.0547061,11.6520322 18.8674042,11.8549425 C18.6801023,12.0578529 18.3637728,12.0705061 18.1608624,11.8832042 L18.1608624,11.8832042 L12.4999975,6.659 L12.5,21.5158025 L12.4919443,21.6051362 C12.4496084,21.8356107 12.2454599,22 12,22 L12,22 L11.9101244,21.9924863 C11.6768752,21.9529249 11.5,21.7612624 11.5,21.5158025 L11.5,21.5158025 L11.4999975,6.658 L5.83914005,11.8832042 L5.76763513,11.9382457 C5.56752717,12.0653454 5.29908884,12.0353073 5.13259828,11.8549425 C4.9452964,11.6520322 4.95794958,11.3357026 5.16085995,11.1484008 L5.16085995,11.1484008 L11.5950316,5.20668027 C11.6858981,5.08144379 11.8334379,5 12,5 Z M21.5,2 C21.7761424,2 22,2.22385763 22,2.5 C22,2.77614237 21.7761424,3 21.5,3 L21.5,3 L2.5,3 C2.22385763,3 2,2.77614237 2,2.5 C2,2.22385763 2.22385763,2 2.5,2 L2.5,2 Z" id="upload_24" fill="#00090D"></path>
    </g>
</svg>