<?xml version="1.0" encoding="UTF-8"?>
<svg width="48px" height="48px" viewBox="0 0 48 48" version="1.1" xmlns="http://www.w3.org/2000/svg" xmlns:xlink="http://www.w3.org/1999/xlink">
    <!-- Generator: Sketch 60.1 (88133) - https://sketch.com -->
    <title>Action/upload/upload-circle_48</title>
    <desc>Created with Sketch.</desc>
    <g id="Action/upload/upload-circle_48" stroke="none" stroke-width="1" fill="none" fill-rule="evenodd">
        <path d="M24,0 C37.254834,0 48,10.745166 48,24 C48,37.254834 37.254834,48 24,48 C10.745166,48 0,37.254834 0,24 C0,10.745166 10.745166,0 24,0 Z M24,1 C11.2974508,1 1,11.2974508 1,24 C1,36.7025492 11.2974508,47 24,47 C36.7025492,47 47,36.7025492 47,24 C47,11.2974508 36.7025492,1 24,1 Z M24.191,18.0395 C24.2316667,18.0561667 24.2701111,18.0777222 24.3048519,18.1038704 L24.354,18.1465 L33.354,27.1465 C33.549,27.3415 33.549,27.6585 33.354,27.8535 C33.256,27.9515 33.128,28.0005 33,28.0005 C32.904,28.0005 32.808,27.9729375 32.7246562,27.9178125 L32.646,27.8535 L24.5,19.7075 L24.5,39.5005 C24.5,39.7765 24.276,39.99 24,39.99 C23.7546667,39.99 23.5504198,39.8213086 23.5080604,39.5899781 L23.5,39.5005 L23.5,19.7075 L15.354,27.8535 C15.158,28.0485 14.842,28.0485 14.646,27.8535 C14.4726667,27.6801667 14.4534074,27.4104383 14.5882222,27.2156838 L14.646,27.1465 L23.646,18.1465 C23.692,18.1005 23.748,18.0635 23.809,18.0395 C23.931,17.9885 24.069,17.9885 24.191,18.0395 Z M37.5,12 C37.776,12 38,12.224 38,12.5 C38,12.7453333 37.8230123,12.9495802 37.5898381,12.9919396 L37.5,13 L10.5,13 C10.224,13 10,12.776 10,12.5 C10,12.2546667 10.1769877,12.0504198 10.4101619,12.0080604 L10.5,12 L37.5,12 Z" id="upload-circle_48" fill="#00090D"></path>
    </g>
</svg>