<?xml version="1.0" encoding="UTF-8"?>
<svg width="24px" height="24px" viewBox="0 0 24 24" version="1.1" xmlns="http://www.w3.org/2000/svg" xmlns:xlink="http://www.w3.org/1999/xlink">
    <!-- Generator: Sketch 60.1 (88133) - https://sketch.com -->
    <title>Action/upload/upload-circle_24</title>
    <desc>Created with Sketch.</desc>
    <g id="Action/upload/upload-circle_24" stroke="none" stroke-width="1" fill="none" fill-rule="evenodd">
        <path d="M12,0 C18.627417,0 24,5.372583 24,12 C24,18.627417 18.627417,24 12,24 C5.372583,24 0,18.627417 0,12 C0,5.372583 5.372583,0 12,0 Z M12,1 C5.92486775,1 1,5.92486775 1,12 C1,18.0751322 5.92486775,23 12,23 C18.0751322,23 23,18.0751322 23,12 C23,5.92486775 18.0751322,1 12,1 Z M12,9 C12.065,9 12.13,9.013 12.191,9.038 C12.253,9.064 12.308,9.101 12.354,9.147 L12.354,9.147 L16.354,13.146 C16.549,13.342 16.549,13.658 16.354,13.853 C16.158,14.049 15.842,14.049 15.647,13.853 L15.647,13.853 L12.5,10.707 L12.5,19.5 C12.5,19.776 12.276,20 12,20 C11.724,20 11.5,19.776 11.5,19.5 L11.5,19.5 L11.5,10.707 L8.354,13.853 C8.158,14.049 7.842,14.049 7.647,13.853 C7.451,13.658 7.451,13.342 7.647,13.146 L7.647,13.146 L11.646,9.147 C11.692,9.101 11.748,9.064 11.809,9.038 C11.87,9.013 11.935,9 12,9 Z M18.4615385,6.0001 C18.7587692,6.0001 19,6.2241 19,6.5001 C19,6.7761 18.7587692,7.0001 18.4615385,7.0001 L5.53846154,7.0001 C5.24123077,7.0001 5,6.7761 5,6.5001 C5,6.2241 5.24123077,6.0001 5.53846154,6.0001 L18.4615385,6.0001 Z" id="upload-circle_24" fill="#00090D"></path>
    </g>
</svg>