<?xml version="1.0" encoding="UTF-8"?>
<svg width="18px" height="18px" viewBox="0 0 18 18" version="1.1" xmlns="http://www.w3.org/2000/svg" xmlns:xlink="http://www.w3.org/1999/xlink">
    <title>Action/user/user-multiple_18</title>
    <g id="Action/user/user-multiple_18" stroke="none" stroke-width="1" fill="none" fill-rule="evenodd">
        <path d="M6.00032007,3 C8.20532007,3 10.0003201,4.794 10.0003201,7 C10.0003201,8.208 9.45032007,9.281 8.60032007,10.015 C9.75440388,10.0778906 10.7717324,10.7238259 11.2959666,11.6950866 C11.5414904,11.5908449 11.8031476,11.5276924 12.0701188,11.5072774 L12.2607444,11.5 L12.5010619,11.5009803 C11.8932346,11.0449263 11.5,10.3183856 11.5,9.5 C11.5,8.11928813 12.6192881,7 14,7 C15.3807119,7 16.5,8.11928813 16.5,9.5 C16.5,10.2571181 16.1634395,10.9356284 15.6317678,11.3940815 L15.495,11.503 L15.5870112,11.5065772 C16.4618804,11.572016 17.2290028,12.1207391 17.573562,12.9275583 L17.6367464,13.0922967 L17.9518389,14.0153568 C17.9784664,14.0933616 17.9920533,14.1752223 17.9920533,14.2576467 C17.9920533,14.6373424 17.7098994,14.9511376 17.3438239,15.0008001 L17.2420533,15.0076467 L11,15.0076467 L10.999,15 L0.844320072,15 C0.617177215,15 0.405462929,14.9125714 0.248220946,14.7566064 L0.174320072,14.673 C0.0163200718,14.47 -0.0376799282,14.21 0.0263200718,13.961 L0.0263200718,13.961 L0.430320072,12.395 C0.779320072,11.043 1.98732007,10.092 3.40032007,10.015 C2.55032007,9.281 2.00032007,8.208 2.00032007,7 C2.00032007,4.794 3.79432007,3 6.00032007,3 Z M15.410694,12.5 L12.2607444,12.5 C12.0465374,12.5 11.8354541,12.5458704 11.641468,12.6338014 L11.633,12.637 L11.9743201,13.961 C11.9782506,13.9762924 11.9817361,13.9916263 11.9847798,14.0069859 L16.892,14.007 L16.6903656,13.4153499 C16.517875,12.9100404 16.0663242,12.5576669 15.5429217,12.5064456 L15.410694,12.5 Z M8.41832007,11 L3.58232007,11 C2.54632007,11 1.64832007,11.676 1.39832007,12.645 L1.39832007,12.645 L1.04932007,14 L10.9513201,14 L10.6023201,12.645 C10.3523201,11.676 9.45432007,11 8.41832007,11 L8.41832007,11 Z M14,8 C13.1715729,8 12.5,8.67157288 12.5,9.5 C12.5,10.3284271 13.1715729,11 14,11 C14.8284271,11 15.5,10.3284271 15.5,9.5 C15.5,8.67157288 14.8284271,8 14,8 Z M6.00032007,4 C4.34632007,4 3.00032007,5.346 3.00032007,7 C3.00032007,8.654 4.34632007,10 6.00032007,10 C7.65432007,10 9.00032007,8.654 9.00032007,7 C9.00032007,5.346 7.65432007,4 6.00032007,4 Z" id="user-multiple_18" fill="#545454"></path>
    </g>
</svg>