<?xml version="1.0" encoding="UTF-8"?>
<svg width="16px" height="16px" viewBox="0 0 16 16" version="1.1" xmlns="http://www.w3.org/2000/svg" xmlns:xlink="http://www.w3.org/1999/xlink">
    <!-- Generator: Sketch 60.1 (88133) - https://sketch.com -->
    <title>Topology / user / user-client-topology_16</title>
    <desc>Created with Sketch.</desc>
    <g id="Topology-/-user-/-user-client-topology_16" stroke="none" stroke-width="1" fill="none" fill-rule="evenodd">
        <path d="M8,4.4408921e-16 C10.7567654,4.4408921e-16 12.9995745,2.243 12.9995745,4.999 C12.9995745,6.641 12.1936431,8.088 10.9677474,9 L10.9677474,9 L11.2967194,9 C13.2535529,9 14.9504084,10.405 15.4213684,12.415 L15.4213684,12.415 L15.9723215,14.764 C16.0443153,15.072 15.9743213,15.389 15.7803378,15.633 C15.5953536,15.866 15.3223768,16 15.0304016,16 L15.0304016,16 L0.969598365,16 C0.677623216,16 0.404646449,15.866 0.219662193,15.633 C0.0256787035,15.389 -0.0443153393,15.072 0.0276785332,14.764 L0.0276785332,14.764 L0.578631641,12.415 C1.04959156,10.405 2.74644714,9 4.70328059,9 L4.70328059,9 L5.03225259,9 C3.80635693,8.088 3.00042552,6.641 3.00042552,4.999 C3.00042552,2.243 5.24323463,4.4408921e-16 8,4.4408921e-16 Z" id="secondary-color" fill="#FFA000"></path>
        <path d="M1.00159564,14.993 L1.55254875,12.644 C1.91751769,11.087 3.21240748,10 4.70328059,10 L11.2967194,10 C12.7875925,10 14.0834822,11.087 14.4484512,12.644 L15.0304016,15 L1.00159564,14.993 Z M4.00034042,4.999 C4.00034042,2.794 5.79418774,1 8,1 C10.2058123,1 11.9996596,2.794 11.9996596,4.999 C11.9996596,7.205 10.2058123,8.999 8,8.999 C5.79418774,8.999 4.00034042,7.205 4.00034042,4.999 L4.00034042,4.999 Z M15.9723215,14.764 L15.4213684,12.415 C14.9504084,10.405 13.2535529,9 11.2967194,9 L10.9677474,9 C12.1936431,8.088 12.9995745,6.641 12.9995745,4.999 C12.9995745,2.243 10.7567654,0 8,0 C5.24323463,0 3.00042552,2.243 3.00042552,4.999 C3.00042552,6.641 3.80635693,8.088 5.03225259,9 L4.70328059,9 C2.74644714,9 1.04959156,10.405 0.578631641,12.415 L0.0276785332,14.764 C-0.0443153393,15.072 0.0256787035,15.389 0.219662193,15.633 C0.404646449,15.866 0.677623216,16 0.969598365,16 L15.0304016,16 C15.3223768,16 15.5953536,15.866 15.7803378,15.633 C15.9743213,15.389 16.0443153,15.072 15.9723215,14.764 L15.9723215,14.764 Z" id="user-client-topology_16" fill="#00090D"></path>
    </g>
</svg>