<?xml version="1.0" encoding="UTF-8"?>
<svg width="24px" height="24px" viewBox="0 0 24 24" version="1.1" xmlns="http://www.w3.org/2000/svg" xmlns:xlink="http://www.w3.org/1999/xlink">
    <title>Action/user/user-multiple_24</title>
    <g id="Action/user/user-multiple_24" stroke="none" stroke-width="1" fill="none" fill-rule="evenodd">
        <path d="M0.969598365,20 C0.677623216,20 0.404646449,19.866 0.219662193,19.633 C0.0256787035,19.389 -0.0443153393,19.072 0.0276785332,18.764 L0.0276785332,18.764 L0.578631641,16.415 C1.04959156,14.405 2.74644714,13 4.70328059,13 L4.70328059,13 L5.03225259,13 C3.80635693,12.088 3.00042552,10.641 3.00042552,8.999 C3.00042552,6.243 5.24323463,4 8,4 C10.7567654,4 12.9995745,6.243 12.9995745,8.999 C12.9995745,10.641 12.1936431,12.088 10.9677474,13 L10.9677474,13 L11.2967194,13 C12.8958522,13 14.3213657,13.9382911 15.0461126,15.3782752 C15.3523573,15.2014343 15.6918322,15.082291 16.046362,15.0300734 C15.3779049,14.3943633 14.9620895,13.4957411 14.9620895,12.5 C14.9620895,10.5670034 16.5290928,9 18.4620895,9 C20.3950861,9 21.9620895,10.5670034 21.9620895,12.5 C21.9620895,13.4869771 21.5535614,14.3785373 20.8963781,15.0148079 C22.1431563,15.1262598 23.1935865,16.011362 23.5125862,17.2294461 L23.5523798,17.4019419 L23.892574,19.1029129 L23.9011969,19.1570699 L23.9071385,19.25 C23.9071385,19.6296958 23.6249846,19.943491 23.2589091,19.9931534 L23.1571385,20 Z M20.6224817,16 L16.4571524,16 C16.0742003,16 15.7057075,16.1206774 15.4007288,16.3383452 L15.4213684,16.415 L15.9723215,18.764 C15.9907095,18.8426667 15.999835,18.9219204 15.9999978,19.0003951 L22.8510895,19 L22.5717991,17.5980581 C22.3968904,16.7235144 21.6638911,16.0795897 20.7882371,16.00686 L20.6224817,16 Z M11.2967194,14 L4.70328059,14 C3.21240748,14 1.91751769,15.087 1.55254875,16.644 L1.55254875,16.644 L1.00159564,18.993 L15.0304016,19 L14.4484512,16.644 C14.4025709,16.4482692 14.3419791,16.2599658 14.268138,16.0803156 L14.25,16.0657565 L14.2580446,16.0560094 C13.7395768,14.8201195 12.5917036,14 11.2967194,14 L11.2967194,14 Z M18.4620895,10 C17.0813776,10 15.9620895,11.1192881 15.9620895,12.5 C15.9620895,13.8807119 17.0813776,15 18.4620895,15 C19.8428013,15 20.9620895,13.8807119 20.9620895,12.5 C20.9620895,11.1192881 19.8428013,10 18.4620895,10 Z M8,5 C5.79418774,5 4.00034042,6.794 4.00034042,8.999 C4.00034042,11.205 5.79418774,12.999 8,12.999 C10.2058123,12.999 11.9996596,11.205 11.9996596,8.999 C11.9996596,6.794 10.2058123,5 8,5 Z" id="user-multiple_24" fill="#545454"></path>
    </g>
</svg>