<?xml version="1.0" encoding="UTF-8"?>
<svg width="24px" height="24px" viewBox="0 0 24 24" version="1.1" xmlns="http://www.w3.org/2000/svg" xmlns:xlink="http://www.w3.org/1999/xlink">
    <!-- Generator: Sketch 60.1 (88133) - https://sketch.com -->
    <title>Action/user/user-client_24</title>
    <desc>Created with Sketch.</desc>
    <g id="Action/user/user-client_24" stroke="none" stroke-width="1" fill="none" fill-rule="evenodd">
        <path d="M21.9633034,21.94 C21.9423047,21.967 21.9033072,22 21.8433109,22 L2.15653211,22 C2.09653583,22 2.05853819,21.967 2.03653956,21.94 C2.01754074,21.916 1.9875426,21.863 2.00554148,21.791 L2.77749359,18.659 C3.30746072,16.504 5.20134323,15 7.38420782,15 L16.6156352,15 C18.7984998,15 20.6923823,16.504 21.2233493,18.659 L21.9943015,21.791 C22.0123004,21.863 21.9833022,21.916 21.9633034,21.94 M6.00029367,8 C6.00029367,4.691 8.69212669,2 11.9999215,2 C15.3087162,2 17.9995493,4.691 17.9995493,8 C17.9995493,11.308 15.3087162,14 11.9999215,14 C8.69212669,14 6.00029367,11.308 6.00029367,8 M22.9652413,21.552 L22.1932892,18.42 C21.5543288,15.817 19.2604711,14 16.6156352,14 L15.586699,14 C17.6265725,12.775 18.9994873,10.547 18.9994873,8 C18.9994873,4.14 15.8596821,1 11.9999215,1 C8.14116087,1 5.0003557,4.14 5.0003557,8 C5.0003557,10.547 6.37327054,12.775 8.41414393,14 L7.38420782,14 C4.73937189,14 2.44551419,15.817 1.80655382,18.42 L1.03460171,21.552 C0.947607106,21.905 1.02660221,22.271 1.24958837,22.556 C1.47057466,22.838 1.80155413,23 2.15653211,23 L21.8433109,23 C22.1982889,23 22.5292683,22.838 22.7502546,22.556 C22.9742407,22.271 23.0522359,21.905 22.9652413,21.552" id="user-client_24" fill="#00090D"></path>
    </g>
</svg>