<?xml version="1.0" encoding="UTF-8"?>
<svg width="16px" height="16px" viewBox="0 0 16 16" version="1.1" xmlns="http://www.w3.org/2000/svg" xmlns:xlink="http://www.w3.org/1999/xlink">
    <!-- Generator: Sketch 60.1 (88133) - https://sketch.com -->
    <title>Networking/v-lan_16</title>
    <desc>Created with Sketch.</desc>
    <g id="Networking/v-lan_16" stroke="none" stroke-width="1" fill="none" fill-rule="evenodd">
        <path d="M14.5,10 L14.5,12 L15.5,12 C15.7761424,12 16,12.2238576 16,12.5 L16,15.5 C16,15.7761424 15.7761424,16 15.5,16 L12.5,16 C12.2238576,16 12,15.7761424 12,15.5 L12,12.5 C12,12.2238576 12.2238576,12 12.5,12 L13.5,12 L13.5,10 L12.5,10 C12.2238576,10 12,9.77614237 12,9.5 L12,8.5 L7.5,8.5 C7.22385763,8.5 7,8.27614237 7,8 C7,7.72385763 7.22385763,7.5 7.5,7.5 L12,7.5 L12,6.5 C12,6.22385763 12.2238576,6 12.5,6 L13.5,6 L13.5,4 L12.5,4 C12.2238576,4 12,3.77614237 12,3.5 L12,0.5 C12,0.223857625 12.2238576,0 12.5,0 L15.5,0 C15.7761424,0 16,0.223857625 16,0.5 L16,3.5 C16,3.77614237 15.7761424,4 15.5,4 L14.5,4 L14.5,6 L15.5,6 C15.7761424,6 16,6.22385763 16,6.5 L16,9.5 C16,9.77614237 15.7761424,10 15.5,10 L14.5,10 Z M0.961496157,4.80759081 L3.00154877,9.70068577 L5.04160138,4.80759081 C5.14786604,4.55271352 5.44062943,4.43223918 5.69550672,4.53850384 C5.95038401,4.6447685 6.07085835,4.9375319 5.96459369,5.19240919 L3.46304492,11.1924092 C3.29205528,11.6025303 2.71104226,11.6025303 2.54005261,11.1924092 L0.0385038425,5.19240919 C-0.0677608192,4.9375319 0.0527135195,4.6447685 0.307590809,4.53850384 C0.562468099,4.43223918 0.855231496,4.55271352 0.961496157,4.80759081 Z M13,7 L13,9 L15,9 L15,7 L13,7 Z M13,1 L13,3 L15,3 L15,1 L13,1 Z M13,13 L13,15 L15,15 L15,13 L13,13 Z" id="v-lan_16" fill="#00090D"></path>
    </g>
</svg>