<?xml version="1.0" encoding="UTF-8"?>
<svg width="16px" height="16px" viewBox="0 0 16 16" version="1.1" xmlns="http://www.w3.org/2000/svg" xmlns:xlink="http://www.w3.org/1999/xlink">
    <title>Navigation / variable-view_16</title>
    <g id="Navigation-/-variable-view_16" stroke="none" stroke-width="1" fill="none" fill-rule="evenodd">
        <path d="M2.86901864,1.68051839 C3.02585848,1.86933528 3.02024289,2.13939063 2.86787002,2.3209947 L2.73478452,2.44960897 C2.68976098,2.49512909 2.62975016,2.56037381 2.55801556,2.64618537 C2.34838903,2.89694828 2.13617156,3.21287848 1.93622104,3.59826698 C1.35323065,4.72193395 1.0004,6.17593767 1.0004,8 C1.0004,9.82400147 1.35061953,11.2816479 1.92939072,12.4112516 C2.12795808,12.798801 2.33872937,13.1169929 2.546949,13.369967 L2.67305227,13.5158409 C2.69116496,13.5356365 2.70774543,13.5531938 2.72267373,13.568543 L2.79145804,13.6343804 C3.00222071,13.8128004 3.02843961,14.1282954 2.85001958,14.339058 C2.67159955,14.5498207 2.35610464,14.5760396 2.14534196,14.3976196 C1.8510336,14.1484744 1.44000173,13.6490957 1.03940928,12.8672484 C0.38818047,11.5962271 0.0004,9.98224853 0.0004,8 C0.0004,6.01606233 0.391569353,4.40406605 1.04857896,3.13773302 C1.45284968,2.35853381 1.86772821,1.86224094 2.16491839,1.61538136 C2.3773374,1.43893654 2.69257382,1.46809938 2.86901864,1.68051839 Z M13.8194816,1.61538136 C14.1166718,1.86224094 14.5315503,2.35853381 14.935821,3.13773302 C15.5928306,4.40406605 15.984,6.01606233 15.984,8 C15.984,9.98224853 15.5962195,11.5962271 14.9449907,12.8672484 C14.5443983,13.6490957 14.1333664,14.1484744 13.839058,14.3976196 C13.6282954,14.5760396 13.3128004,14.5498207 13.1343804,14.339058 C12.9757848,14.1517134 12.9788793,13.8816174 13.1295503,13.6985989 L13.2617263,13.568543 C13.3065112,13.5224955 13.3661656,13.4565745 13.437451,13.369967 C13.6456706,13.1169929 13.8564419,12.798801 14.0550093,12.4112516 C14.6337805,11.2816479 14.984,9.82400147 14.984,8 C14.984,6.17593767 14.6311694,4.72193395 14.048179,3.59826698 C13.8482284,3.21287848 13.636011,2.89694828 13.4263844,2.64618537 L13.2995139,2.50173515 C13.2448615,2.44297171 13.2041085,2.40421362 13.1805184,2.38461864 C12.9680994,2.20817382 12.9389365,1.8929374 13.1153814,1.68051839 C13.2918262,1.46809938 13.6070626,1.43893654 13.8194816,1.61538136 Z M4.65061688,4.63594119 C4.84681799,4.44170275 5.16314222,4.44170275 5.3583423,4.63594119 L5.3583423,4.63594119 L8.00805826,7.27260349 L10.6567732,4.63594119 C10.8529743,4.44170275 11.1692985,4.44170275 11.3644986,4.63594119 C11.5606997,4.83117572 11.5606997,5.1459416 11.3644986,5.34117614 L11.3644986,5.34117614 L8.71578368,7.97684235 L11.3644986,10.6125086 C11.5606997,10.8077431 11.5606997,11.122509 11.3644986,11.3177435 C11.2673991,11.4143647 11.1392677,11.4631733 11.0111364,11.4631733 C10.8830051,11.4631733 10.7548737,11.4143647 10.6567732,11.3177435 L10.6567732,11.3177435 L8.00805826,8.6810812 L5.3583423,11.3177435 C5.26124277,11.4143647 5.13311144,11.4631733 5.0049801,11.4631733 C4.87684877,11.4631733 4.74871744,11.4143647 4.65061688,11.3177435 C4.4554168,11.122509 4.4554168,10.8077431 4.65061688,10.6125086 L4.65061688,10.6125086 L7.30033284,7.97684235 L4.65061688,5.34117614 C4.4554168,5.1459416 4.4554168,4.83117572 4.65061688,4.63594119 Z" id="variable-view_16" fill="#545454"></path>
    </g>
</svg>