<?xml version="1.0" encoding="UTF-8"?>
<svg width="16px" height="16px" viewBox="0 0 16 16" version="1.1" xmlns="http://www.w3.org/2000/svg" xmlns:xlink="http://www.w3.org/1999/xlink">
    <!-- Generator: Sketch 60.1 (88133) - https://sketch.com -->
    <title>Networking / verify / verify-unverified_16</title>
    <desc>Created with Sketch.</desc>
    <g id="Networking-/-verify-/-verify-unverified_16" stroke="none" stroke-width="1" fill="none" fill-rule="evenodd">
        <path d="M8,10.416 C8.27614,10.416 8.5,10.6399 8.5,10.916 C8.5,11.1922 8.27614,11.416 8,11.416 C7.72386,11.416 7.5,11.1922 7.5,10.916 C7.5,10.6399 7.72386,10.416 8,10.416 Z M8,4.41603 C8.27614,4.41603 8.5,4.63988 8.5,4.91603 L8.5,8.91603 C8.5,9.19217 8.27614,9.41603 8,9.41603 C7.72386,9.41603 7.5,9.19217 7.5,8.91603 L7.5,4.91603 C7.5,4.63988 7.72386,4.41603 8,4.41603 Z M8.12582,15.9645 C8.07472,15.9872 8.01619,15.9872 7.96509,15.9645 C6.32107,15.2322 4.90444,14.2727 3.7152,13.0859 C2.05938,11.3821 1.508604,10.167 1.50009988,2.36728 C1.50009988,2.26419 1.57835,2.17451 1.680818,2.16321 C3.65177,1.94582 5.74132,1.24208 7.94947,0.0519955 C8.00924,0.0197853 8.08167,0.0197853 8.14144,0.0519955 C10.34959,1.24208 12.4391,1.94582 14.4101,2.16321 C14.5126,2.17451 14.5908001,2.26419 14.5908001,2.36728 C14.5823,10.167 14.0315,11.3821 12.3757,13.0859 C11.1865,14.2727 9.76984,15.2322 8.12582,15.9645 Z M11.6586,12.3889 C13.1864,10.8168 13.5546,9.46355 13.5882038,3.23374 C13.5888,3.13536 13.5176,3.04843 13.4207,3.03147 C11.7252,2.73472 9.96436,2.11599 8.13765,1.17975 C8.07986,1.15013 8.01105,1.15013 7.95326,1.17975 C6.12654,2.11599 4.36568,2.73472 2.67024,3.03147 C2.57333,3.04843 2.50213,3.13536 2.50265706,3.23374 C2.53632,9.46353 2.90391,10.8163 4.42158,12.378 C5.42288,13.3773 6.60079,14.2043 7.9598,14.8599 C8.01389,14.886 8.07703,14.886 8.13112,14.8599 C9.49001,14.2044 10.6669,13.3784 11.6586,12.3889 Z" id="verify-unverified_16" fill="#00090D"></path>
    </g>
</svg>