<?xml version="1.0" encoding="UTF-8"?>
<svg width="24px" height="24px" viewBox="0 0 24 24" version="1.1" xmlns="http://www.w3.org/2000/svg" xmlns:xlink="http://www.w3.org/1999/xlink">
    <!-- Generator: Sketch 60.1 (88133) - https://sketch.com -->
    <title>Topology / view-option / view-options-topology_24</title>
    <desc>Created with Sketch.</desc>
    <g id="Topology-/-view-option-/-view-options-topology_24" stroke="none" stroke-width="1" fill="none" fill-rule="evenodd">
        <path d="M15.4646,5 C15.2219,6.69615 13.7632,8 12,8 C10.23676,8 8.77806,6.69615 8.53544,5 L1.5,5 C1.223858,5 1,4.77614 1,4.5 C1,4.22386 1.223858,4 1.5,4 L8.53544,4 C8.77806,2.30385 10.23676,1 12,1 C13.7632,1 15.2219,2.30385 15.4646,4 L22.5,4 C22.7761,4 23,4.22386 23,4.5 C23,4.77614 22.7761,5 22.5,5 L15.4646,5 Z M22.5,12.5 L21.4646,12.5 C21.2219,14.1961 19.7632,15.5 18,15.5 C16.2368,15.5 14.7781,14.1961 14.5354,12.5 L1.5,12.5 C1.223858,12.5 1,12.2761 1,12 C1,11.7239 1.223858,11.5 1.5,11.5 L14.5354,11.5 C14.7781,9.80385 16.2368,8.5 18,8.5 C19.7632,8.5 21.2219,9.80385 21.4646,11.5 L22.5,11.5 C22.7761,11.5 23,11.7239 23,12 C23,12.2761 22.7761,12.5 22.5,12.5 Z M3.03544,19 C3.27806,17.3039 4.73676,16 6.5,16 C8.26324,16 9.72194,17.3039 9.96456,19 L22.5,19 C22.7761,19 23,19.2239 23,19.5 C23,19.7761 22.7761,20 22.5,20 L9.96456,20 C9.72194,21.6961 8.26324,23 6.5,23 C4.73676,23 3.27806,21.6961 3.03544,20 L1.5,20 C1.223858,20 1,19.7761 1,19.5 C1,19.2239 1.223858,19 1.5,19 L3.03544,19 Z" id="secondary-color" fill="#FFA000"></path>
        <path d="M6.5,16 C8.26324,16 9.72194,17.3039 9.96456,19 L9.96456,19 L22.5,19 C22.7761,19 23,19.2239 23,19.5 C23,19.7761 22.7761,20 22.5,20 L22.5,20 L9.96456,20 C9.72194,21.6961 8.26324,23 6.5,23 C4.73676,23 3.27806,21.6961 3.03544,20 L3.03544,20 L1.5,20 C1.223858,20 1,19.7761 1,19.5 C1,19.2239 1.223858,19 1.5,19 L1.5,19 L3.03544,19 C3.27806,17.3039 4.73676,16 6.5,16 Z M6.5,17 C5.29052,17 4.28164,17.8589 4.05001,19 C4.01722,19.1616 4,19.3288 4,19.5 C4,19.6712 4.01722,19.8384 4.05001,20 C4.28164,21.1411 5.29052,22 6.5,22 C7.70948,22 8.71836,21.1411 8.94999,20 C8.98278,19.8384 9,19.6712 9,19.5 C9,19.3288 8.98278,19.1616 8.94999,19 C8.71836,17.8589 7.70948,17 6.5,17 Z M18,8.5 C19.7632,8.5 21.2219,9.80385 21.4646,11.5 L22.5,11.5 C22.7761,11.5 23,11.7239 23,12 C23,12.2761 22.7761,12.5 22.5,12.5 L21.4646,12.5 C21.2219,14.1961 19.7632,15.5 18,15.5 C16.2368,15.5 14.7781,14.1961 14.5354,12.5 L1.5,12.5 C1.223858,12.5 1,12.2761 1,12 C1,11.7239 1.223858,11.5 1.5,11.5 L14.5354,11.5 C14.7781,9.80385 16.2368,8.5 18,8.5 Z M18,9.5 C16.7905,9.5 15.7816,10.35888 15.55,11.5 C15.5172,11.6616 15.5,11.8288 15.5,12 C15.5,12.1712 15.5172,12.3384 15.55,12.5 C15.7816,13.6411 16.7905,14.5 18,14.5 C19.2095,14.5 20.2184,13.6411 20.45,12.5 C20.4828,12.3384 20.5,12.1712 20.5,12 C20.5,11.8288 20.4828,11.6616 20.45,11.5 C20.2184,10.35888 19.2095,9.5 18,9.5 Z M12,1 C13.7632,1 15.2219,2.30385 15.4646,4 L22.5,4 C22.7761,4 23,4.22386 23,4.5 C23,4.77614 22.7761,5 22.5,5 L15.4646,5 C15.2219,6.69615 13.7632,8 12,8 C10.23676,8 8.77806,6.69615 8.53544,5 L1.5,5 C1.223858,5 1,4.77614 1,4.5 C1,4.22386 1.223858,4 1.5,4 L8.53544,4 C8.77806,2.30385 10.23676,1 12,1 Z M12,2 C10.79052,2 9.78164,2.85888 9.55001,4 C9.51721,4.16156 9.5,4.32877 9.5,4.5 C9.5,4.65102 9.51339,4.7989 9.53905,4.94254 C9.54248,4.96177 9.54614,4.98093 9.55001,5 C9.78164,6.14112 10.79052,7 12,7 C13.2095,7 14.2184,6.14112 14.45,5 C14.4828,4.83844 14.5,4.67123 14.5,4.5 C14.5,4.34898 14.4866,4.2011 14.461,4.05746 C14.4575,4.03823 14.4539,4.01907 14.45,4 C14.2184,2.85888 13.2095,2 12,2 Z" id="view-options-topology_24" fill="#00090D"></path>
    </g>
</svg>