<?xml version="1.0" encoding="UTF-8"?>
<svg width="16px" height="16px" viewBox="0 0 16 16" version="1.1" xmlns="http://www.w3.org/2000/svg" xmlns:xlink="http://www.w3.org/1999/xlink">
    <!-- Generator: Sketch 60.1 (88133) - https://sketch.com -->
    <title>Action/view/view_16</title>
    <desc>Created with Sketch.</desc>
    <g id="Action/view/view_16" stroke="none" stroke-width="1" fill="none" fill-rule="evenodd">
        <path d="M8,2 C12.21,2 14.803,5.543 15.778,7.184 C16.074,7.682 16.074,8.318 15.778,8.816 C14.803,10.457 12.21,14 8,14 C3.79,14 1.197,10.457 0.222,8.816 C-0.074,8.318 -0.074,7.682 0.222,7.184 C1.197,5.543 3.79,2 8,2 Z M8,3 C4.273,3 1.92,6.283 1.082,7.695 C0.973,7.877 0.973,8.123 1.082,8.305 C1.92,9.717 4.273,13 8,13 C11.727,13 14.08,9.717 14.918,8.305 C15.027,8.123 15.027,7.877 14.918,7.695 C14.08,6.283 11.727,3 8,3 Z M8,11 C6.34314575,11 5,9.65685425 5,8 C5,6.34314575 6.34314575,5 8,5 C9.65685425,5 11,6.34314575 11,8 C11,9.65685425 9.65685425,11 8,11 Z M8,10 C9.1045695,10 10,9.1045695 10,8 C10,6.8954305 9.1045695,6 8,6 C6.8954305,6 6,6.8954305 6,8 C6,9.1045695 6.8954305,10 8,10 Z" id="view_16" fill="#00090D"></path>
    </g>
</svg>