<?xml version="1.0" encoding="UTF-8"?>
<svg width="16px" height="16px" viewBox="0 0 16 16" version="1.1" xmlns="http://www.w3.org/2000/svg" xmlns:xlink="http://www.w3.org/1999/xlink">
    <!-- Generator: Sketch 60.1 (88133) - https://sketch.com -->
    <title>Topology / view-option / view-options-topology_16</title>
    <desc>Created with Sketch.</desc>
    <g id="Topology-/-view-option-/-view-options-topology_16" stroke="none" stroke-width="1" fill="none" fill-rule="evenodd">
        <path d="M5.05000906,2 C5.28164422,0.858879839 6.29052104,0 7.5,0 C8.70947896,0 9.71835578,0.858879839 9.94999094,2 L15.5,2 C15.7761424,2 16,2.22385763 16,2.5 C16,2.77614237 15.7761424,3 15.5,3 L9.94999094,3 C9.71835578,4.14112016 8.70947896,5 7.5,5 C6.29052104,5 5.28164422,4.14112016 5.05000906,3 L0.5,3 C0.223857625,3 0,2.77614237 0,2.5 C0,2.22385763 0.223857625,2 0.5,2 L5.05000906,2 Z M2.05000906,13 C2.28164422,11.8588798 3.29052104,11 4.5,11 C5.70947896,11 6.71835578,11.8588798 6.94999094,13 L15.5,13 C15.7761424,13 16,13.2238576 16,13.5 C16,13.7761424 15.7761424,14 15.5,14 L6.94999094,14 C6.71835578,15.1411202 5.70947896,16 4.5,16 C3.29052104,16 2.28164422,15.1411202 2.05000906,14 L0.5,14 C0.223857625,14 0,13.7761424 0,13.5 C0,13.2238576 0.223857625,13 0.5,13 L2.05000906,13 Z M9.05000906,7.5 C9.28164422,6.35887984 10.290521,5.5 11.5,5.5 C12.709479,5.5 13.7183558,6.35887984 13.9499909,7.5 L15.5,7.5 C15.7761424,7.5 16,7.72385763 16,8 C16,8.27614237 15.7761424,8.5 15.5,8.5 L13.9499909,8.5 C13.7183558,9.64112016 12.709479,10.5 11.5,10.5 C10.290521,10.5 9.28164422,9.64112016 9.05000906,8.5 L0.5,8.5 C0.223857625,8.5 0,8.27614237 0,8 C0,7.72385763 0.223857625,7.5 0.5,7.5 L9.05000906,7.5 Z" id="secondary-color" fill="#FFA000"></path>
        <path d="M5.05000906,2 C5.28164422,0.858879839 6.29052104,0 7.5,0 C8.70947896,0 9.71835578,0.858879839 9.94999094,2 L15.5,2 C15.7761424,2 16,2.22385763 16,2.5 C16,2.77614237 15.7761424,3 15.5,3 L9.94999094,3 C9.71835578,4.14112016 8.70947896,5 7.5,5 C6.29052104,5 5.28164422,4.14112016 5.05000906,3 L0.5,3 C0.223857625,3 0,2.77614237 0,2.5 C0,2.22385763 0.223857625,2 0.5,2 L5.05000906,2 Z M2.05000906,13 C2.28164422,11.8588798 3.29052104,11 4.5,11 C5.70947896,11 6.71835578,11.8588798 6.94999094,13 L15.5,13 C15.7761424,13 16,13.2238576 16,13.5 C16,13.7761424 15.7761424,14 15.5,14 L6.94999094,14 C6.71835578,15.1411202 5.70947896,16 4.5,16 C3.29052104,16 2.28164422,15.1411202 2.05000906,14 L0.5,14 C0.223857625,14 0,13.7761424 0,13.5 C0,13.2238576 0.223857625,13 0.5,13 L2.05000906,13 Z M9.05000906,7.5 C9.28164422,6.35887984 10.290521,5.5 11.5,5.5 C12.709479,5.5 13.7183558,6.35887984 13.9499909,7.5 L15.5,7.5 C15.7761424,7.5 16,7.72385763 16,8 C16,8.27614237 15.7761424,8.5 15.5,8.5 L13.9499909,8.5 C13.7183558,9.64112016 12.709479,10.5 11.5,10.5 C10.290521,10.5 9.28164422,9.64112016 9.05000906,8.5 L0.5,8.5 C0.223857625,8.5 0,8.27614237 0,8 C0,7.72385763 0.223857625,7.5 0.5,7.5 L9.05000906,7.5 Z M11.5,9.5 C12.3284271,9.5 13,8.82842712 13,8 C13,7.17157288 12.3284271,6.5 11.5,6.5 C10.6715729,6.5 10,7.17157288 10,8 C10,8.82842712 10.6715729,9.5 11.5,9.5 Z M4.5,15 C5.32842712,15 6,14.3284271 6,13.5 C6,12.6715729 5.32842712,12 4.5,12 C3.67157288,12 3,12.6715729 3,13.5 C3,14.3284271 3.67157288,15 4.5,15 Z M7.5,4 C8.32842712,4 9,3.32842712 9,2.5 C9,1.67157288 8.32842712,1 7.5,1 C6.67157288,1 6,1.67157288 6,2.5 C6,3.32842712 6.67157288,4 7.5,4 Z" id="view-options-topology_16" fill="#00090D"></path>
    </g>
</svg>