<?xml version="1.0" encoding="UTF-8"?>
<svg width="24px" height="24px" viewBox="0 0 24 24" version="1.1" xmlns="http://www.w3.org/2000/svg" xmlns:xlink="http://www.w3.org/1999/xlink">
    <!-- Generator: Sketch 60.1 (88133) - https://sketch.com -->
    <title>Action/view/view_24</title>
    <desc>Created with Sketch.</desc>
    <g id="Action/view/view_24" stroke="none" stroke-width="1" fill="none" fill-rule="evenodd">
        <path d="M23.667,10.9122 C24.111,11.5762 24.111,12.4242 23.667,13.0882 C22.205,15.2752 18.316,21.0002 12,21.0002 C5.684,21.0002 1.795,15.2752 0.333,13.0882 C-0.111,12.4242 -0.111,11.5762 0.333,10.9122 C1.795,8.7242 5.684,3.0002 12,3.0002 C18.316,3.0002 22.205,8.7242 23.667,10.9122 Z M22.836,12.5322 C23.055,12.2042 23.055,11.7962 22.836,11.4682 C21.536,9.5232 17.878,4.0002 12,4.0002 C6.122,4.0002 2.464,9.5232 1.164,11.4682 C0.945,11.7962 0.945,12.2042 1.164,12.5322 C2.464,14.4762 6.122,20.0002 12,20.0002 C17.878,20.0002 21.536,14.4762 22.836,12.5322 Z M12,16 C9.790861,16 8,14.209139 8,12 C8,9.790861 9.790861,8 12,8 C14.209139,8 16,9.790861 16,12 C16,14.209139 14.209139,16 12,16 Z M12,15 C13.6568542,15 15,13.6568542 15,12 C15,10.3431458 13.6568542,9 12,9 C10.3431458,9 9,10.3431458 9,12 C9,13.6568542 10.3431458,15 12,15 Z" id="view_24" fill="#00090D"></path>
    </g>
</svg>