<?xml version="1.0" encoding="UTF-8"?>
<svg width="24px" height="24px" viewBox="0 0 24 24" version="1.1" xmlns="http://www.w3.org/2000/svg" xmlns:xlink="http://www.w3.org/1999/xlink">
    <!-- Generator: Sketch 60.1 (88133) - https://sketch.com -->
    <title>Tools / view-activity / view-activity-filled_24</title>
    <desc>Created with Sketch.</desc>
    <g id="Tools-/-view-activity-/-view-activity-filled_24" stroke="none" stroke-width="1" fill="none" fill-rule="evenodd">
        <path d="M12,0 C18.627417,0 24,5.372583 24,12 C24,18.627417 18.627417,24 12,24 C5.372583,24 0,18.627417 0,12 C0,5.372583 5.372583,0 12,0 Z M12.1604158,6.25263703 C11.7457051,5.88789947 11.1138374,5.9284107 10.7490999,6.34312139 L10.7490999,6.34312139 L5.7738819,12 L3.49543042,12 C3.21928804,12 2.99543042,12.2238576 2.99543042,12.5 C2.99543042,12.7761424 3.21928804,13 3.49543042,13 L3.49543042,13 L5.7738819,13 C6.06135752,13 6.33492859,12.8762813 6.52478203,12.6604158 L6.52478203,12.6604158 L11.5,7.00353716 L11.5,16.9986664 C11.5,17.5509512 11.9477153,17.9986664 12.5,17.9986664 C12.787541,17.9986664 13.0611678,17.8748916 13.251024,17.6589414 L13.251024,17.6589414 L18.2261746,12 L20.5,12 C20.7761424,12 21,11.7761424 21,11.5 C21,11.2238576 20.7761424,11 20.5,11 L20.5,11 L18.2261746,11 C17.9386335,11 17.6650068,11.1237748 17.4751506,11.339725 L17.4751506,11.339725 L12.5,16.9986664 L12.5,7.00353716 C12.5,6.71606154 12.3762813,6.44249047 12.1604158,6.25263703 Z" id="view-activity-filled_24" fill="#00090D"></path>
    </g>
</svg>