<?xml version="1.0" encoding="UTF-8"?>
<svg width="18px" height="18px" viewBox="0 0 18 18" version="1.1" xmlns="http://www.w3.org/2000/svg" xmlns:xlink="http://www.w3.org/1999/xlink">
    <!-- Generator: Sketch 60.1 (88133) - https://sketch.com -->
    <title>Tools / view-activity / view-activity_18</title>
    <desc>Created with Sketch.</desc>
    <g id="Tools-/-view-activity-/-view-activity_18" stroke="none" stroke-width="1" fill="none" fill-rule="evenodd">
        <path d="M9,0 C13.971,0 18,4.029 18,9 C18,13.971 13.971,18 9,18 C4.029,18 0,13.971 0,9 C0,4.029 4.029,0 9,0 Z M9,17 C13.412,17 17,13.411 17,9 C17,4.589 13.412,1 9,1 C4.588,1 1,4.589 1,9 C1,13.411 4.588,17 9,17 Z M9.5005,11.9976161 L12.4758648,8.34580273 C12.6649282,8.13059222 12.9378594,8.0078 13.2245,8.0078 L15.4805,8.0078 C15.7566424,8.0078 15.9805,8.23165763 15.9805,8.5078 C15.9805,8.78394237 15.7566424,9.0078 15.4805,9.0078 L13.2262694,9.0078 L10.2752458,12.6299922 C9.68710276,13.3666766 8.5005,12.9507622 8.5005,12.0080344 L8.5005,6.00651713 L5.52413519,9.66479727 C5.33500708,9.8800814 5.0620786,10.0018 4.7755,10.0018 L2.5195,10.0018 C2.24335763,10.0018 2.0195,9.77794237 2.0195,9.5018 C2.0195,9.22565763 2.24335763,9.0018 2.5195,9.0018 L4.7755,9.0018 C4.77638396,9.0018 4.77493505,9.00244617 4.75752303,9.0231319 L7.72475417,5.37539511 C8.31283074,4.63879408 9.5005,5.05451853 9.5005,5.99735296 L9.5005,11.9976161 Z" id="view-activity_18" fill="#00090D"></path>
    </g>
</svg>