<?xml version="1.0" encoding="UTF-8"?>
<svg width="24px" height="24px" viewBox="0 0 24 24" version="1.1" xmlns="http://www.w3.org/2000/svg" xmlns:xlink="http://www.w3.org/1999/xlink">
    <!-- Generator: Sketch 60.1 (88133) - https://sketch.com -->
    <title>Tools / virtual-network / virtual-network-filled_24</title>
    <desc>Created with Sketch.</desc>
    <g id="Tools-/-virtual-network-/-virtual-network-filled_24" stroke="none" stroke-width="1" fill="none" fill-rule="evenodd">
        <path d="M14.4504812,21.9975788 C14.2197825,23.139905 13.2103342,24 12,24 C10.7896658,24 9.78021749,23.139905 9.54951883,21.9975788 C9.53322936,21.9991803 9.51671041,22 9.5,22 L3.5,22 C3.22385763,22 3,21.7761424 3,21.5 C3,21.2238576 3.22385763,21 3.5,21 L9.5,21 C9.51671041,21 9.53322936,21.0008197 9.54951883,21.0024212 C9.78021749,19.860095 10.7896658,19 12,19 C13.2103342,19 14.2197825,19.860095 14.4504812,21.0024212 C14.4667706,21.0008197 14.4832896,21 14.5,21 L20.5,21 C20.7761424,21 21,21.2238576 21,21.5 C21,21.7761424 20.7761424,22 20.5,22 L14.5,22 C14.4832896,22 14.4667706,21.9991803 14.4504812,21.9975788 Z M7.5,14 C5.01825,14 3,11.907 3,9.33333333 C3,7.20066667 4.432125,5.341 6.39975,4.8265 C6.627,2.1035 8.799375,0 11.4375,0 C13.594125,0 15.490875,1.421 16.197375,3.507 C18.868125,3.64816667 21,5.9465 21,8.75 C21,11.6445 18.728625,14 15.9375,14 L7.5,14 Z M11.5,15 L12.5,15 L12.5,16 L11.5,16 L11.5,15 Z M11.5,17 L12.5,17 L12.5,18 L11.5,18 L11.5,17 Z" id="virtual-network-filled_24" fill="#00090D"></path>
    </g>
</svg>