<svg width="48" height="48" viewBox="0 0 48 48" fill="none" xmlns="http://www.w3.org/2000/svg">
<g id="virtual-network_48">
<path id="virtual-network_48_2" fill-rule="evenodd" clip-rule="evenodd" d="M6 18.5C6 14.1104 8.97711 10.4162 13.0223 9.32634C13.3688 4.11762 17.7035 0 23 0C27.497 0 31.3007 2.9684 32.5586 7.0527C37.8605 7.58349 42 12.0583 42 17.5C42 22.7897 38.0884 27.1658 33 27.8937V28H15V27.9871C9.98572 27.7271 6 23.579 6 18.5ZM32.8584 26.9037L32.1855 27H15.2753L15.0518 26.9884C10.5662 26.7558 7 23.044 7 18.5C7 14.5739 9.66271 11.2672 13.2825 10.2919L13.9727 10.1059L14.0201 9.39271C14.3319 4.70583 18.2336 1 23 1C27.0458 1 30.4705 3.67034 31.6029 7.34704L31.7983 7.98159L32.459 8.04773C37.2548 8.52785 41 12.5772 41 17.5C41 22.2851 37.4613 26.2454 32.8584 26.9037ZM23 31C23 30.4477 23.4477 30 24 30C24.5523 30 25 30.4477 25 31C25 31.5523 24.5523 32 24 32C23.4477 32 23 31.5523 23 31ZM24 47.1C25.9882 47.1 27.6 45.4882 27.6 43.5C27.6 41.5118 25.9882 39.9 24 39.9C22.0118 39.9 20.4 41.5118 20.4 43.5C20.4 45.4882 22.0118 47.1 24 47.1ZM24 48C26.3165 48 28.2242 46.2496 28.4726 43.9993C28.4817 43.9997 28.4908 44 28.5 44H41.5001C41.7762 44 42.0001 43.7761 42.0001 43.5C42.0001 43.2239 41.7762 43 41.5001 43H28.5C28.4908 43 28.4817 43.0003 28.4726 43.0007C28.2242 40.7504 26.3165 39 24 39C21.6835 39 19.7758 40.7504 19.5274 43.0007C19.5183 43.0002 19.5092 43 19.5 43H6.5C6.22386 43 6 43.2239 6 43.5C6 43.7761 6.22386 44 6.5 44H19.5C19.5092 44 19.5183 43.9998 19.5274 43.9993C19.7758 46.2496 21.6835 48 24 48ZM24 35C23.4477 35 23 35.4477 23 36C23 36.5523 23.4477 37 24 37C24.5523 37 25 36.5523 25 36C25 35.4477 24.5523 35 24 35Z" fill="#545454"/>
</g>
</svg>
