<?xml version="1.0" encoding="UTF-8"?>
<svg width="36px" height="36px" viewBox="0 0 36 36" version="1.1" xmlns="http://www.w3.org/2000/svg" xmlns:xlink="http://www.w3.org/1999/xlink">
    <!-- Generator: Sketch 60.1 (88133) - https://sketch.com -->
    <title>Networking / ENCS / VPC_36</title>
    <desc>Created with Sketch.</desc>
    <g id="Networking-/-ENCS-/-VPC_36" stroke="none" stroke-width="1" fill="none" fill-rule="evenodd">
        <path d="M4,23.5 C4,23.7761424 3.77614237,24 3.5,24 L1.97435897,24 L1.97435897,24 C1.42207422,24 0.97435897,24.4477153 0.97435897,25 L0.97435897,34 C0.97435897,34.5522847 1.42207422,35 1.97435897,35 L34.025641,35 C34.5779258,35 35.025641,34.5522847 35.025641,34 L35.025641,25 C35.025641,24.4477153 34.5779258,24 34.025641,24 L32.5,24 C32.2238576,24 32,23.7761424 32,23.5 C32,23.2238576 32.2238576,23 32.5,23 L35,23 L35,23 C35.5522847,23 36,23.4477153 36,24 L36,35 C36,35.5522847 35.5522847,36 35,36 L1,36 C0.44771525,36 0,35.5522847 0,35 L0,24 C0,23.4477153 0.44771525,23 1,23 L3.5,23 C3.77614237,23 4,23.2238576 4,23.5 Z M25.233,23 C29.515,23 33,19.473 33,15.137 C33,10.801 29.515,7.272 25.233,7.272 C24.922,7.272 24.593,7.298 24.198,7.351 C24.067,7.371 23.933,7.333 23.827,7.253 C23.721,7.172 23.652,7.052 23.634,6.92 C23.195,3.545 20.329,1 16.966,1 C13.254,1 10.233,4.059 10.233,7.818 C10.233,8.111 10.257,8.423 10.311,8.798 C10.332,8.944 10.287,9.093 10.188,9.202 C10.089,9.312 9.945,9.381 9.798,9.368 L9.791,9.368 C6.015,9.368 3,12.425 3,16.182 C3,19.941 6.02,23 9.733,23 L25.233,23 Z M25.233,6.272 C30.067,6.272 34,10.249 34,15.137 C34,20.024 30.067,24 25.233,24 L9.733,24 C5.468,24 2,20.493 2,16.182 C2,12.032 5.213,8.627 9.256,8.378 C9.241,8.183 9.233,7.998 9.233,7.818 C9.233,3.507 12.702,0 16.966,0 C20.666,0 23.842,2.678 24.547,6.305 C24.791,6.283 25.014,6.272 25.233,6.272 Z M12.47,26.15 L13.47,26.15 L10.89,33.35 L9.62,33.35 L7,26.15 L8.08,26.15 L10.26,32.39 L12.47,26.15 Z M15.435,26.15 L17.775,26.15 C19.585,26.15 20.595,26.97 20.595,28.49 C20.595,29.95 19.625,30.78 17.735,30.78 L16.455,30.78 L16.455,33.35 L15.435,33.35 L15.435,26.15 Z M17.795,26.98 L16.455,26.98 L16.455,29.95 L17.755,29.95 C19.025,29.95 19.535,29.43 19.535,28.49 C19.535,27.54 18.925,26.98 17.795,26.98 Z M25.88,32.64 C27.05,32.64 27.91,31.85 27.97,30.81 L29,30.81 C28.92,32.21 27.69,33.5 25.86,33.5 C23.85,33.5 22.56,32.15 22.56,29.75 C22.56,27.32 23.96,26 25.94,26 C27.67,26 28.89,27.14 28.99,28.46 L27.96,28.46 C27.83,27.48 27.05,26.85 25.94,26.85 C24.56,26.85 23.6,27.8 23.6,29.75 C23.6,31.61 24.53,32.64 25.88,32.64 Z" id="VPC_36" fill="#00090D"></path>
    </g>
</svg>