<?xml version="1.0" encoding="UTF-8"?>
<svg width="24px" height="24px" viewBox="0 0 24 24" version="1.1" xmlns="http://www.w3.org/2000/svg" xmlns:xlink="http://www.w3.org/1999/xlink">
    <!-- Generator: Sketch 60.1 (88133) - https://sketch.com -->
    <title>Networking / vwaas_24</title>
    <desc>Created with Sketch.</desc>
    <g id="Networking-/-vwaas_24" stroke="none" stroke-width="1" fill="none" fill-rule="evenodd">
        <path d="M3.5,1 L20.5,1 C21.8807119,1 23,2.11928813 23,3.5 L23,20.5 C23,21.8807119 21.8807119,23 20.5,23 L3.5,23 C2.11928813,23 1,21.8807119 1,20.5 L1,3.5 C1,2.11928813 2.11928813,1 3.5,1 Z M3.5,2 C2.67157288,2 2,2.67157288 2,3.5 L2,20.5 C2,21.3284271 2.67157288,22 3.5,22 L20.5,22 C21.3284271,22 22,21.3284271 22,20.5 L22,3.5 C22,2.67157288 21.3284271,2 20.5,2 L3.5,2 Z M13.5562834,11.7781417 C13.8013413,11.9006706 13.7978014,12.1010993 13.5562834,12.2218583 L9.44371665,14.2781417 C9.19865871,14.4006706 9,14.2851563 9,14.0023012 L9,9.99769878 C9,9.72282734 9.20219862,9.60109931 9.44371665,9.72185832 L13.5562834,11.7781417 Z M6.64644661,16.1464466 C6.84170876,15.9511845 7.15829124,15.9511845 7.35355339,16.1464466 C7.54881554,16.3417088 7.54881554,16.6582912 7.35355339,16.8535534 L4.35355339,19.8535534 C4.15829124,20.0488155 3.84170876,20.0488155 3.64644661,19.8535534 C3.45118446,19.6582912 3.45118446,19.3417088 3.64644661,19.1464466 L6.64644661,16.1464466 Z M7.35355339,7.14644661 C7.54881554,7.34170876 7.54881554,7.65829124 7.35355339,7.85355339 C7.15829124,8.04881554 6.84170876,8.04881554 6.64644661,7.85355339 L3.64644661,4.85355339 C3.45118446,4.65829124 3.45118446,4.34170876 3.64644661,4.14644661 C3.84170876,3.95118446 4.15829124,3.95118446 4.35355339,4.14644661 L7.35355339,7.14644661 Z M20.375,11.5 C20.720178,11.5 21,11.7238576 21,12 C21,12.2761424 20.720178,12.5 20.375,12.5 L16.625,12.5 C16.279822,12.5 16,12.2761424 16,12 C16,11.7238576 16.279822,11.5 16.625,11.5 L20.375,11.5 Z M6.5,11.5 C6.77614237,11.5 7,11.7238576 7,12 C7,12.2761424 6.77614237,12.5 6.5,12.5 L3.5,12.5 C3.22385763,12.5 3,12.2761424 3,12 C3,11.7238576 3.22385763,11.5 3.5,11.5 L6.5,11.5 Z" id="vwaas_24" fill="#00090D"></path>
    </g>
</svg>