<?xml version="1.0" encoding="UTF-8"?>
<svg width="36px" height="36px" viewBox="0 0 36 36" version="1.1" xmlns="http://www.w3.org/2000/svg" xmlns:xlink="http://www.w3.org/1999/xlink">
    <!-- Generator: Sketch 60.1 (88133) - https://sketch.com -->
    <title>Alert and Notification/warning/warning-filled_36</title>
    <desc>Created with Sketch.</desc>
    <g id="Alert-and-Notification/warning/warning-filled_36" stroke="none" stroke-width="1" fill="none" fill-rule="evenodd">
        <path d="M35.466707,27.3012833 C36.1627007,28.4682729 36.1777006,29.8752604 35.5102066,31.0602498 C34.8262127,32.273739 33.5797238,32.9997325 32.1757363,32.9997325 L3.82448908,32.9997325 C2.4205016,32.9997325 1.17251273,32.275239 0.488518827,31.0617498 C-0.178975222,29.8767604 -0.160975382,28.4712729 0.533518426,27.2997833 L14.7068921,4.86448338 C15.4013859,3.69599379 16.6328749,3 17.9993627,3 C19.3673505,3 20.5988395,3.69599379 21.2918333,4.86298339 C21.2933333,4.86298339 21.2933333,4.86448338 21.2933333,4.86448338 L35.466707,27.3012833 Z M18,10 C17.4477153,10 17,10.4477153 17,11 L17,22.5 C17,23.0522847 17.4477153,23.5 18,23.5 C18.5522847,23.5 19,23.0522847 19,22.5 L19,11 C19,10.4477153 18.5522847,10 18,10 Z M18,25 C17.4477153,25 17,25.4477153 17,26 L17,27 C17,27.5522847 17.4477153,28 18,28 C18.5522847,28 19,27.5522847 19,27 L19,26 C19,25.4477153 18.5522847,25 18,25 Z" id="warning-filled_36" fill="#00090D"></path>
    </g>
</svg>