<?xml version="1.0" encoding="UTF-8"?>
<svg width="16px" height="16px" viewBox="0 0 16 16" version="1.1" xmlns="http://www.w3.org/2000/svg" xmlns:xlink="http://www.w3.org/1999/xlink">
    <!-- Generator: Sketch 60.1 (88133) - https://sketch.com -->
    <title>Alert and Notification/warning/warning_16</title>
    <desc>Created with Sketch.</desc>
    <g id="Alert-and-Notification/warning/warning_16" stroke="none" stroke-width="1" fill="none" fill-rule="evenodd">
        <path d="M15.7408197,12.238 C16.0768197,12.801 16.0878197,13.482 15.7658197,14.056 C15.4358197,14.647 14.8298197,15 14.1478197,15 L1.85281975,15 C1.17081975,15 0.563819747,14.647 0.233819747,14.055 C-0.087180253,13.481 -0.077180253,12.801 0.260819747,12.237 L6.40681975,1.901 C6.74381975,1.336 7.33981975,1 7.99981975,1 C8.66081975,1 9.25581975,1.336 9.59181975,1.9 C9.59381975,1.9 9.59381975,1.9 9.59381975,1.901 L15.7408197,12.238 Z M14.8918197,13.569 C15.0398197,13.305 15.0358197,13.008 14.8818197,12.75 L8.85581975,2.617 L8.73381975,2.412 C8.57781975,2.15 8.30981975,2 7.99981975,2 C7.68981975,2 7.42181975,2.151 7.26481975,2.413 L1.12081975,12.748 C0.964819747,13.007 0.960819747,13.305 1.10681975,13.567 C1.26081975,13.843 1.53281975,14 1.85281975,14 L14.1478197,14 C14.4678197,14 14.7398197,13.843 14.8918197,13.569 Z M8.00021975,6.0002 C8.27521975,6.0002 8.50021975,6.2252 8.50021975,6.5002 L8.50021975,9.5002 C8.50021975,9.7752 8.27521975,10.0002 8.00021975,10.0002 C7.72521975,10.0002 7.50021975,9.7752 7.50021975,9.5002 L7.50021975,6.5002 C7.50021975,6.2252 7.72521975,6.0002 8.00021975,6.0002 L8.00021975,6.0002 Z M8.00021975,11.0002 C8.27621975,11.0002 8.50021975,11.2242 8.50021975,11.5002 C8.50021975,11.7762 8.27621975,12.0002 8.00021975,12.0002 C7.72421975,12.0002 7.50021975,11.7762 7.50021975,11.5002 C7.50021975,11.2242 7.72421975,11.0002 8.00021975,11.0002 Z" id="warning_16" fill="#00090D"></path>
    </g>
</svg>