<?xml version="1.0" encoding="UTF-8"?>
<svg width="24px" height="24px" viewBox="0 0 24 24" version="1.1" xmlns="http://www.w3.org/2000/svg" xmlns:xlink="http://www.w3.org/1999/xlink">
    <!-- Generator: Sketch 60.1 (88133) - https://sketch.com -->
    <title>Alert and Notification/warning/warning_24</title>
    <desc>Created with Sketch.</desc>
    <g id="Alert-and-Notification/warning/warning_24" stroke="none" stroke-width="1" fill="none" fill-rule="evenodd">
        <path d="M23.6446821,18.2008 C24.1086821,18.9788 24.1186821,19.9168 23.6736821,20.7068 C23.2176821,21.5158 22.3866821,21.9998 21.4506821,21.9998 L2.54968212,21.9998 C1.61368212,21.9998 0.781682122,21.5168 0.325682122,20.7078 C-0.119317878,19.9178 -0.107317878,18.9808 0.355682122,18.1998 L9.80468212,3.2428 C10.2676821,2.4638 11.0886821,1.9998 11.9996821,1.9998 C12.9116821,1.9998 13.7326821,2.4638 14.1946821,3.2418 C14.1956821,3.2418 14.1956821,3.2428 14.1956821,3.2428 L23.6446821,18.2008 L23.6446821,18.2008 Z M22.8026821,20.2158 C23.0696821,19.7408 23.0636821,19.1788 22.7856821,18.7128 L13.6436821,4.2418 L13.6256821,4.2418 L13.3346821,3.7528 L13.2886821,3.6798 C13.0016821,3.2528 12.5266821,2.9998 11.9996821,2.9998 C11.4446821,2.9998 10.9456821,3.2818 10.6646821,3.7548 L1.20068212,18.7348 C0.932682122,19.1868 0.926682122,19.7358 1.19768212,20.2158 C1.47768212,20.7148 1.97068212,20.9998 2.54968212,20.9998 L21.4506821,20.9998 C22.0296821,20.9998 22.5216821,20.7138 22.8026821,20.2158 L22.8026821,20.2158 Z M11.9999821,8.0059 C12.2759821,8.0059 12.4999821,8.2299 12.4999821,8.5059 L12.4999821,14.5059 C12.4999821,14.7819 12.2759821,15.0059 11.9999821,15.0059 C11.7239821,15.0059 11.4999821,14.7819 11.4999821,14.5059 L11.4999821,8.5059 C11.4999821,8.2299 11.7239821,8.0059 11.9999821,8.0059 Z M11.8099821,17.0459 C11.9899821,16.9659 12.2099821,17.0169 12.3499821,17.1559 C12.4499821,17.2459 12.4999821,17.3759 12.4999821,17.5059 C12.4999821,17.6469 12.4499821,17.7669 12.3499821,17.8659 C12.3099821,17.9059 12.2499821,17.9459 12.1889821,17.9659 C12.1299821,17.9959 12.0689821,18.0059 11.9999821,18.0059 C11.8699821,18.0059 11.7399821,17.9559 11.6489821,17.8659 C11.5499821,17.7669 11.4999821,17.6469 11.4999821,17.5059 C11.4999821,17.3759 11.5499821,17.2459 11.6489821,17.1559 C11.6889821,17.1069 11.7499821,17.0759 11.8099821,17.0459 Z" id="warning_24" fill="#00090D"></path>
    </g>
</svg>