<svg width="40" height="40" viewBox="0 0 40 40" fill="none" xmlns="http://www.w3.org/2000/svg">
<g id="Size=40">
<path id="secondary-color" fill-rule="evenodd" clip-rule="evenodd" d="M20 0C8.95431 0 0 8.95431 0 20C0 31.0457 8.95431 40 20 40C31.0457 40 40 31.0457 40 20C40 8.95431 31.0457 0 20 0ZM20 13C17.2386 13 15 15.2386 15 18V24C15 26.7614 17.2386 29 20 29C22.7614 29 25 26.7614 25 24V18C25 15.2386 22.7614 13 20 13Z" fill="#FC9D03" fill-opacity="0.15"/>
<g id="Icon">
<path id="warning-filled_24" fill-rule="evenodd" clip-rule="evenodd" d="M31.6447 25.201C32.1087 25.979 32.1187 26.917 31.6737 27.707C31.2177 28.516 30.3867 29 29.4507 29H10.5497C9.61368 29 8.78168 28.517 8.32568 27.708C7.88068 26.918 7.89268 25.981 8.35568 25.2L17.8047 10.243C18.2677 9.464 19.0887 9 19.9997 9C20.9117 9 21.7327 9.464 22.1947 10.242C22.1957 10.242 22.1957 10.243 22.1957 10.243L31.6447 25.201ZM20.5 25.5V25C20.5 24.7239 20.2761 24.5 20 24.5C19.7239 24.5 19.5 24.7239 19.5 25V25.5C19.5 25.7761 19.7239 26 20 26C20.2761 26 20.5 25.7761 20.5 25.5ZM19.5 14.5L19.5001 22.5C19.5001 22.7761 19.724 23 20.0001 23C20.2763 23 20.5001 22.7761 20.5001 22.5L20.5 14.5C20.5 14.2239 20.2761 14 20 14C19.7239 14 19.5 14.2239 19.5 14.5Z" fill="#FC9D03"/>
</g>
</g>
</svg>
