<?xml version="1.0" encoding="UTF-8"?>
<svg width="16px" height="16px" viewBox="0 0 16 16" version="1.1" xmlns="http://www.w3.org/2000/svg" xmlns:xlink="http://www.w3.org/1999/xlink">
    <!-- Generator: Sketch 60.1 (88133) - https://sketch.com -->
    <title>Alert and Notification/warning/warning-filled_16</title>
    <desc>Created with Sketch.</desc>
    <g id="Alert-and-Notification/warning/warning-filled_16" stroke="none" stroke-width="1" fill="none" fill-rule="evenodd">
        <path d="M15.7408197,12.238 C16.0768197,12.801 16.0878197,13.482 15.7658197,14.056 C15.4358197,14.647 14.8298197,15 14.1478197,15 L1.85281975,15 C1.17081975,15 0.563819747,14.647 0.233819747,14.055 C-0.087180253,13.481 -0.077180253,12.801 0.260819747,12.237 L6.40681975,1.901 C6.74381975,1.336 7.33981975,1 7.99981975,1 C8.66081975,1 9.25581975,1.336 9.59181975,1.9 C9.59381975,1.9 9.59381975,1.9 9.59381975,1.901 L15.7408197,12.238 Z M8.5002198,12.4999803 L8.49999995,11.9999803 C8.49987859,11.7238379 8.2759226,11.5000787 7.99978025,11.5002 C7.7236379,11.5003214 7.49987869,11.7242774 7.49999995,12.0004197 L7.5002198,12.5004197 C7.50034116,12.7765621 7.72429715,13.0003213 8.00043949,13.0002 C8.27658184,13.0000786 8.50034106,12.7761226 8.5002198,12.4999803 Z M7.5,5.50002747 L7.50021975,9.50002747 C7.50023492,9.77616984 7.72410484,10 8.00024722,10 C8.27638959,10 8.50023492,9.77611491 8.50021975,9.49997253 L8.5,5.49997253 C8.49998483,5.22383016 8.27611491,5 7.99997253,5 C7.72383016,5 7.49998483,5.22388509 7.5,5.50002747 Z" id="warning-filled_16" fill="#00090D"></path>
    </g>
</svg>