<?xml version="1.0" encoding="UTF-8"?>
<svg width="18px" height="18px" viewBox="0 0 18 18" version="1.1" xmlns="http://www.w3.org/2000/svg" xmlns:xlink="http://www.w3.org/1999/xlink">
    <!-- Generator: Sketch 60.1 (88133) - https://sketch.com -->
    <title>Alert and Notification/warning/warning-filled_18</title>
    <desc>Created with Sketch.</desc>
    <g id="Alert-and-Notification/warning/warning-filled_18" stroke="none" stroke-width="1" fill="none" fill-rule="evenodd">
        <path d="M10.7928756,2.02971429 L17.7081407,13.8434286 C18.0861347,14.4868571 18.0985095,15.2651429 17.7362652,15.9211429 C17.3650211,16.5965714 16.683282,17 15.9160442,17 L2.08438908,17 C1.31715127,17 0.634287131,16.5965714 0.263043033,15.92 C-0.0980762253,15.264 -0.0868264042,14.4868571 0.29341755,13.8422857 L7.20755763,2.02971429 C7.5866766,1.384 8.25716594,1 8.99965413,1 C9.74326731,1 10.4126317,1.384 10.7928756,2.02971429 Z M8.5,6.5 L8.5,10.5 C8.5,10.7761424 8.72385763,11 9,11 C9.27614237,11 9.5,10.7761424 9.5,10.5 L9.5,6.5 C9.5,6.22385763 9.27614237,6 9,6 C8.72385763,6 8.5,6.22385763 8.5,6.5 Z M9.5,13.5 L9.5,13 C9.5,12.7238576 9.27614237,12.5 9,12.5 C8.72385763,12.5 8.5,12.7238576 8.5,13 L8.5,13.5 C8.5,13.7761424 8.72385763,14 9,14 C9.27614237,14 9.5,13.7761424 9.5,13.5 Z" id="warning-filled_18" fill="#00090D"></path>
    </g>
</svg>