<svg width="60" height="60" viewBox="0 0 60 60" fill="none" xmlns="http://www.w3.org/2000/svg">
<g id="Size=60">
<path id="secondary-color" fill-rule="evenodd" clip-rule="evenodd" d="M30 0C13.4315 0 0 13.4315 0 30C0 46.5685 13.4315 60 30 60C46.5685 60 60 46.5685 60 30C60 13.4315 46.5685 0 30 0ZM30 18C25.0294 18 21 22.0294 21 27V33C21 37.9706 25.0294 42 30 42C34.9706 42 39 37.9706 39 33V27C39 22.0294 34.9706 18 30 18Z" fill="#FC9D03" fill-opacity="0.15"/>
<g id="Icon_Status">
<path id="warning-filled_36" fill-rule="evenodd" clip-rule="evenodd" d="M47.4667 37.3013C48.1627 38.4683 48.1777 39.8753 47.5102 41.0602C46.8262 42.2737 45.5797 42.9997 44.1757 42.9997H15.8245C14.4205 42.9997 13.1725 42.2752 12.4885 41.0618C11.821 39.8768 11.839 38.4713 12.5335 37.2998L26.7069 14.8645C27.4014 13.696 28.6329 13 29.9994 13C31.3674 13 32.5988 13.696 33.2918 14.863C33.2933 14.863 33.2933 14.8645 33.2933 14.8645L47.4667 37.3013ZM30 20C29.4477 20 29 20.4477 29 21V32.5C29 33.0523 29.4477 33.5 30 33.5C30.5523 33.5 31 33.0523 31 32.5V21C31 20.4477 30.5523 20 30 20ZM30 35C29.4477 35 29 35.4477 29 36V37C29 37.5523 29.4477 38 30 38C30.5523 38 31 37.5523 31 37V36C31 35.4477 30.5523 35 30 35Z" fill="#FC9D03"/>
</g>
</g>
</svg>
