<?xml version="1.0" encoding="UTF-8"?>
<svg width="24px" height="24px" viewBox="0 0 24 24" version="1.1" xmlns="http://www.w3.org/2000/svg" xmlns:xlink="http://www.w3.org/1999/xlink">
    <!-- Generator: Sketch 60.1 (88133) - https://sketch.com -->
    <title>Alert and Notification/warning/warning-filled_24</title>
    <desc>Created with Sketch.</desc>
    <g id="Alert-and-Notification/warning/warning-filled_24" stroke="none" stroke-width="1" fill="none" fill-rule="evenodd">
        <path d="M23.6446821,18.201 C24.1086821,18.979 24.1186821,19.917 23.6736821,20.707 C23.2176821,21.516 22.3866821,22 21.4506821,22 L2.54968212,22 C1.61368212,22 0.781682122,21.517 0.325682122,20.708 C-0.119317878,19.918 -0.107317878,18.981 0.355682122,18.2 L9.80468212,3.243 C10.2676821,2.464 11.0886821,2 11.9996821,2 C12.9116821,2 13.7326821,2.464 14.1946821,3.242 C14.1956821,3.242 14.1956821,3.243 14.1956821,3.243 L23.6446821,18.201 Z M12.5,18.5 L12.5,18 C12.5,17.7238576 12.2761424,17.5 12,17.5 C11.7238576,17.5 11.5,17.7238576 11.5,18 L11.5,18.5 C11.5,18.7761424 11.7238576,19 12,19 C12.2761424,19 12.5,18.7761424 12.5,18.5 Z M11.5,7.5 L11.500107,15.5 C11.5001107,15.7761491 11.7239713,16 12.0001137,16 C12.2762561,16 12.500107,15.7761357 12.500107,15.5 L12.5,7.5 C12.5,7.22385094 12.2761357,7 12,7 C11.7238509,7 11.5,7.22386431 11.5,7.5 Z" id="warning-filled_24" fill="#00090D"></path>
    </g>
</svg>