<?xml version="1.0" encoding="UTF-8"?>
<svg width="16px" height="16px" viewBox="0 0 16 16" version="1.1" xmlns="http://www.w3.org/2000/svg" xmlns:xlink="http://www.w3.org/1999/xlink">
    <!-- Generator: Sketch 60.1 (88133) - https://sketch.com -->
    <title>Networking / wireless / wifi-6_16</title>
    <desc>Created with Sketch.</desc>
    <g id="Networking-/-wireless-/-wifi-6_16" stroke="none" stroke-width="1" fill="none" fill-rule="evenodd">
        <path d="M8,14.9998 C8.275,14.9998 8.5,15.2248 8.5,15.4998 C8.5,15.7748 8.275,15.9998 8,15.9998 C7.725,15.9998 7.5,15.7748 7.5,15.4998 C7.5,15.2248 7.725,14.9998 8,14.9998 Z M10.8020354,12.0008 C11.0170354,12.1738 11.0520354,12.4878 10.8800354,12.7038 C10.7800354,12.8268 10.6350354,12.8918 10.4890354,12.8918 C10.3790354,12.8918 10.2680354,12.8548 10.1770354,12.7818 C8.89903538,11.7588 7.10003538,11.7588 5.82303538,12.7818 C5.61003538,12.9528 5.29503538,12.9198 5.12003538,12.7038 C4.94803538,12.4878 4.98203538,12.1738 5.19803538,12.0008 C6.83303538,10.6908 9.16703538,10.6908 10.8020354,12.0008 Z M11,0 C13.7614237,0 16,2.23857625 16,5 C16,7.76142375 13.7614237,10 11,10 C8.23857625,10 6,7.76142375 6,5 C6,2.23857625 8.23857625,0 11,0 Z M5.48900065,7.3751616 C5.62555785,7.69243806 5.78768574,7.99315691 5.97323562,8.27718569 L5.8144118,8.32191279 C4.9149721,8.59578437 4.07139788,9.041425 3.31483538,9.6478 C3.10283538,9.8208 2.78583538,9.7878 2.61283538,9.5708 C2.43983538,9.3558 2.47483538,9.0408 2.68983538,8.8678 C3.5376886,8.18795969 4.48210821,7.6863958 5.48900065,7.3751616 Z M11.1273973,2 C10.009589,2 8.8260274,2.60821918 8.8260274,5.1890411 C8.8260274,7.03835616 9.67260274,8 11.0452055,8 C12.3520548,8 13.1739726,7.08767123 13.1739726,5.87123288 C13.1739726,4.64657534 12.4671233,3.94794521 11.390411,3.94794521 C10.8315068,3.94794521 10.3794521,4.23561644 10.1246575,4.5890411 C10.239726,3.22465753 10.6589041,2.8630137 11.1191781,2.8630137 C11.4232877,2.8630137 11.6205479,2.99452055 11.7109589,3.25753425 L13.1,3.25753425 C12.8452055,2.46027397 12.1465753,2 11.1273973,2 Z M11.069863,4.85205479 C11.5958904,4.85205479 11.8835616,5.21369863 11.8835616,5.95342466 C11.8835616,6.61917808 11.530137,7.09589041 11.0123288,7.09589041 C10.3547945,7.09589041 10.1821918,6.3890411 10.1821918,5.97808219 C10.1821918,5.36164384 10.4945205,4.85205479 11.069863,4.85205479 Z M5.24220718,3.30954808 C5.1399745,3.65607345 5.06913378,4.01388853 5.03148724,4.38153457 L4.70880185,4.47309038 C3.30376395,4.89032653 1.98833538,5.57914286 0.812335379,6.522 C0.599335379,6.694 0.283335379,6.661 0.110335379,6.445 C-0.0626646212,6.229 -0.0286646212,5.915 0.187335379,5.742 C1.66727144,4.55536646 3.40352661,3.72640844 5.24220718,3.30954808 Z" id="wifi-6_16" fill="#00090D"></path>
    </g>
</svg>