<?xml version="1.0" encoding="UTF-8"?>
<svg width="16px" height="16px" viewBox="0 0 16 16" version="1.1" xmlns="http://www.w3.org/2000/svg" xmlns:xlink="http://www.w3.org/1999/xlink">
    <!-- Generator: Sketch 60.1 (88133) - https://sketch.com -->
    <title>Networking / wired / wired-disconnect_16</title>
    <desc>Created with Sketch.</desc>
    <g id="Networking-/-wired-/-wired-disconnect_16" stroke="none" stroke-width="1" fill="none" fill-rule="evenodd">
        <path d="M6.02928932,12.092031 L11.8292893,6.29203102 C11.8683418,6.25297859 11.9316582,6.25297859 11.9707107,6.29203102 C11.9894643,6.31078466 12,6.33622005 12,6.3627417 L12,9.75 L12,9.75 C12,10.8973925 11.1275176,11.8441898 10,11.9825924 L10,15.5 C10,15.7761424 9.77614237,16 9.5,16 L6.5,16 C6.22385763,16 6,15.7761424 6,15.5 L6,12.1627417 C6,12.13622 6.01053568,12.1107847 6.02928932,12.092031 Z M4,9.75 C4,9.75 4,9.75 4,9.75 L4,5.25 C4,4.5830254 4.29481616,3.98383289 4.76316777,3.57180819 C4.29839727,3.20558258 4,2.6376385 4,2 L4,1 L4,0.5 C4,0.223857625 4.22385763,5.07265314e-17 4.5,2.58493941e-26 L11.5,2.58493941e-26 C11.7761424,-5.07265313e-17 12,0.223857625 12,0.5 L12,1 L12,1 L12,1.8372583 C12,1.86377995 11.9894643,1.88921534 11.9707107,1.90796898 L4.09100143,9.78767823 C4.0702044,9.80852921 4.03644201,9.80852921 4.01561801,9.7877052 C4.00561796,9.77770516 4,9.76414219 4,9.75 Z M5,2 C5,2.55228475 5.44771525,3 6,3 L10,3 C10.5522847,3 11,2.55228475 11,2 L5,2 Z M15.1464466,0.146446609 C15.3417088,-0.0488155365 15.6582912,-0.0488155365 15.8535534,0.146446609 C16.0488155,0.341708755 16.0488155,0.658291245 15.8535534,0.853553391 L0.853553391,15.8535534 C0.658291245,16.0488155 0.341708755,16.0488155 0.146446609,15.8535534 C-0.0488155365,15.6582912 -0.0488155365,15.3417088 0.146446609,15.1464466 L15.1464466,0.146446609 Z" id="wired-client_16" fill="#9E9EA2"></path>
    </g>
</svg>