<?xml version="1.0" encoding="UTF-8"?>
<svg width="24px" height="24px" viewBox="0 0 24 24" version="1.1" xmlns="http://www.w3.org/2000/svg" xmlns:xlink="http://www.w3.org/1999/xlink">
    <!-- Generator: Sketch 60.1 (88133) - https://sketch.com -->
    <title>Networking/wireless/wireless_24</title>
    <desc>Created with Sketch.</desc>
    <g id="Networking/wireless/wireless_24" stroke="none" stroke-width="1" fill="none" fill-rule="evenodd">
        <path d="M11.5,20.0004 C11.5,19.7254 11.725,19.5004 12,19.5004 C12.275,19.5004 12.5,19.7254 12.5,20.0004 C12.5,20.2754 12.275,20.5004 12,20.5004 C11.725,20.5004 11.5,20.2754 11.5,20.0004 Z M7.1529,15.4564 C8.4649,14.1944 10.1869,13.5004 11.9999,13.5004 C13.8149,13.5004 15.5359,14.1914 16.8449,15.4484 C17.0439,15.6394 17.0499,15.9554 16.8589,16.1544 C16.6679,16.3544 16.3519,16.3624 16.1519,16.1694 C15.0299,15.0934 13.5559,14.5004 11.9999,14.5004 C10.4459,14.5004 8.9709,15.0964 7.8469,16.1774 C7.7499,16.2714 7.6249,16.3164 7.4999,16.3164 C7.3689,16.3164 7.2379,16.2654 7.1399,16.1634 C6.9479,15.9644 6.9549,15.6474 7.1529,15.4564 L7.1529,15.4564 Z M23.8485,8.31 C24.0465,8.502 24.0505,8.819 23.8585,9.017 C23.6665,9.214 23.3485,9.22 23.1515,9.027 C20.1485,6.108 16.1885,4.5 11.9995,4.5 C7.8115,4.5 3.8515,6.108 0.8485,9.027 C0.7515,9.122 0.6255,9.168 0.4995,9.168 C0.3695,9.168 0.2395,9.118 0.1415,9.017 C-0.0505,8.819 -0.0465,8.502 0.1515,8.31 C3.3425,5.208 7.5505,3.5 11.9995,3.5 C16.4505,3.5 20.6585,5.208 23.8485,8.31 L23.8485,8.31 Z M11.9999,8.5004 C15.2059,8.5004 18.2189,9.7484 20.4849,12.0154 C20.6809,12.2104 20.6809,12.5264 20.4849,12.7224 C20.3879,12.8194 20.2599,12.8684 20.1319,12.8684 C20.0039,12.8684 19.8759,12.8194 19.7779,12.7224 C17.7009,10.6454 14.9379,9.5004 11.9999,9.5004 C9.0619,9.5004 6.2989,10.6454 4.2219,12.7224 C4.0259,12.9174 3.7099,12.9174 3.5149,12.7224 C3.3189,12.5264 3.3189,12.2104 3.5149,12.0154 C5.7809,9.7484 8.7939,8.5004 11.9999,8.5004 Z" id="wireless_24" fill="#00090D"></path>
    </g>
</svg>