<?xml version="1.0" encoding="UTF-8"?>
<svg width="16px" height="16px" viewBox="0 0 16 16" version="1.1" xmlns="http://www.w3.org/2000/svg" xmlns:xlink="http://www.w3.org/1999/xlink">
    <!-- Generator: Sketch 60.1 (88133) - https://sketch.com -->
    <title>Networking / wireless / wireless-health_16</title>
    <desc>Created with Sketch.</desc>
    <g id="Networking-/-wireless-/-wireless-health_16" stroke="none" stroke-width="1" fill="none" fill-rule="evenodd">
        <path d="M9.54497,6.13869 C9.59884,6.14853 9.64577,6.1808 9.67629,6.22627 C10.3942,7.29598 11.6149,8 13,8 C13.0983,8 13.1958,7.99645 13.2923,7.98948 C13.366,7.98416 13.4409,8.01643 13.4663,8.08587 C13.5244,8.24489 13.5006,8.42946 13.3868,8.5708 C13.2878,8.6938 13.1438,8.7578 12.9968,8.7578 C12.8868,8.7578 12.7758,8.7218 12.6848,8.6478 C11.3398,7.5698 9.71984,6.9998 7.99984,6.9998 C6.27984,6.9998 4.65984,7.5698 3.31484,8.6478 C3.10284,8.8208 2.78584,8.7878 2.61284,8.5708 C2.43984,8.3558 2.47484,8.0408 2.68984,7.8678 C4.21384,6.6458 6.04984,5.9998 7.99984,5.9998 C8.52442,5.9998 9.04074,6.04655 9.54497,6.13869 Z M9.15748,2.88494 C9.12984,2.98037 9.0396,3.04504 8.94056,3.03717 C8.62973,3.01244 8.31617,3 8.00034,3 C5.35534,3 2.87034,3.872 0.812335,5.522 C0.599335,5.694 0.283335,5.661 0.110335,5.445 C-0.0626646,5.229 -0.0286646,4.915 0.187335,4.742 C2.39234,2.974 5.16634,2 8.00034,2 C8.39915,2 8.79679,2.0193 9.19184,2.0574 C9.33255,2.07098 9.41192,2.22436 9.35366,2.35316 C9.27623,2.52434 9.2105,2.70194 9.15748,2.88494 Z M7.5,14.4998 C7.5,14.2248 7.725,13.9998 8,13.9998 C8.275,13.9998 8.5,14.2248 8.5,14.4998 C8.5,14.7748 8.275,14.9998 8,14.9998 C7.725,14.9998 7.5,14.7748 7.5,14.4998 Z M5.19804,11.0008 C6.83304,9.6908 9.16704,9.6908 10.802,11.0008 C11.017,11.1738 11.052,11.4878 10.88,11.7038 C10.78,11.8268 10.635,11.8918 10.489,11.8918 C10.379,11.8918 10.268,11.8548 10.177,11.7818 C8.89904,10.7588 7.10004,10.7588 5.82304,11.7818 C5.61004,11.9528 5.29504,11.9198 5.12004,11.7038 C4.94804,11.4878 4.98204,11.1738 5.19804,11.0008 Z" id="wireless-health_16" fill="#00090D"></path>
        <path d="M13,7 C14.6569,7 16,5.65685 16,4 C16,2.34315 14.6569,1 13,1 C11.3431,1 10,2.34315 10,4 C10,5.65685 11.3431,7 13,7 Z" id="secondary-color" fill="#FFA000"></path>
    </g>
</svg>