<?xml version="1.0" encoding="UTF-8"?>
<svg width="16px" height="16px" viewBox="0 0 16 16" version="1.1" xmlns="http://www.w3.org/2000/svg" xmlns:xlink="http://www.w3.org/1999/xlink">
    <!-- Generator: Sketch 60.1 (88133) - https://sketch.com -->
    <title>Networking / wired / wired_16</title>
    <desc>Created with Sketch.</desc>
    <g id="Networking-/-wired-/-wired_16" stroke="none" stroke-width="1" fill="none" fill-rule="evenodd">
        <path d="M5,2 C5,2.55228475 5.44771525,3 6,3 L10,3 C10.5522847,3 11,2.55228475 11,2 L5,2 Z M10,11.9825924 L10,15.5 C10,15.7761424 9.77614237,16 9.5,16 L6.5,16 C6.22385763,16 6,15.7761424 6,15.5 L6,11.9825924 L6,11.9825924 C4.87248241,11.8441898 4,10.8973925 4,9.75 L4,5.25 C4,4.5830254 4.29481616,3.98383289 4.76316777,3.57180819 C4.29839727,3.20558258 4,2.6376385 4,2 L4,1 L4,0.5 C4,0.223857625 4.22385763,5.07265313e-17 4.5,0 L11.5,0 C11.7761424,-5.07265313e-17 12,0.223857625 12,0.5 L12,1 L12,1 L12,2 C12,2.6376385 11.7016027,3.20558258 11.2368322,3.57180819 C11.7051838,3.98383289 12,4.5830254 12,5.25 L12,9.75 C12,10.8973925 11.1275176,11.8441898 10,11.9825924 Z" id="wired_16" fill="#00090D"></path>
    </g>
</svg>