<?xml version="1.0" encoding="UTF-8"?>
<svg width="16px" height="16px" viewBox="0 0 16 16" version="1.1" xmlns="http://www.w3.org/2000/svg" xmlns:xlink="http://www.w3.org/1999/xlink">
    <!-- Generator: Sketch 60.1 (88133) - https://sketch.com -->
    <title>Networking / wireless / wireless_16</title>
    <desc>Created with Sketch.</desc>
    <g id="Networking-/-wireless-/-wireless_16" stroke="none" stroke-width="1" fill="none" fill-rule="evenodd">
        <path d="M7.5,14.4998 C7.5,14.2248 7.725,13.9998 8,13.9998 C8.275,13.9998 8.5,14.2248 8.5,14.4998 C8.5,14.7748 8.275,14.9998 8,14.9998 C7.725,14.9998 7.5,14.7748 7.5,14.4998 Z M7.99983538,5.9998 C9.94983538,5.9998 11.7858354,6.6458 13.3098354,7.8678 C13.5248354,8.0408 13.5598354,8.3558 13.3868354,8.5708 C13.2878354,8.6938 13.1438354,8.7578 12.9968354,8.7578 C12.8868354,8.7578 12.7758354,8.7218 12.6848354,8.6478 C11.3398354,7.5698 9.71983538,6.9998 7.99983538,6.9998 C6.27983538,6.9998 4.65983538,7.5698 3.31483538,8.6478 C3.10283538,8.8208 2.78583538,8.7878 2.61283538,8.5708 C2.43983538,8.3558 2.47483538,8.0408 2.68983538,7.8678 C4.21383538,6.6458 6.04983538,5.9998 7.99983538,5.9998 L7.99983538,5.9998 Z M15.8123354,4.742 C16.0283354,4.915 16.0623354,5.229 15.8893354,5.445 C15.7913354,5.568 15.6463354,5.632 15.5003354,5.632 C15.3893354,5.632 15.2793354,5.596 15.1873354,5.522 C13.1293354,3.872 10.6443354,3 8.00033538,3 C5.35533538,3 2.87033538,3.872 0.812335379,5.522 C0.599335379,5.694 0.283335379,5.661 0.110335379,5.445 C-0.0626646212,5.229 -0.0286646212,4.915 0.187335379,4.742 C2.39233538,2.974 5.16633538,2 8.00033538,2 C10.8333354,2 13.6073354,2.974 15.8123354,4.742 Z M5.19803538,11.0008 C6.83303538,9.6908 9.16703538,9.6908 10.8020354,11.0008 C11.0170354,11.1738 11.0520354,11.4878 10.8800354,11.7038 C10.7800354,11.8268 10.6350354,11.8918 10.4890354,11.8918 C10.3790354,11.8918 10.2680354,11.8548 10.1770354,11.7818 C8.89903538,10.7588 7.10003538,10.7588 5.82303538,11.7818 C5.61003538,11.9528 5.29503538,11.9198 5.12003538,11.7038 C4.94803538,11.4878 4.98203538,11.1738 5.19803538,11.0008 L5.19803538,11.0008 Z" id="wireless_16" fill="#00090D"></path>
    </g>
</svg>