<?xml version="1.0" encoding="UTF-8"?>
<svg width="16px" height="16px" viewBox="0 0 16 16" version="1.1" xmlns="http://www.w3.org/2000/svg" xmlns:xlink="http://www.w3.org/1999/xlink">
    <!-- Generator: Sketch 60.1 (88133) - https://sketch.com -->
    <title>Networking / wireless / wireless-client-disconnect_16</title>
    <desc>Created with Sketch.</desc>
    <g id="Networking-/-wireless-/-wireless-client-disconnect_16" stroke="none" stroke-width="1" fill="none" fill-rule="evenodd">
        <path d="M11.3133,6.80801 C11.3717,6.74965 11.46,6.73292 11.535,6.76745 C12.1614,7.05599 12.7562,7.42389 13.3098,7.8678 C13.5248,8.0408 13.5598,8.3558 13.3868,8.5708 C13.2878,8.6938 13.1438,8.7578 12.9968,8.7578 C12.8868,8.7578 12.7758,8.7218 12.6848,8.6478 C12.1411,8.21204 11.5525,7.85929 10.9305,7.59364 C10.797,7.53661 10.7596,7.36177 10.8622,7.25908 L11.3133,6.80801 Z M6.8269,7.05178 C6.79723,7.08145 6.75894,7.10096 6.71758,7.10805 C5.47846,7.3204 4.31987,7.84228 3.31484,8.6478 C3.10284,8.8208 2.78584,8.7878 2.61284,8.5708 C2.43984,8.3558 2.47484,8.0408 2.68984,7.8678 C4.05288,6.77486 5.6655,6.14268 7.38604,6.02133 C7.56511,6.00871 7.65676,6.22192 7.52983,6.34885 L6.8269,7.05178 Z M13.8728,4.60776 C13.7594,4.53996 13.7381,4.38319 13.8316,4.28975 L14.2642,3.85716 C14.3287,3.79258 14.4289,3.77981 14.5069,3.82729 C14.96,4.10313 15.3963,4.40843 15.8123,4.742 C16.0283,4.915 16.0623,5.229 15.8893,5.445 C15.7913,5.568 15.6463,5.632 15.5003,5.632 C15.3893,5.632 15.2793,5.596 15.1873,5.522 C14.7663,5.18442 14.3274,4.87941 13.8728,4.60776 Z M10.6678,3.21088 C10.6191,3.25953 10.5489,3.27963 10.4817,3.26497 C9.67675,3.08935 8.84669,3 8.00034,3 C5.35534,3 2.87034,3.872 0.812335,5.522 C0.599335,5.694 0.283335,5.661 0.110335,5.445 C-0.0626646,5.229 -0.0286646,4.915 0.187335,4.742 C2.39234,2.974 5.16634,2 8.00034,2 C9.04173,2 10.0752,2.13161 11.0753,2.3859 C11.2233,2.42352 11.2714,2.60732 11.1634,2.71529 L10.6678,3.21088 Z M8.04141,10.0799 C8.08003,10.0413 8.13276,10.0199 8.18733,10.0222 C9.11648,10.0608 10.036,10.387 10.802,11.0008 C11.017,11.1738 11.052,11.4878 10.88,11.7038 C10.78,11.8268 10.635,11.8918 10.489,11.8918 C10.379,11.8918 10.268,11.8548 10.177,11.7818 C9.46894,11.215 8.60091,10.9622 7.75034,11.0235 C7.54108,11.0386 7.37699,10.7443 7.52534,10.596 L8.04141,10.0799 Z M7.5,14.4998 C7.5,14.2248 7.725,13.9998 8,13.9998 C8.275,13.9998 8.5,14.2248 8.5,14.4998 C8.5,14.7748 8.275,14.9998 8,14.9998 C7.725,14.9998 7.5,14.7748 7.5,14.4998 Z M15.1464,0.146447 C15.3417,-0.0488155 15.6583,-0.0488155 15.8536,0.146447 C16.0488,0.341709 16.0488,0.658291 15.8536,0.853553 L0.853553,15.8536 C0.658291,16.0488 0.341709,16.0488 0.146447,15.8536 C-0.0488155,15.6583 -0.0488155,15.3417 0.146447,15.1464 L15.1464,0.146447 Z" id="wireless-disconnect_16" fill="#9E9EA2"></path>
    </g>
</svg>