<?xml version="1.0" encoding="UTF-8"?>
<svg width="16px" height="16px" viewBox="0 0 16 16" version="1.1" xmlns="http://www.w3.org/2000/svg" xmlns:xlink="http://www.w3.org/1999/xlink">
    <!-- Generator: Sketch 60.1 (88133) - https://sketch.com -->
    <title>Networking / wired / wired-health_16</title>
    <desc>Created with Sketch.</desc>
    <g id="Networking-/-wired-/-wired-health_16" stroke="none" stroke-width="1" fill="none" fill-rule="evenodd">
        <path d="M9.12601749,3 C9.043753,3.31961992 9,3.65470043 9,4 C9,5.86383943 10.2747728,7.42993972 12,7.87398251 L12,9.75 C12,10.8973925 11.1275176,11.8441898 10,11.9825924 L10,15.5 C10,15.7761424 9.77614237,16 9.5,16 L6.5,16 C6.22385763,16 6,15.7761424 6,15.5 L6,11.9825924 L6,11.9825924 C4.87248241,11.8441898 4,10.8973925 4,9.75 L4,5.25 C4,4.5830254 4.29481616,3.98383289 4.76316777,3.57180819 C4.29839727,3.20558258 4,2.6376385 4,2 L4,1 L4,0.5 C4,0.223857625 4.22385763,5.07265313e-17 4.5,0 L11.8739825,0 C11.9435801,-2.07073889e-16 12,0.0564199498 12,0.126017485 L12,0.126017485 L12,0.126017485 C10.9491636,0.39648408 10.0654472,1.08323756 9.53512878,2 L5,2 C5,2.55228475 5.44771525,3 6,3 L9.12601749,3 Z" id="wired-health_16" fill="#00090D"></path>
        <circle id="secondary-color" fill="#FFA000" cx="13" cy="4" r="3"></circle>
    </g>
</svg>