<?xml version="1.0" encoding="UTF-8"?>
<svg width="24px" height="24px" viewBox="0 0 24 24" version="1.1" xmlns="http://www.w3.org/2000/svg" xmlns:xlink="http://www.w3.org/1999/xlink">
    <!-- Generator: Sketch 60.1 (88133) - https://sketch.com -->
    <title>Topology / WLC / WLC-topology_24</title>
    <desc>Created with Sketch.</desc>
    <g id="Topology-/-WLC-/-WLC-topology_24" stroke="none" stroke-width="1" fill="none" fill-rule="evenodd">
        <path d="M3.5,1 L20.5,1 C21.8807119,1 23,2.11928813 23,3.5 L23,20.5 C23,21.8807119 21.8807119,23 20.5,23 L3.5,23 C2.11928813,23 1,21.8807119 1,20.5 L1,3.5 C1,2.11928813 2.11928813,1 3.5,1 Z" id="secondary-color" fill="#FFA000"></path>
        <path d="M12.1099811,13.0266648 C12.1585704,13.0508781 12.1979576,13.0902498 12.22219,13.1388296 L14.2078835,17.1196414 C14.2695137,17.2431944 14.2193154,17.3933152 14.0957623,17.4549455 C14.0319618,17.4867702 13.9576087,17.4898402 13.8914018,17.4633834 L12.4983675,16.9067167 L12.4983675,19.5 C12.4983675,19.7761424 12.2745098,20 11.9983675,20 C11.7222251,20 11.4983675,19.7761424 11.4983675,19.5 L11.4983675,16.9069131 L10.1076582,17.4631968 C9.97946235,17.5144751 9.83396974,17.4521211 9.78269139,17.3239253 C9.75621394,17.2577317 9.75925657,17.1833826 9.79105418,17.1195739 L11.774721,13.1389174 C11.8363028,13.0153402 11.9864038,12.9650829 12.1099811,13.0266648 Z M14.4129177,12.1243125 L18.8127547,12.7810274 C18.9493131,12.8014099 19.0434923,12.9286357 19.0231097,13.0651942 C19.0125845,13.1357104 18.9724521,13.1983778 18.9128053,13.2374364 L17.657799,14.0592523 L19.7820923,15.5466985 C20.0082949,15.7050873 20.0632688,16.0168602 19.9048801,16.2430628 C19.7464913,16.4692653 19.4347184,16.5242393 19.2085158,16.3658506 L17.0843834,14.878517 L16.7423863,16.3367905 C16.7108609,16.4712145 16.5763324,16.5546303 16.4419084,16.5231049 C16.3724989,16.5068269 16.313341,16.4616897 16.2793102,16.3990434 L14.1563319,12.4909079 C14.0904252,12.3695821 14.1353513,12.2178001 14.2566772,12.1518935 C14.3043813,12.1259796 14.3592243,12.1162982 14.4129177,12.1243125 Z M9.76063852,12.1518935 C9.88196438,12.2178001 9.92689052,12.3695821 9.86098385,12.4909079 L7.73800549,16.3990434 C7.70397476,16.4616897 7.64481679,16.5068269 7.57540732,16.5231049 C7.44098335,16.5546303 7.30645483,16.4712145 7.27492946,16.3367905 L6.93293234,14.878517 L4.80879989,16.3658506 C4.5825973,16.5242393 4.2708244,16.4692653 4.11243565,16.2430628 C3.95404689,16.0168602 4.00902086,15.7050873 4.23522345,15.5466985 L6.35951674,14.0592523 L5.10451043,13.2374364 C5.04486359,13.1983778 5.00473117,13.1357104 4.994206,13.0651942 C4.97382344,12.9286357 5.06800258,12.8014099 5.20456101,12.7810274 L9.60439806,12.1243125 C9.65809144,12.1162982 9.71293443,12.1259796 9.76063852,12.1518935 Z M12.1099811,4.02666476 C12.1585704,4.0508781 12.1979576,4.09024984 12.22219,4.13882964 L14.2078835,8.11964135 C14.2695137,8.24319442 14.2193154,8.39331519 14.0957623,8.45494547 C14.0319618,8.48677019 13.9576087,8.4898402 13.8914018,8.46338343 L12.4983675,7.90671673 L12.4983675,10.5 C12.4983675,10.7761424 12.2745098,11 11.9983675,11 C11.7222251,11 11.4983675,10.7761424 11.4983675,10.5 L11.4983675,7.90691307 L10.1076582,8.46319677 C9.97946235,8.51447512 9.83396974,8.45212114 9.78269139,8.32392526 C9.75621394,8.25773165 9.75925657,8.18338264 9.79105418,8.11957385 L11.774721,4.13891739 C11.8363028,4.01534016 11.9864038,3.96508294 12.1099811,4.02666476 Z" id="WLC-topology_24" fill="#00090D"></path>
    </g>
</svg>