<?xml version="1.0" encoding="UTF-8"?>
<svg width="30px" height="30px" viewBox="0 0 30 30" version="1.1" xmlns="http://www.w3.org/2000/svg" xmlns:xlink="http://www.w3.org/1999/xlink">
    <!-- Generator: Sketch 60.1 (88133) - https://sketch.com -->
    <title>Networking / WLC / WLC-square_30</title>
    <desc>Created with Sketch.</desc>
    <g id="Networking-/-WLC-/-WLC-square_30" stroke="none" stroke-width="1" fill="none" fill-rule="evenodd">
        <path d="M26,1 C27.6568542,1 29,2.34314575 29,4 L29,26 C29,27.6568542 27.6568542,29 26,29 L4,29 C2.34314575,29 1,27.6568542 1,26 L1,4 C1,2.34314575 2.34314575,1 4,1 L26,1 Z M26,2 L4,2 C2.8954305,2 2,2.8954305 2,4 L2,26 C2,27.1045695 2.8954305,28 4,28 L26,28 C27.1045695,28 28,27.1045695 28,26 L28,4 C28,2.8954305 27.1045695,2 26,2 Z M15.1451706,16.0262986 C15.1937599,16.050512 15.2331471,16.0898837 15.2573795,16.1384635 L18.243073,22.1192752 C18.3047032,22.2428283 18.2545049,22.3929491 18.1309518,22.4545794 C18.0671513,22.4864041 17.9927982,22.4894741 17.9265913,22.4630173 L15.533557,21.5 L15.533557,25.4996339 C15.533557,25.7757763 15.3096993,25.9996339 15.033557,25.9996339 C14.7574146,25.9996339 14.533557,25.7757763 14.533557,25.4996339 L14.533557,21.5 L12.1428477,22.4628307 C12.0146519,22.514109 11.8691593,22.451755 11.8178809,22.3235591 C11.7914035,22.2573655 11.7944461,22.1830165 11.8262437,22.1192077 L14.8099105,16.1385513 C14.8714923,16.014974 15.0215933,15.9647168 15.1451706,16.0262986 Z M12.368389,14.7552877 C12.3764243,14.8089779 12.3667644,14.8638247 12.3408693,14.9115389 L9.1541986,20.7877285 C9.08833948,20.9090802 8.93657518,20.9540659 8.81522346,20.8882068 C8.75255972,20.8541984 8.70739772,20.7950528 8.69109512,20.7256443 L8.10736464,18.2130213 L4.83105637,20.507117 C4.60485376,20.6655058 4.29308084,20.6105318 4.13469213,20.3843292 C3.97630335,20.1581266 4.03127732,19.8463538 4.25747993,19.687965 L7.53378821,17.3938692 L5.37382898,15.9877718 C5.2582941,15.912172 5.22592036,15.7572266 5.30152022,15.6416917 C5.34055601,15.5820356 5.40320434,15.5418831 5.4737118,15.531331 L12.0841397,14.5450441 C12.2206902,14.524608 12.3479529,14.6187372 12.368389,14.7552877 Z M17.6391491,14.6015184 L24.2812051,15.3548887 C24.4183917,15.370493 24.5169536,15.4943545 24.5013492,15.6315411 C24.4932915,15.7023817 24.4553706,15.7664115 24.3971232,15.8075279 L22.286129,17.2899985 L25.6405043,19.4683553 C25.8720968,19.6187532 25.9379179,19.9284176 25.78752,20.1600101 C25.6371221,20.3916026 25.3274577,20.4574237 25.0958652,20.3070258 L21.74149,18.1286691 L21.2469141,20.6580818 C21.2200993,20.793524 21.0885639,20.881584 20.9531216,20.8547692 C20.8831863,20.8409234 20.8224891,20.7978783 20.7862928,20.7364578 L17.3955137,14.9768453 C17.3254129,14.8578934 17.3650145,14.7046361 17.4839664,14.6345353 C17.5307371,14.6069724 17.5852088,14.5953829 17.6391491,14.6015184 Z M15.1451706,4.02629865 C15.1937599,4.05051199 15.2331471,4.08988373 15.2573795,4.13846353 L18.243073,10.1192752 C18.3047032,10.2428283 18.2545049,10.3929491 18.1309518,10.4545794 C18.0671513,10.4864041 17.9927982,10.4894741 17.9265913,10.4630173 L15.533557,9.5 L15.533557,13.4996339 C15.533557,13.7757763 15.3096993,13.9996339 15.033557,13.9996339 C14.7574146,13.9996339 14.533557,13.7757763 14.533557,13.4996339 L14.533557,9.5 L12.1428477,10.4628307 C12.0146519,10.514109 11.8691593,10.451755 11.8178809,10.3235591 C11.7914035,10.2573655 11.7944461,10.1830165 11.8262437,10.1192077 L14.8099105,4.13855128 C14.8714923,4.01497405 15.0215933,3.96471683 15.1451706,4.02629865 Z" id="WLC-square_30" fill="#00090D"></path>
    </g>
</svg>