<?xml version="1.0" encoding="UTF-8"?>
<svg width="16px" height="16px" viewBox="0 0 16 16" version="1.1" xmlns="http://www.w3.org/2000/svg" xmlns:xlink="http://www.w3.org/1999/xlink">
    <!-- Generator: Sketch 60.1 (88133) - https://sketch.com -->
    <title>Networking / WLC / WLC-disconnect_16</title>
    <desc>Created with Sketch.</desc>
    <g id="Networking-/-WLC-/-WLC-disconnect_16" stroke="none" stroke-width="1" fill="none" fill-rule="evenodd">
        <path d="M9.97971246,3.70598 C10.0181125,3.78295 10.0030125,3.87585 9.94221246,3.93668 L9.63860246,4.2403 C9.58204246,4.29686 9.49723246,4.31428 9.42296246,4.2846 L8.47640246,3.90635 L8.47640246,5.31972 C8.47640246,5.37276 8.45533246,5.42363 8.41782246,5.46114 L7.81782246,6.06116 C7.69183246,6.18716 7.47640246,6.09793 7.47640246,5.91975 L7.47640246,3.90655 L6.08569246,4.46283 C5.95749246,4.51411 5.81200246,4.45176 5.76072246,4.32356 C5.73424246,4.25737 5.73729246,4.18302 5.76908246,4.11921 L7.75275246,0.138551 C7.81433246,0.014974 7.96443246,-0.0352832 8.08801246,0.0262986 C8.13660246,0.050512 8.17599246,0.0898837 8.20022246,0.138464 L9.97971246,3.70598 Z M6.51594246,11.6205 C6.52557246,11.6012 6.53826246,11.5835 6.55352246,11.5683 L8.26440246,9.8573 C8.36099246,9.76071 8.52383246,9.78722 8.58480246,9.90945 L10.1859125,13.1193 C10.2475125,13.2428 10.1973125,13.3929 10.0738125,13.4546 C10.0100125,13.4864 9.93561246,13.4895 9.86943246,13.463 L8.47640246,12.9064 L8.47640246,15.4996 C8.47640246,15.7758 8.25254246,15.9996 7.97640246,15.9996 C7.70025246,15.9996 7.47640246,15.7758 7.47640246,15.4996 L7.47640246,12.9065 L6.08569246,13.4628 C5.95749246,13.5141 5.81200246,13.4518 5.76072246,13.3236 C5.73424246,13.2574 5.73729246,13.183 5.76908246,13.1192 L6.51594246,11.6205 Z M5.58243246,8.12395 C5.65648246,8.11289 5.67508246,8.20221 5.62129246,8.25428 L2.92236246,10.8671 C2.91477246,10.8745 2.90662246,10.8812 2.89796246,10.8873 L0.786831464,12.3655 C0.560628464,12.5239 0.248855464,12.4689 0.0904664642,12.2427 C-0.0679219358,12.0165 -0.0129475358,11.7047 0.213254464,11.5463 L2.33755246,10.0589 L1.08254246,9.23707 C1.02289246,9.19801 0.982762464,9.13534 0.972232464,9.06483 C0.951852464,8.92827 1.04603246,8.80104 1.18259246,8.78066 L5.58243246,8.12395 L5.58243246,8.12395 Z M13.0624125,10.8782 L12.7204125,12.3364 C12.6889125,12.4708 12.5544125,12.5543 12.4199125,12.5227 C12.3505125,12.5065 12.2914125,12.4613 12.2573125,12.3987 L10.1344125,8.49054 C10.0684125,8.36922 10.1134125,8.21743 10.2347125,8.15153 C10.2824125,8.12561 10.3372125,8.11593 10.3909125,8.12395 L14.7908125,8.78066 C14.9273125,8.80104 15.0215125,8.92827 15.0011125,9.06483 C14.9906125,9.13534 14.9505125,9.19801 14.8908125,9.23707 L13.6358125,10.0589 L15.7601125,11.5463 C15.9863125,11.7047 16.0413125,12.0165 15.8829125,12.2427 C15.7245125,12.4689 15.4127125,12.5239 15.1865125,12.3655 L13.0624125,10.8782 Z M15.1464125,0.146455 C15.3417125,-0.0488119 15.6583125,-0.0488192 15.8535125,0.146438 C16.0488125,0.341696 16.0488125,0.658278 15.8535125,0.853545 L0.856002464,15.8518 C0.660745464,16.0471 0.344162464,16.0471 0.148896464,15.8518 C-0.0463705358,15.6566 -0.0463778358,15.34 0.148879464,15.1447 L15.1464125,0.146455 Z" id="WLC-disconnect_16" fill="#9E9EA2"></path>
    </g>
</svg>