<?xml version="1.0" encoding="UTF-8"?>
<svg width="30px" height="30px" viewBox="0 0 30 30" version="1.1" xmlns="http://www.w3.org/2000/svg" xmlns:xlink="http://www.w3.org/1999/xlink">
    <!-- Generator: Sketch 60.1 (88133) - https://sketch.com -->
    <title>Networking / WLC / WLC_30</title>
    <desc>Created with Sketch.</desc>
    <g id="Networking-/-WLC-/-WLC_30" stroke="none" stroke-width="1" fill="none" fill-rule="evenodd">
        <path d="M15.1451706,18.0262986 C15.1937599,18.050512 15.2331471,18.0898837 15.2573795,18.1384635 L19.243073,25.1192752 C19.3047032,25.2428283 19.2545049,25.3929491 19.1309518,25.4545794 C19.0671513,25.4864041 18.9927982,25.4894741 18.9265913,25.4630173 L15.533557,23.9998169 L15.533557,28.4996339 C15.533557,28.7757763 15.3096993,28.9996339 15.033557,28.9996339 C14.7574146,28.9996339 14.533557,28.7757763 14.533557,28.4996339 L14.533557,23.9998169 L11.1428477,25.4628307 C11.0146519,25.514109 10.8691593,25.451755 10.8178809,25.3235591 C10.7914035,25.2573655 10.7944461,25.1830165 10.8262437,25.1192077 L14.8099105,18.1385513 C14.8714923,18.014974 15.0215933,17.9647168 15.1451706,18.0262986 Z M2.98846746,14.3700374 L10.9986611,15.0303128 C11.1366857,15.0338989 11.2456696,15.1486969 11.2420836,15.2867216 C11.2406736,15.3409915 11.2216364,15.3933276 11.1878492,15.4358203 L6.54551206,21.9983039 C6.459581,22.1063756 6.30231066,22.1243243 6.19423886,22.0383932 C6.13843261,21.9940201 6.10422726,21.9279307 6.10022499,21.8567458 L5.99237663,18.1632372 L1.91415749,20.064942 C1.66388748,20.1816448 1.36639724,20.0733671 1.24969447,19.8230972 C1.13299164,19.5728272 1.24126922,19.275337 1.49153923,19.1586342 L5.56975837,17.2569294 L2.81084197,14.8021994 C2.7101901,14.7076857 2.70521416,14.5494727 2.79972792,14.4488208 C2.84852985,14.3968495 2.91719881,14.3681858 2.98846746,14.3700374 Z M27.4809479,14.3700374 C27.5522165,14.3681858 27.6208855,14.3968495 27.6696874,14.4488208 C27.7642012,14.5494727 27.7592252,14.7076857 27.6585734,14.8021994 L27.6585734,14.8021994 L24.899657,17.2569294 L28.9778761,19.1586342 C29.2281461,19.275337 29.3364237,19.5728272 29.2197209,19.8230972 C29.1030181,20.0733671 28.8055278,20.1816448 28.5552578,20.064942 L28.5552578,20.064942 L24.4770387,18.1632372 L24.3691903,21.8567458 C24.3651881,21.9279307 24.3309827,21.9940201 24.2751765,22.0383932 C24.1671047,22.1243243 24.0098343,22.1063756 23.9239033,21.9983039 L23.9239033,21.9983039 L19.2815661,15.4358203 C19.2477789,15.3933276 19.2287417,15.3409915 19.2273317,15.2867216 C19.2237457,15.1486969 19.3327296,15.0338989 19.4707542,15.0303128 L19.4707542,15.0303128 Z M15.1451706,1.02629865 C15.1937599,1.05051199 15.2331471,1.08988373 15.2573795,1.13846353 L19.243073,8.11927524 C19.3047032,8.24282831 19.2545049,8.39294908 19.1309518,8.45457936 C19.0671513,8.48640408 18.9927982,8.48947409 18.9265913,8.46301732 L15.533557,6.99981694 L15.533557,11.4996339 C15.533557,11.7757763 15.3096993,11.9996339 15.033557,11.9996339 C14.7574146,11.9996339 14.533557,11.7757763 14.533557,11.4996339 L14.533557,6.99981694 L11.1428477,8.46283066 C11.0146519,8.51410901 10.8691593,8.45175503 10.8178809,8.32355915 C10.7914035,8.25736554 10.7944461,8.18301653 10.8262437,8.11920774 L14.8099105,1.13855128 C14.8714923,1.01497405 15.0215933,0.96471683 15.1451706,1.02629865 Z" id="WLC_30" fill="#00090D"></path>
    </g>
</svg>