<?xml version="1.0" encoding="UTF-8"?>
<svg width="16px" height="16px" viewBox="0 0 16 16" version="1.1" xmlns="http://www.w3.org/2000/svg" xmlns:xlink="http://www.w3.org/1999/xlink">
    <!-- Generator: Sketch 60.1 (88133) - https://sketch.com -->
    <title>Networking / WLC / WLC_16</title>
    <desc>Created with Sketch.</desc>
    <g id="Networking-/-WLC-/-WLC_16" stroke="none" stroke-width="1" fill="none" fill-rule="evenodd">
        <path d="M7.4983675,3.90691307 L6.1076582,4.46319677 C5.97946235,4.51447512 5.83396974,4.45212114 5.78269139,4.32392526 C5.75621394,4.25773165 5.75925657,4.18338264 5.79105418,4.11957385 L7.774721,0.13891739 C7.8363028,0.01534016 7.9864038,-0.03491706 8.1099811,0.02666476 C8.1585704,0.0508781 8.1979576,0.09024984 8.22219,0.13882964 L10.2078835,4.11964135 C10.2695137,4.24319442 10.2193154,4.39331519 10.0957623,4.45494547 C10.0319618,4.48677019 9.9576087,4.4898402 9.8914018,4.46338343 L8.4983675,3.90671673 L8.4983675,6.5 C8.4983675,6.7761424 8.2745098,7 7.9983675,7 C7.7222251,7 7.4983675,6.7761424 7.4983675,6.5 L7.4983675,3.90691307 Z M7.4983675,12.9069131 L6.1076582,13.4631968 C5.97946235,13.5144751 5.83396974,13.4521211 5.78269139,13.3239253 C5.75621394,13.2577317 5.75925657,13.1833826 5.79105418,13.1195739 L7.774721,9.1389174 C7.8363028,9.0153402 7.9864038,8.9650829 8.1099811,9.0266648 C8.1585704,9.0508781 8.1979576,9.0902498 8.22219,9.1388296 L10.2078835,13.1196414 C10.2695137,13.2431944 10.2193154,13.3933152 10.0957623,13.4549455 C10.0319618,13.4867702 9.9576087,13.4898402 9.8914018,13.4633834 L8.4983675,12.9067167 L8.4983675,15.5 C8.4983675,15.7761424 8.2745098,16 7.9983675,16 C7.7222251,16 7.4983675,15.7761424 7.4983675,15.5 L7.4983675,12.9069131 Z M13.0843834,10.878517 L12.7423863,12.3367905 C12.7108609,12.4712145 12.5763324,12.5546303 12.4419084,12.5231049 C12.3724989,12.5068269 12.313341,12.4616897 12.2793102,12.3990434 L10.1563319,8.4909079 C10.0904252,8.3695821 10.1353513,8.2178001 10.2566772,8.1518935 C10.3043813,8.1259796 10.3592243,8.1162982 10.4129177,8.1243125 L14.8127547,8.7810274 C14.9493131,8.8014099 15.0434923,8.9286357 15.0231097,9.0651942 C15.0125845,9.1357104 14.9724521,9.1983778 14.9128053,9.2374364 L13.657799,10.0592523 L15.7820923,11.5466985 C16.0082949,11.7050873 16.0632688,12.0168602 15.9048801,12.2430628 C15.7464913,12.4692653 15.4347184,12.5242393 15.2085158,12.3658506 L13.0843834,10.878517 Z M2.93293234,10.878517 L0.80879989,12.3658506 C0.5825973,12.5242393 0.2708244,12.4692653 0.11243565,12.2430628 C-0.04595311,12.0168602 0.00902086,11.7050873 0.23522345,11.5466985 L2.35951674,10.0592523 L1.10451043,9.2374364 C1.04486359,9.1983778 1.00473117,9.1357104 0.994206,9.0651942 C0.97382344,8.9286357 1.06800258,8.8014099 1.20456101,8.7810274 L5.60439806,8.1243125 C5.65809144,8.1162982 5.71293443,8.1259796 5.76063852,8.1518935 C5.88196438,8.2178001 5.92689052,8.3695821 5.86098385,8.4909079 L3.73800549,12.3990434 C3.70397476,12.4616897 3.64481679,12.5068269 3.57540732,12.5231049 C3.44098335,12.5546303 3.30645483,12.4712145 3.27492946,12.3367905 L2.93293234,10.878517 Z" id="WLC_16" fill="#00090D"></path>
    </g>
</svg>