<?xml version="1.0" encoding="UTF-8"?>
<svg width="24px" height="24px" viewBox="0 0 24 24" version="1.1" xmlns="http://www.w3.org/2000/svg" xmlns:xlink="http://www.w3.org/1999/xlink">
    <!-- Generator: Sketch 60.1 (88133) - https://sketch.com -->
    <title>Networking / WLC / WLC_24</title>
    <desc>Created with Sketch.</desc>
    <g id="Networking-/-WLC-/-WLC_24" stroke="none" stroke-width="1" fill="none" fill-rule="evenodd">
        <path d="M11.4983675,5.99262736 L9.21403483,7.29796029 C9.09415546,7.36646279 8.9414418,7.3248136 8.87293931,7.20493424 C8.83150998,7.13243292 8.82901398,7.04403381 8.86628633,6.96931029 L11.7747322,1.13846574 C11.8363612,1.01491204 11.9864815,0.96471217 12.1100352,1.02634119 C12.1585653,1.05054819 12.1979078,1.08987968 12.2221284,1.13840303 L15.132713,6.96944251 C15.1943767,7.09297892 15.1442189,7.24311325 15.0206825,7.3047769 C14.9459711,7.34206933 14.8575736,7.33959914 14.7850614,7.29819269 L12.4983675,5.99242696 L12.4983675,9.5 C12.4983675,9.7761424 12.2745098,10 11.9983675,10 C11.7222251,10 11.4983675,9.7761424 11.4983675,9.5 L11.4983675,5.99262736 Z M11.4983675,18.9926274 L9.21403483,20.2979603 C9.09415546,20.3664628 8.9414418,20.3248136 8.87293931,20.2049342 C8.83150998,20.1324329 8.82901398,20.0440338 8.86628633,19.9693103 L11.7747322,14.1384657 C11.8363612,14.014912 11.9864815,13.9647122 12.1100352,14.0263412 C12.1585653,14.0505482 12.1979078,14.0898797 12.2221284,14.138403 L15.132713,19.9694425 C15.1943767,20.0929789 15.1442189,20.2431132 15.0206825,20.3047769 C14.9459711,20.3420693 14.8575736,20.3395991 14.7850614,20.2981927 L12.4983675,18.992427 L12.4983675,22.5 C12.4983675,22.7761424 12.2745098,23 11.9983675,23 C11.7222251,23 11.4983675,22.7761424 11.4983675,22.5 L11.4983675,18.9926274 Z M19.6160744,15.8526409 L19.3751012,18.4725649 C19.3624551,18.6100557 19.2407452,18.7112624 19.1032543,18.6986164 C19.0201018,18.6909683 18.9462579,18.6423092 18.9064265,18.5689178 L15.7982943,12.8420234 C15.732434,12.7206724 15.7774181,12.5689076 15.8987691,12.5030473 C15.9464341,12.4771783 16.0012185,12.4675104 16.0548588,12.4755019 L22.5008095,13.4358375 C22.6373734,13.4561831 22.7315869,13.5833835 22.7112413,13.7199474 C22.6989368,13.8025374 22.6462105,13.8735316 22.5707011,13.9091803 L20.1894867,15.0333739 L23.0627223,17.0452351 C23.2889249,17.2036239 23.3438989,17.5153968 23.1855101,17.7415994 C23.0271213,17.967802 22.7153485,18.022776 22.4891459,17.8643872 L19.6160744,15.8526409 Z M4.38392561,15.8526409 L1.51085414,17.8643872 C1.28465155,18.022776 0.97287866,17.967802 0.8144899,17.7415994 C0.65610114,17.5153968 0.71107511,17.2036239 0.9372777,17.0452351 L3.81051333,15.0333739 L1.42929891,13.9091803 C1.35378946,13.8735316 1.30106323,13.8025374 1.28875875,13.7199474 C1.26841308,13.5833835 1.36262659,13.4561831 1.49919052,13.4358375 L7.94514116,12.4755019 C7.99878153,12.4675104 8.05356595,12.4771783 8.1012309,12.5030473 C8.22258193,12.5689076 8.26756605,12.7206724 8.20170574,12.8420234 L5.0935735,18.5689178 C5.05374212,18.6423092 4.97989816,18.6909683 4.89674567,18.6986164 C4.75925483,18.7112624 4.63754486,18.6100557 4.62489884,18.4725649 L4.38392561,15.8526409 Z" id="WLC_24" fill="#00090D"></path>
    </g>
</svg>