<?xml version="1.0" encoding="UTF-8"?>
<svg width="24px" height="24px" viewBox="0 0 24 24" version="1.1" xmlns="http://www.w3.org/2000/svg" xmlns:xlink="http://www.w3.org/1999/xlink">
    <!-- Generator: Sketch 60.1 (88133) - https://sketch.com -->
    <title>Tools / workflows / workflows_24</title>
    <desc>Created with Sketch.</desc>
    <g id="Tools-/-workflows-/-workflows_24" stroke="none" stroke-width="1" fill="none" fill-rule="evenodd">
        <path d="M15.5,8 C15.224,8 15,8.224 15,8.5 L15,12.5 C15,12.776 15.224,13 15.5,13 L19.5,13 C19.776,13 20,12.776 20,12.5 L20,8.5 C20,8.224 19.776,8 19.5,8 L15.5,8 Z M15.5,14 C14.673,14 14,13.327 14,12.5 L14,8.5 C14,7.673 14.673,7 15.5,7 L19.5,7 C20.327,7 21,7.673 21,8.5 L21,12.5 C21,13.327 20.327,14 19.5,14 L15.5,14 Z M1.5,15 C1.224,15 1,15.224 1,15.5 L1,19.5 C1,19.776 1.224,20 1.5,20 L5.5,20 C5.776,20 6,19.776 6,19.5 L6,15.5 C6,15.224 5.776,15 5.5,15 L1.5,15 Z M1.5,21 C0.673,21 0,20.327 0,19.5 L0,15.5 C0,14.673 0.673,14 1.5,14 L5.5,14 C6.327,14 7,14.673 7,15.5 L7,19.5 C7,20.327 6.327,21 5.5,21 L1.5,21 Z M12,17.5 C12,17.2238576 12.2238576,17 12.5,17 L21.5,17 C22.327,17 23,16.327 23,15.5 L23,5.5 C23,4.673 22.327,4 21.5,4 L2.5,4 C1.673,4 1,4.673 1,5.5 L1,11.5 C1,11.7761424 0.776142375,12 0.5,12 C0.223857625,12 0,11.7761424 0,11.5 L0,5.5 C0,4.122 1.122,3 2.5,3 L21.5,3 C22.878,3 24,4.122 24,5.5 L24,15.5 C24,16.878 22.878,18 21.5,18 L12.5,18 C12.2238576,18 12,17.7761424 12,17.5 Z M7.0001,18 L7.0001,17 L8.7451,17 C8.9671,17 9.1651,16.851 9.2271,16.636 L10.8111,11.089 C10.9951,10.448 11.5891,10 12.2551,10 L14.0001,10 L14.0001,11 L12.2551,11 C12.0331,11 11.8341,11.149 11.7731,11.364 L10.1881,16.911 C10.0051,17.552 9.4111,18 8.7451,18 L7.0001,18 Z" id="workflows_24" fill="#00090D"></path>
    </g>
</svg>