<?xml version="1.0" encoding="UTF-8"?>
<svg width="36px" height="36px" viewBox="0 0 36 36" version="1.1" xmlns="http://www.w3.org/2000/svg" xmlns:xlink="http://www.w3.org/1999/xlink">
    <!-- Generator: Sketch 60.1 (88133) - https://sketch.com -->
    <title>Tools / workflows / workflows_36</title>
    <desc>Created with Sketch.</desc>
    <g id="Tools-/-workflows-/-workflows_36" stroke="none" stroke-width="1" fill="none" fill-rule="evenodd">
        <path d="M9,27 L12.0420798,27 C12.693667,27 13.270731,26.5793434 13.4701227,25.9590138 L17.0778488,14.734977 C17.4101682,13.7010944 18.3719415,13 19.4579202,13 L23,13 L23,12 C23,10.3431458 24.3431458,9 26,9 L29,9 C30.6568542,9 32,10.3431458 32,12 L32,15 C32,16.6568542 30.6568542,18 29,18 L26,18 C24.3431458,18 23,16.6568542 23,15 L23,14 L19.4579202,14 C18.806333,14 18.229269,14.4206566 18.0298773,15.0409862 L14.4221512,26.265023 C14.0898318,27.2989056 13.1280585,28 12.0420798,28 L9,28 L9,29 C9,30.6568542 7.65685425,32 6,32 L3,32 C1.34314575,32 0,30.6568542 0,29 L0,26 C0,24.3431458 1.34314575,23 3,23 L6,23 C7.65685425,23 9,24.3431458 9,26 L9,27 Z M17,27.5 C17,27.2238576 17.2238576,27 17.5,27 L32.5,27 C33.8807119,27 35,25.8807119 35,24.5 L35,7.5 C35,6.11928813 33.8807119,5 32.5,5 L3.5,5 C2.11928813,5 1,6.11928813 1,7.5 L1,19.5 C1,19.7761424 0.776142375,20 0.5,20 C0.223857625,20 0,19.7761424 0,19.5 L0,7.5 C0,5.56700338 1.56700338,4 3.5,4 L32.5,4 C34.4329966,4 36,5.56700338 36,7.5 L36,24.5 C36,26.4329966 34.4329966,28 32.5,28 L17.5,28 C17.2238576,28 17,27.7761424 17,27.5 Z M3,24 C1.8954305,24 1,24.8954305 1,26 L1,29 C1,30.1045695 1.8954305,31 3,31 L6,31 C7.1045695,31 8,30.1045695 8,29 L8,26 C8,24.8954305 7.1045695,24 6,24 L3,24 Z M26,10 C24.8954305,10 24,10.8954305 24,12 L24,15 C24,16.1045695 24.8954305,17 26,17 L29,17 C30.1045695,17 31,16.1045695 31,15 L31,12 C31,10.8954305 30.1045695,10 29,10 L26,10 Z" id="workflows_36" fill="#00090D"></path>
    </g>
</svg>