<?xml version="1.0" encoding="UTF-8"?>
<svg width="24px" height="24px" viewBox="0 0 24 24" version="1.1" xmlns="http://www.w3.org/2000/svg" xmlns:xlink="http://www.w3.org/1999/xlink">
    <!-- Generator: Sketch 60.1 (88133) - https://sketch.com -->
    <title>Action/zoom/zoom-in_24</title>
    <desc>Created with Sketch.</desc>
    <g id="Action/zoom/zoom-in_24" stroke="none" stroke-width="1" fill="none" fill-rule="evenodd">
        <path d="M16.0329015,16.6787267 C14.4367505,18.1214342 12.3209753,19 10,19 C5.02943725,19 1,14.9705627 1,10 C1,5.02943725 5.02943725,1 10,1 C14.9705627,1 19,5.02943725 19,10 C19,12.3209753 18.1214342,14.4367505 16.6787267,16.0329015 C16.7424514,16.0572432 16.8021984,16.0950916 16.8535534,16.1464466 L22.3535534,21.6464466 C22.5488155,21.8417088 22.5488155,22.1582912 22.3535534,22.3535534 C22.1582912,22.5488155 21.8417088,22.5488155 21.6464466,22.3535534 L16.1464466,16.8535534 C16.0950916,16.8021984 16.0572432,16.7424514 16.0329015,16.6787267 Z M10,18 C14.418278,18 18,14.418278 18,10 C18,5.581722 14.418278,2 10,2 C5.581722,2 2,5.581722 2,10 C2,14.418278 5.581722,18 10,18 Z M9.5,9.5 L9.5,5.5 C9.5,5.22385763 9.72385763,5 10,5 C10.2761424,5 10.5,5.22385763 10.5,5.5 L10.5,9.5 L14.5,9.5 C14.7761424,9.5 15,9.72385763 15,10 C15,10.2761424 14.7761424,10.5 14.5,10.5 L10.5,10.5 L10.5,14.5 C10.5,14.7761424 10.2761424,15 10,15 C9.72385763,15 9.5,14.7761424 9.5,14.5 L9.5,10.5 L5.5,10.5 C5.22385763,10.5 5,10.2761424 5,10 C5,9.72385763 5.22385763,9.5 5.5,9.5 L9.5,9.5 Z" id="zoom-in_24" fill="#00090D"></path>
    </g>
</svg>